<?xml version="1.0" standalone="no"?>
<!DOCTYPE svg PUBLIC "-//W3C//DTD SVG 20010904//EN"
 "http://www.w3.org/TR/2001/REC-SVG-20010904/DTD/svg10.dtd">
<svg version="1.0" xmlns="http://www.w3.org/2000/svg"
 width="210.000000pt" height="266.000000pt" viewBox="0 0 210.000000 266.000000"
 preserveAspectRatio="xMidYMid meet">
<metadata>
Created by potrace 1.16, written by Peter Selinger 2001-2019
</metadata>
<g transform="translate(0.000000,266.000000) scale(0.100000,-0.100000)"
fill="#F10012" stroke="none">
<path d="M1697 2462 c-14 -16 -17 -43 -17 -168 0 -189 -14 -361 -33 -407 -23
-55 -51 -77 -97 -77 -35 0 -48 8 -112 66 -97 89 -156 115 -252 116 -59 0 -86
-5 -128 -24 -59 -28 -129 -93 -148 -138 l-12 -29 -48 24 c-62 32 -167 49 -252
42 -192 -16 -358 -178 -403 -395 -19 -89 -19 -246 1 -335 59 -268 272 -450
509 -435 111 7 115 12 115 118 0 85 -1 90 -25 106 -22 14 -31 15 -70 4 -126
-35 -241 52 -289 220 -37 134 -28 261 27 369 45 90 97 126 181 125 38 0 73 -7
94 -17 68 -36 80 -68 202 -501 l113 -406 98 0 c93 0 99 1 118 26 11 14 18 31
16 37 -29 84 -208 764 -212 801 -7 76 13 127 60 150 52 25 91 16 157 -39 130
-107 292 -142 418 -89 52 21 127 98 151 155 47 108 53 154 58 417 l5 253 -23
25 c-20 22 -30 24 -104 24 -67 0 -85 -3 -98 -18z"/>
<path d="M490 490 c0 -5 8 -19 17 -30 22 -26 123 -30 123 -5 0 11 -11 15 -39
15 -25 0 -41 5 -45 15 -6 16 -56 21 -56 5z"/>
<path d="M1127 463 c-18 -17 -1 -23 68 -23 60 0 75 3 75 15 0 12 -14 15 -68
15 -38 0 -72 -3 -75 -7z"/>
<path d="M322 293 l3 -108 28 -3 c19 -2 27 1 27 12 0 9 -4 16 -10 16 -6 0 -10
38 -10 95 0 89 -1 95 -20 95 -20 0 -21 -5 -18 -107z"/>
<path d="M434 375 c-21 -21 -24 -28 -13 -41 8 -9 11 -40 10 -84 -2 -64 -1 -70
18 -70 17 0 20 8 23 73 2 50 -1 76 -10 86 -16 17 0 31 36 31 54 0 62 -14 62
-106 0 -76 2 -85 18 -82 14 3 17 17 20 90 2 79 1 88 -20 107 -33 32 -111 29
-144 -4z"/>
<path d="M647 393 c-4 -3 -7 -15 -7 -26 0 -14 4 -17 18 -12 34 15 67 16 86 2
15 -11 20 -30 24 -96 3 -60 8 -81 18 -81 11 0 14 20 14 88 0 80 -2 91 -23 110
-18 17 -36 22 -73 22 -28 0 -54 -3 -57 -7z"/>
<path d="M864 375 c-21 -21 -24 -28 -13 -41 8 -9 11 -40 10 -84 -2 -64 -1 -70
18 -70 17 0 20 8 23 73 3 51 0 77 -10 89 -13 15 -11 18 13 24 15 4 40 3 54 -2
25 -9 26 -13 29 -97 2 -77 5 -88 20 -85 14 3 17 17 20 90 2 79 1 88 -20 107
-33 32 -111 29 -144 -4z"/>
<path d="M1091 381 c-12 -12 -17 -27 -14 -41 6 -21 6 -21 32 4 44 42 91 30
110 -27 25 -74 -35 -131 -101 -96 -16 8 -22 8 -29 -2 -22 -37 65 -62 116 -34
40 21 55 52 55 111 0 37 -6 51 -29 75 -24 24 -38 29 -75 29 -32 0 -52 -6 -65
-19z"/>
<path d="M1320 314 c0 -47 5 -94 11 -105 15 -29 56 -41 116 -33 l53 6 0 109
c0 102 -1 109 -20 109 -18 0 -20 -7 -20 -78 0 -84 -14 -112 -56 -112 -36 0
-44 20 -44 107 0 76 -2 83 -20 83 -18 0 -20 -7 -20 -86z"/>
</g>
</svg>
