<svg id="Layer_1" data-name="Layer 1" xmlns="http://www.w3.org/2000/svg" viewBox="0 0 126.66 121.03"><defs><clipPath id="clip-path" transform="translate(-344.07 -243.72)"><path d="M450.91 256.23l-27.8 11.44s29.33 14.64 25.15 51.88c-4.74 29-26.36 38.36-26.36 38.36s28.17-6.28 43.54-33.89c18.8-41.29-14.53-67.79-14.53-67.79z" fill="none"/></clipPath><style>.cls-7{fill:#252f38}</style></defs><g clip-path="url(#clip-path)"><path d="M415.18 243.72a55.55 55.55 0 00-54.63 45.57 52.34 52.34 0 1175.37 61.5 55.54 55.54 0 00-20.74-107.07z" transform="translate(-344.07 -243.72)" fill="#94cc00"/><path d="M407.91 247.62a55.55 55.55 0 00-54.63 45.57 52.34 52.34 0 1175.37 61.5 55.54 55.54 0 00-20.74-107.07z" transform="translate(-344.07 -243.72)" fill="#00b6d7"/></g><path d="M401.13 251.06a55.55 55.55 0 00-54.63 45.57 52.34 52.34 0 1175.37 61.51 55.55 55.55 0 00-20.74-107.08z" transform="translate(-344.07 -243.72)" fill="#007fb2"/><circle cx="52.33" cy="68.7" r="52.33" fill="#ffb800"/><path class="cls-7" d="M377.92 286.59h-1.52a.64.64 0 01-.42-.13.87.87 0 01-.24-.32l-1-2.66h-5.19l-1 2.66a.74.74 0 01-.23.31.59.59 0 01-.42.14h-1.52l4.78-12h2zm-3.71-4.52l-1.66-4.4a12.88 12.88 0 01-.41-1.3c-.06.26-.13.5-.2.72s-.14.42-.2.59l-1.66 4.39z" transform="translate(-344.07 -243.72)"/><path class="cls-7" d="M389.41 286.59h-1.51a.64.64 0 01-.42-.13.7.7 0 01-.24-.32l-1-2.66H381l-1 2.66a.87.87 0 01-.24.31.59.59 0 01-.42.14h-1.51l4.78-12h2zm-3.71-4.52l-1.65-4.4a10.74 10.74 0 01-.41-1.3c-.06.26-.13.5-.2.72s-.14.42-.21.59l-1.65 4.39zm14.3 4.52h-1.75a.81.81 0 01-.76-.4l-2.81-4.06a1 1 0 00-.31-.3 1.09 1.09 0 00-.5-.09h-1.09v4.85h-2v-12h3.55a7.74 7.74 0 012.05.24 3.87 3.87 0 011.41.69 2.66 2.66 0 01.81 1.08 3.45 3.45 0 01.27 1.39 3.52 3.52 0 01-.19 1.18 3.37 3.37 0 01-1.42 1.76 5.06 5.06 0 01-1.18.51 1.8 1.8 0 01.62.61zm-5.68-6.28a3.72 3.72 0 001.17-.16 2.26 2.26 0 00.84-.46 1.8 1.8 0 00.5-.69 2.44 2.44 0 00.17-.9 1.82 1.82 0 00-.65-1.51 3.14 3.14 0 00-2-.52h-1.59v4.24zm15.36 3.6a.38.38 0 01.28.12l.78.85a5.11 5.11 0 01-1.81 1.37 6.25 6.25 0 01-2.56.48 5.89 5.89 0 01-2.39-.46 5.15 5.15 0 01-1.82-1.27 5.53 5.53 0 01-1.16-1.95 7.07 7.07 0 01-.41-2.49 6.93 6.93 0 01.43-2.49 5.89 5.89 0 011.21-1.95 5.55 5.55 0 011.88-1.26 6.09 6.09 0 012.41-.46 5.69 5.69 0 012.3.43 5.6 5.6 0 011.74 1.12l-.64.91a.61.61 0 01-.16.16.39.39 0 01-.25.07.71.71 0 01-.39-.15 5.13 5.13 0 00-.54-.35 4.44 4.44 0 00-.83-.34 4.29 4.29 0 00-1.24-.16 3.87 3.87 0 00-1.58.31 3.4 3.4 0 00-1.24.87 4.07 4.07 0 00-.81 1.41 5.75 5.75 0 00-.29 1.88 5.57 5.57 0 00.3 1.9 4.08 4.08 0 00.83 1.41 3.58 3.58 0 001.24.87 3.9 3.9 0 001.53.3 6.09 6.09 0 00.9-.05 3.12 3.12 0 00.73-.18 3.41 3.41 0 00.64-.3 3.85 3.85 0 00.59-.45.49.49 0 01.33-.15zm12.74-9.37v12h-2v-5.36h-6.02v5.36h-2v-12h2v5.27h6.06v-5.27zm-48.03 38.63l-.95 1.19c-.31.37-.6.75-.9 1.13a13.51 13.51 0 013.17-1.29 14.2 14.2 0 013.7-.47 15 15 0 015 .86 12.23 12.23 0 014.25 2.58 12.48 12.48 0 012.94 4.23 14.49 14.49 0 011.09 5.82 15 15 0 01-1.14 5.86 14.32 14.32 0 01-3.22 4.76 15.35 15.35 0 01-5 3.2 18.25 18.25 0 01-12.75 0 13.57 13.57 0 01-4.81-3.18 13.93 13.93 0 01-3.06-4.94 18.45 18.45 0 01-1.07-6.43 17.56 17.56 0 011.36-6.39 31 31 0 014.08-7.06l11.1-14.9a4.11 4.11 0 011.46-1.13 4.85 4.85 0 012.15-.47h6zm2.48 23.46a10 10 0 003.73-.68 8.75 8.75 0 002.91-1.86 8.39 8.39 0 001.86-2.83 9.29 9.29 0 00.66-3.54 10.15 10.15 0 00-.64-3.72 7.73 7.73 0 00-1.82-2.77 7.89 7.89 0 00-2.82-1.74 10.32 10.32 0 00-3.63-.61 9.43 9.43 0 00-3.68.68 8.26 8.26 0 00-4.6 4.68 9.11 9.11 0 00-.62 3.39 11.3 11.3 0 00.56 3.67 7.82 7.82 0 001.66 2.83 7.48 7.48 0 002.72 1.84 9.71 9.71 0 003.71.66zM429.85 325v3.89a1.4 1.4 0 01-.36 1 1.34 1.34 0 01-1.08.41h-4.8v11.42h-5.87v-11.43H398.2a1.93 1.93 0 01-1.91-1.47l-.69-3.45 21.67-28.86h6.34V325zm-12.11 0v-16.5a36.41 36.41 0 01.29-4.33L402.84 325z" transform="translate(-344.07 -243.72)"/></svg>