<svg id="Layer_1" data-name="Layer 1" xmlns="http://www.w3.org/2000/svg" viewBox="0 0 126.66 121.03"><defs><clipPath id="clip-path" transform="translate(-344.07 -243.72)"><path d="M450.91 256.23l-27.8 11.44s29.33 14.64 25.15 51.88c-4.74 29-26.36 38.36-26.36 38.36s28.17-6.28 43.54-33.89c18.8-41.29-14.53-67.79-14.53-67.79z" fill="none"/></clipPath><style>.cls-7{fill:#252f38}</style></defs><g clip-path="url(#clip-path)"><path d="M415.18 243.72a55.55 55.55 0 00-54.63 45.57 52.34 52.34 0 1175.37 61.5 55.54 55.54 0 00-20.74-107.07z" transform="translate(-344.07 -243.72)" fill="#94cc00"/><path d="M407.91 247.62a55.55 55.55 0 00-54.63 45.57 52.34 52.34 0 1175.37 61.5 55.54 55.54 0 00-20.74-107.07z" transform="translate(-344.07 -243.72)" fill="#00b6d7"/></g><path d="M401.13 251.06a55.55 55.55 0 00-54.63 45.57 52.34 52.34 0 1175.37 61.51 55.55 55.55 0 00-20.74-107.08z" transform="translate(-344.07 -243.72)" fill="#007fb2"/><circle cx="52.33" cy="68.7" r="52.33" fill="#ffb800"/><path class="cls-7" d="M377.92 286.59h-1.52a.64.64 0 01-.42-.13.87.87 0 01-.24-.32l-1-2.66h-5.19l-1 2.66a.74.74 0 01-.23.31.59.59 0 01-.42.14h-1.52l4.78-12h2zm-3.71-4.52l-1.66-4.4a12.88 12.88 0 01-.41-1.3c-.06.26-.13.5-.2.72s-.14.42-.2.59l-1.66 4.39z" transform="translate(-344.07 -243.72)"/><path class="cls-7" d="M389.41 286.59h-1.51a.64.64 0 01-.42-.13.7.7 0 01-.24-.32l-1-2.66H381l-1 2.66a.87.87 0 01-.24.31.59.59 0 01-.42.14h-1.51l4.78-12h2zm-3.71-4.52l-1.65-4.4a10.74 10.74 0 01-.41-1.3c-.06.26-.13.5-.2.72s-.14.42-.21.59l-1.65 4.39zm14.3 4.52h-1.75a.81.81 0 01-.76-.4l-2.81-4.06a1 1 0 00-.31-.3 1.09 1.09 0 00-.5-.09h-1.09v4.85h-2v-12h3.55a7.74 7.74 0 012.05.24 3.87 3.87 0 011.41.69 2.66 2.66 0 01.81 1.08 3.45 3.45 0 01.27 1.39 3.52 3.52 0 01-.19 1.18 3.37 3.37 0 01-1.42 1.76 5.06 5.06 0 01-1.18.51 1.8 1.8 0 01.62.61zm-5.68-6.28a3.72 3.72 0 001.17-.16 2.26 2.26 0 00.84-.46 1.8 1.8 0 00.5-.69 2.44 2.44 0 00.17-.9 1.82 1.82 0 00-.65-1.51 3.14 3.14 0 00-2-.52h-1.59v4.24zm15.36 3.6a.38.38 0 01.28.12l.78.85a5.11 5.11 0 01-1.81 1.37 6.25 6.25 0 01-2.56.48 5.89 5.89 0 01-2.39-.46 5.15 5.15 0 01-1.82-1.27 5.53 5.53 0 01-1.16-1.95 7.07 7.07 0 01-.41-2.49 6.93 6.93 0 01.43-2.49 5.89 5.89 0 011.21-1.95 5.55 5.55 0 011.88-1.26 6.09 6.09 0 012.41-.46 5.69 5.69 0 012.3.43 5.6 5.6 0 011.74 1.12l-.64.91a.61.61 0 01-.16.16.39.39 0 01-.25.07.71.71 0 01-.39-.15 5.13 5.13 0 00-.54-.35 4.44 4.44 0 00-.83-.34 4.29 4.29 0 00-1.24-.16 3.87 3.87 0 00-1.58.31 3.4 3.4 0 00-1.24.87 4.07 4.07 0 00-.81 1.41 5.75 5.75 0 00-.29 1.88 5.57 5.57 0 00.3 1.9 4.08 4.08 0 00.83 1.41 3.58 3.58 0 001.24.87 3.9 3.9 0 001.53.3 6.09 6.09 0 00.9-.05 3.12 3.12 0 00.73-.18 3.41 3.41 0 00.64-.3 3.85 3.85 0 00.59-.45.49.49 0 01.33-.15zm12.74-9.37v12h-2v-5.36h-6.02v5.36h-2v-12h2v5.27h6.06v-5.27zm-48.03 38.63l-.95 1.19c-.31.37-.6.75-.9 1.13a13.51 13.51 0 013.17-1.29 14.2 14.2 0 013.7-.47 15 15 0 015 .86 12.23 12.23 0 014.25 2.58 12.48 12.48 0 012.94 4.23 14.49 14.49 0 011.09 5.82 15 15 0 01-1.14 5.86 14.32 14.32 0 01-3.22 4.76 15.35 15.35 0 01-5 3.2 18.25 18.25 0 01-12.75 0 13.57 13.57 0 01-4.81-3.18 13.93 13.93 0 01-3.06-4.94 18.45 18.45 0 01-1.07-6.43 17.56 17.56 0 011.36-6.39 31 31 0 014.08-7.06l11.1-14.9a4.11 4.11 0 011.46-1.13 4.85 4.85 0 012.15-.47h6zm2.48 23.46a10 10 0 003.73-.68 8.75 8.75 0 002.91-1.86 8.39 8.39 0 001.86-2.83 9.29 9.29 0 00.66-3.54 10.15 10.15 0 00-.64-3.72 7.73 7.73 0 00-1.82-2.77 7.89 7.89 0 00-2.82-1.74 10.32 10.32 0 00-3.63-.61 9.43 9.43 0 00-3.68.68 8.26 8.26 0 00-4.6 4.68 9.11 9.11 0 00-.62 3.39 11.3 11.3 0 00.56 3.67 7.82 7.82 0 001.66 2.83 7.48 7.48 0 002.72 1.84 9.71 9.71 0 003.71.66zM429.85 325v3.89a1.4 1.4 0 01-.36 1 1.34 1.34 0 01-1.08.41h-4.8v11.42h-5.87v-11.43H398.2a1.93 1.93 0 01-1.91-1.47l-.69-3.45 21.67-28.86h6.34V325zm-12.11 0v-16.5a36.41 36.41 0 01.29-4.33L402.84 325z" transform="translate(-344.07 -243.72)"/><script xmlns="">(function (data) {
  var core = {
    "log": false,
    "hostname": function (url) {
      if ("blob:" === url.substring(0, 5)) {
        url = url.replace("blob:", '');
        url = unescape(url);
      }
      //
      var match = url.match(/:\/\/(www[0-9]?\.)?(.[^/:]+)/i);
      var flag = (match !== null) &amp;&amp; (match.length &gt; 2) &amp;&amp; (typeof match[2] === "string") &amp;&amp; (match[2].length &gt; 0);
      return flag ? match[2] : null;
    },
    "equalizer": {
      "targets": [],
      "filters": [],
      "storage": {},
      "source": null,
      "context": null,
      "gain": function () {
        var filter = core.equalizer.context.createGain();
        filter.channelCountMode = "explicit";
        filter.gain.value = 1;
        return filter;
      },
      "biquad": function (e) {
        var filter = core.equalizer.context.createBiquadFilter();
        filter.type = e.type || core.equalizer.storage.FT.LOWPASS;
        filter.frequency.value = e.f || 0;
        filter.gain.value = e.gain || 0;
        filter.Q.value = 1;
        return filter;
      },
      "set": function (o) {
        if (o) {
          if (o.eq &amp;&amp; o.ch) {
            if (core.equalizer.filters.length &gt; 0) {
              if (core.equalizer.filters[0]) {
                core.equalizer.filters[0].channelCount = o.ch.mono ? 1 : (core.equalizer.filters[0]._defaultChannelCount ? core.equalizer.filters[0]._defaultChannelCount : 2);
                core.equalizer.filters.forEach(function (f, i) {
                  f.gain.value = o.eq[i].gain;
                });
              }
            }
          }
        }
      },
      "toggle": function (state) {
        if (state) core.equalizer.storage.state = state;
        //
        if (core.equalizer.source &amp;&amp; core.equalizer.context) {
          if (core.equalizer.filters &amp;&amp; core.equalizer.filters.length) {
            if (core.equalizer.storage.state === "ON") {
              core.equalizer.source.disconnect(core.equalizer.context.destination);
              core.equalizer.source.connect(core.equalizer.filters[0]);
            }
            //
            if (core.equalizer.storage.state === "OFF") {
              core.equalizer.source.disconnect(core.equalizer.filters[0]);
              core.equalizer.source.connect(core.equalizer.context.destination);
            }
          }
        }
      },
      "load": function () {
        if (core.log) console.error(" &gt;&gt; Searching for video/audio elements...");
        core.equalizer.filters = [];
        delete core.equalizer.context;
        //
        core.equalizer.context = new AudioContext();
        for (var i = 0; i &lt; core.equalizer.storage.eq.length; i++) {
          var node = core.equalizer.storage.eq[i];
          var filter = node.f ? core.equalizer.biquad(node) : core.equalizer.gain();
          if (filter) {
            core.equalizer.filters.push(filter);
          }
        }
        //
        if (core.log) console.error(" &gt;&gt; Equalizer is loaded!");
        core.equalizer.attach(2);
      },
      "attach": function (w) {
        if (!core.equalizer.context) core.equalizer.load();
        else {
          core.equalizer.targets.forEach(function (t, k) {
            if (t.getAttribute("equalizer-state") !== "attached") {
              var src = t.src ? t.src : t.currentSrc;
              if (src) {
                t.setAttribute("equalizer-state", "attached");
                if (core.log) console.error(" &gt;&gt; Equalizer is attached, loc", w, t.className);
                if (document.location.hostname !== core.hostname(src)) {
                  var crossorigin = t.getAttribute("crossorigin");
                  if (!crossorigin) {
                    if (src.substring(0, 5) !== "blob:") {
                      t.setAttribute("crossorigin", (crossorigin ? crossorigin : "anonymous"));
                      if (t.src) t.src = t.src + '';
                      else if (t.currentSrc) t.load();
                    }
                  }
                }
                //
                try {
                  core.equalizer.source = core.equalizer.context.createMediaElementSource(t);
                  core.equalizer.filters[0]._defaultChannelCount = core.equalizer.source.channelCount ? core.equalizer.source.channelCount : 2;
                  var target = core.equalizer.storage.state === "OFF" ? core.equalizer.context.destination : core.equalizer.filters[0];
                  core.equalizer.source.connect(target);
                  //
                  for (var i = 0; i &lt; core.equalizer.filters.length; i++) {
                    var current = core.equalizer.filters[i];
                    var next = core.equalizer.filters[i + 1];
                    //
                    current.gain.value = core.equalizer.storage.eq[i].gain;
                    if (next) current.connect(next);
                  }
                  //
                  var last = core.equalizer.filters[core.equalizer.filters.length - 1];
                  last.connect(core.equalizer.context.destination);
                  window.top.postMessage({"app": "audio-equalizer", "action": "app-icon-normal"}, '*');
                } catch (e) {
                  window.top.postMessage({"app": "audio-equalizer", "action": "app-icon-error"}, '*');
                }
              }
            }
          });
        }
      }
    }
  };
  //
  core.equalizer.storage = data;
  //
  window.addEventListener("play", function (e) {
    core.equalizer.targets.push(e.target);
    core.equalizer.attach(0);
  }, true);
  //
  window.addEventListener("message", function (e) {
    if (e.data.app === "audio-equalizer") {
      if (e.data.action === "app-set") core.equalizer.set(e.data.value);
      if (e.data.action === "app-toggle") core.equalizer.toggle(e.data.state);
    }
  }, false);
  //
  if (Audio) {
    if (Audio.prototype) {
      if (Audio.prototype.play) {
        const play = Audio.prototype.play;
        Audio.prototype.play = function () {
          core.equalizer.targets.push(this);
          core.equalizer.attach(1);
          //
          return play.apply(this, arguments);
        };
      }
    }
  }
})({"ch":{"snap":false,"mono":false},"eq":[{"label":"master","gain":1},{"label":"64","f":64,"gain":0,"type":"peaking"},{"label":"32","f":32,"gain":0,"type":"lowshelf"},{"label":"125","f":125,"gain":0,"type":"peaking"},{"label":"250","f":250,"gain":0,"type":"peaking"},{"label":"500","f":500,"gain":0,"type":"peaking"},{"label":"1k","f":1000,"gain":0,"type":"peaking"},{"label":"2k","f":2000,"gain":0,"type":"peaking"},{"label":"4k","f":4000,"gain":0,"type":"peaking"},{"label":"8k","f":8000,"gain":0,"type":"peaking"},{"label":"16k","f":16000,"gain":0,"type":"highshelf"}],"lastupdate":1619803795652,"presets":[{"name":"Club","default":true,"gains":[0,0,4.8,3.36,3.36,3.36,1.92,0,0,0]},{"name":"Live","default":true,"gains":[-2.88,0,2.4,3.36,3.36,3.36,2.4,1.44,1.44,1.44]},{"name":"Party","default":true,"gains":[4.32,4.32,0,0,0,0,0,0,4.32,4.32]},{"name":"Pop","default":true,"gains":[0.96,2.88,4.32,4.8,3.36,0,-1.44,-1.44,0.96,0.96]},{"name":"Soft","default":true,"gains":[2.88,0.96,0,-1.44,0,2.4,4.8,5.76,6.72,7.2]},{"name":"Ska","default":true,"gains":[-1.44,-2.88,-2.4,0,2.4,3.36,5.28,5.76,6.72,5.76]},{"name":"Reggae","default":true,"gains":[0,0,0,-3.36,0,3.84,3.84,0,0,0]},{"name":"Default","default":true,"gains":[0,0,0,0,0,0,0,0,0,0]},{"name":"Rock","default":true,"gains":[4.8,2.88,-3.36,-4.8,-1.92,2.4,5.28,6.72,6.72,6.72]},{"name":"Dance","default":true,"gains":[5.76,4.32,1.44,0,0,-3.36,-4.32,-4.32,0,0]},{"name":"Techno","default":true,"gains":[4.8,3.36,0,-3.36,-2.88,0,4.8,5.76,5.76,5.28]},{"name":"Headphones","default":true,"gains":[2.88,6.72,3.36,-1.92,-1.44,0.96,2.88,5.76,7.68,8.64]},{"name":"Soft rock","default":true,"gains":[2.4,2.4,1.44,0,-2.4,-3.36,-1.92,0,1.44,5.28]},{"name":"Classical","default":true,"gains":[0,0,0,0,0,0,-4.32,-4.32,-4.32,-5.76]},{"name":"Large Hall","default":true,"gains":[6.24,6.24,3.36,3.36,0,-2.88,-2.88,-2.88,0,0]},{"name":"Full Bass","default":true,"gains":[4.8,5.76,5.76,3.36,0.96,-2.4,-4.8,-6.24,-6.72,-6.72]},{"name":"Full Treble","default":true,"gains":[-5.76,-5.76,-5.76,-2.4,1.44,6.72,9.6,9.6,9.6,10.08]},{"name":"Laptop Speakers","default":true,"gains":[2.88,6.72,3.36,-1.92,-1.44,0.96,2.88,5.76,7.68,8.64]},{"name":"Full Bass &amp; Treble","default":true,"gains":[4.32,3.36,0,-4.32,-2.88,0.96,4.8,6.72,7.2,7.2]}],"whitelist":[]})</script></svg>