<svg xmlns="http://www.w3.org/2000/svg" viewBox="0 0 152.364 32.413">
  <defs><style>.a { fill:#464646; } .b { fill:#ec6d6d; } .c { fill:#e64342; }</style></defs>
  <g transform="translate(-13.24 -22.75)">
    <path class="a" d="M87.152,64.732l-2.045-5.015H75.651l-2.045,5.015H68.59L78.176,42.21h4.535L92.3,64.732ZM80.381,48.121l-2.97,7.251h5.941Z" transform="translate(-27.672 -9.729)"/>
    <path class="a" d="M184.426,64.917h-4.37l-9.1-22.657h5.465l5.881,15.847,5.881-15.847h5.336Z" transform="translate(-78.853 -9.754)"/>
    <path class="a" d="M242.312,64.757l-10.9-14.3v14.3H226.53V42.26H231.1l10.541,13.851V42.26h4.885v22.5Z" transform="translate(-106.635 -9.754)"/>
    <path class="a" d="M280.46,64.752v-3.76l12.376-14.4H280.85V42.25H299.2v3.76l-12.376,14.4H299.2v4.34H280.46Z" transform="translate(-133.597 -9.749)"/>
    <path class="b" d="M24.591,30.351h0l6.006,3.29,5.3-2.9-2.2-4.01-6.836,3.74V22.75H22.291v7.706l-6.811-3.73-2.2,4.015,5.3,2.9Z" transform="translate(-0.02 0)"/>
    <path class="c" d="M26.851,55.036V48.706l6.811,3.73,2.2-4.015L24.551,42.23h0L13.24,48.421l2.2,4.015,6.841-3.745v6.346Z" transform="translate(0 -9.739)"/>
    <g transform="translate(69.485 32.616)">
      <path class="a" d="M134.456,64.882H125.72V42.48h8.736c7.041,0,11.906,4.83,11.906,11.136v.065C146.362,59.982,141.5,64.882,134.456,64.882Zm6.751-11.2a6.431,6.431,0,0,0-6.751-6.751h-3.81V60.437h3.81a6.383,6.383,0,0,0,6.751-6.691Z" transform="translate(-125.72 -42.48)"/>
    </g>
  </g>
</svg>