<svg xmlns="http://www.w3.org/2000/svg" width="390" height="102" viewBox="0 0 51.59 13.49" fill="currentColor">
    <path d="M44.58.26l-5.42 11.2.86.38 4.37-9.01 6.05 3.73-4.49 2.77.58.79 4.82-3.01V6l-6.54-4.05.62-1.3-.85-.4zm-24.92.76V4.5a2.26 2.26 0 00-1.8-.8c-1.64 0-2.62 1.49-2.62 3.5 0 2.08.8 3.48 2.55 3.48.73 0 1.4-.32 1.9-1.02l.1.88h.94V1.15l-1.07-.13zM9.18 1.8L6.6 10.54h1.13l.62-2.23h2.6l.45 2.23h3.06v-.9H12.3l-.66-3.1h2.2v-.9h-2.37l-.64-2.95h3l.12-.9H9.18zm.64.87l.93 4.73h-2.1l1.17-4.73zM5.14 3L.26 6v1.1l4.83 3.02.57-.78-4.48-2.78 4.48-2.75-.52-.82zm23.57.16c-.79.33-1.37.55-3.05.55-1.58 0-2.66.97-2.66 2.33 0 .86.35 1.45 1.11 1.84-.48.32-.73.75-.73 1.17 0 .67.52 1.27 1.69 1.27h1.19c.85 0 1.5.32 1.5.95 0 .72-.65 1.1-2.11 1.1-1.5 0-1.85-.36-1.85-1.15h-.97c0 1.36.69 2.02 2.82 2.02 2.03 0 3.19-.72 3.19-2.03 0-1.04-1.02-1.82-2.36-1.82h-1.21c-.69 0-.89-.25-.89-.57 0-.24.15-.5.34-.65.3.1.56.14 1 .14 1.6 0 2.52-.95 2.52-2.27 0-.76-.38-1.34-1.17-1.7.75 0 1.4 0 1.96-.18l-.32-1zm4.8.55c-1.77 0-2.9 1.48-2.9 3.5 0 2.08 1.1 3.48 3.06 3.48.83 0 1.66-.3 2.29-.78l-.5-.7c-.6.38-1.1.59-1.79.59-1.03 0-1.9-.68-1.94-2.23h4.5l.02-.57c0-2.03-1.04-3.29-2.73-3.29zm-7.86.8c.99 0 1.49.51 1.49 1.52 0 .99-.51 1.57-1.47 1.57-1.09 0-1.58-.65-1.58-1.56 0-.9.48-1.54 1.56-1.54zm-7.51.07c.62 0 1.15.32 1.52.86v3.33c-.37.56-.89 1.07-1.65 1.07-1.05 0-1.61-.9-1.61-2.63 0-1.77.63-2.63 1.74-2.63zm15.4.01c1 0 1.64.74 1.67 2.17h-3.48c.09-1.47.81-2.17 1.8-2.17z"/>
</svg>