<svg id="Layer_1" data-name="Layer 1" xmlns="http://www.w3.org/2000/svg" xmlns:xlink="http://www.w3.org/1999/xlink" viewBox="0 0 100 100"><defs><linearGradient id="linear-gradient" x1="-256.1669" y1="192.6018" x2="-255.5301" y2="192.6018" gradientTransform="matrix(73.9556, -83.7852, -83.7852, -73.9556, 35105.4842, -7180.3138)" gradientUnits="userSpaceOnUse"><stop offset="0"/><stop offset="1" stop-color="#fff"/></linearGradient><linearGradient id="linear-gradient-2" x1="-255.6954" y1="192.562" x2="-255.0565" y2="192.562" gradientTransform="matrix(28.0844, 73.4876, 73.4876, -28.0844, -6891.567, 24247.4782)" xlink:href="#linear-gradient"/><linearGradient id="linear-gradient-3" x1="-256.1093" y1="193.1598" x2="-255.4693" y2="193.1598" gradientTransform="matrix(-57.573, -79.1044, -79.1044, 57.573, 582.9376, -31296.8461)" xlink:href="#linear-gradient"/><linearGradient id="linear-gradient-4" x1="-255.5973" y1="193.0304" x2="-254.9554" y2="193.0304" gradientTransform="matrix(-29.6394, 118.4183, 118.4183, 29.6394, -30369.7705, 24567.6743)" xlink:href="#linear-gradient"/><clipPath id="clip-path"><path id="SVGID" d="M.6234,49.9861A50.5682,50.5682,0,0,0,6.6575,73.9786L9.5652,68.99a.62.62,0,0,1,.4883-.31l6.0624-.4664a38.984,38.984,0,0,1-4.5111-18.2275c0-19.7236,14.8327-36.3016,33.8317-37.9019l2.9844-5.9506L45.6955.6984C20.39,2.1893.6234,23.76.6234,49.9861" style="fill:none"/></clipPath><mask id="mask" x="-34.6096" y="-23.7721" width="118.2635" height="122.2216" maskUnits="userSpaceOnUse"><polygon points="-34.61 41.888 21.555 -23.772 83.654 32.79 27.489 98.449 -34.61 41.888" style="fill:url(#linear-gradient)"/></mask><linearGradient id="linear-gradient-5" x1="-256.1669" y1="192.6018" x2="-255.5301" y2="192.6018" gradientTransform="matrix(73.9556, -83.7852, -83.7852, -73.9556, 35105.4842, -7180.3138)" gradientUnits="userSpaceOnUse"><stop offset="0" stop-color="#fff"/><stop offset="1" stop-color="#fff"/></linearGradient><clipPath id="clip-path-2"><path id="SVGID-2" data-name="SVGID" d="M53.1836,5.8381a.6588.6588,0,0,1,0,.5905l-2.7971,5.58c19.6752,1.027,34.9454,17.5174,34.9454,37.9775a38.7152,38.7152,0,0,1-3.3133,15.763l3.5725,5.5795,5.93.1958a50.5993,50.5993,0,0,0-8.8722-56.0751A46.91,46.91,0,0,0,50.5966.6787Z" style="fill:none"/></clipPath><mask id="mask-2" x="27.4921" y="-15.1248" width="91.7141" height="102.4527" maskUnits="userSpaceOnUse"><polygon points="90.46 -15.125 119.206 62.496 56.238 87.328 27.492 9.707 90.46 -15.125" style="fill:url(#linear-gradient-2)"/></mask><linearGradient id="linear-gradient-6" x1="-255.6954" y1="192.562" x2="-255.0565" y2="192.562" gradientTransform="matrix(28.0844, 73.4876, 73.4876, -28.0844, -6891.567, 24247.4782)" xlink:href="#linear-gradient-5"/><clipPath id="clip-path-3"><path id="SVGID-3" data-name="SVGID" d="M48.4678,88.0245A36.6269,36.6269,0,0,1,18.7794,72.5214l-6.472.4992L9.2525,78.2618A47.4547,47.4547,0,0,0,48.4678,99.3572,47.7686,47.7686,0,0,0,89.1567,75.95l-5.6384-.1866a.6194.6194,0,0,1-.5-.288l-3.351-5.2335A36.8088,36.8088,0,0,1,48.4678,88.0245" style="fill:none"/></clipPath><mask id="mask-3" x="-4.1721" y="31.0119" width="106.7536" height="107.575" maskUnits="userSpaceOnUse"><polygon points="36.922 138.587 -4.171 80.324 61.488 31.012 102.581 89.275 36.922 138.587" style="fill:url(#linear-gradient-3)"/></mask><linearGradient id="linear-gradient-7" x1="-256.1074" y1="193.1485" x2="-255.4674" y2="193.1485" gradientTransform="matrix(-57.5731, -79.1044, -79.1044, 57.5731, 582.1235, -31296.0633)" xlink:href="#linear-gradient-5"/><clipPath id="clip-path-4"><path id="SVGID-4" data-name="SVGID" d="M20.9968,70.1014c14.6994-21.13,36.6559-40.8661,58.9579-49.0433-20.8212,8.9525-43.3169,30.3042-54.683,52.5427,45.6846,8.8734,59.8555-18.7831,65.3161-51.0119,1.0934-4.5118,2.5572-6.1013,9.4122-7.2144a132.6246,132.6246,0,0,0-25.1493-2.6629c-53.881-.0023-53.948,44.3915-53.8539,57.39" style="fill:none"/></clipPath><linearGradient id="linear-gradient-8" x1="-255.7317" y1="193.0072" x2="-255.0922" y2="193.0072" gradientTransform="matrix(-36.1016, 204.7425, 204.7425, 36.1016, -48682.3662, 45403.218)" gradientUnits="userSpaceOnUse"><stop offset="0" stop-color="#8cc919"/><stop offset="1" stop-color="#003515"/></linearGradient><clipPath id="clip-path-5"><path id="SVGID-5" data-name="SVGID" d="M35.4387,27.857A40.1245,40.1245,0,0,0,30.8814,33.57a46.3127,46.3127,0,0,1,28.3018-3.18A98.7208,98.7208,0,0,1,79.5409,19.8588a1.2183,1.2183,0,0,1,.4138-.0728,1.2345,1.2345,0,0,1,1.15.814,1.286,1.286,0,0,1-.6755,1.6319A91.1869,91.1869,0,0,0,63.994,31.6286,49.3277,49.3277,0,0,1,83.8268,43.7012,112.6805,112.6805,0,0,0,89.3738,22.37c.005-.03.0109-.06.0179-.0889.8464-3.4933,2.053-5.4209,4.7279-6.6539a123.9863,123.9863,0,0,0-19.27-1.6436c-17.2973,0-30.5569,4.6676-39.411,13.8734" style="fill:none"/></clipPath><mask id="mask-4" x="24.0982" y="-1.3868" width="76.8054" height="60.4587" maskUnits="userSpaceOnUse"><polygon points="100.904 15.735 90.392 59.072 24.098 41.949 34.609 -1.387 100.904 15.735" style="fill:url(#linear-gradient-4)"/></mask><linearGradient id="linear-gradient-9" x1="-255.5974" y1="193.0309" x2="-254.9556" y2="193.0309" gradientTransform="matrix(-29.6394, 118.4183, 118.4183, 29.6394, -30369.8325, 24567.6743)" xlink:href="#linear-gradient-5"/></defs><title>logo</title><path d="M10.1,69.3213l7.0417-.5423a38.12,38.12,0,0,1-4.9137-18.7932c0-19.7371,14.8208-35.892,33.6032-37.2875L49.122,6.1341l-3.0581-6.1C20.4132,1.3269,0,23.1953,0,49.9858A50.9836,50.9836,0,0,0,6.6443,75.2514Z" style="fill:#ff3508"/><g style="clip-path:url(#clip-path)"><g style="mask:url(#mask)"><polygon points="-34.61 41.888 21.555 -23.772 83.654 32.79 27.489 98.449 -34.61 41.888" style="fill:url(#linear-gradient-5)"/></g></g><path d="M52.63,6.1336l-3.2481,6.4791c19.5917.5018,35.3264,17.0358,35.3264,37.3728a38.2379,38.2379,0,0,1-3.4012,15.8189L85.2489,71.96l6.6533.2194a51.0841,51.0841,0,0,0,5.0334-22.194C96.9356,22.74,75.8189.5977,49.5549,0Z" style="fill:#ff8008"/><g style="clip-path:url(#clip-path-2)"><g style="mask:url(#mask-2)"><polygon points="90.46 -15.125 119.206 62.496 56.238 87.328 27.492 9.707 90.46 -15.125" style="fill:url(#linear-gradient-6)"/></g></g><path d="M83.5376,75.1207l-3.8914-6.076a35.6284,35.6284,0,0,1-60.5675,2.81l-7.1391.5494-3.429,5.8835a47.67,47.67,0,0,0,81.7305-2.9458Z" style="fill:#fea61d"/><g style="clip-path:url(#clip-path-3)"><g style="mask:url(#mask-3)"><polygon points="36.921 138.587 -4.172 80.324 61.487 31.012 102.581 89.275 36.921 138.587" style="fill:url(#linear-gradient-7)"/></g></g><g style="clip-path:url(#clip-path-4)"><polygon points="111.561 14.813 97.615 96.432 9.341 80.371 23.288 -1.248 111.561 14.813" style="fill:url(#linear-gradient-8)"/></g><g style="clip-path:url(#clip-path-5)"><g style="mask:url(#mask-4)"><polygon points="100.904 15.735 90.392 59.072 24.098 41.949 34.609 -1.387 100.904 15.735" style="fill:url(#linear-gradient-9)"/></g></g></svg>