<svg height="141.982" viewBox="0 0 38.022 141.982" width="38.022" xmlns="http://www.w3.org/2000/svg"><g fill="#1a1818"><path d="m5810.311 2667.072a12.989 12.989 0 0 1 -10.232-4.975 17.957 17.957 0 0 1 -4.241-12.041v-36.206a17.948 17.948 0 0 1 4.241-12.038 13.047 13.047 0 0 1 20.5 0 17.957 17.957 0 0 1 4.239 12.038v5.831h-4.835v-5.831a12.913 12.913 0 0 0 -2.839-8.421 8.438 8.438 0 0 0 -13.668 0 13.044 13.044 0 0 0 -2.8 8.422v36.206a13.058 13.058 0 0 0 2.8 8.424 8.44 8.44 0 0 0 13.667 0 12.917 12.917 0 0 0 2.842-8.424v-5.743h4.835v5.743a17.95 17.95 0 0 1 -4.243 12.041 13.023 13.023 0 0 1 -10.268 4.975z" transform="translate(-5794.17 -2525.091)"/><path d="m5831.478 2606.433-2.2 2.232-6.315-6.234a20.1 20.1 0 0 1 -3.238 3.7 16.187 16.187 0 0 1 -3.456 2.338 14.365 14.365 0 0 1 -3.657 1.238 20.3 20.3 0 0 1 -3.794.36 14.133 14.133 0 0 1 -5.238-.959 13.039 13.039 0 0 1 -4.24-2.656 12.478 12.478 0 0 1 -2.837-4.019 12.112 12.112 0 0 1 -1.038-5q0-7.835 8.991-13.23a37.47 37.47 0 0 1 -4.516-5.734 8.684 8.684 0 0 1 -1.519-4.3 9.824 9.824 0 0 1 .74-3.915 7.973 7.973 0 0 1 2.009-2.858 8.647 8.647 0 0 1 3.056-1.739 11.886 11.886 0 0 1 3.82-.6 10.62 10.62 0 0 1 3.874.7 10.026 10.026 0 0 1 3.139 1.921 8.766 8.766 0 0 1 2.1 2.9 8.648 8.648 0 0 1 .76 3.6 6.68 6.68 0 0 1 -.641 2.8 11.494 11.494 0 0 1 -1.784 2.739 17.9 17.9 0 0 1 -2.781 2.558 24.106 24.106 0 0 1 -3.571 2.217l13.069 12.909a21.007 21.007 0 0 0 .917-2.278 27.553 27.553 0 0 0 .8-2.776q.352-1.5.58-3.125a30.159 30.159 0 0 0 .259-3.257h3a28.049 28.049 0 0 1 -3.276 13.392zm-25.176-20.5a21.7 21.7 0 0 0 -2.958 2.377 18.567 18.567 0 0 0 -2.437 2.838 14.44 14.44 0 0 0 -1.639 3.058 8.445 8.445 0 0 0 -.6 3.038 9.524 9.524 0 0 0 .8 3.917 9.224 9.224 0 0 0 2.218 3.1 10.278 10.278 0 0 0 3.4 2.037 12.411 12.411 0 0 0 4.375.74q6.195 0 11.032-6.994zm8.273-11.75a5.744 5.744 0 0 0 -1.861-4.6 7.068 7.068 0 0 0 -4.774-1.6 6.845 6.845 0 0 0 -2.779.521 5.582 5.582 0 0 0 -1.957 1.4 5.8 5.8 0 0 0 -1.159 1.976 6.937 6.937 0 0 0 -.38 2.3 4.9 4.9 0 0 0 .5 2.078 11.743 11.743 0 0 0 1.32 2.158q.816 1.078 1.786 2.138t1.94 2.059q1.563-.957 2.9-1.86a15.429 15.429 0 0 0 2.316-1.878 8.334 8.334 0 0 0 1.565-2.118 5.6 5.6 0 0 0 .571-2.578z" transform="translate(-5794.619 -2564.245)"/><path d="m5809.275 2611.361a15.028 15.028 0 0 1 -5.543-1.018 13.9 13.9 0 0 1 -4.5-2.828 13.445 13.445 0 0 1 -3.024-4.281 12.908 12.908 0 0 1 -1.116-5.337c0-5.253 2.871-9.759 8.534-13.412a35.644 35.644 0 0 1 -3.934-5.121 9.342 9.342 0 0 1 -1.642-4.729 10.749 10.749 0 0 1 .805-4.241 8.845 8.845 0 0 1 2.231-3.155 9.532 9.532 0 0 1 3.35-1.906 12.612 12.612 0 0 1 8.259.114 10.887 10.887 0 0 1 3.4 2.077 9.624 9.624 0 0 1 2.3 3.175 9.494 9.494 0 0 1 .835 3.94 7.528 7.528 0 0 1 -.717 3.147 12.193 12.193 0 0 1 -1.927 2.935 18.786 18.786 0 0 1 -2.9 2.679 24.967 24.967 0 0 1 -2.68 1.75l11.385 11.254c.139-.348.274-.715.406-1.1.283-.831.545-1.73.777-2.7a30.857 30.857 0 0 0 .565-3.038 30.256 30.256 0 0 0 .251-3.166l.019-.814h4.664l-.013.851a29.366 29.366 0 0 1 -3.083 13.227l7.144 7.219-3.363 3.427-6.219-6.141a20.291 20.291 0 0 1 -2.793 3.049 17.434 17.434 0 0 1 -3.635 2.455 15.221 15.221 0 0 1 -3.871 1.31 21.141 21.141 0 0 1 -3.952.373zm-.761-45a11.056 11.056 0 0 0 -3.547.556 7.91 7.91 0 0 0 -2.769 1.563 7.192 7.192 0 0 0 -1.805 2.564 9.06 9.06 0 0 0 -.669 3.584 7.922 7.922 0 0 0 1.4 3.862 36.916 36.916 0 0 0 4.413 5.6l.7.756-.893.531c-5.779 3.467-8.585 7.558-8.585 12.5a11.243 11.243 0 0 0 .965 4.651 11.744 11.744 0 0 0 2.652 3.75 12.2 12.2 0 0 0 3.964 2.487 15.705 15.705 0 0 0 8.566.558 13.663 13.663 0 0 0 3.445-1.167 15.555 15.555 0 0 0 3.279-2.219 19.529 19.529 0 0 0 3.1-3.544l.566-.815 6.427 6.342 1.031-1.049-6.855-6.933.3-.55a26.844 26.844 0 0 0 3.15-12.145h-1.339c-.045.855-.123 1.7-.234 2.531-.154 1.116-.355 2.194-.6 3.2s-.522 1.978-.823 2.855a21.554 21.554 0 0 1 -.957 2.366l-.506 1.061-14.732-14.55 1.033-.527a23.486 23.486 0 0 0 3.452-2.139 17.056 17.056 0 0 0 2.646-2.437 10.624 10.624 0 0 0 1.669-2.538 5.875 5.875 0 0 0 .567-2.456 7.8 7.8 0 0 0 -.685-3.252 7.964 7.964 0 0 0 -1.9-2.623 9.167 9.167 0 0 0 -2.875-1.758 9.823 9.823 0 0 0 -3.568-.624zm1.4 41.965a13.284 13.284 0 0 1 -4.671-.794 11.144 11.144 0 0 1 -3.666-2.206 10.075 10.075 0 0 1 -2.418-3.373 10.382 10.382 0 0 1 -.873-4.257 9.32 9.32 0 0 1 .656-3.348 15.387 15.387 0 0 1 1.729-3.234 19.684 19.684 0 0 1 2.55-2.967 22.842 22.842 0 0 1 3.072-2.468l.567-.38 15.179 15.083-.4.578c-3.383 4.886-7.33 7.362-11.727 7.362zm-3.252-20.855a21.511 21.511 0 0 0 -2.283 1.9 17.512 17.512 0 0 0 -2.327 2.708 13.661 13.661 0 0 0 -1.544 2.884 7.578 7.578 0 0 0 -.546 2.736 8.7 8.7 0 0 0 .728 3.571 8.414 8.414 0 0 0 2.009 2.82 9.469 9.469 0 0 0 3.124 1.873 11.643 11.643 0 0 0 4.085.689c3.651 0 6.99-2.041 9.934-6.066zm.877-3.335-.467-.486q-.965-1.005-1.949-2.072t-1.851-2.2a12.754 12.754 0 0 1 -1.41-2.312 5.788 5.788 0 0 1 -.577-2.432 7.886 7.886 0 0 1 .422-2.572 6.714 6.714 0 0 1 1.325-2.259 6.43 6.43 0 0 1 2.246-1.61 7.692 7.692 0 0 1 3.126-.591 7.9 7.9 0 0 1 5.321 1.8 6.541 6.541 0 0 1 2.153 5.23 6.44 6.44 0 0 1 -.672 2.957 9.178 9.178 0 0 1 -1.709 2.331 16.208 16.208 0 0 1 -2.456 1.98q-1.351.91-2.929 1.879zm.854-14.857a6.082 6.082 0 0 0 -2.438.446 4.758 4.758 0 0 0 -1.669 1.188 5.041 5.041 0 0 0 -.994 1.7 6.192 6.192 0 0 0 -.333 2.025 4.118 4.118 0 0 0 .42 1.725 11.021 11.021 0 0 0 1.228 2.009q.8 1.047 1.745 2.076.738.8 1.459 1.562c.815-.507 1.581-1 2.3-1.484a14.7 14.7 0 0 0 2.19-1.786 7.476 7.476 0 0 0 1.4-1.906 4.8 4.8 0 0 0 .489-2.2 4.9 4.9 0 0 0 -1.562-3.962 6.222 6.222 0 0 0 -4.237-1.4z" transform="translate(-5795.088 -2564.693)"/><path d="m5796.938 2590.391h24.062v2.855h-24.062z" transform="translate(-5792.808 -2533.029)"/><path d="m5822.3 2594.545h-25.734v-4.529h25.734zm-24.06-1.674h22.386v-1.181h-22.386z" transform="translate(-5793.27 -2533.492)"/></g></svg>