<svg id="Layer_1" data-name="Layer 1" xmlns="http://www.w3.org/2000/svg" viewBox="0 0 331.36 50.86"><defs><style>.cls-1,.cls-2,.cls-3{fill:#d91f30;}.cls-1{fill-rule:evenodd;}.cls-3{opacity:0.8;}</style></defs><title>ANIMUS_logo-h-color</title><path class="cls-1" d="M25.48,26.73,20.91,12.49,16.46,26.73ZM42.22,43H30.63L28,34.84H13.89L11.24,43H0L12.74,6.22a9.39,9.39,0,0,1,2.42-4A8.25,8.25,0,0,1,21,0c4,0,6.73,2.09,8.22,6.28Z"/><path class="cls-1" d="M83.15.76V34.6q0,4.14-.85,5.79a5.15,5.15,0,0,1-2.45,2.24,8.29,8.29,0,0,1-3.76.89,7.29,7.29,0,0,1-5.83-2.45,26.76,26.76,0,0,1-2.34-3.71L55.79,15.92V43H45.11V9.79c0-2.12,0-3.48.11-4.07a5.85,5.85,0,0,1,.73-2A5.89,5.89,0,0,1,48.6,1.23,8.82,8.82,0,0,1,52.66.31a7.32,7.32,0,0,1,4.55,1.35,16.45,16.45,0,0,1,3.86,5.06L72.46,26.83V.76Z"/><rect class="cls-2" x="89.55" y="0.76" width="10.69" height="42.25"/><path class="cls-1" d="M155.43,43H144.74V18.3l-6.9,19.87a18.25,18.25,0,0,1-1.37,3.31q-1.42,2.16-4.83,2.16c-2.28,0-3.91-.74-4.91-2.22a19.27,19.27,0,0,1-1.57-3.32L117.23,18V43H106.54V9.67a34.21,34.21,0,0,1,.15-3.92,5.39,5.39,0,0,1,.69-2,6.27,6.27,0,0,1,2.8-2.42,9.37,9.37,0,0,1,4.11-.94,9.21,9.21,0,0,1,3.53.68,7.09,7.09,0,0,1,2.69,1.79,8.54,8.54,0,0,1,1,1.5q.33.63,1.44,3.54L131.29,29l7.29-21c.62-1.82,1-3,1.27-3.43A7.68,7.68,0,0,1,141,2.88a7.81,7.81,0,0,1,6.22-2.5,9.59,9.59,0,0,1,4.27.94,6.52,6.52,0,0,1,2.9,2.59q1,1.72,1,5.66Z"/><path class="cls-1" d="M198.18.76V26.89c0,3.6-.51,6.3-1.53,8.12a16.5,16.5,0,0,1-7.34,6.78,22.22,22.22,0,0,1-10.05,2.3,21.62,21.62,0,0,1-11.17-2.91,15.07,15.07,0,0,1-6.83-7.38,19.62,19.62,0,0,1-1-7V.76h10.61v26.1a15.7,15.7,0,0,0,.32,3.64,5.81,5.81,0,0,0,1.25,2.29,8.51,8.51,0,0,0,6.86,2.93,8,8,0,0,0,6.78-3.08,6.21,6.21,0,0,0,1.14-2.34,15.79,15.79,0,0,0,.31-3.62V.76Z"/><path class="cls-1" d="M230.44,1.32v8.81A29.16,29.16,0,0,0,220.36,8a9.05,9.05,0,0,0-5.58,1.52,4.15,4.15,0,0,0-1.87,3.34,3.28,3.28,0,0,0,1.45,2.88,17.26,17.26,0,0,0,5.48,1.82,60.62,60.62,0,0,1,7.21,1.84,11.94,11.94,0,0,1,3.74,2.24,11.12,11.12,0,0,1,4.05,8.73c0,4.26-1.92,7.66-5.75,10.17q-4.87,3.2-12.73,3.19A54,54,0,0,1,203,41.71v-9q8.2,2.85,13.58,2.86A9.3,9.3,0,0,0,222,34.24a4.23,4.23,0,0,0,2-3.54c0-1.65-.91-2.86-2.76-3.62a41.91,41.91,0,0,0-5.59-1.37q-8.1-1.63-11.08-5.45a10.84,10.84,0,0,1-2.42-6.82,11.75,11.75,0,0,1,3.56-8.36,15,15,0,0,1,6-3.83A26.16,26.16,0,0,1,220.14.06,45.33,45.33,0,0,1,230.44,1.32Z"/><path class="cls-3" d="M329.87,25a10.55,10.55,0,0,0-4.1-4.12A11.69,11.69,0,0,0,320,19.42q-4.73,0-7.18,3V19.76l-4.47,0a1.86,1.86,0,0,0-1.86,1.86v5.8A10.88,10.88,0,0,0,301,20.93a14.62,14.62,0,0,0-12.94,0,11.22,11.22,0,0,0-4.48,4.18,11,11,0,0,0-1.4,3.86,11.06,11.06,0,0,0-1.41-3.86,11.17,11.17,0,0,0-4.46-4.18,14.59,14.59,0,0,0-12.93,0l-.27.16v0a10.65,10.65,0,0,0-5.4,6.82c0,.05,0,.1,0,.15a11.09,11.09,0,0,0-.28,1.48c0,.06,0,.13,0,.2,0,.36-.07.72-.08,1.1a6.38,6.38,0,0,1-2.06,5h0a5.86,5.86,0,0,1-.5.37h0A6.18,6.18,0,0,1,251,37.41c-3.46,0-5.67-2.78-5.67-6.24v-.08a6,6,0,0,1,4.11-6,4.51,4.51,0,0,1,1.11-.16,6.28,6.28,0,0,1,2.38.43s0,0,0,0a.62.62,0,0,0,.29.09.6.6,0,0,0,.47-.23h0l3.73-3.92a11.57,11.57,0,0,0-6.85-1.91c-.32,0-.63,0-.94.07v0l-.27,0-.54,0v0a11.51,11.51,0,0,0-9.77,11.59v.09A11.48,11.48,0,0,0,250.7,42.93a11,11,0,0,0,7.81-2.82l0,0c.42-.37.82-.75,1.21-1.16l.2-.27a11.37,11.37,0,0,0,3.42,2.73,14.68,14.68,0,0,0,12.93,0,11.19,11.19,0,0,0,4.46-4.19,11.08,11.08,0,0,0,1.41-3.85,11.06,11.06,0,0,0,1.4,3.85,11.25,11.25,0,0,0,4.48,4.19,14.7,14.7,0,0,0,12.94,0,11.26,11.26,0,0,0,4.46-4.19,11,11,0,0,0,1-2.27V50.86h4.76a1.87,1.87,0,0,0,1.84-1.75l0,0v-8.9A8.86,8.86,0,0,0,320,43a11.59,11.59,0,0,0,5.79-1.46,10.48,10.48,0,0,0,4.1-4.12,12.35,12.35,0,0,0,1.49-6.18A12.41,12.41,0,0,0,329.87,25ZM274,35.8a5.55,5.55,0,0,1-4.18,1.72,5.61,5.61,0,0,1-4.21-1.72A6.36,6.36,0,0,1,264,31.19a6.33,6.33,0,0,1,1.66-4.61,5.58,5.58,0,0,1,4.21-1.72A5.51,5.51,0,0,1,274,26.58a6.4,6.4,0,0,1,1.64,4.61A6.43,6.43,0,0,1,274,35.8Zm24.69,0a6,6,0,0,1-8.39,0,6.36,6.36,0,0,1-1.66-4.61,6.33,6.33,0,0,1,1.66-4.61,6,6,0,0,1,8.39,0,6.4,6.4,0,0,1,1.63,4.61A6.43,6.43,0,0,1,298.73,35.8Zm24.28,0a6,6,0,0,1-8.37,0A6.43,6.43,0,0,1,313,31.19a6.4,6.4,0,0,1,1.63-4.61,6,6,0,0,1,8.37,0,6.4,6.4,0,0,1,1.64,4.61A6.43,6.43,0,0,1,323,35.8Z"/></svg>