<svg xmlns="http://www.w3.org/2000/svg" xmlns:xlink="http://www.w3.org/1999/xlink" viewBox="0 0 2476.49 512"><defs><style>.cls-1{fill:url(#linear-gradient);}.cls-2{fill:#404041;}</style><linearGradient id="linear-gradient" y1="256" x2="402.84" y2="256" gradientUnits="userSpaceOnUse"><stop offset="0" stop-color="#ec297b"/><stop offset="1" stop-color="#faaf40"/></linearGradient></defs><g id="Layer_2" data-name="Layer 2"><g id="Layer_1-2" data-name="Layer 1"><path class="cls-1" d="M401.43,493.22,214,8.2A12.86,12.86,0,0,0,201.88,0c-.16,0-.33,0-.49,0s-.33,0-.5,0A12.86,12.86,0,0,0,188.74,8.2L.87,494.46A12.89,12.89,0,0,0,21.19,509L140.56,408.56A12.83,12.83,0,0,0,145,401L201.39,83.13,257.81,401a12.88,12.88,0,0,0,4.4,7.61L381.58,509a12.88,12.88,0,0,0,8.3,3H390a12.91,12.91,0,0,0,11.48-18.78Z"/><path class="cls-2" d="M631.28,156Q709,159.65,709,227.17V356H691.13l-2.92-28.47Q639.31,355.64,612.3,356q-57.67,0-57.67-63.87,1.46-54.37,53.66-56.57h79.18V218.41q-3.27-40.5-56.56-43.06a482,482,0,0,0-58,3.64l-1.46-18.61A428.22,428.22,0,0,1,631.28,156Zm56.19,98.54H608.65q-31.39,2.57-32.48,38-.75,45.62,35.76,44.52,22.62-.72,75.54-31Z"/><path class="cls-2" d="M923.23,356H901.7V156h19.71l1.46,22.63Q956.08,156,973.23,156H997q63.86,0,63.86,89.05V356h-21.17V245.05q0-69-42.69-69H973.6q-13.5.75-50.37,25.18Z"/><path class="cls-2" d="M1407.17,245.78V267q0,88.32-74.82,88.31h-20.81q-73,0-73-88.31V245.78q0-88.68,73-88.68h20.81Q1407.16,157.1,1407.17,245.78Zm-95.63-68.61q-50,0-50,68.61V267q0,69,50,69h20.81q52.9,0,52.92-69V245.78q0-68.61-52.92-68.61Z"/><path class="cls-2" d="M1709.36,177.54q-24.84-1.46-42.71-1.47-22.64.75-50,24.82V356h-21.53V156h19.7l1.47,20.8q22.62-20.79,50.36-20.8,18.24,0,42.71,1.82Z"/><path class="cls-2" d="M1949.86,156q77.73,3.65,77.74,71.17V356h-17.9l-2.9-28.47q-48.91,28.11-75.92,28.47-57.68,0-57.66-63.87,1.46-54.37,53.65-56.57h79.19V218.41q-3.29-40.5-56.57-43.06a482,482,0,0,0-58,3.64L1890,160.38A428.33,428.33,0,0,1,1949.86,156Zm56.2,98.54h-78.84q-31.37,2.57-32.47,38-.75,45.62,35.77,44.52,22.62-.72,75.54-31Z"/><path class="cls-2" d="M2341.08,356V245.05q-1.1-60.21-30.29-69h-19q-13.5.75-50,18.62V356h-21.54V156h19l1.82,17.52q34.3-17.52,50.36-17.52h20.45q23.36,0,36.13,25.55Q2373.94,160,2397.65,156h17.89q60.95,0,60.95,89.05V356h-21.17V245.05q0-69-39.78-69h-16.79q-12.4.75-42.33,23,5.82,27,5.83,46V356Z"/></g></g></svg>