<?xml version="1.0" standalone="no"?>
<!DOCTYPE svg PUBLIC "-//W3C//DTD SVG 20010904//EN"
 "http://www.w3.org/TR/2001/REC-SVG-20010904/DTD/svg10.dtd">
<svg version="1.0" xmlns="http://www.w3.org/2000/svg"
 width="796.000000pt" height="168.000000pt" viewBox="0 0 796.000000 168.000000"
 preserveAspectRatio="xMidYMid meet">
<metadata>
Created by potrace 1.16, written by Peter Selinger 2001-2019
</metadata>
<g transform="translate(0.000000,168.000000) scale(0.100000,-0.100000)"
fill="#000000" stroke="none">
<path d="M5350 1442 c-22 -18 -25 -29 -28 -104 -5 -112 4 -123 93 -123 90 0
98 11 93 127 -2 51 -8 92 -15 99 -7 7 -36 14 -65 17 -43 3 -58 0 -78 -16z"/>
<path d="M6155 1403 c-39 -10 -55 -34 -55 -82 0 -25 4 -51 8 -57 15 -23 52
-34 111 -34 l61 0 0 -334 0 -334 -109 -4 c-133 -4 -151 -15 -151 -89 0 -51 15
-75 53 -84 12 -3 158 -5 323 -3 281 3 303 4 323 22 16 14 21 31 21 66 0 72
-17 83 -150 88 l-110 5 0 413 c0 398 -1 414 -19 424 -19 10 -267 12 -306 3z"/>
<path d="M7115 1403 c-39 -10 -55 -34 -55 -82 0 -25 4 -51 8 -57 15 -23 52
-34 111 -34 l61 0 0 -334 0 -334 -109 -4 c-133 -4 -151 -15 -151 -89 0 -51 15
-75 53 -84 12 -3 158 -5 323 -3 281 3 303 4 323 22 16 14 21 31 21 66 0 72
-17 83 -150 88 l-110 5 0 413 c0 398 -1 414 -19 424 -19 10 -267 12 -306 3z"/>
<path d="M2319 1321 c-22 -18 -24 -27 -28 -140 l-3 -121 -62 0 c-67 0 -77 -4
-95 -37 -19 -36 -13 -82 14 -108 20 -21 34 -25 83 -25 l60 0 4 -177 c3 -159 6
-183 26 -223 40 -82 120 -119 258 -120 115 0 187 14 266 54 82 41 108 83 85
137 -25 60 -56 64 -173 23 -122 -42 -190 -45 -231 -10 -28 24 -28 24 -31 170
l-3 146 145 0 c133 0 148 2 166 20 31 31 30 105 -2 133 -17 14 -42 17 -163 17
l-143 0 -4 121 c-3 113 -5 122 -27 140 -32 26 -110 26 -142 0z"/>
<path d="M307 1298 c-23 -18 -38 -65 -31 -96 12 -49 32 -62 96 -62 32 0 58 -4
58 -9 0 -22 -202 -566 -213 -573 -7 -4 -20 -8 -29 -8 -54 0 -81 -106 -37 -146
19 -17 38 -19 181 -19 156 0 160 1 179 24 25 31 25 95 0 120 -10 10 -37 22
-60 26 -23 4 -41 9 -41 11 0 3 7 20 14 39 l15 35 165 0 166 0 15 -36 c8 -20
15 -38 15 -40 0 -2 -17 -6 -37 -10 -66 -11 -83 -28 -83 -83 0 -82 10 -86 215
-86 204 0 215 4 215 85 0 53 -16 74 -66 84 -30 7 -32 11 -149 334 -130 359
-146 396 -174 412 -29 15 -393 13 -414 -2z m349 -320 c26 -79 49 -149 52 -155
3 -10 -21 -13 -102 -13 -58 0 -106 4 -106 9 0 5 18 60 39 122 58 166 63 179
66 179 2 0 25 -64 51 -142z"/>
<path d="M4063 1295 c-48 -34 -37 -140 16 -151 14 -3 32 -7 39 -10 9 -2 12
-69 12 -288 l0 -285 -36 -10 c-20 -5 -42 -18 -50 -28 -20 -26 -17 -87 5 -114
19 -23 23 -24 179 -24 143 0 162 2 181 19 15 13 21 31 21 58 0 55 -14 76 -60
88 l-40 11 0 109 0 110 130 0 130 0 0 -110 0 -109 -40 -11 c-46 -12 -60 -33
-60 -88 0 -27 6 -45 21 -58 19 -17 38 -19 181 -19 156 0 160 1 179 24 21 25
25 81 9 111 -6 11 -28 24 -50 30 l-40 11 0 285 c0 219 3 286 13 288 6 3 24 7
38 10 34 7 54 53 45 101 -11 58 -32 65 -194 65 -182 0 -202 -8 -202 -86 0 -51
17 -74 60 -83 l35 -7 3 -87 3 -87 -131 0 -131 0 3 87 3 87 35 7 c44 9 60 32
60 85 0 34 -5 47 -26 63 -24 19 -40 21 -173 21 -115 0 -151 -3 -168 -15z"/>
<path d="M1607 1119 c-51 -8 -135 -51 -144 -75 -9 -24 -23 -15 -23 16 0 40
-23 50 -117 49 -134 -1 -174 -30 -159 -115 7 -34 44 -64 81 -64 13 0 15 -24
15 -183 l0 -184 -39 -12 c-32 -9 -42 -18 -51 -46 -15 -47 2 -103 37 -116 33
-12 265 -11 300 2 36 14 43 25 43 80 0 51 -16 73 -62 84 l-28 7 0 137 c0 113
3 142 19 171 49 94 176 108 216 25 11 -25 15 -68 15 -184 l0 -151 -27 -6 c-47
-11 -63 -32 -63 -84 0 -76 17 -84 168 -88 158 -5 196 5 212 53 19 56 -1 102
-51 116 l-39 12 0 161 c0 183 -14 260 -58 316 -51 64 -145 94 -245 79z"/>
<path d="M5203 1103 c-51 -10 -71 -98 -34 -144 16 -20 30 -24 95 -27 l76 -4 0
-183 0 -182 -116 -5 c-107 -4 -118 -6 -135 -27 -25 -30 -25 -92 0 -122 l19
-24 305 -3 c344 -3 369 1 382 57 8 38 -10 97 -33 106 -9 4 -65 10 -124 13
l-108 5 0 263 c0 250 -1 264 -19 274 -19 10 -261 12 -308 3z"/>
</g>
</svg>
