<svg fill="none" height="32" viewBox="0 0 128 32" width="128" xmlns="http://www.w3.org/2000/svg" xmlns:xlink="http://www.w3.org/1999/xlink"><clipPath id="a"><path d="m0 0h128v32h-128z"/></clipPath><g clip-path="url(#a)" fill="#fff"><g clip-rule="evenodd" fill-rule="evenodd"><path d="m46.0336 22.3206 1.4347 3.9326h3.6477l-6.5658-17.21154h-3.8909l-6.6144 17.21154h3.5504l1.4348-3.9326zm-5.8849-3.0588 2.3831-6.5059 2.3832 6.5059z"/><path d="m52.3076 30.8657h3.2342v-5.7777c.5837.8011 1.7995 1.4566 3.4532 1.4566 3.3801 0 5.6417-2.6704 5.6417-6.2875 0-3.5443-2.0184-6.2146-5.5202-6.2146-1.7995 0-3.137.8011-3.6719 1.7236v-1.4566h-3.137zm6.1767-13.9344c1.6536 0 2.9667 1.2381 2.9667 3.3501 0 2.1363-1.3131 3.3743-2.9667 3.3743s-2.9911-1.2623-2.9911-3.3743 1.3375-3.3501 2.9911-3.3501z"/><path d="m66.2394 30.8657h3.2343v-5.7777c.5836.8011 1.7995 1.4566 3.4531 1.4566 3.3802 0 5.6418-2.6704 5.6418-6.2875 0-3.5443-2.0184-6.2146-5.5202-6.2146-1.7995 0-3.137.8011-3.672 1.7236v-1.4566h-3.137zm6.1768-13.9344c1.6536 0 2.9667 1.2381 2.9667 3.3501 0 2.1363-1.3131 3.3743-2.9667 3.3743s-2.9911-1.2623-2.9911-3.3743 1.3375-3.3501 2.9911-3.3501z"/><path d="m92.2396 24.0927v-15.41518h-3.1857v6.82148c-.3404-.6311-1.3131-1.4808-3.3801-1.4808-3.3802 0-5.739 2.7432-5.739 6.2389 0 3.6171 2.4318 6.2875 5.8362 6.2875 1.605 0 2.8209-.7283 3.3559-1.6751 0 .5584.073 1.141.1216 1.3837h3.0884c-.0487-.4855-.0973-1.3594-.0973-2.1605zm-6.0795-.437c-1.7022 0-2.9667-1.2623-2.9667-3.3986s1.3131-3.3501 2.9667-3.3501 2.9425 1.1896 2.9425 3.3258c0 2.1606-1.2889 3.4229-2.9425 3.4229z"/></g><path d="m94.3486 26.2532h3.2343v-11.9437h-3.2343z"/><path d="m109.054 12.416c0 1.0681-.583 1.8935-1.848 1.8935h-2.911v-3.5685h-2.919v1.675c0 1.0681-.583 1.8935-1.8477 1.8935h-.608v2.8646h2.1647v5.5591c0 2.3062 1.459 3.69 3.793 3.69.949 0 1.532-.17 1.824-.2913v-2.6704c-.17.0486-.608.0971-.997.0971-.924 0-1.41-.3398-1.41-1.3837v-5.0008h4.467v5.5591c0 2.3062 1.459 3.69 3.794 3.69.948 0 1.532-.17 1.824-.2913v-2.6704c-.17.0486-.608.0971-.997.0971-.924 0-1.411-.3398-1.411-1.3837v-5.0008h2.408v-2.8646h-2.408v-3.5685h-2.918z"/><path clip-rule="evenodd" d="m127.925 20.2814c0-3.6899-2.699-6.336-6.274-6.336s-6.274 2.6461-6.274 6.336c0 3.6656 2.699 6.336 6.274 6.336s6.274-2.6704 6.274-6.336zm-3.234 0c0 2.2576-1.459 3.3986-3.04 3.3986s-3.04-1.1652-3.04-3.3986c0-2.2577 1.459-3.3986 3.04-3.3986s3.04 1.1409 3.04 3.3986z" fill-rule="evenodd"/><path d="m97.9476 10.4011c0-1.11669-.8754-2.01489-1.994-2.01489-1.0943 0-1.9941.8982-1.9941 2.01489 0 1.0681.8998 1.9663 1.9941 1.9663 1.1186 0 1.994-.8982 1.994-1.9663z"/><path clip-rule="evenodd" d="m30.1354 5.72629c.6144.00041 1.1892.30382 1.5369.81128.3478.50746.4239 1.15392.2036 1.72855l-8.6328 22.53478c-.2766.7221-.9686 1.1988-1.7405 1.1991h-13.06298c-.61431 0-1.18915-.3034-1.53694-.8108-.34778-.5073-.42392-1.1538-.20355-1.7283l.74423-1.9448h8.41654c.772-.0009 1.4638-.4778 1.7405-1.1998l7.8879-20.59001zm-6.5756-5.72629c.6144 0 1.1892.303405 1.537.810777.3478.507373.4239 1.153803.2035 1.728353l-8.6328 22.53127c-.2759.7237-.9687 1.2019-1.7419 1.2019h-13.06155c-.61401-.0006-1.188416-.3038-1.536094-.8109-.3476778-.507-.4241123-1.153-.204401-1.7275l8.632825-22.53479c.27662-.722069.96858-1.19879586 1.74052-1.19911zm-1.5901 7.74853-19.37117 12.99277-1.1529 3.0121c-.10987.2874-.07171.6106.10207.8644.17379.2538.46099.4058.76818.4066l12.39392-.0028c.3866-.0005.7329-.2396.8709-.6013zm1.8638-4.86481-19.37264 12.99418-.93082 2.4303 19.37116-12.98998z" fill-rule="evenodd"/></g></svg>