<?xml version="1.0" encoding="UTF-8" standalone="no"?>
<svg width="1000px" height="673px" viewBox="0 0 1000 673" version="1.1" xmlns="http://www.w3.org/2000/svg" xmlns:xlink="http://www.w3.org/1999/xlink">
    <!-- Generator: Sketch 39.1 (31720) - http://www.bohemiancoding.com/sketch -->
    <title>BEYOWI-logo-A-1000</title>
    <desc>Created with Sketch.</desc>
    <defs>
        <linearGradient x1="-775.417495%" y1="722.571694%" x2="178.275718%" y2="-36.9354641%" id="linearGradient-1">
            <stop stop-color="#F4D301" offset="0%"></stop>
            <stop stop-color="#F47D01" offset="100%"></stop>
        </linearGradient>
        <linearGradient x1="-570.974302%" y1="592.763484%" x2="142.512178%" y2="-12.042426%" id="linearGradient-2">
            <stop stop-color="#F4D301" offset="0%"></stop>
            <stop stop-color="#F47D01" offset="100%"></stop>
        </linearGradient>
        <linearGradient x1="-1187.2281%" y1="947.237862%" x2="251.253072%" y2="-80.6261838%" id="linearGradient-3">
            <stop stop-color="#F4D301" offset="0%"></stop>
            <stop stop-color="#F47D01" offset="100%"></stop>
        </linearGradient>
        <linearGradient x1="-368.452416%" y1="144.367329%" x2="735.954089%" y2="-103.290433%" id="linearGradient-4">
            <stop stop-color="#F4D301" offset="0%"></stop>
            <stop stop-color="#F47D01" offset="100%"></stop>
        </linearGradient>
        <linearGradient x1="-583.85477%" y1="199.598736%" x2="465.916608%" y2="-48.0590253%" id="linearGradient-5">
            <stop stop-color="#F4D301" offset="0%"></stop>
            <stop stop-color="#F47D01" offset="100%"></stop>
        </linearGradient>
        <linearGradient x1="-446.247125%" y1="234.963197%" x2="223.618377%" y2="-20.0600372%" id="linearGradient-6">
            <stop stop-color="#F4D301" offset="0%"></stop>
            <stop stop-color="#FF6600" offset="100%"></stop>
        </linearGradient>
        <linearGradient x1="-4398.02124%" y1="253.441758%" x2="860.126549%" y2="14.1019496%" id="linearGradient-7">
            <stop stop-color="#F4D301" offset="0%"></stop>
            <stop stop-color="#F47D01" offset="100%"></stop>
        </linearGradient>
        <linearGradient x1="-557.904708%" y1="184.17026%" x2="673.567797%" y2="-96.4944238%" id="linearGradient-8">
            <stop stop-color="#F4D301" offset="0%"></stop>
            <stop stop-color="#F47D01" offset="100%"></stop>
        </linearGradient>
        <linearGradient x1="-5.16822095%" y1="83.4077549%" x2="71.146198%" y2="26.5504071%" id="linearGradient-9">
            <stop stop-color="#F47D01" offset="0%"></stop>
            <stop stop-color="#F4D301" offset="100%"></stop>
        </linearGradient>
    </defs>
    <g id="Page-1" stroke="none" stroke-width="1" fill="none" fill-rule="evenodd">
        <g id="BEYOWI-logo-A-1000">
            <g id="slogan" transform="translate(382.978723, 446.808511)" fill="#585858">
                <path d="M0.750938673,30.5381727 L0.750938673,24.7809762 C0.750938673,22.0275344 1.50187735,19.7747184 3.12891114,18.0225282 C4.75594493,16.2703379 7.1339174,15.3942428 10.2628285,15.3942428 C12.1401752,15.3942428 13.8923655,15.7697121 15.1439299,16.3954944 C16.5206508,17.146433 17.146433,17.7722153 17.146433,18.3979975 C17.146433,18.6483104 17.0212766,19.0237797 16.7709637,19.2740926 C16.5206508,19.5244055 16.2703379,19.649562 15.8948686,19.649562 C15.7697121,19.649562 15.3942428,19.5244055 15.0187735,19.1489362 C14.6433041,18.7734668 14.0175219,18.5231539 13.1414268,18.1476846 C12.2653317,17.7722153 11.3892365,17.6470588 10.2628285,17.6470588 C8.01001252,17.6470588 6.25782228,18.2728411 5.00625782,19.5244055 C3.75469337,20.77597 3.12891114,22.5281602 3.12891114,24.7809762 L3.12891114,30.5381727 C3.12891114,32.7909887 3.75469337,34.543179 5.00625782,35.7947434 C6.25782228,37.0463079 8.01001252,37.6720901 10.387985,37.6720901 C11.514393,37.6720901 12.640801,37.5469337 13.3917397,37.1714643 C14.2678348,36.795995 14.893617,36.5456821 15.2690864,36.1702128 C15.7697121,35.7947434 16.020025,35.669587 16.2703379,35.669587 C16.5206508,35.669587 16.8961202,35.7947434 17.0212766,36.0450563 C17.2715895,36.2953692 17.3967459,36.5456821 17.3967459,36.9211514 C17.3967459,37.6720901 16.6458073,38.2978723 15.2690864,39.048811 C13.8923655,39.7997497 12.1401752,40.0500626 10.1376721,40.0500626 C7.00876095,40.0500626 4.63078849,39.1739675 3.00375469,37.4217772 C1.62703379,35.669587 0.750938673,33.416771 0.750938673,30.5381727 L0.750938673,30.5381727 Z" id="Shape"></path>
                <path d="M28.2853567,30.5381727 L28.2853567,24.6558198 C28.2853567,22.1526909 29.1614518,19.8998748 31.0387985,18.1476846 C32.9161452,16.2703379 35.0438048,15.3942428 37.6720901,15.3942428 C40.175219,15.3942428 42.428035,16.2703379 44.3053817,18.1476846 C46.1827284,20.0250313 47.0588235,22.1526909 47.0588235,24.7809762 L47.0588235,30.6633292 C47.0588235,33.1664581 46.057572,35.2941176 44.1802253,37.2966208 C42.3028786,39.1739675 40.0500626,40.175219 37.6720901,40.175219 C35.1689612,40.175219 33.0413016,39.1739675 31.1639549,37.2966208 C29.1614518,35.2941176 28.2853567,33.1664581 28.2853567,30.5381727 L28.2853567,30.5381727 Z M30.7884856,30.5381727 C30.7884856,32.4155194 31.4142678,34.0425532 32.7909887,35.4192741 C34.1677096,36.9211514 35.7947434,37.5469337 37.6720901,37.5469337 C39.5494368,37.5469337 41.1764706,36.795995 42.5531915,35.4192741 C43.9299124,33.9173967 44.5556946,32.290363 44.5556946,30.5381727 L44.5556946,24.6558198 C44.5556946,22.9036295 43.9299124,21.2765957 42.5531915,19.7747184 C41.1764706,18.3979975 39.5494368,17.6470588 37.6720901,17.6470588 C35.7947434,17.6470588 34.1677096,18.3979975 32.7909887,19.7747184 C31.4142678,21.1514393 30.7884856,22.7784731 30.7884856,24.6558198 L30.7884856,30.5381727 L30.7884856,30.5381727 Z" id="Shape"></path>
                <path d="M58.9486859,30.5381727 L58.9486859,24.6558198 C58.9486859,22.0275344 59.824781,19.8998748 61.7021277,18.0225282 C63.4543179,16.1451815 65.7071339,15.2690864 68.2102628,15.2690864 C69.7121402,15.2690864 71.0888611,15.6445557 72.3404255,16.3954944 C73.4668335,17.146433 74.4680851,18.0225282 74.9687109,19.1489362 L74.9687109,1.62703379 C74.9687109,1.3767209 75.0938673,1.12640801 75.3441802,0.876095119 C75.5944931,0.625782228 75.844806,0.625782228 76.2202753,0.625782228 C76.5957447,0.625782228 76.8460576,0.750938673 77.0963705,0.876095119 C77.3466834,1.12640801 77.4718398,1.3767209 77.4718398,1.62703379 L77.4718398,38.5481852 C77.4718398,38.7984981 77.3466834,39.1739675 77.0963705,39.2991239 C76.8460576,39.5494368 76.5957447,39.6745932 76.2202753,39.6745932 C75.844806,39.6745932 75.5944931,39.5494368 75.3441802,39.2991239 C75.0938673,39.048811 74.9687109,38.7984981 74.9687109,38.5481852 L74.9687109,36.0450563 C74.3429287,37.1714643 73.4668335,38.0475594 72.2152691,38.7984981 C70.9637046,39.5494368 69.5869837,39.9249061 68.0851064,39.9249061 C65.7071339,39.9249061 63.5794743,38.9236546 61.7021277,37.0463079 C59.824781,35.2941176 58.9486859,33.0413016 58.9486859,30.5381727 L58.9486859,30.5381727 Z M61.4518148,30.5381727 C61.4518148,32.4155194 62.077597,34.0425532 63.4543179,35.4192741 C64.8310388,36.9211514 66.3329161,37.5469337 68.2102628,37.5469337 C69.9624531,37.5469337 71.4643304,36.9211514 72.8410513,35.669587 C74.2177722,34.4180225 74.8435544,33.2916145 74.8435544,32.290363 L74.8435544,24.6558198 C74.8435544,22.5281602 74.2177722,20.9011264 72.8410513,19.649562 C71.4643304,18.3979975 69.9624531,17.7722153 68.2102628,17.7722153 C66.3329161,17.7722153 64.8310388,18.5231539 63.4543179,19.8998748 C62.077597,21.2765957 61.4518148,22.9036295 61.4518148,24.7809762 L61.4518148,30.5381727 L61.4518148,30.5381727 Z" id="Shape"></path>
                <path d="M90.3629537,30.5381727 L90.3629537,24.5306633 C90.3629537,22.0275344 91.2390488,19.8998748 93.1163955,18.0225282 C94.9937422,16.2703379 97.1214018,15.2690864 99.7496871,15.2690864 C102.252816,15.2690864 104.380476,16.1451815 106.257822,17.8973717 C108.135169,19.649562 109.011264,21.902378 109.011264,24.5306633 C109.011264,25.4067584 108.886108,26.1576971 108.635795,26.7834793 C108.385482,27.2841051 108.010013,27.7847309 107.634543,28.0350438 C107.133917,28.2853567 106.758448,28.4105131 106.382979,28.4105131 C106.007509,28.4105131 105.381727,28.5356696 104.755945,28.5356696 L92.991239,28.5356696 L92.991239,30.6633292 C92.991239,32.7909887 93.7421777,34.543179 95.2440551,35.7947434 C96.7459324,37.0463079 98.7484355,37.6720901 101.126408,37.6720901 C102.377972,37.6720901 103.379224,37.5469337 104.255319,37.1714643 C105.131414,36.795995 105.757196,36.5456821 106.132666,36.1702128 C106.633292,35.7947434 106.883605,35.669587 107.133917,35.669587 C107.38423,35.669587 107.7597,35.7947434 107.884856,36.0450563 C108.135169,36.2953692 108.260325,36.5456821 108.260325,36.9211514 C108.260325,37.5469337 107.509387,38.2978723 106.132666,38.9236546 C104.755945,39.6745932 103.003755,40.0500626 100.876095,40.0500626 C97.747184,40.0500626 95.2440551,39.1739675 93.2415519,37.4217772 C91.3642053,35.669587 90.3629537,33.416771 90.3629537,30.5381727 L90.3629537,30.5381727 Z M92.8660826,26.40801 L103.754693,26.40801 C104.881101,26.40801 105.63204,26.2828536 106.007509,26.0325407 C106.382979,25.7822278 106.633292,25.281602 106.633292,24.5306633 C106.633292,22.7784731 106.007509,21.1514393 104.755945,19.649562 C103.50438,18.2728411 101.877347,17.5219024 99.8748436,17.5219024 C97.9974969,17.5219024 96.3704631,18.1476846 94.9937422,19.5244055 C93.6170213,20.9011264 92.991239,22.4030038 92.991239,24.2803504 L92.991239,26.40801 L92.8660826,26.40801 Z" id="Shape"></path>
                <path d="M138.673342,32.4155194 L138.673342,5.00625782 C138.673342,4.75594493 138.798498,4.50563204 139.048811,4.25531915 C139.299124,4.00500626 139.549437,4.00500626 139.924906,4.00500626 C140.300375,4.00500626 140.550688,4.1301627 140.801001,4.25531915 C141.051314,4.50563204 141.176471,4.75594493 141.176471,5.00625782 L141.176471,15.6445557 L147.934919,15.6445557 C148.185232,15.6445557 148.435544,15.7697121 148.560701,16.020025 C148.811014,16.2703379 148.811014,16.5206508 148.811014,16.7709637 C148.811014,17.0212766 148.685857,17.2715895 148.560701,17.5219024 C148.310388,17.7722153 148.185232,17.8973717 147.934919,17.8973717 L141.176471,17.8973717 L141.176471,32.5406758 C141.176471,34.2928661 141.55194,35.669587 142.302879,36.4205257 C143.053817,37.1714643 144.430538,37.5469337 146.433041,37.5469337 L147.684606,37.5469337 C148.060075,37.5469337 148.310388,37.6720901 148.560701,37.922403 C148.811014,38.1727159 148.93617,38.4230288 148.93617,38.7984981 C148.93617,39.048811 148.811014,39.4242804 148.560701,39.6745932 C148.310388,39.9249061 148.060075,40.0500626 147.684606,40.0500626 L146.433041,40.0500626 C141.176471,39.6745932 138.673342,37.2966208 138.673342,32.4155194 L138.673342,32.4155194 Z" id="Shape"></path>
                <path d="M158.948686,30.5381727 L158.948686,24.6558198 C158.948686,22.1526909 159.824781,19.8998748 161.702128,18.1476846 C163.579474,16.2703379 165.707134,15.3942428 168.335419,15.3942428 C170.838548,15.3942428 173.091364,16.2703379 174.968711,18.1476846 C176.846058,20.0250313 177.722153,22.1526909 177.722153,24.7809762 L177.722153,30.6633292 C177.722153,33.1664581 176.720901,35.2941176 174.843554,37.2966208 C172.966208,39.1739675 170.713392,40.175219 168.335419,40.175219 C165.83229,40.175219 163.704631,39.1739675 161.827284,37.2966208 C159.949937,35.4192741 158.948686,33.1664581 158.948686,30.5381727 L158.948686,30.5381727 Z M161.451815,30.5381727 C161.451815,32.4155194 162.077597,34.0425532 163.454318,35.4192741 C164.831039,36.9211514 166.458073,37.5469337 168.335419,37.5469337 C170.212766,37.5469337 171.8398,36.795995 173.216521,35.4192741 C174.593242,33.9173967 175.219024,32.290363 175.219024,30.5381727 L175.219024,24.6558198 C175.219024,22.9036295 174.593242,21.2765957 173.216521,19.7747184 C171.8398,18.3979975 170.212766,17.6470588 168.335419,17.6470588 C166.458073,17.6470588 164.831039,18.3979975 163.454318,19.7747184 C162.077597,21.1514393 161.451815,22.7784731 161.451815,24.6558198 L161.451815,30.5381727 L161.451815,30.5381727 Z" id="Shape"></path>
                <path d="M207.008761,30.5381727 L207.008761,24.7809762 C207.008761,22.0275344 207.7597,19.7747184 209.386733,18.0225282 C211.013767,16.2703379 213.39174,15.3942428 216.520651,15.3942428 C218.397997,15.3942428 220.150188,15.7697121 221.401752,16.3954944 C222.778473,17.146433 223.404255,17.7722153 223.404255,18.3979975 C223.404255,18.6483104 223.279099,19.0237797 223.028786,19.2740926 C222.778473,19.5244055 222.52816,19.649562 222.152691,19.649562 C222.027534,19.649562 221.652065,19.5244055 221.276596,19.1489362 C220.901126,18.7734668 220.275344,18.5231539 219.399249,18.1476846 C218.523154,17.7722153 217.647059,17.6470588 216.520651,17.6470588 C214.267835,17.6470588 212.515645,18.2728411 211.26408,19.5244055 C210.012516,20.77597 209.386733,22.5281602 209.386733,24.7809762 L209.386733,30.5381727 C209.386733,32.7909887 210.012516,34.543179 211.26408,35.7947434 C212.515645,37.0463079 214.267835,37.6720901 216.645807,37.6720901 C217.772215,37.6720901 218.898623,37.5469337 219.649562,37.1714643 C220.525657,36.795995 221.151439,36.5456821 221.526909,36.1702128 C222.027534,35.7947434 222.277847,35.669587 222.52816,35.669587 C222.778473,35.669587 223.153942,35.7947434 223.279099,36.0450563 C223.529412,36.2953692 223.654568,36.5456821 223.654568,36.9211514 C223.654568,37.6720901 222.90363,38.2978723 221.526909,39.048811 C220.150188,39.7997497 218.397997,40.0500626 216.395494,40.0500626 C213.266583,40.0500626 210.888611,39.1739675 209.261577,37.4217772 C207.7597,35.669587 207.008761,33.416771 207.008761,30.5381727 L207.008761,30.5381727 Z" id="Shape"></path>
                <path d="M234.418023,30.5381727 L234.418023,24.6558198 C234.418023,22.1526909 235.294118,19.8998748 237.171464,18.1476846 C239.048811,16.2703379 241.176471,15.3942428 243.804756,15.3942428 C246.307885,15.3942428 248.560701,16.2703379 250.438048,18.1476846 C252.315394,20.0250313 253.191489,22.1526909 253.191489,24.7809762 L253.191489,30.6633292 C253.191489,33.1664581 252.190238,35.2941176 250.312891,37.2966208 C248.435544,39.1739675 246.182728,40.175219 243.804756,40.175219 C241.301627,40.175219 239.173967,39.1739675 237.296621,37.2966208 C235.294118,35.2941176 234.418023,33.1664581 234.418023,30.5381727 L234.418023,30.5381727 Z M236.921151,30.5381727 C236.921151,32.4155194 237.546934,34.0425532 238.923655,35.4192741 C240.300375,36.9211514 241.927409,37.5469337 243.804756,37.5469337 C245.682103,37.5469337 247.309136,36.795995 248.685857,35.4192741 C250.062578,33.9173967 250.68836,32.290363 250.68836,30.5381727 L250.68836,24.6558198 C250.68836,22.9036295 250.062578,21.2765957 248.685857,19.7747184 C247.309136,18.3979975 245.682103,17.6470588 243.804756,17.6470588 C241.927409,17.6470588 240.300375,18.3979975 238.923655,19.7747184 C237.546934,21.1514393 236.921151,22.7784731 236.921151,24.6558198 L236.921151,30.5381727 L236.921151,30.5381727 Z" id="Shape"></path>
                <path d="M266.082603,38.5481852 L266.082603,16.6458073 C266.082603,16.020025 266.458073,15.6445557 267.334168,15.6445557 C267.709637,15.6445557 267.95995,15.7697121 268.210263,15.8948686 C268.460576,16.020025 268.585732,16.2703379 268.585732,16.6458073 L268.585732,19.1489362 C269.211514,18.0225282 270.08761,17.146433 271.214018,16.3954944 C272.465582,15.6445557 273.842303,15.2690864 275.34418,15.2690864 C277.847309,15.2690864 279.974969,16.1451815 281.727159,18.0225282 C283.479349,19.8998748 284.480601,22.0275344 284.480601,24.6558198 L284.480601,38.5481852 C284.480601,39.2991239 284.105131,39.6745932 283.229036,39.6745932 C282.352941,39.6745932 281.977472,39.2991239 281.977472,38.5481852 L281.977472,24.6558198 C281.977472,22.9036295 281.35169,21.2765957 279.974969,19.7747184 C278.598248,18.3979975 276.971214,17.6470588 275.219024,17.6470588 C273.466834,17.6470588 271.964956,18.2728411 270.588235,19.5244055 C269.211514,20.77597 268.585732,22.5281602 268.585732,24.6558198 L268.585732,38.5481852 C268.585732,38.7984981 268.460576,39.048811 268.210263,39.2991239 C267.95995,39.5494368 267.709637,39.6745932 267.334168,39.6745932 C266.958698,39.6745932 266.708385,39.5494368 266.458073,39.2991239 C266.20776,39.1739675 266.082603,38.9236546 266.082603,38.5481852 L266.082603,38.5481852 Z" id="Shape"></path>
                <path d="M297.997497,38.5481852 L297.997497,16.6458073 C297.997497,16.020025 298.372966,15.6445557 299.249061,15.6445557 C299.624531,15.6445557 299.874844,15.7697121 300.125156,15.8948686 C300.375469,16.020025 300.500626,16.2703379 300.500626,16.6458073 L300.500626,19.1489362 C301.126408,18.0225282 302.002503,17.146433 303.128911,16.3954944 C304.380476,15.6445557 305.757196,15.2690864 307.259074,15.2690864 C309.762203,15.2690864 311.889862,16.1451815 313.642053,18.0225282 C315.394243,19.8998748 316.395494,22.0275344 316.395494,24.6558198 L316.395494,38.5481852 C316.395494,39.2991239 316.020025,39.6745932 315.14393,39.6745932 C314.267835,39.6745932 313.892365,39.2991239 313.892365,38.5481852 L313.892365,24.6558198 C313.892365,22.9036295 313.266583,21.2765957 311.889862,19.7747184 C310.513141,18.3979975 308.886108,17.6470588 307.133917,17.6470588 C305.381727,17.6470588 303.87985,18.2728411 302.503129,19.5244055 C301.126408,20.77597 300.500626,22.5281602 300.500626,24.6558198 L300.500626,38.5481852 C300.500626,38.7984981 300.375469,39.048811 300.125156,39.2991239 C299.874844,39.5494368 299.624531,39.6745932 299.249061,39.6745932 C298.873592,39.6745932 298.623279,39.5494368 298.372966,39.2991239 C298.122653,39.1739675 297.997497,38.9236546 297.997497,38.5481852 L297.997497,38.5481852 Z" id="Shape"></path>
                <path d="M329.161452,30.5381727 L329.161452,24.5306633 C329.161452,22.0275344 330.037547,19.8998748 331.914894,18.0225282 C333.79224,16.2703379 335.9199,15.2690864 338.548185,15.2690864 C341.051314,15.2690864 343.178974,16.1451815 345.05632,17.8973717 C346.933667,19.649562 347.809762,21.902378 347.809762,24.5306633 C347.809762,25.4067584 347.684606,26.1576971 347.434293,26.7834793 C347.18398,27.2841051 346.808511,27.7847309 346.433041,28.0350438 C346.057572,28.2853567 345.556946,28.4105131 345.181477,28.4105131 C344.806008,28.4105131 344.180225,28.5356696 343.554443,28.5356696 L331.664581,28.5356696 L331.664581,30.6633292 C331.664581,32.7909887 332.415519,34.543179 333.917397,35.7947434 C335.419274,37.0463079 337.421777,37.6720901 339.79975,37.6720901 C341.051314,37.6720901 342.052566,37.5469337 342.928661,37.1714643 C343.804756,36.795995 344.430538,36.5456821 344.806008,36.1702128 C345.306633,35.7947434 345.556946,35.669587 345.807259,35.669587 C346.057572,35.669587 346.433041,35.7947434 346.558198,36.0450563 C346.808511,36.2953692 346.933667,36.5456821 346.933667,36.9211514 C346.933667,37.5469337 346.182728,38.2978723 344.806008,38.9236546 C343.429287,39.6745932 341.677096,40.0500626 339.549437,40.0500626 C336.420526,40.0500626 333.917397,39.1739675 331.914894,37.4217772 C330.162703,35.669587 329.161452,33.416771 329.161452,30.5381727 L329.161452,30.5381727 Z M331.664581,26.40801 L342.553191,26.40801 C343.679599,26.40801 344.430538,26.2828536 344.806008,26.0325407 C345.181477,25.7822278 345.43179,25.281602 345.43179,24.5306633 C345.43179,22.7784731 344.806008,21.1514393 343.554443,19.649562 C342.302879,18.2728411 340.675845,17.5219024 338.673342,17.5219024 C336.795995,17.5219024 335.168961,18.1476846 333.79224,19.5244055 C332.415519,20.9011264 331.789737,22.4030038 331.789737,24.2803504 L331.789737,26.40801 L331.664581,26.40801 Z" id="Shape"></path>
                <path d="M359.324155,30.5381727 L359.324155,24.7809762 C359.324155,22.0275344 360.075094,19.7747184 361.702128,18.0225282 C363.329161,16.2703379 365.707134,15.3942428 368.836045,15.3942428 C370.713392,15.3942428 372.465582,15.7697121 373.717146,16.3954944 C375.093867,17.146433 375.71965,17.7722153 375.71965,18.3979975 C375.71965,18.6483104 375.594493,19.0237797 375.34418,19.2740926 C375.093867,19.5244055 374.843554,19.649562 374.468085,19.649562 C374.342929,19.649562 373.967459,19.5244055 373.59199,19.1489362 C373.216521,18.7734668 372.590738,18.5231539 371.714643,18.1476846 C370.838548,17.7722153 369.962453,17.6470588 368.836045,17.6470588 C366.583229,17.6470588 364.831039,18.2728411 363.579474,19.5244055 C362.32791,20.77597 361.702128,22.5281602 361.702128,24.7809762 L361.702128,30.5381727 C361.702128,32.7909887 362.32791,34.543179 363.579474,35.7947434 C364.831039,37.0463079 366.583229,37.6720901 368.961202,37.6720901 C370.08761,37.6720901 371.214018,37.5469337 371.964956,37.1714643 C372.841051,36.795995 373.466834,36.5456821 373.842303,36.1702128 C374.342929,35.7947434 374.593242,35.669587 374.843554,35.669587 C375.093867,35.669587 375.469337,35.7947434 375.594493,36.0450563 C375.844806,36.2953692 375.969962,36.5456821 375.969962,36.9211514 C375.969962,37.6720901 375.219024,38.2978723 373.842303,39.048811 C372.465582,39.7997497 370.713392,40.0500626 368.710889,40.0500626 C365.581977,40.0500626 363.204005,39.1739675 361.576971,37.4217772 C360.20025,35.669587 359.324155,33.416771 359.324155,30.5381727 L359.324155,30.5381727 Z" id="Shape"></path>
                <path d="M387.984981,32.4155194 L387.984981,5.00625782 C387.984981,4.75594493 388.110138,4.50563204 388.360451,4.25531915 C388.610763,4.00500626 388.861076,4.00500626 389.236546,4.00500626 C389.612015,4.00500626 389.862328,4.1301627 390.112641,4.25531915 C390.362954,4.50563204 390.48811,4.75594493 390.48811,5.00625782 L390.48811,15.6445557 L397.246558,15.6445557 C397.496871,15.6445557 397.747184,15.7697121 397.87234,16.020025 C398.122653,16.2703379 398.122653,16.5206508 398.122653,16.7709637 C398.122653,17.0212766 397.997497,17.2715895 397.87234,17.5219024 C397.622028,17.7722153 397.496871,17.8973717 397.246558,17.8973717 L390.48811,17.8973717 L390.48811,32.5406758 C390.48811,34.2928661 390.863579,35.669587 391.614518,36.4205257 C392.365457,37.1714643 393.742178,37.5469337 395.744681,37.5469337 L396.996245,37.5469337 C397.371715,37.5469337 397.622028,37.6720901 397.87234,37.922403 C398.122653,38.1727159 398.24781,38.4230288 398.24781,38.7984981 C398.24781,39.048811 398.122653,39.4242804 397.87234,39.6745932 C397.622028,39.9249061 397.371715,40.0500626 396.996245,40.0500626 L395.744681,40.0500626 C390.48811,39.6745932 387.984981,37.2966208 387.984981,32.4155194 L387.984981,32.4155194 Z" id="Shape"></path>
            </g>
            <g id="beyowi" transform="translate(175.219024, 172.715895)">
                <g id="ondes" transform="translate(544.430538, 118.898623)">
                    <path d="M90.2377972,42.0525657 C90.1126408,42.1777222 90.1126408,42.1777222 90.2377972,42.0525657 C88.8610763,43.3041302 86.8585732,43.3041302 85.7321652,41.9274093 C77.0963705,32.6658323 65.2065081,27.2841051 52.5657071,26.7834793 C39.7997497,26.40801 27.6595745,30.9136421 18.3979975,39.5494368 C17.146433,40.6758448 15.1439299,40.6758448 13.8923655,39.4242804 C12.7659574,38.1727159 12.8911139,36.2953692 14.0175219,34.9186483 C24.5306633,25.0312891 38.2978723,19.8998748 52.6908636,20.4005006 C67.0838548,20.9011264 80.4755945,27.0337922 90.2377972,37.5469337 C91.3642053,38.9236546 91.3642053,40.9261577 90.2377972,42.0525657 L90.2377972,42.0525657 Z" id="Shape" fill="url(#linearGradient-1)"></path>
                    <path d="M103.379224,27.7847309 C103.379224,27.9098874 103.379224,27.9098874 103.379224,27.7847309 C102.002503,29.0362954 100,29.0362954 98.873592,27.6595745 C73.9674593,1.00125156 32.0400501,-0.500625782 5.38172716,24.4055069 C4.1301627,25.5319149 2.12765957,25.5319149 0.876095119,24.2803504 C-0.250312891,23.028786 -0.125156446,21.0262829 1.00125156,19.7747184 C30.1627034,-7.50938673 76.0951189,-5.88235294 103.379224,23.2790989 C104.630788,24.6558198 104.630788,26.6583229 103.379224,27.7847309 L103.379224,27.7847309 Z" id="Shape" fill="url(#linearGradient-2)"></path>
                    <path d="M76.5957447,56.6958698 C76.5957447,56.6958698 76.4705882,56.8210263 76.5957447,56.6958698 C75.2190238,57.9474343 73.2165207,57.9474343 72.0901126,56.5707134 C66.8335419,50.9386733 59.5744681,47.6846058 51.8147685,47.3091364 C44.0550688,47.0588235 36.6708385,49.8122653 31.0387985,55.068836 C29.787234,56.1952441 27.7847309,56.1952441 26.5331665,54.9436796 C25.4067584,53.6921151 25.6570713,51.689612 26.6583229,50.4380476 C33.5419274,44.0550688 42.5531915,40.6758448 51.9399249,40.9261577 C61.3266583,41.301627 70.0876095,45.1814768 76.5957447,52.1902378 C77.8473091,53.5669587 77.7221527,55.5694618 76.5957447,56.6958698 L76.5957447,56.6958698 Z" id="Shape" fill="url(#linearGradient-3)"></path>
                </g>
                <g id="eyowi" transform="translate(197.495620, 186.483104)">
                    <path d="M35.0450563,3.50438048 C44.3066333,3.50438048 51.9411765,6.00750939 57.9486859,11.1389237 C64.0813517,16.2703379 67.0851064,22.9036295 67.2102628,31.0387985 L67.3354193,31.2891114 L18.2740926,51.9399249 C22.6545682,57.3216521 28.6620776,60.0750939 36.1714643,60.0750939 C43.6808511,60.0750939 49.9386733,57.0713392 54.8197747,51.1889862 L63.2052566,60.4505632 C55.1952441,68.7108886 45.6833542,72.8410513 34.7947434,72.8410513 C25.2828536,72.8410513 17.0225282,69.7121402 10.2640801,63.3291615 C3.38047559,56.9461827 0.00125156446,48.6858573 0.00125156446,38.2978723 C0.00125156446,31.1639549 1.7534418,24.7809762 5.38297872,19.3992491 C8.8873592,13.8923655 13.2678348,9.8873592 18.5244055,7.38423029 C23.7809762,4.75594493 29.2878598,3.50438048 35.0450563,3.50438048 L35.0450563,3.50438048 Z M13.6433041,38.5481852 C13.6433041,39.6745932 13.6433041,40.4255319 13.7684606,40.9261577 L51.0650814,24.9061327 C48.1864831,19.2740926 43.0550688,16.5206508 35.795995,16.5206508 C30.1639549,16.5206508 25.1576971,18.5231539 20.5269086,22.4030038 C16.0212766,26.2828536 13.6433041,31.6645807 13.6433041,38.5481852 L13.6433041,38.5481852 Z" id="Shape" fill="url(#linearGradient-4)"></path>
                    <path d="M235.045056,62.8285357 C228.286608,69.5869837 219.901126,72.8410513 209.763454,72.8410513 C199.625782,72.8410513 191.2403,69.4618273 184.481852,62.8285357 C177.723404,56.0700876 174.34418,47.9349186 174.34418,38.1727159 C174.34418,28.4105131 177.723404,20.2753442 184.481852,13.5168961 C191.2403,6.75844806 199.625782,3.50438048 209.763454,3.50438048 C219.901126,3.50438048 228.286608,6.88360451 235.045056,13.5168961 C241.803504,20.2753442 245.182728,28.4105131 245.182728,38.1727159 C245.182728,47.9349186 241.803504,56.0700876 235.045056,62.8285357 L235.045056,62.8285357 Z M194.494368,54.0675845 C198.499374,58.1977472 203.630788,60.2002503 209.763454,60.2002503 C215.89612,60.2002503 221.027534,58.1977472 225.032541,54.0675845 C229.037547,49.9374218 231.04005,44.6808511 231.04005,38.1727159 C231.04005,31.6645807 229.037547,26.40801 225.032541,22.2778473 C221.027534,18.1476846 215.89612,16.1451815 209.763454,16.1451815 C203.630788,16.1451815 198.499374,18.1476846 194.494368,22.2778473 C190.489362,26.40801 188.486859,31.6645807 188.486859,38.1727159 C188.486859,44.6808511 190.489362,50.0625782 194.494368,54.0675845 L194.494368,54.0675845 Z" id="Shape" fill="url(#linearGradient-5)"></path>
                    <polygon id="Shape" fill="url(#linearGradient-6)" points="300.376721 71.8397997 284.231539 71.8397997 260.952441 4.50563204 275.595745 4.50563204 292.366708 55.4443054 309.137672 4.50563204 323.780976 4.50563204 340.55194 55.4443054 357.322904 4.50563204 371.966208 4.50563204 348.687109 71.8397997 332.541927 71.8397997 316.647059 25.7822278"></polygon>
                    <path d="M406.133917,71.8397997 L391.991239,71.8397997 L391.991239,4.50563204 C391.991239,-1.25156446 406.133917,-1.50187735 406.133917,4.50563204 L406.133917,71.8397997 L406.133917,71.8397997 Z" id="Shape" fill="url(#linearGradient-7)"></path>
                    <polygon id="Shape" fill="url(#linearGradient-8)" points="128.425532 72.3341677 113.782228 72.3341677 113.782228 45.8010013 88 5 104.520651 5 121.166458 30.0312891 137.937422 5 154.458073 5 128.550688 45.8010013 128.550688 72.3341677"></polygon>
                </g>
                <g id="B" fill="url(#linearGradient-9)">
                    <path d="M87.4843554,149.186483 C135.669587,149.186483 174.718398,188.360451 174.718398,236.420526 C174.718398,284.480601 135.544431,323.654568 87.4843554,323.654568 C39.4242804,323.654568 0.250312891,284.480601 0.250312891,236.420526 L0.250312891,14.5181477 C0.250312891,7.00876095 6.38297872,0.876095119 13.8923655,0.876095119 C21.4017522,0.876095119 27.534418,7.00876095 27.534418,14.5181477 L27.534418,88.8610763 C27.534418,122.027534 54.5682103,148.93617 87.6095119,148.93617 L87.6095119,149.186483 L87.4843554,149.186483 Z M147.559449,236.420526 C147.559449,203.254068 120.525657,176.345432 87.4843554,176.345432 C54.3178974,176.345432 27.4092616,203.379224 27.4092616,236.420526 C27.4092616,269.586984 54.4430538,296.49562 87.4843554,296.49562 C120.650814,296.620776 147.559449,269.586984 147.559449,236.420526 L147.559449,236.420526 Z" id="Shape"></path>
                </g>
            </g>
        </g>
    </g>
</svg>