<svg version="1.1" id="svg12" xmlns="http://www.w3.org/2000/svg" x="0" y="0" viewBox="0 0 728.2 146" xml:space="preserve"><style>.st0{fill:#27aae1}</style><path id="path6" class="st0" d="M120.3 26.7L80.2 3.6C76.1 1.2 71.5 0 66.8 0c-4.7 0-9.2 1.2-13.4 3.6L27.8 18.4v30.9l39-22.5 40.1 23.1v46.3l26.7 15.4V49.9c0-9.6-5.1-18.4-13.3-23.2zm-53.5 92.6L26.7 96.2V49.9L0 34.5v61.7c0 9.5 5.1 18.4 13.4 23.1l40.1 23.1c4.1 2.4 8.7 3.6 13.4 3.6s9.2-1.2 13.4-3.6l25.6-14.8V96.7l-39.1 22.6z"/><g id="g10" transform="translate(-645.4 -951)"><path id="path8" class="st0" d="M823 968.4c0-.3 1.6-1.1 3.6-1.1 3.6 0 7 1.8 7 10.3v36.1c7-9.3 16.1-14.7 29-14.7 20.6 0 36.9 16.1 36.9 40.8 0 24.6-15.9 41.1-37.5 41.1-14.1 0-24.1-6.6-28.5-13.9v7.5c0 3.9-1.8 5.1-4.6 5.1h-1.1c-2.8 0-4.8-1.1-4.8-5.1V968.4zm38.2 103c16.6 0 27.5-12.8 27.5-31.6 0-18.4-11.5-31.6-27.2-31.6-13.6 0-23.1 7.2-28 18.5v18.4c0 14.9 12.9 26.3 27.7 26.3zm52.9-103c0-.3 1.6-1.1 3.6-1.1 3.6 0 7 1.8 7 10.3v96.8c0 3.9-2 5.1-4.8 5.1h-1.1c-2.8 0-4.8-1.1-4.8-5.1l.1-106zm29.1 36.8c0-3.9 2-5.1 4.8-5.1h1.1c2.8 0 4.8 1.1 4.8 5.1v40.5c0 15.7 7.9 25.1 21.8 25.1 11.3 0 20.3-6.7 24.9-16.5v-49c0-3.9 2-5.1 4.8-5.1h1.1c2.8 0 4.8 1.1 4.8 5.1v73.1c0 .3-1.6 1.1-3.6 1.1-3.6 0-6.9-1.8-6.9-10.3v-2.5c-5.6 8.4-14.6 14.1-26.5 14.1-20.6 0-31-13.8-31-34.4v-41.2h-.1zm121.5-6.4c22 0 36.4 15.6 36.4 39.3v1c0 2.9-1.1 3.6-4.4 3.6h-60.6c.8 16.7 12.9 28.5 29.7 28.5 15.2 0 22.1-6.6 26.7-13.9.3-.5 6.2 1 6.2 6.1 0 5.4-11.8 17.4-32.9 17.4-23.8 0-40.3-16.7-40.3-40.6-.1-23.8 16.6-41.4 39.2-41.4zm25.1 34.8c-1-15.4-10.5-25.4-25.1-25.4-14.7 0-26.1 10.5-28.3 25.4h53.4zm25.5-65.2c0-.3 1.6-1.1 3.6-1.1 3.6 0 7 1.8 7 10.3v35.7c5.4-8.4 14.1-14.4 26.4-14.4 20.6 0 31 13.8 31 34.4v41.1c0 3.9-2 5.1-4.8 5.1h-1.1c-2.8 0-4.8-1.1-4.8-5.1v-40.5c0-15.7-7.9-25.1-21-25.1-15.4 0-25.7 10.5-25.7 26.7v38.8c0 3.9-2 5.1-4.8 5.1h-1.1c-2.8 0-4.8-1.1-4.8-5.1V968.4h.1zm84.7 5.9c0-4.8 2.5-7 7.2-7 4.6 0 6.9 2.3 6.9 7 0 4.8-2.5 7-7.2 7-4.5 0-6.9-2.4-6.9-7zm1.6 30.9c0-3.9 2-5.1 4.8-5.1h1.1c2.8 0 4.8 1.1 4.8 5.1v69.1c0 3.9-2 5.1-4.8 5.1h-1.1c-2.8 0-4.8-1.1-4.8-5.1v-69.1zm21.1-1.9c-.2-.7 1.5-3.1 5.2-3.1 3.8 0 5.6 1.5 8 7.9l22.9 61.3 23.4-61.3c2.5-6.4 4.4-7.9 7.7-7.9 3.8 0 5.4 2.6 5.2 3.1l-28.7 72.3c-1.1 2.8-2.3 4.3-7.7 4.3-5.6 0-6.1-1.1-7.2-3.9l-28.8-72.7zm114.5-4.5c22 0 36.4 15.6 36.4 39.3v1c0 2.9-1.1 3.6-4.4 3.6h-60.6c.8 16.7 12.9 28.5 29.7 28.5 15.2 0 22.1-6.6 26.7-13.9.3-.5 6.2 1 6.2 6.1 0 5.4-11.8 17.4-32.9 17.4-23.8 0-40.3-16.7-40.3-40.6-.1-23.8 16.6-41.4 39.2-41.4zm25.1 34.8c-1-15.4-10.5-25.4-25.1-25.4-14.7 0-26.1 10.5-28.3 25.4h53.4z"/></g></svg>