<?xml version="1.0" encoding="UTF-8"?> <svg xmlns="http://www.w3.org/2000/svg" xmlns:xlink="http://www.w3.org/1999/xlink" viewBox="0 0 328.25 95.96"><defs><style>.cls-1{fill:#231f20;}.cls-2{fill:url(#linear-gradient);}.cls-3{fill:url(#linear-gradient-2);}.cls-4{fill:url(#linear-gradient-3);}.cls-5{fill:#39b54a;}</style><linearGradient id="linear-gradient" x1="0.68" y1="47.98" x2="102.23" y2="47.98" gradientUnits="userSpaceOnUse"><stop offset="0" stop-color="#8dc63f"></stop><stop offset="1" stop-color="#009444"></stop></linearGradient><linearGradient id="linear-gradient-2" x1="22.77" y1="86.37" x2="39.44" y2="86.37" xlink:href="#linear-gradient"></linearGradient><linearGradient id="linear-gradient-3" x1="0" y1="86.37" x2="17.48" y2="86.37" xlink:href="#linear-gradient"></linearGradient></defs><title>Asset 1</title><g id="Layer_2" data-name="Layer 2"><g id="Layer_1-2" data-name="Layer 1"><rect class="cls-1" x="22.77" y="52.93" width="16.67" height="19.52"></rect><rect class="cls-1" y="52.93" width="17.48" height="19.52"></rect><rect class="cls-1" x="22.77" y="28.8" width="16.67" height="19.79"></rect><rect class="cls-1" y="28.8" width="17.48" height="19.79"></rect><path class="cls-2" d="M84,45.3a23.77,23.77,0,0,0,14-21.61h0A23.76,23.76,0,0,0,74.38,0H.68V19.18H69.8a9.76,9.76,0,1,1,0,19.52H46.08V54.56H70.69a11.18,11.18,0,1,1,0,22.36H46.08V96H76.31A26,26,0,0,0,102.23,70h0A26,26,0,0,0,84,45.3Z"></path><rect class="cls-3" x="22.77" y="76.78" width="16.67" height="19.18"></rect><rect class="cls-4" y="76.78" width="17.48" height="19.18"></rect><path class="cls-1" d="M109.32,22.63h15.26c3.62,0,6.37.86,8.25,2.56s2.83,4.17,2.83,7.39a9.77,9.77,0,0,1-1.08,4.84,8.85,8.85,0,0,1-3.26,3.26,12.19,12.19,0,0,1,3.73,1.26A7.94,7.94,0,0,1,137.56,44,7.69,7.69,0,0,1,139,46.78a12.44,12.44,0,0,1,.42,3.28,11.46,11.46,0,0,1-1,4.82,9.89,9.89,0,0,1-2.72,3.54,11.49,11.49,0,0,1-4.26,2.15,20.41,20.41,0,0,1-5.64.72H109.32Zm10.24,15.18h1.88q4.82,0,4.81-3.75t-4.81-3.74h-1.88Zm0,15.69h2.25a11.61,11.61,0,0,0,5.54-1,3.76,3.76,0,0,0,0-6.25,11.61,11.61,0,0,0-5.54-1h-2.25Z"></path><path class="cls-1" d="M155.72,22.63v21c0,1.13,0,2.29.13,3.46a9.58,9.58,0,0,0,.78,3.21,5.4,5.4,0,0,0,2.07,2.33,7.36,7.36,0,0,0,4,.9,7.23,7.23,0,0,0,3.94-.9,5.59,5.59,0,0,0,2.07-2.33,9.14,9.14,0,0,0,.81-3.21c.08-1.17.13-2.33.13-3.46v-21h10.19V45q0,9-4.21,13.18t-12.93,4.15q-8.73,0-13-4.15T145.48,45V22.63Z"></path><path class="cls-1" d="M188.06,22.63h15.15a18.21,18.21,0,0,1,7.56,1.59,20.6,20.6,0,0,1,6.16,4.23,19.57,19.57,0,0,1,4.15,6.15A18.41,18.41,0,0,1,222.6,42a18.59,18.59,0,0,1-1.49,7.31A19.54,19.54,0,0,1,217,55.45a20.48,20.48,0,0,1-6.16,4.25,18.3,18.3,0,0,1-7.61,1.59H188.06ZM198.3,52.78h2.36a12.86,12.86,0,0,0,4.75-.82,10.25,10.25,0,0,0,3.53-2.26,9.57,9.57,0,0,0,2.19-3.41,12.5,12.5,0,0,0,0-8.64A9.84,9.84,0,0,0,205.36,32a12.94,12.94,0,0,0-4.7-.82H198.3Z"></path><path class="cls-1" d="M248.31,39.65h20.32a52.77,52.77,0,0,1-.26,5.59,19.44,19.44,0,0,1-1,4.67,18.61,18.61,0,0,1-3,5.36,17.45,17.45,0,0,1-4.42,3.89,20.81,20.81,0,0,1-5.56,2.39,24.62,24.62,0,0,1-6.38.82,22.76,22.76,0,0,1-8.38-1.49,18.53,18.53,0,0,1-10.74-10.64,22.13,22.13,0,0,1-1.51-8.33,22.38,22.38,0,0,1,1.48-8.28,18.3,18.3,0,0,1,4.24-6.44A19.36,19.36,0,0,1,239.69,23a23.84,23.84,0,0,1,8.62-1.49,21.61,21.61,0,0,1,10.81,2.62,18.19,18.19,0,0,1,7.37,8.1l-9.72,3.95a9.77,9.77,0,0,0-3.52-4.57,9,9,0,0,0-4.94-1.38,10,10,0,0,0-4.18.85,8.9,8.9,0,0,0-3.22,2.41,11.73,11.73,0,0,0-2.09,3.77,16.42,16.42,0,0,0-.1,9.48,10.3,10.3,0,0,0,2,3.64,8.84,8.84,0,0,0,3.24,2.39,11.17,11.17,0,0,0,4.49.84,12.84,12.84,0,0,0,2.93-.33,7.66,7.66,0,0,0,2.53-1.08,6.1,6.1,0,0,0,1.86-1.92,7.66,7.66,0,0,0,1-2.87h-8.41Z"></path><path class="cls-1" d="M297.53,31.14H285.35V37.6h11.5v8.51h-11.5v6.67h12.18v8.51H275.11V22.63h22.42Z"></path><path class="cls-1" d="M319.84,31.14V61.29H309.6V31.14h-8.41V22.63h27.06v8.51Z"></path><path class="cls-5" d="M109.44,65.57h7.22a5.65,5.65,0,0,1,3.9,1.19,4.4,4.4,0,0,1,1.33,3.45,4.53,4.53,0,0,1-.51,2.26A4.16,4.16,0,0,1,119.84,74a5.94,5.94,0,0,1,1.77.58,3.94,3.94,0,0,1,1.18,1,3.59,3.59,0,0,1,.66,1.29,5.83,5.83,0,0,1,.19,1.53,5.32,5.32,0,0,1-.45,2.25,4.57,4.57,0,0,1-1.29,1.65,5.44,5.44,0,0,1-2,1,10,10,0,0,1-2.67.33h-7.78Zm4.84,7.08h.89c1.52,0,2.28-.59,2.28-1.75s-.76-1.75-2.28-1.75h-.89Zm0,7.32h1.07a5.42,5.42,0,0,0,2.61-.46,1.74,1.74,0,0,0,0-2.92,5.57,5.57,0,0,0-2.61-.45h-1.07Z"></path><path class="cls-5" d="M142,83.6h-6l-4.62-6.93V83.6h-4.84v-18h7.54a7.48,7.48,0,0,1,2.71.44,5.34,5.34,0,0,1,1.92,1.21A5,5,0,0,1,139.83,69a5.86,5.86,0,0,1,.38,2.15,4.73,4.73,0,0,1-4.05,5.07Zm-10.65-10h.92a3.55,3.55,0,0,0,2.19-.58,2.15,2.15,0,0,0,0-3.3,3.62,3.62,0,0,0-2.19-.57h-.92Z"></path><path class="cls-5" d="M155.45,80.47h-6.91l-1.12,3.13h-5.16l7.09-18h5.29l7.08,18h-5.16Zm-1.28-3.57-2.18-6-2.17,6Z"></path><path class="cls-5" d="M163.85,83.6v-18h4.84l8.94,11v-11h4.81v18h-4.81l-8.94-11v11Z"></path><path class="cls-5" d="M186.34,65.57h7.17a8.57,8.57,0,0,1,3.56.74,9.57,9.57,0,0,1,2.92,2,9.21,9.21,0,0,1,2,2.87,8.44,8.44,0,0,1,.72,3.43A8.54,8.54,0,0,1,202,78a9.1,9.1,0,0,1-2,2.89,9.5,9.5,0,0,1-2.91,2,8.64,8.64,0,0,1-3.59.74h-7.17Zm4.84,14.06h1.12a6.26,6.26,0,0,0,2.24-.38,5,5,0,0,0,1.67-1,4.62,4.62,0,0,0,1-1.59,5.77,5.77,0,0,0,0-4,4.73,4.73,0,0,0-1.05-1.6,4.9,4.9,0,0,0-1.67-1,6,6,0,0,0-2.22-.38h-1.12Z"></path><path class="cls-5" d="M216.35,69.54h-5.76v3H216v4h-5.44v3.11h5.76v4h-10.6v-18h10.6Z"></path><path class="cls-5" d="M235.31,83.6h-6l-4.62-6.93V83.6h-4.84v-18h7.53a7.53,7.53,0,0,1,2.72.44,5.07,5.07,0,0,1,3,3,6.08,6.08,0,0,1,.38,2.15,4.73,4.73,0,0,1-4,5.07Zm-10.64-10h.91a3.56,3.56,0,0,0,2.2-.58,2.15,2.15,0,0,0,0-3.3,3.63,3.63,0,0,0-2.2-.57h-.91Z"></path><path class="cls-5" d="M247.56,70.18a6,6,0,0,0-1.58-.92,4.24,4.24,0,0,0-1.53-.3,2.61,2.61,0,0,0-1.53.43,1.36,1.36,0,0,0-.59,1.13,1.13,1.13,0,0,0,.29.79,3,3,0,0,0,.78.54,6.57,6.57,0,0,0,1.09.39l1.2.36a7.57,7.57,0,0,1,3.47,2A5,5,0,0,1,250.25,78a6.31,6.31,0,0,1-.48,2.51,5.36,5.36,0,0,1-1.4,1.93,6.57,6.57,0,0,1-2.28,1.24,9.55,9.55,0,0,1-3.05.45,11.44,11.44,0,0,1-6.54-2l2.07-3.78a8.49,8.49,0,0,0,2.15,1.39,5.37,5.37,0,0,0,2.1.45,2.58,2.58,0,0,0,1.77-.52,1.61,1.61,0,0,0,.58-1.2,1.54,1.54,0,0,0-.15-.7,1.48,1.48,0,0,0-.49-.55,4,4,0,0,0-.91-.47l-1.34-.48c-.63-.19-1.24-.4-1.84-.63a5.92,5.92,0,0,1-1.61-.92,4.4,4.4,0,0,1-1.13-1.45,5,5,0,0,1-.43-2.21,6.26,6.26,0,0,1,.45-2.43A5.35,5.35,0,0,1,239,66.7a5.73,5.73,0,0,1,2-1.21,8.06,8.06,0,0,1,2.68-.43,12.45,12.45,0,0,1,2.89.37,13.11,13.11,0,0,1,2.89,1.09Z"></path></g></g></svg> 