<?xml version="1.0" encoding="utf-8"?>
<!-- Generator: Adobe Illustrator 24.1.3, SVG Export Plug-In . SVG Version: 6.00 Build 0)  -->
<svg version="1.1" id="Layer_1" xmlns="http://www.w3.org/2000/svg" xmlns:xlink="http://www.w3.org/1999/xlink" x="0px" y="0px"
	 viewBox="0 0 1600 558" style="enable-background:new 0 0 1600 558;" xml:space="preserve">
<style type="text/css">
	.st0{fill:#393C44;}
	.st1{fill:#FFFFFF;}
</style>
<path class="st0" d="M1542.13,555.11H57.57c-29.75,0-53.87-24.12-53.87-53.87V57.38c0-29.75,24.12-53.87,53.87-53.87h1484.56
	c29.75,0,53.87,24.12,53.87,53.87v443.86C1596,530.99,1571.88,555.11,1542.13,555.11z"/>
<g>
	<path class="st1" d="M146.37,145.4v118.55c47.17-54.12,135.58-7.59,131.2,60.88c6.68,69.73-90.59,117.57-131.2,60.88v19.22H94.46
		V145.4H146.37z M156.79,297.43c-35.53,36.46,17.74,94.28,56.17,58.3C251.51,319.59,194.14,258.7,156.79,297.43z"/>
	<path class="st1" d="M353.99,249.21v87.46c-0.74,15.82,7.52,33.45,30.28,33.06c20.97,1,31.57-16.29,30.28-33.06
		c0,0,0-87.46,0-87.46h51.91c-2.7,70.35,23.31,167.59-82.19,163.89c-105.9,4.1-79.37-93.67-82.18-163.89H353.99z"/>
	<path class="st1" d="M669.75,404.93h-51.91V385.7c-40.67,56.66-137.86,8.89-131.2-60.88c-4.39-68.46,84.04-115,131.2-60.87V145.4
		h51.91V404.93z M552.12,296.36c-37.83,35.28,17.34,97,55.82,58.66C644.26,319.07,590.9,260.24,552.12,296.36z"/>
	<path class="st1" d="M729.17,149.53c38.83-0.8,38.83,60.54,0,59.73C690.34,210.06,690.33,148.73,729.17,149.53z M756.26,244.88
		v160.04h-51.91V244.88H756.26z"/>
	<path class="st1" d="M842.77,145.4v118.55c47.17-54.12,135.58-7.59,131.2,60.88c6.68,69.73-90.59,117.57-131.2,60.88v19.22h-51.91
		V145.4H842.77z M850.04,297.43c-35.53,36.46,17.74,94.28,56.17,58.3C944.76,319.59,887.39,258.7,850.04,297.43z"/>
	<path class="st1" d="M1115.28,244.88h51.91v160.04h-51.91v-19.38c-46.59,60.94-135.77,3.62-131.2-59.57
		c-3.37-69.24,79.51-119.3,131.2-63.16V244.88z M1050.9,297.08c-36.31,36.11,17.06,95.21,55.82,58.66
		C1144.87,319.22,1089.7,259.83,1050.9,297.08z"/>
	<path class="st1" d="M1295.14,287.48c-11.23-6.73-31-13.88-42.66-4.27c-4.62,4.14-3.95,11.87,1.78,14.22
		c16.96,7.76,39.78,9.29,55.1,23.46c52.59,78.34-68.7,118.42-120.52,67.19l21.69-34.49c15.35,12.98,35.4,22.65,54.75,13.16
		c6.21-5.31,8.29-14.03-0.36-19.55c-15.36-7.57-41.23-9.97-54.04-24.18c-47.64-70.71,59.27-101.27,104.52-67.9L1295.14,287.48z"/>
	<path class="st1" d="M1504.57,335.72h-118.39c-2.59,35.96,50.39,53.47,67.55,19.2l48.35,4.98
		c-30.85,86.58-172.04,60.59-167.8-32.35C1333.29,207.39,1517.74,218.54,1504.57,335.72z M1458.68,305.44
		c-4.92-34.52-63.38-37.12-69.33,0H1458.68z"/>
</g>
</svg>
