<?xml version="1.0" encoding="UTF-8"?> <!DOCTYPE svg PUBLIC "-//W3C//DTD SVG 1.0//EN" "http://www.w3.org/TR/2001/REC-SVG-20010904/DTD/svg10.dtd"><svg xmlns="http://www.w3.org/2000/svg" xml:space="preserve" width="1115px" height="263px" version="1.0" style="shape-rendering:geometricPrecision; text-rendering:geometricPrecision; image-rendering:optimizeQuality; fill-rule:evenodd; clip-rule:evenodd" viewBox="0 0 78.57 18.54" xmlns:xlink="http://www.w3.org/1999/xlink" xmlns:xodm="http://www.corel.com/coreldraw/odm/2003"> <defs> <style type="text/css"> <![CDATA[ .fil0 {fill:#F1C40E;fill-rule:nonzero} ]]> </style> </defs> <g id="Layer_x0020_1"> <metadata id="CorelCorpID_0Corel-Layer"/> <path class="fil0" d="M78.32 14.99c0.22,0 0.31,-0.14 0.21,-0.33l-2.59 -5.78 2.43 -4.99c0.1,-0.2 0.02,-0.34 -0.2,-0.34l-1.5 0c-0.16,0 -0.26,0.07 -0.33,0.21l-2.2 4.51 0 -4.43c0,-0.19 -0.1,-0.29 -0.29,-0.29l-1.37 0c-0.18,0 -0.28,0.1 -0.28,0.29l0 10.86c0,0.19 0.1,0.29 0.28,0.29l1.37 0c0.19,0 0.29,-0.1 0.29,-0.29l0 -3.16 0.53 -1.01 1.8 4.25c0.06,0.14 0.16,0.21 0.33,0.21l1.52 0zm-12.73 -11.44c-0.16,0 -0.29,0.13 -0.29,0.29l0 8.69c0,0.39 -0.2,0.57 -0.57,0.57l-0.74 0c-0.38,0 -0.58,-0.18 -0.58,-0.57l0 -8.69c0,-0.16 -0.12,-0.29 -0.28,-0.29l-1.37 0c-0.16,0 -0.29,0.13 -0.29,0.29l0 9.09c0,1.34 0.71,2.06 2.06,2.06l1.6 0c1.35,0 2.06,-0.72 2.06,-2.06l0 -9.09c0,-0.16 -0.13,-0.29 -0.29,-0.29l-1.31 0zm-9.14 2.06c0,-1.35 -0.73,-2.06 -2.06,-2.06l-1.6 0c-1.34,0 -2.07,0.71 -2.07,2.06l0 7.32c0,1.34 0.73,2.06 2.07,2.06l1.6 0c1.33,0 2.06,-0.72 2.06,-2.06l0 -1.54c0,-0.15 -0.08,-0.23 -0.23,-0.23l-1.43 0c-0.16,0 -0.23,0.08 -0.23,0.23l0 1.14c0,0.39 -0.2,0.57 -0.57,0.57l-0.74 0c-0.37,0 -0.57,-0.18 -0.57,-0.57l0 -6.52c0,-0.37 0.18,-0.57 0.57,-0.57l0.74 0c0.37,0 0.57,0.2 0.57,0.57l0 1.14c0,0.15 0.07,0.23 0.23,0.23l1.43 0c0.15,0 0.23,-0.08 0.23,-0.23l0 -1.54zm-15.08 2.22c-0.51,0 -1.01,0.14 -1.5,0.41 -0.48,0.27 -0.97,0.72 -1.47,1.36l-1.56 -1.71c0.63,-0.93 1.34,-1.64 2.15,-2.12 0.79,-0.48 1.61,-0.72 2.46,-0.72 0.76,0 1.47,0.18 2.14,0.54 0.67,0.37 1.25,0.86 1.75,1.47 0.48,0.61 0.87,1.33 1.16,2.14 0.27,0.82 0.41,1.69 0.41,2.61 0,0.93 -0.14,1.79 -0.43,2.6 -0.3,0.81 -0.69,1.53 -1.19,2.14 -0.5,0.61 -1.09,1.1 -1.76,1.46 -0.68,0.35 -1.4,0.53 -2.16,0.53 -0.71,0 -1.38,-0.15 -2.02,-0.46 -0.65,-0.31 -1.28,-0.82 -1.89,-1.53l1.4 -1.97c0.44,0.48 0.87,0.8 1.27,0.96 0.39,0.17 0.8,0.25 1.24,0.25 0.43,0 0.84,-0.1 1.24,-0.31 0.38,-0.21 0.71,-0.49 1,-0.85 0.28,-0.35 0.51,-0.78 0.68,-1.27 0.16,-0.48 0.24,-0.99 0.24,-1.55 0,-0.55 -0.08,-1.06 -0.24,-1.54 -0.17,-0.48 -0.4,-0.91 -0.68,-1.27 -0.29,-0.36 -0.62,-0.64 -1,-0.85 -0.4,-0.21 -0.81,-0.32 -1.24,-0.32zm-3.66 -5.05c0.51,0 1.01,0.14 1.49,0.41 0.49,0.27 0.98,0.72 1.48,1.36l1.56 -1.71c-0.63,-0.94 -1.34,-1.64 -2.15,-2.12 -0.79,-0.48 -1.61,-0.72 -2.46,-0.72 -0.76,0 -1.48,0.18 -2.14,0.53 -0.67,0.37 -1.25,0.86 -1.75,1.48 -0.49,0.61 -0.87,1.32 -1.16,2.14 -0.27,0.82 -0.41,1.69 -0.41,2.61 0,0.92 0.14,1.79 0.43,2.6 0.29,0.81 0.69,1.52 1.19,2.14 0.5,0.61 1.08,1.1 1.76,1.45 0.68,0.36 1.4,0.54 2.16,0.54 0.71,0 1.38,-0.16 2.02,-0.46 0.64,-0.31 1.27,-0.82 1.89,-1.53l-1.4 -1.97c-0.45,0.47 -0.87,0.79 -1.27,0.95 -0.39,0.18 -0.81,0.26 -1.24,0.26 -0.43,0 -0.85,-0.1 -1.24,-0.31 -0.38,-0.21 -0.71,-0.49 -1,-0.85 -0.28,-0.36 -0.51,-0.78 -0.68,-1.27 -0.16,-0.48 -0.24,-1 -0.24,-1.55 0,-0.55 0.08,-1.07 0.24,-1.55 0.17,-0.48 0.4,-0.9 0.68,-1.27 0.29,-0.35 0.62,-0.64 1,-0.84 0.39,-0.21 0.81,-0.32 1.24,-0.32zm-8.88 12.21c0.23,0 0.31,-0.14 0.21,-0.33l-2.59 -5.78 2.43 -4.99c0.1,-0.2 0.02,-0.34 -0.2,-0.34l-1.5 0c-0.15,0 -0.25,0.07 -0.33,0.21l-2.2 4.51 0 -4.43c0,-0.19 -0.1,-0.29 -0.28,-0.29l-1.38 0c-0.18,0 -0.28,0.1 -0.28,0.29l0 10.86c0,0.19 0.1,0.29 0.28,0.29l1.38 0c0.18,0 0.28,-0.1 0.28,-0.29l0 -3.16 0.53 -1.01 1.8 4.25c0.06,0.14 0.16,0.21 0.33,0.21l1.52 0zm-11.18 0c0.17,0 0.22,-0.09 0.2,-0.24l-2.38 -11c-0.03,-0.14 -0.11,-0.2 -0.24,-0.2l-1.99 0c-0.13,0 -0.21,0.06 -0.24,0.2l-2.38 11c-0.04,0.15 0.03,0.24 0.19,0.24l1.53 0c0.13,0 0.2,-0.07 0.23,-0.2l0.39 -2.09 2.54 0 0.4 2.09c0.03,0.13 0.1,0.2 0.23,0.2l1.52 0zm-2.51 -3.95l-1.83 0 0.92 -4.99 0.91 4.99zm-9.41 -5.43c0,-1.35 -0.72,-2.06 -2.06,-2.06l-1.6 0c-1.34,0 -2.07,0.71 -2.07,2.06l0 7.32c0,1.34 0.73,2.06 2.07,2.06l1.6 0c1.34,0 2.06,-0.72 2.06,-2.06l0 -1.54c0,-0.15 -0.08,-0.23 -0.22,-0.23l-1.43 0c-0.16,0 -0.23,0.08 -0.23,0.23l0 1.14c0,0.39 -0.2,0.57 -0.58,0.57l-0.74 0c-0.37,0 -0.57,-0.18 -0.57,-0.57l0 -6.52c0,-0.37 0.18,-0.57 0.57,-0.57l0.74 0c0.38,0 0.58,0.2 0.58,0.57l0 1.14c0,0.15 0.07,0.23 0.23,0.23l1.43 0c0.14,0 0.22,-0.08 0.22,-0.23l0 -1.54zm0 0z"/> </g> </svg>