<svg xmlns="http://www.w3.org/2000/svg" width="140.676" height="30.048"><defs><linearGradient id="a" x1="-.019" y1=".892" x2="1.034" y2=".256" gradientUnits="objectBoundingBox"><stop offset="0" stop-color="#34591f" stop-opacity=".62"/><stop offset=".715" stop-color="#66ae3d" stop-opacity=".62"/><stop offset=".988" stop-color="#66ae3d" stop-opacity=".231"/></linearGradient></defs><path d="M37.769.416V19.84h-5.18v-7.41h-7.276v7.41h-5.179V.416h5.179v7.439h7.276V3.189C32.588.01 37.769.416 37.769.416zM57.005.416v12.016a8 8 0 0 1-.772 3.693 6.782 6.782 0 0 1-2.013 2.412 8.061 8.061 0 0 1-2.828 1.319 12.994 12.994 0 0 1-6.408 0 8.021 8.021 0 0 1-2.825-1.319 6.76 6.76 0 0 1-2.016-2.412 8 8 0 0 1-.772-3.693V.416h5.18v11.737a3.292 3.292 0 0 0 .992 2.746 4.881 4.881 0 0 0 5.291 0 3.3 3.3 0 0 0 .994-2.746v-8.76C51.826-.197 57.005.416 57.005.416zM1.716 6.23a8.261 8.261 0 0 1 1.747-3.08 7.906 7.906 0 0 1 2.97-2.01 11.292 11.292 0 0 1 4.242-.724h7.265s.585 4.505-3.29 4.505c-3.646 0-3.975-.065-3.975-.065A4.431 4.431 0 0 0 7.292 6.12a7.309 7.309 0 0 0 0 8.021 4.437 4.437 0 0 0 3.383 1.262h2.448l1.766-.046c1.168.06 2.815 1.339 3.051 4.486h-7.265a11.359 11.359 0 0 1-4.242-.72 7.916 7.916 0 0 1-2.97-2.012 8.285 8.285 0 0 1-1.744-3.068 13.559 13.559 0 0 1 0-7.812zM77.774 10.131a11.3 11.3 0 0 1 .658-3.859 9.225 9.225 0 0 1 1.972-3.232A9.386 9.386 0 0 1 83.68.82a13.263 13.263 0 0 1 9.179 0 9.358 9.358 0 0 1 3.274 2.22 9.243 9.243 0 0 1 1.975 3.232 11.625 11.625 0 0 1 0 7.714 9.243 9.243 0 0 1-1.975 3.235 9.367 9.367 0 0 1-3.274 2.22 13.3 13.3 0 0 1-9.179 0 9.394 9.394 0 0 1-3.276-2.22 9.225 9.225 0 0 1-1.972-3.235 11.274 11.274 0 0 1-.658-3.855zm15.674 0a6.489 6.489 0 0 0-.338-2.151 5.069 5.069 0 0 0-.976-1.72 4.3 4.3 0 0 0-1.625-1.139 6.45 6.45 0 0 0-4.478 0 4.3 4.3 0 0 0-1.624 1.139 5.063 5.063 0 0 0-.981 1.72 7.113 7.113 0 0 0 0 4.3 5.083 5.083 0 0 0 .981 1.721 4.31 4.31 0 0 0 1.624 1.139 6.44 6.44 0 0 0 4.478 0 6.083 6.083 0 0 0 1.625-1.139 5.3 5.3 0 0 0 1.314-3.87zM105.814 19.843L98.454.417h5.6l4.42 13.321s3.011-9.172 3.63-10.935c1.238-3.306 6.391-2.386 6.391-2.386l-7.361 19.426zM117.57 10.131a11.356 11.356 0 0 1 .657-3.859 9.139 9.139 0 0 1 5.25-5.452 13.263 13.263 0 0 1 9.179 0 9.357 9.357 0 0 1 3.274 2.22 9.217 9.217 0 0 1 1.973 3.232 11.639 11.639 0 0 1 0 7.714 9.217 9.217 0 0 1-1.973 3.235 9.365 9.365 0 0 1-3.274 2.22 13.3 13.3 0 0 1-9.179 0 9.134 9.134 0 0 1-5.25-5.455 11.332 11.332 0 0 1-.657-3.855zm15.675 0a6.608 6.608 0 0 0-.338-2.151 5.02 5.02 0 0 0-.979-1.72 4.287 4.287 0 0 0-1.622-1.139 6.449 6.449 0 0 0-4.478 0 4.29 4.29 0 0 0-1.624 1.139 5.027 5.027 0 0 0-.981 1.72 7.066 7.066 0 0 0 0 4.3 5.047 5.047 0 0 0 .981 1.721 4.3 4.3 0 0 0 1.624 1.139 6.439 6.439 0 0 0 4.478 0 4.3 4.3 0 0 0 1.622-1.139 5.04 5.04 0 0 0 .979-1.721 6.608 6.608 0 0 0 .338-2.149z" fill="#545454"/><path d="M75.826 6.23a8.12 8.12 0 0 0-1.874-3.081 8.557 8.557 0 0 0-3.193-2.01 12.951 12.951 0 0 0-4.56-.724h-7.808l.036 4.505v10.5s5.067-1.269 5.067-5.459c0-1.843.039-4 .055-5.088l2.65-.023a4.971 4.971 0 0 1 3.638 1.264 6.888 6.888 0 0 1 0 8.021 4.978 4.978 0 0 1-3.638 1.262h-2.631a9.822 9.822 0 0 0-5.178 4.44h7.808a13.029 13.029 0 0 0 4.56-.72 8.566 8.566 0 0 0 3.193-2.012 8.145 8.145 0 0 0 1.874-3.068 12.643 12.643 0 0 0 0-7.812z" fill="#66ae3d"/><path d="M1301.445 551.3l8.406-.04s5.151.115 7.8-3.5a10.133 10.133 0 0 0 1.73-4.421c.269-2.461.039-.155.039-.155s-2.153.385-5.243-1.6a5.4 5.4 0 0 1-1.946 4.635s-1.728 1-5.61.637c.002.002-2.767.701-5.176 4.444z" transform="translate(-1243.054 -531.456)" fill="url(#a)"/><path d="M4.262 29.72a3.4 3.4 0 0 1-1.574.328 2.574 2.574 0 0 1-1.953-.77A2.8 2.8 0 0 1 0 27.254a2.941 2.941 0 0 1 .826-2.172 2.826 2.826 0 0 1 2.092-.828 3.422 3.422 0 0 1 1.348.23v.922a2.4 2.4 0 0 0-1.25-.336 1.962 1.962 0 0 0-1.478.584 2.138 2.138 0 0 0-.564 1.555 2.039 2.039 0 0 0 .527 1.475 1.835 1.835 0 0 0 1.387.549 2.483 2.483 0 0 0 1.375-.375zm3.27.328a2.519 2.519 0 0 1-1.939-.785 2.884 2.884 0 0 1-.729-2.043 3.055 3.055 0 0 1 .742-2.156 2.607 2.607 0 0 1 2.012-.81 2.463 2.463 0 0 1 1.9.781 2.894 2.894 0 0 1 .721 2.043 3.065 3.065 0 0 1-.735 2.176 2.56 2.56 0 0 1-1.972.794zm.043-4.973a1.558 1.558 0 0 0-1.257.579 2.272 2.272 0 0 0-.482 1.512 2.293 2.293 0 0 0 .469 1.5 1.511 1.511 0 0 0 1.227.57 1.584 1.584 0 0 0 1.27-.543 2.265 2.265 0 0 0 .465-1.52 2.375 2.375 0 0 0-.449-1.551 1.525 1.525 0 0 0-1.243-.547zm9.711 4.879h-.922v-3.625q0-.445.055-1.09h-.016a3.763 3.763 0 0 1-.152.527l-1.672 4.188h-.641l-1.676-4.156a3.915 3.915 0 0 1-.148-.559h-.016q.031.336.031 1.1v3.615h-.859v-5.6h1.309l1.473 3.73a5.517 5.517 0 0 1 .219.641h.02q.145-.441.234-.656l1.5-3.715h1.262zm2.3-2.031v2.031h-.926v-5.6h1.7a2.251 2.251 0 0 1 1.5.449 1.566 1.566 0 0 1 .531 1.266 1.748 1.748 0 0 1-.555 1.336 2.106 2.106 0 0 1-1.5.52zm0-2.8v2.042h.6a1.33 1.33 0 0 0 .91-.277.99.99 0 0 0 .313-.781q0-.988-1.148-.988zm6.856 4.831h-3.1v-5.6h.93v4.815h2.172zm3.953 0H27.25v-5.6h3.02v.789h-2.09v1.584h1.926v.785H28.18v1.657h2.215zm5.273 0h-1.113l-1.148-2.055a2.064 2.064 0 0 1-.113-.266h-.016q-.035.086-.117.266l-1.184 2.055h-1.121l1.836-2.816-1.688-2.784h1.137l1.012 1.891q.1.188.176.375h.012q.113-.246.2-.391l1.045-1.875h1.047l-1.726 2.776zm2.707-.223v-.957a1.478 1.478 0 0 0 .307.211 2.369 2.369 0 0 0 .377.158 2.971 2.971 0 0 0 .4.1 2.124 2.124 0 0 0 .367.035 1.567 1.567 0 0 0 .873-.2.643.643 0 0 0 .287-.566.618.618 0 0 0-.1-.346 1 1 0 0 0-.268-.268 2.811 2.811 0 0 0-.4-.232q-.232-.111-.5-.232-.285-.152-.531-.309a2.286 2.286 0 0 1-.428-.346 1.446 1.446 0 0 1-.285-.428 1.393 1.393 0 0 1-.1-.559 1.289 1.289 0 0 1 .178-.686 1.5 1.5 0 0 1 .469-.48 2.149 2.149 0 0 1 .662-.281 3.144 3.144 0 0 1 .755-.091 3.059 3.059 0 0 1 1.281.2v.918a2.046 2.046 0 0 0-1.227-.344 2.2 2.2 0 0 0-.412.039 1.225 1.225 0 0 0-.367.129.8.8 0 0 0-.264.23.565.565 0 0 0-.1.34.643.643 0 0 0 .078.324.836.836 0 0 0 .229.25 2.335 2.335 0 0 0 .367.221q.217.107.5.232.293.152.553.32a2.606 2.606 0 0 1 .457.371 1.631 1.631 0 0 1 .313.451 1.325 1.325 0 0 1 .115.564 1.325 1.325 0 0 1-.635 1.2 2.062 2.062 0 0 1-.67.266 3.777 3.777 0 0 1-.8.082 3.41 3.41 0 0 1-.346-.021q-.205-.021-.42-.062a3.863 3.863 0 0 1-.406-.1 1.286 1.286 0 0 1-.309-.133zm8.516-5.377l-1.836 3.565v2.035h-.93v-2.016l-1.789-3.584h1.059l1.1 2.4q.02.043.117.324h.012a2.218 2.218 0 0 1 .129-.324l1.152-2.4zm.363 5.379v-.959a1.478 1.478 0 0 0 .307.211 2.369 2.369 0 0 0 .377.158 2.971 2.971 0 0 0 .4.1 2.124 2.124 0 0 0 .367.035 1.567 1.567 0 0 0 .873-.2.643.643 0 0 0 .287-.566.618.618 0 0 0-.1-.346 1 1 0 0 0-.268-.268 2.811 2.811 0 0 0-.4-.232q-.232-.111-.5-.232-.285-.152-.531-.309a2.286 2.286 0 0 1-.428-.346 1.446 1.446 0 0 1-.285-.428 1.393 1.393 0 0 1-.1-.559 1.289 1.289 0 0 1 .178-.686 1.5 1.5 0 0 1 .469-.48 2.149 2.149 0 0 1 .662-.281 3.144 3.144 0 0 1 .756-.091 3.059 3.059 0 0 1 1.281.2v.918a2.046 2.046 0 0 0-1.227-.344 2.2 2.2 0 0 0-.412.039 1.225 1.225 0 0 0-.367.129.8.8 0 0 0-.264.23.565.565 0 0 0-.1.34.643.643 0 0 0 .078.324.836.836 0 0 0 .229.25 2.335 2.335 0 0 0 .367.221q.217.107.5.232.293.152.553.32a2.606 2.606 0 0 1 .457.371 1.631 1.631 0 0 1 .313.451 1.325 1.325 0 0 1 .115.564 1.325 1.325 0 0 1-.635 1.2 2.062 2.062 0 0 1-.67.266 3.777 3.777 0 0 1-.8.082 3.41 3.41 0 0 1-.346-.021q-.205-.021-.42-.062a3.863 3.863 0 0 1-.406-.1 1.286 1.286 0 0 1-.31-.133zm8.207-4.59h-1.609v4.811h-.934v-4.812h-1.6v-.788h4.145zm3.965 4.811h-3.144v-5.6h3.02v.789h-2.09v1.584h1.926v.785h-1.927v1.657h2.215zm7.012 0h-.92v-3.625q0-.445.055-1.09h-.016a3.763 3.763 0 0 1-.152.527l-1.674 4.188h-.641l-1.672-4.156a3.915 3.915 0 0 1-.148-.559h-.016q.031.336.031 1.1v3.615h-.867v-5.6h1.309l1.473 3.73a5.517 5.517 0 0 1 .219.641h.02q.145-.441.234-.656l1.5-3.715h1.265zm1.121-.223v-.957a1.478 1.478 0 0 0 .307.211 2.37 2.37 0 0 0 .377.158 2.971 2.971 0 0 0 .4.1 2.124 2.124 0 0 0 .367.035 1.567 1.567 0 0 0 .873-.2.643.643 0 0 0 .287-.566.618.618 0 0 0-.1-.346 1 1 0 0 0-.268-.268 2.812 2.812 0 0 0-.4-.232q-.232-.111-.5-.232-.285-.152-.531-.309a2.286 2.286 0 0 1-.428-.346 1.446 1.446 0 0 1-.285-.428 1.393 1.393 0 0 1-.1-.559 1.289 1.289 0 0 1 .178-.686 1.5 1.5 0 0 1 .469-.48 2.149 2.149 0 0 1 .662-.281 3.144 3.144 0 0 1 .751-.091 3.059 3.059 0 0 1 1.281.2v.918a2.046 2.046 0 0 0-1.227-.344 2.2 2.2 0 0 0-.412.039 1.225 1.225 0 0 0-.367.129.8.8 0 0 0-.264.23.565.565 0 0 0-.1.34.643.643 0 0 0 .078.324.836.836 0 0 0 .229.25 2.335 2.335 0 0 0 .367.221q.217.107.5.232.293.152.553.32a2.605 2.605 0 0 1 .457.371 1.631 1.631 0 0 1 .313.451 1.325 1.325 0 0 1 .115.564 1.325 1.325 0 0 1-.635 1.2 2.062 2.062 0 0 1-.67.266 3.777 3.777 0 0 1-.8.082 3.41 3.41 0 0 1-.346-.021q-.205-.021-.42-.062a3.863 3.863 0 0 1-.406-.1 1.286 1.286 0 0 1-.305-.133zm7.766.223h-.957v-5.6h.957zm7.393 0h-.922v-3.625q0-.445.055-1.09h-.016a3.763 3.763 0 0 1-.152.527l-1.671 4.188h-.641l-1.675-4.156a3.915 3.915 0 0 1-.148-.559h-.016q.031.336.031 1.1v3.615h-.859v-5.6h1.309l1.473 3.73a5.517 5.517 0 0 1 .219.641h.02q.145-.441.234-.656l1.5-3.715h1.259zm2.3-2.031v2.031h-.92v-5.6h1.7a2.251 2.251 0 0 1 1.5.449 1.566 1.566 0 0 1 .531 1.266 1.749 1.749 0 0 1-.555 1.336 2.106 2.106 0 0 1-1.5.52zm0-2.8v2.042h.6a1.33 1.33 0 0 0 .91-.277.99.99 0 0 0 .313-.781q0-.988-1.148-.988zm6.857 4.831h-3.1v-5.6h.93v4.815h2.172zm3.953 0h-3.144v-5.6h3.02v.789h-2.086v1.584h1.926v.785h-1.926v1.657h2.215zm7.012 0h-.922v-3.625q0-.445.055-1.09h-.016a3.763 3.763 0 0 1-.152.527l-1.672 4.188h-.641l-1.674-4.156a3.915 3.915 0 0 1-.148-.559h-.016q.031.336.031 1.1v3.615h-.859v-5.6h1.309l1.473 3.73a5.517 5.517 0 0 1 .219.641h.02q.145-.441.234-.656l1.5-3.715h1.262zm4.523 0h-3.145v-5.6h3.02v.789h-2.09v1.584h1.926v.785h-1.926v1.657h2.215zm5.746 0h-1.016l-2.675-4.117a1.826 1.826 0 0 1-.168-.324h-.023a5.766 5.766 0 0 1 .031.77v3.671h-.9v-5.6h1.082l2.586 4.02q.164.25.211.344h.016a4.978 4.978 0 0 1-.039-.754v-3.61h.895zm4.98-4.812h-1.609v4.812h-.93v-4.812h-1.605v-.788h4.145zm4.841 4.812h-1.02l-.5-1.426h-2.2l-.492 1.426h-1.016l2.1-5.6h1.047zm-1.77-2.184l-.777-2.234a2.646 2.646 0 0 1-.074-.352h-.016a2.286 2.286 0 0 1-.078.352l-.77 2.234zm5.566-2.629h-1.608v4.813h-.93v-4.812h-1.605v-.788h4.145zm1.774 4.813h-.957v-5.6h.957zm3.688.094a2.519 2.519 0 0 1-1.939-.785 2.884 2.884 0 0 1-.731-2.043 3.055 3.055 0 0 1 .742-2.156 2.608 2.608 0 0 1 2.016-.8 2.463 2.463 0 0 1 1.9.781 2.894 2.894 0 0 1 .721 2.043 3.065 3.065 0 0 1-.738 2.168 2.56 2.56 0 0 1-1.971.792zm.043-4.973a1.558 1.558 0 0 0-1.252.574 2.272 2.272 0 0 0-.482 1.512 2.293 2.293 0 0 0 .469 1.5 1.511 1.511 0 0 0 1.227.57 1.584 1.584 0 0 0 1.27-.543 2.265 2.265 0 0 0 .465-1.52 2.375 2.375 0 0 0-.451-1.551 1.525 1.525 0 0 0-1.246-.542zm8.445 4.879h-1.016l-2.676-4.117a1.826 1.826 0 0 1-.168-.324h-.023a5.768 5.768 0 0 1 .031.77v3.671h-.9v-5.6h1.082l2.586 4.02q.164.25.211.344h.016a4.977 4.977 0 0 1-.039-.754v-3.61h.895z" fill="#545454"/></svg>