<svg viewBox="0 0 102.292 25" xmlns="http://www.w3.org/2000/svg"><g fill="#00c6fb"><path d="M4.423 17.629a7.686 7.686 0 01-3.282-3.224 10.388 10.388 0 01-1.135-5A10.464 10.464 0 011.141 4.39a7.765 7.765 0 013.265-3.254A10.574 10.574 0 019.439.005a11.666 11.666 0 014.443.833 6.686 6.686 0 013.024 2.211 1.423 1.423 0 01.312.859 1.467 1.467 0 01-.7 1.172 1.25 1.25 0 01-.775.235 1.913 1.913 0 01-.775-.17 1.716 1.716 0 01-.646-.481 5.181 5.181 0 00-2.044-1.474 7.835 7.835 0 00-2.841-.455 5.6 5.6 0 00-4.394 1.759 7.094 7.094 0 00-1.576 4.911 6.966 6.966 0 001.59 4.869 5.7 5.7 0 004.431 1.741 7.044 7.044 0 005.195-1.926 2.267 2.267 0 011.472-.755 1.329 1.329 0 01.854.312 1.512 1.512 0 01.594 1.145 1.493 1.493 0 01-.336.912 7.233 7.233 0 01-3.166 2.24 12.536 12.536 0 01-4.613.807 10.8 10.8 0 01-5.066-1.12zM22.784 17.93a6.43 6.43 0 01-2.731-2.331 6.249 6.249 0 01-.982-3.489 6.258 6.258 0 01.985-3.489 6.44 6.44 0 012.726-2.329 10.127 10.127 0 017.986 0 6.436 6.436 0 012.727 2.33 6.252 6.252 0 01.982 3.489 6.249 6.249 0 01-.982 3.489 6.428 6.428 0 01-2.726 2.331 10.133 10.133 0 01-7.985 0zm7.133-2.929a3.7 3.7 0 001.15-2.891 3.7 3.7 0 00-1.15-2.89 4.5 4.5 0 00-3.14-1.041 4.5 4.5 0 00-3.14 1.043 3.7 3.7 0 00-1.15 2.89 3.7 3.7 0 001.15 2.891 4.5 4.5 0 003.139 1.041A4.5 4.5 0 0029.916 15zM36.65 18.333a1.5 1.5 0 01-.437-1.146V7.033a1.5 1.5 0 01.437-1.145 1.732 1.732 0 011.24-.417 1.79 1.79 0 011.24.417 1.458 1.458 0 01.465 1.145v.625a4.518 4.518 0 011.5-1.615 3.608 3.608 0 011.965-.572 3.462 3.462 0 011.964.586 3.594 3.594 0 011.318 1.6 5.355 5.355 0 014.16-2.187 3.9 3.9 0 013.23 1.458 6.361 6.361 0 011.163 4.062v6.2a1.458 1.458 0 01-.466 1.146 1.79 1.79 0 01-1.24.416 1.732 1.732 0 01-1.24-.416 1.5 1.5 0 01-.437-1.146v-6.4a3.449 3.449 0 00-.452-1.937 1.508 1.508 0 00-1.33-.664 2.172 2.172 0 00-1.318.416 3.916 3.916 0 00-1.06 1.318v7.261a1.46 1.46 0 01-.466 1.146 1.791 1.791 0 01-1.243.416 1.733 1.733 0 01-1.241-.416 1.5 1.5 0 01-.437-1.146v-5.856q0-3.151-1.783-3.15a2.2 2.2 0 00-1.9.963 4.515 4.515 0 00-.687 2.656v5.389a1.458 1.458 0 01-.465 1.146 1.79 1.79 0 01-1.24.416 1.732 1.732 0 01-1.24-.416zM57.723 3.323a1.8 1.8 0 01-.581-1.392 1.8 1.8 0 01.581-1.394 2.187 2.187 0 011.538-.532 2.284 2.284 0 011.562.534 1.767 1.767 0 01.607 1.393 1.763 1.763 0 01-.607 1.392 2.281 2.281 0 01-1.562.534 2.183 2.183 0 01-1.538-.534zm.323 15.01a1.5 1.5 0 01-.437-1.146V7.033a1.5 1.5 0 01.437-1.145 1.733 1.733 0 011.24-.417 1.791 1.791 0 011.24.417 1.461 1.461 0 01.471 1.145v10.154a1.46 1.46 0 01-.466 1.146 1.791 1.791 0 01-1.24.416 1.733 1.733 0 01-1.24-.416zM67.545 24.399a6.424 6.424 0 01-2.649-1.64 1.268 1.268 0 01-.362-.885 1.51 1.51 0 01.62-1.172 1.3 1.3 0 01.827-.312 2.364 2.364 0 011.5.755 4.374 4.374 0 001.562.9 6.163 6.163 0 002.029.326 4.007 4.007 0 003.124-1.223 4.679 4.679 0 001.062-3.384l-.023-1.043a5.411 5.411 0 01-2.054 1.537 7.456 7.456 0 01-2.882.494 6.765 6.765 0 01-4.962-1.757 6.553 6.553 0 01-1.786-4.882 6.464 6.464 0 011.821-4.881 7.016 7.016 0 015.079-1.758 6.344 6.344 0 012.584.547 7.206 7.206 0 012.223 1.537v-.521a1.46 1.46 0 01.464-1.145 2.062 2.062 0 012.468-.013 1.473 1.473 0 01.452 1.158V17.76a7.663 7.663 0 01-.892 3.723 6.436 6.436 0 01-2.559 2.578 7.909 7.909 0 01-3.94.937 11.035 11.035 0 01-3.707-.6zm6.577-9.4a3.722 3.722 0 001.138-2.891 3.721 3.721 0 00-1.138-2.89 4.493 4.493 0 00-3.152-1.041 4.023 4.023 0 00-2.947 1.041 3.866 3.866 0 00-1.059 2.89 3.868 3.868 0 001.059 2.891 4.025 4.025 0 002.947 1.041 4.5 4.5 0 003.152-1.041zM84.473 17.93a6.43 6.43 0 01-2.726-2.331 6.249 6.249 0 01-.982-3.489 6.257 6.257 0 01.982-3.489 6.44 6.44 0 012.726-2.329 10.127 10.127 0 017.986 0 6.436 6.436 0 012.726 2.329 6.257 6.257 0 01.982 3.489 6.249 6.249 0 01-.982 3.489 6.429 6.429 0 01-2.726 2.331 10.134 10.134 0 01-7.986 0zm7.134-2.929a3.7 3.7 0 001.15-2.891 3.7 3.7 0 00-1.15-2.889 5.255 5.255 0 00-6.279 0 3.7 3.7 0 00-1.15 2.89 3.7 3.7 0 001.148 2.89 5.255 5.255 0 006.281 0zM98.725 17.916a1.847 1.847 0 01-.594-1.38 1.949 1.949 0 01.594-1.445 2.048 2.048 0 011.5-.586 2.016 2.016 0 012.067 2.031 1.865 1.865 0 01-.581 1.38 2.028 2.028 0 01-1.486.572 2.073 2.073 0 01-1.5-.572z"/></g></svg>