<svg version="1.1" id="constellation_logo" xmlns="http://www.w3.org/2000/svg" viewBox="0 0 735.8 84">
<path d="M318.2,22.4c0,6,0,11.2,0,17c4.7,0,9.3,0,13.6,0c4.3,0,8.6,0,12.9,0c0,2.2,0,3.7,0,5.6c-9.1,0-17.7,0-26.8,0
	c0,5.8,0,11,0,16.8c9.9,0,19.9,0,30,0c0.2,1.9,0.2,3.5,0.4,5.6c-12.5,0-24.6,0-36.5,0c-1.3-3.7-1.5-43.8-0.2-49.9
	c11.7,0,23.5,0,35.8,0c0.2,1.3,0.2,2.8,0.4,5C338,22.4,328.3,22.4,318.2,22.4z"/>
<path d="M202.5,59.8c1.1-1.3,2.2-2.4,3.5-3.9c1.7,1.1,3.2,2.4,4.7,3.2c5.6,3.5,11.7,5,18.1,2.6c3.5-1.3,5-3.7,5.2-6.9
	s-1.1-5.8-4.3-6.9c-3-1.1-6.3-1.9-9.3-3c-3.2-1.1-6.5-1.9-9.7-3.5c-8.6-4.1-8.6-17.3,0-22.7c7.8-4.7,20.7-3,27.6,4.1
	c-0.9,1.3-1.9,2.8-3,4.7c-5-4.5-10.4-6-16.4-5.4c-3.2,0.2-6,1.5-7.8,4.5s-1.3,6.5,1.5,8.2s6,3,9.3,4.1c2.8,1.1,6,1.5,8.8,2.6
	c9.9,3.7,12.5,14.5,5.4,22c-1.3,1.3-3,2.4-4.5,3C222.8,70.5,208.5,67.5,202.5,59.8z"/>
<path d="M57.7,24.4c-1.3,1.5-2.4,2.6-3.7,4.3c-1.9-1.3-3.5-2.6-5.2-3.7c-6.5-4.1-13.4-4.3-19.6-0.9c-7.3,3.9-10.6,10.8-10.4,19
	C19,52,24.4,60.4,34.4,62.6c5.6,1.1,10.6,0,15.3-3c1.5-0.9,2.8-1.9,4.5-3.5c1.3,1.1,2.6,2.2,3.7,3c-6.3,10.8-25.7,12.3-35.4,4.7
	C10.4,54.4,9.1,36,18.8,24.6C29,12.7,49,13.8,57.7,24.4z"/>
<path d="M714.8,54.6c0-6.3,0-12.3,0-18.6s0-12.3,0-18.8c2.2,0,3.9,0,5.8,0c0,16.6,0,32.8,0,49.2c-3.9,1.5-4.5,1.5-6.9-1.5
	c-8.8-11.2-17.7-22.4-26.3-33.7c-2.6-3.2-5.2-6.5-7.8-9.7c-0.9-1.1-1.3-2.2-2.2-3.5c5.2-1.7,6-1.5,8.6,1.9c8.6,11,17.3,22,25.9,32.8
	c0.4,0.6,1.1,1.3,1.7,1.9C714.2,54.8,714.4,54.6,714.8,54.6z"/>
<path d="M141.2,17.9c4.3-1.5,6.7-0.6,8.8,2.4c4.3,6,9.1,11.7,13.8,17.5c4.5,5.6,8.8,11.4,14,17.9c0.2-1.9,0.6-3.2,0.6-4.3
	c0-9.5,0-19,0-28.5c0-1.7,0.2-3.5,0.2-5.4c1.9,0,3.7,0,5.2,0c1.1,3.9,1.3,43.8,0.2,49.6c-2.6,1.1-4.7,0.4-6.7-1.9
	c-8.8-11.2-17.7-22.4-26.5-33.7c-2.4-3-5-6.3-7.3-9.3C142.9,20.9,142.3,19.4,141.2,17.9z"/>
<path d="M491.7,25c-1.3,2.4-1.9,3.7-2.6,5c-5.2,11.2-10.1,22.7-15.3,33.9c-1.7,4.1-2.2,4.1-7.3,2.8c2.4-5.4,4.7-10.6,7.1-16
	c4.5-10.1,9.3-20.3,13.8-30.6c0.9-1.7,1.5-3.5,3.9-3.5c2.6-0.2,4.1,1.1,5,3.5c3.2,7.3,6.7,14.7,9.9,22.2C509,48.8,512,55,515,61.5
	c0.9,1.7,1.3,3.5,2.2,5.2c-5,1.5-5.6,1.5-7.3-2.6c-5-11.2-10.1-22.2-15.1-33.5C493.8,29.1,493,27.6,491.7,25z"/>
<path d="M541.1,66.7c0-14.5,0-28.7,0-43.8c-5.6,0-10.8,0-15.8,0c-0.6-1.1-1.1-1.5-1.1-1.9c0-1.1,0-1.9,0-3.7
	c13.4-0.4,26.5-0.2,39.9-0.2c0,1.9,0,3.5,0,5.6c-5.6,0-10.8,0-16.6,0c-0.2,2.4-0.4,4.3-0.4,6c0,11.4,0,22.7,0,34.1
	C547.1,67.7,546.7,68,541.1,66.7z"/>
<path d="M277.2,67.3c-2.4,0-3.9,0-6,0c0-14.7,0-29.1,0-43.6c-5.6-1.7-11,0-16.8-1.3c0-1.5-0.2-3-0.2-5c13.4,0,26.3,0,39.1,0
	c1.1,5,0.9,5.4-3.7,5.4c-3.9,0-7.8,0-12.3,0C277.2,38,277.2,52.2,277.2,67.3z"/>
<path d="M401,61.9c0,2.2,0,3.7,0,5.4c-11.4,0-22.4,0-33.9,0c0-16.8,0-33.2,0-49.9c1.9,0,3.7,0,5.8,0c0,14.7,0,29.1,0,44.2
	C382.3,61.9,391.3,61.7,401,61.9z"/>
<path d="M424.6,61.7c9.7,0,18.6,0,27.4,0c1.7,5.2,1.5,5.8-3,5.8c-8.8,0-17.9,0-26.8,0c-1.1,0-1.9-0.2-3.2-0.4c0-16.6,0-33,0-49.9
	c1.7,0,3.2-0.2,5.4-0.2c0.9,5,0.4,9.7,0.4,14.5c0,5,0,9.9,0,14.9C424.6,51.3,424.6,56.1,424.6,61.7z"/>
<path d="M582.3,17c2.2,0.2,3.7,0.2,5.6,0.2c0,16.6,0,33,0,49.9c-1.7,0.2-3.5,0.2-5.6,0.4C582.3,50.7,582.3,34.1,582.3,17z"/>
<path d="M684,67.5c-2.6-0.2-4.1-0.2-6-0.2c0-9.9,0-19.6,0-29.8c3.5,1.9,5.8,4.1,5.8,7.6C684.2,52.2,684,59.5,684,67.5z"/>
<path d="M142,37.1c3.7,3.2,5.8,5.8,5.8,9.9c-0.2,6.5,0,12.9,0,19.2c-5.4,1.7-6.3,1.5-6.3-3c0-7.6,0-15.1,0-22.7
	C141.4,39.9,141.6,39,142,37.1z"/>
<path d="M97.4,16.2C83.1,16.2,71,27,71.3,42.3C71,57.2,81.4,68.6,96.9,68.6c15.8,0,25.7-11.7,25.9-25.9
	C123.1,27.6,112.1,16.2,97.4,16.2z M96.9,62.8c-11,0-19.4-9.1-19.4-20.5c0-10.1,7.6-20.3,19.6-20.3c11.9,0,19.6,10.1,19.4,20.5
	C116.6,53.1,109.7,62.8,96.9,62.8z"/>
<path d="M633.7,16.2c-14.9-0.2-26.5,11.4-26.3,26.5c0,14.9,11.2,26.1,25.7,25.9c16,0,26.1-12.1,25.9-26.3
	C659.6,28.5,649,16.2,633.7,16.2z M633.5,62.8c-11.2,0-19.6-9.1-19.6-20.9c-0.2-10.6,8.2-20.3,19.6-20.1
	c11.2,0.2,19.2,9.5,19.2,20.7C652.9,53.9,644,62.8,633.5,62.8z"/>
</svg>
