<svg xmlns="http://www.w3.org/2000/svg" width="491" height="94" fill-rule="evenodd" xmlns:v="https://vecta.io/nano"><path d="M116.52 65.392c-4.948-4.848-7.423-10.992-7.423-18.432s2.486-13.584 7.46-18.432 11.062-7.272 18.268-7.272c5.477 0 10.34 1.392 14.593 4.176s7.3 6.696 9.116 11.736h-12.18c-2.258-4.416-6.1-6.624-11.53-6.624-4.564 0-8.275 1.5-11.134 4.5s-4.288 6.984-4.288 11.952 1.43 8.952 4.288 11.952 6.57 4.5 11.134 4.5c5.38 0 9.224-2.208 11.53-6.624h12.18c-1.826 5.04-4.864 8.94-9.116 11.7s-9.116 4.14-14.593 4.14c-7.254 0-13.356-2.424-18.304-7.272zm65.186-33.624c5.837 0 10.726 1.872 14.665 5.616s5.91 8.688 5.91 14.832-1.982 11.112-5.945 14.904-8.876 5.688-14.737 5.688-10.738-1.896-14.63-5.688-5.837-8.76-5.837-14.904 1.97-11.088 5.91-14.832 8.828-5.616 14.665-5.616zm-.072 8.568c-2.86 0-5.273 1.032-7.242 3.096s-2.955 5.016-2.955 8.856.985 6.792 2.955 8.856 4.372 3.096 7.206 3.096 5.273-1.044 7.315-3.132 3.063-5.04 3.063-8.856-1.01-6.756-3.027-8.82-4.456-3.096-7.315-3.096zm35.423-7.992v5.976c2.546-4.368 6.678-6.552 12.395-6.552 4.564 0 8.287 1.5 11.17 4.5s4.324 7.164 4.324 12.492v23.472h-10.09V50.2c0-3.12-.793-5.508-2.378-7.164s-3.747-2.484-6.486-2.484-4.912.828-6.522 2.484-2.414 4.044-2.414 7.164v22.032h-10.16V32.344h10.16zm29.983 0h10.8l10.305 31.176 10.233-31.176h10.8l-14.7 39.888H261.74l-14.7-39.888zm55.854-10.152c0 1.728-.6 3.192-1.802 4.392s-2.654 1.8-4.36 1.8-3.16-.6-4.36-1.8-1.802-2.664-1.802-4.392.6-3.192 1.802-4.392 2.654-1.8 4.36-1.8 3.16.6 4.36 1.8 1.802 2.664 1.802 4.392zm-11.242 50.04V32.344h10.16v39.888h-10.16zm27.677-39.888v5.976c2.546-4.368 6.678-6.552 12.395-6.552 4.564 0 8.287 1.5 11.17 4.5s4.324 7.164 4.324 12.492v23.472h-10.09V50.2c0-3.12-.793-5.508-2.378-7.164s-3.747-2.484-6.486-2.484-4.912.828-6.522 2.484-2.414 4.044-2.414 7.164v22.032h-10.16V32.344h10.16zm37.55 34.848c-3.65-3.744-5.477-8.712-5.477-14.904s1.826-11.16 5.477-14.904 8.383-5.616 14.197-5.616c4.852 0 8.912 1.176 12.18 3.528s5.453 5.688 6.558 10.008h-10.954c-1.297-3.312-3.89-4.968-7.783-4.968-2.93 0-5.225 1.068-6.882 3.204s-2.486 5.052-2.486 8.748.83 6.612 2.486 8.748 3.95 3.204 6.882 3.204c3.843 0 6.438-1.68 7.783-5.04H389.8c-1.153 4.176-3.375 7.488-6.666 9.936s-7.314 3.672-12.07 3.672c-5.813 0-10.545-1.872-14.197-5.616zm54.088-35.424c5.837 0 10.63 1.812 14.377 5.436s5.62 8.46 5.62 14.508c0 1.392-.096 2.688-.288 3.888H401.56c.24 2.592 1.2 4.68 2.883 6.264s3.82 2.376 6.414 2.376c3.507 0 6.1-1.44 7.783-4.32h10.954c-1.153 3.792-3.387 6.888-6.702 9.288s-7.326 3.6-12.035 3.6c-5.813 0-10.545-1.884-14.197-5.652s-5.477-8.748-5.477-14.94 1.838-11.148 5.513-14.868 8.43-5.58 14.27-5.58zm.036 8.568c-2.546 0-4.672.792-6.378 2.376s-2.726 3.696-3.063 6.336h18.88c-.144-2.64-1.117-4.752-2.92-6.336s-3.976-2.376-6.522-2.376zm24.506 31.896v-53.28h10.16v53.28h-10.16zm28.253-.72l-15.638-39.168h11.386l10.16 28.368 10.738-28.368H491l-24.934 58.752h-10.593l8.287-19.584z" fill="#0c1932"/><path d="M67.212 55H44.357c-2.38 3.044-6.1 5-10.257 5a13.01 13.01 0 0 1-13.012-13 13.01 13.01 0 0 1 13.012-13c4.166 0 7.875 1.956 10.257 5h22.854a34.88 34.88 0 0 0-7.407-14.653C69.493 30.864 78.64 38.415 87.247 47c-8.54 8.57-17.702 16.137-27.486 22.704A34.88 34.88 0 0 0 67.212 55zM5.925 94C2.75 82.163.776 70.327 0 58.5 4.76 72.176 17.78 82 33.1 82c2.205 0 4.363-.204 6.456-.593C28.9 86.67 17.7 90.867 5.925 94zM0 35.5C.776 23.673 2.75 11.837 5.925 0 17.74 3.186 28.928 7.38 39.487 12.58A35.26 35.26 0 0 0 33.1 12C17.78 12 4.76 21.824 0 35.5z" fill="#4d00ff" fill-rule="nonzero"/></svg>