<?xml version="1.0" encoding="UTF-8"?>
<svg width="101px" height="18px" viewBox="0 0 101 18" version="1.1" xmlns="http://www.w3.org/2000/svg" xmlns:xlink="http://www.w3.org/1999/xlink">
    <!-- Generator: Sketch 59 (86127) - https://sketch.com -->
    <title>cracss</title>
    <desc>Created with Sketch.</desc>
    <g id="Home" stroke="none" stroke-width="1" fill="none" fill-rule="evenodd">
        <g id="Desktop" transform="translate(-167.000000, -48.000000)" fill-rule="nonzero">
            <g id="Nav" transform="translate(167.000000, 43.000000)">
                <g id="cracss" transform="translate(0.378906, 5.729980)">
                    <path d="M12.6450195,15.4628906 C11.9464483,15.8688171 11.1959676,16.1732574 10.3935547,16.3762207 C9.59114182,16.579184 8.72738093,16.6806641 7.80224609,16.6806641 C5.35724689,16.6806641 3.44564491,15.9443433 2.06738281,14.4716797 C0.689120713,12.9990161 0,10.959974 0,8.35449219 C0,5.73957026 0.693840718,3.69344814 2.08154297,2.21606445 C3.46924522,0.738680764 5.3855672,0 7.83056641,0 C8.68018003,0 9.49910088,0.0991201025 10.2873535,0.297363281 C11.0756062,0.49560646 11.861487,0.802406777 12.6450195,1.21777344 L12.6450195,5.01269531 C12.0408498,4.49348699 11.3776892,4.09464657 10.6555176,3.81616211 C9.933346,3.53767764 9.18522522,3.3984375 8.41113281,3.3984375 C7.06119117,3.3984375 6.02279009,3.82795794 5.29589844,4.68701172 C4.56900678,5.54606549 4.20556641,6.76854676 4.20556641,8.35449219 C4.20556641,9.94043762 4.56900678,11.1581989 5.29589844,12.0078125 C6.02279009,12.8574261 7.06119117,13.2822266 8.41113281,13.2822266 C9.21354568,13.2822266 9.96402646,13.1477064 10.6625977,12.8786621 C11.3611689,12.6096178 12.0219695,12.2013374 12.6450195,11.6538086 L12.6450195,15.4628906 Z M31.3789062,4.78613281 C30.925779,4.37076615 30.3947784,4.05924583 29.7858887,3.8515625 C29.1769989,3.64387917 28.5091182,3.54003906 27.7822266,3.54003906 C26.9042925,3.54003906 26.1372917,3.69343922 25.4812012,4.00024414 C24.8251107,4.30704906 24.3177101,4.75308952 23.9589844,5.33837891 C23.7324207,5.69710466 23.5743006,6.13134511 23.4846191,6.64111328 C23.4039058,7.09990464 23.3595141,7.77278922 23.3514429,8.65978396 L23.3500977,16.2700195 L19.2011719,16.2700195 L19.2011719,0.410644531 L23.3500977,0.410644531 L23.3500977,2.87451172 C23.7560242,1.96825719 24.3790648,1.26733646 25.2192383,0.771728516 C26.0594118,0.276120569 27.0411728,0.0283203125 28.1645508,0.0283203125 C28.7309599,0.0283203125 29.2855604,0.0967603833 29.8283691,0.233642578 C30.3711778,0.370524773 30.8880184,0.57112498 31.3789062,0.835449219 L31.3789062,4.78613281 Z M42.4521484,8.82177734 C40.9039636,8.82177734 39.8230825,9.02001755 39.2094727,9.41650391 C38.5958628,9.81299026 38.2890625,10.492671 38.2890625,11.4555664 C38.2890625,12.1730179 38.5014627,12.7441385 38.9262695,13.1689453 C39.3510763,13.5937521 39.9269169,13.8061523 40.6538086,13.8061523 C41.7488662,13.8061523 42.598467,13.3931519 43.2026367,12.5671387 C43.8068064,11.7411254 44.1088867,10.5870842 44.1088867,9.10498047 L44.1088867,8.82177734 L42.4521484,8.82177734 Z M48.2294922,7.22167969 L48.2294922,16.2700195 L44.1088867,16.2700195 L44.1088867,14.5 C43.6085587,15.1985712 42.966638,15.7366518 42.1831055,16.1142578 C41.3995729,16.4918639 40.535812,16.6806641 39.5917969,16.6806641 C37.788728,16.6806641 36.3845265,16.2039436 35.3791504,15.2504883 C34.3737743,14.297033 33.8710938,12.9659916 33.8710938,11.2573242 C33.8710938,9.40705455 34.4705344,8.04061314 35.6694336,7.15795898 C36.8683328,6.27530483 38.7232947,5.83398438 41.234375,5.83398438 L44.1088867,5.83398438 L44.1088867,5.14013672 C44.1088867,4.46988597 43.8658065,3.96248545 43.3796387,3.61791992 C42.8934709,3.2733544 42.1783901,3.10107422 41.234375,3.10107422 C40.2431591,3.10107422 39.2826381,3.22615435 38.3527832,3.47631836 C37.4229283,3.72648237 36.4529673,4.12532278 35.4428711,4.67285156 L35.4428711,1.1328125 C36.3585658,0.755206445 37.2884067,0.476726157 38.2324219,0.297363281 C39.176437,0.118000405 40.177078,0.0283203125 41.234375,0.0283203125 C43.8115363,0.0283203125 45.6216582,0.552240854 46.6647949,1.60009766 C47.7079316,2.64795446 48.2294922,4.5217964 48.2294922,7.22167969 Z" id="cra" fill="#FFFFFF"></path>
                    <path d="M65.0234375,15.4628906 C64.3248663,15.8688171 63.5743855,16.1732574 62.7719727,16.3762207 C61.9695598,16.579184 61.1057989,16.6806641 60.1806641,16.6806641 C57.7356649,16.6806641 55.8240629,15.9443433 54.4458008,14.4716797 C53.0675387,12.9990161 52.378418,10.959974 52.378418,8.35449219 C52.378418,5.73957026 53.0722587,3.69344814 54.4599609,2.21606445 C55.8476632,0.738680764 57.7639852,0 60.2089844,0 C61.058598,0 61.8775188,0.0991201025 62.6657715,0.297363281 C63.4540241,0.49560646 64.2399049,0.802406777 65.0234375,1.21777344 L65.0234375,5.01269531 C64.4192678,4.49348699 63.7561071,4.09464657 63.0339355,3.81616211 C62.311764,3.53767764 61.5636432,3.3984375 60.7895508,3.3984375 C59.4396091,3.3984375 58.4012081,3.82795794 57.6743164,4.68701172 C56.9474248,5.54606549 56.5839844,6.76854676 56.5839844,8.35449219 C56.5839844,9.94043762 56.9474248,11.1581989 57.6743164,12.0078125 C58.4012081,12.8574261 59.4396091,13.2822266 60.7895508,13.2822266 C61.5919636,13.2822266 62.3424444,13.1477064 63.0410156,12.8786621 C63.7395868,12.6096178 64.4003875,12.2013374 65.0234375,11.6538086 L65.0234375,15.4628906 Z M81.4916992,0.90625 L81.4916992,4.53125 C80.727047,4.04036213 79.9317261,3.66984175 79.1057129,3.41967773 C78.2796996,3.16951372 77.4513388,3.04443359 76.6206055,3.04443359 C75.6954706,3.04443359 74.9969099,3.17895373 74.5249023,3.44799805 C74.0528948,3.71704236 73.8168945,4.11588277 73.8168945,4.64453125 C73.8168945,5.39974336 74.8269756,6.01334399 76.847168,6.48535156 L77.0029297,6.52783203 L78.1923828,6.81103516 C79.702807,7.16976091 80.8096482,7.74796151 81.5129395,8.5456543 C82.2162307,9.34334709 82.5678711,10.4218682 82.5678711,11.78125 C82.5678711,13.4143962 82.0321505,14.6392375 80.9606934,15.4558105 C79.8892362,16.2723836 78.2773545,16.6806641 76.125,16.6806641 C75.1715447,16.6806641 74.1945037,16.598064 73.1938477,16.4328613 C72.1931916,16.2676587 71.1783906,16.0198584 70.1494141,15.6894531 L70.1494141,12.0644531 C71.0651087,12.5836615 71.9973097,12.9801419 72.9460449,13.2539062 C73.8947801,13.5276706 74.8128211,13.6645508 75.7001953,13.6645508 C76.6725309,13.6645508 77.4088517,13.5229506 77.9091797,13.2397461 C78.4095077,12.9565416 78.659668,12.5459011 78.659668,12.0078125 C78.659668,11.479164 78.4826678,11.0732436 78.1286621,10.7900391 C77.7746564,10.5068345 76.9321356,10.2047542 75.6010742,9.88378906 L74.4541016,9.62890625 C72.8681561,9.2701805 71.7117549,8.70849992 70.9848633,7.94384766 C70.2579716,7.1791954 69.8945312,6.15495434 69.8945312,4.87109375 C69.8945312,3.34178923 70.4467718,2.152348 71.5512695,1.30273438 C72.6557672,0.453120752 74.2086488,0.0283203125 76.2099609,0.0283203125 C77.1067753,0.0283203125 78.0012162,0.101480388 78.8933105,0.247802734 C79.7854049,0.394125081 80.6515257,0.613605308 81.4916992,0.90625 Z M98.9511719,0.90625 L98.9511719,4.53125 C98.1865196,4.04036213 97.3911988,3.66984175 96.5651855,3.41967773 C95.7391723,3.16951372 94.9108114,3.04443359 94.0800781,3.04443359 C93.1549433,3.04443359 92.4563826,3.17895373 91.984375,3.44799805 C91.5123674,3.71704236 91.2763672,4.11588277 91.2763672,4.64453125 C91.2763672,5.39974336 92.2864482,6.01334399 94.3066406,6.48535156 L94.4624023,6.52783203 L95.6518555,6.81103516 C97.1622797,7.16976091 98.2691208,7.74796151 98.9724121,8.5456543 C99.6757034,9.34334709 100.027344,10.4218682 100.027344,11.78125 C100.027344,13.4143962 99.4916232,14.6392375 98.420166,15.4558105 C97.3487088,16.2723836 95.7368272,16.6806641 93.5844727,16.6806641 C92.6310174,16.6806641 91.6539764,16.598064 90.6533203,16.4328613 C89.6526643,16.2676587 88.6378632,16.0198584 87.6088867,15.6894531 L87.6088867,12.0644531 C88.5245814,12.5836615 89.4567824,12.9801419 90.4055176,13.2539062 C91.3542528,13.5276706 92.2722937,13.6645508 93.159668,13.6645508 C94.1320036,13.6645508 94.8683243,13.5229506 95.3686523,13.2397461 C95.8689804,12.9565416 96.1191406,12.5459011 96.1191406,12.0078125 C96.1191406,11.479164 95.9421404,11.0732436 95.5881348,10.7900391 C95.2341291,10.5068345 94.3916082,10.2047542 93.0605469,9.88378906 L91.9135742,9.62890625 C90.3276288,9.2701805 89.1712276,8.70849992 88.4443359,7.94384766 C87.7174443,7.1791954 87.3540039,6.15495434 87.3540039,4.87109375 C87.3540039,3.34178923 87.9062445,2.152348 89.0107422,1.30273438 C90.1152399,0.453120752 91.6681215,0.0283203125 93.6694336,0.0283203125 C94.566248,0.0283203125 95.4606889,0.101480388 96.3527832,0.247802734 C97.2448775,0.394125081 98.1109984,0.613605308 98.9511719,0.90625 Z" id="css" fill="#282828"></path>
                </g>
            </g>
        </g>
    </g>
</svg>