<svg width="394" height="121" viewBox="0 0 394 121" fill="none" xmlns="http://www.w3.org/2000/svg">
<path d="M280.157 8.52118C259.74 8.52118 243.187 28.798 243.187 53.8078H254.812C254.812 36.663 266.158 22.7619 280.157 22.7619C294.151 22.7619 305.497 36.663 305.497 53.8078H317.127C317.127 28.798 300.573 8.52118 280.157 8.52118Z" fill="#00AA55"/>
<path d="M280.162 55.0969C284.508 55.0969 288.031 51.1235 288.031 46.222C288.031 41.3205 284.508 37.3471 280.162 37.3471C275.815 37.3471 272.292 41.3205 272.292 46.222C272.292 51.1235 275.815 55.0969 280.162 55.0969Z" fill="#285177"/>
<path d="M251.401 43.0341H50.4151V55.0969H251.401V43.0341Z" fill="#00AA55"/>
<path d="M378.707 43.0341H308.978V55.0969H378.707V43.0341Z" fill="#00AA55"/>
<path d="M205.332 43.2901L217.549 29.7613C217.549 29.7613 222.203 23.004 228.602 29.7613L239.073 43.2901H205.332Z" fill="#00AA55"/>
<path d="M170.745 43.2901L182.961 29.7613C182.961 29.7613 187.615 23.004 194.014 29.7613L204.485 43.2901H170.745Z" fill="#00AA55"/>
<path d="M137.005 43.2901L149.221 29.7613C149.221 29.7613 153.875 23.004 160.274 29.7613L170.745 43.2901H137.005Z" fill="#00AA55"/>
<path d="M107.234 43.2901L119.45 29.7613C119.45 29.7613 124.104 23.004 130.503 29.7613L140.974 43.2901H107.234Z" fill="#00AA55"/>
<path d="M254.812 53.8124C254.812 53.8124 254.114 55.0969 251.401 55.0969V53.8124H254.812Z" fill="#00AA55"/>
<path d="M305.567 53.8124C305.567 53.8124 306.265 55.0969 308.978 55.0969V53.8124H305.567Z" fill="#00AA55"/>
<path d="M70.4267 96.7023V111.799H59.9602V70.3103H72.6559C83.1829 70.3103 88.451 74.3964 88.451 82.5685C88.451 87.376 86.259 91.0944 81.8798 93.7192L93.17 111.795H81.298L73.0794 96.6976H70.4267V96.7023ZM70.4267 88.2742H72.3859C76.0439 88.2742 77.8728 86.5429 77.8728 83.0805C77.8728 80.223 76.0811 78.7943 72.493 78.7943H70.4267V88.2742V88.2742Z" fill="#00AA55"/>
<path d="M132.942 91.0013C132.942 97.982 131.346 103.292 128.148 106.922C124.946 110.557 120.269 112.372 114.103 112.372C108.025 112.372 103.362 110.543 100.123 106.894C96.8792 103.241 95.2596 97.9262 95.2596 90.9454C95.2596 84.0438 96.8698 78.7663 100.095 75.127C103.32 71.4877 108.006 69.6634 114.154 69.6634C120.321 69.6634 124.993 71.4691 128.172 75.0851C131.355 78.6965 132.942 84.0019 132.942 91.0013ZM106.285 91.0013C106.285 99.0245 108.891 103.031 114.103 103.031C116.751 103.031 118.72 102.059 119.999 100.109C121.279 98.1635 121.921 95.1246 121.921 90.9966C121.921 86.8547 121.27 83.7925 119.976 81.8146C118.678 79.8367 116.737 78.8501 114.159 78.8501C108.909 78.8547 106.285 82.9036 106.285 91.0013Z" fill="#00AA55"/>
<path d="M157.193 78.9106C154.699 78.9106 152.758 80.0042 151.362 82.1915C149.966 84.3742 149.267 87.3899 149.267 91.2293C149.267 99.2153 152.102 103.204 157.775 103.204C159.487 103.204 161.149 102.948 162.759 102.436C164.365 101.924 165.979 101.31 167.608 100.593V110.073C164.374 111.608 160.721 112.372 156.639 112.372C150.789 112.372 146.308 110.557 143.19 106.922C140.071 103.292 138.512 98.0379 138.512 91.1734C138.512 86.8779 139.266 83.1037 140.779 79.8506C142.291 76.5976 144.465 74.0985 147.299 72.344C150.133 70.5941 153.47 69.7192 157.3 69.7192C161.488 69.7192 165.491 70.6919 169.307 72.6418L166.1 81.4655C164.667 80.7488 163.238 80.1438 161.81 79.6505C160.372 79.1572 158.836 78.9106 157.193 78.9106Z" fill="#00AA55"/>
<path d="M211.415 91.0013C211.415 97.982 209.819 103.292 206.621 106.922C203.42 110.557 198.743 112.372 192.576 112.372C186.498 112.372 181.835 110.543 178.596 106.894C175.352 103.241 173.733 97.9262 173.733 90.9454C173.733 84.0438 175.343 78.7663 178.568 75.127C181.793 71.4877 186.48 69.6634 192.627 69.6634C198.794 69.6634 203.466 71.4691 206.645 75.0851C209.823 78.6965 211.415 84.0019 211.415 91.0013ZM184.753 91.0013C184.753 99.0245 187.359 103.031 192.572 103.031C195.22 103.031 197.188 102.059 198.468 100.109C199.748 98.1635 200.39 95.1246 200.39 90.9966C200.39 86.8547 199.738 83.7925 198.445 81.8146C197.146 79.8367 195.206 78.8501 192.627 78.8501C187.378 78.8547 184.753 82.9036 184.753 91.0013Z" fill="#00AA55"/>
<path d="M251.298 90.1776C251.298 97.1025 249.521 102.436 245.96 106.182C242.4 109.928 237.397 111.804 230.947 111.804H218.414V70.3149H231.822C238.04 70.3149 242.842 72.0183 246.226 75.4249C249.609 78.8268 251.298 83.7459 251.298 90.1776ZM240.436 90.5731C240.436 86.7709 239.734 83.9507 238.328 82.1171C236.923 80.2835 234.791 79.3667 231.929 79.3667H228.881V102.608H231.212C234.396 102.608 236.727 101.621 238.207 99.6435C239.687 97.6656 240.436 94.6406 240.436 90.5731Z" fill="#00AA55"/>
<path d="M282.014 111.799L280.106 104.023H267.517L265.558 111.799H254.053L266.693 70.1427H280.66L293.458 111.799H282.014ZM277.932 94.8314L276.262 88.0228C275.875 86.5103 275.401 84.551 274.842 82.1496C274.284 79.7482 273.921 78.0263 273.744 76.9839C273.586 77.9519 273.269 79.5388 272.804 81.7494C272.338 83.96 271.296 88.3253 269.69 94.8314H277.932Z" fill="#00AA55"/>
<path d="M297.651 111.799V70.3103H308.168V111.799H297.651Z" fill="#00AA55"/>
<path d="M316.545 111.799V70.3103H327.012V102.748H341.932V111.799H316.545Z" fill="#00AA55"/>
<path d="M361.967 85.6959L368.645 70.3149H379.987L367.24 95.5993V111.804H356.689V95.939L343.942 70.3149H355.34L361.967 85.6959Z" fill="#00AA55"/>
<path d="M50.4151 43.0341C50.4151 43.0341 13.9615 45.375 13.9615 78.5336C13.9615 111.692 54.2964 109.961 54.2964 109.961L54.101 96.5812C54.101 96.5812 26.4152 104.144 26.4664 79.3574C26.5176 54.571 50.6106 55.2644 50.6106 55.2644" fill="#00AA55"/>
</svg>
