<svg style="width:auto; height:100%" viewBox="0 0 910 149" version="1.1" xmlns="http://www.w3.org/2000/svg" xmlns:xlink="http://www.w3.org/1999/xlink">
    <g stroke="none" stroke-width="1" fill="none" fill-rule="evenodd">
        <g id="cygnet" fill-rule="nonzero">
            <g id="icon">
                <g id="#010204ff" fill="#FFFFFF">
                    <path d="M51.2430436,4.27025361 C66.4075725,-0.523659421 83.0836957,-1.07431159 98.3076086,3.7789855 C98.8258696,3.95173914 99.3495289,4.11909421 99.86779,4.28644928 C100.585797,4.54018115 101.303804,4.78311593 102.021811,5.03144928 C103.133913,5.45253622 104.22442,5.92221014 105.331123,6.37028986 C105.692826,6.53224639 106.059928,6.68880436 106.432428,6.84536232 C107.749674,7.45 109.050725,8.09242754 110.400362,8.6214855 C110.529928,9.51224639 110.605507,10.4084058 110.605507,11.3045652 C110.589311,27.2572826 110.600109,43.2153986 110.600109,59.168116 C109.909094,59.2167029 109.223478,59.2544928 108.532464,59.2922825 C106.103116,59.2221014 103.673768,59.2922825 101.24442,59.2328986 L101.201232,59.5298189 C98.3939854,59.5838043 95.6029347,59.4218479 92.811884,59.26529 C90.4041304,59.5946014 87.9963768,59.4272464 85.5886232,59.1789132 L85.5292393,59.5352175 C85.1459421,59.5352175 84.3739493,59.5352175 83.9852536,59.5352175 L83.9312682,59.2436957 C82.8569564,59.2544928 81.782645,59.2544928 80.7083332,59.2436957 L80.6597464,59.5352175 C79.8607607,59.5136232 79.0725725,59.4596378 78.2789854,59.3786593 C77.3936232,59.2490943 76.4974639,59.2922825 75.6175,59.4542393 C74.16529,59.5352175 72.7076811,59.5946014 71.2716668,59.8429347 C67.05,61.0576086 63.5139493,64.0484057 61.3437318,67.8381885 C61.09,68.4482246 60.8308696,69.0528622 60.5771378,69.6628986 C59.0439493,73.7496014 59.2275,78.4895289 61.2249639,82.3818839 C63.6867029,87.105616 68.6155797,90.5013043 73.9439493,90.9223914 C76.2815218,91.1221378 78.6298914,91.0303622 80.9782607,91.0465579 C103.587391,91.0519564 126.20192,91.0303622 148.816449,91.057355 C148.006667,94.8471378 146.700217,98.5019564 145.318189,102.113587 C144.373442,104.505145 143.261341,106.815725 142.149239,109.131703 C133.527754,125.581087 118.34163,138.391848 100.893515,144.610978 C99.1119928,145.204819 97.3196739,145.766268 95.5057607,146.241341 C94.6203986,146.478877 93.7296378,146.662428 92.8496739,146.899964 C91.9535146,147.067319 91.0519564,147.240072 90.1719928,147.477609 C89.0760868,147.601775 87.969384,147.693551 86.9004711,147.990471 C80.46,148.843442 73.9547464,148.929819 67.4710868,148.557319 C66.2294203,148.21721 64.9391668,148.152428 63.6705072,148.049855 C62.6069928,147.752935 61.5164854,147.62337 60.4313768,147.493804 C58.1153986,146.883768 55.7346378,146.489674 53.4834421,145.6475 C53.1865218,145.582717 52.5980797,145.447754 52.3011593,145.382971 C45.3694203,143.104783 38.8425725,139.714493 32.8015943,135.638587 C24.0397464,129.624601 16.3738044,121.899275 10.8942754,112.759529 C9.86855072,111.037391 8.94,109.25587 8.03844203,107.468949 C4.55637682,100.31587 2.19181159,92.6283332 1.06351449,84.7518479 C-1.39282609,69.0150725 2.01905797,52.689855 9.58782607,38.7615943 C10.3112319,37.5361232 11.0292391,36.3106521 11.7688406,35.0959782 C19.3376087,23.6780435 29.7676087,14.0740217 42.05471,7.94666668 C42.6377536,7.69293479 43.2153986,7.42840579 43.7930436,7.17467393 C44.8241668,6.71039854 45.85529,6.25692029 46.8918115,5.81423914 C47.6530072,5.54971014 48.4088043,5.26358696 49.17,4.99905797 C49.855616,4.75072464 50.5520289,4.51318839 51.2430436,4.27025361 Z" id="Shape"></path>
                </g>
                <g id="#d55631ff" transform="translate(125.000000, 21.000000)" fill="#D55631">
                    <path d="M0.412075472,0.00157076654 C2.39753002,1.27797619 3.80500857,3.17923281 5.37303603,4.89356812 C13.8500172,14.2396329 20.39506,25.492295 23.5471698,37.7383103 C15.8194168,37.8344412 8.09166381,37.8344412 0.363910807,37.7596726 C0.390668954,25.1718585 0.288987993,12.5893849 0.412075472,0.00157076654 Z" id="Shape"></path>
                </g>
            </g>
            <path d="M221.44426,114.678 C225.662926,114.678 229.938093,113.962333 234.26976,112.531 C238.601426,111.099667 242.51876,108.990333 246.02176,106.203 C249.52476,103.415667 252.104926,100.025667 253.76226,96.033 L253.76226,96.033 L243.25326,90.044 C241.89726,93.208 240.03276,95.7505 237.65976,97.6715 C235.28676,99.5925 232.706593,101.005 229.91926,101.909 C227.131926,102.813 224.457593,103.265 221.89626,103.265 C218.129593,103.265 214.66426,102.474 211.50026,100.892 C208.33626,99.31 205.605426,97.1441667 203.30776,94.3945 C201.010093,91.6448333 199.220926,88.4808333 197.94026,84.9025 C196.659593,81.3241667 196.01926,77.614 196.01926,73.772 C196.01926,70.3066667 196.565426,66.8413333 197.65776,63.376 C198.750093,59.9106667 200.36976,56.7843333 202.51676,53.997 C204.66376,51.2096667 207.31926,48.9685 210.48326,47.2735 C213.64726,45.5785 217.338593,44.731 221.55726,44.731 C224.118593,44.731 226.736426,45.1076667 229.41076,45.861 C232.085093,46.6143333 234.571093,47.9326667 236.86876,49.816 C239.166426,51.6993333 241.068593,54.2606667 242.57526,57.5 L242.57526,57.5 L252.51926,50.833 C249.957926,45.7103333 246.040593,41.5105 240.76726,38.2335 C235.493926,34.9565 229.24126,33.318 222.00926,33.318 C215.90726,33.318 210.445593,34.4668333 205.62426,36.7645 C200.802926,39.0621667 196.716093,42.1508333 193.36376,46.0305 C190.011426,49.9101667 187.468926,54.2041667 185.73626,58.9125 C184.003593,63.6208333 183.13726,68.4233333 183.13726,73.32 C183.13726,78.3673333 184.078926,83.3581667 185.96226,88.2925 C187.845593,93.2268333 190.48226,97.6715 193.87226,101.6265 C197.26226,105.5815 201.292593,108.7455 205.96326,111.1185 C210.633926,113.4915 215.79426,114.678 221.44426,114.678 Z M272.061592,139.651 C275.225592,139.651 277.975259,139.123667 280.310592,138.069 C282.645926,137.014333 284.604592,135.564167 286.186592,133.7185 C287.768592,131.872833 288.973926,129.857667 289.802592,127.673 L289.802592,127.673 L316.583592,54.901 L304.605592,54.901 L288.559592,101.344 L270.479592,54.901 L257.484592,54.901 L281.779592,114 C280.348259,117.992667 279.142926,121.043667 278.163592,123.153 C277.184259,125.262333 276.223759,126.7125 275.282092,127.5035 C274.340426,128.2945 273.229259,128.69 271.948592,128.69 C271.270592,128.69 270.385426,128.595833 269.293092,128.4075 C268.200759,128.219167 267.089592,128.049667 265.959592,127.899 L265.959592,127.899 L265.959592,138.747 C267.164926,139.048333 268.257259,139.274333 269.236592,139.425 C270.215926,139.575667 271.157592,139.651 272.061592,139.651 Z M348.580295,139.199 C354.531629,139.199 359.880295,138.144333 364.626295,136.035 C369.372295,133.925667 373.120129,130.874667 375.869795,126.882 C378.619462,122.889333 379.994295,118.030333 379.994295,112.305 L379.994295,112.305 L379.994295,54.901 L369.033295,54.901 L369.033295,66.088 C366.697962,62.472 363.741129,59.534 360.162795,57.274 C356.584462,55.014 352.422295,53.884 347.676295,53.884 C343.608295,53.884 339.916962,54.675 336.602295,56.257 C333.287629,57.839 330.406129,60.0425 327.957795,62.8675 C325.509462,65.6925 323.607295,68.9506667 322.251295,72.642 C320.895295,76.3333333 320.217295,80.2883333 320.217295,84.507 C320.217295,88.4996667 320.876462,92.304 322.194795,95.92 C323.513129,99.536 325.358795,102.737667 327.731795,105.525 C330.104795,108.312333 332.948629,110.515833 336.263295,112.1355 C339.577962,113.755167 343.231629,114.565 347.224295,114.565 C351.292295,114.565 355.171962,113.566833 358.863295,111.5705 C362.554629,109.574167 365.454962,106.805667 367.564295,103.265 L367.564295,103.265 L367.564295,112.305 C367.564295,116.222333 366.697962,119.4805 364.965295,122.0795 C363.232629,124.6785 360.916129,126.5995 358.015795,127.8425 C355.115462,129.0855 351.970295,129.707 348.580295,129.707 C344.512295,129.707 340.689129,128.878333 337.110795,127.221 C333.532462,125.563667 330.613295,123.153 328.353295,119.989 L328.353295,119.989 L321.347295,126.543 C324.360629,130.460333 328.014295,133.549 332.308295,135.809 C336.602295,138.069 342.026295,139.199 348.580295,139.199 Z M351.292295,104.508 C348.730962,104.508 346.320295,103.9995 344.060295,102.9825 C341.800295,101.9655 339.841629,100.534167 338.184295,98.6885 C336.526962,96.8428333 335.227462,94.7523333 334.285795,92.417 C333.344129,90.0816667 332.873295,87.558 332.873295,84.846 C332.873295,82.2846667 333.287629,79.7986667 334.116295,77.388 C334.944962,74.9773333 336.112629,72.8115 337.619295,70.8905 C339.125962,68.9695 340.952795,67.4251667 343.099795,66.2575 C345.246795,65.0898333 347.676295,64.506 350.388295,64.506 C352.723629,64.506 355.021295,65.0333333 357.281295,66.088 C359.541295,67.1426667 361.575295,68.6305 363.383295,70.5515 C365.191295,72.4725 366.584962,74.7136667 367.564295,77.275 L367.564295,77.275 L367.564295,92.756 C367.112295,94.338 366.358962,95.8258333 365.304295,97.2195 C364.249629,98.6131667 362.987795,99.8561667 361.518795,100.9485 C360.049795,102.040833 358.448962,102.907167 356.716295,103.5475 C354.983629,104.187833 353.175629,104.508 351.292295,104.508 Z M407.335812,114 L407.335812,78.857 C408.164479,76.145 409.520479,73.7531667 411.403812,71.6815 C413.287145,69.6098333 415.415312,67.9713333 417.788312,66.766 C420.161312,65.5606667 422.553145,64.958 424.963812,64.958 C428.429145,64.958 431.046979,66.2386667 432.817312,68.8 C434.587645,71.3613333 435.472812,75.3916667 435.472812,80.891 L435.472812,80.891 L435.472812,114 L447.902812,114 L447.902812,77.953 C447.902812,74.7136667 447.657979,71.6438333 447.168312,68.7435 C446.678645,65.8431667 445.774645,63.2818333 444.456312,61.0595 C443.137979,58.8371667 441.329979,57.0856667 439.032312,55.805 C436.734645,54.5243333 433.815479,53.884 430.274812,53.884 C426.809479,53.884 423.532479,54.4113333 420.443812,55.466 C417.355145,56.5206667 414.586645,58.0085 412.138312,59.9295 C409.689979,61.8505 407.712479,64.1293333 406.205812,66.766 L406.205812,66.766 L406.205812,54.901 L394.905812,54.901 L394.905812,114 L407.335812,114 Z M489.112291,115.13 C493.255624,115.13 497.097624,114.470833 500.638291,113.1525 C504.178958,111.834167 507.248791,110.026167 509.847791,107.7285 C512.446791,105.430833 514.386624,102.850667 515.667291,99.988 L515.667291,99.988 L505.045291,96.937 C503.990624,99.649 501.975458,101.833667 498.999791,103.491 C496.024124,105.148333 492.878958,105.977 489.564291,105.977 C486.550958,105.977 483.725958,105.2425 481.089291,103.7735 C478.452624,102.3045 476.286791,100.2705 474.591791,97.6715 C472.896791,95.0725 471.936291,92.0403333 471.710291,88.575 L471.710291,88.575 L519.057291,88.575 C519.132624,88.0476667 519.207958,87.3885 519.283291,86.5975 C519.358624,85.8065 519.396291,84.959 519.396291,84.055 C519.396291,78.7816667 518.153291,73.8473333 515.667291,69.252 C513.181291,64.6566667 509.697124,60.9465 505.214791,58.1215 C500.732458,55.2965 495.402624,53.884 489.225291,53.884 C483.047958,53.884 477.661624,55.2965 473.066291,58.1215 C468.470958,60.9465 464.892624,64.6755 462.331291,69.3085 C459.769958,73.9415 458.489291,79.0453333 458.489291,84.62 C458.489291,88.7633333 459.223791,92.6618333 460.692791,96.3155 C462.161791,99.9691667 464.252291,103.2085 466.964291,106.0335 C469.676291,108.8585 472.896791,111.080833 476.625791,112.7005 C480.354791,114.320167 484.516958,115.13 489.112291,115.13 Z M507.079291,80.326 L471.371291,80.326 C471.597291,76.936 472.538958,73.9415 474.196291,71.3425 C475.853624,68.7435 477.981791,66.7095 480.580791,65.2405 C483.179791,63.7715 486.023624,63.037 489.112291,63.037 C492.276291,63.037 495.157791,63.7715 497.756791,65.2405 C500.355791,66.7095 502.502791,68.7435 504.197791,71.3425 C505.892791,73.9415 506.853291,76.936 507.079291,80.326 L507.079291,80.326 Z M546.389956,114.904 C548.49929,114.904 550.552123,114.678 552.548456,114.226 C554.54479,113.774 556.333956,113.246667 557.915956,112.644 C559.497956,112.041333 560.81629,111.476333 561.870956,110.949 L561.870956,110.949 L559.271956,101.118 C558.518623,101.494667 557.350956,101.984333 555.768956,102.587 C554.186956,103.189667 552.529623,103.491 550.796956,103.491 C549.06429,103.491 547.614123,103.001333 546.446456,102.022 C545.27879,101.042667 544.619623,99.536 544.468956,97.502 L544.468956,97.502 L544.468956,64.506 L557.350956,64.506 L557.350956,54.901 L544.468956,54.901 L544.468956,35.465 L532.038956,35.465 L532.038956,54.901 L524.241956,54.901 L524.241956,64.506 L532.038956,64.506 L532.038956,101.457 C532.038956,104.621 532.698123,107.201167 534.016456,109.1975 C535.33479,111.193833 537.08629,112.644 539.270956,113.548 C541.455623,114.452 543.828623,114.904 546.389956,114.904 Z M600.552247,114 C608.462247,114 615.355247,112.342667 621.231247,109.028 C627.107247,105.713333 631.64608,101.042667 634.847747,95.016 C638.049414,88.9893333 639.650247,81.908 639.650247,73.772 C639.650247,66.3893333 638.20008,59.6658333 635.299747,53.6015 C632.399414,47.5371667 628.048914,42.7158333 622.248247,39.1375 C616.44758,35.5591667 609.21558,33.77 600.552247,33.77 L600.552247,33.77 L572.076247,33.77 L572.076247,114 L600.552247,114 Z M600.552247,102.813 L584.732247,102.813 L584.732247,44.957 L600.552247,44.957 C606.126914,44.957 610.85408,46.1811667 614.733747,48.6295 C618.613414,51.0778333 621.58908,54.4678333 623.660747,58.7995 C625.732414,63.1311667 626.768247,68.122 626.768247,73.772 C626.768247,79.2713333 625.751247,84.2056667 623.717247,88.575 C621.683247,92.9443333 618.726414,96.4096667 614.846747,98.971 C610.96708,101.532333 606.202247,102.813 600.552247,102.813 L600.552247,102.813 Z M663.719247,45.183 L663.719247,31.51 L651.289247,31.51 L651.289247,45.183 L663.719247,45.183 Z M663.719247,114 L663.719247,54.901 L651.289247,54.901 L651.289247,114 L663.719247,114 Z M703.390983,139.199 C709.342317,139.199 714.690983,138.144333 719.436983,136.035 C724.182983,133.925667 727.930817,130.874667 730.680483,126.882 C733.43015,122.889333 734.804983,118.030333 734.804983,112.305 L734.804983,112.305 L734.804983,54.901 L723.843983,54.901 L723.843983,66.088 C721.50865,62.472 718.551817,59.534 714.973483,57.274 C711.39515,55.014 707.232983,53.884 702.486983,53.884 C698.418983,53.884 694.72765,54.675 691.412983,56.257 C688.098317,57.839 685.216817,60.0425 682.768483,62.8675 C680.32015,65.6925 678.417983,68.9506667 677.061983,72.642 C675.705983,76.3333333 675.027983,80.2883333 675.027983,84.507 C675.027983,88.4996667 675.68715,92.304 677.005483,95.92 C678.323817,99.536 680.169483,102.737667 682.542483,105.525 C684.915483,108.312333 687.759317,110.515833 691.073983,112.1355 C694.38865,113.755167 698.042317,114.565 702.034983,114.565 C706.102983,114.565 709.98265,113.566833 713.673983,111.5705 C717.365317,109.574167 720.26565,106.805667 722.374983,103.265 L722.374983,103.265 L722.374983,112.305 C722.374983,116.222333 721.50865,119.4805 719.775983,122.0795 C718.043317,124.6785 715.726817,126.5995 712.826483,127.8425 C709.92615,129.0855 706.780983,129.707 703.390983,129.707 C699.322983,129.707 695.499817,128.878333 691.921483,127.221 C688.34315,125.563667 685.423983,123.153 683.163983,119.989 L683.163983,119.989 L676.157983,126.543 C679.171317,130.460333 682.824983,133.549 687.118983,135.809 C691.412983,138.069 696.836983,139.199 703.390983,139.199 Z M706.102983,104.508 C703.54165,104.508 701.130983,103.9995 698.870983,102.9825 C696.610983,101.9655 694.652317,100.534167 692.994983,98.6885 C691.33765,96.8428333 690.03815,94.7523333 689.096483,92.417 C688.154817,90.0816667 687.683983,87.558 687.683983,84.846 C687.683983,82.2846667 688.098317,79.7986667 688.926983,77.388 C689.75565,74.9773333 690.923317,72.8115 692.429983,70.8905 C693.93665,68.9695 695.763483,67.4251667 697.910483,66.2575 C700.057483,65.0898333 702.486983,64.506 705.198983,64.506 C707.534317,64.506 709.831983,65.0333333 712.091983,66.088 C714.351983,67.1426667 716.385983,68.6305 718.193983,70.5515 C720.001983,72.4725 721.39565,74.7136667 722.374983,77.275 L722.374983,77.275 L722.374983,92.756 C721.922983,94.338 721.16965,95.8258333 720.114983,97.2195 C719.060317,98.6131667 717.798483,99.8561667 716.329483,100.9485 C714.860483,102.040833 713.25965,102.907167 711.526983,103.5475 C709.794317,104.187833 707.986317,104.508 706.102983,104.508 Z M762.1465,45.183 L762.1465,31.51 L749.7165,31.51 L749.7165,45.183 L762.1465,45.183 Z M762.1465,114 L762.1465,54.901 L749.7165,54.901 L749.7165,114 L762.1465,114 Z M794.473236,114.904 C796.58257,114.904 798.635403,114.678 800.631736,114.226 C802.62807,113.774 804.417236,113.246667 805.999236,112.644 C807.581236,112.041333 808.89957,111.476333 809.954236,110.949 L809.954236,110.949 L807.355236,101.118 C806.601903,101.494667 805.434236,101.984333 803.852236,102.587 C802.270236,103.189667 800.612903,103.491 798.880236,103.491 C797.14757,103.491 795.697403,103.001333 794.529736,102.022 C793.36207,101.042667 792.702903,99.536 792.552236,97.502 L792.552236,97.502 L792.552236,64.506 L805.434236,64.506 L805.434236,54.901 L792.552236,54.901 L792.552236,35.465 L780.122236,35.465 L780.122236,54.901 L772.325236,54.901 L772.325236,64.506 L780.122236,64.506 L780.122236,101.457 C780.122236,104.621 780.781403,107.201167 782.099736,109.1975 C783.41807,111.193833 785.16957,112.644 787.354236,113.548 C789.538903,114.452 791.911903,114.904 794.473236,114.904 Z M834.623527,115.13 C838.691527,115.13 842.72186,114.226 846.714527,112.418 C850.707194,110.61 853.984194,108.048667 856.545527,104.734 L856.545527,104.734 L856.884527,108.124 C857.110527,109.856667 857.901527,111.363333 859.257527,112.644 C860.613527,113.924667 862.60986,114.565 865.246527,114.565 C865.849194,114.565 866.602527,114.527333 867.506527,114.452 C868.410527,114.376667 869.427527,114.226 870.557527,114 L870.557527,114 L870.557527,104.056 C869.352194,103.980667 868.504694,103.641667 868.015027,103.039 C867.52536,102.436333 867.280527,101.419333 867.280527,99.988 L867.280527,99.988 L867.280527,77.953 C867.280527,70.269 865.001694,64.3365 860.444027,60.1555 C855.88636,55.9745 849.652527,53.884 841.742527,53.884 C837.373194,53.884 833.211027,54.5243333 829.256027,55.805 C825.301027,57.0856667 821.36486,59.0443333 817.447527,61.681 L817.447527,61.681 L821.628527,70.043 C824.943194,67.9336667 828.069527,66.2951667 831.007527,65.1275 C833.945527,63.9598333 837.07186,63.376 840.386527,63.376 C845.057194,63.376 848.635527,64.5436667 851.121527,66.879 C853.607527,69.2143333 854.850527,72.4536667 854.850527,76.597 L854.850527,76.597 L854.850527,80.326 C852.741194,79.4973333 850.311694,78.8946667 847.562027,78.518 C844.81236,78.1413333 842.119194,77.953 839.482527,77.953 C834.510527,77.953 830.141194,78.7251667 826.374527,80.2695 C822.60786,81.8138333 819.651027,83.9985 817.504027,86.8235 C815.357027,89.6485 814.283527,92.9443333 814.283527,96.711 C814.283527,100.176333 815.14986,103.302667 816.882527,106.09 C818.615194,108.877333 821.02586,111.080833 824.114527,112.7005 C827.203194,114.320167 830.706194,115.13 834.623527,115.13 Z M838.126527,105.977 C835.48986,105.977 833.28636,105.487333 831.516027,104.508 C829.745694,103.528667 828.389694,102.248 827.448027,100.666 C826.50636,99.084 826.035527,97.4266667 826.035527,95.694 C826.035527,92.53 827.448027,90.044 830.273027,88.236 C833.098027,86.428 836.770527,85.524 841.290527,85.524 C843.550527,85.524 845.848194,85.7311667 848.183527,86.1455 C850.51886,86.5598333 852.741194,87.1813333 854.850527,88.01 L854.850527,88.01 L854.850527,94.79 C854.850527,95.5433333 854.58686,96.4096667 854.059527,97.389 C853.532194,98.3683333 852.816527,99.3476667 851.912527,100.327 C850.40586,101.984333 848.409527,103.340333 845.923527,104.395 C843.437527,105.449667 840.838527,105.977 838.126527,105.977 Z M895.94919,114.904 C897.907857,114.904 900.13019,114.640333 902.61619,114.113 C905.10219,113.585667 907.24919,112.945333 909.05719,112.192 L909.05719,112.192 L907.24919,102.361 C906.269857,102.813 905.121024,103.189667 903.80269,103.491 C902.484357,103.792333 901.071857,103.943 899.56519,103.943 C898.20919,103.943 897.07919,103.528667 896.17519,102.7 C895.27119,101.871333 894.81919,99.9503333 894.81919,96.937 L894.81919,96.937 L894.81919,31.51 L882.38919,31.51 L882.38919,101.457 C882.38919,105.675667 883.594524,108.9715 886.00519,111.3445 C888.415857,113.7175 891.730524,114.904 895.94919,114.904 Z" id="CygnetDigital" fill="#FFFFFF"></path>
        </g>
    </g>
</svg>