<svg xmlns="http://www.w3.org/2000/svg" width="250" height="100" viewBox="0 0 1948.5 703.8" version="1.2"><defs><clipPath id="a"><path d="M0 0h1948v704H0zm0 0"/></clipPath><clipPath id="b"><path d="M929 4h168v215H929zm0 0"/></clipPath><clipPath id="c"><path d="M1130 65h126v156h-126zm0 0"/></clipPath><clipPath id="d"><path d="M1285 8h88v213h-88zm0 0"/></clipPath><clipPath id="e"><path d="M1399 65h126v156h-126zm0 0"/></clipPath><clipPath id="f"><path d="M915 243h187v220H915zm0 0"/></clipPath><clipPath id="g"><path d="M1125 306h135v157h-135zm0 0"/></clipPath><clipPath id="h"><path d="M1301 306h120v155h-120zm0 0"/></clipPath><clipPath id="i"><path d="M1451 250h88v213h-88zm0 0"/></clipPath><clipPath id="j"><path d="M1564 306h135v157h-135zm0 0"/></clipPath><clipPath id="k"><path d="M1740 306h90v155h-90zm0 0"/></clipPath><clipPath id="l"><path d="M907 485h136v217H907zm0 0"/></clipPath><clipPath id="m"><path d="M1086 546h147v156h-147zm0 0"/></clipPath><clipPath id="n"><path d="M1269 548h120v154h-120zm0 0"/></clipPath><clipPath id="o"><path d="M1443 545h90v155h-90zm0 0"/></clipPath><clipPath id="p"><path d="M1564 545h121v155h-121zm0 0"/></clipPath><clipPath id="q"><path d="M1721 546h125v156h-125zm0 0"/></clipPath><clipPath id="r"><path d="M1896 485h50v217h-50zm0 0"/></clipPath></defs><g clip-path="url(#a)"><path fill="#fff" d="M0 0h1949v704H0z"/></g><path d="M4 699h848V5H4zm0 0" fill="#e51b23"/><g clip-path="url(#b)"><path d="M929 219h58c70 0 110-39 110-106 0-70-39-109-110-109h-58zm21-19V24h37c60 0 89 29 89 88 0 60-34 88-91 88h-35" fill="#e51b23"/></g><g clip-path="url(#c)"><path d="M1195 65c-27 0-44 11-59 31l15 11c11-15 24-25 44-25 31 0 42 16 42 48v2h-43c-40 0-64 12-64 43 0 29 21 46 52 46 23 0 44-11 55-33l2 31h16v-93c0-38-21-61-60-61zm-9 139c-23 0-36-11-36-29s15-29 45-29h42v16c-7 25-24 42-51 42" fill="#e51b23"/></g><g clip-path="url(#d)"><path d="M1351 221c9 0 17-1 22-3v-18c-5 1-11 3-18 3-16 0-25-8-25-30V84h43V67h-43V9l-20 14v44h-25v17h25v92c0 29 15 45 41 45" fill="#e51b23"/></g><g clip-path="url(#e)"><path d="M1464 65c-27 0-44 11-59 31l15 11c11-15 24-25 44-25 31 0 42 16 42 48v2h-43c-40 0-64 12-64 43 0 29 22 46 52 46 23 0 44-11 56-33l1 31h17v-93c0-38-22-61-61-61zm-9 139c-23 0-35-11-35-29s14-29 44-29h42v16c-7 25-24 42-51 42" fill="#e51b23"/></g><g clip-path="url(#f)"><path d="M1013 463c42 0 72-20 89-58l-20-8c-13 32-36 46-69 46-54 0-77-40-77-91 0-53 26-88 78-88 34 0 57 13 68 45l19-7a87 87 0 00-87-58c-65 0-99 45-99 109s34 110 98 110"/></g><g clip-path="url(#g)"><path d="M1196 463c25 0 42-7 59-25l-14-13a55 55 0 01-45 20c-30 0-48-21-49-55h112l1-13c0-30-17-70-66-70-44 0-68 36-68 79s25 77 70 77zm-49-88c2-30 19-51 47-51 30 0 43 21 45 42l1 9h-93"/></g><g clip-path="url(#h)"><path d="M1301 461h20v-90c0-30 16-46 42-46 25 0 38 17 38 44v92h20v-96c-1-33-17-58-53-58-20 0-38 9-47 28v-26h-20v152"/></g><g clip-path="url(#i)"><path d="M1518 463c8 0 16-2 21-3v-18c-5 1-11 3-18 3-16 0-25-9-25-30v-89h43v-17h-43v-59l-19 15v44h-26v17h25v92c0 29 15 45 42 45"/></g><g clip-path="url(#j)"><path d="M1635 463c25 0 42-7 59-25l-14-13a55 55 0 01-45 20c-30 0-48-21-49-55h112l1-13c0-30-17-70-66-70-44 0-68 36-68 79s25 77 70 77zm-49-88c2-30 19-51 47-51 30 0 43 21 45 42l1 9h-93"/></g><g clip-path="url(#k)"><path d="M1740 461h19v-78c0-41 24-57 44-57 7 0 12 2 18 5l9-17c-7-5-15-7-24-7-18 0-39 10-47 34v-32h-19v152"/></g><g clip-path="url(#l)"><path d="M976 702c47 0 67-31 67-80V485H935v20h87v117c0 40-13 61-46 61-30 0-46-20-48-48l-21 2c3 38 28 65 69 65" fill="#e51b23"/></g><g clip-path="url(#m)"><path d="M1159 702c43 0 74-35 74-78 0-44-31-78-74-78s-73 34-73 78c0 43 30 78 73 78zm0-17c-33 0-53-28-53-61 0-34 20-61 53-61s53 27 53 61c0 33-20 61-53 61" fill="#e51b23"/></g><g clip-path="url(#n)"><path d="M1321 702c20 0 38-9 48-28v26h20V548h-20v90c0 29-17 45-43 45-24 0-37-16-37-43v-92h-20v96c0 33 17 58 52 58" fill="#e51b23"/></g><g clip-path="url(#o)"><path d="M1443 700h19v-78c0-41 24-57 45-57 6 0 12 2 17 5l9-17c-6-5-15-7-24-7-18 0-39 10-46 34v-32h-20v152" fill="#e51b23"/></g><g clip-path="url(#p)"><path d="M1564 700h20v-90c0-29 17-46 42-46s38 17 38 44v92h20v-96c0-33-17-58-52-58-20 0-38 9-48 28v-26h-20v152" fill="#e51b23"/></g><g clip-path="url(#q)"><path d="M1786 546c-27 0-45 11-59 31l15 11c10-15 24-25 44-25 30 0 42 16 42 48v2h-44c-39 0-63 12-63 43 0 29 21 46 52 46 23 0 44-11 55-33l2 31h16v-93c0-38-21-61-60-61zm-9 139c-23 0-36-11-36-29s14-29 44-29h43v16c-7 25-25 42-51 42" fill="#e51b23"/></g><g clip-path="url(#r)"><path d="M1924 702l21-2v-17l-12 1c-15 0-17-10-17-21V485h-20v183c0 21 6 34 28 34" fill="#e51b23"/></g><path d="M124 472v-12h7c9 0 15-1 20-3 4-2 7-6 9-12l2-29V164l-2-28c-2-5-5-9-10-11-4-2-11-3-19-3h-7v-12h106c41 0 72 16 94 49 21 33 31 79 31 137 0 56-10 99-30 130s-52 46-95 46zm59-15h45c70 0 106-54 106-161 0-53-9-95-26-125a85 85 0 00-79-46h-46v332M511 477c-24 0-44-8-60-23-17-16-29-38-38-65-8-28-12-61-12-99 0-37 4-70 13-98 8-28 21-49 38-64 16-16 37-23 61-23s43 5 57 17c13 11 20 25 20 40 0 16-5 25-16 25 0-20-5-36-15-48-9-12-25-19-47-19-20 0-37 8-50 22-14 15-23 35-30 60-6 26-9 55-9 88 0 34 3 63 9 89 7 25 17 46 30 60 13 15 30 22 51 22 19 0 34-5 44-14 11-9 19-21 24-35 5 4 7 9 7 15 0 7-3 14-9 22-7 7-16 14-27 20-12 5-25 8-41 8M605 594v-15h2c19 0 34-7 42-22 9-14 13-40 13-77V165l-2-28c-2-6-4-10-9-12-4-2-9-3-17-3h-10v-12h98v12h-10c-8 0-14 1-18 3s-7 6-8 12c-2 6-3 16-3 28v314c0 30-3 53-9 70-6 16-15 28-26 35-12 6-25 10-40 10h-3" fill="#fff"/></svg>