<svg width="80" height="80" viewBox="0 0 80 80" fill="none" xmlns="http://www.w3.org/2000/svg">
<path fill-rule="evenodd" clip-rule="evenodd" d="M70.1 51L63.5 38.6L56.9 51H47L58 32.9L47 16H56.9L63.5 26.2L70.1 16H80L67.9 32.9L80 51H70.1ZM0 56V54H80V56H0ZM46 51L54 38.6V28L46 16V28.4H35V16H26V19.8C27.6 21.1 29 22.7 30 24.7C31.3 27.2 32 30.1 32 33.5C32 36.8 31.3 39.7 29.9 42.3C28.8 44.2 27.5 45.8 26 47.1V51H35V36.3H46V51ZM31 33.5C31 36.8 30.3 39.7 28.9 42.3C27.5 44.9 25.7 46.9 23.5 48.2C21.7 49.4 19.7 50.1 17.6 50.5C15.5 50.8 13.2 51 10.8 51H0V16H10.8C13.2 16 15.5 16.2 17.7 16.5C19.8 16.8 21.8 17.6 23.7 18.8C26 20.3 27.8 22.3 29.1 24.8C30.3 27.2 31 30.2 31 33.5ZM17.6 23.8C19.2 24.7 20.4 26 21.2 27.6C22 29.2 22.4 31.2 22.5 33.4C22.5 35.8 22.1 37.7 21.4 39.3C20.6 40.9 19.5 42.2 18.1 43.1C16.9 43.9 15.6 44.3 14.3 44.4C12.9 44.5 11.3 44.5 9.3 44.5H9.1V22.6H9.3C11.1 22.6 12.6 22.6 13.9 22.7C15.2 22.8 16.4 23.1 17.6 23.8ZM4 59V60H2V63H4V64H1V59H4ZM4 63V60H5V63H4ZM19 61H17V59H16V64H17V62H19V64H20V59H19V61ZM35 59V60H33V64H32V60H30V59H35ZM47 60H46V59H45V64H46V61H47V62H48V61H49V64H50V59H49V60H48V61H47V60ZM60 59H61V63H64V64H60V59ZM76 60H75V59H74V60H75V61H76V62H75V63H74V64H75V63H76V62H77V63H78V64H79V63H78V62H77V61H78V60H79V59H78V60H77V61H76V60Z" fill="#2095F3"/>
</svg>
