<?xml version="1.0" encoding="utf-8"?>
<svg viewBox="0 -35 833 320" xmlns="http://www.w3.org/2000/svg">
  <g transform="matrix(0.1, 0, 0, -0.1, 0, 320)">
    <path d="M545 3100 c-117 -7 -242 -21 -318 -36 l-27 -6 0 -949 0 -949 23 -5 c84 -19 129 -25 262 -36 198 -16 469 -7 593 20 359 77 584 250 703 543 105 256 99 645 -13 892 -131 289 -372 455 -740 511 -127 19 -321 25 -483 15z m485 -325 c272 -71 417 -251 450 -558 36 -335 -87 -611 -322 -722 -127 -60 -179 -69 -403 -70 l-200 0 -3 682 -2 682 22 5 c13 2 106 3 208 1 133 -2 203 -8 250 -20z" class="svelte-12j7193" style=""/>
    <path d="M2654 2629 c-100 -7 -215 -30 -351 -71 l-73 -21 0 -703 0 -704 170 0 170 0 2 592 3 593 55 12 c80 19 249 17 353 -5 61 -13 90 -15 92 -8 9 28 56 269 53 271 -9 9 -135 36 -213 45 -98 11 -113 11 -261 -1z" class="svelte-12j7193" style=""/>
    <path d="M3234 2593 c3 -10 26 -85 50 -168 108 -360 250 -721 429 -1088 l91 -189 -29 -56 c-46 -88 -128 -167 -194 -186 -70 -20 -168 -19 -252 2 l-66 18 -27 -121 c-15 -66 -29 -127 -32 -135 -11 -40 246 -81 383 -61 199 29 335 138 452 361 120 231 328 773 456 1190 69 227 125 421 125 437 0 11 -36 13 -172 11 l-173 -3 -28 -110 c-94 -369 -271 -965 -287 -965 -23 0 -268 695 -333 945 l-34 130 -182 3 c-171 2 -182 1 -177 -15z" class="svelte-12j7193" style=""/>
    <path d="M4720 2592 c0 -24 122 -446 200 -692 68 -215 165 -486 233 -655 l45 -110 140 -3 140 -3 46 133 c62 181 138 423 187 598 54 194 56 198 62 180 3 -8 33 -112 67 -230 35 -118 98 -320 142 -447 l80 -233 138 0 138 0 45 108 c114 269 280 770 407 1231 18 63 34 120 37 128 4 10 -28 13 -171 13 -133 0 -178 -3 -180 -12 -2 -7 -23 -94 -46 -193 -78 -329 -229 -861 -241 -847 -7 8 -72 219 -125 407 -32 117 -154 619 -154 638 0 4 -59 7 -130 7 -96 0 -132 -3 -134 -12 -2 -7 -30 -119 -61 -248 -72 -298 -209 -777 -227 -795 -13 -13 -150 476 -238 850 -23 99 -44 186 -46 193 -2 9 -47 12 -179 12 -162 0 -175 -1 -175 -18z" class="svelte-12j7193" style=""/>
    <path d="M7354 2626 c-123 -20 -224 -47 -224 -60 0 -10 22 -154 35 -232 l5 -32 71 19 c95 25 279 43 354 34 115 -13 193 -65 231 -153 9 -20 18 -73 21 -116 l6 -79 -44 7 c-159 27 -347 23 -472 -10 -141 -36 -255 -122 -309 -232 -30 -60 -33 -77 -36 -172 -3 -76 1 -125 12 -170 40 -154 158 -262 338 -305 147 -36 433 -29 710 17 l129 21 -3 521 c-4 500 -5 524 -26 600 -49 177 -155 281 -339 332 -78 22 -349 28 -459 10z m433 -847 l63 -11 0 -189 c0 -171 -2 -190 -17 -197 -10 -4 -90 -7 -178 -7 -140 0 -166 3 -210 21 -75 32 -108 79 -113 159 -2 36 -2 76 2 89 8 33 52 83 90 103 76 40 235 54 363 32z" class="svelte-12j7193" style=""/>
  </g>
</svg>