<svg xmlns="http://www.w3.org/2000/svg" width="89" height="34" viewBox="0 0 89 34"><g fill="#FDB930"><path d="M18.736 28.935c-.242.152-.497.385-2.055 1.075-.73.323-2.462.91-3.85 1-1.057.07-3.227.193-4.472-.99-1.184-1.123-1.27-2.677-1.213-3.288.09-.997.16-1.438.45-2.466.846.088 1.838.066 2.973-.066 1.134-.13 2.404-.41 3.928-1.09 1.11-.497 2.228-1.372 3.205-2.344.955-.95 1.74-1.992 2.368-3.112.628-1.12 1.037-2.262 1.226-3.426.19-1.163.105-2.196-.246-3.103-.353-.905-1.02-1.613-2.002-2.125-.982-.51-2.354-.69-4.116-.535-2.693.234-5.005 1.042-6.934 2.422-1.93 1.38-3.456 3.038-4.577 4.977-.718 1.24-1.265 2.52-1.644 3.84-.458-.103-1.595.117-1.758 1.192-.157 1.03.76 1.65 1.2 1.738-.187 1.89-.024 3.64.492 5.247.575 1.79 1.928 3.575 3.422 4.505 1.438.894 4.17 1.62 5.94 1.606 1.728-.013 3.64-.36 5.046-.743s3.863-1.598 4.247-1.948c1.437-1.312-.256-3.228-1.63-2.365zm-8.568-10.952c.626-1.152 1.293-2.196 2.003-3.13.71-.934 1.426-1.7 2.15-2.295.722-.596 1.404-.922 2.045-.978.8-.07 1.313.25 1.536.956s.193 1.557-.09 2.55c-.286.994-.817 2.003-1.602 3.023-.787 1.023-2.025 1.946-2.863 2.354-.898.437-1.568.722-2.38.857-.812.137-1.784.145-2.406.086.476-1.203.983-2.27 1.608-3.423zM43.004 17.284c-.793 1.264-1.436 2.58-1.93 3.946-.494 1.367-.808 2.687-.94 3.957-.13 1.27-.065 2.467.194 3.592.26 1.122.748 2.09 1.464 2.898.717.81 1.665 1.413 2.847 1.81 1.18.397 4.226.86 6.814-.073 2.587-.93 4.843-3.337 6.088-4.98 1.245-1.642 2.242-3.36 2.988-5.153.748-1.792 1.245-3.58 1.493-5.362.248-1.78.214-3.377-.104-4.786s-.925-2.543-1.825-3.4c-.898-.86-2.12-1.267-3.667-1.228-2.158.06-4.17.598-6.034 1.617-1.864 1.02-3.52 2.318-4.962 3.897-1.377 1.5-1.477 1.91-2.428 3.264zm3.63 9.265c.015-1.31.227-2.757.637-4.343.412-1.586.973-3.104 1.685-4.554.36-.793.77-1.495 1.432-2.45.69-.965 1.536-1.77 2.444-2.344.91-.575 2.47-.962 3.4-1.043 1.057-.093 1.825.277 2.3 1.106.477.83.7 1.9.668 3.21-.03 1.31-.283 2.763-.757 4.354-.473 1.59-1.133 3.1-1.976 4.532 0 0-.908 1.427-2.047 2.635-.967 1.026-1.38 1.38-2.207 1.932s-2.225 1.057-2.938 1.116c-.713.06-1.598-.183-2.024-.986-.423-.804-.628-1.86-.614-3.168zM39.95 3.138c-.255-.456-.603-.89-1.04-1.3-.44-.41-.93-.767-1.476-1.073C36.89.46 36.358.245 35.84.123s-.985-.13-1.4-.023c-.417.108-.716.37-.898.786l-.96 2.15c-.498 1.115-1.074 2.476-1.728 4.083-.652 1.607-1.335 3.387-2.047 5.338-.712 1.95-1.538 4.387-2.114 6.345-.576 1.958-1.03 3.86-1.367 5.71s-.582 3.604-.453 5.004c.1 1.095.546 2.326 1.172 3.147.867 1.134 2.315 1.314 3.286 1.388.8.06 2.53-.214 3.415-.535.85-.308 2.35-.916 3.24-1.354.735-.36 1.313-.718 1.54-.93 1.157-1.077-.085-3.23-1.805-2.207-.277.164-.717.41-1.19.678-.967.548-2.207 1.17-3.416 1.286-1.338.126-2.346-.46-2.503-1.575-.156-1.116 1.354-4.347 2.03-5.818.674-1.472 1.408-2.99 2.204-4.558.796-1.567 1.788-3.6 2.615-5.14.826-1.535 1.582-2.953 2.27-4.252.685-1.3 1.26-2.404 1.717-3.318.46-.912.72-1.535.78-1.866.072-.43-.02-.87-.276-1.326zM76.922 11.642c1.208-1.876 2.967-4.677 4.185-6.416.27-.385-3.737.453-5.192.913-1.456.46-2.826.842-4.112 1.146-1.286.305-2.5.73-3.53.87-1.03.14-1.86.2-2.493.185-.49 0-.838-.16-1.043-.482-.205-.32-.3-.723-.282-1.206.016-.482.18-1.21.377-1.775s.46-1.106.785-1.627c.326-.52.686-.985 1.082-1.393.393-.408.808-.683 1.244-.826C68.68.794 69.69.717 70.982.8c1.29.087 2.67.183 4.14.29 1.468.11 2.93.16 4.38.15s3.105-.36 3.81-.707c.705-.348 1.22-.627 1.973-.508.753.12 1.435.414 2.047.88.612.467 1.083 1.057 1.416 1.768.33.712.34 1.417.022 2.117-.16.35-.418.974-1.127 1.623-2.967 2.72-6.16 6.875-8.173 9.448-4.43 5.66-5.383 7.82-6.396 9.47-1.384 2.256-4.127 7.807-4.547 8.276-.58.646-1.232.486-1.69.346-.46-.14-1.033-.89-.777-1.723.155-.505 4.925-10.106 5.973-12.036.93-1.556 3.422-6.276 4.89-8.552z"/></g></svg>