<?xml version="1.0" encoding="UTF-8"?> <svg xmlns="http://www.w3.org/2000/svg" id="Layer_1" data-name="Layer 1" viewBox="0 0 160 36"><defs><style>.cls-1{fill:#fff;}</style></defs><title>emakina-logo-hrz160x36_white</title><rect class="cls-1" x="13.64" y="19.45" width="2.91" height="14.55" transform="translate(30.19 53.45) rotate(-180)"></rect><rect class="cls-1" x="7.82" y="19.45" width="2.91" height="14.55" transform="translate(18.55 53.45) rotate(-180)"></rect><rect class="cls-1" x="2" y="19.45" width="2.91" height="14.55" transform="translate(6.91 53.45) rotate(-180)"></rect><rect class="cls-1" x="7.82" y="-3.82" width="2.91" height="14.55" transform="translate(12.73 -5.82) rotate(90)"></rect><rect class="cls-1" x="7.82" y="2" width="2.91" height="14.55" transform="translate(18.55 0) rotate(90)"></rect><rect class="cls-1" x="7.82" y="7.82" width="2.91" height="14.55" transform="translate(24.37 5.82) rotate(90)"></rect><polygon class="cls-1" points="49.25 10.94 52 10.94 58.88 19.32 65.72 10.94 68.49 10.94 68.49 25.06 65.3 25.06 65.3 15.35 59.02 23.36 58.35 23.36 52 15.58 52 25.06 49.25 25.06 49.25 10.94"></polygon><path class="cls-1" d="M70.23,25.06h3.42L75.41,22h9.3l1.76,3.1h3.85L81.85,10.94H78.57Zm6.64-5.68L80,13.51l3.29,5.87Z"></path><polygon class="cls-1" points="92.1 10.94 95.56 10.94 95.56 16.64 103.77 10.94 108.71 10.94 99.01 17.48 109.81 25.06 104.39 25.06 95.56 18.68 95.56 25.06 92.1 25.06 92.1 10.94"></polygon><rect class="cls-1" x="111.73" y="10.94" width="3.42" height="14.12"></rect><polygon class="cls-1" points="119.11 10.94 121.47 10.94 133.39 20.32 133.39 10.94 136.49 10.94 136.49 25.06 134.13 25.06 122.23 15.55 122.23 25.06 119.11 25.06 119.11 10.94"></polygon><path class="cls-1" d="M138.13,25.06h3.42l1.76-3.1h9.3l1.76,3.1h3.86l-8.47-14.12h-3.29Zm6.64-5.68,3.16-5.87,3.29,5.87Z"></path><polygon class="cls-1" points="31.1 10.94 31.1 25.06 46.63 25.06 46.63 22.42 45.46 22.42 34.56 22.42 34.56 18.95 44.59 18.95 44.59 16.51 34.56 16.51 34.56 13.45 46.63 13.45 46.63 10.94 31.1 10.94"></polygon></svg> 