<svg xmlns="http://www.w3.org/2000/svg" viewBox="0 0 340.28 71.94"><defs><style>.cls-1{fill:#9acc60}.cls-2{fill:#b3967e}</style></defs><g id="Layer_2" data-name="Layer 2"><g id="Layer_1-2" data-name="Layer 1"><path class="cls-1" d="M18 19.82a11 11 0 00-2.7 7.79v2.14h8.1a3.81 3.81 0 012.7 1 3.27 3.27 0 011 2.54 3.09 3.09 0 01-1 2.38 3.81 3.81 0 01-2.7 1h-8.1v31a4 4 0 01-1.12 2.94A4.19 4.19 0 0111 71.62a3.81 3.81 0 01-2.7-1.11 3.92 3.92 0 01-1.15-2.94v-31H3.73a3.81 3.81 0 01-2.7-1 3.09 3.09 0 01-1-2.38 3.27 3.27 0 011-2.54 3.81 3.81 0 012.7-1h3.42V28.4a20.83 20.83 0 012.26-9.89 16.28 16.28 0 016.36-6.59 18.48 18.48 0 019.34-2.35 4.19 4.19 0 012.9 1 3.36 3.36 0 011.15 2.62A3.36 3.36 0 0128 15.85a4.19 4.19 0 01-2.9 1 9.24 9.24 0 00-7.1 2.97zM64.71 30.75a21.41 21.41 0 017.87 7.94 22.2 22.2 0 012.9 11.24v17.72a4.06 4.06 0 11-8.11 0v-2.94a20 20 0 01-25.7 4.37 20.06 20.06 0 01-7.31-7.9 23.79 23.79 0 01-2.66-11.25 22.37 22.37 0 012.86-11.24 20.85 20.85 0 017.9-7.94 22 22 0 0111.17-2.9 21.51 21.51 0 0111.08 2.9zm-3.89 32.09a13.73 13.73 0 005-5.32 15.66 15.66 0 001.83-7.59 15.89 15.89 0 00-1.83-7.62 14 14 0 00-19.42-5.37 14 14 0 00-5.09 5.37 15.69 15.69 0 00-1.87 7.62 15.47 15.47 0 001.87 7.59 14 14 0 005.09 5.32 14.23 14.23 0 0014.38 0zM115.44 29c1.59.85 2.38 1.91 2.38 3.18a2.87 2.87 0 01-.08.79 3.06 3.06 0 01-3.18 2.54 6.91 6.91 0 01-1.18-.15 31.7 31.7 0 00-5.17-.56q-5.73 0-9.22 2.62a8.39 8.39 0 00-3.49 7.07v23.2a4.08 4.08 0 01-1 2.94 4 4 0 01-3 1 4.09 4.09 0 01-3-1 4 4 0 01-1-3V32.14a3.59 3.59 0 014-4c2.64 0 4 1.32 4 4v1.51a16.62 16.62 0 015.88-4.37 17.78 17.78 0 017.46-1.59 14.15 14.15 0 016.6 1.31zM183 32.3q4.25 4.53 4.25 12.63v22.72a4 4 0 01-1.11 2.9 4.07 4.07 0 01-7-2.9V44.93q0-4.84-2.43-7.35a8.57 8.57 0 00-6.47-2.5 8.89 8.89 0 00-6.8 2.86 10.32 10.32 0 00-2.66 7.31v22.4a4 4 0 01-1.11 2.9 3.89 3.89 0 01-2.94 1.15 3.93 3.93 0 01-4.05-4V44.93q0-4.84-2.42-7.35a8.61 8.61 0 00-6.48-2.5 8.94 8.94 0 00-6.87 2.86 10.28 10.28 0 00-2.66 7.31v22.4a4 4 0 01-1.11 2.9 4.29 4.29 0 01-5.85 0 4 4 0 01-1.15-2.9V32.3a3.92 3.92 0 011.15-2.94 4 4 0 012.91-1.11 3.93 3.93 0 012.86 1.07 4 4 0 011.19 2.82 14.54 14.54 0 014.92-3.22 16.4 16.4 0 016.2-1.15 15.84 15.84 0 017.27 1.63 13.87 13.87 0 015.3 4.6 16.68 16.68 0 016-4.6 18.47 18.47 0 017.95-1.67A14.61 14.61 0 01183 32.3z"/><path class="cls-2" d="M234.49 30.71a20 20 0 017.31 7.9 23.66 23.66 0 012.66 11.24 22.38 22.38 0 01-2.86 11.25 20.85 20.85 0 01-7.9 7.9 22 22 0 01-11.16 2.9 21.42 21.42 0 01-18.95-10.8 22.11 22.11 0 01-2.9-11.25V13.62a3.88 3.88 0 011.15-2.93 4.37 4.37 0 015.84 0 4 4 0 011.11 2.93v21.46a20 20 0 0125.7-4.37zm-4.77 32.13a13.9 13.9 0 005.09-5.36 15.7 15.7 0 001.87-7.63 15.45 15.45 0 00-1.87-7.58 14.1 14.1 0 00-5.09-5.33 14.29 14.29 0 00-14.38 0 13.82 13.82 0 00-5 5.33 15.65 15.65 0 00-1.83 7.58 15.9 15.9 0 001.83 7.63 14 14 0 0019.42 5.36zM263 69.12a19.93 19.93 0 01-7.78-7.83 22.9 22.9 0 01-2.78-11.36 23.1 23.1 0 012.78-11.44 20 20 0 017.78-7.82 22.76 22.76 0 0111.36-2.82 22.37 22.37 0 0111.25 2.82 20.39 20.39 0 017.79 7.82 23 23 0 012.81 11.44 23 23 0 01-2.78 11.36 19.92 19.92 0 01-7.75 7.83 22.51 22.51 0 01-11.32 2.82A22.76 22.76 0 01263 69.12zm18.63-6.24a13.14 13.14 0 005-5.28 16.16 16.16 0 001.78-7.67 16.34 16.34 0 00-1.78-7.7 13 13 0 00-5-5.32 14.79 14.79 0 00-14.54 0 13.33 13.33 0 00-5 5.32 16 16 0 00-1.83 7.7 15.84 15.84 0 001.83 7.67 13.48 13.48 0 005 5.28 14.79 14.79 0 0014.54 0zM340.28 68.29a3.18 3.18 0 01-1 2.38 3.58 3.58 0 01-2.59 1 3.35 3.35 0 01-2.86-1.27l-12.62-15.14-12 15.09a3.77 3.77 0 01-2.86 1.27 3.19 3.19 0 01-3.41-3.33 4.53 4.53 0 011.11-2.94l12.31-15.42-13.11-15.49a4.67 4.67 0 01-1.19-3 3.23 3.23 0 01.91-2.3 3.41 3.41 0 012.59-.95 3.71 3.71 0 013 1.35l13 15.57 11.68-15.57a3.47 3.47 0 012.93-1.35 3.24 3.24 0 012.51 1 3.44 3.44 0 01.91 2.42 5 5 0 01-1.11 3.18l-12 15.65 12.63 15.1a3.94 3.94 0 011.17 2.75z"/><path class="cls-1" d="M279.8 8.76a19.39 19.39 0 00-.58-3.76 30.43 30.43 0 00-5.38 1.49C262.07 11.2 261 21.73 261.22 26.63c1.94-4.55 7.13-13.71 17.53-14.6-8 2.35-13 10.67-15 14.85 2.7-1.62 6.78-2 9-2.22h.28a19.43 19.43 0 006.77-15.9z"/><path d="M295.19 0c-3.58 3.4-10.12 3.84-16 5A19.45 19.45 0 01273 24.63C299.84 21.32 295.19 0 295.19 0z" fill="#80b747"/></g></g></svg>