<?xml version="1.0" encoding="UTF-8"?>
<svg width="181px" height="34px" viewBox="0 0 181 34" version="1.1" xmlns="http://www.w3.org/2000/svg" xmlns:xlink="http://www.w3.org/1999/xlink" role="img">
    <!-- Generator: Sketch 64 (93537) - https://sketch.com -->
    <title>Logos / BMG / L / Docked</title>
    <desc>Created with Sketch.</desc>
    <g id="Logos-/-BMG-/-L-/-Docked" stroke="none" stroke-width="1" fill="none" fill-rule="evenodd">
        <g id="Logos-/-BMG-/-Copy" transform="translate(59.000000, 1.000000)" fill="#000000">
            <g id="Bundesministerium-für-Gesundheit-(BMG)---Bundesgesundheitsministerium-1">
                <path d="M7.446,3.739 C7.446,4.162 7.394,4.532 7.287,4.85 C7.183,5.164 7.037,5.44 6.856,5.666 C6.673,5.895 6.462,6.081 6.22,6.225 C5.98,6.366 5.73,6.472 5.47,6.538 L5.47,6.575 C5.788,6.636 6.085,6.745 6.362,6.91 C6.639,7.075 6.881,7.28 7.086,7.527 C7.291,7.774 7.457,8.065 7.58,8.399 C7.702,8.735 7.764,9.102 7.764,9.503 C7.764,9.984 7.683,10.427 7.518,10.824 C7.353,11.224 7.098,11.571 6.75,11.865 C6.403,12.159 5.967,12.388 5.437,12.553 C4.908,12.717 4.28,12.799 3.55,12.799 L1.065,12.799 L1.065,0.633 L3.411,0.633 C4.128,0.633 4.743,0.704 5.253,0.853 C5.765,0.999 6.185,1.207 6.513,1.48 C6.843,1.75 7.081,2.076 7.228,2.459 C7.373,2.842 7.446,3.269 7.446,3.739 Z M5.895,3.791 C5.895,3.228 5.695,2.766 5.295,2.398 C4.896,2.034 4.267,1.851 3.408,1.851 L2.597,1.851 L2.597,6.047 L3.39,6.047 C4.214,6.047 4.835,5.848 5.259,5.445 C5.683,5.049 5.895,4.496 5.895,3.791 Z M6.123,9.398 C6.123,8.74 5.908,8.219 5.479,7.835 C5.05,7.452 4.436,7.264 3.636,7.264 L2.595,7.264 L2.595,11.531 L3.548,11.531 C4.454,11.531 5.11,11.351 5.515,10.993 C5.922,10.635 6.123,10.104 6.123,9.398 Z M15.573,12.801 L14.268,12.801 L14.268,11.85 L14.233,11.85 C14.197,11.918 14.121,12.024 14.004,12.158 C13.887,12.294 13.736,12.424 13.555,12.548 C13.373,12.671 13.153,12.778 12.894,12.873 C12.635,12.969 12.348,13.017 12.03,13.017 C11.654,13.017 11.316,12.958 11.016,12.85 C10.715,12.739 10.459,12.559 10.248,12.313 C10.037,12.065 9.875,11.746 9.765,11.351 C9.653,10.955 9.596,10.472 9.596,9.897 L9.596,4.34 L11.025,4.34 L11.025,9.787 C11.025,10.492 11.14,10.995 11.369,11.295 C11.598,11.595 11.954,11.744 12.436,11.744 C12.846,11.744 13.194,11.641 13.476,11.435 C13.758,11.23 13.98,11.027 14.146,10.827 L14.146,4.34 L15.574,4.34 L15.573,12.801 L15.573,12.801 Z M22.379,12.801 L22.379,7.354 C22.379,6.637 22.258,6.123 22.019,5.812 C21.777,5.499 21.41,5.344 20.916,5.344 C20.492,5.344 20.141,5.448 19.858,5.66 C19.575,5.871 19.352,6.077 19.188,6.277 L19.188,12.799 L17.759,12.799 L17.759,4.336 L19.064,4.336 L19.064,5.288 L19.1,5.288 C19.136,5.219 19.21,5.114 19.329,4.979 C19.446,4.843 19.6,4.714 19.788,4.59 C19.975,4.468 20.198,4.359 20.458,4.265 C20.716,4.17 21.009,4.121 21.339,4.121 C21.714,4.121 22.056,4.181 22.361,4.289 C22.667,4.4 22.924,4.58 23.135,4.827 C23.348,5.074 23.512,5.394 23.629,5.787 C23.748,6.183 23.806,6.667 23.806,7.243 L23.806,12.799 L22.379,12.799 L22.379,12.801 Z M25.553,8.693 C25.553,7.836 25.664,7.117 25.887,6.542 C26.112,5.968 26.4,5.502 26.752,5.149 C27.105,4.795 27.504,4.545 27.95,4.399 C28.397,4.253 28.844,4.177 29.291,4.177 C29.561,4.177 29.795,4.198 29.996,4.24 C30.196,4.282 30.359,4.331 30.489,4.39 L30.489,0.334 L31.918,0.176 L31.918,12.8 L30.612,12.8 L30.612,11.902 L30.577,11.902 C30.541,11.973 30.477,12.069 30.383,12.193 C30.289,12.317 30.159,12.44 29.994,12.563 C29.83,12.686 29.625,12.792 29.377,12.878 C29.131,12.967 28.844,13.011 28.514,13.011 C28.115,13.011 27.736,12.933 27.377,12.774 C27.018,12.615 26.703,12.363 26.434,12.016 C26.165,11.668 25.949,11.223 25.789,10.676 C25.633,10.13 25.553,9.469 25.553,8.693 Z M28.902,11.743 C29.127,11.743 29.325,11.714 29.502,11.655 C29.678,11.596 29.832,11.522 29.961,11.434 C30.09,11.346 30.199,11.253 30.287,11.161 C30.375,11.069 30.442,10.985 30.489,10.914 L30.489,5.695 C30.36,5.613 30.211,5.543 30.039,5.484 C29.869,5.424 29.654,5.396 29.396,5.396 C29.067,5.396 28.757,5.451 28.47,5.564 C28.182,5.674 27.932,5.861 27.72,6.118 C27.509,6.377 27.341,6.714 27.218,7.123 C27.095,7.535 27.031,8.04 27.031,8.643 C27.031,9.231 27.081,9.721 27.181,10.115 C27.281,10.511 27.42,10.826 27.596,11.067 C27.773,11.309 27.972,11.482 28.196,11.587 C28.42,11.692 28.656,11.743 28.902,11.743 Z M39.534,7.195 C39.534,7.56 39.522,7.874 39.498,8.138 C39.477,8.402 39.452,8.633 39.43,8.831 L35.109,8.831 C35.158,9.83 35.375,10.565 35.755,11.035 C36.138,11.507 36.687,11.74 37.401,11.74 C37.649,11.74 37.872,11.711 38.069,11.652 C38.27,11.593 38.444,11.522 38.59,11.44 C38.736,11.358 38.861,11.275 38.961,11.193 C39.063,11.111 39.133,11.047 39.18,10.999 L39.709,12.005 C39.65,12.067 39.563,12.151 39.443,12.263 C39.328,12.371 39.168,12.486 38.967,12.598 C38.767,12.706 38.521,12.806 38.228,12.889 C37.933,12.972 37.586,13.011 37.187,13.011 C36.658,13.011 36.176,12.923 35.749,12.745 C35.317,12.569 34.956,12.296 34.655,11.927 C34.354,11.558 34.124,11.086 33.96,10.517 C33.796,9.947 33.712,9.263 33.712,8.461 C33.712,7.708 33.798,7.061 33.97,6.515 C34.14,5.967 34.372,5.519 34.665,5.163 C34.958,4.81 35.3,4.551 35.686,4.379 C36.075,4.208 36.493,4.122 36.936,4.122 C37.749,4.122 38.384,4.379 38.839,4.892 C39.305,5.405 39.534,6.172 39.534,7.195 Z M36.854,5.29 C36.35,5.29 35.944,5.502 35.638,5.927 C35.331,6.351 35.157,6.959 35.108,7.76 L38.196,7.76 C38.208,7.7 38.217,7.614 38.22,7.503 C38.227,7.394 38.231,7.273 38.231,7.144 C38.231,6.555 38.114,6.1 37.877,5.777 C37.642,5.451 37.301,5.29 36.854,5.29 Z M45.088,6.049 C44.993,5.944 44.823,5.799 44.575,5.615 C44.33,5.433 44.008,5.343 43.606,5.343 C43.231,5.343 42.942,5.432 42.741,5.609 C42.543,5.785 42.442,5.997 42.442,6.243 C42.442,6.56 42.534,6.822 42.713,7.028 C42.897,7.234 43.176,7.454 43.553,7.689 L44.082,8.004 C44.656,8.347 45.107,8.712 45.437,9.108 C45.765,9.503 45.93,10.009 45.93,10.631 C45.93,11.302 45.699,11.864 45.234,12.323 C44.771,12.782 44.103,13.011 43.234,13.011 C42.892,13.011 42.592,12.976 42.336,12.906 C42.076,12.837 41.852,12.754 41.656,12.659 C41.463,12.565 41.301,12.463 41.172,12.351 C41.043,12.239 40.938,12.136 40.856,12.039 L41.544,10.91 C41.613,10.981 41.699,11.062 41.802,11.157 C41.903,11.253 42.022,11.345 42.161,11.43 C42.3,11.515 42.46,11.592 42.638,11.651 C42.815,11.71 43.02,11.739 43.255,11.739 C43.677,11.739 44.001,11.645 44.225,11.458 C44.448,11.27 44.561,11.04 44.561,10.77 C44.561,10.57 44.534,10.397 44.483,10.249 C44.427,10.103 44.348,9.972 44.243,9.853 C44.139,9.736 44.011,9.624 43.856,9.519 C43.704,9.413 43.526,9.293 43.329,9.165 L42.798,8.83 C42.271,8.489 41.857,8.133 41.556,7.755 C41.257,7.379 41.107,6.899 41.107,6.311 C41.107,5.994 41.17,5.702 41.294,5.438 C41.417,5.173 41.591,4.945 41.815,4.75 C42.039,4.558 42.299,4.402 42.598,4.292 C42.899,4.183 43.217,4.123 43.561,4.123 C43.887,4.123 44.17,4.156 44.407,4.223 C44.642,4.286 44.845,4.369 45.014,4.471 C45.184,4.571 45.327,4.669 45.438,4.77 C45.547,4.87 45.639,4.956 45.711,5.025 L45.088,6.049 Z M52.053,12.801 L52.053,7.354 C52.053,6.661 51.95,6.162 51.752,5.856 C51.553,5.549 51.231,5.398 50.782,5.398 C50.549,5.398 50.34,5.426 50.157,5.486 C49.975,5.546 49.813,5.618 49.672,5.706 C49.531,5.795 49.407,5.894 49.303,5.997 C49.197,6.103 49.109,6.197 49.037,6.28 L49.037,12.802 L47.608,12.802 L47.608,4.338 L48.914,4.338 L48.914,5.291 L48.95,5.291 C49.008,5.196 49.096,5.082 49.215,4.946 C49.332,4.81 49.48,4.681 49.653,4.557 C49.83,4.434 50.034,4.328 50.27,4.246 C50.504,4.163 50.77,4.122 51.063,4.122 C52.026,4.122 52.709,4.499 53.108,5.252 C53.19,5.135 53.301,5.009 53.442,4.872 C53.586,4.737 53.75,4.614 53.936,4.503 C54.124,4.394 54.334,4.303 54.571,4.232 C54.805,4.161 55.065,4.127 55.347,4.127 C57.063,4.127 57.92,5.127 57.92,7.124 L57.92,12.803 L56.49,12.803 L56.49,7.355 C56.49,6.662 56.369,6.163 56.121,5.857 C55.875,5.55 55.51,5.399 55.027,5.399 C54.629,5.399 54.297,5.496 54.031,5.69 C53.767,5.883 53.558,6.069 53.406,6.246 C53.428,6.376 53.445,6.517 53.459,6.661 C53.472,6.808 53.479,6.964 53.479,7.128 L53.479,12.808 L52.051,12.808 L52.053,12.801 L52.053,12.801 Z M61.485,12.801 L60.055,12.801 L60.055,4.338 L61.485,4.338 L61.485,12.801 Z M60.778,2.293 C60.485,2.293 60.252,2.198 60.073,2.012 C59.895,1.824 59.809,1.575 59.809,1.273 C59.809,0.979 59.895,0.738 60.073,0.549 C60.252,0.361 60.485,0.268 60.778,0.268 C61.061,0.268 61.293,0.362 61.466,0.549 C61.643,0.737 61.731,0.978 61.731,1.273 C61.731,1.579 61.643,1.826 61.466,2.012 C61.293,2.198 61.063,2.293 60.778,2.293 Z M68.291,12.801 L68.291,7.354 C68.291,6.637 68.17,6.123 67.93,5.812 C67.689,5.499 67.322,5.344 66.827,5.344 C66.403,5.344 66.051,5.448 65.768,5.66 C65.485,5.871 65.262,6.077 65.098,6.277 L65.098,12.799 L63.668,12.799 L63.668,4.336 L64.973,4.336 L64.973,5.288 L65.008,5.288 C65.045,5.219 65.121,5.114 65.237,4.979 C65.354,4.843 65.508,4.714 65.696,4.59 C65.884,4.468 66.108,4.359 66.366,4.265 C66.626,4.17 66.919,4.121 67.249,4.121 C67.624,4.121 67.966,4.181 68.27,4.289 C68.575,4.4 68.833,4.58 69.044,4.827 C69.257,5.074 69.421,5.394 69.538,5.787 C69.654,6.183 69.714,6.667 69.714,7.243 L69.714,12.799 L68.291,12.799 L68.291,12.801 Z M73.28,12.801 L71.85,12.801 L71.85,4.338 L73.28,4.338 L73.28,12.801 Z M72.573,2.293 C72.28,2.293 72.047,2.198 71.868,2.012 C71.692,1.824 71.604,1.575 71.604,1.273 C71.604,0.979 71.692,0.738 71.868,0.549 C72.047,0.361 72.28,0.268 72.573,0.268 C72.854,0.268 73.086,0.362 73.261,0.549 C73.439,0.737 73.527,0.978 73.527,1.273 C73.527,1.579 73.439,1.826 73.261,2.012 C73.086,2.198 72.856,2.293 72.573,2.293 Z M79.114,6.049 C79.02,5.944 78.852,5.799 78.602,5.615 C78.356,5.433 78.032,5.343 77.633,5.343 C77.256,5.343 76.969,5.432 76.77,5.609 C76.569,5.785 76.467,5.997 76.467,6.243 C76.467,6.56 76.559,6.822 76.74,7.028 C76.923,7.234 77.203,7.454 77.578,7.689 L78.107,8.004 C78.683,8.347 79.133,8.712 79.463,9.108 C79.791,9.503 79.955,10.009 79.955,10.631 C79.955,11.302 79.726,11.864 79.26,12.323 C78.797,12.782 78.129,13.011 77.26,13.011 C76.918,13.011 76.619,12.976 76.361,12.906 C76.103,12.837 75.877,12.754 75.681,12.659 C75.488,12.565 75.327,12.463 75.197,12.351 C75.068,12.239 74.965,12.136 74.883,12.039 L75.571,10.91 C75.641,10.981 75.727,11.062 75.83,11.157 C75.928,11.253 76.049,11.345 76.19,11.43 C76.33,11.518 76.489,11.592 76.666,11.651 C76.842,11.71 77.047,11.739 77.282,11.739 C77.705,11.739 78.028,11.645 78.252,11.458 C78.478,11.27 78.588,11.04 78.588,10.77 C78.588,10.57 78.564,10.397 78.508,10.249 C78.455,10.103 78.377,9.972 78.271,9.853 C78.167,9.736 78.039,9.624 77.881,9.519 C77.732,9.413 77.553,9.293 77.355,9.165 L76.826,8.83 C76.299,8.489 75.885,8.133 75.584,7.755 C75.283,7.379 75.135,6.899 75.135,6.311 C75.135,5.994 75.198,5.702 75.321,5.438 C75.446,5.173 75.618,4.945 75.842,4.75 C76.065,4.558 76.326,4.402 76.625,4.292 C76.926,4.183 77.246,4.123 77.586,4.123 C77.916,4.123 78.197,4.156 78.434,4.223 C78.67,4.286 78.872,4.369 79.043,4.471 C79.211,4.571 79.356,4.669 79.465,4.77 C79.576,4.87 79.668,4.956 79.738,5.025 L79.114,6.049 Z M85.252,5.501 L83.399,5.501 L83.399,10.19 C83.399,10.791 83.475,11.198 83.628,11.417 C83.778,11.635 84.04,11.742 84.403,11.742 C84.614,11.742 84.798,11.713 84.95,11.654 C85.102,11.595 85.216,11.543 85.284,11.496 L85.477,12.642 C85.417,12.689 85.278,12.762 85.054,12.862 C84.831,12.963 84.532,13.012 84.155,13.012 C83.426,13.012 82.882,12.81 82.516,12.405 C82.151,12 81.968,11.326 81.968,10.384 L81.968,5.5 L80.947,5.5 L80.947,4.548 L81.968,4.336 L82.126,1.976 L83.397,1.976 L83.397,4.336 L85.423,4.336 L85.252,5.501 Z M92.182,7.195 C92.182,7.56 92.168,7.874 92.146,8.138 C92.123,8.402 92.099,8.633 92.076,8.831 L87.758,8.831 C87.805,9.83 88.022,10.565 88.403,11.035 C88.784,11.507 89.336,11.74 90.049,11.74 C90.297,11.74 90.52,11.711 90.719,11.652 C90.92,11.593 91.092,11.522 91.24,11.44 C91.386,11.358 91.511,11.275 91.609,11.193 C91.709,11.111 91.783,11.047 91.83,10.999 L92.359,12.005 C92.298,12.067 92.212,12.151 92.093,12.263 C91.978,12.371 91.818,12.486 91.616,12.598 C91.417,12.706 91.169,12.806 90.876,12.889 C90.583,12.972 90.233,13.011 89.835,13.011 C89.308,13.011 88.827,12.923 88.397,12.745 C87.966,12.569 87.604,12.296 87.304,11.927 C87.003,11.558 86.772,11.086 86.608,10.517 C86.444,9.947 86.362,9.263 86.362,8.461 C86.362,7.708 86.446,7.061 86.618,6.515 C86.788,5.967 87.02,5.519 87.315,5.163 C87.608,4.81 87.948,4.551 88.336,4.379 C88.724,4.207 89.144,4.122 89.59,4.122 C90.4,4.122 91.032,4.379 91.491,4.892 C91.95,5.403 92.182,6.172 92.182,7.195 Z M89.502,5.29 C88.996,5.29 88.59,5.502 88.284,5.927 C87.977,6.351 87.803,6.959 87.756,7.76 L90.842,7.76 C90.855,7.7 90.863,7.614 90.866,7.503 C90.873,7.394 90.877,7.273 90.877,7.144 C90.877,6.555 90.76,6.1 90.523,5.777 C90.289,5.451 89.946,5.29 89.502,5.29 Z M97.805,5.589 C97.771,5.568 97.695,5.535 97.576,5.5 C97.459,5.467 97.301,5.447 97.101,5.447 C96.654,5.447 96.303,5.568 96.051,5.809 C95.797,6.049 95.616,6.311 95.512,6.592 L95.512,12.798 L94.084,12.798 L94.084,4.336 L95.39,4.336 L95.39,5.482 L95.424,5.482 C95.484,5.317 95.56,5.156 95.653,4.997 C95.747,4.84 95.866,4.697 96.007,4.574 C96.15,4.45 96.318,4.353 96.509,4.283 C96.704,4.213 96.937,4.179 97.206,4.179 C97.405,4.179 97.567,4.197 97.69,4.232 C97.813,4.267 97.909,4.295 97.979,4.32 L97.805,5.589 Z M100.646,12.801 L99.215,12.801 L99.215,4.338 L100.646,4.338 L100.646,12.801 Z M99.94,2.293 C99.645,2.293 99.411,2.198 99.233,2.012 C99.057,1.824 98.968,1.575 98.968,1.273 C98.968,0.979 99.057,0.738 99.233,0.549 C99.411,0.361 99.645,0.268 99.94,0.268 C100.218,0.268 100.45,0.362 100.628,0.549 C100.806,0.736 100.894,0.978 100.894,1.273 C100.894,1.579 100.806,1.826 100.628,2.012 C100.448,2.198 100.219,2.293 99.94,2.293 Z M108.754,12.801 L107.45,12.801 L107.45,11.85 L107.414,11.85 C107.379,11.918 107.303,12.024 107.185,12.158 C107.068,12.294 106.916,12.424 106.736,12.548 C106.551,12.671 106.334,12.778 106.074,12.873 C105.814,12.969 105.527,13.017 105.211,13.017 C104.836,13.017 104.498,12.958 104.195,12.85 C103.896,12.739 103.639,12.559 103.428,12.313 C103.217,12.065 103.055,11.746 102.943,11.351 C102.834,10.955 102.777,10.472 102.777,9.897 L102.777,4.34 L104.205,4.34 L104.205,9.787 C104.205,10.492 104.32,10.995 104.551,11.295 C104.78,11.596 105.135,11.744 105.615,11.744 C106.029,11.744 106.375,11.641 106.656,11.435 C106.939,11.23 107.163,11.027 107.326,10.827 L107.326,4.34 L108.756,4.34 L108.754,12.801 L108.754,12.801 Z M115.383,12.801 L115.383,7.354 C115.383,6.661 115.282,6.162 115.084,5.856 C114.885,5.549 114.562,5.398 114.114,5.398 C113.879,5.398 113.67,5.426 113.487,5.486 C113.303,5.546 113.145,5.618 113.004,5.706 C112.863,5.795 112.737,5.894 112.633,5.997 C112.529,6.103 112.441,6.197 112.368,6.28 L112.368,12.802 L110.94,12.802 L110.94,4.338 L112.246,4.338 L112.246,5.291 L112.28,5.291 C112.34,5.196 112.426,5.082 112.545,4.946 C112.664,4.81 112.81,4.681 112.985,4.557 C113.162,4.434 113.366,4.328 113.6,4.246 C113.836,4.163 114.102,4.122 114.395,4.122 C115.358,4.122 116.041,4.499 116.44,5.252 C116.522,5.135 116.633,5.009 116.776,4.872 C116.918,4.737 117.082,4.614 117.268,4.503 C117.457,4.394 117.666,4.303 117.905,4.232 C118.138,4.161 118.397,4.127 118.679,4.127 C120.397,4.127 121.252,5.127 121.252,7.124 L121.252,12.803 L119.822,12.803 L119.822,7.355 C119.822,6.662 119.701,6.163 119.453,5.857 C119.207,5.55 118.842,5.399 118.359,5.399 C117.961,5.399 117.629,5.496 117.363,5.69 C117.099,5.883 116.89,6.069 116.736,6.246 C116.76,6.376 116.779,6.517 116.791,6.661 C116.804,6.808 116.811,6.964 116.811,7.128 L116.811,12.808 L115.381,12.808 L115.383,12.801 L115.383,12.801 Z M4.325,23.281 L2.597,23.281 L2.597,30.581 L1.169,30.581 L1.169,23.281 L0.146,23.281 L0.146,22.329 L1.169,22.137 L1.169,20.446 C1.169,19.988 1.232,19.592 1.362,19.264 C1.491,18.936 1.663,18.662 1.874,18.451 C2.085,18.239 2.331,18.087 2.614,17.993 C2.896,17.899 3.196,17.852 3.513,17.852 C3.819,17.852 4.076,17.893 4.289,17.976 C4.5,18.058 4.642,18.122 4.711,18.168 L4.412,19.351 C4.34,19.303 4.24,19.25 4.111,19.201 C3.982,19.152 3.823,19.122 3.634,19.122 C3.294,19.122 3.034,19.227 2.858,19.438 C2.682,19.65 2.593,20.038 2.593,20.602 L2.593,22.119 L4.499,22.119 L4.325,23.281 Z M11.659,30.58 L10.355,30.58 L10.355,29.628 L10.319,29.628 C10.283,29.698 10.208,29.802 10.09,29.939 C9.973,30.074 9.822,30.204 9.641,30.328 C9.457,30.451 9.238,30.559 8.98,30.654 C8.721,30.749 8.433,30.796 8.116,30.796 C7.74,30.796 7.402,30.739 7.102,30.629 C6.801,30.52 6.547,30.338 6.334,30.091 C6.123,29.844 5.961,29.526 5.85,29.129 C5.739,28.734 5.683,28.251 5.683,27.676 L5.683,22.12 L7.111,22.12 L7.111,27.568 C7.111,28.272 7.225,28.775 7.456,29.075 C7.685,29.375 8.04,29.525 8.521,29.525 C8.933,29.525 9.279,29.421 9.562,29.214 C9.844,29.009 10.068,28.808 10.231,28.607 L10.231,22.12 L11.659,22.12 L11.659,30.58 L11.659,30.58 Z M8.151,19.685 C8.151,19.955 8.068,20.171 7.903,20.335 C7.738,20.5 7.539,20.581 7.304,20.581 C7.069,20.581 6.868,20.498 6.704,20.335 C6.54,20.17 6.456,19.951 6.456,19.685 C6.456,19.414 6.54,19.197 6.704,19.033 C6.868,18.867 7.067,18.786 7.304,18.786 C7.538,18.786 7.738,18.868 7.903,19.033 C8.068,19.197 8.151,19.413 8.151,19.685 Z M10.866,19.685 C10.866,19.955 10.783,20.171 10.619,20.335 C10.455,20.5 10.254,20.581 10.019,20.581 C9.784,20.581 9.583,20.498 9.419,20.335 C9.255,20.17 9.171,19.951 9.171,19.685 C9.171,19.414 9.255,19.197 9.419,19.033 C9.583,18.867 9.782,18.786 10.019,18.786 C10.253,18.786 10.455,18.868 10.619,19.033 C10.783,19.197 10.866,19.413 10.866,19.685 Z M17.567,23.368 C17.531,23.347 17.456,23.316 17.338,23.28 C17.219,23.245 17.062,23.227 16.86,23.227 C16.414,23.227 16.064,23.348 15.812,23.587 C15.56,23.827 15.38,24.09 15.274,24.37 L15.274,30.576 L13.845,30.576 L13.845,22.114 L15.15,22.114 L15.15,23.26 L15.186,23.26 C15.246,23.095 15.321,22.934 15.415,22.775 C15.509,22.616 15.626,22.475 15.768,22.352 C15.909,22.228 16.077,22.13 16.269,22.061 C16.464,21.99 16.695,21.955 16.966,21.955 C17.165,21.955 17.327,21.976 17.45,22.012 C17.574,22.045 17.671,22.075 17.741,22.1 L17.567,23.368 Z M30.084,29.77 C30.002,29.838 29.879,29.931 29.715,30.041 C29.549,30.152 29.336,30.267 29.07,30.376 C28.806,30.486 28.491,30.583 28.127,30.666 C27.764,30.749 27.346,30.789 26.875,30.789 C26.183,30.789 25.539,30.684 24.944,30.464 C24.351,30.246 23.84,29.894 23.412,29.4 C22.981,28.907 22.647,28.252 22.406,27.434 C22.166,26.618 22.045,25.609 22.045,24.411 C22.045,23.271 22.194,22.307 22.496,21.519 C22.795,20.732 23.188,20.089 23.676,19.598 C24.164,19.104 24.717,18.745 25.334,18.531 C25.95,18.314 26.582,18.205 27.23,18.205 C27.689,18.205 28.081,18.246 28.403,18.329 C28.726,18.411 29.003,18.513 29.231,18.629 C29.46,18.746 29.645,18.863 29.788,18.983 C29.929,19.101 30.046,19.2 30.14,19.283 L29.417,20.359 C29.358,20.298 29.27,20.22 29.152,20.121 C29.034,20.022 28.883,19.925 28.701,19.83 C28.519,19.736 28.302,19.654 28.05,19.582 C27.796,19.514 27.501,19.478 27.158,19.478 C26.7,19.478 26.262,19.561 25.845,19.725 C25.429,19.889 25.062,20.163 24.743,20.553 C24.425,20.942 24.169,21.449 23.976,22.076 C23.783,22.703 23.685,23.484 23.685,24.412 C23.685,25.329 23.754,26.108 23.896,26.748 C24.038,27.392 24.249,27.912 24.531,28.317 C24.813,28.722 25.16,29.016 25.571,29.199 C25.983,29.384 26.466,29.472 27.017,29.472 C27.323,29.472 27.61,29.443 27.881,29.383 C28.152,29.321 28.393,29.253 28.604,29.17 L28.604,25.627 L26.665,25.627 L26.665,24.407 L30.085,24.407 L30.084,29.77 L30.084,29.77 Z M37.61,24.974 C37.61,25.337 37.6,25.653 37.577,25.914 C37.555,26.181 37.53,26.411 37.506,26.61 L33.189,26.61 C33.236,27.61 33.451,28.344 33.834,28.815 C34.217,29.285 34.766,29.52 35.48,29.52 C35.728,29.52 35.951,29.491 36.15,29.432 C36.349,29.37 36.523,29.303 36.671,29.22 C36.817,29.138 36.941,29.056 37.04,28.973 C37.14,28.891 37.214,28.827 37.261,28.78 L37.79,29.785 C37.729,29.848 37.644,29.931 37.524,30.041 C37.407,30.152 37.251,30.267 37.046,30.376 C36.847,30.486 36.602,30.584 36.309,30.666 C36.014,30.75 35.665,30.789 35.268,30.789 C34.737,30.789 34.257,30.701 33.83,30.525 C33.399,30.349 33.034,30.075 32.735,29.706 C32.436,29.337 32.205,28.866 32.041,28.296 C31.877,27.728 31.793,27.041 31.793,26.241 C31.793,25.489 31.879,24.841 32.049,24.294 C32.219,23.747 32.45,23.299 32.744,22.944 C33.037,22.59 33.379,22.33 33.766,22.159 C34.155,21.989 34.571,21.903 35.018,21.903 C35.83,21.903 36.461,22.159 36.92,22.671 C37.383,23.184 37.61,23.95 37.61,24.974 Z M34.933,23.07 C34.428,23.07 34.023,23.281 33.715,23.704 C33.409,24.128 33.236,24.739 33.189,25.538 L36.275,25.538 C36.287,25.479 36.296,25.394 36.299,25.282 C36.305,25.172 36.31,25.053 36.31,24.922 C36.31,24.333 36.191,23.879 35.957,23.556 C35.721,23.23 35.381,23.07 34.933,23.07 Z M43.166,23.827 C43.071,23.723 42.901,23.577 42.653,23.395 C42.407,23.21 42.084,23.122 41.682,23.122 C41.307,23.122 41.02,23.211 40.819,23.39 C40.621,23.566 40.52,23.778 40.52,24.024 C40.52,24.339 40.612,24.603 40.793,24.808 C40.974,25.013 41.254,25.234 41.629,25.469 L42.156,25.784 C42.732,26.125 43.185,26.492 43.515,26.888 C43.842,27.282 44.006,27.788 44.006,28.411 C44.006,29.081 43.775,29.645 43.312,30.104 C42.849,30.562 42.18,30.792 41.31,30.792 C40.97,30.792 40.67,30.758 40.412,30.688 C40.152,30.618 39.928,30.535 39.734,30.441 C39.54,30.347 39.379,30.244 39.25,30.132 C39.119,30.021 39.015,29.915 38.932,29.821 L39.621,28.693 C39.689,28.764 39.775,28.845 39.875,28.94 C39.977,29.034 40.097,29.126 40.236,29.212 C40.379,29.299 40.537,29.373 40.713,29.433 C40.891,29.492 41.096,29.521 41.33,29.521 C41.754,29.521 42.076,29.427 42.301,29.239 C42.524,29.051 42.635,28.822 42.635,28.551 C42.635,28.351 42.61,28.178 42.557,28.03 C42.504,27.884 42.424,27.752 42.319,27.634 C42.215,27.516 42.084,27.404 41.93,27.298 C41.778,27.192 41.602,27.072 41.401,26.944 L40.875,26.608 C40.346,26.268 39.933,25.909 39.633,25.533 C39.332,25.157 39.183,24.678 39.183,24.089 C39.183,23.774 39.246,23.482 39.371,23.218 C39.492,22.951 39.668,22.725 39.891,22.53 C40.116,22.337 40.377,22.183 40.676,22.072 C40.977,21.962 41.295,21.904 41.637,21.904 C41.965,21.904 42.248,21.936 42.485,22.002 C42.719,22.066 42.923,22.148 43.092,22.249 C43.262,22.352 43.403,22.449 43.514,22.55 C43.627,22.651 43.717,22.737 43.787,22.806 L43.166,23.827 Z M51.612,30.58 L50.305,30.58 L50.305,29.628 L50.27,29.628 C50.235,29.698 50.159,29.802 50.041,29.939 C49.922,30.074 49.771,30.204 49.592,30.328 C49.408,30.451 49.19,30.559 48.931,30.654 C48.672,30.749 48.383,30.796 48.067,30.796 C47.69,30.796 47.354,30.739 47.051,30.629 C46.752,30.52 46.496,30.338 46.283,30.091 C46.07,29.844 45.912,29.526 45.801,29.129 C45.69,28.734 45.633,28.251 45.633,27.676 L45.633,22.12 L47.061,22.12 L47.061,27.568 C47.061,28.272 47.174,28.775 47.407,29.075 C47.636,29.375 47.991,29.525 48.472,29.525 C48.883,29.525 49.231,29.421 49.512,29.214 C49.795,29.009 50.018,28.808 50.184,28.607 L50.184,22.12 L51.612,22.12 L51.612,30.58 L51.612,30.58 Z M58.416,30.58 L58.416,25.134 C58.416,24.416 58.297,23.904 58.057,23.592 C57.816,23.279 57.449,23.123 56.953,23.123 C56.53,23.123 56.178,23.228 55.895,23.44 C55.612,23.651 55.388,23.857 55.225,24.057 L55.225,30.578 L53.795,30.578 L53.795,22.115 L55.102,22.115 L55.102,23.068 L55.135,23.068 C55.17,22.997 55.248,22.894 55.364,22.758 C55.483,22.62 55.635,22.492 55.823,22.368 C56.011,22.245 56.237,22.139 56.495,22.042 C56.753,21.947 57.048,21.9 57.376,21.9 C57.751,21.9 58.093,21.958 58.397,22.068 C58.704,22.179 58.96,22.359 59.171,22.606 C59.384,22.853 59.548,23.173 59.665,23.567 C59.781,23.963 59.841,24.446 59.841,25.023 L59.841,30.576 L58.416,30.58 L58.416,30.58 Z M61.592,26.473 C61.592,25.615 61.702,24.897 61.926,24.322 C62.15,23.746 62.439,23.281 62.789,22.928 C63.143,22.574 63.543,22.324 63.987,22.178 C64.434,22.032 64.881,21.955 65.33,21.955 C65.601,21.955 65.834,21.976 66.034,22.018 C66.233,22.06 66.397,22.11 66.528,22.165 L66.528,18.11 L67.957,17.951 L67.957,30.575 L66.651,30.575 L66.651,29.679 L66.616,29.679 C66.58,29.747 66.515,29.846 66.422,29.97 C66.329,30.094 66.198,30.216 66.034,30.339 C65.868,30.461 65.664,30.568 65.418,30.654 C65.172,30.74 64.881,30.786 64.553,30.786 C64.156,30.786 63.777,30.707 63.416,30.549 C63.057,30.392 62.741,30.14 62.474,29.789 C62.203,29.443 61.99,28.996 61.828,28.45 C61.67,27.909 61.592,27.248 61.592,26.473 Z M64.94,29.523 C65.165,29.523 65.366,29.494 65.542,29.435 C65.718,29.373 65.872,29.302 66.001,29.213 C66.13,29.125 66.237,29.033 66.325,28.942 C66.415,28.848 66.481,28.766 66.528,28.695 L66.528,23.476 C66.397,23.394 66.251,23.323 66.079,23.265 C65.909,23.204 65.694,23.176 65.434,23.176 C65.106,23.176 64.796,23.233 64.509,23.344 C64.22,23.453 63.97,23.642 63.759,23.9 C63.546,24.159 63.38,24.494 63.257,24.905 C63.132,25.317 63.069,25.822 63.069,26.423 C63.069,27.012 63.121,27.502 63.219,27.897 C63.321,28.293 63.457,28.608 63.633,28.849 C63.811,29.088 64.01,29.262 64.235,29.369 C64.459,29.469 64.692,29.523 64.94,29.523 Z M74.762,30.58 L74.762,25.134 C74.762,24.416 74.642,23.904 74.402,23.592 C74.16,23.279 73.795,23.123 73.299,23.123 C72.875,23.123 72.523,23.228 72.239,23.44 C71.957,23.651 71.733,23.857 71.569,24.057 L71.569,30.578 L70.141,30.578 L70.141,18.114 L71.569,17.955 L71.569,22.98 L71.604,22.98 C71.653,22.91 71.723,22.815 71.825,22.698 C71.926,22.581 72.063,22.465 72.239,22.346 C72.418,22.228 72.631,22.122 72.885,22.034 C73.137,21.946 73.433,21.902 73.775,21.902 C74.515,21.902 75.103,22.143 75.541,22.627 C75.977,23.108 76.193,23.907 76.193,25.023 L76.193,30.577 L74.762,30.577 L74.762,30.58 Z M83.752,24.974 C83.752,25.337 83.739,25.653 83.717,25.914 C83.695,26.181 83.67,26.411 83.648,26.61 L79.33,26.61 C79.377,27.61 79.592,28.344 79.973,28.815 C80.356,29.285 80.907,29.52 81.623,29.52 C81.867,29.52 82.094,29.491 82.291,29.432 C82.49,29.37 82.666,29.303 82.812,29.22 C82.958,29.138 83.083,29.056 83.182,28.973 C83.283,28.891 83.355,28.827 83.402,28.78 L83.931,29.785 C83.872,29.848 83.783,29.931 83.665,30.041 C83.55,30.152 83.39,30.267 83.188,30.376 C82.989,30.486 82.741,30.584 82.448,30.666 C82.155,30.749 81.807,30.789 81.407,30.789 C80.88,30.789 80.401,30.701 79.969,30.525 C79.541,30.349 79.178,30.075 78.877,29.706 C78.577,29.337 78.344,28.866 78.181,28.296 C78.019,27.728 77.935,27.041 77.935,26.241 C77.935,25.489 78.021,24.841 78.193,24.294 C78.361,23.747 78.592,23.299 78.887,22.944 C79.18,22.59 79.523,22.33 79.908,22.159 C80.298,21.989 80.716,21.903 81.16,21.903 C81.972,21.903 82.605,22.159 83.064,22.671 C83.524,23.184 83.752,23.95 83.752,24.974 Z M81.073,23.07 C80.567,23.07 80.161,23.281 79.856,23.704 C79.549,24.128 79.375,24.739 79.328,25.538 L82.414,25.538 C82.426,25.479 82.435,25.394 82.438,25.282 C82.444,25.172 82.448,25.053 82.448,24.922 C82.448,24.333 82.33,23.879 82.094,23.556 C81.858,23.23 81.521,23.07 81.073,23.07 Z M87.086,30.58 L85.657,30.58 L85.657,22.117 L87.086,22.117 L87.086,30.58 Z M86.381,20.073 C86.088,20.073 85.853,19.979 85.674,19.791 C85.5,19.603 85.409,19.356 85.409,19.052 C85.409,18.759 85.498,18.518 85.674,18.328 C85.853,18.14 86.088,18.046 86.381,18.046 C86.664,18.046 86.892,18.142 87.069,18.328 C87.246,18.516 87.334,18.759 87.334,19.052 C87.334,19.359 87.246,19.606 87.069,19.791 C86.892,19.978 86.662,20.073 86.381,20.073 Z M92.885,23.281 L91.034,23.281 L91.034,27.971 C91.034,28.571 91.11,28.979 91.263,29.197 C91.417,29.414 91.675,29.523 92.038,29.523 C92.251,29.523 92.434,29.494 92.585,29.435 C92.737,29.373 92.851,29.323 92.921,29.277 L93.114,30.423 C93.053,30.469 92.915,30.541 92.69,30.643 C92.466,30.743 92.169,30.791 91.792,30.791 C91.063,30.791 90.517,30.59 90.151,30.186 C89.788,29.78 89.604,29.107 89.604,28.165 L89.604,23.281 L88.583,23.281 L88.583,22.329 L89.604,22.118 L89.762,19.756 L91.032,19.756 L91.032,22.118 L93.059,22.118 L92.885,23.281 Z" id="Shape" fill-rule="nonzero"/>
            </g>
        </g>
        <g id="Logos-/-BMG-/-M" transform="translate(1.000000, 1.000000)">
            <g id="Bundesministerium-für-Gesundheit-(BMG)---Bundesgesundheitsministerium-0-Copy" fill="#000000">
                <path d="M30.104,11.776 C31.621,14.172 32.808,14.131 34.601,14.131 C33.117,12.993 32.136,11.538 31.668,10.794 L28.897,6.36 C28.626,4.991 27.918,3.711 26.858,2.756 C27.213,2.621 27.511,2.482 27.69,2.344 C25.879,2.344 24.086,1.425 23.101,1.425 C22.465,1.425 22.059,1.804 22.059,2.307 C22.1,2.866 22.673,3.433 23.736,3.433 C23.977,3.433 24.285,3.402 24.623,3.343 C25.198,4.147 25.662,4.869 25.662,5.906 C25.662,7.844 23.341,9.36 20.998,9.36 C20.866,9.36 20.74,9.355 20.607,9.342 C20.394,8.863 19.689,8.053 19.689,7.134 C19.689,5.592 20.695,4.333 20.695,2.804 C20.695,1.858 20.232,1.271 20.054,1.026 C20.342,0.756 20.658,0.428 20.73,0.207 C20.564,0.28 20.367,0.29 20.078,0.29 C18.954,0.29 18.039,-0.002 17.145,-0.002 C16.636,-0.002 16.499,0.156 16.499,0.305 C16.499,0.362 16.508,0.416 16.521,0.446 C16.332,0.371 16.153,0.323 15.941,0.284 C15.678,0.234 15.394,0.209 15.091,0.209 C14.007,0.209 13.621,0.664 13.621,1.053 C13.621,1.383 13.881,1.988 14.176,2.447 C14.599,2.234 15.107,2.09 15.338,2.09 C15.913,2.09 16.426,2.639 16.696,3.288 C16.308,3.334 16.234,3.351 15.842,3.351 C14.786,3.351 14.07,2.972 13.919,2.972 C13.905,2.972 13.877,2.981 13.877,3.002 C13.877,3.151 14.178,3.542 14.768,3.757 C15.544,4.042 16.709,4.16 16.905,4.195 C16.905,4.227 16.708,4.594 16.488,4.668 C16.44,4.683 16.405,4.686 16.35,4.674 C15.537,4.513 15.31,4.445 14.282,4.053 C14.25,4.041 14.231,4.061 14.231,4.094 C14.231,4.501 15.287,5.402 16.231,5.744 C15.441,6.752 14.457,7.783 13.992,9.353 C13.859,9.365 13.732,9.37 13.6,9.37 C11.256,9.37 8.937,7.856 8.937,5.916 C8.937,4.882 9.401,4.158 9.977,3.355 C10.315,3.411 10.623,3.443 10.864,3.443 C11.927,3.443 12.501,2.875 12.543,2.317 C12.543,1.816 12.136,1.436 11.499,1.436 C10.513,1.436 8.722,2.356 6.91,2.356 C7.091,2.489 7.389,2.63 7.743,2.767 C6.683,3.718 5.974,4.998 5.704,6.368 L2.933,10.801 C2.467,11.543 1.483,12.998 0,14.135 C1.793,14.135 2.98,14.175 4.498,11.78 L5.918,9.507 C6.022,9.802 6.152,10.089 6.306,10.371 L3.48,14.891 C3.01,15.64 2.037,17.083 0.546,18.227 C2.338,18.227 3.525,18.27 5.043,15.873 L7.477,11.978 C7.66,12.169 7.851,12.362 8.053,12.541 L4.62,18.036 C4.147,18.786 3.181,20.224 1.686,21.37 C3.479,21.37 4.666,21.413 6.184,19.015 L9.53,13.661 C9.75,13.8 9.975,13.934 10.209,14.062 L6.125,20.595 C5.653,21.347 4.686,22.783 3.192,23.927 C4.985,23.927 6.172,23.97 7.69,21.573 L11.894,14.843 C12.143,14.941 12.396,15.031 12.652,15.114 L7.901,22.717 C7.437,23.459 6.446,24.92 4.969,26.051 C6.761,26.051 7.949,26.092 9.465,23.697 L14.529,15.591 C14.58,15.6 14.632,15.611 14.68,15.618 C14.819,16.056 14.913,16.464 14.913,16.872 C14.913,19.417 13.243,21.667 11.236,23.403 C11.364,23.46 11.588,23.479 11.795,23.479 C12.209,23.479 12.477,23.458 12.664,23.422 C12.199,24.479 11.202,25.842 10.697,26.547 C10.04,26.43 9.086,26.336 8.46,26.336 C7.807,26.336 7.731,26.721 7.731,27.063 C7.731,27.659 8.008,28.129 8.334,28.395 C8.455,28.088 8.699,27.684 9.909,27.684 C9.931,27.684 9.973,27.688 10.031,27.692 C9.677,28.087 8.571,28.979 8.571,29.7 C8.571,30.179 9.093,30.891 9.784,30.891 C9.742,30.739 9.748,30.594 9.748,30.491 C9.748,29.907 10.266,29.221 10.701,28.747 C10.688,28.89 10.695,28.874 10.695,29.04 C10.695,30.421 10.82,31.056 11.696,31.056 C12.126,31.056 12.424,30.82 12.523,30.749 C11.955,30.226 11.924,29.813 11.924,29.04 C11.925,28.839 11.926,28.642 11.929,28.37 C11.931,28.192 11.929,27.958 11.901,27.79 C12.214,27.747 12.34,27.747 12.583,27.747 C12.583,27.747 13.828,27.647 14.126,28.294 C14.464,27.983 14.954,27.548 14.954,27.065 C14.954,26.749 14.804,26.385 14.162,26.385 C13.919,26.385 13.157,26.533 12.517,26.533 C12.688,26.152 13.454,25.035 14.115,24.222 C14.216,24.536 14.371,24.876 14.719,25.156 C14.766,24.635 15.073,22.986 15.887,22.021 C15.981,22.671 16.111,23.339 16.111,24.75 C16.111,28.18 15.287,30.709 13.537,31.193 C13.766,31.589 14.245,31.947 14.745,31.947 C15.386,31.947 15.734,31.22 16.089,30.539 C16.276,31.043 16.785,32.279 17.299,32.279 C17.811,32.279 18.322,31.043 18.508,30.539 C18.862,31.223 19.211,31.947 19.852,31.947 C20.352,31.947 20.832,31.59 21.061,31.193 C19.311,30.711 18.487,28.175 18.487,24.75 C18.487,23.342 18.614,22.672 18.709,22.021 C19.523,22.986 19.831,24.632 19.878,25.156 C20.226,24.879 20.383,24.539 20.482,24.222 C21.144,25.035 21.908,26.152 22.081,26.533 C21.44,26.533 20.679,26.385 20.435,26.385 C19.794,26.385 19.644,26.746 19.644,27.065 C19.644,27.545 20.134,27.983 20.472,28.294 C20.771,27.649 22.016,27.747 22.016,27.747 C22.257,27.747 22.383,27.747 22.699,27.79 C22.67,27.958 22.668,28.192 22.669,28.37 C22.672,28.641 22.673,28.839 22.673,29.04 C22.673,29.813 22.645,30.226 22.075,30.749 C22.178,30.819 22.472,31.056 22.902,31.056 C23.779,31.056 23.904,30.421 23.904,29.04 C23.904,28.874 23.908,28.89 23.896,28.747 C24.334,29.224 24.849,29.907 24.849,30.491 C24.849,30.595 24.855,30.739 24.813,30.891 C25.502,30.891 26.027,30.176 26.027,29.7 C26.027,28.979 24.922,28.085 24.566,27.692 C24.625,27.688 24.666,27.684 24.688,27.684 C25.898,27.684 26.142,28.088 26.264,28.395 C26.587,28.129 26.867,27.659 26.867,27.063 C26.867,26.721 26.794,26.336 26.139,26.336 C25.513,26.336 24.558,26.43 23.9,26.547 C23.396,25.842 22.399,24.479 21.933,23.422 C22.121,23.455 22.389,23.479 22.802,23.479 C23.01,23.479 23.232,23.458 23.362,23.403 C21.355,21.667 19.683,19.417 19.683,16.872 C19.683,16.463 19.781,16.056 19.917,15.618 C19.968,15.606 20.02,15.597 20.07,15.591 L25.133,23.697 C26.65,26.092 27.838,26.051 29.629,26.051 C28.154,24.92 27.163,23.457 26.7,22.717 L21.945,15.114 C22.202,15.031 22.455,14.939 22.703,14.843 L26.908,21.573 C28.426,23.969 29.613,23.927 31.405,23.927 C29.913,22.782 28.945,21.347 28.473,20.595 L24.388,14.062 C24.619,13.934 24.846,13.796 25.066,13.661 L28.414,19.015 C29.933,21.413 31.118,21.37 32.909,21.37 C31.419,20.225 30.451,18.786 29.977,18.036 L26.545,12.541 C26.747,12.361 26.941,12.171 27.119,11.978 L29.553,15.873 C31.071,18.27 32.257,18.227 34.051,18.227 C32.56,17.082 31.589,15.64 31.116,14.89 L28.292,10.369 C28.444,10.088 28.573,9.801 28.68,9.505 L30.104,11.776 Z M7.427,6.571 C7.427,4.883 8.655,3.547 9.086,3.17 C9.19,3.195 9.294,3.22 9.399,3.242 C8.94,3.803 8.128,4.742 8.128,5.988 C8.128,8.459 10.77,10.604 13.758,10.604 C13.738,10.816 13.729,11.039 13.729,11.267 C13.729,11.629 13.75,11.97 13.787,12.29 C10.403,12.269 7.427,9.527 7.427,6.571 Z M12.008,26.829 L11.988,26.886 L12.048,26.886 C12.997,26.886 13.459,26.822 13.766,26.777 C13.927,26.756 14.041,26.738 14.165,26.738 C14.41,26.738 14.6,26.759 14.6,27.062 C14.6,27.263 14.362,27.585 14.131,27.773 C13.781,27.445 13.297,27.377 12.586,27.377 C12.253,27.377 11.817,27.44 11.585,27.471 L11.547,27.475 L11.506,27.483 L11.521,27.592 C11.547,27.789 11.584,28.033 11.584,28.363 L11.58,28.662 L11.576,29.035 C11.576,29.84 11.686,30.301 11.97,30.646 C11.897,30.673 11.779,30.697 11.701,30.697 C11.201,30.697 11.055,30.478 11.055,29.035 C11.055,28.746 11.039,28.472 11.029,28.293 L11.015,28.025 L10.952,28.074 C10.208,28.638 9.441,29.654 9.395,30.412 C9.169,30.267 8.929,29.943 8.929,29.695 C8.929,29.281 9.549,28.66 10.27,27.941 L10.684,27.527 L10.737,27.47 L10.6,27.439 C10.445,27.398 10.159,27.326 9.912,27.326 C9.103,27.326 8.599,27.478 8.287,27.818 C8.177,27.656 8.081,27.279 8.081,27.054 C8.081,26.911 8.109,26.812 8.167,26.753 C8.237,26.687 8.348,26.687 8.442,26.687 L8.463,26.687 C9.353,26.687 10.416,26.845 10.831,26.914 L10.855,26.92 L10.872,26.9 C10.943,26.8 12.641,24.545 13.08,23.343 C13.182,23.306 13.268,23.28 13.446,23.28 C13.78,23.28 13.872,23.505 13.968,23.846 C12.909,25.138 12.249,26.142 12.008,26.829 Z M21.156,23.282 C21.333,23.282 21.42,23.309 21.521,23.345 C21.96,24.544 23.658,26.802 23.729,26.902 L23.746,26.923 L23.77,26.917 C24.185,26.853 25.249,26.69 26.138,26.69 L26.158,26.69 C26.255,26.69 26.365,26.69 26.433,26.754 C26.491,26.815 26.519,26.914 26.519,27.059 C26.519,27.282 26.424,27.659 26.313,27.821 C26,27.479 25.498,27.329 24.688,27.329 C24.444,27.329 24.158,27.401 24.001,27.442 L23.938,27.456 L23.866,27.477 L24.333,27.944 C25.054,28.663 25.675,29.284 25.675,29.698 C25.675,29.948 25.434,30.27 25.209,30.417 C25.161,29.659 24.396,28.646 23.65,28.079 L23.587,28.03 L23.575,28.296 C23.563,28.48 23.548,28.749 23.548,29.038 C23.548,30.481 23.402,30.7 22.902,30.7 C22.826,30.7 22.709,30.677 22.635,30.651 C22.915,30.299 23.028,29.84 23.028,29.038 L23.024,28.665 L23.02,28.364 C23.02,28.034 23.055,27.79 23.082,27.593 L23.098,27.484 L23.019,27.472 C22.787,27.441 22.351,27.38 22.019,27.38 C21.307,27.38 20.825,27.444 20.474,27.776 C20.245,27.587 20.005,27.266 20.005,27.063 C20.005,26.76 20.193,26.739 20.439,26.739 C20.564,26.739 20.679,26.757 20.839,26.776 C21.146,26.821 21.608,26.887 22.557,26.887 L22.617,26.887 L22.597,26.828 C22.356,26.14 21.696,25.139 20.637,23.849 C20.728,23.507 20.821,23.282 21.156,23.282 Z M17.228,3.575 C17.123,3.136 16.897,2.685 16.611,2.346 C16.351,2.039 15.921,1.674 15.34,1.674 C15.075,1.674 14.63,1.798 14.349,1.918 C14.244,1.728 14.036,1.262 14.036,1.052 C14.036,0.838 14.399,0.62 15.096,0.62 C16.624,0.62 17.537,1.31 17.537,2.47 C17.537,2.876 17.375,3.247 17.228,3.575 Z M17.916,2.069 C17.86,1.742 17.736,1.445 17.547,1.191 C17.558,0.888 17.68,0.605 18.161,0.837 C17.9,1.107 18.101,1.576 18.101,1.576 C18.101,1.576 18.634,1.329 18.524,0.976 C19.315,1.17 18.747,2.232 17.916,2.069 Z M20.89,12.291 C20.931,11.96 20.953,11.617 20.953,11.267 C20.953,11.078 20.954,10.856 20.932,10.604 C23.883,10.562 26.474,8.436 26.474,5.989 C26.474,4.744 25.661,3.802 25.203,3.244 C25.307,3.223 25.411,3.198 25.516,3.172 C25.948,3.548 27.175001,4.884 27.175001,6.573 C27.177,9.506 24.242,12.229 20.89,12.291 Z" id="Shape" fill-rule="nonzero"/>
            </g>
            <g id="Group" transform="translate(43.000000, 0.000000)">
                <rect id="Rectangle" fill="#000000" x="0" y="0" width="5" height="11"/>
                <rect id="Rectangle-Copy" fill="#FF0000" x="0" y="11" width="5" height="11"/>
                <rect id="Rectangle-Copy-2" fill="#F7D100" x="0" y="22" width="5" height="11"/>
            </g>
        </g>
    </g>
</svg>