<svg xmlns="http://www.w3.org/2000/svg" viewBox="0 0 1663.53 340" fill="#010357">
  <path d="M0 335.33V15.88h188.68v39.23H47.64v100.41h124.23v39.7H47.64v140.11H0zM218.65 335.33V101.81h45.3v233.52h-45.3zm50.88-300.78c0-15.46-12.54-28-28-28s-28 12.54-28 28 12.54 28 28 28 28-12.53 28-28zM322.1 280.69V0h45.3v278.82c0 21.02 3.74 26.15 18.68 26.15 6.07 0 11.68-.47 16.81-1.4v30.36c-9.81 2.8-20.08 4.2-29.89 4.2-34.08 0-50.9-19.15-50.9-57.44zM419.2 217.64c0-78.46 41.57-121.43 110.22-121.43 31.29 0 55.58 9.81 72.86 29.89 17.28 19.61 26.15 45.3 26.15 77.53 0 7.01-.47 14.95-1.87 24.29H464.03c.93 50.91 22.42 76.59 64.45 76.59 31.76 0 53.24-14.48 53.24-42.03h43.9c0 48.57-39.7 77.53-97.61 77.53-67.72-.01-108.81-40.64-108.81-122.37zm164.39-23.82c-.93-41.57-19.62-62.12-55.58-62.12-39.7 0-59.78 24.29-63.52 62.12h119.1zM659.38 265.27h44.84c1.87 28.49 18.68 38.76 51.84 38.76 28.49 0 46.7-14.95 46.7-35.03 0-20.55-16.81-28.49-48.1-35.96l-13.08-2.8-14.48-3.74-12.61-4.2c-6.07-1.87-10.74-3.27-13.08-4.67-5.14-3.27-17.28-8.87-21.48-14.48-7.47-8.87-15.41-21.49-14.01-38.76 0-21.02 8.41-37.83 25.22-49.97 17.28-12.14 37.83-18.22 62.12-18.22 55.58 0 91.54 22.42 91.54 72.39h-42.97c-.47-26.62-16.81-36.43-49.04-36.43-24.28 0-40.63 11.21-40.63 31.29 0 18.68 15.88 25.69 49.04 33.63l5.6 1.4c10.28 2.34 18.22 4.67 23.35 6.07 5.14 1.4 12.14 4.2 21.02 8.41 23.82 10.28 34.56 25.69 36.9 56.05 0 43.43-37.83 70.99-92.47 70.99-62.13 0-96.22-26.15-96.22-74.73zM902.67 278.82V134.51h-39.23v-32.69h39.7V36.43h44.84v65.38h63.98v32.69h-63.98v143.38c0 17.28 8.87 25.69 26.15 25.69 14.48 0 28.02-1.87 39.7-5.14v34.56c-13.55 4.2-28.02 6.07-43.44 6.07-44.84.01-67.72-21.48-67.72-60.24zM1033.93 267.61c0-44.84 35.03-69.59 93.41-69.59h58.38v-20.55c0-28.49-16.81-45.77-49.97-45.77-35.5 0-51.84 16.81-51.84 41.57h-43.44c0-44.84 33.16-77.06 95.28-77.06 61.18 0 95.74 30.36 95.74 83.13v92.47c0 26.15 3.74 32.22 17.28 33.63h6.54v29.42c-4.67 1.4-11.68 2.34-21.49 2.34-26.62 0-41.57-15.88-43.43-41.57-8.87 23.82-36.43 44.37-74.26 44.37-49.98 0-82.2-29.42-82.2-72.39zm151.78-28.02v-9.34h-58.38c-32.23 0-48.57 12.61-48.57 37.36 0 22.88 14.01 36.9 41.57 36.9 40.63 0 65.38-28.03 65.38-64.92zM1290.29 337.2V103.68h43.9l.93 36.43h.93c11.68-24.75 34.09-40.63 62.11-40.63 8.41 0 15.88.93 22.88 3.27v38.76c-7.47-1.4-15.88-1.87-25.69-1.87-33.16 0-59.31 28.02-59.31 72.86v124.7h-45.75zM1491.162 135.744l155.352-89.695 16.98 29.409-155.352 89.695z"/>
  <path d="M1491.189 75.471l16.98-29.41 155.352 89.696-16.98 29.409z"/>
  <path d="M1560.38 15.88h33.96v179.39h-33.96z"/>
</svg>