<svg xmlns="http://www.w3.org/2000/svg" xmlns:xlink="http://www.w3.org/1999/xlink" version="1.1" width="3200" height="1154.0761739378822" viewBox="0 0 3200 1154.0761739378822">
	<rect fill="#3532a7" width="3200" height="1154.0761739378822"/>
	<g transform="scale(10) translate(0, 0)">
		<g transform="matrix(34.15315873056845,0,0,34.15315873056845,-17.80797520240224,-11.172110242705177)" fill="#ffffff">
			<g xmlns="http://www.w3.org/2000/svg" transform="translate(0,-292.76665)">
				<path
					d="m 1.9707031,1.2363281 0.037109,1.2539063 c 0.045766,1.6987464 -0.2208884,3.9946025 0.2949219,6.171875 0.5158104,2.1773106 1.9042325,4.2467196 5.0429687,5.2929686 l 0.1621094,0.05273 0.1542969,-0.05273 C 10.801595,12.908603 12.189401,10.829338 12.705078,8.6484375 13.220755,6.4675367 12.96208,4.1725777 13.007812,2.4902344 l 0.0293,-1.2539063 -0.886718,0.8867188 c -0.323222,0.3231496 -1.231771,0.6035156 -2.148438,0.6035156 -0.9166672,0 -1.8174027,-0.2801392 -2.1406249,-0.6035156 L 7.5078125,1.7675781 7.1523438,2.1230469 C 6.8291223,2.4461965 5.9225271,2.7265625 5.0058594,2.7265625 c -0.9166681,0 -1.8252141,-0.2801392 -2.1484375,-0.6035156 z m 5.5371094,1.8613281 c 0.6775975,0.496441 1.5453855,0.70173 2.4941405,0.70173 0.747278,0 1.353879,-0.2446774 1.970703,-0.5318081 0.0016,1.6764095 0.168228,3.4146426 -0.242187,5.1503907 C 11.281358,10.31737 10.201923,11.941299 7.5,12.90625 4.8029439,11.941072 3.7259154,10.327061 3.2773438,8.4335938 2.8669219,6.7011339 3.0317098,4.9550994 3.0332031,3.2675781 c 0.6168245,0.2868662 1.2253775,0.5318081 1.9726563,0.5318081 0.9490711,0 1.8243167,-0.2047599 2.5019531,-0.70173 z M 10.150391,5.0898438 6.5039062,8.7363281 4.8574219,7.0898438 4.1484375,7.7988281 6.5039062,10.154297 10.859375,5.7988281 Z" 
					transform="matrix(0.26458333,0,0,0.26458333,0,292.76665)"
				/>
			</g>
		</g>
		<g transform="matrix(0.6634703948001156,0,0,0.6634703948001156,118.44495804361678,40.198914217173574)" fill="#ffffff">
			<path d="M2.3438 12.050999999999998 l0 27.949 l4.2383 0 l0 -11.895 l7.7344 0 l0 -4.2383 l-7.7344 0 l0 -7.5781 l10.02 0 l0 -4.2383 l-14.258 0 z M25.70315 18.945 c-1.9531 1.9531 -2.9297 4.31 -2.9297 7.0703 s0.97656 5.1172 2.9297 7.0703 s4.31 2.9297 7.0703 2.9297 s5.1172 -0.97656 7.0703 -2.9297 s2.9297 -4.31 2.9297 -7.0703 s-0.97656 -5.1172 -2.9297 -7.0703 s-4.31 -2.9297 -7.0703 -2.9297 s-5.1172 0.97656 -7.0703 2.9297 z M22.69535 36.0937 c-2.7865 -2.7865 -4.1797 -6.1459 -4.1797 -10.078 s1.3932 -7.2916 4.1797 -10.078 s6.1459 -4.1797 10.078 -4.1797 s7.2916 1.3932 10.078 4.1797 s4.1797 6.1459 4.1797 10.078 s-1.3932 7.2916 -4.1797 10.078 s-6.1459 4.1797 -10.078 4.1797 s-7.2916 -1.3932 -10.078 -4.1797 z M54.33595 23.984 l0 -7.6953 l6.0742 0 c1.0547 0 1.9596 0.3776 2.7148 1.1328 c0.74219 0.75521 1.1133 1.6667 1.1133 2.7344 c0 1.0547 -0.37109 1.9531 -1.1133 2.6953 c-0.75521 0.75521 -1.6602 1.1328 -2.7148 1.1328 l-6.0742 0 z M63.573750000000004 27.578 c1.4583 -0.625 2.6367 -1.6015 3.5352 -2.9297 c0.92447 -1.3542 1.3867 -2.8516 1.3867 -4.4922 c0 -2.2396 -0.79428 -4.1471 -2.3828 -5.7227 c-1.5755 -1.5885 -3.4766 -2.3828 -5.7031 -2.3828 l-10.313 0 l0 27.949 l4.2383 0 l0 -11.777 l4.7852 0 l6.1133 11.777 l4.7852 0 z M96.914125 12.050999999999998 l-9.9609 22.813 l-9.8438 -22.813 l-4.4336 0 l0 27.949 l4.2383 0 l0 -17.637 l7.6367 17.637 l4.7852 0 l7.7734 -17.754 l0 17.754 l4.2383 0 l0 -27.949 l-4.4336 0 z M115.87894375 12.050999999999998 l0 27.949 l5.1953 0 l16.465 -27.949 l-4.9219 0 l-12.48 21.191 l0 -21.191 l-4.2578 0 z M142.12921875 12.050999999999998 l-17.676 27.949 l5.0195 0 l4.1211 -6.5234 l9.4922 0 l0 6.5234 l4.2578 0 l0 -27.949 l-5.2148 0 z M143.08621875 18.477 l0 10.762 l-6.8164 0 z M152.109425 12.050999999999998 l0 27.949 l14.258 0 l0 -4.2383 l-10.02 0 l0 -23.711 l-4.2383 0 z M174.042975 12.09 l-4.2383 0 l0 27.91 l4.2383 0 l0 -27.91 z M182.812525 35.7812 l3.125 -0.000019073 c2.6822 0 4.9805 -0.95703 6.8945 -2.8711 c1.901 -1.901 2.8516 -4.1928 2.8516 -6.875 c0 -2.6953 -0.95053 -4.9936 -2.8516 -6.8945 c-1.9141 -1.9141 -4.2123 -2.8711 -6.8945 -2.8711 l-3.125 0 l0 19.512 z M178.593725 39.999980927 l0 -27.949 l7.3438 0 c3.8541 0 7.1484 1.3672 9.8828 4.1016 c2.7213 2.7344 4.082 6.0287 4.082 9.8828 c0 3.8412 -1.3607 7.1289 -4.082 9.8633 c-2.7344 2.7344 -6.0287 4.1016 -9.8828 4.1016 l-7.3438 0 z M215.3128125 12.050999999999998 l-17.676 27.949 l5.0195 0 l4.1211 -6.5234 l9.4922 0 l0 6.5234 l4.2578 0 l0 -27.949 l-5.2148 0 z M216.2698125 18.477 l0 10.762 l-6.8164 0 z M224.31641875 12.050999999999998 l0 4.2383 l5.918 0 l0 23.711 l4.2578 0 l0 -23.711 l5.918 0 l0 -4.2383 l-16.094 0 z M248.4961 12.09 l-4.2383 0 l0 27.91 l4.2383 0 l0 -27.91 z M258.82815 18.945 c-1.9531 1.9531 -2.9297 4.31 -2.9297 7.0703 s0.97656 5.1172 2.9297 7.0703 s4.31 2.9297 7.0703 2.9297 s5.1172 -0.97656 7.0703 -2.9297 s2.9297 -4.31 2.9297 -7.0703 s-0.97656 -5.1172 -2.9297 -7.0703 s-4.31 -2.9297 -7.0703 -2.9297 s-5.1172 0.97656 -7.0703 2.9297 z M255.82035 36.0937 c-2.7865 -2.7865 -4.1797 -6.1459 -4.1797 -10.078 s1.3932 -7.2916 4.1797 -10.078 s6.1459 -4.1797 10.078 -4.1797 s7.2916 1.3932 10.078 4.1797 s4.1797 6.1459 4.1797 10.078 s-1.3932 7.2916 -4.1797 10.078 s-6.1459 4.1797 -10.078 4.1797 s-7.2916 -1.3932 -10.078 -4.1797 z M299.53175 12.050999999999998 l0 19.98 l-11.934 -19.98 l-4.4336 0 l0 27.949 l4.2383 0 l0 -19.98 l11.953 19.98 l4.4336 0 l0 -27.949 l-4.2578 0 z" />
		</g>
	</g>
</svg>