<?xml version="1.0" encoding="UTF-8" standalone="no"?>
<svg xmlns:dc="http://purl.org/dc/elements/1.1/" xmlns:cc="http://creativecommons.org/ns#" xmlns:rdf="http://www.w3.org/1999/02/22-rdf-syntax-ns#" xmlns:svg="http://www.w3.org/2000/svg" xmlns="http://www.w3.org/2000/svg" xmlns:sodipodi="http://sodipodi.sourceforge.net/DTD/sodipodi-0.dtd" xmlns:inkscape="http://www.inkscape.org/namespaces/inkscape" width="512" height="128" viewBox="0 0 135.46666 33.866666" version="1.1" id="svg8">
  <defs id="defs2">
    <filter style="color-interpolation-filters:sRGB" id="filter1173" x="-0.1" y="-0.1" width="1.1907409" height="1.4264057">
      <feFlood flood-opacity="0.498039" flood-color="rgb(0,0,0)" result="flood" id="feFlood1163"/>
      <feComposite in="flood" in2="SourceGraphic" operator="in" result="composite1" id="feComposite1165"/>
      <feGaussianBlur in="composite1" stdDeviation="1" result="blur" id="feGaussianBlur1167"/>
      <feOffset dx="2.77556e-17" dy="1" result="offset" id="feOffset1169"/>
      <feComposite in="SourceGraphic" in2="offset" operator="over" result="composite2" id="feComposite1171"/>
    </filter>
  </defs>
  
  <metadata id="metadata5">
    
  </metadata>
  <g id="layer1" style="display:inline" transform="translate(-14.597729,-29.639787)">
    <g transform="matrix(1.0394874,0,0,1.0394874,-17.466174,-1.6263272)" id="text835" style="font-size:25.4px;line-height:100%;font-family:MuseoModerno;-inkscape-font-specification:MuseoModerno;text-align:center;text-decoration:none;text-decoration-line:none;text-decoration-color:#000000;text-anchor:middle;white-space:pre;inline-size:148.454;fill:#000000;stroke:none;stroke-width:0.264999;stroke-linecap:butt;stroke-linejoin:bevel;stroke-opacity:1;stop-color:#000000">
      <path d="m 40.865551,34.574681 h -7.118945 v 5.444628 h 6.188769 v 2.22002 h -6.188769 v 7.652246 H 31.22893 V 32.354661 h 9.636621 z" style="font-style:normal;font-variant:normal;font-weight:normal;font-stretch:normal;font-size:25.4px;font-family:'Cerebri Sans';-inkscape-font-specification:'Cerebri Sans';stroke:none;stroke-width:0.265" id="path897"/>
      <path d="m 52.052465,50.127219 q -2.492871,0 -4.477246,-1.066601 -1.971972,-1.079004 -3.137793,-3.150195 -1.153418,-2.071192 -1.153418,-4.799707 0,-2.046387 0.669727,-3.745508 0.669727,-1.711524 1.847949,-2.852539 1.178223,-1.141016 2.778125,-1.761133 1.612305,-0.632519 3.472656,-0.632519 1.84795,0 3.447852,0.632519 1.612305,0.620117 2.778125,1.761133 1.178222,1.141015 1.847949,2.852539 0.682129,1.699121 0.682129,3.745508 0,2.058789 -0.682129,3.770312 -0.669727,1.699121 -1.847949,2.840137 -1.16582,1.141015 -2.778125,1.773535 -1.599902,0.632519 -3.447852,0.632519 z m 0,-2.319238 q 1.314649,0 2.455664,-0.446484 1.153418,-0.458887 1.996778,-1.289844 0.855761,-0.843359 1.339453,-2.120801 0.496094,-1.277441 0.496094,-2.840136 0,-1.550293 -0.496094,-2.815332 -0.483692,-1.277442 -1.339453,-2.108399 -0.84336,-0.830957 -1.996778,-1.277441 -1.141015,-0.458887 -2.455664,-0.458887 -1.32705,0 -2.480468,0.458887 -1.141016,0.446484 -1.996778,1.277441 -0.855761,0.830957 -1.351855,2.108399 -0.483692,1.265039 -0.483692,2.815332 0,1.562695 0.483692,2.840136 0.496094,1.277442 1.351855,2.120801 0.855762,0.830957 1.996778,1.289844 1.153418,0.446484 2.480468,0.446484 z" style="font-style:normal;font-variant:normal;font-weight:normal;font-stretch:normal;font-size:25.4px;font-family:'Cerebri Sans';-inkscape-font-specification:'Cerebri Sans';stroke:none;stroke-width:0.265" id="path899"/>
      <path d="m 70.172288,50.127219 q -2.765723,0 -4.626074,-1.252636 -1.860352,-1.252637 -2.306836,-3.472657 l 2.517676,-0.595312 q 0.297656,1.513086 1.513086,2.368848 1.215429,0.855761 2.988964,0.855761 0.731739,0 1.364258,-0.148828 0.63252,-0.16123 1.153418,-0.483691 0.533301,-0.334863 0.830957,-0.905371 0.297656,-0.58291 0.285254,-1.339453 -0.0124,-0.595313 -0.310058,-1.066602 -0.285254,-0.483691 -0.570508,-0.756543 -0.285254,-0.285254 -1.091407,-0.607715 -0.793749,-0.334863 -1.141015,-0.434082 -0.334863,-0.09922 -1.401465,-0.396875 -0.111621,-0.03721 -0.16123,-0.04961 -0.706934,-0.198438 -1.165821,-0.334863 -0.458886,-0.136426 -1.091406,-0.372071 -0.632519,-0.248047 -1.041797,-0.483691 -0.396875,-0.248047 -0.843359,-0.607715 -0.446485,-0.37207 -0.706934,-0.781348 -0.248047,-0.421679 -0.421679,-0.992187 -0.161231,-0.58291 -0.161231,-1.252637 0,-0.95498 0.297656,-1.761133 0.310059,-0.806152 0.84336,-1.37666 0.545703,-0.570507 1.289843,-0.967382 0.744141,-0.409278 1.612305,-0.595313 0.868164,-0.198437 1.835547,-0.198437 1.190625,0 2.232422,0.260449 1.054199,0.248047 1.934765,0.768945 0.880567,0.508496 1.500684,1.351855 0.620117,0.830958 0.855762,1.934766 l -2.393653,0.607715 q -0.310058,-1.401465 -1.401464,-2.108398 -1.079004,-0.706934 -2.616895,-0.706934 -0.930176,0 -1.699121,0.260449 -0.756543,0.260449 -1.289844,0.905371 -0.520898,0.644922 -0.520898,1.599903 0,0.384472 0.124023,0.706933 0.124024,0.322461 0.297657,0.558106 0.186035,0.235644 0.5333,0.471289 0.359668,0.223242 0.63252,0.37207 0.285254,0.136426 0.806152,0.310059 0.520899,0.173632 0.84336,0.272851 0.32246,0.08682 0.942578,0.248047 1.128613,0.310059 1.723925,0.496094 0.607715,0.186035 1.550293,0.620117 0.954981,0.434082 1.438672,0.917773 0.496094,0.483692 0.880567,1.289844 0.396875,0.806152 0.396875,1.823145 0,1.029394 -0.334864,1.885156 -0.334863,0.843359 -0.917773,1.426269 -0.58291,0.58291 -1.389063,0.979785 -0.79375,0.396875 -1.711523,0.570508 -0.905371,0.186035 -1.909961,0.186035 z" style="font-style:normal;font-variant:normal;font-weight:normal;font-stretch:normal;font-size:25.4px;font-family:'Cerebri Sans';-inkscape-font-specification:'Cerebri Sans';stroke:none;stroke-width:0.265" id="path901"/>
      <path d="m 85.910863,50.127219 q -2.765723,0 -4.626074,-1.252636 -1.860352,-1.252637 -2.306836,-3.472657 l 2.517676,-0.595312 q 0.297656,1.513086 1.513086,2.368848 1.215429,0.855761 2.988964,0.855761 0.731739,0 1.364258,-0.148828 0.63252,-0.16123 1.153418,-0.483691 0.533301,-0.334863 0.830957,-0.905371 0.297656,-0.58291 0.285254,-1.339453 -0.0124,-0.595313 -0.310058,-1.066602 -0.285254,-0.483691 -0.570508,-0.756543 -0.285254,-0.285254 -1.091407,-0.607715 -0.79375,-0.334863 -1.141015,-0.434082 -0.334863,-0.09922 -1.401465,-0.396875 -0.111621,-0.03721 -0.16123,-0.04961 -0.706934,-0.198438 -1.165821,-0.334863 -0.458886,-0.136426 -1.091406,-0.372071 -0.632519,-0.248047 -1.041797,-0.483691 -0.396875,-0.248047 -0.843359,-0.607715 -0.446485,-0.37207 -0.706934,-0.781348 -0.248047,-0.421679 -0.421679,-0.992187 -0.161231,-0.58291 -0.161231,-1.252637 0,-0.95498 0.297656,-1.761133 0.310059,-0.806152 0.84336,-1.37666 0.545703,-0.570507 1.289843,-0.967382 0.744141,-0.409278 1.612305,-0.595313 0.868164,-0.198437 1.835547,-0.198437 1.190625,0 2.232422,0.260449 1.054199,0.248047 1.934765,0.768945 0.880567,0.508496 1.500684,1.351855 0.620117,0.830958 0.855762,1.934766 l -2.393653,0.607715 q -0.310058,-1.401465 -1.401464,-2.108398 -1.079004,-0.706934 -2.616895,-0.706934 -0.930176,0 -1.699121,0.260449 -0.756543,0.260449 -1.289844,0.905371 -0.520898,0.644922 -0.520898,1.599903 0,0.384472 0.124023,0.706933 0.124024,0.322461 0.297656,0.558106 0.186036,0.235644 0.533301,0.471289 0.359668,0.223242 0.63252,0.37207 0.285254,0.136426 0.806152,0.310059 0.520899,0.173632 0.843359,0.272851 0.322461,0.08682 0.942579,0.248047 1.128613,0.310059 1.723925,0.496094 0.607715,0.186035 1.550293,0.620117 0.954981,0.434082 1.438672,0.917773 0.496094,0.483692 0.880567,1.289844 0.396875,0.806152 0.396875,1.823145 0,1.029394 -0.334864,1.885156 -0.334863,0.843359 -0.917773,1.426269 -0.58291,0.58291 -1.389063,0.979785 -0.79375,0.396875 -1.711523,0.570508 -0.905371,0.186035 -1.909961,0.186035 z" style="font-style:normal;font-variant:normal;font-weight:normal;font-stretch:normal;font-size:25.4px;font-family:'Cerebri Sans';-inkscape-font-specification:'Cerebri Sans';stroke:none;stroke-width:0.265" id="path903"/>
      <path d="m 107.34212,32.354661 h 2.46806 v 17.536914 h -2.46806 v -7.689453 h -8.619632 v 7.689453 H 96.229617 V 32.354661 h 2.492871 v 7.652246 h 8.619632 z" style="font-style:normal;font-variant:normal;font-weight:normal;font-stretch:normal;font-size:25.4px;font-family:'Cerebri Sans';-inkscape-font-specification:'Cerebri Sans';stroke:none;stroke-width:0.265" id="path905"/>
      <path d="m 122.80148,50.221775 q -2.1082,0 -3.81,-0.7112 -1.7018,-0.7366 -2.921,-2.0066 -1.19379,-1.27 -1.85419,-2.9464 -0.6604,-1.6764 -0.6604,-3.5814 0,-1.905 0.6604,-3.556 0.6604,-1.6764 1.85419,-2.9464 1.2192,-1.27 2.921,-1.9812 1.7018,-0.7112 3.81,-0.7112 2.1082,0 3.81,0.7112 1.7018,0.7112 2.8956,1.9812 1.2192,1.27 1.8796,2.9464 0.6604,1.651 0.6604,3.556 0,1.905 -0.6604,3.5814 -0.6604,1.6764 -1.8796,2.9464 -1.1938,1.27 -2.8956,2.0066 -1.7018,0.7112 -3.81,0.7112 z m 0,-2.159 q 1.4478,0 2.6924,-0.5334 1.2446,-0.5334 2.159,-1.4986 0.9398,-0.9652 1.4478,-2.2352 0.508,-1.2954 0.508,-2.8194 0,-1.4986 -0.508,-2.794 -0.508,-1.2954 -1.4478,-2.2352 -0.9144,-0.9652 -2.159,-1.4732 -1.2446,-0.5334 -2.6924,-0.5334 -1.4732,0 -2.7178,0.5334 -1.2446,0.508 -2.159,1.4732 -0.9144,0.9398 -1.4224,2.2352 -0.508,1.27 -0.508,2.794 0,1.524 0.508,2.8194 0.508,1.27 1.4224,2.2352 0.9144,0.9652 2.159,1.4986 1.2446,0.5334 2.7178,0.5334 z" style="fill:#ff0000;stroke:none" id="path907"/>
      <path d="m 141.27458,50.127219 q -2.76572,0 -4.62607,-1.252636 -1.86035,-1.252637 -2.30684,-3.472657 l 2.51768,-0.595312 q 0.29765,1.513086 1.51308,2.368848 1.21543,0.855761 2.98897,0.855761 0.73174,0 1.36426,-0.148828 0.63252,-0.16123 1.15342,-0.483691 0.5333,-0.334863 0.83095,-0.905371 0.29766,-0.58291 0.28526,-1.339453 -0.0124,-0.595313 -0.31006,-1.066602 -0.28526,-0.483691 -0.57051,-0.756543 -0.28525,-0.285254 -1.09141,-0.607715 -0.79375,-0.334863 -1.14101,-0.434082 -0.33487,-0.09922 -1.40147,-0.396875 -0.11162,-0.03721 -0.16123,-0.04961 -0.70693,-0.198438 -1.16582,-0.334863 -0.45888,-0.136426 -1.0914,-0.372071 -0.63252,-0.248047 -1.0418,-0.483691 -0.39688,-0.248047 -0.84336,-0.607715 -0.44648,-0.37207 -0.70693,-0.781348 -0.24805,-0.421679 -0.42168,-0.992187 -0.16123,-0.58291 -0.16123,-1.252637 0,-0.95498 0.29765,-1.761133 0.31006,-0.806152 0.84336,-1.37666 0.5457,-0.570507 1.28985,-0.967382 0.74414,-0.409278 1.6123,-0.595313 0.86816,-0.198437 1.83555,-0.198437 1.19062,0 2.23242,0.260449 1.0542,0.248047 1.93476,0.768945 0.88057,0.508496 1.50069,1.351855 0.62012,0.830958 0.85576,1.934766 l -2.39365,0.607715 q -0.31006,-1.401465 -1.40147,-2.108398 -1.079,-0.706934 -2.61689,-0.706934 -0.93018,0 -1.69912,0.260449 -0.75655,0.260449 -1.28985,0.905371 -0.5209,0.644922 -0.5209,1.599903 0,0.384472 0.12403,0.706933 0.12402,0.322461 0.29765,0.558106 0.18604,0.235644 0.53331,0.471289 0.35966,0.223242 0.63251,0.37207 0.28526,0.136426 0.80616,0.310059 0.5209,0.173632 0.84336,0.272851 0.32246,0.08682 0.94257,0.248047 1.12862,0.310059 1.72393,0.496094 0.60772,0.186035 1.55029,0.620117 0.95498,0.434082 1.43868,0.917773 0.49609,0.483692 0.88056,1.289844 0.39688,0.806152 0.39688,1.823145 0,1.029394 -0.33487,1.885156 -0.33486,0.843359 -0.91777,1.426269 -0.58291,0.58291 -1.38906,0.979785 -0.79375,0.396875 -1.71153,0.570508 -0.90537,0.186035 -1.90996,0.186035 z" style="font-style:normal;font-variant:normal;font-weight:normal;font-stretch:normal;font-size:25.4px;font-family:'Cerebri Sans';-inkscape-font-specification:'Cerebri Sans';stroke:none;stroke-width:0.265" id="path909"/>
      <path d="m 160.78347,32.354661 v 2.22002 h -4.44004 v 15.316894 h -2.44326 V 34.574681 h -4.45244 v -2.22002 z" style="font-style:normal;font-variant:normal;font-weight:normal;font-stretch:normal;font-size:25.4px;font-family:'Cerebri Sans';-inkscape-font-specification:'Cerebri Sans';stroke:none;stroke-width:0.265" id="path911"/>
    </g>
    <g id="text1181" style="font-size:7.3956px;line-height:100%;font-family:MuseoModerno;-inkscape-font-specification:MuseoModerno;text-align:center;text-decoration:none;text-decoration-line:none;text-decoration-color:#000000;text-anchor:middle;fill:#000000;stroke:none;stroke-width:0.25539;stroke-linecap:butt;stroke-linejoin:bevel;stroke-opacity:1;stop-color:#000000">
      <path d="m 18.657759,56.561476 h 0.715004 v 5.106142 H 18.59637 l -2.668627,-4.051691 v 4.051691 h -0.711394 v -5.106142 h 0.769172 l 2.672238,4.033635 z" style="font-style:normal;font-variant:normal;font-weight:normal;font-stretch:normal;font-size:7.3956px;font-family:'Cerebri Sans';-inkscape-font-specification:'Cerebri Sans';stroke:none;stroke-width:0.255391" id="path914"/>
      <path d="m 23.12473,61.736229 q -0.725838,0 -1.303619,-0.310557 -0.57417,-0.314169 -0.913616,-0.917228 -0.335836,-0.603059 -0.335836,-1.397508 0,-0.595837 0.195001,-1.090562 0.195002,-0.498337 0.538059,-0.830561 0.343058,-0.332224 0.808894,-0.512781 0.469447,-0.184167 1.011117,-0.184167 0.538059,0 1.003895,0.184167 0.469447,0.180557 0.808894,0.512781 0.343057,0.332224 0.538059,0.830561 0.198612,0.494725 0.198612,1.090562 0,0.599448 -0.198612,1.097784 -0.195002,0.494725 -0.538059,0.82695 -0.339447,0.332224 -0.808894,0.516392 -0.465836,0.184167 -1.003895,0.184167 z m 0,-0.675282 q 0.38278,0 0.715004,-0.13 0.335836,-0.133612 0.581393,-0.375558 0.249168,-0.245557 0.390002,-0.617504 0.144445,-0.371946 0.144445,-0.826949 0,-0.451392 -0.144445,-0.819727 -0.140834,-0.371947 -0.390002,-0.613893 -0.245557,-0.241946 -0.581393,-0.371947 -0.332224,-0.133611 -0.715004,-0.133611 -0.386391,0 -0.722226,0.133611 -0.332225,0.130001 -0.581393,0.371947 -0.249168,0.241946 -0.393613,0.613893 -0.140834,0.368335 -0.140834,0.819727 0,0.455003 0.140834,0.826949 0.144445,0.371947 0.393613,0.617504 0.249168,0.241946 0.581393,0.375558 0.335835,0.13 0.722226,0.13 z" style="font-style:normal;font-variant:normal;font-weight:normal;font-stretch:normal;font-size:7.3956px;font-family:'Cerebri Sans';-inkscape-font-specification:'Cerebri Sans';stroke:none;stroke-width:0.255391" id="path916"/>
      <path d="m 29.33949,56.561476 v 0.646393 h -1.292786 v 4.459749 h -0.711393 v -4.459749 h -1.296397 v -0.646393 z" style="font-style:normal;font-variant:normal;font-weight:normal;font-stretch:normal;font-size:7.3956px;font-family:'Cerebri Sans';-inkscape-font-specification:'Cerebri Sans';stroke:none;stroke-width:0.255391" id="path918"/>
      <path d="m 30.13755,60.031775 v -0.57417 h 2.589182 v 0.57417 z" style="font-style:normal;font-variant:normal;font-weight:normal;font-stretch:normal;font-size:7.3956px;font-family:'Cerebri Sans';-inkscape-font-specification:'Cerebri Sans';stroke:none;stroke-width:0.255391" id="path920"/>
      <path d="m 36.912035,57.207869 h -2.07279 v 1.585287 H 36.6412 v 0.646393 h -1.801955 v 2.228069 h -0.73306 v -5.106142 h 2.80585 z" style="font-style:normal;font-variant:normal;font-weight:normal;font-stretch:normal;font-size:7.3956px;font-family:'Cerebri Sans';-inkscape-font-specification:'Cerebri Sans';stroke:none;stroke-width:0.255391" id="path922"/>
      <path d="m 40.169277,61.736229 q -0.725837,0 -1.303619,-0.310557 -0.57417,-0.314169 -0.913616,-0.917228 -0.335836,-0.603059 -0.335836,-1.397508 0,-0.595837 0.195002,-1.090562 0.195001,-0.498337 0.538058,-0.830561 0.343058,-0.332224 0.808894,-0.512781 0.469447,-0.184167 1.011117,-0.184167 0.538059,0 1.003895,0.184167 0.469447,0.180557 0.808894,0.512781 0.343057,0.332224 0.538059,0.830561 0.198612,0.494725 0.198612,1.090562 0,0.599448 -0.198612,1.097784 -0.195002,0.494725 -0.538059,0.82695 -0.339447,0.332224 -0.808894,0.516392 -0.465836,0.184167 -1.003895,0.184167 z m 0,-0.675282 q 0.38278,0 0.715004,-0.13 0.335836,-0.133612 0.581393,-0.375558 0.249168,-0.245557 0.390002,-0.617504 0.144445,-0.371946 0.144445,-0.826949 0,-0.451392 -0.144445,-0.819727 -0.140834,-0.371947 -0.390002,-0.613893 -0.245557,-0.241946 -0.581393,-0.371947 -0.332224,-0.133611 -0.715004,-0.133611 -0.386391,0 -0.722226,0.133611 -0.332225,0.130001 -0.581393,0.371947 -0.249168,0.241946 -0.393613,0.613893 -0.140834,0.368335 -0.140834,0.819727 0,0.455003 0.140834,0.826949 0.144445,0.371947 0.393613,0.617504 0.249168,0.241946 0.581393,0.375558 0.335835,0.13 0.722226,0.13 z" style="font-style:normal;font-variant:normal;font-weight:normal;font-stretch:normal;font-size:7.3956px;font-family:'Cerebri Sans';-inkscape-font-specification:'Cerebri Sans';stroke:none;stroke-width:0.255391" id="path924"/>
      <path d="m 46.672926,61.667618 -1.321674,-2.296681 h -0.715005 v 2.296681 h -0.718615 v -5.106142 h 1.718899 q 0.390002,0 0.693338,0.115556 0.303335,0.111945 0.487503,0.314169 0.187778,0.198612 0.281668,0.458614 0.09389,0.260001 0.09389,0.566948 0,0.534447 -0.296113,0.884727 -0.296112,0.35028 -0.823338,0.440558 l 1.440842,2.32557 z m -2.036679,-4.485027 v 1.639454 h 0.902784 q 0.48028,0 0.722226,-0.216668 0.241946,-0.220279 0.241946,-0.599448 0,-0.375558 -0.241946,-0.599448 -0.241946,-0.22389 -0.722226,-0.22389 z" style="font-style:normal;font-variant:normal;font-weight:normal;font-stretch:normal;font-size:7.3956px;font-family:'Cerebri Sans';-inkscape-font-specification:'Cerebri Sans';stroke:none;stroke-width:0.255391" id="path926"/>
      <path d="m 48.388215,60.031775 v -0.57417 h 2.589182 v 0.57417 z" style="font-style:normal;font-variant:normal;font-weight:normal;font-stretch:normal;font-size:7.3956px;font-family:'Cerebri Sans';-inkscape-font-specification:'Cerebri Sans';stroke:none;stroke-width:0.255391" id="path928"/>
      <path d="m 54.324916,56.561476 q 0.686115,0 1.112229,0.455003 0.426113,0.455003 0.426113,1.126673 0,0.675282 -0.426113,1.123063 -0.422503,0.444169 -1.112229,0.444169 h -1.249452 v 1.957234 h -0.718615 v -5.106142 z m -0.108334,2.527793 q 0.440558,0 0.686115,-0.260002 0.249168,-0.260001 0.249168,-0.696948 0,-0.422503 -0.249168,-0.686115 Q 54.65714,57.17898 54.216582,57.17898 h -1.141118 v 1.910289 z" style="font-style:normal;font-variant:normal;font-weight:normal;font-stretch:normal;font-size:7.3956px;font-family:'Cerebri Sans';-inkscape-font-specification:'Cerebri Sans';stroke:none;stroke-width:0.255391" id="path930"/>
      <path d="M 59.712729,61.667618 58.391054,59.370937 H 57.67605 v 2.296681 h -0.718616 v -5.106142 h 1.7189 q 0.390002,0 0.693337,0.115556 0.303335,0.111945 0.487503,0.314169 0.187779,0.198612 0.281668,0.458614 0.09389,0.260001 0.09389,0.566948 0,0.534447 -0.296113,0.884727 -0.296113,0.35028 -0.823338,0.440558 l 1.440842,2.32557 z M 57.67605,57.182591 v 1.639454 h 0.902783 q 0.480281,0 0.722227,-0.216668 0.241946,-0.220279 0.241946,-0.599448 0,-0.375558 -0.241946,-0.599448 -0.241946,-0.22389 -0.722227,-0.22389 z" style="font-style:normal;font-variant:normal;font-weight:normal;font-stretch:normal;font-size:7.3956px;font-family:'Cerebri Sans';-inkscape-font-specification:'Cerebri Sans';stroke:none;stroke-width:0.255391" id="path932"/>
      <path d="m 63.674139,61.736229 q -0.725838,0 -1.303619,-0.310557 -0.57417,-0.314169 -0.913616,-0.917228 -0.335836,-0.603059 -0.335836,-1.397508 0,-0.595837 0.195001,-1.090562 0.195002,-0.498337 0.538059,-0.830561 0.343058,-0.332224 0.808894,-0.512781 0.469447,-0.184167 1.011117,-0.184167 0.538059,0 1.003895,0.184167 0.469447,0.180557 0.808894,0.512781 0.343057,0.332224 0.538058,0.830561 0.198613,0.494725 0.198613,1.090562 0,0.599448 -0.198613,1.097784 -0.195001,0.494725 -0.538058,0.82695 -0.339447,0.332224 -0.808894,0.516392 -0.465836,0.184167 -1.003895,0.184167 z m 0,-0.675282 q 0.38278,0 0.715004,-0.13 0.335836,-0.133612 0.581393,-0.375558 0.249168,-0.245557 0.390002,-0.617504 0.144445,-0.371946 0.144445,-0.826949 0,-0.451392 -0.144445,-0.819727 -0.140834,-0.371947 -0.390002,-0.613893 -0.245557,-0.241946 -0.581393,-0.371947 -0.332224,-0.133611 -0.715004,-0.133611 -0.386391,0 -0.722227,0.133611 -0.332224,0.130001 -0.581392,0.371947 -0.249168,0.241946 -0.393613,0.613893 -0.140835,0.368335 -0.140835,0.819727 0,0.455003 0.140835,0.826949 0.144445,0.371947 0.393613,0.617504 0.249168,0.241946 0.581392,0.375558 0.335836,0.13 0.722227,0.13 z" style="font-style:normal;font-variant:normal;font-weight:normal;font-stretch:normal;font-size:7.3956px;font-family:'Cerebri Sans';-inkscape-font-specification:'Cerebri Sans';stroke:none;stroke-width:0.255391" id="path934"/>
      <path d="m 70.228346,57.207869 h -2.07279 v 1.585287 h 1.801955 v 0.646393 h -1.801955 v 2.228069 h -0.73306 v -5.106142 h 2.80585 z" style="font-style:normal;font-variant:normal;font-weight:normal;font-stretch:normal;font-size:7.3956px;font-family:'Cerebri Sans';-inkscape-font-specification:'Cerebri Sans';stroke:none;stroke-width:0.255391" id="path936"/>
      <path d="m 71.286406,61.667618 v -5.106142 h 0.718616 v 5.106142 z" style="font-style:normal;font-variant:normal;font-weight:normal;font-stretch:normal;font-size:7.3956px;font-family:'Cerebri Sans';-inkscape-font-specification:'Cerebri Sans';stroke:none;stroke-width:0.255391" id="path938"/>
      <path d="m 76.280602,56.561476 v 0.646393 h -1.292785 v 4.459749 h -0.711393 v -4.459749 h -1.296397 v -0.646393 z" style="font-style:normal;font-variant:normal;font-weight:normal;font-stretch:normal;font-size:7.3956px;font-family:'Cerebri Sans';-inkscape-font-specification:'Cerebri Sans';stroke:none;stroke-width:0.255391" id="path940"/>
      <path d="m 82.408696,56.561476 h 0.718616 v 5.106142 h -0.718616 v -2.238902 h -2.509737 v 2.238902 h -0.725838 v -5.106142 h 0.725838 v 2.228069 h 2.509737 z" style="font-style:normal;font-variant:normal;font-weight:normal;font-stretch:normal;font-size:7.3956px;font-family:'Cerebri Sans';-inkscape-font-specification:'Cerebri Sans';stroke:none;stroke-width:0.255391" id="path942"/>
      <path d="m 86.882891,61.736229 q -0.725838,0 -1.303619,-0.310557 -0.57417,-0.314169 -0.913617,-0.917228 -0.335835,-0.603059 -0.335835,-1.397508 0,-0.595837 0.195001,-1.090562 0.195001,-0.498337 0.538059,-0.830561 0.343057,-0.332224 0.808894,-0.512781 0.469447,-0.184167 1.011117,-0.184167 0.538058,0 1.003895,0.184167 0.469447,0.180557 0.808893,0.512781 0.343058,0.332224 0.538059,0.830561 0.198612,0.494725 0.198612,1.090562 0,0.599448 -0.198612,1.097784 -0.195001,0.494725 -0.538059,0.82695 -0.339446,0.332224 -0.808893,0.516392 -0.465837,0.184167 -1.003895,0.184167 z m 0,-0.675282 q 0.38278,0 0.715004,-0.13 0.335835,-0.133612 0.581392,-0.375558 0.249169,-0.245557 0.390003,-0.617504 0.144445,-0.371946 0.144445,-0.826949 0,-0.451392 -0.144445,-0.819727 -0.140834,-0.371947 -0.390003,-0.613893 -0.245557,-0.241946 -0.581392,-0.371947 -0.332224,-0.133611 -0.715004,-0.133611 -0.386391,0 -0.722227,0.133611 -0.332224,0.130001 -0.581392,0.371947 -0.249168,0.241946 -0.393614,0.613893 -0.140834,0.368335 -0.140834,0.819727 0,0.455003 0.140834,0.826949 0.144446,0.371947 0.393614,0.617504 0.249168,0.241946 0.581392,0.375558 0.335836,0.13 0.722227,0.13 z" style="font-style:normal;font-variant:normal;font-weight:normal;font-stretch:normal;font-size:7.3956px;font-family:'Cerebri Sans';-inkscape-font-specification:'Cerebri Sans';stroke:none;stroke-width:0.255391" id="path944"/>
      <path d="m 92.158755,61.736229 q -0.805282,0 -1.346952,-0.364724 -0.54167,-0.364724 -0.671671,-1.011117 l 0.73306,-0.173335 q 0.08667,0.440559 0.440558,0.689727 0.353891,0.249168 0.870283,0.249168 0.213057,0 0.397225,-0.04333 0.184168,-0.04694 0.335835,-0.140834 0.155279,-0.0975 0.241946,-0.263613 0.08667,-0.169723 0.08306,-0.390002 -0.0036,-0.173334 -0.09028,-0.310557 -0.08306,-0.140834 -0.166112,-0.220279 -0.08306,-0.08306 -0.31778,-0.176946 -0.231112,-0.0975 -0.332224,-0.12639 -0.0975,-0.02889 -0.408058,-0.115556 -0.0325,-0.01083 -0.04695,-0.01444 -0.205834,-0.05778 -0.339446,-0.0975 -0.133612,-0.03972 -0.31778,-0.108334 -0.184168,-0.07222 -0.303335,-0.140834 -0.115556,-0.07222 -0.245557,-0.176946 -0.130001,-0.108334 -0.205835,-0.227501 -0.07222,-0.122778 -0.122778,-0.288891 -0.04695,-0.169723 -0.04695,-0.364724 0,-0.278057 0.08667,-0.512781 0.09028,-0.234723 0.245557,-0.400836 0.15889,-0.166112 0.375558,-0.281668 0.216668,-0.119167 0.469447,-0.173334 0.25278,-0.05778 0.534448,-0.05778 0.346669,0 0.650004,0.07583 0.306946,0.07222 0.563337,0.223891 0.25639,0.148056 0.436947,0.393613 0.180556,0.241946 0.249168,0.563337 l -0.696949,0.176945 q -0.09028,-0.408058 -0.408058,-0.613892 -0.314168,-0.205835 -0.761949,-0.205835 -0.270835,0 -0.494725,0.07583 -0.220279,0.07583 -0.375558,0.263613 -0.151667,0.187779 -0.151667,0.465836 0,0.111945 0.03611,0.205834 0.03611,0.09389 0.08667,0.162501 0.05417,0.06861 0.155279,0.137223 0.104723,0.065 0.184168,0.108334 0.08306,0.03972 0.234723,0.09028 0.151668,0.05056 0.245557,0.07944 0.09389,0.02528 0.274446,0.07222 0.328613,0.09028 0.501948,0.144446 0.176945,0.05417 0.451391,0.180556 0.278058,0.12639 0.418892,0.267224 0.144445,0.140834 0.25639,0.375558 0.115557,0.234723 0.115557,0.530836 0,0.299724 -0.0975,0.548892 -0.0975,0.245557 -0.267224,0.415281 -0.169723,0.169723 -0.404447,0.285279 -0.231112,0.115556 -0.498336,0.166112 -0.263613,0.05417 -0.556115,0.05417 z" style="font-style:normal;font-variant:normal;font-weight:normal;font-stretch:normal;font-size:7.3956px;font-family:'Cerebri Sans';-inkscape-font-specification:'Cerebri Sans';stroke:none;stroke-width:0.255391" id="path946"/>
      <path d="m 97.839066,56.561476 v 0.646393 h -1.292785 v 4.459749 h -0.711393 v -4.459749 h -1.296397 v -0.646393 z" style="font-style:normal;font-variant:normal;font-weight:normal;font-stretch:normal;font-size:7.3956px;font-family:'Cerebri Sans';-inkscape-font-specification:'Cerebri Sans';stroke:none;stroke-width:0.255391" id="path948"/>
      <path d="m 98.810458,61.667618 v -5.106142 h 0.718615 v 5.106142 z" style="font-style:normal;font-variant:normal;font-weight:normal;font-stretch:normal;font-size:7.3956px;font-family:'Cerebri Sans';-inkscape-font-specification:'Cerebri Sans';stroke:none;stroke-width:0.255391" id="path950"/>
      <path d="m 104.52688,56.561476 h 0.71501 v 5.106142 h -0.77639 l -2.66863,-4.051691 v 4.051691 h -0.7114 v -5.106142 h 0.76918 l 2.67223,4.033635 z" style="font-style:normal;font-variant:normal;font-weight:normal;font-stretch:normal;font-size:7.3956px;font-family:'Cerebri Sans';-inkscape-font-specification:'Cerebri Sans';stroke:none;stroke-width:0.255391" id="path952"/>
      <path d="m 108.96857,61.736229 q -0.53444,0 -1.00028,-0.180556 -0.46222,-0.180557 -0.80167,-0.50917 -0.33945,-0.332224 -0.53445,-0.823338 -0.19139,-0.494725 -0.19139,-1.094174 0,-0.801671 0.33584,-1.40473 0.33944,-0.60667 0.91361,-0.917228 0.57778,-0.314168 1.30362,-0.314168 0.71501,0 1.28557,0.306946 0.57417,0.306946 0.89917,0.884727 l -0.63556,0.339447 q -0.23473,-0.436947 -0.63917,-0.657226 -0.40445,-0.220279 -0.91001,-0.220279 -0.39,0 -0.72222,0.133612 -0.33223,0.13 -0.5814,0.375557 -0.24555,0.241946 -0.38639,0.617504 -0.14083,0.375558 -0.14083,0.841394 0,0.917228 0.51639,1.448064 0.51639,0.527226 1.33973,0.527226 0.67167,0 1.12306,-0.375558 0.45501,-0.375558 0.54167,-1.079729 h -1.66834 v -0.599448 h 2.36529 v 2.632516 h -0.585 V 60.75039 q -0.25639,0.473058 -0.72223,0.729449 -0.46583,0.25639 -1.10501,0.25639 z" style="font-style:normal;font-variant:normal;font-weight:normal;font-stretch:normal;font-size:7.3956px;font-family:'Cerebri Sans';-inkscape-font-specification:'Cerebri Sans';stroke:none;stroke-width:0.255391" id="path954"/>
      <path d="m 116.57723,56.561476 q 0.68612,0 1.11223,0.455003 0.42611,0.455003 0.42611,1.126673 0,0.675282 -0.42611,1.123063 -0.4225,0.444169 -1.11223,0.444169 h -1.24945 v 1.957234 h -0.71862 v -5.106142 z m -0.10833,2.527793 q 0.44056,0 0.68611,-0.260002 0.24917,-0.260001 0.24917,-0.696948 0,-0.422503 -0.24917,-0.686115 -0.24555,-0.267224 -0.68611,-0.267224 h -1.14112 v 1.910289 z" style="font-style:normal;font-variant:normal;font-weight:normal;font-stretch:normal;font-size:7.3956px;font-family:'Cerebri Sans';-inkscape-font-specification:'Cerebri Sans';stroke:none;stroke-width:0.255391" id="path956"/>
      <path d="m 121.96504,61.667618 -1.32167,-2.296681 h -0.715 v 2.296681 h -0.71862 v -5.106142 h 1.7189 q 0.39,0 0.69334,0.115556 0.30333,0.111945 0.4875,0.314169 0.18778,0.198612 0.28167,0.458614 0.0939,0.260001 0.0939,0.566948 0,0.534447 -0.29612,0.884727 -0.29611,0.35028 -0.82333,0.440558 l 1.44084,2.32557 z m -2.03667,-4.485027 v 1.639454 h 0.90278 q 0.48028,0 0.72223,-0.216668 0.24194,-0.220279 0.24194,-0.599448 0,-0.375558 -0.24194,-0.599448 -0.24195,-0.22389 -0.72223,-0.22389 z" style="font-style:normal;font-variant:normal;font-weight:normal;font-stretch:normal;font-size:7.3956px;font-family:'Cerebri Sans';-inkscape-font-specification:'Cerebri Sans';stroke:none;stroke-width:0.255391" id="path958"/>
      <path d="m 125.92645,61.736229 q -0.72583,0 -1.30361,-0.310557 -0.57417,-0.314169 -0.91362,-0.917228 -0.33584,-0.603059 -0.33584,-1.397508 0,-0.595837 0.195,-1.090562 0.19501,-0.498337 0.53806,-0.830561 0.34306,-0.332224 0.8089,-0.512781 0.46944,-0.184167 1.01111,-0.184167 0.53806,0 1.0039,0.184167 0.46945,0.180557 0.80889,0.512781 0.34306,0.332224 0.53806,0.830561 0.19861,0.494725 0.19861,1.090562 0,0.599448 -0.19861,1.097784 -0.195,0.494725 -0.53806,0.82695 -0.33944,0.332224 -0.80889,0.516392 -0.46584,0.184167 -1.0039,0.184167 z m 0,-0.675282 q 0.38278,0 0.71501,-0.13 0.33583,-0.133612 0.58139,-0.375558 0.24917,-0.245557 0.39,-0.617504 0.14445,-0.371946 0.14445,-0.826949 0,-0.451392 -0.14445,-0.819727 -0.14083,-0.371947 -0.39,-0.613893 -0.24556,-0.241946 -0.58139,-0.371947 -0.33223,-0.133611 -0.71501,-0.133611 -0.38639,0 -0.72222,0.133611 -0.33223,0.130001 -0.58139,0.371947 -0.24917,0.241946 -0.39362,0.613893 -0.14083,0.368335 -0.14083,0.819727 0,0.455003 0.14083,0.826949 0.14445,0.371947 0.39362,0.617504 0.24916,0.241946 0.58139,0.375558 0.33583,0.13 0.72222,0.13 z" style="font-style:normal;font-variant:normal;font-weight:normal;font-stretch:normal;font-size:7.3956px;font-family:'Cerebri Sans';-inkscape-font-specification:'Cerebri Sans';stroke:none;stroke-width:0.255391" id="path960"/>
      <path d="m 132.57817,56.561476 h 0.75833 l -1.87779,5.106142 h -0.75111 l -1.87057,-5.106142 h 0.75473 l 1.49501,4.225025 z" style="font-style:normal;font-variant:normal;font-weight:normal;font-stretch:normal;font-size:7.3956px;font-family:'Cerebri Sans';-inkscape-font-specification:'Cerebri Sans';stroke:none;stroke-width:0.255391" id="path962"/>
      <path d="m 134.31151,61.667618 v -5.106142 h 0.71862 v 5.106142 z" style="font-style:normal;font-variant:normal;font-weight:normal;font-stretch:normal;font-size:7.3956px;font-family:'Cerebri Sans';-inkscape-font-specification:'Cerebri Sans';stroke:none;stroke-width:0.255391" id="path964"/>
      <path d="m 136.58652,61.667618 v -5.106142 h 1.68279 q 0.57778,0 1.02917,0.187779 0.455,0.187779 0.74389,0.527225 0.29251,0.339447 0.44417,0.805283 0.15167,0.465836 0.15167,1.029173 0,0.761949 -0.26,1.332508 -0.26,0.566948 -0.80167,0.895561 -0.53806,0.328613 -1.30723,0.328613 z m 0.71862,-0.650004 h 0.93528 q 0.81611,0 1.2314,-0.501948 0.41528,-0.505558 0.41528,-1.40473 0,-0.895561 -0.41528,-1.397509 -0.41529,-0.505558 -1.2314,-0.505558 h -0.93528 z" style="font-style:normal;font-variant:normal;font-weight:normal;font-stretch:normal;font-size:7.3956px;font-family:'Cerebri Sans';-inkscape-font-specification:'Cerebri Sans';stroke:none;stroke-width:0.255391" id="path966"/>
      <path d="m 144.63213,57.207869 h -2.0439 v 1.588898 h 1.80195 v 0.642782 h -1.80195 v 1.578065 h 2.0439 v 0.650004 h -2.77696 v -5.106142 h 2.77696 z" style="font-style:normal;font-variant:normal;font-weight:normal;font-stretch:normal;font-size:7.3956px;font-family:'Cerebri Sans';-inkscape-font-specification:'Cerebri Sans';stroke:none;stroke-width:0.255391" id="path968"/>
      <path d="m 148.60436,61.667618 -1.32167,-2.296681 h -0.715 v 2.296681 h -0.71862 v -5.106142 h 1.7189 q 0.39,0 0.69334,0.115556 0.30333,0.111945 0.4875,0.314169 0.18778,0.198612 0.28167,0.458614 0.0939,0.260001 0.0939,0.566948 0,0.534447 -0.29612,0.884727 -0.29611,0.35028 -0.82333,0.440558 l 1.44084,2.32557 z m -2.03667,-4.485027 v 1.639454 h 0.90278 q 0.48028,0 0.72223,-0.216668 0.24194,-0.220279 0.24194,-0.599448 0,-0.375558 -0.24194,-0.599448 -0.24195,-0.22389 -0.72223,-0.22389 z" style="font-style:normal;font-variant:normal;font-weight:normal;font-stretch:normal;font-size:7.3956px;font-family:'Cerebri Sans';-inkscape-font-specification:'Cerebri Sans';stroke:none;stroke-width:0.255391" id="path970"/>
    </g>
  </g>
</svg>