<svg version="1.1" id="Layer_1" xmlns="http://www.w3.org/2000/svg" x="0" y="0" viewBox="0 0 2335 1000" xml:space="preserve"><style>.st0{fill:#8c43a8}</style><path class="st0" d="M1053.37 431.69c-16.33-16.34-39.36-24.51-69.06-24.51H733.32c-25.76 0-46.78 7.94-63.12 23.76-16.34 15.85-24.51 41.59-24.51 77.23 0 19.82 2.72 38.61 8.17 56.44 5.43 17.82 11.14 32.19 17.08 43.07h158.91v139.6c-8.91 4.97-21.79 9.42-38.61 13.37-16.85 3.97-36.16 5.94-57.92 5.94-33.67 0-65.34-5.2-95.05-15.59-29.7-10.4-55.95-26.22-78.71-47.52-22.79-21.28-40.84-48.5-54.21-81.68-13.37-33.16-20.05-72.52-20.05-118.07 0-84.14 24.5-150 73.51-197.52 49.01-47.52 115.1-71.28 198.27-71.28 46.53 0 88.36 7.19 125.49 21.53 37.13 14.36 68.06 28.96 92.82 43.81 16.82-10.88 31.67-25.73 44.55-44.55 12.86-18.8 19.31-41.07 19.31-66.83 0-48.5-27.48-87.86-82.42-118.07-54.95-30.19-129.47-45.3-223.52-45.3-65.34 0-128.97 9.91-190.84 29.7-53.61 17.17-102 41.96-145.2 74.34-3.47 3.44-27.47 21.44-40.8 34.55-38.31 36.63-69.92 80.48-94.68 131.68-12.65 26.16-22.55 54.28-29.72 84.33 5.5-.08 11-.17 16.5-.36 15.28-.54 32.22 14.13 30.12 30.48-.9 7.01-.12 14.24-.12 21.37.01 7.13 0 14.26 0 21.39h-.04c0 15.05.11 30.1-.03 45.15-.15 16.88-10.1 27.44-26.99 27.64-11.08.13-22.16.15-33.25.19 1.39 50.66 8.74 97.13 22.08 139.38 4.05.07 8.1.16 12.15.28 15.37.46 25.92 12.01 26.13 27.23.14 9.77.03 19.54.03 29.3h-.03c0 9.5.07 19.01-.01 28.51 0 .16-.02.32-.02.47 6.67 11.5 13.85 22.5 21.4 33.12 4.6-4.16 10.77-6.68 18.13-6.94 19.78-.68 39.61-.61 59.39-.02 15.37.46 25.92 12.01 26.13 27.23.14 9.77.03 19.54.03 29.3h-.03c0 9.5.07 19.01-.01 28.51-.06 7.26-2.37 13.71-6.35 18.67 39.12 27.66 83.26 49.22 132.6 64.49 62.37 19.31 129.21 28.96 200.49 28.96 26.73 0 53.7-1.49 80.94-4.45 27.22-2.97 53.21-7.19 77.97-12.62 24.74-5.45 47.52-11.88 68.32-19.31 20.79-7.43 38.1-15.08 51.98-23.02 23.76-13.85 41.07-28.22 51.98-43.07 10.88-14.85 16.33-37.62 16.33-68.32V500.74c-.02-29.7-8.18-52.72-24.52-69.05zm-658.8-242.72c.33-12.61 10.78-26.04 23.63-26.99 19.85-1.47 40.03-3.47 59.75 1.77 11.45 3.04 17.78 12.02 18.06 23.81.34 14.18 1.18 28.35 1.36 42.52.29 23.25-10.57 34.11-33.58 34.11h-18.21c-7.39 0-14.78.12-22.16-.03-16.03-.33-28.33-11.78-28.83-27.7-.51-15.82-.43-31.67-.02-47.49zm70.56 242.8c-.79 7.39-6.17 12.88-12.6 16.39-11.95 6.53-42.77 7.61-52.52-7.75-3.04-4.79-5.75-9.38-5.67-15.23.09-6.59-.2-13.19.1-19.77.59-13.12 12.63-24.83 25.82-25.34 3.42-.13 6.86-.02 11.91-.02 12.34-1.47 24.04 2 31.08 15.28 1.09 2.06 1.97 4.32 2.45 6.6 2.1 9.96.48 19.99-.57 29.84zm-188.2-73.76c-.24-12.14-.05-24.29-.04-36.44.01-11.09-.06-22.18.03-33.27.1-13.8 6.32-21.77 19.5-25.05 16.42-4.09 33.11-2.26 49.66-1.62 7.62.29 15.32 1.33 22.9.74 17.66-1.38 27.78 11.92 28.24 26.43.71 22.42.69 44.89.09 67.31-.39 14.76-9.64 24.43-23.97 25.7-25 2.21-50.06 2.32-75.06-.18-11.68-1.15-21.12-11.76-21.35-23.62zm145.83 283.27c-.33 16.58-12.7 28.39-30.02 28.61-24.29.3-48.63 1.59-72.89-.92-6.62-.68-13 1.83-19.72.44-14.41-2.97-23.7-10.85-24.09-25.26-.89-32.99-2.17-66.05.77-99 1.08-12.11 12.83-22.14 25.01-22.36 15.86-.28 31.72-.07 47.58-.07v-.05c14.8 0 29.61-.16 44.41.04 16.66.23 28.52 10.77 28.88 27.38.65 30.39.67 60.8.07 91.19zm72.26 144.63c-10.74 13.21-25.22 11.9-39.34 10.3-18.07-2.04-26.71-12.6-27.06-30.95-.09-4.49-.09-8.98.04-13.46.4-13.93 7.04-24.24 20.5-27.61 21-5.26 40.35-2.07 48.9 13.28 4.04 7.24 3.32 14.74 3.55 24.91.55 6.81-.17 15.65-6.59 23.53zM1129.88 320.25c6.36-1.91 16.56-3.97 30.59-6.21 14.01-2.23 28.35-3.35 43.01-3.35 14.01 0 26.6.96 37.76 2.87 11.14 1.91 20.55 5.73 28.2 11.47 7.65 5.73 13.38 13.55 17.2 23.42 3.82 9.89 5.73 22.79 5.73 38.71v93.67c15.92-6.36 31.06-10.83 45.4-13.38 14.34-2.54 30.11-3.82 47.31-3.82 30.59 0 59.57 5.42 86.98 16.25 27.39 10.84 51.62 26.61 72.64 47.31 21.03 20.71 37.59 46.36 49.7 76.94 12.1 30.59 18.16 65.95 18.16 106.09 0 41.43-6.21 77.58-18.64 108.48-12.43 30.91-29.79 56.56-52.09 76.94-22.31 20.4-49.55 35.84-81.72 46.36-32.18 10.51-67.71 15.77-106.57 15.77-42.05 0-77.75-4.94-107.05-14.81-29.32-9.87-54.17-22.13-74.55-36.8-28.05-19.74-42.05-45.24-42.05-76.46V320.25zm223.66 509.44c29.3 0 52.09-10.04 68.34-30.11s24.37-49.85 24.37-89.36c0-40.14-8.29-70.09-24.85-89.84-16.58-19.74-38.87-29.63-66.91-29.63-12.75 0-23.74 1.29-32.97 3.82-9.24 2.55-19.28 6.38-30.11 11.47V814.4c7 4.47 15.44 8.12 25.33 10.99 9.87 2.86 22.13 4.3 36.8 4.3zM1688.06 348.92c0-24.21 8.12-44.59 24.37-61.17 16.25-16.56 37.75-24.85 64.52-24.85 26.76 0 48.27 8.29 64.52 24.85 16.25 16.58 24.37 36.96 24.37 61.17 0 24.22-8.12 44.61-24.37 61.17-16.25 16.58-37.75 24.85-64.52 24.85-26.76 0-48.27-8.27-64.52-24.85-16.24-16.56-24.37-36.94-24.37-61.17zm170.13 592.6c-7.02 1.27-17.37 3.02-31.06 5.26a258.572 258.572 0 01-41.58 3.35c-14.03 0-26.61-.96-37.76-2.87-11.16-1.91-20.55-5.73-28.2-11.47-7.65-5.73-13.55-13.53-17.68-23.42-4.15-9.87-6.21-22.77-6.21-38.71V484.65c7-1.27 17.35-3.02 31.06-5.26 13.69-2.22 27.55-3.35 41.58-3.35 14.01 0 26.6.96 37.76 2.87 11.14 1.91 20.55 5.74 28.2 11.47 7.65 5.73 13.53 13.55 17.68 23.42 4.14 9.89 6.21 22.79 6.21 38.71v389.01zM2123.9 782.85c0 16.58 5.26 28.36 15.77 35.37 10.51 7.02 25.33 10.51 44.44 10.51 9.56 0 19.43-.79 29.63-2.39 10.19-1.58 19.12-3.66 26.76-6.21 5.73 7.02 10.66 14.81 14.81 23.42 4.14 8.6 6.21 18.97 6.21 31.06 0 24.22-9.08 43.97-27.24 59.26s-50.18 22.94-96.06 22.94c-56.08 0-99.25-12.75-129.51-38.23-30.27-25.48-45.4-66.91-45.4-124.26V385.24c7-1.91 17.04-3.97 30.11-6.21 13.05-2.23 26.91-3.35 41.58-3.35 28.03 0 49.85 4.94 65.47 14.81 15.61 9.89 23.42 30.75 23.42 62.6v61.17h125.21c3.82 7.02 7.48 15.77 10.99 26.28 3.5 10.51 5.26 22.15 5.26 34.89 0 22.31-4.94 38.4-14.81 48.27-9.89 9.89-23.1 14.81-39.67 14.81h-86.98v144.34z"/><linearGradient id="SVGID_1_" gradientUnits="userSpaceOnUse" x1="154.314" y1="760.337" x2="429.895" y2="529.206"><stop offset="0" stop-color="#201c50"/><stop offset="1" stop-color="#4141a5"/></linearGradient><path d="M349.45 540.33c11.4 0 22.8-.12 34.2.03 12.83.17 21.96 8.3 22.24 21.09.5 23.4.51 46.82.05 70.22-.25 12.77-9.78 21.86-23.12 22.03-18.7.23-37.45 1.22-56.12-.71-5.09-.53-10.01 1.41-15.18.34-11.09-2.29-18.25-8.36-18.55-19.45-.69-25.4-1.67-50.86.59-76.23.83-9.32 9.88-17.05 19.26-17.22 12.21-.22 24.43-.05 36.64-.05-.01-.03-.01-.04-.01-.05z" fill="url(#SVGID_1_)"/><linearGradient id="SVGID_2_" gradientUnits="userSpaceOnUse" x1="24.811" y1="605.93" x2="300.392" y2="374.798"><stop offset="0" stop-color="#201c50"/><stop offset="1" stop-color="#4141a5"/></linearGradient><path d="M264.12 454.29c0 12.16.09 24.32-.02 36.48-.12 13.63-8.16 22.17-21.81 22.33-24.53.29-49.07.24-73.6.04-12.98-.11-21.79-8.37-22.16-22.38-.64-24.09-.76-48.22.11-72.3.58-15.95 9.49-23.1 25.45-23.11 22.62-.02 45.25.57 67.84-.23 12.34-.44 26.03 11.41 24.33 24.63-.73 5.66-.1 11.5-.1 17.26v17.28h-.04z" fill="url(#SVGID_2_)"/><linearGradient id="SVGID_3_" gradientUnits="userSpaceOnUse" x1="13.754" y1="592.746" x2="289.334" y2="361.615"><stop offset="0" stop-color="#201c50"/><stop offset="1" stop-color="#4141a5"/></linearGradient><path d="M289.65 321.94c.01-8.59-.04-17.18.02-25.77.08-10.7 4.9-16.86 15.1-19.41 12.72-3.17 25.65-1.75 38.47-1.26 5.91.23 11.87 1.03 17.74.57 13.68-1.07 21.52 9.24 21.88 20.48.55 17.37.54 34.78.07 52.15-.31 11.44-7.47 18.93-18.57 19.91-19.37 1.71-38.79 1.8-58.15-.14-9.03-.9-16.35-9.12-16.53-18.31-.18-9.4-.04-18.81-.03-28.22z" fill="url(#SVGID_3_)"/><linearGradient id="SVGID_4_" gradientUnits="userSpaceOnUse" x1="164.573" y1="772.569" x2="440.154" y2="541.438"><stop offset="0" stop-color="#201c50"/><stop offset="1" stop-color="#4141a5"/></linearGradient><path d="M265.44 726.83c0 7.86.05 15.71-.01 23.57-.11 13.33-9.35 23.45-22.7 23.82-16.36.45-32.75.43-49.1-.02-11.64-.32-21.21-10.75-21.3-22.36-.13-15.93-.09-31.87-.02-47.8.06-13.63 8.8-23.46 22.44-23.93 16.35-.56 32.75-.51 49.1-.02 12.7.38 21.42 9.93 21.6 22.51.11 8.07.02 16.15.02 24.23h-.03z" fill="url(#SVGID_4_)"/><linearGradient id="SVGID_5_" gradientUnits="userSpaceOnUse" x1="6.806" y1="584.461" x2="282.386" y2="353.329"><stop offset="0" stop-color="#201c50"/><stop offset="1" stop-color="#4141a5"/></linearGradient><path d="M447.31 254.43c-5.71 0-11.42.09-17.13-.02-12.39-.25-21.9-9.1-22.29-21.42-.39-12.22-.32-24.48-.01-36.7.25-9.75 8.33-20.13 18.26-20.86 15.34-1.14 30.95-2.69 46.19 1.37 8.85 2.35 13.74 9.3 13.96 18.4.26 10.96.91 21.91 1.05 32.87.22 17.97-8.17 26.37-25.96 26.37-4.69-.01-9.38-.01-14.07-.01z" fill="url(#SVGID_5_)"/><linearGradient id="SVGID_6_" gradientUnits="userSpaceOnUse" x1="78.043" y1="669.398" x2="353.623" y2="438.266"><stop offset="0" stop-color="#201c50"/><stop offset="1" stop-color="#4141a5"/></linearGradient><path d="M117.46 590.64c6.61 0 13.22-.08 19.82.01 14.56.19 25.72 10.81 26.1 25.32.33 12.68-.01 25.37.12 38.05.15 14.93-12.01 30.5-29.64 29.07-10.72-.87-21.6-.43-32.45.53-16.33 1.44-30.39-11.06-31.27-27.83-.67-12.65-.66-25.39-.04-38.04.78-15.96 13.15-27.04 29.12-27.1 6.08-.02 12.16 0 18.24-.01z" fill="url(#SVGID_6_)"/><linearGradient id="SVGID_7_" gradientUnits="userSpaceOnUse" x1="281.869" y1="912.422" x2="557.449" y2="681.29"><stop offset="0" stop-color="#201c50"/><stop offset="1" stop-color="#4141a5"/></linearGradient><path d="M491.63 760.84c.4 4.94-.13 11.34-4.78 17.05-7.78 9.57-18.27 8.62-28.5 7.46-13.09-1.48-19.35-9.13-19.6-22.42-.06-3.25-.06-6.5.03-9.75.29-10.09 5.1-17.56 14.85-20 15.22-3.81 29.23-1.5 35.42 9.62 2.94 5.24 2.42 10.67 2.58 18.04z" fill="url(#SVGID_7_)"/><linearGradient id="SVGID_8_" gradientUnits="userSpaceOnUse" x1="98.499" y1="693.789" x2="374.08" y2="462.657"><stop offset="0" stop-color="#201c50"/><stop offset="1" stop-color="#4141a5"/></linearGradient><path d="M433.29 389.59c8.36-.99 16.29 1.36 21.06 10.35.74 1.39 1.33 2.93 1.66 4.47 1.43 6.75.33 13.54-.39 20.22-.54 5.01-4.18 8.73-8.54 11.11-8.1 4.43-28.99 5.16-35.59-5.25-2.06-3.25-3.9-6.36-3.84-10.32.06-4.47-.14-8.94.06-13.4.4-8.89 8.56-16.82 17.5-17.17 2.32-.09 4.65-.01 8.08-.01z" fill="url(#SVGID_8_)"/><linearGradient id="SVGID_9_" gradientUnits="userSpaceOnUse" x1="272.418" y1="901.153" x2="547.998" y2="670.021"><stop offset="0" stop-color="#201c50"/><stop offset="1" stop-color="#4141a5"/></linearGradient><path d="M393.62 836.25c0 7.43.05 14.86-.01 22.29-.11 12.61-8.84 22.18-21.47 22.52-15.47.42-30.97.4-46.44-.02-11-.3-20.06-10.16-20.15-21.14-.12-15.07-.09-30.14-.02-45.2.06-12.89 8.32-22.18 21.22-22.63 15.46-.53 30.97-.48 46.44-.02 12.01.36 20.26 9.39 20.43 21.29.11 7.64.02 15.27.02 22.91h-.02z" fill="url(#SVGID_9_)"/></svg>