<?xml version="1.0" encoding="UTF-8" standalone="no"?>
<!DOCTYPE svg PUBLIC "-//W3C//DTD SVG 1.1//EN" "http://www.w3.org/Graphics/SVG/1.1/DTD/svg11.dtd">
<svg width="100%" height="100%" viewBox="0 0 2250 1500" version="1.1" xmlns="http://www.w3.org/2000/svg" xmlns:xlink="http://www.w3.org/1999/xlink" xml:space="preserve" xmlns:serif="http://www.serif.com/" style="fill-rule:evenodd;clip-rule:evenodd;stroke-linejoin:round;stroke-miterlimit:2;">
    <g transform="matrix(4.16667,0,0,4.16667,0,0)">
        <path d="M202.261,102.978C219.424,89.939 228.132,82.657 233.683,73.014C241.497,59.449 236.763,47.945 226.864,43.45C217.581,39.23 206.564,43.19 202.261,52.294C197.958,43.19 186.941,39.23 177.658,43.45C167.759,47.945 163.025,59.449 170.839,73.014C176.393,82.657 185.098,89.939 202.261,102.978Z" style="fill:rgb(227,38,38);fill-rule:nonzero;"/>
        <path d="M478.438,149.133C476.651,148.31 474.317,147.763 471.777,147.763C467.316,147.763 464.569,149.547 464.569,152.841L464.569,152.981C464.569,155.794 466.902,157.441 470.267,157.441C475.141,157.441 478.438,154.764 478.438,150.987L478.438,149.133ZM484.343,130.873C487.09,133.617 488.323,137.671 488.323,142.612L488.323,163.966L478.231,163.966L478.231,159.982C475.691,162.796 472.19,164.649 467.109,164.649C460.175,164.649 454.477,160.669 454.477,153.391L454.477,153.254C454.477,145.219 460.588,141.512 469.307,141.512C473.014,141.512 475.691,142.132 478.302,143.025L478.302,142.405C478.302,138.081 475.621,135.677 470.403,135.677C466.423,135.677 463.608,136.434 460.245,137.671L457.634,129.706C461.686,127.919 465.666,126.752 471.914,126.752C477.615,126.752 481.732,128.263 484.343,130.873ZM350.468,230.218L360.902,230.218L360.902,180.098L350.468,180.098L350.468,230.218ZM311.196,142.679L326.919,142.679C326.303,138.012 323.555,134.854 319.161,134.854C314.837,134.854 312.02,137.945 311.196,142.679ZM320.191,164.787C309.139,164.787 300.968,157.029 300.968,145.77L300.968,145.633C300.968,135.128 308.452,126.479 319.161,126.479C331.45,126.479 337.081,136.021 337.081,146.457C337.081,147.28 337.011,148.244 336.944,149.204L311.333,149.204C312.363,153.941 315.66,156.412 320.328,156.412C323.832,156.412 326.369,155.315 329.253,152.635L335.228,157.922C331.793,162.18 326.849,164.787 320.191,164.787ZM329.733,230.218L340.169,230.218L340.169,180.098L329.733,180.098L329.733,230.218ZM411.774,142.679C411.158,138.012 408.41,134.854 404.017,134.854C399.692,134.854 396.875,137.945 396.052,142.679L411.774,142.679ZM421.936,146.457C421.936,147.28 421.866,148.244 421.797,149.204L396.188,149.204C397.219,153.941 400.516,156.412 405.184,156.412C408.684,156.412 411.225,155.315 414.108,152.635L420.083,157.922C416.648,162.18 411.704,164.787 405.047,164.787C393.994,164.787 385.823,157.029 385.823,145.77L385.823,145.633C385.823,135.128 393.308,126.479 404.017,126.479C416.306,126.479 421.936,136.021 421.936,146.457ZM440.128,134.579L440.128,127.164L429.692,127.164L429.692,163.965L440.128,163.965L440.128,150.372C440.128,141.584 444.385,137.393 451.319,137.393L451.866,137.393L451.866,126.478C445.688,126.204 442.258,129.498 440.128,134.579ZM386.578,207.97C382.594,206.597 379.094,205.637 379.094,203.576L379.094,203.439C379.094,202 380.397,200.899 382.937,200.899C385.615,200.899 389.256,202.203 392.893,204.333L396.877,197.125C392.893,194.444 387.811,192.868 383.145,192.868C375.729,192.868 369.688,197.055 369.688,204.536L369.688,204.677C369.688,211.818 375.522,214.218 380.674,215.729C384.725,216.966 388.295,217.719 388.295,219.986L388.295,220.123C388.295,221.77 386.922,222.87 383.901,222.87C380.467,222.87 376.279,221.36 372.295,218.476L367.835,225.34C372.709,229.185 378.477,230.901 383.624,230.901C391.589,230.901 397.7,227.194 397.7,219.026L397.7,218.886C397.7,212.158 391.726,209.688 386.578,207.97ZM368.111,163.965L378.547,163.965L378.547,140.14C378.547,131.695 373.946,126.478 366.051,126.478C360.767,126.478 357.676,129.291 355.272,132.382L355.272,127.164L344.837,127.164L344.837,163.965L355.272,163.965L355.272,143.437C355.272,138.493 357.812,135.953 361.794,135.953C365.777,135.953 368.111,138.493 368.111,143.437L368.111,163.965ZM183.622,229.336C182.735,219.634 180.398,210.141 178.635,200.575C176.582,189.803 174.875,178.887 174.875,167.888C166.182,171.252 157.06,173.47 147.791,174.448C145.237,181.508 142.469,188.496 139.995,195.592C147.823,199.274 155.925,203.077 162.078,209.359C158.216,219.196 154.358,229.028 150.346,238.801C144.273,232.795 137.195,227.693 129.209,224.588C124.878,236.079 120.638,247.59 116.377,259.104C105.251,259.129 94.125,259.119 83,259.111C87.972,245.806 92.913,232.487 97.86,219.171C86.935,218.838 75.966,224.382 70.059,233.654C67.546,237.529 66.022,242.211 66.66,246.864C67.266,256.693 72.343,265.944 79.916,272.136C90.263,280.704 103.832,284.201 116.983,285.186C127.853,285.929 138.989,285.284 149.372,281.77C158.728,278.745 167.38,273.17 173.459,265.359C181.417,255.299 184.529,241.997 183.622,229.336ZM126.515,141.407C127.832,138.394 128.922,135.278 130.119,132.219C131.946,127.338 134.174,122.513 134.784,117.284C135.412,112.942 134.746,108.156 131.907,104.673C128.953,101.151 123.785,99.768 119.45,101.221C116.17,102.262 113.682,104.992 112.28,108.054C109.698,113.787 109.411,120.655 112.204,126.36C115.228,132.667 120.025,138.534 126.515,141.407ZM219.28,115.347C213.407,130.947 209.079,147.427 209.377,164.223C209.486,183.601 216.554,201.994 218.481,221.154C219.904,234.116 219.497,247.446 215.779,260.016C212.37,271.765 206.15,282.715 197.642,291.5C189.12,300.422 178.463,307.16 167.005,311.607C152.309,317.34 136.396,319.513 120.694,319.19C101.964,318.801 82.968,314.54 66.877,304.662C52.979,296.241 41.514,283.423 35.805,268.082C30.059,252.853 30.458,235.283 37.379,220.502C42.74,208.946 52.373,199.601 63.786,194.085C77.877,187.287 93.981,185.573 109.411,187.164C111.565,181.564 113.679,175.944 115.876,170.362C102.89,164.801 91.069,155.585 84.275,142.98C73.868,124.054 76.222,98.433 91.15,82.555C98.73,74.201 109.617,69.204 120.799,68.363L128.55,68.363C136.252,69.008 143.961,71.153 150.409,75.543C158.146,80.631 163.651,88.792 165.957,97.739C168.834,108.878 167.625,120.858 163.564,131.543C162.239,135.32 160.866,139.083 159.523,142.854C165.775,141.214 171.893,138.337 176.351,133.54C181.176,128.617 183.628,121.962 185.202,115.371C196.566,115.315 207.923,115.36 219.28,115.347ZM497.796,113.845L497.796,163.965L508.231,163.965L508.231,113.845L497.796,113.845ZM273.163,164.787C281.951,164.787 288.749,161.356 293.69,157.166L293.69,136.295L272.819,136.295L272.819,145.427L283.462,145.427L283.462,152.294C280.784,154.215 277.351,155.175 273.506,155.175C264.995,155.175 258.954,148.724 258.954,139.936L258.954,139.799C258.954,131.627 265.062,124.829 272.753,124.829C278.314,124.829 281.607,126.616 285.315,129.707L291.974,121.672C286.962,117.414 281.744,115.081 273.097,115.081C258.54,115.081 247.898,126.273 247.898,139.936L247.898,140.072C247.898,154.285 258.196,164.787 273.163,164.787ZM308.999,230.215L319.435,230.215L319.435,193.414L308.999,193.414L308.999,230.215ZM274.058,202.478L261.422,182.157L250.026,182.157L250.026,230.216L260.392,230.216L260.392,199.047L273.781,219.368L274.058,219.368L287.58,198.84L287.58,230.216L298.086,230.216L298.086,182.157L286.687,182.157L274.058,202.478ZM308.726,180.098L319.711,180.098L319.711,189.367L308.726,189.367L308.726,180.098Z" style="fill:rgb(0,84,166);fill-rule:nonzero;"/>
    </g>
</svg>
