<?xml version="1.0" encoding="UTF-8" standalone="no"?><!DOCTYPE svg PUBLIC "-//W3C//DTD SVG 1.1//EN" "http://www.w3.org/Graphics/SVG/1.1/DTD/svg11.dtd"><svg width="100%" height="100%" viewBox="0 0 118 118" version="1.1" xmlns="http://www.w3.org/2000/svg" xmlns:xlink="http://www.w3.org/1999/xlink" xml:space="preserve" xmlns:serif="http://www.serif.com/" style="fill-rule:evenodd;clip-rule:evenodd;stroke-linejoin:round;stroke-miterlimit:2;"><path d="M118,66.33c-1.24,0.8 -2.91,1.33 -5.41,1.33c-8.51,0 -14.97,-3.43 -21.81,-7.06c-7.01,-3.72 -14.26,-7.56 -24.3,-8.19l-0.88,-0.78c-7.23,-6.41 -14.06,-12.46 -14.06,-20.99c0,-9.64 6.17,-13.06 11.46,-13.06c3.32,0 5.73,1.14 7.17,3.39c1.49,2.34 1.56,5.51 0.76,7.23c-0.94,2.03 -0.61,4.19 0.86,5.51c1.23,1.1 2.94,1.3 4.26,0.49c1.17,-0.71 2.91,-2.7 1.56,-8.11c-0.46,-4.89 -4.08,-13.93 -14.61,-13.93c-10.46,0 -17.5,7.43 -17.5,18.48c-0,10.46 5.13,17.87 10.57,23.73c-3.94,2.19 -7.23,5.95 -9.64,10.26c0.27,-1.64 0.38,-3.02 0.38,-3.94c-0,-6.31 -2.12,-11.63 -5.39,-13.54c-1.67,-0.98 -3.54,-0.98 -5.26,-0.01c-3.04,1.72 -4.52,4.33 -4.52,8.01c-0,4.28 2.78,7.15 6.91,7.15c1.4,0 2.7,-0.37 3.77,-1.02c-0.19,4.66 -3.42,12.38 -9.67,12.38c-1.64,0 -9.81,-0.85 -9.81,-17.73c-0,-11.21 3.05,-22.64 9.87,-22.9c2.3,-0.1 4.14,0.51 5.09,1.65c0.67,0.81 0.86,1.87 0.56,3.16c-0.64,2.75 0.39,4.57 1.56,5.36c0.99,0.67 2.18,0.69 3.1,0.06c0.58,-0.4 1.84,-1.68 1.08,-4.81c-1.27,-5.21 -3.2,-10.29 -11.44,-10.29c-11.61,0 -18.03,16.97 -18.03,28.69c-0,9.85 2.59,17.84 7.11,21.93c2.39,2.17 5.26,3.26 8.54,3.26c0.51,0 1.04,-0.03 1.57,-0.08c4.42,-0.45 8.09,-2.82 10.75,-6.92c-0.33,1.73 -0.52,3.44 -0.52,5.05c-0,13.05 8.84,22.51 21.03,22.51c5.97,0 11.22,-2.11 14.8,-5.93c3.8,-4.07 5.56,-9.84 5.09,-16.68c-0.46,-6.77 -2.73,-12.61 -7.07,-18.11c5.56,1.39 11.01,3.53 16.33,5.62c7.46,2.93 14.51,5.7 20.53,5.7c1.99,0 3.71,-0.13 5.23,-0.36l-0,-6.51l-0.02,-0Zm-77.7,-9.22c-0.61,0.85 -1.25,0.85 -1.45,0.85c-0.7,-0 -1.23,-0.18 -1.58,-0.55c-0.43,-0.45 -0.65,-1.23 -0.62,-2.19c0.04,-1.23 0.64,-3.55 2.64,-3.55c0.3,-0 1.02,0.51 1.74,2.38c0.18,0.57 -0.01,2.05 -0.73,3.06Zm31.88,35.57c-2.31,2.51 -5.44,3.83 -9.07,3.83c-10.24,-0 -15.87,-5.83 -15.87,-16.43c-0,-4.26 1.1,-18.09 15.01,-19.58c6.98,6.59 12.92,12.36 13.54,19.71c0.42,5.05 -0.86,9.48 -3.61,12.47Z" style="fill:#fff;fill-rule:nonzero;"/></svg>