<svg xmlns="http://www.w3.org/2000/svg" viewBox="0 0 93.472 23.712"><path d="M20.032-12.448a1.882,1.882,0,0,1,1.392.5,1.653,1.653,0,0,1,.432,1.36l-.48,6.24a7.865,7.865,0,0,1-.352,2.016,2.268,2.268,0,0,1-.816,1.1,5.154,5.154,0,0,1-1.616.688,19.441,19.441,0,0,1-2.88.608A21.754,21.754,0,0,1,12.7.288,12.128,12.128,0,0,1,6.9-1.024,8.926,8.926,0,0,1,3.152-4.768a12.01,12.01,0,0,1-1.3-5.728,13.9,13.9,0,0,1,1.456-6.528,10.284,10.284,0,0,1,4.176-4.3,12.774,12.774,0,0,1,6.336-1.52A15.151,15.151,0,0,1,18-22.32a10.757,10.757,0,0,1,2.992,1.3,2.284,2.284,0,0,1,1.216,1.984,2.048,2.048,0,0,1-.544,1.408,1.732,1.732,0,0,1-1.344.608,2.376,2.376,0,0,1-1.216-.384,9.674,9.674,0,0,0-2.336-1.1,9.8,9.8,0,0,0-2.88-.368,6.278,6.278,0,0,0-5.136,2.24A9.4,9.4,0,0,0,6.912-10.5a7.489,7.489,0,0,0,1.6,5.152,6.148,6.148,0,0,0,4.832,1.792,12.3,12.3,0,0,0,3.52-.544l.416-4.9H14.5q-1.984,0-1.984-1.664a1.617,1.617,0,0,1,.576-1.312,2.222,2.222,0,0,1,1.472-.48ZM26.72.192a2.5,2.5,0,0,1-1.712-.576,1.9,1.9,0,0,1-.56-1.7l.928-11.68a2.265,2.265,0,0,1,.848-1.7A2.836,2.836,0,0,1,28-16.032a2.393,2.393,0,0,1,1.664.576,1.927,1.927,0,0,1,.544,1.7L29.28-2.08a2.312,2.312,0,0,1-.816,1.7A2.7,2.7,0,0,1,26.72.192Zm1.664-18.784a2.921,2.921,0,0,1-2.016-.656,2.259,2.259,0,0,1-.736-1.776,2.21,2.21,0,0,1,.736-1.76,2.969,2.969,0,0,1,2.016-.64,2.934,2.934,0,0,1,2,.656,2.2,2.2,0,0,1,.752,1.744,2.259,2.259,0,0,1-.736,1.776A2.921,2.921,0,0,1,28.384-18.592ZM34.688.192a2.5,2.5,0,0,1-1.712-.576,1.9,1.9,0,0,1-.56-1.7l1.44-18.368a2.312,2.312,0,0,1,.816-1.7,2.753,2.753,0,0,1,1.776-.576,2.453,2.453,0,0,1,1.68.576,1.9,1.9,0,0,1,.56,1.7L37.248-2.08a2.312,2.312,0,0,1-.816,1.7A2.7,2.7,0,0,1,34.688.192ZM48.1-16.1q6.72,0,6.72,6.048,0,.64-.032.992l-.576,7.008a2.318,2.318,0,0,1-.7,1.664,2.487,2.487,0,0,1-1.728.576A2.121,2.121,0,0,1,50.16-.432a1.958,1.958,0,0,1-.5-1.616v-.1a4.325,4.325,0,0,1-1.7,1.776A4.992,4.992,0,0,1,45.44.256a6.272,6.272,0,0,1-2.784-.608,4.945,4.945,0,0,1-1.968-1.664,4.108,4.108,0,0,1-.72-2.368,4.322,4.322,0,0,1,.912-2.9,5.4,5.4,0,0,1,2.88-1.568,22.529,22.529,0,0,1,5.3-.5h1.152l.032-.416a2.523,2.523,0,0,0-.576-2.048,2.935,2.935,0,0,0-2.144-.672,10.088,10.088,0,0,0-3.968,1.024,2.19,2.19,0,0,1-.928.224,1.531,1.531,0,0,1-1.152-.464,1.574,1.574,0,0,1-.448-1.136,1.9,1.9,0,0,1,.288-.992,2.43,2.43,0,0,1,.9-.832A10.241,10.241,0,0,1,44.9-15.712,13.146,13.146,0,0,1,48.1-16.1ZM46.784-3.072a2.874,2.874,0,0,0,2.192-.944,3.964,3.964,0,0,0,1.008-2.448l.032-.544h-.864a9.121,9.121,0,0,0-3.472.464A1.664,1.664,0,0,0,44.672-4.9a1.664,1.664,0,0,0,.576,1.328A2.273,2.273,0,0,0,46.784-3.072ZM59.552.192A2.5,2.5,0,0,1,57.84-.384a1.9,1.9,0,0,1-.56-1.7l1.44-18.368a2.312,2.312,0,0,1,.816-1.7,2.753,2.753,0,0,1,1.776-.576,2.453,2.453,0,0,1,1.68.576,1.9,1.9,0,0,1,.56,1.7L62.112-2.08a2.312,2.312,0,0,1-.816,1.7A2.7,2.7,0,0,1,59.552.192ZM72.96-16.1q6.72,0,6.72,6.048,0,.64-.032.992l-.576,7.008a2.318,2.318,0,0,1-.7,1.664A2.487,2.487,0,0,1,76.64.192a2.121,2.121,0,0,1-1.616-.624,1.958,1.958,0,0,1-.5-1.616v-.1a4.325,4.325,0,0,1-1.7,1.776A4.992,4.992,0,0,1,70.3.256,6.272,6.272,0,0,1,67.52-.352a4.945,4.945,0,0,1-1.968-1.664,4.108,4.108,0,0,1-.72-2.368,4.322,4.322,0,0,1,.912-2.9,5.4,5.4,0,0,1,2.88-1.568,22.529,22.529,0,0,1,5.3-.5h1.152L75.1-9.76a2.523,2.523,0,0,0-.576-2.048,2.935,2.935,0,0,0-2.144-.672,10.088,10.088,0,0,0-3.968,1.024,2.19,2.19,0,0,1-.928.224,1.531,1.531,0,0,1-1.152-.464,1.574,1.574,0,0,1-.448-1.136,1.9,1.9,0,0,1,.288-.992,2.43,2.43,0,0,1,.9-.832,10.241,10.241,0,0,1,2.688-1.056A13.146,13.146,0,0,1,72.96-16.1ZM71.648-3.072a2.874,2.874,0,0,0,2.192-.944,3.964,3.964,0,0,0,1.008-2.448l.032-.544h-.864a9.121,9.121,0,0,0-3.472.464A1.664,1.664,0,0,0,69.536-4.9a1.664,1.664,0,0,0,.576,1.328A2.273,2.273,0,0,0,71.648-3.072ZM88.032.256a12.814,12.814,0,0,1-5.5-1.184,2.451,2.451,0,0,1-1.008-.816,1.874,1.874,0,0,1-.336-1.072,1.868,1.868,0,0,1,.464-1.248,1.471,1.471,0,0,1,1.168-.544,1.735,1.735,0,0,1,.928.256A10.32,10.32,0,0,0,86-3.488a9.587,9.587,0,0,0,2.416.32q2.432,0,2.432-1.28a1.138,1.138,0,0,0-.72-1.04,13.572,13.572,0,0,0-2.32-.816,19.169,19.169,0,0,1-2.816-.944,5.3,5.3,0,0,1-1.92-1.44,3.533,3.533,0,0,1-.768-2.448,4.182,4.182,0,0,1,.928-2.592,5.8,5.8,0,0,1,2.512-1.744A10.4,10.4,0,0,1,89.5-16.1a10.445,10.445,0,0,1,2.528.336,8.3,8.3,0,0,1,2.208.848,2.179,2.179,0,0,1,.816.8,1.987,1.987,0,0,1,.272.992,1.868,1.868,0,0,1-.416,1.216,1.3,1.3,0,0,1-1.056.512,2.063,2.063,0,0,1-.9-.256,8.225,8.225,0,0,0-3.84-1.024,3.927,3.927,0,0,0-1.856.352,1.089,1.089,0,0,0-.64.992,1.138,1.138,0,0,0,.72,1.04,13.572,13.572,0,0,0,2.32.816,19.936,19.936,0,0,1,2.8.928,5.251,5.251,0,0,1,1.9,1.408,3.545,3.545,0,0,1,.8,2.4A4.248,4.248,0,0,1,93.3-1.072,8.993,8.993,0,0,1,88.032.256Z" transform="translate(-1.856 23.424)" fill="#262B96"/></svg>