<svg width="294" height="115" viewBox="0 0 294 115" fill="none" xmlns="http://www.w3.org/2000/svg">
<path fill-rule="evenodd" clip-rule="evenodd" d="M281.714 19.8013H280.39V12.5992H278.005V11.4238H284.098V12.5992H281.714V19.8013Z" fill="#061B2B"/>
<path fill-rule="evenodd" clip-rule="evenodd" d="M289.139 19.8013L286.78 12.8052H286.735C286.797 13.8437 286.829 14.8183 286.829 15.7277V19.8013H285.622V11.4238H287.498L289.758 18.0875H289.79L292.118 11.4238H294V19.8013H292.719V15.6586C292.719 15.2417 292.729 14.6994 292.749 14.0317C292.77 13.3628 292.787 12.9574 292.802 12.8167H292.757L290.313 19.8013H289.139Z" fill="#061B2B"/>
<path fill-rule="evenodd" clip-rule="evenodd" d="M0 89.106H22.0881V28.9404H0V89.106ZM10.9245 22.8477C3.64071 22.8477 0 19.3152 0 12.2478C0 5.09974 3.68074 1.52318 11.0446 1.52318C18.2472 1.52318 21.9267 5.09974 22.0881 12.2478C22.0881 19.3152 18.4061 22.8477 11.0446 22.8477H10.9245Z" fill="#656565"/>
<path fill-rule="evenodd" clip-rule="evenodd" d="M34.4053 87.5828V43.8522H26.658V27.8181H34.4053V25.8735C34.4053 22.2299 35.0205 18.7484 36.2498 15.4276C37.6431 11.622 39.6517 8.5443 42.2768 6.19462C44.6545 4.00821 47.5232 2.39019 50.8866 1.33566C53.7553 0.44563 56.747 0 59.8643 0C63.3072 0 66.7092 0.364606 70.0725 1.09382L69.7034 17.8571C67.8166 17.452 65.9311 17.2494 64.0468 17.2494C58.9607 17.2494 56.4201 19.8004 56.4201 24.9025V27.8181H67.4897V43.8522H56.6675V87.5828H34.4053Z" fill="#656565"/>
<path fill-rule="evenodd" clip-rule="evenodd" d="M76.1658 89.106H99.0155V28.9404H76.1658V89.106ZM87.4658 22.8477C79.932 22.8477 76.1658 19.3152 76.1658 12.2478C76.1658 5.09974 79.9722 1.52318 87.5913 1.52318C95.0422 1.52318 98.8486 5.09974 99.0155 12.2478C99.0155 19.3152 95.2066 22.8477 87.5913 22.8477H87.4658Z" fill="#656565"/>
<path fill-rule="evenodd" clip-rule="evenodd" d="M107.888 49.3699C107.888 45.6901 107.846 41.9309 107.765 38.0874L107.394 28.7657H126.674L127.663 36.4923H128.034C128.693 35.5119 129.475 34.5724 130.383 33.6714C131.536 32.6104 132.812 31.6288 134.214 30.729C137.838 28.5203 141.876 27.4172 146.326 27.4172C160.991 27.4172 168.326 36.1242 168.326 53.5394V89.106H145.956V56.2376C145.956 48.8791 143.359 45.2005 138.169 45.2005C136.191 45.2005 134.542 45.7731 133.226 46.9171C132.317 47.8182 131.536 49.0018 130.876 50.4743C130.464 51.3741 130.259 52.8465 130.259 54.8891V89.106H107.888V49.3699Z" fill="#656565"/>
<path fill-rule="evenodd" clip-rule="evenodd" d="M199.886 27.4172H200.859C207.666 27.4172 212.69 30.0505 215.934 35.3133H216.055C216.216 35.3133 216.499 33.2902 216.906 29.239V28.8744L217.027 28.7541H235.872L235.992 28.8744H236.114C235.79 33.1687 235.629 38.6341 235.629 45.2743V79.287C235.629 92.5675 232.711 101.718 226.875 106.741C221.283 112.246 212.488 115 200.494 115C191.821 115 184.324 113.501 178.003 110.506V110.384L182.257 93.7424H182.379C188.134 96.658 193.968 98.1152 199.886 98.1152C206.695 98.1152 211.071 95.1578 213.016 89.248C213.339 87.7896 213.502 86.3324 213.502 84.874V53.4135C213.502 50.0117 212.205 47.2987 209.611 45.2743C208.233 44.4653 206.773 44.059 205.235 44.059C200.615 44.059 197.656 46.4087 196.361 51.1043C195.792 53.1299 195.509 55.6404 195.509 58.6358V58.7574C195.509 65.3178 197.697 69.6501 202.074 71.7555C203.047 72.1619 204.098 72.3632 205.235 72.3632H205.478C206.126 72.3632 206.856 72.2834 207.666 72.1201V72.2417V86.0893C205.396 87.3857 202.439 88.0327 198.791 88.0327H197.941C189.023 88.0327 182.014 83.9839 176.908 75.8853C174.234 70.8655 172.896 65.5204 172.896 59.8512V58.3928C172.896 48.8381 176.137 40.8217 182.622 34.3411C187.89 29.7252 193.644 27.4172 199.886 27.4172" fill="#656565"/>
<path fill-rule="evenodd" clip-rule="evenodd" d="M240.71 68.5833C245.741 71.4762 251.351 72.9233 257.538 72.9233C261.991 72.9233 264.218 71.8672 264.218 69.7563C264.218 68.1143 261.576 66.4723 256.3 64.8304C249.948 62.9533 245.245 60.3734 242.196 57.0895C239.555 54.1978 238.277 50.9139 238.36 47.2377C238.36 41.4531 240.752 36.7233 245.536 33.0472C250.484 29.2931 256.917 27.4172 264.836 27.4172C268.301 27.4172 271.764 27.7692 275.229 28.4733C278.116 29.0202 280.673 29.7632 282.9 30.7011L279.312 45.0099C277.58 44.2291 275.6 43.525 273.373 42.8989C270.569 42.1949 268.053 41.8429 265.826 41.8429C261.784 41.8429 259.765 42.9391 259.765 45.1268C259.765 46.7688 262.814 48.5277 268.92 50.4047C279.889 53.7678 285.455 59.7108 285.622 68.2312C285.622 74.0183 283.352 78.6312 278.817 82.071C273.868 85.7471 266.857 87.5828 257.784 87.5828C249.453 87.5828 242.483 86.2161 236.876 83.4791L240.71 68.5833Z" fill="#656565"/>
<path fill-rule="evenodd" clip-rule="evenodd" d="M0 89.106H22.0881V28.9404H0V89.106ZM10.9245 22.8477C3.64071 22.8477 0 19.3152 0 12.2478C0 5.09974 3.68074 1.52318 11.0446 1.52318C18.2472 1.52318 21.9267 5.09974 22.0881 12.2478C22.0881 19.3152 18.4061 22.8477 11.0446 22.8477H10.9245Z" fill="#00A7E1"/>
<path fill-rule="evenodd" clip-rule="evenodd" d="M34.4053 87.5828V43.8522H26.658V27.8181H34.4053V25.8735C34.4053 22.2299 35.0205 18.7484 36.2498 15.4276C37.6431 11.622 39.6517 8.5443 42.2768 6.19462C44.6545 4.00821 47.5232 2.39019 50.8866 1.33566C53.7553 0.44563 56.747 0 59.8643 0C63.3072 0 66.7092 0.364606 70.0725 1.09382L69.7034 17.8571C67.8166 17.452 65.9311 17.2494 64.0468 17.2494C58.9607 17.2494 56.4201 19.8004 56.4201 24.9025V27.8181H67.4897V43.8522H56.6675V87.5828H34.4053Z" fill="#061B2B"/>
<path fill-rule="evenodd" clip-rule="evenodd" d="M76.1658 89.106H99.0155V28.9404H76.1658V89.106ZM87.4658 22.8477C79.932 22.8477 76.1658 19.3152 76.1658 12.2478C76.1658 5.09974 79.9722 1.52318 87.5913 1.52318C95.0422 1.52318 98.8486 5.09974 99.0155 12.2478C99.0155 19.3152 95.2066 22.8477 87.5913 22.8477H87.4658Z" fill="#061B2B"/>
<path fill-rule="evenodd" clip-rule="evenodd" d="M107.888 49.3699C107.888 45.6901 107.846 41.9309 107.765 38.0874L107.394 28.7657H126.674L127.663 36.4923H128.034C128.693 35.5119 129.475 34.5724 130.383 33.6714C131.536 32.6104 132.812 31.6288 134.214 30.729C137.838 28.5203 141.876 27.4172 146.326 27.4172C160.991 27.4172 168.326 36.1242 168.326 53.5394V89.106H145.956V56.2376C145.956 48.8791 143.359 45.2005 138.169 45.2005C136.191 45.2005 134.542 45.7731 133.226 46.9171C132.317 47.8182 131.536 49.0018 130.876 50.4743C130.464 51.3741 130.259 52.8465 130.259 54.8891V89.106H107.888V49.3699Z" fill="#061B2B"/>
<path fill-rule="evenodd" clip-rule="evenodd" d="M199.886 27.4172H200.859C207.666 27.4172 212.69 30.0505 215.934 35.3133H216.055C216.216 35.3133 216.499 33.2902 216.906 29.239V28.8744L217.027 28.7541H235.872L235.992 28.8744H236.114C235.79 33.1687 235.629 38.6341 235.629 45.2743V79.287C235.629 92.5675 232.711 101.718 226.875 106.741C221.283 112.246 212.488 115 200.494 115C191.821 115 184.324 113.501 178.003 110.506V110.384L182.257 93.7424H182.379C188.134 96.658 193.968 98.1152 199.886 98.1152C206.695 98.1152 211.071 95.1578 213.016 89.248C213.339 87.7896 213.502 86.3324 213.502 84.874V53.4135C213.502 50.0117 212.205 47.2987 209.611 45.2743C208.233 44.4653 206.773 44.059 205.235 44.059C200.615 44.059 197.656 46.4087 196.361 51.1043C195.792 53.1299 195.509 55.6404 195.509 58.6358V58.7574C195.509 65.3178 197.697 69.6501 202.074 71.7555C203.047 72.1619 204.098 72.3632 205.235 72.3632H205.478C206.126 72.3632 206.856 72.2834 207.666 72.1201V72.2417V86.0893C205.396 87.3857 202.439 88.0327 198.791 88.0327H197.941C189.023 88.0327 182.014 83.9839 176.908 75.8853C174.234 70.8655 172.896 65.5204 172.896 59.8512V58.3928C172.896 48.8381 176.137 40.8217 182.622 34.3411C187.89 29.7252 193.644 27.4172 199.886 27.4172" fill="#061B2B"/>
<path fill-rule="evenodd" clip-rule="evenodd" d="M240.71 68.5833C245.741 71.4762 251.351 72.9233 257.538 72.9233C261.991 72.9233 264.218 71.8672 264.218 69.7563C264.218 68.1143 261.576 66.4723 256.3 64.8304C249.948 62.9533 245.245 60.3734 242.196 57.0895C239.555 54.1978 238.277 50.9139 238.36 47.2377C238.36 41.4531 240.752 36.7233 245.536 33.0472C250.484 29.2931 256.917 27.4172 264.836 27.4172C268.301 27.4172 271.764 27.7692 275.229 28.4733C278.116 29.0202 280.673 29.7632 282.9 30.7011L279.312 45.0099C277.58 44.2291 275.6 43.525 273.373 42.8989C270.569 42.1949 268.053 41.8429 265.826 41.8429C261.784 41.8429 259.765 42.9391 259.765 45.1268C259.765 46.7688 262.814 48.5277 268.92 50.4047C279.889 53.7678 285.455 59.7108 285.622 68.2312C285.622 74.0183 283.352 78.6312 278.817 82.071C273.868 85.7471 266.857 87.5828 257.784 87.5828C249.453 87.5828 242.483 86.2161 236.876 83.4791L240.71 68.5833Z" fill="#061B2B"/>
</svg>
