<svg width="644" height="153" xmlns="http://www.w3.org/2000/svg">
 <!-- Created with Method Draw - http://github.com/duopixel/Method-Draw/ -->

 <!--<g>
  <title>background</title>
  <rect fill="#fff" id="canvas_background" height="155" width="646" y="-1" x="-1"/>
  <g display="none" overflow="visible" y="0" x="0" height="100%" width="100%" id="canvasGrid">
   <rect fill="url(#gridpattern)" stroke-width="0" y="3" x="3" height="400" width="580"/>
  </g>
 </g>-->
 <g>
  <title>Layer 1</title>
  <!-- Created with Method Draw - http://github.com/duopixel/Method-Draw/ -->
  <metadata transform="translate(0.6896551847457886,0) translate(0.2998780608177185,-0.07496951520442963) translate(-0.2998780608177185,0.07496951520442963) translate(-0.07496951520442963,0.14993903040885925) translate(0,-14.54582405090332) translate(0.1087057963013649,0.1087057963013649) translate(0,-4.547473508864641e-13) translate(-9.094947017729282e-13,0) translate(0.5378533601760864,0.5378533601760864) translate(-9.094947017729282e-13,-4.547473508864641e-13) translate(0,-4.547473508864641e-13) translate(18.922500610351562,18.922500610351562) translate(5197.52490234375,0) translate(0,3584.5) matrix(9.199141512384267,0,0,9.199141512384267,-7508.9309486749535,-5352.904921053187) " id="svg_116">image/svg+xml</metadata>
  <defs transform="translate(0.6896551847457886,0) translate(0.2998780608177185,-0.07496951520442963) translate(-0.2998780608177185,0.07496951520442963) translate(-0.07496951520442963,0.14993903040885925) translate(0,-14.54582405090332) translate(0.1087057963013649,0.1087057963013649) translate(0,-4.547473508864641e-13) translate(-9.094947017729282e-13,0) translate(0.5378533601760864,0.5378533601760864) translate(-9.094947017729282e-13,-4.547473508864641e-13) translate(0,-4.547473508864641e-13) translate(18.922500610351562,18.922500610351562) translate(5197.52490234375,0) translate(0,3584.5) ">
   <clipPath id="svg_114">
    <path d="m1117.67371,841.89l595.28,0l0,-841.89l-595.28,0l0,841.89z" id="svg_115"/>
   </clipPath>
   <linearGradient x1="0.499982" y1="0.96152" x2="0.499982" y2="0.002692" id="svg_67" spreadMethod="pad">
    <stop id="svg_113" offset="0" stop-color="#ffffff"/>
    <stop id="svg_112" offset="0.508194" stop-color="#e3e4e4"/>
    <stop id="svg_111" offset="0.509995" stop-color="#d5d6d7"/>
    <stop id="svg_110" offset="1" stop-color="#d5d6d7"/>
   </linearGradient>
   <clipPath id="svg_95">
    <path d="m18373.391054,-10954.800418l595.28,0l0,-841.89l-595.28,0l0,841.89z" id="svg_109"/>
   </clipPath>
  </defs>
  <g id="svg_93" transform="matrix(2.785712835442111,0,0,-2.8025109142256235,-51594.181561433725,-31789.153968071372) ">
   <g clip-path="url(#svg_95)" id="svg_94">
    <path d="m18522.334194,-11363.555418l3.097,0l0,-32.521l-3.097,0l0,32.521z" id="svg_108" fill-rule="nonzero" fill="#f50008"/>
    <g id="svg_106">
     <path d="m18532.217694,-11363.555618l3.097,0l0,-29.87901l18.219,0l0,-2.642l-21.316,0l0,32.52101z" id="svg_107" fill-rule="nonzero" fill="#f50008"/>
    </g>
    <g id="svg_104">
     <path d="m18558.134194,-11385.372028c-0.137,-6.696 4.691,-8.745 10.612,-8.745c3.416,0 8.609,1.867 8.609,6.603c0,3.69 -3.689,5.148 -6.696,5.876l-7.242,1.777c-3.825,0.957 -7.332,2.778 -7.332,7.834c0,3.188 2.049,9.155 11.204,9.155c6.422,0 12.071,-3.462 12.025,-10.111l-3.098,0c-0.182,4.965 -4.281,7.469 -8.881,7.469c-4.236,0 -8.153,-1.639 -8.153,-6.467c0,-3.052 2.277,-4.328 4.919,-4.965l7.926,-1.958c4.599,-1.231 8.425,-3.235 8.425,-8.564c0,-2.231 -0.911,-9.292 -12.434,-9.292c-7.697,0 -13.345,3.462 -12.981,11.388l3.097,0z" id="svg_105" fill-rule="nonzero" fill="#f50008"/>
    </g>
    <g id="svg_102">
     <path d="m18609.147804,-11373.393518c-1.094,5.01 -5.238,7.88 -9.976,7.88c-8.608,0 -12.252,-7.196 -12.252,-14.302c0,-7.105 3.644,-14.302 12.252,-14.302c6.013,0 9.839,4.646 10.431,10.43l3.097,0c-0.865,-7.971 -5.921,-13.072 -13.528,-13.072c-10.248,0 -15.349,8.062 -15.349,16.944c0,8.882 5.101,16.943 15.349,16.943c6.15,0 12.253,-3.689 13.073,-10.521l-3.097,0z" id="svg_103" fill-rule="nonzero" fill="#f50008"/>
    </g>
    <path d="m18617.665194,-11363.555418l3.098,0l0,-32.521l-3.098,0l0,32.521z" id="svg_101" fill-rule="nonzero" fill="#f50008"/>
    <g id="svg_99">
     <path d="m18630.646894,-11379.497028l10.65799,0c4.282,0 7.241,2.187 7.241,6.65c0,4.463 -2.959,6.65 -7.241,6.65l-10.65799,0l0,-13.3zm-3.098,15.941l14.439,0c5.829,0 9.656,-3.416 9.656,-9.291c0,-5.876 -3.827,-9.292 -9.656,-9.292l-11.341,0l0,-13.937l-3.098,0l0,32.52z" id="svg_100" fill-rule="nonzero" fill="#f50008"/>
    </g>
    <path d="m18656.471194,-11363.555418l3.098,0l0,-32.521l-3.098,0l0,32.521z" id="svg_98" fill-rule="nonzero" fill="#f50008"/>
    <g id="svg_96">
     <path d="m18679.973484,-11394.117208c8.563,0 12.207,7.196 12.207,14.302c0,7.105 -3.644,14.302 -12.207,14.302c-8.607,0 -12.252,-7.197 -12.252,-14.302c0,-7.106 3.645,-14.302 12.252,-14.302m0,31.245c10.203,0 15.305,-8.061 15.305,-16.943c0,-8.882 -5.102,-16.945 -15.305,-16.945c-10.248,0 -15.35,8.063 -15.35,16.945c0,8.882 5.102,16.943 15.35,16.943" id="svg_97" fill-rule="nonzero" fill="#f50008"/>
    </g>
   </g>
  </g>
  <g id="svg_88" transform="matrix(2.1496343873084474,0,0,-2.1496343873084474,-50660.35131277695,-33804.81324984799) ">
   <g id="svg_89">
    <g id="svg_90">
     <g id="svg_91">
      <path d="m23856.699149,-15739.064664l0.033,-0.898l-9.273,-16.908l-2.802,-5.107l-8.476,-15.457c-0.003,0.007 -0.005,0.014 -0.007,0.02l0,0l-9.874,-18.034l1.248,-0.408l9.129,16.712l9.653,17.674l0.744,1.359l10.738,19.66l0.814,0.558c0,0 7.278,12.066 6.009,12.771l0,0c-0.035,0.019 -0.073,0.028 -0.116,0.028l0,0c-1.511,0 -7.82,-11.97 -7.82,-11.97" id="svg_92" fill="#222222"/>
     </g>
    </g>
   </g>
  </g>
  <g transform="matrix(2.149634387308448,0,0,-2.1625968604443497,-50660.351312776955,-32038.891487146066) " id="svg_84">
   <g id="svg_85">
    <g id="svg_86">
     <path d="m23807.202154,-14881.824975l9.81,0c0,0 0.268,1.518 0.805,3.675l0,0l-1.451,-0.434c-0.555,-0.165 -1.119,-0.244 -1.676,-0.244l0,0l-0.004,0c-2.511,0 -4.825,1.636 -5.584,4.159l0,0l-0.031,0.101c-1.418,-3.969 -1.869,-7.257 -1.869,-7.257" id="svg_87" fill="#222222"/>
    </g>
   </g>
  </g>
  <g transform="matrix(2.149634387308448,0,0,-2.1625968604443497,-50660.351312776955,-32038.891487146066) " id="svg_78">
   <g id="svg_79">
    <g id="svg_80">
     <g id="svg_81">
      <path d="m23833.463804,-14875.223975c0.853,-3.653 1.2,-6.745 1.2,-6.745l0,0l9.304,0c0,0 -1.887,8.886 -5.85,15.265l0,0l-4.654,-8.52z" id="svg_82" fill="#222222"/>
     </g>
    </g>
   </g>
  </g>
  <path d="m567.227114,20.964624l0.103183,12.601452l-0.960887,0.802323c-0.008599,0.04974 0.034394,0.746096 0.034394,0.795836l0,0c-3.828499,1.128876 -6.859483,4.476576 -7.749432,8.745542l0,0c-0.356839,0.815299 -0.651339,1.67385 -0.8792,2.575653l0,0c-0.696482,0.084341 -1.263985,0.631478 -1.298379,1.364598l0,0l-0.64919,10.938415c-0.010748,0.138406 0.025796,0.261674 0.053741,0.39143l0,0l-1.304828,-0.054065l16.296378,54.705051c0.361139,1.198078 0.53096,2.426433 0.53096,3.628837l0,0c0,0.503885 -0.05804,1.001282 -0.11823,1.496517l0,0l7.693541,-14.106619c-0.049441,-0.054065 -0.096733,-0.110293 -0.146175,-0.162195l0,0c-12.175529,-12.906378 -9.920563,-12.266249 -9.490636,-18.174464l0,0c0.2988,-4.020268 16.795094,-9.891718 26.808091,-13.159402l0,0l6.704709,-12.296526l-26.023473,-1.040209c-1.979814,3.044937 -4.963506,5.047501 -8.510403,5.097241l0,0c-3.809152,-0.051902 -6.975564,-2.361556 -8.93818,-5.79576l0,0c-0.195617,-0.337365 -0.376186,-0.685543 -0.543857,-1.046696l0,0l0.212814,-3.676415l0.318145,-5.42163c0.230011,0.173007 0.496566,0.285462 0.791066,0.367641l0,0c-0.036544,0.44982 -0.103183,0.888827 -0.101033,1.351623l0,0c-0.004299,3.23957 0.99958,6.1461 2.543018,8.181104l0,0c0.111781,0.144894 0.240759,0.250861 0.354689,0.387105l0,0c1.502595,1.777654 3.362028,2.796238 5.363338,2.796238l0,0c1.831488,0 3.540448,-0.871527 4.978553,-2.383182l0,0c0.247208,-0.259512 0.503015,-0.497397 0.733026,-0.800161l0,0c1.536988,-2.035004 2.545167,-4.941534 2.538718,-8.181104l0,0c0,-0.10813 -0.021497,-0.209772 -0.023646,-0.320064l0,0c0.46647,0.060552 0.907146,0.088666 1.29193,0.030276l0,0c0.034394,0.071366 0.103183,0.131919 0.148325,0.198959l0,0c0.053741,0.075691 0.090284,0.15787 0.167671,0.220585l0,0l1.210244,1.059672l7.00136,6.143938c0.616945,0.540649 1.560634,0.477934 2.093744,-0.140569l0,0c0.541707,-0.622828 0.481518,-1.567882 -0.141876,-2.110694l0,0l-8.205155,-7.20361c-0.11608,-0.095155 -0.23646,-0.144894 -0.361138,-0.196797l0,0c0.11393,-0.443332 0.204215,-0.936404 0.238609,-1.550582l0,0c0.29665,-5.123192 -2.517222,-9.645182 -6.696111,-11.453113l0,0c0.00215,-0.045414 -0.098883,-0.990469 -0.094584,-1.042371l0,0l-0.752372,-0.661755l1.693912,-12.491159c0.025796,-0.475772 -0.040843,-0.759072 -0.184869,-0.929917l0,0c-0.144025,-0.168683 -0.851255,1.814419 -1.130707,1.827394l0,0c-0.098884,0.004325 -0.083836,-0.486584 -0.068789,-0.975331l0,0c0.010749,-0.49956 0.019347,-0.996957 -0.101032,-0.977494l0,0c-0.503015,0.077854 -1.100613,0.185984 -1.758401,0.147057l0,0c-1.115661,-0.067041 -2.143186,-0.542812 -2.82677,-0.542812l0,0c-0.485817,0 -0.797514,0.240048 -0.844806,1.040209" id="svg_77" fill="#222222"/>
  <g transform="matrix(2.149634387308448,0,0,-2.1625968604443497,-50660.351312776955,-32038.891487146066) " id="svg_68">
   <g id="svg_69">
    <g id="svg_70">
     <path d="m23817.696154,-14837.755975l-12.252,-3.674c-1.769,-0.527 -2.912,-2.156 -2.912,-3.909l0,0c0,-0.388 0.056,-0.782 0.173,-1.18l0,0l8.313,-27.736c0.525,-1.77 2.156,-2.913 3.912,-2.915l0,0c0.388,0 0.784,0.056 1.175,0.172l0,0l12.243,3.671c1.773,0.528 2.917,2.154 2.917,3.912l0,0c0,0.394 -0.055,0.787 -0.172,1.169l0,0l-8.313,27.745c-0.528,1.771 -2.16,2.915 -3.915,2.915l0,0c-0.389,0 -0.779,-0.054 -1.169,-0.17" id="svg_72" stroke="#fff" fill="#333333"/>
    </g>
   </g>
  </g>
  <g transform="matrix(2.149634387308448,0,0,-2.1625968604443497,-50660.351312776955,-32038.891487146066) " id="svg_62">
   <g id="svg_63">
    <g id="svg_64">
     <g id="svg_65">
      <path d="m23814.087804,-14848.661975c-0.205,-0.061 -0.39,-0.209 -0.54,-0.354l0,0c-1.012,-0.982 -1.063,-2.615 -0.14,-3.631l0,0c-0.238,0.051 -0.493,0.056 -0.752,0.022l0,0c-0.703,-0.112 -1.156,-0.487 -1.605,-1.001l0,0c-0.247,-0.273 -0.512,-0.431 -0.847,-0.179l0,0c-0.313,0.239 -0.455,0.597 -0.582,0.954l0,0c-0.032,0.101 -0.128,0.442 -0.257,0.208l0,0c-0.099,-0.184 -0.121,-0.424 -0.126,-0.633l0,0c-0.024,-1.408 1.097,-2.603 2.468,-2.664l0,0c-0.203,-0.141 -0.388,-0.314 -0.553,-0.518l0,0c-0.412,-0.575 -0.474,-1.164 -0.426,-1.842l0,0c0.022,-0.371 -0.054,-0.664 -0.471,-0.729l0,0c-0.391,-0.049 -0.743,0.105 -1.083,0.266l0,0c-0.098,0.046 -0.405,0.217 -0.334,-0.036l0,0c0.06,-0.205 0.217,-0.386 0.36,-0.535l0,0c0.983,-1.014 2.613,-1.065 3.63,-0.14l0,0c-0.046,-0.243 -0.056,-0.491 -0.021,-0.753l0,0c0.106,-0.702 0.484,-1.159 1,-1.608l0,0c0.275,-0.246 0.428,-0.511 0.179,-0.845l0,0c-0.239,-0.315 -0.594,-0.451 -0.954,-0.579l0,0c-0.098,-0.038 -0.441,-0.133 -0.209,-0.259l0,0c0.191,-0.1 0.426,-0.125 0.632,-0.13l0,0c1.414,-0.02 2.604,1.103 2.666,2.47l0,0c0.138,-0.204 0.312,-0.389 0.521,-0.55l0,0c0.573,-0.419 1.161,-0.479 1.841,-0.43l0,0c0.367,0.021 0.667,-0.053 0.726,-0.467l0,0c0.051,-0.391 -0.104,-0.745 -0.263,-1.089l0,0c-0.049,-0.095 -0.222,-0.404 0.033,-0.327l0,0c0.201,0.064 0.39,0.21 0.537,0.355l0,0c1.016,0.981 1.065,2.616 0.138,3.63l0,0c0.243,-0.045 0.496,-0.056 0.755,-0.021l0,0c0.701,0.112 1.158,0.486 1.606,0.999l0,0c0.244,0.277 0.513,0.435 0.847,0.183l0,0c0.312,-0.242 0.452,-0.598 0.581,-0.958l0,0c0.032,-0.099 0.13,-0.44 0.257,-0.203l0,0c0.1,0.184 0.125,0.42 0.131,0.631l0,0c0.019,1.409 -1.099,2.601 -2.47,2.663l0,0c0.203,0.14 0.389,0.314 0.549,0.517l0,0c0.419,0.575 0.476,1.163 0.428,1.84l0,0c-0.018,0.37 0.056,0.67 0.474,0.732l0,0c0.386,0.051 0.736,-0.104 1.083,-0.267l0,0c0.095,-0.045 0.407,-0.22 0.327,0.036l0,0c-0.058,0.204 -0.21,0.387 -0.354,0.537l0,0c-0.984,1.015 -2.617,1.067 -3.63,0.135l0,0c0.045,0.246 0.056,0.5 0.021,0.761l0,0c-0.112,0.698 -0.486,1.154 -0.999,1.603l0,0c-0.276,0.248 -0.431,0.51 -0.183,0.846l0,0c0.239,0.314 0.597,0.453 0.957,0.582l0,0c0.101,0.031 0.441,0.129 0.208,0.259l0,0c-0.19,0.101 -0.427,0.122 -0.635,0.126l0,0c-1.409,0.02 -2.603,-1.097 -2.663,-2.47l0,0c-0.141,0.205 -0.314,0.389 -0.519,0.554l0,0c-0.576,0.415 -1.161,0.473 -1.841,0.424l0,0c-0.366,-0.021 -0.668,0.059 -0.725,0.473l0,0c-0.057,0.391 0.098,0.744 0.262,1.084l0,0c0.04,0.088 0.184,0.34 0.033,0.34l0,0c-0.018,0 -0.041,-0.004 -0.068,-0.012m4.083,-6.33c0.245,0.127 0.454,0.28 0.636,0.487l0,0c0.385,0.466 0.51,1.109 0.045,1.574l0,0c-0.256,0.221 -0.598,0.264 -0.853,0.478l0,0c-0.897,0.835 -0.209,2.469 0.853,2.79l0,0c0.006,0 -0.01,-0.015 -0.045,-0.045l0,0c-0.457,-0.428 -0.822,-1.089 -0.592,-1.722l0,0c0.093,-0.228 0.25,-0.382 0.487,-0.462l0,0c0.732,-0.25 1.028,-0.979 0.863,-1.709l0,0c-0.194,-0.702 -0.726,-1.179 -1.409,-1.404l0,0c-0.007,-0.003 -0.011,-0.004 -0.011,-0.004l0,0c-0.001,0 0.009,0.005 0.026,0.017m-4.724,5.005c0.003,0.01 0,-0.014 -0.002,-0.06l0,0c-0.021,-0.627 0.187,-1.351 0.798,-1.637l0,0c0.231,-0.092 0.449,-0.089 0.668,0.021l0,0c0.702,0.337 1.421,0.032 1.825,-0.595l0,0c0.357,-0.638 0.314,-1.349 -0.004,-1.992l0,0c-0.015,-0.021 -0.009,-0.014 0,0.015l0,0c0.085,0.263 0.123,0.523 0.109,0.799l0,0c-0.063,0.594 -0.427,1.143 -1.081,1.143l0,0c-0.341,-0.03 -0.614,-0.24 -0.949,-0.267l0,0c-0.017,0 -0.033,-0.001 -0.05,-0.001l0,0c-1.19,0 -1.834,1.614 -1.314,2.574m2.617,-5.259c0.201,0.06 0.385,0.212 0.536,0.356l0,0c0.539,0.521 0.803,1.225 0.799,1.922l0,0c0.156,-0.209 0.347,-0.399 0.563,-0.586l0,0c0.277,-0.247 0.432,-0.51 0.183,-0.847l0,0c-0.242,-0.312 -0.595,-0.452 -0.953,-0.576l0,0c-0.106,-0.041 -0.444,-0.133 -0.21,-0.262l0,0c0.187,-0.1 0.425,-0.123 0.631,-0.125l0,0c0.749,-0.013 1.435,0.299 1.922,0.798l0,0c-0.032,-0.261 -0.031,-0.531 -0.01,-0.813l0,0c0.021,-0.371 -0.059,-0.671 -0.477,-0.727l0,0c-0.383,-0.058 -0.736,0.101 -1.081,0.262l0,0c-0.097,0.049 -0.403,0.219 -0.327,-0.035l0,0c0.06,-0.204 0.207,-0.385 0.354,-0.541l0,0c0.523,-0.533 1.227,-0.801 1.925,-0.795l0,0c-0.208,-0.156 -0.399,-0.351 -0.587,-0.564l0,0c-0.245,-0.277 -0.509,-0.434 -0.847,-0.181l0,0c-0.311,0.24 -0.448,0.595 -0.575,0.951l0,0c-0.037,0.106 -0.136,0.446 -0.26,0.21l0,0c-0.101,-0.187 -0.123,-0.422 -0.13,-0.633l0,0c-0.013,-0.748 0.3,-1.431 0.795,-1.921l0,0c-0.256,0.035 -0.525,0.035 -0.813,0.014l0,0c-0.364,-0.022 -0.668,0.06 -0.729,0.472l0,0c-0.048,0.389 0.104,0.74 0.266,1.085l0,0c0.047,0.097 0.22,0.399 -0.033,0.328l0,0c-0.204,-0.063 -0.383,-0.214 -0.54,-0.36l0,0c-0.533,-0.521 -0.801,-1.225 -0.794,-1.921l0,0c-0.159,0.209 -0.35,0.396 -0.567,0.586l0,0c-0.273,0.245 -0.43,0.512 -0.179,0.845l0,0c0.24,0.314 0.595,0.454 0.953,0.583l0,0c0.106,0.032 0.444,0.128 0.206,0.256l0,0c-0.187,0.1 -0.42,0.124 -0.63,0.126l0,0c-0.748,0.016 -1.437,-0.299 -1.929,-0.795l0,0c0.044,0.259 0.041,0.531 0.021,0.815l0,0c-0.026,0.366 0.054,0.664 0.471,0.726l0,0c0.39,0.052 0.742,-0.104 1.085,-0.265l0,0c0.093,-0.045 0.405,-0.217 0.328,0.034l0,0c-0.059,0.208 -0.209,0.384 -0.358,0.539l0,0c-0.521,0.537 -1.227,0.806 -1.922,0.798l0,0c0.209,0.16 0.396,0.349 0.586,0.566l0,0c0.244,0.274 0.512,0.433 0.849,0.18l0,0c0.311,-0.24 0.451,-0.598 0.575,-0.953l0,0c0.035,-0.101 0.132,-0.442 0.258,-0.209l0,0c0.102,0.185 0.125,0.421 0.133,0.631l0,0c0.009,0.751 -0.3,1.435 -0.799,1.924l0,0c0.259,-0.039 0.528,-0.035 0.815,-0.019l0,0c0.365,0.026 0.665,-0.051 0.725,-0.47l0,0c0.052,-0.388 -0.104,-0.735 -0.268,-1.08l0,0c-0.04,-0.087 -0.182,-0.341 -0.03,-0.341l0,0c0.019,0 0.041,0.004 0.069,0.012m3.385,-1.409c0.595,0.059 1.146,0.425 1.146,1.083l0,0c-0.036,0.335 -0.243,0.61 -0.268,0.945l0,0c-0.051,1.22 1.596,1.891 2.571,1.362l0,0c0.003,0 0.004,-0.001 0.002,-0.001l0,0c0,0 -0.001,0 -0.002,0.001l0,0c-0.007,0 -0.028,-0.001 -0.06,0.001l0,0c-0.627,0.024 -1.347,-0.188 -1.635,-0.797l0,0c-0.094,-0.227 -0.091,-0.447 0.02,-0.668l0,0c0.337,-0.697 0.028,-1.423 -0.597,-1.819l0,0c-0.635,-0.363 -1.349,-0.321 -1.991,0l0,0c-0.022,0.008 -0.017,0.008 0.016,0.002l0,0c0.227,-0.074 0.455,-0.111 0.693,-0.111l0,0c0.035,0 0.07,0.001 0.105,0.002m-7.833,1.983c0.224,0.096 0.377,0.256 0.457,0.483l0,0c0.255,0.737 0.983,1.036 1.708,0.873l0,0c0.707,-0.197 1.179,-0.731 1.411,-1.413l0,0c0.004,-0.021 0,-0.017 -0.016,0.01l0,0c-0.125,0.25 -0.285,0.461 -0.484,0.644l0,0c-0.471,0.379 -1.114,0.506 -1.577,0.045l0,0c-0.219,-0.261 -0.261,-0.601 -0.48,-0.86l0,0c-0.832,-0.895 -2.47,-0.201 -2.785,0.857l0,0c-0.003,0.007 0.012,-0.007 0.042,-0.041l0,0c0.336,-0.367 0.817,-0.669 1.317,-0.669l0,0c0.135,0 0.272,0.022 0.407,0.071m0.252,-3.967c0.093,0.224 0.089,0.439 -0.018,0.665l0,0c-0.343,0.701 -0.037,1.422 0.593,1.822l0,0c0.637,0.359 1.351,0.317 1.988,0l0,0c0.023,-0.013 0.015,-0.013 -0.013,0l0,0c-0.264,0.082 -0.519,0.12 -0.8,0.106l0,0c-0.598,-0.06 -1.141,-0.426 -1.141,-1.081l0,0c0.03,-0.338 0.242,-0.61 0.264,-0.944l0,0c0.05,-1.223 -1.6,-1.894 -2.576,-1.367l0,0l0.066,0c0.035,-0.001 0.07,-0.002 0.105,-0.002l0,0c0.599,0 1.262,0.221 1.532,0.801m8.087,-0.033c0.215,0.26 0.26,0.605 0.478,0.862l0,0c0.829,0.894 2.472,0.201 2.787,-0.861l0,0c0.001,-0.002 -0.015,0.012 -0.046,0.05l0,0c-0.422,0.456 -1.086,0.82 -1.722,0.591l0,0c-0.223,-0.095 -0.379,-0.257 -0.454,-0.487l0,0c-0.254,-0.736 -0.986,-1.03 -1.71,-0.865l0,0c-0.703,0.194 -1.184,0.728 -1.407,1.407l0,0c-0.007,0.023 -0.007,0.013 0.013,-0.01l0,0c0.122,-0.247 0.282,-0.457 0.488,-0.639l0,0c0.256,-0.212 0.564,-0.345 0.868,-0.345l0,0c0.248,0 0.494,0.089 0.705,0.297m-5.692,-4.32c0.456,0.425 0.823,1.084 0.593,1.721l0,0c-0.096,0.228 -0.256,0.379 -0.487,0.462l0,0c-0.737,0.247 -1.032,0.977 -0.866,1.705l0,0c0.189,0.703 0.728,1.18 1.406,1.406l0,0c0.028,0.009 0.017,0.007 -0.012,-0.011l0,0c-0.242,-0.127 -0.453,-0.281 -0.638,-0.486l0,0c-0.38,-0.468 -0.51,-1.113 -0.046,-1.574l0,0c0.261,-0.217 0.604,-0.264 0.86,-0.481l0,0c0.896,-0.835 0.203,-2.469 -0.86,-2.787l0,0c-0.002,0 0.015,0.013 0.05,0.045m2.069,2.549c-0.355,0.638 -0.314,1.351 0.006,1.99l0,0c0.013,0.022 0.009,0.016 -0.001,-0.017l0,0c-0.082,-0.259 -0.124,-0.518 -0.104,-0.795l0,0c0.058,-0.6 0.426,-1.143 1.079,-1.143l0,0c0.336,0.032 0.611,0.24 0.948,0.265l0,0c1.219,0.049 1.886,-1.599 1.36,-2.576l0,0l0,0.062c0.025,0.629 -0.183,1.353 -0.797,1.641l0,0c-0.225,0.093 -0.442,0.087 -0.664,-0.02l0,0c-0.199,-0.098 -0.4,-0.143 -0.595,-0.143l0,0c-0.491,0 -0.943,0.285 -1.232,0.736" id="svg_66" fill="url(#svg_67)"/>
     </g>
    </g>
   </g>
  </g>
 </g>
</svg>