<?xml version="1.0" encoding="UTF-8" standalone="no"?><!-- Generator: Gravit.io --><svg xmlns="http://www.w3.org/2000/svg" xmlns:xlink="http://www.w3.org/1999/xlink" style="isolation:isolate" viewBox="0 0 500 191.359" width="500pt" height="191.359pt"><defs><clipPath id="_clipPath_UMCi4EONQOdERs2LuUAAr5P4LnZVUI4o"><rect width="500" height="191.359"/></clipPath></defs><g clip-path="url(#_clipPath_UMCi4EONQOdERs2LuUAAr5P4LnZVUI4o)"><clipPath id="_clipPath_DshUcjzX2G3hkWUkBbghvXLBZSGlicY8"><rect x="0" y="0" width="500" height="191.359" transform="matrix(1,0,0,1,0,0)" fill="rgb(255,255,255)"/></clipPath><g clip-path="url(#_clipPath_DshUcjzX2G3hkWUkBbghvXLBZSGlicY8)"><g><clipPath id="_clipPath_3YTKVGA3nclys4LCkO6J1ILFKHUyebt8"><rect x="0" y="0" width="500" height="191.359" transform="matrix(1,0,0,1,0,0)" fill="rgb(255,255,255)"/></clipPath><g clip-path="url(#_clipPath_3YTKVGA3nclys4LCkO6J1ILFKHUyebt8)"><g><g><rect x="0" y="0" width="500" height="191.359" transform="matrix(1,0,0,1,0,0)" fill="none"/><g><g><g><g><g><rect x="5.997" y="9.771" width="171.2" height="171.817" transform="matrix(1,0,0,1,0,0)" fill="rgb(129,41,38)"/></g><g><g><path d=" M 28.249 105.792 L 38.862 105.792 L 38.862 124.399 L 54.717 124.399 L 54.717 105.792 L 65.329 105.792 L 65.329 151.817 L 54.717 151.817 L 54.717 133.538 L 38.862 133.538 L 38.862 151.817 L 28.249 151.817 L 28.249 105.792 Z " fill="rgb(255,255,255)"/><path d=" M 74.764 136.235 L 74.764 105.792 L 85.313 105.792 L 85.313 135.576 C 85.313 140.836 88.457 143.796 93.24 143.796 C 98.087 143.796 101.167 140.836 101.167 135.576 L 101.167 105.792 L 111.781 105.792 L 111.781 136.235 C 111.781 146.951 104.509 153.001 93.24 153.001 C 81.971 153.001 74.764 146.951 74.764 136.235 Z " fill="rgb(255,255,255)"/><path d=" M 155.545 139.061 C 155.545 146.951 149.976 151.817 140.869 151.817 L 121.281 151.817 L 121.281 105.792 L 140.149 105.792 C 149.254 105.792 154.889 110.329 154.889 117.759 C 154.889 123.743 151.417 127.292 146.111 128.28 C 151.417 128.805 155.545 132.683 155.545 139.061 Z  M 131.893 113.484 L 131.893 124.662 L 137.789 124.662 C 141.851 124.662 144.276 122.558 144.276 119.073 C 144.276 115.588 141.917 113.484 137.789 113.484 L 131.893 113.484 L 131.893 113.484 Z  M 144.866 137.681 C 144.866 134.261 142.312 132.027 138.512 132.027 L 131.894 132.027 L 131.894 143.729 L 138.512 143.729 C 142.442 143.73 144.866 141.495 144.866 137.681 Z " fill="rgb(255,255,255)"/></g><g><path d=" M 28.249 77.411 L 34.329 77.411 L 34.329 97.947 L 28.249 97.947 L 28.249 77.411 Z " fill="rgb(255,255,255)"/><path d=" M 40.556 77.411 L 48.274 77.411 L 52.629 90.817 L 56.955 77.411 L 64.497 77.411 L 64.497 97.947 L 58.65 97.947 L 58.65 84.921 L 54.908 97.948 L 50.407 97.948 L 46.402 84.862 L 46.402 97.948 L 40.555 97.948 L 40.555 77.411 L 40.556 77.411 Z " fill="rgb(255,255,255)"/><path d=" M 88.18 85.068 C 88.18 89.469 84.964 92.694 80.58 92.694 L 76.78 92.694 L 76.78 97.947 L 70.7 97.947 L 70.7 77.411 L 80.58 77.411 C 84.964 77.411 88.18 80.667 88.18 85.068 Z  M 82.012 85.068 C 82.012 83.396 80.842 82.163 79.322 82.163 L 76.779 82.163 L 76.779 87.972 L 79.293 87.972 C 80.843 87.972 82.012 86.741 82.012 85.068 Z " fill="rgb(255,255,255)"/><g><path d=" M 103.111 95.569 L 96.505 95.569 L 95.861 97.947 L 89.548 97.947 L 96.534 77.411 L 103.111 77.411 L 110.068 97.947 L 103.754 97.947 L 103.111 95.569 Z  M 101.942 91.141 L 99.807 83.16 L 97.673 91.141 L 101.942 91.141 Z " fill="rgb(255,255,255)"/><path d=" M 112.497 87.678 C 112.497 81.312 117.116 76.766 123.839 76.766 C 130.212 76.766 134.362 79.904 134.859 85.302 L 128.428 85.302 C 128.019 83.425 126.383 82.192 123.868 82.192 C 120.711 82.192 118.84 84.305 118.84 87.678 C 118.84 91.051 120.711 93.164 123.868 93.164 C 126.382 93.164 128.019 91.933 128.428 90.054 L 134.859 90.054 C 134.362 95.453 130.212 98.592 123.839 98.592 C 117.116 98.592 112.497 94.045 112.497 87.678 Z " fill="rgb(255,255,255)"/><path d=" M 143.575 82.661 L 138.314 82.661 L 138.314 77.411 L 154.947 77.411 L 154.947 82.661 L 149.684 82.661 L 149.684 97.947 L 143.576 97.947 L 143.576 82.661 L 143.575 82.661 Z " fill="rgb(255,255,255)"/></g></g></g></g></g></g><path d=" M 249.424 128.339 L 225.96 128.339 L 225.96 136.335 L 234.153 136.335 C 232.58 141.84 228.451 144.528 222.159 144.528 C 213.9 144.528 208.657 138.104 208.722 129.518 C 208.657 120.867 213.179 114.181 222.552 114.181 C 228.123 114.181 231.728 117 232.58 120.801 L 244.181 120.801 C 243.394 111.887 234.808 105.268 222.486 105.268 C 206.625 105.268 197.646 116.344 197.646 129.715 C 197.58 143.545 207.215 153.769 221.896 153.769 C 234.612 153.769 242.739 147.28 245.098 136.335 L 249.424 136.335 L 249.424 128.339 Z  M 286.128 135.024 C 286.128 126.11 279.443 119.949 269.611 119.949 C 259.321 119.949 252.57 126.307 252.57 136.663 C 252.57 147.215 259.19 153.441 269.939 153.441 C 278.328 153.441 284.686 149.181 285.669 142.955 L 275.838 142.955 C 274.986 144.921 273.02 145.904 269.939 145.904 C 265.482 145.904 262.729 143.545 262.533 139.415 L 285.866 139.415 C 286.062 137.58 286.128 136.728 286.128 135.024 Z  M 262.533 133.189 C 262.598 129.322 265.22 126.635 269.546 126.635 C 273.806 126.635 276.166 128.994 276.231 133.189 L 262.533 133.189 Z  M 291.896 152.458 L 301.924 152.458 L 301.924 140.267 C 301.924 132.664 305.332 129.715 310.248 129.715 C 311.493 129.715 312.083 129.781 313.263 129.912 L 313.263 120.605 C 312.476 120.408 311.821 120.342 310.641 120.342 C 306.774 120.342 303.038 122.768 301.924 127.487 L 301.924 120.867 L 291.896 120.867 L 291.896 152.458 Z  M 318.637 152.458 L 328.665 152.458 L 328.665 136.204 C 328.665 130.239 330.828 128.47 334.04 128.47 C 337.12 128.47 338.693 130.239 338.693 134.631 L 338.693 152.458 L 348.787 152.458 L 348.787 136.204 C 348.787 130.239 350.95 128.47 354.096 128.47 C 357.176 128.47 358.815 130.305 358.815 134.696 L 358.815 152.458 L 368.908 152.458 L 368.908 132.861 C 368.908 126.241 366.745 120.015 357.7 120.015 C 353.047 120.015 349.311 122.44 347.607 125.848 C 346.23 122.505 343.347 120.015 337.71 120.015 C 333.319 120.015 330.041 122.309 328.665 125.455 L 328.665 120.867 L 318.637 120.867 L 318.637 152.458 Z  M 389.423 153.31 C 393.814 153.31 397.747 151.147 399.451 148.001 L 399.451 152.458 L 409.413 152.458 L 409.413 120.867 L 399.451 120.867 L 399.451 125.389 C 397.747 122.178 394.142 120.015 389.554 120.015 C 380.378 120.015 374.545 127.224 374.545 136.663 C 374.545 146.166 379.985 153.31 389.423 153.31 Z  M 392.307 144.986 C 387.653 144.986 384.769 141.447 384.769 136.663 C 384.769 131.878 387.653 128.404 392.307 128.404 C 397.288 128.404 399.844 132.14 399.844 136.663 C 399.844 141.251 397.288 144.986 392.307 144.986 Z  M 417.737 152.458 L 427.765 152.458 L 427.765 135.942 C 427.765 131.091 429.863 128.47 433.861 128.47 C 437.924 128.47 439.432 130.895 439.432 136.204 L 439.432 152.458 L 449.525 152.458 L 449.525 132.927 C 449.525 124.341 445.658 120.015 437.99 120.015 C 433.205 120.015 429.601 121.915 427.765 125.455 L 427.765 120.867 L 417.737 120.867 L 417.737 152.458 Z  M 478.889 120.867 L 478.889 136.531 C 478.889 141.382 476.857 144.528 472.793 144.528 C 468.598 144.528 467.222 141.775 467.222 137.711 L 467.222 120.867 L 457.194 120.867 L 457.194 139.219 C 457.194 147.084 460.799 152.458 468.861 152.458 C 473.645 152.458 477.119 150.558 478.889 147.215 L 478.889 152.131 C 478.889 157.046 476.463 159.209 472.793 159.209 C 468.992 159.209 467.484 157.636 467.287 154.949 L 457.194 154.949 C 457.259 158.357 458.833 161.307 461.126 163.273 C 463.748 165.436 467.419 166.55 472.793 166.55 C 478.102 166.55 481.576 165.305 484.394 162.88 C 487.081 160.454 488.917 156.587 488.917 151.475 L 488.917 120.867 L 478.889 120.867 Z " fill="rgb(65,65,64)"/></g></g></g></g></g></g></g></svg>