<svg xmlns="http://www.w3.org/2000/svg" viewBox="0 0 964.516 458.647"><path fill="#5D6AC5" d="M229.325 0C102.672 0 0 102.672 0 229.323c0 126.652 102.672 229.324 229.325 229.324 126.652 0 229.324-102.672 229.324-229.324C458.649 102.672 355.977 0 229.325 0zm1.586 66.897c29.902 0 54.14 24.243 54.14 54.141 0 29.902-24.238 54.146-54.14 54.146-29.903 0-54.141-24.243-54.141-54.146 0-29.897 24.238-54.141 54.141-54.141zm58.875 174.857l-21.09 143.062a37.766 37.766 0 01-2.102 7.672 38.686 38.686 0 01-1.535 3.406 37.427 37.427 0 01-6.527 9.067 36.509 36.509 0 01-2.742 2.535 37.295 37.295 0 01-16.676 7.996 37.452 37.452 0 01-9.719.603 37.088 37.088 0 01-6.656-.106 37.239 37.239 0 01-10.797-2.879 36.922 36.922 0 01-3.344-1.652 37.362 37.362 0 01-11.262-9.684 38.73 38.73 0 01-2.14-3.062 37.117 37.117 0 01-3.317-6.688 37.33 37.33 0 01-1.921-7.207l-21.094-143.062c-.02-.164-.043-.328-.059-.492a36.326 36.326 0 01-.262-3.728 37.273 37.273 0 01.118-3.737 36.588 36.588 0 011.343-7.336 37.37 37.37 0 011.211-3.535 38.87 38.87 0 011.563-3.396 37.455 37.455 0 019.351-11.539 37.12 37.12 0 016.207-4.144 37.378 37.378 0 013.375-1.598 37.379 37.379 0 0114.59-2.802c5.534-.007 10.256-.009 14.927-.001-3.355 23.453-6.788 46.908-10.083 70.361 6.684 13.257 12.246 27.261 19.938 39.917 7.085-12.891 13.078-26.746 19.593-40.054-3.487-23.351-6.7-46.867-10.295-70.123 2.694.021 5.57.049 8.741.08 5.164-.013 9.996.034 14.769 1.526a37.582 37.582 0 016.863 2.922 37.69 37.69 0 018.875 6.79 37.365 37.365 0 017.985 12.524 37.351 37.351 0 012.414 10.906 37.498 37.498 0 01-.242 7.458z"/><g fill="#FFFFFF"><path d="M289.59 230.586a37.351 37.351 0 00-1.976-7.195 37.355 37.355 0 00-16.86-19.314 37.582 37.582 0 00-6.863-2.922c-4.773-1.492-9.605-1.539-14.769-1.526-3.17-.031-6.047-.059-8.741-.08 3.595 23.256 6.808 46.772 10.295 70.123-6.515 13.308-12.508 27.163-19.593 40.054-7.692-12.656-13.254-26.66-19.938-39.917 3.295-23.453 6.729-46.908 10.083-70.361-4.671-.008-9.393-.006-14.927.001a37.346 37.346 0 00-14.59 2.802 37.378 37.378 0 00-3.375 1.598 37.12 37.12 0 00-6.207 4.144 37.477 37.477 0 00-10.914 14.935 37.37 37.37 0 00-1.211 3.535 36.626 36.626 0 00-1.343 7.336 37.273 37.273 0 00-.118 3.737c.024 1.246.11 2.488.262 3.728.016.164.039.328.059.492l21.094 143.062a37.33 37.33 0 005.238 13.895 38.546 38.546 0 002.14 3.062 37.39 37.39 0 0011.262 9.684 36.922 36.922 0 003.344 1.652 37.239 37.239 0 0010.797 2.879c2.211.235 4.438.271 6.656.106 3.25.226 6.52.019 9.719-.603a37.224 37.224 0 007.136-2.183 37.199 37.199 0 009.54-5.813 37.175 37.175 0 005.218-5.336 37.387 37.387 0 004.051-6.266 38.686 38.686 0 001.535-3.406 37.766 37.766 0 002.102-7.672l21.09-143.062a37.49 37.49 0 00-.196-11.169zM230.911 175.184c29.902 0 54.14-24.243 54.14-54.146 0-29.897-24.238-54.141-54.14-54.141-29.903 0-54.141 24.243-54.141 54.141 0 29.902 24.238 54.146 54.141 54.146z"/></g><g fill="#5D6AC5"><path d="M855.824 207.687l45.625-29.519v192.887h63.067V94.301H934.66l-78.836 50.992zM674.77 371.055h59.375v-97.282c0-17.109 17.445-33.547 35.223-33.547 19.121 0 30.863 16.438 30.863 33.547v97.282h59.379V257.672c0-47.974-43.945-63.738-75.48-63.738-18.785 0-35.895 9.726-49.312 23.144h-.672v-18.112H674.77v172.089zM573.215 198.965h59.375v172.09h-59.375v-172.09zm30.523-106.34c-19.453 0-35.223 15.766-35.223 35.223s15.77 35.222 35.223 35.222c19.457 0 35.227-15.765 35.227-35.222s-15.77-35.223-35.227-35.223z"/></g></svg>