<?xml version="1.0" encoding="UTF-8"?>
<svg width="1699pt" height="270.83pt" version="1.2" viewBox="0 0 1699 270.83" xmlns="http://www.w3.org/2000/svg" xmlns:cc="http://creativecommons.org/ns#" xmlns:dc="http://purl.org/dc/elements/1.1/" xmlns:rdf="http://www.w3.org/1999/02/22-rdf-syntax-ns#">
<metadata>
<rdf:RDF>
<cc:Work rdf:about="">
<dc:format>image/svg+xml</dc:format>
<dc:type rdf:resource="http://purl.org/dc/dcmitype/StillImage"/>
<dc:title/>
</cc:Work>
</rdf:RDF>
</metadata>
<g transform="translate(-23.355 -13.582)">
<path d="m299.71 279.75c0 1.1836-0.21875 1.9609-0.64844 2.3359-0.42968 0.375-1.3945 0.5625-2.8945 0.5625h-16.41c-1.1875 0-2.0391-0.1875-2.5742-0.5625-0.53516-0.375-0.80469-1.1524-0.80469-2.3359v-78.68c0-1.1797 0.26953-1.9531 0.80469-2.3281 0.53515-0.38282 1.3867-0.5625 2.5742-0.5625h16.41c1.5 0 2.4648 0.17968 2.8945 0.5625 0.42969 0.375 0.64844 1.1484 0.64844 2.3281z" fill="#002642"/>
<path d="m357.79 215.39c-1.0703 0-2.6016 0.0273-4.582 0.082-1.9922 0.0547-4.1016 0.30078-6.3594 0.72265v63.555c0 1.1836-0.1875 1.9609-0.56641 2.332-0.37109 0.37891-1.3125 0.56641-2.8125 0.56641h-16.574c-1.1758 0-2.0391-0.1875-2.5742-0.56641-0.53515-0.37109-0.80078-1.1484-0.80078-2.332v-69.023c0-3.6484 0.63672-6.5195 1.9219-8.6094 1.2852-2.0938 3.9648-3.5625 8.0352-4.4219 1.0625-0.21484 2.5859-0.40234 4.5703-0.5625 1.9844-0.16797 4.0938-0.32422 6.3477-0.48437 2.2461-0.16407 4.4648-0.29297 6.6562-0.40235 2.1953-0.10547 4.0938-0.16406 5.7031-0.16406 7.4883 0 13.969 0.75781 19.43 2.2578 5.457 1.5039 9.9844 3.8867 13.566 7.1602 3.582 3.2695 6.2656 7.5625 8.0234 12.871 1.7695 5.3047 2.6562 11.77 2.6562 19.387v41.992c0 1.1836-0.1875 1.9609-0.5625 2.332-0.3711 0.37891-1.3086 0.56641-2.793 0.56641h-16.621c-1.168 0-2.0234-0.1875-2.5586-0.56641-0.53125-0.37109-0.79687-1.1484-0.79687-2.332v-43.441c0-3.543-0.29297-6.5976-0.88282-9.1719-0.59375-2.5703-1.6133-4.7461-3.0625-6.5156-1.4453-1.7656-3.4297-3.082-5.9492-3.9414-2.5234-0.85938-5.6562-1.2891-9.4141-1.2891" fill="#002642"/>
<path d="m473.15 182.73c-0.21875 0.96485-0.5664 1.5547-1.0508 1.7695-0.48047 0.21484-1.1484 0.21484-2.0117 0-1.8203-0.32813-3.7812-0.59766-5.8672-0.8125-2.0938-0.21485-3.7812-0.31641-5.0703-0.31641-3.6484 0-6.0312 0.71875-7.1602 2.168-1.125 1.4492-1.6875 3.2461-1.6875 5.3945v7.2383h19.305c0.96485 0 1.6094 0.16406 1.9297 0.48438 0.32813 0.3164 0.48438 1.0156 0.48438 2.0938v12.391c0 0.85156-0.13672 1.5-0.40235 1.9297-0.26953 0.42578-1.0469 0.64062-2.332 0.64062h-18.984v64.035c0 1.2891-0.2461 2.0938-0.72657 2.418-0.48437 0.32031-1.3164 0.48047-2.4883 0.48047h-16.738c-1.0742 0-1.9062-0.16016-2.4961-0.48047-0.58985-0.32422-0.88281-1.1836-0.88281-2.5781v-63.875h-11.75c-1.1758 0-1.8789-0.24218-2.0859-0.72265-0.22266-0.48438-0.32422-1.1524-0.32422-2.0117v-9.1758c0-0.96094 0.1875-1.6875 0.5625-2.168 0.37891-0.48438 1.1523-0.88281 2.332-1.2109l11.266-2.5703v-9.1328c0-7.3594 2.0664-13.395 6.1953-18.09 4.125-4.7031 10.801-7.0508 20.035-7.0508 0.7461 0 1.9297 0.0273 3.5352 0.0781 1.6094 0.0547 3.3789 0.16015 5.3086 0.32421 1.9297 0.16016 3.9453 0.42188 6.0391 0.79688 2.0859 0.37109 4.0976 0.82422 6.0312 1.3516 1.1797 0.4336 1.8203 0.88281 1.9297 1.3594 0.10547 0.47656 0.0508 1.1484-0.16406 2z" fill="#002642"/>
<path d="m540.25 240.49c0-3.6367-0.27344-6.9648-0.80859-9.9727-0.53907-3.0039-1.4492-5.582-2.7344-7.7226-1.2852-2.1406-2.9492-3.832-4.9922-5.0664-2.0352-1.2344-4.5586-1.8516-7.5586-1.8516-5.6836 0-9.8945 2.1719-12.629 6.5156-2.7383 4.3477-4.1055 10.219-4.1055 17.617 0 8.043 1.2617 14.164 3.7774 18.344 2.5195 4.1836 6.6797 6.2812 12.473 6.2812 3 0 5.5547-0.62109 7.6406-1.8516 2.0938-1.2344 3.8125-2.9531 5.1523-5.1562 1.3398-2.1914 2.3047-4.7422 2.8945-7.6406 0.58985-2.8984 0.89063-6.0586 0.89063-9.4961m24.293-0.48047c0 14.164-3.3789 25.105-10.137 32.832-6.7578 7.7148-17.055 11.574-30.891 11.574-13.949 0-24.141-3.8594-30.57-11.574-6.4414-7.7266-9.6562-18.562-9.6562-32.508 0-6.8633 0.9375-13.055 2.8125-18.578 1.875-5.5312 4.5625-10.168 8.0469-13.922 3.4844-3.7539 7.7226-6.6523 12.707-8.6914 4.9922-2.0352 10.652-3.0547 16.98-3.0547 13.516 0 23.676 3.8867 30.488 11.664s10.219 18.531 10.219 32.258" fill="#002642"/>
<path d="m605 282.09c-0.3711 0.375-1.3164 0.5625-2.8164 0.5625h-16.57c-1.1797 0-2.043-0.1875-2.5781-0.5625-0.53515-0.375-0.80078-1.1524-0.80078-2.3359v-68.699c0-3.6523 0.58594-6.543 1.7695-8.6914 1.1797-2.1484 3.9102-3.6992 8.207-4.668 0.96094-0.21094 2.332-0.39844 4.1016-0.5586 1.7695-0.16797 3.7031-0.32422 5.7891-0.48828 2.0938-0.16016 4.2109-0.28906 6.3594-0.39844 2.1445-0.10547 3.9648-0.16015 5.4727-0.16015 6.6484 0 12.414 0.58984 17.293 1.7695 4.8789 1.1836 9.1484 3.1133 12.793 5.7891 3.5391-2.3594 7.8516-4.2383 12.957-5.6328 5.0859-1.3867 10.211-2.0859 15.359-2.0859 6.9727 0 12.93 0.96484 17.859 2.8984 4.9336 1.9297 8.9609 4.6641 12.07 8.1992 3.1055 3.543 5.3867 7.75 6.8359 12.637 1.4492 4.8789 2.1758 10.219 2.1758 16.004v44.086c0 1.1836-0.21484 1.9609-0.64453 2.3359-0.4336 0.375-1.3984 0.5625-2.8984 0.5625h-16.41c-1.1836 0-2.0391-0.1875-2.5742-0.5625-0.53516-0.38282-0.80469-1.1602-0.80469-2.3398v-41.445c0-7.3125-1.2969-12.91-3.8828-16.777-2.5898-3.875-7.3867-5.8086-14.398-5.8086-2.0469 0-4.5547 0.26563-7.5195 0.80469-2.9648 0.53516-5.3086 1.2422-7.0274 2.0977 0.96485 2.6914 1.6367 5.5664 2.0117 8.6289 0.37891 3.0664 0.56641 6.3711 0.56641 9.918v42.582c0 1.1797-0.21485 1.957-0.64063 2.3398-0.42578 0.375-1.3828 0.5625-2.8711 0.5625h-16.461c-1.168 0-2.0234-0.1875-2.5625-0.5625-0.52734-0.38282-0.79297-1.1602-0.79297-2.3398v-43.547c0-3.332-0.26953-6.2852-0.80468-8.8711-0.54297-2.5742-1.4766-4.7578-2.8125-6.5312-1.3477-1.7734-3.2266-3.1484-5.6367-4.1094-2.418-0.96875-5.4961-1.457-9.25-1.457-1.1797 0-2.8125 0.0586-4.9062 0.16015-2.0977 0.10938-3.8945 0.32813-5.3945 0.64844v63.707c0 1.1797-0.1875 1.957-0.5625 2.3398" fill="#e67f00"/>
<path d="m780.47 244.35h-12.711c-1.5078 0-3.1133 0.10938-4.8281 0.32813-1.7148 0.21484-3.2969 0.72265-4.7461 1.5234-1.4492 0.8086-2.6562 1.9609-3.625 3.4609-0.96484 1.5078-1.4453 3.5391-1.4453 6.1133 0 3.7578 1.2578 6.3867 3.7812 7.8867 2.5156 1.5 5.9258 2.25 10.219 2.25 0.64453 0 1.5-0.0195 2.5742-0.082 1.0703-0.0508 2.2227-0.15234 3.457-0.32031 1.2305-0.16016 2.4961-0.375 3.7773-0.64453 1.293-0.26953 2.4688-0.61719 3.5469-1.0469zm23.324 27.836c0 1.3984-0.1836 2.5781-0.5586 3.5391-0.375 0.96485-1.3125 1.8789-2.8047 2.7422-2.4688 1.1797-5.1172 2.1406-7.9531 2.8945-2.8398 0.75-5.7305 1.3398-8.6719 1.7656-2.9414 0.42578-5.9102 0.75-8.9024 0.96875-3.0039 0.21484-5.8438 0.3164-8.5156 0.3164-7.2774 0-13.301-0.69531-18.062-2.0859-4.7617-1.3945-8.5898-3.2969-11.48-5.7109-2.8906-2.4141-4.9219-5.2617-6.1016-8.5352-1.1758-3.2695-1.7617-6.7773-1.7617-10.535 0-4.1836 0.69531-8.0195 2.0898-11.5 1.3906-3.4844 3.4883-6.5195 6.2734-9.0938 2.793-2.5781 6.3008-4.5859 10.539-6.0391 4.2422-1.4453 9.2539-2.168 15.047-2.168h17.699v-2.5781c0-1.4961-0.16016-2.9453-0.48438-4.3398-0.32422-1.3906-0.99219-2.6016-2.0117-3.6172-1.0234-1.0195-2.4414-1.8516-4.2617-2.4961-1.8281-0.64062-4.2422-0.96875-7.2422-0.96875-1.6094 0-3.4336 0.082-5.4727 0.2461-2.0352 0.15625-4.0781 0.3789-6.1133 0.64062-2.0352 0.27344-4.0195 0.58985-5.9492 0.96485-1.9336 0.3789-3.6484 0.78125-5.1484 1.2109-1.3984 0.31641-2.3633 0.31641-2.8984 0-0.53906-0.32812-0.91015-1.0195-1.125-2.0938l-2.5781-11.262c-0.32031-1.1797-0.34766-2.0117-0.082-2.4961 0.26562-0.48437 0.83203-0.88672 1.6914-1.207 4.8281-1.7109 9.8945-2.9531 15.203-3.7031 5.3125-0.75 10.594-1.1211 15.852-1.1211 11.66 0 20.207 2.4883 25.641 7.4805 5.4297 4.9922 8.1445 12.367 8.1445 22.125z" fill="#e67f00"/>
<path d="m856.41 254.33-14.32 24.777c-0.64844 1.1875-1.3672 2.0742-2.1719 2.6602-0.80859 0.58594-2.0117 0.88282-3.6211 0.88282h-18.34c-1.1875 0-1.9336-0.32032-2.2539-0.96485-0.32422-0.64453-0.16016-1.5039 0.48047-2.5781l27.191-41.027-24.297-37.008c-0.42969-0.53125-0.5625-1.1484-0.39844-1.8438 0.16406-0.69922 0.77734-1.0469 1.8477-1.0469h19.312c1.5 0 2.6484 0.21093 3.457 0.64453 0.80469 0.42187 1.4726 1.2344 2.0078 2.4023l11.266 20.762 11.426-20.762c0.64062-1.168 1.3359-1.9805 2.0898-2.4023 0.75-0.4336 1.8789-0.64453 3.3789-0.64453h18.988c1.1758 0 1.8203 0.3164 1.9258 0.96093 0.10937 0.64844 0.0586 1.2344-0.15625 1.7695l-24.781 36.848 27.348 41.512c0.54687 0.85938 0.70312 1.6367 0.48828 2.332-0.21485 0.69922-0.96875 1.0469-2.2539 1.0469h-18.82c-1.8242 0-3.0898-0.29688-3.7812-0.88282-0.70313-0.58593-1.3711-1.4726-2.0156-2.6602z" fill="#e67f00"/>
<path d="m277.29 184.1s-3.6875-16.145 7.625-23.137c11.285-7.0078 24.867-5.5508 24.867-5.5508s-1.9336 37.625-32.492 28.688" fill="#002642"/>
<path d="m179.06 283.83s-13.531-31.949-4.1328-68.379c9.4375-36.438 23.496-43.879 22.215-49.484-1.2812-5.5977-8.3555-3.0859-10.707 2.0273-2.3398 5.1289-11.75 16.094-20.191 14.164-8.4414-1.9336-10.145-36.785-16.309-40.355-6.1211-3.5977-4.2422 12.543-2.0703 26.508 2.1875 13.984-9.5625 6.0391-16.688-10.812-7.125-16.836-11.527-12.012-12.395-9.6641-0.85938 2.3516 15.754 32.473 14.441 33.875-1.2773 1.4102-22.285-23.691-24.371-23.016-2.0703 0.67578-5.6523 2.5781-0.67969 10.457 4.9844 7.8711 20.828 21.223 19.773 23.398-1.0625 2.1797-14.148-9.9688-19-10.328-4.832-0.35547-2.9766 6.5078 5.6133 12.871 8.5859 6.3633 29.723 13.512 30.008 37.02 0.29688 23.523-5.1016 51.719-5.1016 51.719z" fill="#002642"/>
<path d="m145.84 134.62s-17.137-5.1133-18.102-21.07c-0.97265-15.957 7.2148-29.617 7.2148-29.617s34.727 23.121 10.887 50.688" fill="#e67f00"/>
<path d="m115.46 138.06s-13.895-0.1875-18.094-12.074c-4.1953-11.887-1.0664-24.012-1.0664-24.012s30.93 10.059 19.16 36.086" fill="#e67f00"/>
<path d="m164.61 104.95s-9.8086-9.8789-4.4492-21.305c5.332-11.426 16.051-17.871 16.051-17.871s15.023 28.848-11.602 39.176" fill="#0a6ba1"/>
<path d="m103.68 156.38s-11.008 3.4102-17.348-4.9024c-6.3516-8.3086-6.957-18.664-6.957-18.664s26.945 0.0391 24.305 23.566" fill="#e67f00"/>
<path d="m104.18 181.97s-8.3438 7.9492-17.73 3.3555c-9.3711-4.6055-14.535-13.617-14.535-13.617s24.129-11.977 32.266 10.262" fill="#e67f00"/>
<path d="m110.6 199.67s-1.7305 11.406-11.953 13.492c-10.238 2.1211-19.832-1.832-19.832-1.832s11.754-24.258 31.785-11.66" fill="#e67f00"/>
<path d="m82.504 191.27s-2.3125 11.309-12.621 12.891c-10.332 1.5859-19.719-2.8438-19.719-2.8438s12.957-23.633 32.34-10.047" fill="#0a6ba1"/>
<path d="m85.441 158.53s-8.0469 8.2461-17.57 4.0117c-9.5625-4.2617-15.059-13.07-15.059-13.07s23.695-12.871 32.629 9.0586" fill="#0a6ba1"/>
<path d="m68.711 174.04s-4.2617 8.5117-12.84 7.5156c-8.5703-0.98828-15.066-6.5547-15.066-6.5547s15.473-15.98 27.906-0.96094" fill="#6bb83a"/>
<path d="m85.348 120.09s-8.582 4.0859-14.75-1.9297c-6.1484-6.0352-7.9062-14.41-7.9062-14.41s22.012-3.1797 22.656 16.34" fill="#0a6ba1"/>
<path d="m60.168 99.805s-6.9375 3.293-11.91-1.5625c-4.9766-4.8594-6.3867-11.621-6.3867-11.621s17.773-2.5742 18.297 13.184" fill="#6bb83a"/>
<path d="m92.391 97.773s-9.3125 1.9766-13.902-5.3242c-4.5703-7.3086-4.3008-15.848-4.3008-15.848s22.137 2.0469 18.203 21.172" fill="#6bb83a"/>
<path d="m95.184 67.949s-9.2969 1.9531-13.887-5.3477c-4.6016-7.293-4.3086-15.844-4.3086-15.844s22.121 2.0547 18.195 21.191" fill="#6bb83a"/>
<path d="m144.73 40.094s-6.5-6.9805-2.5898-14.66c3.9219-7.6992 11.395-11.852 11.395-11.852s9.6094 20.051-8.8047 26.512" fill="#6bb83a"/>
<path d="m225.56 94.746s-1.9609-8.2539 4.4531-12.516c6.4102-4.2656 14.059-4.2148 14.059-4.2148s-1.3359 19.824-18.512 16.73" fill="#6bb83a"/>
<path d="m251.56 126.45s-1.9688-8.2852 4.4414-12.531c6.4219-4.25 14.07-4.2109 14.07-4.2109s-1.3438 19.828-18.512 16.742" fill="#6bb83a"/>
<path d="m48.203 143.5s-4.7148 7.0781-12.215 5.2656c-7.4844-1.8047-12.633-7.4336-12.633-7.4336s15.422-12.5 24.848 2.168" fill="#6bb83a"/>
<path d="m147.75 78.066s-8.6875-3.8945-8.0898-12.492c0.59375-8.5977 5.8516-15.348 5.8516-15.348s16.688 14.691 2.2383 27.84" fill="#0a6ba1"/>
<path d="m68.84 136.06s-8.582 4.082-14.758-1.9336c-6.1641-6.0234-7.9062-14.398-7.9062-14.398s22.031-3.1836 22.664 16.332" fill="#6bb83a"/>
<path d="m115.63 103.36s-13.168-3.8906-14.012-16.301c-0.84375-12.398 5.3672-23.082 5.3672-23.082s26.723 17.754 8.6445 39.383" fill="#0a6ba1"/>
<path d="m165.87 153.82s-11.777-13.488-4.0781-27.5c7.6992-13.996 21.898-21.188 21.898-21.188s17.066 38.051-17.82 48.688" fill="#e67f00"/>
<path d="m195.43 157.67s-5.9375-10.406 0.97266-18.582c6.8945-8.1602 17.176-10.969 17.176-10.969s6.125 27.223-18.148 29.551" fill="#e67f00"/>
<path d="m220.67 148.36s0.17969-11.98 10.27-15.516c10.105-3.5 20.391-0.71093 20.391-0.71093s-8.5586 26.566-30.66 16.227" fill="#0a6ba1"/>
<path d="m217.38 124.4s0.1875-11.98 10.285-15.508c10.098-3.5234 20.375-0.72266 20.375-0.72266s-8.5586 26.562-30.66 16.23" fill="#0a6ba1"/>
<path d="m198.43 115.88s-5.9414-10.398 0.96484-18.566c6.9102-8.168 17.191-10.988 17.191-10.988s6.1328 27.234-18.156 29.555" fill="#0a6ba1"/>
<path d="m192.04 85.418s-5.9336-10.387 0.97265-18.562c6.8984-8.1641 17.184-11 17.184-11s6.1211 27.246-18.156 29.562" fill="#6bb83a"/>
<path d="m163.04 60.113s-5.957-10.41 0.96484-18.574c6.9102-8.168 17.184-10.992 17.184-10.992s6.1367 27.234-18.148 29.566" fill="#6bb83a"/>
<path d="m125.39 57.758s-11.703-2.625-13.059-13.234c-1.3867-10.605 3.457-20.098 3.457-20.098s24.242 13.828 9.6016 33.332" fill="#6bb83a"/>
<path d="m202.28 169.76s3.793-11.262 13.355-11.312c9.5312-0.0273 17.297 5.9492 17.297 5.9492s-15.32 22.324-30.652 5.3633" fill="#e67f00"/>
<path d="m245.34 151.17s5.7266-8.3125 13.52-6.1328c7.8047 2.1602 12.75 8.8398 12.75 8.8398s-17.629 14.668-26.27-2.707" fill="#6bb83a"/>
<path d="m223.73 182.57s9.6133-3.0703 14.445 3.3945c4.8477 6.5039 4.6719 14.809 4.6719 14.809s-22.914 0.81641-19.117-18.203" fill="#0a6ba1"/>
<path d="m202.87 179.88s9.832 2.2539 10.676 10.301c0.85937 8.0547-3.5312 15.121-3.5312 15.121s-20.129-11.02-7.1445-25.422" fill="#e67f00"/>
<path d="m238.38 173.51s5.6914-8.3086 13.512-6.1406c7.793 2.1758 12.742 8.8398 12.742 8.8398s-17.637 14.672-26.254-2.6992" fill="#6bb83a"/>
<path d="m924.51 233.28c-0.15625 0.11328-0.46093 0.16797-0.90234 0.16797h-3.6172c-0.3789 0-0.65625-0.0625-0.83203-0.19141-0.17578-0.125-0.26172-0.39453-0.26172-0.80859v-31.312c0-0.41406 0.0859-0.67578 0.26172-0.80469 0.17578-0.12891 0.45313-0.19141 0.83203-0.19141h3.6172c0.44141 0 0.74609 0.0586 0.90234 0.16407 0.15625 0.11328 0.23828 0.39062 0.23828 0.83203v31.312c0 0.44922-0.082 0.72265-0.23828 0.83203" fill="#002642"/>
<path d="m940.02 208.8v23.648c0 0.44922-0.0703 0.72265-0.21094 0.83203-0.14062 0.11328-0.43359 0.16797-0.88281 0.16797h-3.5156c-0.35157 0-0.625-0.0625-0.8125-0.19141-0.19141-0.125-0.28125-0.39453-0.28125-0.80859v-29.457c0-1.0156 0.19531-1.7461 0.58984-2.2148 0.39453-0.45703 1.1172-0.6875 2.1641-0.6875h1.6641c0.82421 0 1.4336 0.15235 1.8086 0.45703 0.38281 0.29688 0.82812 0.84766 1.332 1.6367l9.4766 15.754 4.043 6.8477h0.19141v-23.691c0-0.41406 0.0742-0.6875 0.23828-0.80859 0.15625-0.12891 0.44141-0.19532 0.85547-0.19532h3.5195c0.41016 0 0.69531 0.0664 0.85937 0.19532 0.15625 0.12109 0.23438 0.39453 0.23438 0.80859v29.5c0 0.92187-0.1875 1.6289-0.57031 2.1172-0.37891 0.49609-1.1133 0.73828-2.1875 0.73828h-1.6641c-0.41406 0-0.76171-0.0274-1.0469-0.0937-0.28516-0.0625-0.54297-0.17578-0.76172-0.33594-0.23047-0.15625-0.4375-0.37109-0.64453-0.63672-0.20703-0.26953-0.44141-0.59765-0.6875-0.98047l-9.5234-15.797-3.9961-6.8047z" fill="#002642"/>
<path d="m969.71 208.65c0-1.3281 0.21875-2.5469 0.66797-3.6562 0.44141-1.1133 1.1094-2.0742 1.9961-2.8789 0.88672-0.81641 2.0039-1.4375 3.3555-1.8867 1.3476-0.44141 2.9258-0.66406 4.7344-0.66406 0.85938 0 1.7422 0.0508 2.6641 0.14062 0.92188 0.0977 1.8438 0.23047 2.7617 0.38281 0.91797 0.16016 1.8086 0.3711 2.6641 0.61719 0.85547 0.25781 1.6524 0.54297 2.3789 0.85938 0.25391 0.16015 0.41406 0.30078 0.47656 0.42968 0.0625 0.12891 0.0274 0.34375-0.0937 0.66797l-1.1445 3.2344c-0.1289 0.34765-0.24609 0.53906-0.35547 0.5664-0.10937 0.0352-0.29687 0.0195-0.54687-0.043-1.5859-0.53906-3.1406-0.9414-4.6641-1.2188-1.5234-0.26562-2.9375-0.40234-4.2344-0.40234-1.6523 0-2.8516 0.34375-3.5938 1.0273-0.74609 0.67969-1.1172 1.4844-1.1172 2.4024 0 0.57031 0.13282 1.0859 0.40235 1.5469 0.27343 0.46094 0.70703 0.89844 1.3086 1.332 0.60156 0.42188 1.3594 0.85157 2.2617 1.2852 0.90625 0.42578 2.0078 0.89453 3.3086 1.3984 1.3633 0.57031 2.6641 1.1562 3.9024 1.7422 1.2344 0.58593 2.3281 1.2734 3.2812 2.0703 0.95312 0.79297 1.7031 1.7226 2.2617 2.7773 0.55078 1.0664 0.83203 2.3555 0.83203 3.8789 0 1.6562-0.3086 3.0938-0.92969 4.3086-0.61719 1.2227-1.4609 2.2305-2.5195 3.0195-1.0664 0.79297-2.3281 1.3945-3.7852 1.7891-1.4609 0.39843-3.0312 0.59375-4.7109 0.59375-1.9961 0-4.0898-0.19141-6.2812-0.57032-2.1875-0.38281-4.2188-1.082-6.0898-2.0938-0.44531-0.1914-0.54297-0.57031-0.28516-1.1484l1.4297-3.2344c0.21875-0.47656 0.57031-0.60937 1.0469-0.42187 1.5195 0.63281 3.0976 1.1641 4.7344 1.5938 1.6289 0.42578 3.2109 0.64062 4.7344 0.64062 2.4102 0 4.1133-0.41016 5.1133-1.2422 1-0.8164 1.5-1.8516 1.5-3.0859 0-0.66797-0.12891-1.2539-0.38281-1.7578-0.25391-0.51172-0.64844-0.98047-1.1875-1.4102-0.54297-0.42578-1.2227-0.83985-2.0469-1.2344-0.82812-0.39453-1.8086-0.82031-2.9492-1.2617-1.7148-0.67187-3.2539-1.332-4.6172-2-1.3633-0.66406-2.5078-1.3867-3.4258-2.168-0.92187-0.77734-1.625-1.6445-2.1172-2.6172-0.4961-0.96485-0.73829-2.0664-0.73829-3.3086" fill="#002642"/>
<path d="m1026.2 228.83c0 1.207-0.2735 2.207-0.8086 3-0.543 0.79297-1.5235 1.332-2.9571 1.6172-0.5976 0.1289-1.2461 0.22265-1.9218 0.28125-0.6836 0.0664-1.3555 0.1289-2.0274 0.17187-0.6601 0.0508-1.2969 0.0781-1.8984 0.0937-0.6016 0.0156-1.1407 0.0234-1.6172 0.0234-2.668 0-4.9453-0.24609-6.832-0.73828-1.8907-0.48828-3.418-1.3086-4.5938-2.4492-1.168-1.1406-2.0312-2.6641-2.5664-4.5664-0.5391-1.9102-0.8047-4.2695-0.8047-7.0898l-0.055-18.039c0-0.41016 0.1016-0.67578 0.293-0.80469 0.1836-0.12891 0.457-0.19141 0.8086-0.19141h3.707c0.4453 0 0.7422 0.0586 0.8789 0.16407 0.1485 0.11328 0.2149 0.39062 0.2149 0.83203v18.133c0 1.6172 0.1171 3.0312 0.3554 4.2344 0.2422 1.2031 0.6797 2.2031 1.3321 3 0.6523 0.79296 1.5586 1.3867 2.7187 1.7812 1.1563 0.39843 2.668 0.59765 4.543 0.59765 0.4765 0 1.2226-0.0312 2.2617-0.0742 1.0273-0.0469 2.0977-0.17968 3.2109-0.39843v-27.273c0-0.41016 0.086-0.67578 0.2618-0.80469 0.1718-0.12891 0.4531-0.19141 0.832-0.19141h3.7109c0.4453 0 0.7149 0.0586 0.8086 0.16407 0.098 0.11328 0.1445 0.39062 0.1445 0.83203z" fill="#002642"/>
<path d="m1053.7 209.94c0-0.47266-0.07-0.98438-0.2187-1.5195-0.1367-0.53906-0.3985-1.0469-0.7852-1.5273-0.375-0.47266-0.8984-0.86328-1.5703-1.168-0.6601-0.29297-1.5312-0.44531-2.6172-0.44531h-7.375v9.4258h7.043c1.9414 0 3.3398-0.46484 4.2109-1.3906 0.875-0.91797 1.3125-2.0469 1.3125-3.375m7.375 22.508c0.062 0.22265 0.047 0.44922-0.051 0.67187-0.09 0.21485-0.2812 0.32813-0.5664 0.32813h-4.2343c-0.2539 0-0.5118-0.0391-0.7618-0.11328-0.2578-0.0859-0.4492-0.29688-0.5703-0.64844l-2.289-8.8008c-0.4766-1.6797-1.1524-2.8242-2.0469-3.4297-0.8867-0.59766-2.168-0.90625-3.8477-0.90625h-5.6211v12.898c0 0.44922-0.066 0.71875-0.2148 0.83203-0.1367 0.11328-0.4336 0.16797-0.875 0.16797h-3.7109c-0.3516 0-0.625-0.0664-0.8086-0.19531-0.1914-0.1211-0.2852-0.39063-0.2852-0.80469v-29.691c0-0.92187 0.1836-1.6016 0.5703-2.0508 0.375-0.44141 1.0742-0.66016 2.0938-0.66016h11.23c1.5821 0 3.0235 0.22657 4.3282 0.6875 1.3007 0.45704 2.414 1.1211 3.332 1.9727 0.918 0.85938 1.6211 1.875 2.1172 3.0469 0.4883 1.1719 0.7383 2.4766 0.7383 3.8984 0 1.875-0.4571 3.5039-1.3633 4.8789-0.8985 1.3828-2.0781 2.375-3.5391 2.9727v0.19531c1.1094 0.47656 1.9375 1.1289 2.4688 1.9453 0.5429 0.82813 0.9726 1.8125 1.289 2.957z" fill="#002642"/>
<path d="m1074.9 221.21h9.1406l-2.4765-7.9883-2-6.7617h-0.2344l-1.9492 6.6172zm10.66 4.9531h-12.086l-2.0937 6.4726c-0.098 0.28516-0.2305 0.49219-0.4063 0.61719-0.1758 0.12891-0.4453 0.19141-0.832 0.19141h-4.3828c-0.3438 0-0.5664-0.10156-0.6602-0.3086-0.094-0.20703-0.094-0.4375 0-0.6914l10.277-30.125c0.1562-0.46875 0.3203-0.85156 0.4765-1.1367 0.1563-0.28516 0.3555-0.50781 0.5938-0.67188 0.2383-0.15625 0.5156-0.27343 0.832-0.35546 0.3203-0.0742 0.6992-0.11329 1.1445-0.11329h2.043c0.9844 0 1.6875 0.15235 2.0938 0.44532 0.414 0.30468 0.7773 0.91406 1.1015 1.832l10.324 30.125c0.09 0.2539 0.1016 0.48437 0.023 0.6914-0.086 0.20704-0.2929 0.3086-0.6406 0.3086h-4.3789c-0.3515 0-0.6289-0.0391-0.832-0.11328-0.211-0.082-0.375-0.30078-0.5-0.64844z" fill="#002642"/>
<path d="m1105.9 208.8v23.648c0 0.44922-0.07 0.72265-0.207 0.83203-0.1445 0.11328-0.4375 0.16797-0.8867 0.16797h-3.5156c-0.3516 0-0.625-0.0625-0.8086-0.19141-0.1914-0.125-0.2852-0.39453-0.2852-0.80859v-29.457c0-1.0156 0.1953-1.7461 0.5938-2.2148 0.3945-0.45703 1.1133-0.6875 2.1601-0.6875h1.6641c0.8281 0 1.4336 0.15235 1.8086 0.45703 0.3867 0.29688 0.8281 0.84766 1.332 1.6367l9.4766 15.754 4.039 6.8477h0.1954v-23.691c0-0.41406 0.078-0.6875 0.2382-0.80859 0.1563-0.12891 0.4414-0.19532 0.8555-0.19532h3.5195c0.4141 0 0.6993 0.0664 0.8594 0.19532 0.1563 0.12109 0.2344 0.39453 0.2344 0.80859v29.5c0 0.92187-0.1875 1.6289-0.5742 2.1172-0.375 0.49609-1.1055 0.73828-2.1836 0.73828h-1.6641c-0.4141 0-0.7617-0.0274-1.0469-0.0937-0.2851-0.0625-0.539-0.17578-0.7617-0.33594-0.2265-0.15625-0.4375-0.37109-0.6445-0.63672-0.207-0.26953-0.4375-0.59765-0.6875-0.98047l-9.5235-15.797-3.996-6.8047z" fill="#002642"/>
<path d="m1150.7 228.59c1.4258 0 2.7461-0.16015 3.9492-0.48828 1.2031-0.33984 2.332-0.71094 3.3789-1.1289 0.4414-0.1875 0.75-0.21875 0.9258-0.0899 0.1758 0.12891 0.3164 0.32031 0.4062 0.56641l1.2383 2.7109c0.2227 0.44921 0.2969 0.75781 0.2422 0.93359-0.066 0.17578-0.2305 0.34375-0.4805 0.5-1.6172 0.95312-3.3476 1.5859-5.1875 1.9023-1.8359 0.32032-3.6172 0.47657-5.3281 0.47657-4.8203 0-8.4609-1.3945-10.922-4.1875-2.4609-2.793-3.6875-7-3.6875-12.609 0-2.6367 0.3672-5.0273 1.0938-7.1836 0.7304-2.1562 1.7422-4.0039 3.0469-5.5195 1.2968-1.5234 2.8671-2.7031 4.7109-3.5508 1.8398-0.83593 3.8867-1.2617 6.1367-1.2617 1.4297 0 2.8984 0.1289 4.4024 0.38671 1.5078 0.25 3.039 0.78907 4.5898 1.6133 0.2539 0.1289 0.4258 0.28125 0.5 0.45703 0.082 0.17578 0.023 0.48437-0.1641 0.92578l-1.332 2.7617c-0.125 0.3125-0.2539 0.52343-0.3828 0.61718-0.1289 0.0899-0.3672 0.0625-0.7149-0.0937-1.0468-0.41406-2.1171-0.73828-3.2109-0.97656-1.0937-0.24219-2.2461-0.35547-3.4492-0.35547-1.5859 0-2.9609 0.32813-4.1172 0.99219-1.1562 0.67188-2.1055 1.5664-2.8594 2.6914-0.7422 1.1289-1.2929 2.4297-1.6601 3.8984-0.3672 1.4766-0.5469 3.0078-0.5469 4.5977s0.1523 3.0742 0.4531 4.4492c0.3047 1.375 0.8086 2.5898 1.5274 3.6172 0.707 1.0312 1.6757 1.8516 2.8984 2.4492 1.2227 0.60546 2.7344 0.89843 4.543 0.89843" fill="#002642"/>
<path d="m1190.5 233.16c-0.129 0.19141-0.4024 0.28516-0.8086 0.28516h-13.562c-1.6836 0-3.0664-0.23828-4.1446-0.71875-1.0742-0.47266-1.9414-1.1055-2.5937-1.8984-0.6524-0.79297-1.0977-1.6992-1.3555-2.7109-0.2539-1.0195-0.375-2.0742-0.375-3.1875v-16.281c0-1.1055 0.1445-2.1719 0.4453-3.207 0.3047-1.0312 0.7969-1.9453 1.4766-2.7383 0.6836-0.78906 1.5664-1.4297 2.6406-1.8984 1.0781-0.47656 2.3789-0.71875 3.9063-0.71875h13.27c0.4141 0 0.6758 0.0899 0.7891 0.26563 0.1132 0.17187 0.164 0.45312 0.164 0.83203v2.9961c0 0.41016-0.051 0.69141-0.164 0.83203-0.1133 0.14063-0.375 0.21094-0.7891 0.21094h-12.656c-1.2031 0-2.0507 0.27344-2.539 0.81641-0.4961 0.53515-0.7383 1.3164-0.7383 2.3281v4.9922h14.371c0.4062 0 0.668 0.082 0.7851 0.23828 0.1094 0.16406 0.1602 0.46094 0.1602 0.91016v2.6172c0 0.375-0.051 0.65625-0.1602 0.83203-0.1171 0.17578-0.3789 0.26172-0.7851 0.26172h-14.371v6.918c0 1.0078 0.2617 1.7734 0.7852 2.2969 0.5234 0.51562 1.3515 0.77734 2.4921 0.77734h12.949c0.4414 0 0.7226 0.082 0.832 0.23828 0.1094 0.16407 0.1641 0.46485 0.1641 0.91407v2.9766c0 0.35547-0.066 0.62891-0.1875 0.82031" fill="#002642"/>
<path d="m1232.6 223.03c0-1.5234-0.4883-2.7695-1.4531-3.7383-0.9649-0.96094-2.3867-1.4453-4.2578-1.4453h-7.8985v10.371h7.8516c1.1406 0 2.0781-0.16797 2.8047-0.5 0.7304-0.33203 1.3203-0.75 1.7617-1.2656 0.4414-0.50391 0.7539-1.0664 0.9297-1.6836 0.1758-0.61718 0.2617-1.1953 0.2617-1.7383m-13.609-9.9922h7.7071c0.4414 0 0.9296-0.0547 1.4531-0.16407 0.5234-0.10937 1.0078-0.32031 1.4492-0.62109 0.4453-0.30078 0.8086-0.71875 1.0938-1.2422 0.2851-0.52344 0.4296-1.207 0.4296-2.0625 0-1.1484-0.3711-2.0508-1.1171-2.7148-0.7461-0.66406-1.7579-1-3.0235-1h-7.9922zm14.418 2.1367c0.8828 0.35157 1.6641 0.82422 2.332 1.4102 0.6641 0.58594 1.2071 1.2461 1.6172 1.9688 0.4141 0.73828 0.7227 1.5117 0.9258 2.3359 0.2109 0.82422 0.3086 1.6641 0.3086 2.5234 0 1.4883-0.293 2.8516-0.8789 4.0859-0.5899 1.2422-1.3789 2.3047-2.3789 3.1875-1 0.89453-2.1758 1.5703-3.5196 2.0508-1.3476 0.47657-2.8046 0.71485-4.3554 0.71485h-11.609c-1.0195 0-1.7187-0.21485-2.0937-0.63672-0.3868-0.43359-0.5704-1.125-0.5704-2.0742v-27.938c0-0.91797 0.1836-1.5977 0.5704-2.0469 0.375-0.44141 1.0742-0.66407 2.0937-0.66407l11.039-0.043c1.4609 0 2.8203 0.15625 4.0898 0.46875 1.2734 0.32032 2.3555 0.81641 3.2617 1.4805 0.9024 0.66797 1.6172 1.5234 2.1407 2.5703 0.5234 1.0469 0.7851 2.2969 0.7851 3.7578 0 1.4297-0.3555 2.7188-1.0703 3.8789-0.7148 1.1562-1.6094 2.0391-2.6875 2.6367z" fill="#002642"/>
<path d="m1265.2 209.94c0-0.47266-0.066-0.98438-0.2149-1.5195-0.1367-0.53906-0.3984-1.0469-0.7851-1.5273-0.379-0.47266-0.8985-0.86328-1.5704-1.168-0.6601-0.29297-1.5312-0.44531-2.6171-0.44531h-7.375v9.4258h7.0429c1.9414 0 3.3399-0.46484 4.211-1.3906 0.875-0.91797 1.3086-2.0469 1.3086-3.375m7.375 22.508c0.066 0.22265 0.051 0.44922-0.047 0.67187-0.09 0.21485-0.2813 0.32813-0.5665 0.32813h-4.2343c-0.2539 0-0.5117-0.0391-0.7617-0.11328-0.2579-0.0859-0.4493-0.29688-0.5704-0.64844l-2.289-8.8008c-0.4727-1.6797-1.1563-2.8242-2.0469-3.4297-0.8867-0.59766-2.168-0.90625-3.8477-0.90625h-5.621v12.898c0 0.44922-0.07 0.71875-0.2149 0.83203-0.1406 0.11328-0.4336 0.16797-0.8789 0.16797h-3.7109c-0.3477 0-0.6211-0.0664-0.8086-0.19531-0.1914-0.1211-0.2852-0.39063-0.2852-0.80469v-29.691c0-0.92187 0.1875-1.6016 0.5703-2.0508 0.3789-0.44141 1.0782-0.66016 2.0938-0.66016h11.234c1.582 0 3.0234 0.22657 4.3281 0.6875 1.3008 0.45704 2.414 1.1211 3.332 1.9727 0.918 0.85938 1.625 1.875 2.1172 3.0469 0.4883 1.1719 0.7383 2.4766 0.7383 3.8984 0 1.875-0.4531 3.5039-1.3594 4.8789-0.9023 1.3828-2.082 2.375-3.5469 2.9727v0.19531c1.1133 0.47656 1.9414 1.1289 2.4766 1.9453 0.5391 0.82813 0.9687 1.8125 1.2851 2.957z" fill="#002642"/>
<path d="m1301.4 216.84c0-1.5859-0.1211-3.1016-0.3594-4.5469-0.2383-1.4414-0.664-2.7188-1.2851-3.832-0.6172-1.1055-1.4727-1.9844-2.5664-2.6367-1.0977-0.65234-2.5-0.97656-4.2149-0.97656-1.4531 0-2.7265 0.30469-3.8047 0.92969-1.082 0.61719-1.9765 1.4648-2.6875 2.5391-0.7148 1.0859-1.2422 2.3281-1.5937 3.7344-0.3477 1.418-0.5235 2.9336-0.5235 4.5508 0 1.8398 0.1368 3.5078 0.4024 5 0.2695 1.4844 0.7383 2.7656 1.4062 3.8242 0.6641 1.0625 1.543 1.8828 2.6407 2.457 1.0937 0.5625 2.4492 0.85156 4.0664 0.85156s2.9726-0.33203 4.0703-1c1.0937-0.66406 1.9726-1.5508 2.6406-2.6406 0.6641-1.0938 1.1367-2.3594 1.4024-3.7812 0.2695-1.4297 0.4062-2.918 0.4062-4.4727m5.9922-0.19141c0 5.5195-1.2109 9.7891-3.6367 12.805-2.4297 3.0117-6.0977 4.5156-11.016 4.5156-4.789 0-8.375-1.4531-10.754-4.3555-2.3789-2.9062-3.5703-7.1602-3.5703-12.773 0-2.7266 0.3555-5.1562 1.0703-7.2812 0.7149-2.125 1.7149-3.9297 2.9961-5.4062 1.2852-1.4688 2.8086-2.5977 4.5703-3.3789 1.7618-0.77343 3.7071-1.1602 5.8282-1.1602 2.3789 0 4.4804 0.38672 6.3047 1.1602 1.8281 0.78125 3.3398 1.9102 4.5429 3.3789 1.211 1.4766 2.1211 3.2695 2.7383 5.3828 0.6172 2.1094 0.9258 4.4766 0.9258 7.1133" fill="#002642"/>
<path d="m1331.3 212.13 11.32 20.227c0.4141 0.73047 0.2578 1.0938-0.4726 1.0938h-4.2383c-0.6016 0-1.0274-0.0391-1.2852-0.11328-0.2539-0.082-0.5195-0.375-0.8047-0.88672l-8.5156-15.516-6.0429 7.4219v8.0938c0 0.44922-0.078 0.72265-0.2188 0.83203-0.1445 0.11328-0.4336 0.16797-0.8828 0.16797h-3.5664c-0.3477 0-0.6211-0.0625-0.8086-0.19141-0.1914-0.125-0.2852-0.39844-0.2852-0.80859v-31.312c0-0.41016 0.094-0.67578 0.2852-0.80469 0.1875-0.12891 0.4609-0.19141 0.8086-0.19141h3.5664c0.4492 0 0.7383 0.0586 0.8828 0.16407 0.1406 0.11328 0.2188 0.39062 0.2188 0.83203v14.469l0.1835 0.0898 4.7579-6.043 7.2382-8.8438c0.1914-0.22656 0.4258-0.39062 0.711-0.5039 0.289-0.10547 0.664-0.16407 1.1406-0.16407h4.8594c0.2851 0 0.4687 0.0781 0.5703 0.23829 0.094 0.15625 0.047 0.34765-0.1484 0.5664z" fill="#002642"/>
<path d="m1371.5 233.16c-0.1289 0.19141-0.4024 0.28516-0.8086 0.28516h-13.562c-1.6836 0-3.0664-0.23828-4.1446-0.71875-1.0742-0.47266-1.9414-1.1055-2.5898-1.8984-0.6523-0.79297-1.1016-1.6992-1.3594-2.7109-0.2539-1.0195-0.375-2.0742-0.375-3.1875v-16.281c0-1.1055 0.1446-2.1719 0.4453-3.207 0.3047-1.0312 0.7969-1.9453 1.4805-2.7383 0.6797-0.78906 1.5625-1.4297 2.6406-1.8984 1.0743-0.47656 2.3789-0.71875 3.9024-0.71875h13.273c0.4102 0 0.6719 0.0899 0.7852 0.26563 0.1172 0.17187 0.1679 0.45312 0.1679 0.83203v2.9961c0 0.41016-0.051 0.69141-0.1679 0.83203-0.1133 0.14063-0.375 0.21094-0.7852 0.21094h-12.656c-1.2071 0-2.0547 0.27344-2.543 0.81641-0.4961 0.53515-0.7383 1.3164-0.7383 2.3281v4.9922h14.371c0.4063 0 0.668 0.082 0.7852 0.23828 0.1093 0.16406 0.164 0.46094 0.164 0.91016v2.6172c0 0.375-0.055 0.65625-0.164 0.83203-0.1172 0.17578-0.3789 0.26172-0.7852 0.26172h-14.371v6.918c0 1.0078 0.2617 1.7734 0.7852 2.2969 0.5234 0.51562 1.3554 0.77734 2.4961 0.77734h12.945c0.4453 0 0.7187 0.082 0.832 0.23828 0.1133 0.16407 0.1641 0.46485 0.1641 0.91407v2.9766c0 0.35547-0.066 0.62891-0.1875 0.82031" fill="#002642"/>
<path d="m1397.5 209.94c0-0.47266-0.066-0.98438-0.2148-1.5195-0.1367-0.53906-0.3985-1.0469-0.7852-1.5273-0.3789-0.47266-0.8984-0.86328-1.5703-1.168-0.6602-0.29297-1.5352-0.44531-2.6172-0.44531h-7.375v9.4258h7.043c1.9375 0 3.3398-0.46484 4.2109-1.3906 0.875-0.91797 1.3086-2.0469 1.3086-3.375m7.3789 22.508c0.062 0.22265 0.043 0.44922-0.051 0.67187-0.09 0.21485-0.2812 0.32813-0.5664 0.32813h-4.2383c-0.2539 0-0.5078-0.0391-0.7578-0.11328-0.2578-0.0859-0.4492-0.29688-0.5742-0.64844l-2.2852-8.8008c-0.4765-1.6797-1.1562-2.8242-2.0468-3.4297-0.8867-0.59766-2.168-0.90625-3.8477-0.90625h-5.6211v12.898c0 0.44922-0.07 0.71875-0.2148 0.83203-0.1406 0.11328-0.4375 0.16797-0.8789 0.16797h-3.711c-0.3476 0-0.6211-0.0664-0.8086-0.19531-0.1914-0.1211-0.2851-0.39063-0.2851-0.80469v-29.691c0-0.92187 0.1875-1.6016 0.5703-2.0508 0.3789-0.44141 1.0781-0.66016 2.0937-0.66016h11.234c1.5821 0 3.0235 0.22657 4.3281 0.6875 1.3008 0.45704 2.4102 1.1211 3.3321 1.9727 0.9179 0.85938 1.6211 1.875 2.1133 3.0469 0.4921 1.1719 0.7421 2.4766 0.7421 3.8984 0 1.875-0.457 3.5039-1.3632 4.8789-0.8985 1.3828-2.0821 2.375-3.5391 2.9727v0.19531c1.1094 0.47656 1.9336 1.1289 2.4688 1.9453 0.5429 0.82813 0.9726 1.8125 1.2851 2.957z" fill="#002642"/>
<path d="m1411.1 208.65c0-1.3281 0.2188-2.5469 0.668-3.6562 0.4414-1.1133 1.1094-2.0742 1.9961-2.8789 0.8867-0.81641 2.0039-1.4375 3.3555-1.8867 1.3476-0.44141 2.9257-0.66406 4.7343-0.66406 0.8594 0 1.7422 0.0508 2.6641 0.14062 0.9258 0.0977 1.8437 0.23047 2.7617 0.38281 0.9219 0.16016 1.8086 0.3711 2.6641 0.61719 0.8554 0.25781 1.6523 0.54297 2.3789 0.85938 0.2578 0.16015 0.414 0.30078 0.4765 0.42968 0.066 0.12891 0.027 0.34375-0.094 0.66797l-1.1445 3.2344c-0.1289 0.34765-0.2422 0.53906-0.3555 0.5664-0.1093 0.0352-0.2968 0.0195-0.5468-0.043-1.586-0.53906-3.1407-0.9414-4.6641-1.2188-1.5234-0.26562-2.9375-0.40234-4.2344-0.40234-1.6523 0-2.8515 0.34375-3.5937 1.0273-0.7461 0.67969-1.1172 1.4844-1.1172 2.4024 0 0.57031 0.1328 1.0859 0.4023 1.5469 0.2735 0.46094 0.711 0.89844 1.3086 1.332 0.6016 0.42188 1.3594 0.85157 2.2617 1.2852 0.9063 0.42578 2.0079 0.89453 3.3086 1.3984 1.3633 0.57031 2.6641 1.1562 3.9024 1.7422 1.2344 0.58593 2.3281 1.2734 3.2812 2.0703 0.9532 0.79297 1.7032 1.7226 2.2618 2.7773 0.5507 1.0664 0.832 2.3555 0.832 3.8789 0 1.6562-0.3086 3.0938-0.9297 4.3086-0.6172 1.2227-1.4609 2.2305-2.5195 3.0195-1.0664 0.79297-2.3282 1.3945-3.7852 1.7891-1.4609 0.39843-3.0312 0.59375-4.7109 0.59375-1.9961 0-4.0899-0.19141-6.2813-0.57032-2.1875-0.38281-4.2187-1.082-6.0898-2.0938-0.4414-0.1914-0.543-0.57031-0.2852-1.1484l1.4297-3.2344c0.2227-0.47656 0.5703-0.60937 1.0469-0.42187 1.5195 0.63281 3.1015 1.1641 4.7344 1.5938 1.6289 0.42578 3.2109 0.64062 4.7343 0.64062 2.4102 0 4.1133-0.41016 5.1133-1.2422 1-0.8164 1.5-1.8516 1.5-3.0859 0-0.66797-0.125-1.2539-0.3828-1.7578-0.25-0.51172-0.6445-0.98047-1.1875-1.4102-0.543-0.42578-1.2187-0.83985-2.0469-1.2344-0.8281-0.39453-1.8086-0.82031-2.9492-1.2617-1.7148-0.67187-3.25-1.332-4.6172-2-1.3594-0.66406-2.5078-1.3867-3.4258-2.168-0.9218-0.77734-1.625-1.6445-2.1171-2.6172-0.4961-0.96485-0.7383-2.0664-0.7383-3.3086" fill="#002642"/>
<path d="m940.71 254.4c-0.11328 0.125-0.34765 0.1875-0.69531 0.1875h-9.0391v27.266c0 0.44922-0.0703 0.72266-0.21484 0.83203-0.14454 0.11719-0.4375 0.17188-0.87891 0.17188h-3.7109c-0.38281 0-0.66015-0.0664-0.83594-0.19141-0.17578-0.12109-0.26171-0.39844-0.26171-0.8125v-27.266h-8.8477c-0.34766 0-0.57422-0.0625-0.66797-0.1875-0.0937-0.125-0.14062-0.34766-0.14062-0.66407v-3.2891c0-0.34375 0.0469-0.58203 0.14062-0.71094 0.0937-0.1289 0.32031-0.1875 0.66797-0.1875h23.789c0.34766 0 0.58203 0.0586 0.69531 0.1875 0.10547 0.12891 0.16797 0.36719 0.16797 0.71094v3.2891c0 0.31641-0.0625 0.53907-0.16797 0.66407" fill="#002642"/>
<path d="m973.21 282.68c-0.14453 0.1211-0.4375 0.17188-0.88281 0.17188h-3.6211c-0.375 0-0.65625-0.0664-0.83203-0.19141-0.17188-0.125-0.26172-0.39844-0.26172-0.8125v-13.984h-14.797v13.984c0 0.44922-0.082 0.72266-0.23828 0.83203-0.15625 0.1211-0.46094 0.17188-0.89844 0.17188h-3.6172c-0.35157 0-0.625-0.0664-0.8125-0.19141-0.1875-0.125-0.28125-0.39844-0.28125-0.8125v-31.309c0-0.41406 0.0937-0.67969 0.28125-0.8086 0.1875-0.1289 0.46093-0.1914 0.8125-0.1914h3.6172c0.4375 0 0.74219 0.0586 0.89844 0.16797s0.23828 0.39062 0.23828 0.83203v12.324h14.797v-12.324c0-0.41406 0.0898-0.67969 0.26172-0.8086 0.17578-0.1289 0.45703-0.1914 0.83203-0.1914h3.6211c0.44531 0 0.73828 0.0586 0.88281 0.16797 0.14063 0.10937 0.21094 0.39062 0.21094 0.83203v31.309c0 0.44922-0.0703 0.72266-0.21094 0.83203" fill="#002642"/>
<path d="m1005.3 282.57c-0.1289 0.1875-0.3984 0.28516-0.8086 0.28516h-13.562c-1.6836 0-3.0664-0.23828-4.1406-0.71485-1.0781-0.47656-1.9453-1.1133-2.5977-1.9023-0.64844-0.79297-1.0977-1.7031-1.3516-2.7109-0.25782-1.0195-0.37891-2.0781-0.37891-3.1875v-16.281c0-1.1055 0.14453-2.1758 0.44531-3.2109 0.30469-1.0274 0.79688-1.9414 1.4805-2.7305 0.67969-0.79297 1.5625-1.4336 2.6406-1.9062 1.0742-0.47657 2.3789-0.71094 3.9023-0.71094h13.27c0.4141 0 0.6758 0.0859 0.7891 0.25781 0.1133 0.17188 0.168 0.45313 0.168 0.83203v2.9961c0 0.41406-0.055 0.6914-0.168 0.83984-0.1133 0.14063-0.375 0.20703-0.7891 0.20703h-12.652c-1.207 0-2.0547 0.27344-2.543 0.8125-0.49219 0.53516-0.73828 1.3164-0.73828 2.3281v5h14.371c0.4063 0 0.6719 0.0742 0.7852 0.23437 0.1094 0.16406 0.1641 0.45703 0.1641 0.90625v2.6172c0 0.38281-0.055 0.65625-0.1641 0.83203-0.1133 0.17578-0.3789 0.26172-0.7852 0.26172h-14.371v6.918c0 1.0078 0.26172 1.7734 0.78515 2.2969 0.52344 0.51563 1.3555 0.77735 2.4961 0.77735h12.945c0.4414 0 0.7227 0.0859 0.832 0.24218 0.1094 0.16016 0.1641 0.46094 0.1641 0.91016v2.9805c0 0.35547-0.066 0.625-0.1875 0.82031" fill="#002642"/>
<path d="m1027.4 258.06c0-1.332 0.2227-2.5469 0.6719-3.6602 0.4375-1.1094 1.1093-2.0664 1.9922-2.8789 0.8906-0.8125 2.0078-1.4336 3.3554-1.8828 1.3516-0.44141 2.9258-0.66016 4.7383-0.66016 0.8594 0 1.7422 0.043 2.6602 0.13672 0.9257 0.0977 1.8476 0.22656 2.7656 0.38281 0.918 0.16016 1.8086 0.36719 2.6641 0.61719 0.8515 0.25781 1.6484 0.53906 2.3789 0.85547 0.2539 0.16406 0.414 0.30078 0.4765 0.42969 0.062 0.1289 0.027 0.35156-0.094 0.67187l-1.1484 3.2344c-0.125 0.34765-0.2422 0.53906-0.3516 0.5664-0.1133 0.0352-0.2969 0.0156-0.5469-0.043-1.5898-0.54296-3.1406-0.94531-4.664-1.2188-1.5235-0.26562-2.9375-0.40234-4.2344-0.40234-1.6523 0-2.8516 0.33984-3.5937 1.0234-0.7461 0.68359-1.1172 1.4844-1.1172 2.4023 0 0.57031 0.1328 1.0859 0.3984 1.5508 0.2734 0.45703 0.7109 0.89844 1.3086 1.3281 0.6055 0.42969 1.3633 0.85937 2.2656 1.2891 0.9063 0.42188 2.0039 0.89063 3.3086 1.4023 1.3594 0.57032 2.6641 1.1484 3.9024 1.7383 1.2304 0.58593 2.3242 1.2695 3.2812 2.0664 0.9531 0.79297 1.7031 1.7227 2.2617 2.7812 0.5508 1.0625 0.8321 2.3594 0.8321 3.8828 0 1.6484-0.3086 3.0859-0.9336 4.3008-0.6133 1.2226-1.4571 2.2344-2.5157 3.0273-1.0664 0.78906-2.3281 1.3867-3.789 1.7852-1.457 0.39453-3.0274 0.58984-4.711 0.58984-1.9921 0-4.0859-0.1875-6.2812-0.56641-2.1836-0.38672-4.2148-1.0859-6.0898-2.0976-0.4415-0.1875-0.5391-0.56641-0.2852-1.1406l1.4336-3.2344c0.2187-0.47657 0.5703-0.61719 1.0469-0.42578 1.5156 0.63281 3.0976 1.1641 4.7343 1.5938 1.625 0.42187 3.211 0.63671 4.7344 0.63671 2.4063 0 4.1094-0.41015 5.1133-1.2344 1-0.82422 1.5-1.8594 1.5-3.0898 0-0.66797-0.1289-1.2578-0.3867-1.7617-0.2461-0.50782-0.6446-0.98047-1.1836-1.4102-0.543-0.42187-1.2227-0.83984-2.0469-1.2344-0.8281-0.39454-1.8086-0.82032-2.9492-1.2617-1.7149-0.66407-3.2539-1.3281-4.6172-2-1.3633-0.66407-2.5117-1.3828-3.4297-2.1602-0.918-0.78125-1.6211-1.6484-2.1172-2.6172-0.4922-0.96875-0.7383-2.0742-0.7383-3.3125" fill="#002642"/>
<path d="m1076.5 260.02c0-0.54296-0.086-1.1289-0.2617-1.7656-0.1719-0.63281-0.4727-1.207-0.9063-1.7305-0.4258-0.52734-1.0156-0.96094-1.7773-1.3125-0.7657-0.34766-1.7344-0.51953-2.9063-0.51953h-7.043v10.562h7.1368c2 0 3.457-0.49609 4.3828-1.4766 0.914-0.98828 1.375-2.2344 1.375-3.7578m-12.938 21.836c0 0.44922-0.078 0.72266-0.2149 0.83203-0.1484 0.1211-0.4414 0.17188-0.8867 0.17188h-3.5664c-0.3476 0-0.6211-0.0664-0.8086-0.19141-0.1914-0.125-0.2851-0.39844-0.2851-0.8125v-29.691c0-0.89063 0.1875-1.5664 0.5703-2.0234 0.3789-0.46094 1.0781-0.6875 2.0937-0.6875h11.324c1.5899 0 3.0352 0.24609 4.3594 0.73437 1.3125 0.4961 2.4336 1.1914 3.375 2.0938 0.9336 0.90625 1.668 1.9844 2.1914 3.2422 0.5235 1.2461 0.7852 2.6211 0.7852 4.1094 0 0.86328-0.1406 1.8828-0.4063 3.0703-0.2695 1.1953-0.8125 2.3359-1.6172 3.4492-0.8125 1.1133-1.9453 2.0586-3.4062 2.832-1.4609 0.78125-3.3789 1.1719-5.7578 1.1719h-7.75z" fill="#002642"/>
<path d="m1112.3 282.57c-0.1289 0.1875-0.4023 0.28516-0.8086 0.28516h-13.562c-1.6836 0-3.0664-0.23828-4.1445-0.71485-1.0742-0.47656-1.9414-1.1133-2.5937-1.9023-0.6524-0.79297-1.0977-1.7031-1.3555-2.7109-0.2539-1.0195-0.3789-2.0781-0.3789-3.1875v-16.281c0-1.1055 0.1484-2.1758 0.4492-3.2109 0.3008-1.0274 0.7969-1.9414 1.4766-2.7305 0.6836-0.79297 1.5664-1.4336 2.6406-1.9062 1.0781-0.47657 2.3789-0.71094 3.9062-0.71094h13.27c0.414 0 0.6758 0.0859 0.7851 0.25781 0.1172 0.17188 0.168 0.45313 0.168 0.83203v2.9961c0 0.41406-0.051 0.6914-0.168 0.83984-0.1093 0.14063-0.3711 0.20703-0.7851 0.20703h-12.656c-1.2031 0-2.0547 0.27344-2.539 0.8125-0.4961 0.53516-0.7383 1.3164-0.7383 2.3281v5h14.371c0.4062 0 0.6679 0.0742 0.7851 0.23437 0.1094 0.16406 0.1602 0.45703 0.1602 0.90625v2.6172c0 0.38281-0.051 0.65625-0.1602 0.83203-0.1172 0.17578-0.3789 0.26172-0.7851 0.26172h-14.371v6.918c0 1.0078 0.2617 1.7734 0.7851 2.2969 0.5235 0.51563 1.3555 0.77735 2.4922 0.77735h12.949c0.4414 0 0.7188 0.0859 0.8321 0.24218 0.1093 0.16016 0.1601 0.46094 0.1601 0.91016v2.9805c0 0.35547-0.062 0.625-0.1836 0.82031" fill="#002642"/>
<path d="m1134.4 278c1.4258 0 2.7461-0.16406 3.9492-0.49609 1.2031-0.33594 2.332-0.71094 3.3789-1.1211 0.4414-0.1875 0.75-0.22265 0.9258-0.0937 0.1758 0.125 0.3125 0.31641 0.4062 0.57031l1.2383 2.7109c0.2227 0.44922 0.2969 0.75391 0.2422 0.92969-0.066 0.17187-0.2305 0.34375-0.4805 0.5-1.6132 0.95312-3.3476 1.5859-5.1875 1.8984-1.8359 0.32031-3.6171 0.48047-5.3281 0.48047-4.8203 0-8.4609-1.3984-10.922-4.1914-2.4609-2.793-3.6875-6.9961-3.6875-12.609 0-2.6367 0.3672-5.0234 1.0938-7.1797 0.7305-2.1602 1.7422-4.0039 3.0469-5.5234 1.2968-1.5234 2.8672-2.7031 4.7109-3.543 1.8398-0.83984 3.8867-1.2656 6.1367-1.2656 1.4297 0 2.8946 0.125 4.4024 0.38671 1.5078 0.2461 3.0351 0.78907 4.5898 1.6133 0.2578 0.125 0.4219 0.28125 0.5 0.45312 0.082 0.17578 0.023 0.48438-0.1601 0.92578l-1.3321 2.7656c-0.1289 0.30859-0.2578 0.51953-0.3867 0.61718-0.1289 0.0899-0.3672 0.0586-0.7148-0.0976-1.0469-0.41016-2.1172-0.73438-3.211-0.97656-1.0937-0.23438-2.2461-0.35547-3.4492-0.35547-1.5859 0-2.9609 0.33203-4.1172 0.99609-1.1601 0.66797-2.1055 1.5664-2.8594 2.6953-0.7421 1.1211-1.2929 2.4219-1.6601 3.8945-0.3672 1.4805-0.5469 3.0078-0.5469 4.5938 0 1.5898 0.1524 3.0742 0.4531 4.4492 0.3008 1.3828 0.8086 2.5898 1.5235 3.6172 0.7109 1.0312 1.6797 1.8516 2.9023 2.4492 1.2227 0.60937 2.7344 0.90625 4.543 0.90625" fill="#002642"/>
<path d="m1157.4 282.68c-0.1562 0.1211-0.457 0.17188-0.8984 0.17188h-3.6172c-0.3789 0-0.6602-0.0664-0.832-0.19141-0.1758-0.125-0.2618-0.39844-0.2618-0.8125v-31.309c0-0.41406 0.086-0.67969 0.2618-0.8086 0.1718-0.1289 0.4531-0.1914 0.832-0.1914h3.6172c0.4414 0 0.7422 0.0586 0.8984 0.16797 0.1563 0.10937 0.2422 0.39062 0.2422 0.83203v31.309c0 0.44922-0.086 0.72266-0.2422 0.83203" fill="#002642"/>
<path d="m1174.2 270.62h9.1367l-2.4727-7.9922-2-6.7578h-0.2382l-1.9493 6.6094zm10.66 4.9453h-12.086l-2.0938 6.4766c-0.098 0.28516-0.2304 0.4961-0.4062 0.61719-0.1758 0.125-0.4492 0.1875-0.832 0.1875h-4.3789c-0.3477 0-0.5704-0.10156-0.6641-0.30469-0.094-0.21093-0.094-0.4375 0-0.69531l10.277-30.121c0.1602-0.47266 0.3204-0.85547 0.4766-1.1367 0.1563-0.28906 0.3555-0.50781 0.5938-0.67188 0.2382-0.16015 0.5195-0.27343 0.832-0.35546 0.3203-0.0742 0.6992-0.11329 1.1445-0.11329h2.043c0.9844 0 1.6875 0.14844 2.0937 0.44532 0.4141 0.30078 0.7813 0.91406 1.1016 1.832l10.324 30.121c0.09 0.25781 0.1016 0.48438 0.019 0.69531-0.078 0.20313-0.289 0.30469-0.6367 0.30469h-4.3828c-0.3477 0-0.625-0.0391-0.8281-0.11328-0.211-0.082-0.3711-0.29687-0.5039-0.64453z" fill="#002642"/>
<path d="m1199.6 250.5c0-0.41406 0.09-0.69141 0.2656-0.8125 0.1719-0.125 0.4453-0.1875 0.8321-0.1875h3.5625c0.4453 0 0.746 0.0469 0.9062 0.16016 0.1563 0.11718 0.2422 0.39062 0.2422 0.83984v23.84c0 1.2305 0.3047 2.1016 0.9219 2.6172 0.625 0.50391 1.4648 0.75391 2.5468 0.75391h12.758c0.3476 0 0.5703 0.0664 0.6601 0.19531 0.094 0.125 0.1484 0.36328 0.1484 0.71484v3.332c0 0.3125-0.055 0.54688-0.1484 0.6836-0.09 0.14844-0.3125 0.21484-0.6601 0.21484h-13.66c-1.6484 0-3.0156-0.23437-4.0938-0.71094-1.082-0.47656-1.9375-1.1133-2.5703-1.9062-0.6328-0.79296-1.0742-1.6992-1.332-2.7109-0.2539-1.0156-0.3789-2.0742-0.3789-3.1836z" fill="#002642"/>
<path d="m1234.6 282.68c-0.1562 0.1211-0.4609 0.17188-0.9023 0.17188h-3.6172c-0.3789 0-0.6563-0.0664-0.832-0.19141-0.1719-0.125-0.2618-0.39844-0.2618-0.8125v-31.309c0-0.41406 0.09-0.67969 0.2618-0.8086 0.1757-0.1289 0.4531-0.1914 0.832-0.1914h3.6172c0.4414 0 0.7461 0.0586 0.9023 0.16797 0.1563 0.10937 0.2383 0.39062 0.2383 0.83203v31.309c0 0.44922-0.082 0.72266-0.2383 0.83203" fill="#002642"/>
<path d="m1243.8 258.06c0-1.332 0.2227-2.5469 0.668-3.6602 0.4414-1.1094 1.1133-2.0664 1.9961-2.8789 0.8906-0.8125 2.0078-1.4336 3.3554-1.8828 1.3516-0.44141 2.9258-0.66016 4.7344-0.66016 0.8594 0 1.7461 0.043 2.6641 0.13672 0.9258 0.0977 1.8476 0.22656 2.7656 0.38281 0.918 0.16016 1.8047 0.36719 2.6641 0.61719 0.8515 0.25781 1.6484 0.53906 2.3789 0.85547 0.2539 0.16406 0.414 0.30078 0.4726 0.42969 0.066 0.1289 0.031 0.35156-0.09 0.67187l-1.1484 3.2344c-0.125 0.34765-0.2422 0.53906-0.3555 0.5664-0.1093 0.0352-0.2929 0.0156-0.5429-0.043-1.5899-0.54296-3.1407-0.94531-4.668-1.2188-1.5234-0.26562-2.9336-0.40234-4.2344-0.40234-1.6484 0-2.8476 0.33984-3.5937 1.0234-0.7422 0.68359-1.1172 1.4844-1.1172 2.4023 0 0.57031 0.1367 1.0859 0.4023 1.5508 0.2735 0.45703 0.711 0.89844 1.3086 1.3281 0.6055 0.42969 1.3594 0.85937 2.2617 1.2891 0.9063 0.42188 2.0078 0.89063 3.3086 1.4023 1.3633 0.57032 2.6641 1.1484 3.9063 1.7383 1.2304 0.58593 2.3242 1.2695 3.2773 2.0664 0.9531 0.79297 1.7071 1.7227 2.2656 2.7812 0.5508 1.0625 0.8321 2.3594 0.8321 3.8828 0 1.6484-0.3086 3.0859-0.9336 4.3008-0.6133 1.2226-1.457 2.2344-2.5156 3.0273-1.0664 0.78906-2.3282 1.3867-3.7891 1.7852-1.457 0.39453-3.0273 0.58984-4.7109 0.58984-1.9961 0-4.0899-0.1875-6.2813-0.56641-2.1875-0.38672-4.2148-1.0859-6.0898-2.0976-0.4414-0.1875-0.543-0.56641-0.2852-1.1406l1.4297-3.2344c0.2227-0.47657 0.5703-0.61719 1.0469-0.42578 1.5195 0.63281 3.1015 1.1641 4.7343 1.5938 1.629 0.42187 3.211 0.63671 4.7383 0.63671 2.4063 0 4.1094-0.41015 5.1094-1.2344 1.0039-0.82422 1.5039-1.8594 1.5039-3.0898 0-0.66797-0.1289-1.2578-0.3867-1.7617-0.2461-0.50782-0.6445-0.98047-1.1875-1.4102-0.5391-0.42187-1.2188-0.83984-2.0469-1.2344-0.8242-0.39454-1.8086-0.82032-2.9492-1.2617-1.7148-0.66407-3.25-1.3281-4.6172-2-1.3594-0.66407-2.5078-1.3828-3.4258-2.1602-0.9179-0.78125-1.6211-1.6484-2.1172-2.6172s-0.7382-2.0742-0.7382-3.3125" fill="#002642"/>
<path d="m1296.6 254.4c-0.1094 0.125-0.3438 0.1875-0.6914 0.1875h-9.0391v27.266c0 0.44922-0.07 0.72266-0.2148 0.83203-0.1445 0.11719-0.4375 0.17188-0.8789 0.17188h-3.711c-0.3828 0-0.6601-0.0664-0.8359-0.19141-0.1758-0.12109-0.2617-0.39844-0.2617-0.8125v-27.266h-8.8477c-0.3476 0-0.5781-0.0625-0.6679-0.1875-0.094-0.125-0.1407-0.34766-0.1407-0.66407v-3.2891c0-0.34375 0.047-0.58203 0.1407-0.71094 0.09-0.1289 0.3203-0.1875 0.6679-0.1875h23.789c0.3476 0 0.582 0.0586 0.6914 0.1875 0.1094 0.12891 0.168 0.36719 0.168 0.71094v3.2891c0 0.31641-0.059 0.53907-0.168 0.66407" fill="#002642"/>
<path d="m1302.2 258.06c0-1.332 0.2227-2.5469 0.668-3.6602 0.4414-1.1094 1.1133-2.0664 1.9961-2.8789 0.8906-0.8125 2.0078-1.4336 3.3554-1.8828 1.3516-0.44141 2.9258-0.66016 4.7344-0.66016 0.8594 0 1.7461 0.043 2.6641 0.13672 0.9258 0.0977 1.8476 0.22656 2.7656 0.38281 0.918 0.16016 1.8047 0.36719 2.6641 0.61719 0.8515 0.25781 1.6484 0.53906 2.3789 0.85547 0.2539 0.16406 0.414 0.30078 0.4726 0.42969 0.066 0.1289 0.031 0.35156-0.094 0.67187l-1.1445 3.2344c-0.125 0.34765-0.2422 0.53906-0.3555 0.5664-0.1093 0.0352-0.2929 0.0156-0.5429-0.043-1.5899-0.54296-3.1407-0.94531-4.668-1.2188-1.5234-0.26562-2.9336-0.40234-4.2344-0.40234-1.6484 0-2.8476 0.33984-3.5937 1.0234-0.7422 0.68359-1.1172 1.4844-1.1172 2.4023 0 0.57031 0.1367 1.0859 0.4023 1.5508 0.2735 0.45703 0.711 0.89844 1.3086 1.3281 0.6055 0.42969 1.3594 0.85937 2.2617 1.2891 0.9063 0.42188 2.0079 0.89063 3.3086 1.4023 1.3633 0.57032 2.6641 1.1484 3.9063 1.7383 1.2305 0.58593 2.3242 1.2695 3.2773 2.0664 0.9532 0.79297 1.7071 1.7227 2.2657 2.7812 0.5507 1.0625 0.832 2.3594 0.832 3.8828 0 1.6484-0.3125 3.0859-0.9336 4.3008-0.6133 1.2226-1.457 2.2344-2.5156 3.0273-1.0664 0.78906-2.3282 1.3867-3.7891 1.7852-1.457 0.39453-3.0273 0.58984-4.7109 0.58984-1.9961 0-4.0899-0.1875-6.2813-0.56641-2.1875-0.38672-4.2148-1.0859-6.0898-2.0976-0.4414-0.1875-0.543-0.56641-0.2852-1.1406l1.4297-3.2344c0.2227-0.47657 0.5703-0.61719 1.0469-0.42578 1.5195 0.63281 3.1015 1.1641 4.7344 1.5938 1.6289 0.42187 3.2109 0.63671 4.7382 0.63671 2.4063 0 4.1094-0.41015 5.1094-1.2344 1.0039-0.82422 1.5039-1.8594 1.5039-3.0898 0-0.66797-0.1289-1.2578-0.3867-1.7617-0.2461-0.50782-0.6445-0.98047-1.1875-1.4102-0.5391-0.42187-1.2188-0.83984-2.0469-1.2344-0.8242-0.39454-1.8086-0.82032-2.9492-1.2617-1.7148-0.66407-3.25-1.3281-4.6172-2-1.3594-0.66407-2.5078-1.3828-3.4258-2.1602-0.9179-0.78125-1.6211-1.6484-2.1172-2.6172-0.496-0.96875-0.7382-2.0742-0.7382-3.3125" fill="#002642"/>
<path d="m1354 282.68c-0.1562 0.1211-0.4609 0.17188-0.9023 0.17188h-3.6172c-0.3789 0-0.6562-0.0664-0.832-0.19141-0.1719-0.125-0.2617-0.39844-0.2617-0.8125v-31.309c0-0.41406 0.09-0.67969 0.2617-0.8086 0.1758-0.1289 0.4531-0.1914 0.832-0.1914h3.6172c0.4414 0 0.7461 0.0586 0.9023 0.16797 0.1563 0.10937 0.2383 0.39062 0.2383 0.83203v31.309c0 0.44922-0.082 0.72266-0.2383 0.83203" fill="#002642"/>
<path d="m1369.5 258.2v23.648c0 0.44922-0.07 0.72266-0.2109 0.83203-0.1445 0.1211-0.4375 0.16797-0.8828 0.16797h-3.5195c-0.3516 0-0.6211-0.0625-0.8086-0.1875-0.1914-0.12109-0.2852-0.39844-0.2852-0.8125v-29.453c0-1.0195 0.1953-1.75 0.5938-2.2148 0.3945-0.46093 1.1172-0.68359 2.164-0.68359h1.6641c0.8242 0 1.4297 0.14844 1.8086 0.44922 0.3828 0.29687 0.8281 0.85156 1.332 1.6445l9.4727 15.75 4.0429 6.8516h0.1914v-23.695c0-0.41406 0.078-0.69141 0.2383-0.8125 0.1602-0.125 0.4453-0.1875 0.8555-0.1875h3.5195c0.4141 0 0.6992 0.0625 0.8594 0.1875 0.1602 0.12109 0.2344 0.39844 0.2344 0.8125v29.5c0 0.91797-0.1875 1.6289-0.5703 2.1133-0.3789 0.49609-1.1094 0.73828-2.1875 0.73828h-1.6641c-0.4102 0-0.7617-0.0273-1.0469-0.0898-0.2851-0.0664-0.539-0.17578-0.7617-0.33985-0.2266-0.15625-0.4336-0.37109-0.6445-0.63671-0.2031-0.26954-0.4336-0.59766-0.6875-0.98047l-9.5196-15.797-3.996-6.8047z" fill="#002642"/>
<path d="m1441.3 282.68c-0.1484 0.1211-0.4375 0.17188-0.8867 0.17188h-3.6172c-0.3789 0-0.6562-0.0664-0.832-0.19141-0.1758-0.125-0.2617-0.39844-0.2617-0.8125v-13.984h-14.797v13.984c0 0.44922-0.082 0.72266-0.2383 0.83203-0.1562 0.1211-0.4609 0.17188-0.9023 0.17188h-3.6172c-0.3477 0-0.6211-0.0664-0.8086-0.19141-0.1914-0.125-0.2852-0.39844-0.2852-0.8125v-31.309c0-0.41406 0.094-0.67969 0.2852-0.8086 0.1875-0.1289 0.4609-0.1914 0.8086-0.1914h3.6172c0.4414 0 0.7461 0.0586 0.9023 0.16797 0.1563 0.10937 0.2383 0.39062 0.2383 0.83203v12.324h14.797v-12.324c0-0.41406 0.086-0.67969 0.2617-0.8086 0.1758-0.1289 0.4531-0.1914 0.832-0.1914h3.6172c0.4492 0 0.7383 0.0586 0.8867 0.16797 0.1367 0.10937 0.207 0.39062 0.207 0.83203v31.309c0 0.44922-0.07 0.72266-0.207 0.83203" fill="#002642"/>
<path d="m1473.4 282.57c-0.1289 0.1875-0.4024 0.28516-0.8086 0.28516h-13.562c-1.6836 0-3.0664-0.23828-4.1446-0.71485-1.0742-0.47656-1.9414-1.1133-2.5937-1.9023-0.6484-0.79297-1.0977-1.7031-1.3555-2.7109-0.2539-1.0195-0.3789-2.0781-0.3789-3.1875v-16.281c0-1.1055 0.1485-2.1758 0.4492-3.2109 0.3047-1.0274 0.7969-1.9414 1.4766-2.7305 0.6836-0.79297 1.5664-1.4336 2.6406-1.9062 1.0781-0.47657 2.3789-0.71094 3.9063-0.71094h13.27c0.4141 0 0.6758 0.0859 0.7891 0.25781 0.1132 0.17188 0.164 0.45313 0.164 0.83203v2.9961c0 0.41406-0.051 0.6914-0.164 0.83984-0.1133 0.14063-0.375 0.20703-0.7891 0.20703h-12.656c-1.2032 0-2.0508 0.27344-2.543 0.8125-0.4922 0.53516-0.7344 1.3164-0.7344 2.3281v5h14.371c0.4063 0 0.668 0.0742 0.7852 0.23437 0.1093 0.16406 0.1601 0.45703 0.1601 0.90625v2.6172c0 0.38281-0.051 0.65625-0.1601 0.83203-0.1172 0.17578-0.3789 0.26172-0.7852 0.26172h-14.371v6.918c0 1.0078 0.2617 1.7734 0.7813 2.2969 0.5234 0.51563 1.3554 0.77735 2.4961 0.77735h12.949c0.4414 0 0.7226 0.0859 0.832 0.24218 0.1094 0.16016 0.1641 0.46094 0.1641 0.91016v2.9805c0 0.35547-0.066 0.625-0.1875 0.82031" fill="#002642"/>
<path d="m1487.9 270.62h9.1367l-2.4727-7.9922-2-6.7578h-0.2382l-1.9493 6.6094zm10.66 4.9453h-12.086l-2.0937 6.4766c-0.098 0.28516-0.2344 0.4961-0.4063 0.61719-0.1758 0.125-0.4492 0.1875-0.832 0.1875h-4.3789c-0.3516 0-0.5703-0.10156-0.6641-0.30469-0.094-0.21093-0.094-0.4375 0-0.69531l10.277-30.121c0.1563-0.47266 0.3204-0.85547 0.4766-1.1367 0.1563-0.28906 0.3555-0.50781 0.5938-0.67188 0.2382-0.16015 0.5156-0.27343 0.832-0.35546 0.3164-0.0742 0.6953-0.11329 1.1445-0.11329h2.043c0.9805 0 1.6875 0.14844 2.0937 0.44532 0.4102 0.30078 0.7774 0.91406 1.0977 1.832l10.324 30.121c0.094 0.25781 0.1055 0.48438 0.023 0.69531-0.082 0.20313-0.289 0.30469-0.6406 0.30469h-4.3789c-0.3477 0-0.625-0.0391-0.832-0.11328-0.2071-0.082-0.3711-0.29687-0.5-0.64453z" fill="#002642"/>
<path d="m1513.2 250.5c0-0.41406 0.09-0.69141 0.2656-0.8125 0.1719-0.125 0.4453-0.1875 0.8281-0.1875h3.5664c0.4493 0 0.7461 0.0469 0.9102 0.16016 0.1563 0.11718 0.2383 0.39062 0.2383 0.83984v23.84c0 1.2305 0.3047 2.1016 0.9219 2.6172 0.625 0.50391 1.4648 0.75391 2.5468 0.75391h12.758c0.3516 0 0.5665 0.0664 0.6602 0.19531 0.09 0.125 0.1484 0.36328 0.1484 0.71484v3.332c0 0.3125-0.059 0.54688-0.1484 0.6836-0.094 0.14844-0.3086 0.21484-0.6602 0.21484h-13.66c-1.6484 0-3.0195-0.23437-4.0977-0.71094-1.0742-0.47656-1.9297-1.1133-2.5664-1.9062-0.6328-0.79296-1.0742-1.6992-1.332-2.7109-0.2539-1.0156-0.3789-2.0742-0.3789-3.1836z" fill="#002642"/>
<path d="m1561.1 254.4c-0.1094 0.125-0.3476 0.1875-0.6914 0.1875h-9.043v27.266c0 0.44922-0.07 0.72266-0.2148 0.83203-0.1445 0.11719-0.4375 0.17188-0.875 0.17188h-3.7109c-0.3828 0-0.6602-0.0664-0.8399-0.19141-0.1758-0.12109-0.2617-0.39844-0.2617-0.8125v-27.266h-8.8477c-0.3515 0-0.5742-0.0625-0.664-0.1875-0.094-0.125-0.1445-0.34766-0.1445-0.66407v-3.2891c0-0.34375 0.051-0.58203 0.1445-0.71094 0.09-0.1289 0.3125-0.1875 0.664-0.1875h23.793c0.3438 0 0.582 0.0586 0.6914 0.1875 0.1133 0.12891 0.1719 0.36719 0.1719 0.71094v3.2891c0 0.31641-0.059 0.53907-0.1719 0.66407" fill="#002642"/>
<path d="m1593.6 282.68c-0.1445 0.1211-0.4297 0.17188-0.8828 0.17188h-3.6133c-0.3789 0-0.6601-0.0664-0.832-0.19141-0.1797-0.125-0.2656-0.39844-0.2656-0.8125v-13.984h-14.793v13.984c0 0.44922-0.086 0.72266-0.2344 0.83203-0.1601 0.1211-0.4687 0.17188-0.9062 0.17188h-3.6211c-0.3438 0-0.6172-0.0664-0.8008-0.19141-0.1953-0.125-0.2891-0.39844-0.2891-0.8125v-31.309c0-0.41406 0.094-0.67969 0.2891-0.8086 0.1836-0.1289 0.457-0.1914 0.8008-0.1914h3.6211c0.4375 0 0.7461 0.0586 0.9062 0.16797 0.1485 0.10937 0.2344 0.39062 0.2344 0.83203v12.324h14.793v-12.324c0-0.41406 0.086-0.67969 0.2656-0.8086 0.1719-0.1289 0.4531-0.1914 0.832-0.1914h3.6133c0.4531 0 0.7383 0.0586 0.8828 0.16797s0.2149 0.39062 0.2149 0.83203v31.309c0 0.44922-0.07 0.72266-0.2149 0.83203" fill="#002642"/>
<path d="m1617.4 278c1.4179 0 2.746-0.16406 3.9414-0.49609 1.207-0.33594 2.3398-0.71094 3.3867-1.1211 0.4375-0.1875 0.7461-0.22265 0.9258-0.0937 0.1718 0.125 0.3086 0.31641 0.3984 0.57031l1.2422 2.7109c0.2226 0.44922 0.3008 0.75391 0.2383 0.92969-0.059 0.17187-0.2266 0.34375-0.4766 0.5-1.6211 0.95312-3.3477 1.5859-5.1914 1.8984-1.8359 0.32031-3.6133 0.48047-5.3281 0.48047-4.8164 0-8.461-1.3984-10.918-4.1914-2.4609-2.793-3.6875-6.9961-3.6875-12.609 0-2.6367 0.3633-5.0234 1.0898-7.1797 0.7383-2.1602 1.75-4.0039 3.0469-5.5234 1.2969-1.5234 2.8672-2.7031 4.711-3.543 1.8437-0.83984 3.8867-1.2656 6.1406-1.2656 1.4336 0 2.8945 0.125 4.4023 0.38671 1.5039 0.2461 3.0391 0.78907 4.5899 1.6133 0.2578 0.125 0.4218 0.28125 0.5 0.45312 0.078 0.17578 0.023 0.48438-0.1641 0.92578l-1.332 2.7656c-0.125 0.30859-0.2539 0.51953-0.3828 0.61718-0.1289 0.0899-0.3633 0.0586-0.7149-0.0976-1.0508-0.41016-2.1172-0.73438-3.2148-0.97656-1.0899-0.23438-2.2422-0.35547-3.4492-0.35547-1.5821 0-2.9532 0.33203-4.1133 0.99609-1.1563 0.66797-2.1055 1.5664-2.8555 2.6953-0.7461 1.1211-1.3008 2.4219-1.6641 3.8945-0.3671 1.4805-0.5468 3.0078-0.5468 4.5938 0 1.5898 0.1523 3.0742 0.4531 4.4492 0.3008 1.3828 0.8125 2.5898 1.5195 3.6172 0.711 1.0312 1.6875 1.8516 2.9063 2.4492 1.2265 0.60937 2.7304 0.90625 4.5469 0.90625" fill="#002642"/>
<path d="m1641.3 270.62h9.1367l-2.4727-7.9922-2-6.7578h-0.2383l-1.9492 6.6094zm10.664 4.9453h-12.09l-2.0938 6.4766c-0.098 0.28516-0.2304 0.4961-0.4101 0.61719-0.1719 0.125-0.4414 0.1875-0.8321 0.1875h-4.371c-0.3516 0-0.5743-0.10156-0.668-0.30469-0.094-0.21093-0.094-0.4375 0-0.69531l10.277-30.121c0.1563-0.47266 0.3203-0.85547 0.4805-1.1367 0.1562-0.28906 0.3516-0.50781 0.5937-0.67188 0.2344-0.16015 0.5157-0.27343 0.8321-0.35546 0.3164-0.0742 0.6953-0.11329 1.1406-0.11329h2.043c0.9843 0 1.6836 0.14844 2.0937 0.44532 0.4141 0.30078 0.7813 0.91406 1.0977 1.832l10.324 30.121c0.094 0.25781 0.1094 0.48438 0.023 0.69531-0.078 0.20313-0.289 0.30469-0.6367 0.30469h-4.3828c-0.3437 0-0.625-0.0391-0.832-0.11328-0.2071-0.082-0.3672-0.29687-0.4961-0.64453z" fill="#002642"/>
<path d="m1685.1 259.34c0-0.46875-0.07-0.98047-0.2149-1.5156-0.1406-0.54296-0.3984-1.0469-0.789-1.5234-0.3789-0.48047-0.9024-0.86719-1.5664-1.1719-0.6602-0.29687-1.5352-0.44531-2.6172-0.44531h-7.375v9.4219h7.043c1.9375 0 3.3359-0.46093 4.2109-1.3828 0.875-0.92187 1.3086-2.0469 1.3086-3.3828m7.375 22.508c0.062 0.22266 0.051 0.44922-0.043 0.67188-0.094 0.21875-0.289 0.33203-0.5742 0.33203h-4.2305c-0.2578 0-0.5156-0.043-0.7695-0.11719-0.25-0.082-0.4453-0.29687-0.5664-0.64453l-2.2852-8.8047c-0.4726-1.6797-1.1562-2.8242-2.0468-3.4297-0.8868-0.59765-2.1719-0.89843-3.8477-0.89843h-5.6211v12.891c0 0.44922-0.074 0.72266-0.2148 0.83203-0.1407 0.1211-0.4414 0.17188-0.875 0.17188h-3.7188c-0.3437 0-0.6211-0.0664-0.8086-0.19141-0.1875-0.125-0.2812-0.39844-0.2812-0.8125v-29.691c0-0.92188 0.1875-1.5977 0.5703-2.0469 0.3789-0.44141 1.0742-0.66406 2.0898-0.66406h11.23c1.5859 0 3.0273 0.22656 4.332 0.6875 1.3047 0.45703 2.418 1.1211 3.336 1.9766 0.9179 0.85547 1.6211 1.875 2.1133 3.043 0.4882 1.1758 0.7382 2.4766 0.7382 3.9062 0 1.8711-0.4492 3.4961-1.3632 4.8789-0.9024 1.375-2.0782 2.3711-3.5391 2.9688v0.1914c1.1094 0.47656 1.9336 1.1289 2.4726 1.9531 0.5391 0.82422 0.9688 1.8047 1.2852 2.9531z" fill="#002642"/>
<path d="m1722.1 282.57c-0.1328 0.1875-0.4023 0.28516-0.8125 0.28516h-13.559c-1.6796 0-3.0703-0.23828-4.1445-0.71485-1.0781-0.47656-1.9375-1.1133-2.5898-1.9023-0.6524-0.79297-1.1055-1.7031-1.3555-2.7109-0.2578-1.0195-0.3789-2.0781-0.3789-3.1875v-16.281c0-1.1055 0.1406-2.1758 0.4414-3.2109 0.3086-1.0274 0.8047-1.9414 1.4805-2.7305 0.6797-0.79297 1.5703-1.4336 2.6445-1.9062 1.0781-0.47657 2.375-0.71094 3.9023-0.71094h13.274c0.4062 0 0.6719 0.0859 0.7812 0.25781 0.1211 0.17188 0.1719 0.45313 0.1719 0.83203v2.9961c0 0.41406-0.051 0.6914-0.1719 0.83984-0.1093 0.14063-0.375 0.20703-0.7812 0.20703h-12.66c-1.2031 0-2.0508 0.27344-2.5429 0.8125-0.4883 0.53516-0.7383 1.3164-0.7383 2.3281v5h14.379c0.3984 0 0.664 0.0742 0.7773 0.23437 0.1172 0.16406 0.168 0.45703 0.168 0.90625v2.6172c0 0.38281-0.051 0.65625-0.168 0.83203-0.1133 0.17578-0.3789 0.26172-0.7773 0.26172h-14.379v6.918c0 1.0078 0.2656 1.7734 0.789 2.2969 0.5235 0.51563 1.3555 0.77735 2.4922 0.77735h12.945c0.4453 0 0.7227 0.0859 0.8321 0.24218 0.1172 0.16016 0.164 0.46094 0.164 0.91016v2.9805c0 0.35547-0.062 0.625-0.1836 0.82031" fill="#002642"/>
</g>
</svg>
