<?xml version="1.0" encoding="UTF-8" standalone="no"?><!DOCTYPE svg PUBLIC "-//W3C//DTD SVG 1.1//EN" "http://www.w3.org/Graphics/SVG/1.1/DTD/svg11.dtd"><svg width="1330" height="320" viewBox="0 0 133 32" version="1.1" xmlns="http://www.w3.org/2000/svg" xmlns:xlink="http://www.w3.org/1999/xlink" xml:space="preserve" xmlns:serif="http://www.serif.com/" style="fill-rule:evenodd;clip-rule:evenodd;stroke-linejoin:round;stroke-miterlimit:2;"><rect id="ArtBoard1" x="0" y="0" width="132.866" height="31.562" style="fill:none;"/><g><g><g><g><path d="M37.96,13.366c0.891,3.382 0.325,6.808 -1.309,9.612c-1.628,2.795 -4.323,4.966 -7.694,5.855c-3.36,0.89 -6.763,0.328 -9.551,-1.292c-2.781,-1.617 -4.949,-4.29 -5.839,-7.64c-0.897,-3.346 -0.347,-6.74 1.252,-9.527c1.603,-2.796 4.258,-4.993 7.609,-5.907c1.745,-0.483 3.508,-0.575 5.191,-0.326c1.752,0.258 3.421,0.878 4.901,1.806c0.428,0.273 0.998,0.145 1.271,-0.282c0.274,-0.429 0.147,-1 -0.281,-1.272c-1.683,-1.091 -3.589,-1.83 -5.594,-2.157c-1.944,-0.316 -3.982,-0.237 -6.008,0.289c-3.911,1.026 -7.042,3.545 -8.927,6.787c-1.888,3.251 -2.522,7.226 -1.475,11.141c1.058,3.91 3.598,7.025 6.857,8.895c3.252,1.866 7.216,2.492 11.117,1.434c3.888,-1.06 6.986,-3.593 8.842,-6.839c1.851,-3.236 2.474,-7.178 1.417,-11.055c-0.132,-0.492 -0.636,-0.782 -1.128,-0.651c-0.492,0.132 -0.783,0.637 -0.651,1.129Z" style="fill:#fff;"/></g><g><path d="M41.912,0.267l2.168,1.818l-14.682,17.515c-0.788,0.941 -1.587,1.669 -2.398,2.185c-0.81,0.516 -1.618,0.836 -2.425,0.961c-0.806,0.124 -1.598,0.063 -2.374,-0.182c-0.776,-0.246 -1.522,-0.669 -2.241,-1.271c-0.603,-0.525 -1.064,-1.023 -1.387,-1.495c-0.321,-0.473 -0.536,-0.86 -0.644,-1.163l2.05,-2.446c0.186,0.444 0.432,0.877 0.736,1.296c0.306,0.421 0.68,0.816 1.124,1.188c0.398,0.335 0.814,0.586 1.246,0.756c0.432,0.169 0.882,0.218 1.349,0.147c0.467,-0.071 0.958,-0.277 1.471,-0.619c0.513,-0.341 1.049,-0.846 1.609,-1.514l14.398,-17.176Z" style="fill:#fff;fill-rule:nonzero;"/></g></g></g></g><path d="M51.126,14.476l1.168,-0.16c0.031,0.748 0.171,1.259 0.42,1.535c0.25,0.276 0.595,0.414 1.035,0.414c0.325,0 0.605,-0.074 0.841,-0.223c0.236,-0.149 0.399,-0.352 0.488,-0.608c0.089,-0.256 0.133,-0.664 0.133,-1.225l0,-6.742l1.295,-0l0,6.669c0,0.819 -0.099,1.453 -0.297,1.902c-0.198,0.45 -0.512,0.792 -0.941,1.028c-0.43,0.236 -0.934,0.354 -1.512,0.354c-0.859,0 -1.517,-0.247 -1.973,-0.741c-0.456,-0.494 -0.675,-1.228 -0.657,-2.203Z" style="fill:#fff;fill-rule:nonzero;"/><path d="M63.095,16.379c-0.445,0.378 -0.873,0.645 -1.285,0.801c-0.412,0.156 -0.853,0.233 -1.325,0.233c-0.779,0 -1.378,-0.19 -1.796,-0.57c-0.418,-0.381 -0.627,-0.867 -0.627,-1.459c-0,-0.347 0.079,-0.664 0.237,-0.951c0.158,-0.287 0.365,-0.518 0.62,-0.691c0.256,-0.174 0.545,-0.305 0.865,-0.394c0.236,-0.062 0.592,-0.122 1.068,-0.18c0.97,-0.116 1.685,-0.254 2.143,-0.414c0.004,-0.165 0.007,-0.269 0.007,-0.314c-0,-0.489 -0.114,-0.834 -0.341,-1.035c-0.307,-0.271 -0.763,-0.407 -1.368,-0.407c-0.566,0 -0.983,0.099 -1.252,0.297c-0.269,0.198 -0.468,0.549 -0.598,1.052l-1.174,-0.161c0.106,-0.502 0.282,-0.909 0.527,-1.218c0.245,-0.309 0.599,-0.547 1.061,-0.714c0.463,-0.167 1,-0.25 1.609,-0.25c0.605,-0 1.097,0.071 1.476,0.213c0.378,0.143 0.656,0.322 0.834,0.538c0.178,0.215 0.303,0.488 0.374,0.817c0.04,0.205 0.06,0.574 0.06,1.108l-0,1.603c-0,1.117 0.025,1.823 0.077,2.119c0.051,0.296 0.152,0.58 0.303,0.851l-1.255,0c-0.124,-0.249 -0.204,-0.54 -0.24,-0.874Zm-0.1,-2.684c-0.436,0.178 -1.09,0.329 -1.963,0.454c-0.494,0.071 -0.843,0.151 -1.048,0.24c-0.204,0.089 -0.362,0.22 -0.474,0.391c-0.111,0.171 -0.167,0.362 -0.167,0.571c0,0.32 0.122,0.587 0.364,0.801c0.243,0.213 0.598,0.32 1.065,0.32c0.463,0 0.874,-0.101 1.235,-0.304c0.36,-0.202 0.625,-0.479 0.794,-0.831c0.129,-0.271 0.194,-0.672 0.194,-1.201l-0,-0.441Z" style="fill:#fff;fill-rule:nonzero;"/><path d="M66.072,17.253l0,-7.089l1.075,-0l0,0.994c0.223,-0.347 0.519,-0.626 0.888,-0.837c0.369,-0.212 0.79,-0.317 1.262,-0.317c0.525,-0 0.955,0.109 1.291,0.327c0.336,0.218 0.573,0.523 0.711,0.914c0.561,-0.828 1.291,-1.241 2.19,-1.241c0.703,-0 1.244,0.194 1.622,0.584c0.378,0.389 0.568,0.989 0.568,1.799l-0,4.866l-1.195,0l-0,-4.466c-0,-0.48 -0.039,-0.826 -0.117,-1.038c-0.078,-0.211 -0.219,-0.381 -0.424,-0.51c-0.205,-0.13 -0.445,-0.194 -0.721,-0.194c-0.498,-0 -0.912,0.166 -1.242,0.497c-0.329,0.332 -0.494,0.863 -0.494,1.592l0,4.119l-1.201,0l-0,-4.606c-0,-0.534 -0.098,-0.935 -0.294,-1.202c-0.196,-0.267 -0.516,-0.4 -0.961,-0.4c-0.339,-0 -0.651,0.089 -0.938,0.267c-0.287,0.178 -0.495,0.438 -0.624,0.781c-0.129,0.343 -0.194,0.837 -0.194,1.482l-0,3.678l-1.202,0Z" style="fill:#fff;fill-rule:nonzero;"/><path d="M82.314,14.97l1.242,0.154c-0.196,0.725 -0.559,1.288 -1.088,1.689c-0.53,0.4 -1.206,0.6 -2.03,0.6c-1.037,0 -1.859,-0.319 -2.466,-0.958c-0.608,-0.638 -0.912,-1.534 -0.912,-2.686c0,-1.193 0.307,-2.119 0.922,-2.777c0.614,-0.659 1.41,-0.988 2.39,-0.988c0.947,-0 1.722,0.322 2.323,0.967c0.6,0.646 0.901,1.554 0.901,2.724c-0,0.071 -0.002,0.178 -0.007,0.321l-5.287,-0c0.045,0.778 0.265,1.375 0.661,1.789c0.396,0.414 0.89,0.62 1.482,0.62c0.441,0 0.817,-0.115 1.128,-0.347c0.312,-0.231 0.559,-0.6 0.741,-1.108Zm-3.945,-1.942l3.958,-0c-0.053,-0.597 -0.204,-1.044 -0.453,-1.342c-0.383,-0.463 -0.879,-0.694 -1.489,-0.694c-0.552,-0 -1.016,0.184 -1.392,0.554c-0.376,0.369 -0.584,0.863 -0.624,1.482Z" style="fill:#fff;fill-rule:nonzero;"/><path d="M84.584,15.137l1.188,-0.187c0.067,0.476 0.253,0.841 0.557,1.095c0.305,0.254 0.731,0.38 1.279,0.38c0.552,0 0.961,-0.112 1.228,-0.337c0.267,-0.224 0.401,-0.488 0.401,-0.791c-0,-0.271 -0.118,-0.485 -0.354,-0.641c-0.165,-0.106 -0.574,-0.242 -1.228,-0.407c-0.882,-0.222 -1.492,-0.415 -1.833,-0.577c-0.34,-0.163 -0.598,-0.387 -0.774,-0.674c-0.176,-0.288 -0.264,-0.605 -0.264,-0.952c0,-0.316 0.072,-0.608 0.217,-0.878c0.145,-0.269 0.342,-0.492 0.591,-0.67c0.187,-0.138 0.442,-0.255 0.764,-0.351c0.323,-0.096 0.669,-0.143 1.038,-0.143c0.557,-0 1.045,0.08 1.466,0.24c0.42,0.16 0.731,0.377 0.931,0.651c0.2,0.273 0.338,0.639 0.414,1.098l-1.175,0.16c-0.054,-0.365 -0.208,-0.65 -0.464,-0.854c-0.256,-0.205 -0.618,-0.307 -1.085,-0.307c-0.552,-0 -0.946,0.091 -1.182,0.273c-0.235,0.183 -0.353,0.396 -0.353,0.641c-0,0.156 0.049,0.296 0.147,0.421c0.097,0.129 0.251,0.236 0.46,0.32c0.12,0.045 0.474,0.147 1.062,0.307c0.85,0.227 1.443,0.413 1.779,0.558c0.336,0.144 0.599,0.354 0.791,0.63c0.191,0.276 0.287,0.619 0.287,1.028c-0,0.401 -0.117,0.778 -0.351,1.132c-0.233,0.354 -0.571,0.627 -1.011,0.821c-0.441,0.194 -0.939,0.29 -1.495,0.29c-0.922,0 -1.624,-0.191 -2.107,-0.574c-0.482,-0.382 -0.791,-0.95 -0.924,-1.702Z" style="fill:#fff;fill-rule:nonzero;"/><path d="M51.125,23.616l1.879,-4.893l0.697,0l2.003,4.893l-0.737,0l-0.571,-1.482l-2.046,0l-0.538,1.482l-0.687,0Zm1.412,-2.009l1.658,-0l-0.51,-1.355c-0.156,-0.412 -0.272,-0.75 -0.347,-1.015c-0.063,0.314 -0.151,0.625 -0.264,0.935l-0.537,1.435Z" style="fill:#fff;fill-rule:nonzero;"/><rect x="56.332" y="18.723" width="0.648" height="4.893" style="fill:#fff;fill-rule:nonzero;"/><rect x="57.81" y="21.544" width="1.846" height="0.604" style="fill:#fff;fill-rule:nonzero;"/><path d="M60.32,24.975l0,-4.903l0.548,-0l-0,0.46c0.129,-0.18 0.275,-0.315 0.437,-0.405c0.162,-0.09 0.359,-0.136 0.591,-0.136c0.302,0 0.569,0.078 0.801,0.234c0.231,0.156 0.406,0.376 0.524,0.659c0.118,0.284 0.177,0.595 0.177,0.933c-0,0.363 -0.065,0.69 -0.195,0.98c-0.131,0.29 -0.32,0.513 -0.568,0.667c-0.248,0.155 -0.509,0.232 -0.783,0.232c-0.2,0 -0.38,-0.042 -0.539,-0.126c-0.159,-0.085 -0.289,-0.192 -0.392,-0.321l0,1.726l-0.601,-0Zm0.544,-3.111c0,0.456 0.093,0.793 0.277,1.011c0.185,0.218 0.409,0.327 0.671,0.327c0.267,0 0.496,-0.112 0.686,-0.338c0.191,-0.226 0.286,-0.576 0.286,-1.05c-0,-0.452 -0.093,-0.79 -0.279,-1.015c-0.186,-0.225 -0.408,-0.337 -0.666,-0.337c-0.256,0 -0.482,0.12 -0.679,0.359c-0.197,0.239 -0.296,0.587 -0.296,1.043Z" style="fill:#fff;fill-rule:nonzero;"/><path d="M63.898,21.844c0,-0.656 0.183,-1.143 0.548,-1.459c0.305,-0.262 0.676,-0.394 1.115,-0.394c0.487,0 0.885,0.16 1.195,0.479c0.309,0.32 0.464,0.761 0.464,1.324c-0,0.456 -0.069,0.815 -0.206,1.076c-0.137,0.262 -0.336,0.465 -0.597,0.609c-0.262,0.145 -0.547,0.217 -0.856,0.217c-0.497,0 -0.898,-0.159 -1.204,-0.477c-0.306,-0.318 -0.459,-0.776 -0.459,-1.375Zm0.618,-0c-0,0.454 0.099,0.794 0.297,1.02c0.198,0.226 0.447,0.338 0.748,0.338c0.298,0 0.546,-0.113 0.744,-0.34c0.198,-0.227 0.297,-0.573 0.297,-1.038c0,-0.438 -0.099,-0.771 -0.299,-0.996c-0.199,-0.226 -0.446,-0.339 -0.742,-0.339c-0.301,-0 -0.55,0.112 -0.748,0.337c-0.198,0.225 -0.297,0.564 -0.297,1.018Z" style="fill:#fff;fill-rule:nonzero;"/><path d="M68.578,23.616l-1.085,-3.544l0.621,-0l0.564,2.046l0.21,0.761c0.009,-0.038 0.071,-0.282 0.184,-0.731l0.564,-2.076l0.618,-0l0.53,2.056l0.177,0.677l0.204,-0.684l0.607,-2.049l0.584,-0l-1.108,3.544l-0.624,0l-0.564,-2.123l-0.137,-0.604l-0.717,2.727l-0.628,0Z" style="fill:#fff;fill-rule:nonzero;"/><path d="M75.287,22.475l0.621,0.077c-0.098,0.362 -0.279,0.644 -0.544,0.844c-0.265,0.2 -0.603,0.3 -1.015,0.3c-0.518,0 -0.929,-0.159 -1.233,-0.479c-0.304,-0.319 -0.456,-0.767 -0.456,-1.343c0,-0.596 0.154,-1.059 0.461,-1.389c0.307,-0.329 0.705,-0.494 1.195,-0.494c0.474,0 0.861,0.162 1.161,0.484c0.301,0.323 0.451,0.777 0.451,1.362c-0,0.036 -0.001,0.089 -0.003,0.161l-2.644,-0c0.022,0.389 0.132,0.687 0.33,0.894c0.199,0.207 0.446,0.31 0.741,0.31c0.221,0 0.409,-0.057 0.565,-0.173c0.155,-0.116 0.279,-0.301 0.37,-0.554Zm-1.973,-0.971l1.98,-0c-0.027,-0.299 -0.103,-0.522 -0.227,-0.671c-0.192,-0.232 -0.44,-0.348 -0.745,-0.348c-0.276,0 -0.507,0.093 -0.696,0.278c-0.188,0.184 -0.292,0.431 -0.312,0.741Z" style="fill:#fff;fill-rule:nonzero;"/><path d="M76.656,23.616l-0,-3.544l0.54,-0l0,0.537c0.138,-0.251 0.266,-0.417 0.382,-0.497c0.117,-0.08 0.246,-0.121 0.386,-0.121c0.202,0 0.408,0.065 0.617,0.194l-0.206,0.557c-0.147,-0.086 -0.294,-0.13 -0.441,-0.13c-0.131,0 -0.249,0.04 -0.354,0.119c-0.104,0.079 -0.179,0.188 -0.224,0.329c-0.066,0.213 -0.1,0.447 -0.1,0.701l0,1.855l-0.6,0Z" style="fill:#fff;fill-rule:nonzero;"/><path d="M81.365,22.475l0.621,0.077c-0.098,0.362 -0.279,0.644 -0.544,0.844c-0.265,0.2 -0.603,0.3 -1.015,0.3c-0.518,0 -0.929,-0.159 -1.233,-0.479c-0.304,-0.319 -0.456,-0.767 -0.456,-1.343c0,-0.596 0.154,-1.059 0.461,-1.389c0.307,-0.329 0.705,-0.494 1.195,-0.494c0.474,0 0.861,0.162 1.161,0.484c0.301,0.323 0.451,0.777 0.451,1.362c0,0.036 -0.001,0.089 -0.003,0.161l-2.644,-0c0.022,0.389 0.133,0.687 0.331,0.894c0.198,0.207 0.445,0.31 0.741,0.31c0.22,0 0.408,-0.057 0.564,-0.173c0.155,-0.116 0.279,-0.301 0.37,-0.554Zm-1.972,-0.971l1.979,-0c-0.027,-0.299 -0.103,-0.522 -0.227,-0.671c-0.191,-0.232 -0.44,-0.348 -0.744,-0.348c-0.276,0 -0.508,0.093 -0.696,0.278c-0.188,0.184 -0.292,0.431 -0.312,0.741Z" style="fill:#fff;fill-rule:nonzero;"/><path d="M85.04,23.616l0,-0.447c-0.225,0.352 -0.555,0.527 -0.991,0.527c-0.283,0 -0.543,-0.077 -0.78,-0.233c-0.237,-0.156 -0.42,-0.373 -0.55,-0.653c-0.131,-0.279 -0.196,-0.6 -0.196,-0.963c0,-0.354 0.059,-0.674 0.177,-0.963c0.118,-0.288 0.295,-0.509 0.531,-0.662c0.236,-0.154 0.5,-0.231 0.791,-0.231c0.214,0 0.404,0.046 0.571,0.136c0.167,0.09 0.302,0.207 0.407,0.352l0,-1.756l0.598,0l-0,4.893l-0.558,0Zm-1.899,-1.769c-0,0.454 0.096,0.794 0.287,1.018c0.191,0.225 0.417,0.337 0.678,0.337c0.262,0 0.485,-0.107 0.669,-0.322c0.183,-0.214 0.275,-0.542 0.275,-0.983c0,-0.485 -0.093,-0.841 -0.28,-1.068c-0.187,-0.227 -0.417,-0.34 -0.691,-0.34c-0.267,-0 -0.49,0.109 -0.669,0.327c-0.18,0.218 -0.269,0.562 -0.269,1.031Z" style="fill:#fff;fill-rule:nonzero;"/><path d="M89.64,23.616l-0,-4.315l-1.613,-0l0,-0.578l3.879,0l-0,0.578l-1.619,-0l0,4.315l-0.647,0Z" style="fill:#fff;fill-rule:nonzero;"/><path d="M91.512,21.844c0,-0.656 0.183,-1.143 0.547,-1.459c0.305,-0.262 0.677,-0.394 1.115,-0.394c0.488,0 0.886,0.16 1.195,0.479c0.31,0.32 0.464,0.761 0.464,1.324c0,0.456 -0.068,0.815 -0.205,1.076c-0.137,0.262 -0.336,0.465 -0.598,0.609c-0.261,0.145 -0.546,0.217 -0.856,0.217c-0.496,0 -0.897,-0.159 -1.203,-0.477c-0.306,-0.318 -0.459,-0.776 -0.459,-1.375Zm0.618,-0c-0,0.454 0.099,0.794 0.297,1.02c0.198,0.226 0.447,0.338 0.747,0.338c0.298,0 0.547,-0.113 0.745,-0.34c0.198,-0.227 0.297,-0.573 0.297,-1.038c-0,-0.438 -0.1,-0.771 -0.299,-0.996c-0.199,-0.226 -0.447,-0.339 -0.743,-0.339c-0.3,-0 -0.549,0.112 -0.747,0.337c-0.198,0.225 -0.297,0.564 -0.297,1.018Z" style="fill:#fff;fill-rule:nonzero;"/><rect x="95.304" y="21.544" width="1.846" height="0.604" style="fill:#fff;fill-rule:nonzero;"/><path d="M97.891,23.616l-0,-4.893l1.685,0c0.381,0 0.671,0.023 0.871,0.07c0.281,0.065 0.52,0.182 0.718,0.351c0.258,0.218 0.451,0.496 0.579,0.836c0.128,0.339 0.192,0.727 0.192,1.163c0,0.372 -0.043,0.701 -0.13,0.988c-0.087,0.287 -0.198,0.525 -0.334,0.713c-0.136,0.188 -0.284,0.336 -0.445,0.444c-0.162,0.107 -0.357,0.189 -0.585,0.245c-0.228,0.056 -0.49,0.083 -0.786,0.083l-1.765,0Zm0.647,-0.577l1.045,-0c0.323,-0 0.576,-0.03 0.759,-0.09c0.184,-0.06 0.33,-0.145 0.439,-0.254c0.154,-0.153 0.273,-0.36 0.359,-0.619c0.086,-0.259 0.128,-0.574 0.128,-0.943c0,-0.512 -0.084,-0.905 -0.252,-1.18c-0.168,-0.275 -0.372,-0.459 -0.612,-0.552c-0.174,-0.067 -0.453,-0.1 -0.838,-0.1l-1.028,-0l0,3.738Z" style="fill:#fff;fill-rule:nonzero;"/><path d="M102.527,21.844c-0,-0.656 0.182,-1.143 0.547,-1.459c0.305,-0.262 0.677,-0.394 1.115,-0.394c0.487,0 0.886,0.16 1.195,0.479c0.309,0.32 0.464,0.761 0.464,1.324c-0,0.456 -0.068,0.815 -0.205,1.076c-0.137,0.262 -0.336,0.465 -0.598,0.609c-0.261,0.145 -0.547,0.217 -0.856,0.217c-0.496,0 -0.897,-0.159 -1.203,-0.477c-0.306,-0.318 -0.459,-0.776 -0.459,-1.375Zm0.617,-0c0,0.454 0.099,0.794 0.297,1.02c0.198,0.226 0.448,0.338 0.748,0.338c0.298,0 0.546,-0.113 0.744,-0.34c0.198,-0.227 0.297,-0.573 0.297,-1.038c0,-0.438 -0.099,-0.771 -0.298,-0.996c-0.199,-0.226 -0.447,-0.339 -0.743,-0.339c-0.3,-0 -0.55,0.112 -0.748,0.337c-0.198,0.225 -0.297,0.564 -0.297,1.018Z" style="fill:#fff;fill-rule:nonzero;"/><path d="M110.765,23.179c-0.223,0.189 -0.437,0.323 -0.643,0.401c-0.206,0.078 -0.427,0.116 -0.663,0.116c-0.389,0 -0.688,-0.095 -0.897,-0.285c-0.21,-0.19 -0.314,-0.433 -0.314,-0.729c-0,-0.174 0.039,-0.332 0.118,-0.476c0.079,-0.143 0.183,-0.259 0.311,-0.345c0.128,-0.087 0.272,-0.153 0.432,-0.197c0.118,-0.031 0.296,-0.061 0.534,-0.09c0.485,-0.058 0.842,-0.127 1.071,-0.207c0.003,-0.083 0.004,-0.135 0.004,-0.157c-0,-0.245 -0.057,-0.417 -0.17,-0.518c-0.154,-0.135 -0.382,-0.203 -0.685,-0.203c-0.282,-0 -0.491,0.049 -0.626,0.148c-0.134,0.099 -0.234,0.275 -0.298,0.526l-0.588,-0.08c0.054,-0.251 0.142,-0.455 0.264,-0.609c0.122,-0.155 0.299,-0.274 0.531,-0.357c0.231,-0.084 0.499,-0.126 0.804,-0.126c0.303,0 0.549,0.036 0.738,0.107c0.189,0.072 0.328,0.161 0.417,0.269c0.089,0.108 0.151,0.244 0.187,0.409c0.02,0.102 0.03,0.287 0.03,0.554l-0,0.801c-0,0.559 0.013,0.912 0.038,1.06c0.026,0.148 0.077,0.29 0.152,0.425l-0.627,0c-0.063,-0.124 -0.103,-0.27 -0.12,-0.437Zm-0.051,-1.342c-0.218,0.089 -0.545,0.165 -0.981,0.227c-0.247,0.036 -0.422,0.076 -0.524,0.12c-0.102,0.045 -0.181,0.11 -0.237,0.196c-0.055,0.085 -0.083,0.18 -0.083,0.285c-0,0.16 0.06,0.294 0.182,0.401c0.121,0.106 0.298,0.16 0.532,0.16c0.231,-0 0.437,-0.051 0.617,-0.152c0.181,-0.101 0.313,-0.24 0.398,-0.416c0.064,-0.135 0.096,-0.336 0.096,-0.6l0,-0.221Z" style="fill:#fff;fill-rule:nonzero;"/><path d="M112.253,24.975l0,-4.903l0.548,-0l-0,0.46c0.129,-0.18 0.274,-0.315 0.437,-0.405c0.162,-0.09 0.359,-0.136 0.591,-0.136c0.302,0 0.569,0.078 0.801,0.234c0.231,0.156 0.406,0.376 0.524,0.659c0.118,0.284 0.177,0.595 0.177,0.933c-0,0.363 -0.065,0.69 -0.196,0.98c-0.13,0.29 -0.319,0.513 -0.567,0.667c-0.248,0.155 -0.509,0.232 -0.783,0.232c-0.2,0 -0.38,-0.042 -0.539,-0.126c-0.159,-0.085 -0.29,-0.192 -0.392,-0.321l0,1.726l-0.601,-0Zm0.544,-3.111c0,0.456 0.093,0.793 0.277,1.011c0.185,0.218 0.409,0.327 0.671,0.327c0.267,0 0.496,-0.112 0.686,-0.338c0.19,-0.226 0.285,-0.576 0.285,-1.05c0,-0.452 -0.092,-0.79 -0.278,-1.015c-0.186,-0.225 -0.408,-0.337 -0.666,-0.337c-0.256,0 -0.482,0.12 -0.679,0.359c-0.197,0.239 -0.296,0.587 -0.296,1.043Z" style="fill:#fff;fill-rule:nonzero;"/><path d="M116.055,24.975l-0,-4.903l0.547,-0l0,0.46c0.129,-0.18 0.275,-0.315 0.438,-0.405c0.162,-0.09 0.359,-0.136 0.59,-0.136c0.303,0 0.57,0.078 0.801,0.234c0.232,0.156 0.407,0.376 0.525,0.659c0.117,0.284 0.176,0.595 0.176,0.933c0,0.363 -0.065,0.69 -0.195,0.98c-0.13,0.29 -0.319,0.513 -0.567,0.667c-0.248,0.155 -0.509,0.232 -0.783,0.232c-0.2,0 -0.38,-0.042 -0.539,-0.126c-0.159,-0.085 -0.29,-0.192 -0.392,-0.321l-0,1.726l-0.601,-0Zm0.544,-3.111c0,0.456 0.092,0.793 0.277,1.011c0.185,0.218 0.408,0.327 0.671,0.327c0.267,0 0.496,-0.112 0.686,-0.338c0.19,-0.226 0.285,-0.576 0.285,-1.05c0,-0.452 -0.093,-0.79 -0.278,-1.015c-0.186,-0.225 -0.408,-0.337 -0.666,-0.337c-0.256,0 -0.483,0.12 -0.68,0.359c-0.197,0.239 -0.295,0.587 -0.295,1.043Z" style="fill:#fff;fill-rule:nonzero;"/></svg>