<?xml version="1.0" encoding="UTF-8"?> <svg xmlns="http://www.w3.org/2000/svg" width="130" height="37" viewBox="0 0 130 37" fill="none"> <path d="M105.79 13.102C106.739 12.9946 107.601 12.8268 108.483 12.8134C109.295 12.7668 110.108 12.8858 110.872 13.1632C111.636 13.4405 112.336 13.8704 112.928 14.4264C113.519 14.9824 113.991 15.6529 114.314 16.397C114.637 17.141 114.804 17.9429 114.806 18.7535C114.865 19.6208 114.808 20.492 114.637 21.3444C114.052 23.9822 112.025 25.6938 109.129 26.1435C107.473 26.3919 105.789 26.3919 104.133 26.1435C102.699 25.9422 102.113 25.2307 102.113 23.7876V8.38338C102.096 8.06024 102.166 7.7384 102.315 7.45085C102.464 7.16329 102.686 6.92034 102.96 6.74688C103.234 6.57341 103.55 6.47567 103.874 6.46366C104.199 6.45165 104.52 6.5258 104.807 6.67852C105.132 6.82154 105.405 7.06018 105.591 7.36247C105.776 7.66477 105.864 8.01629 105.844 8.36996V13.0684L105.79 13.102ZM105.79 19.7603C105.79 20.7604 105.79 21.774 105.79 22.7606C105.79 23.0962 105.904 23.2372 106.234 23.2372C106.679 23.2372 107.13 23.2842 107.581 23.2372C108.43 23.2546 109.254 22.9517 109.888 22.3891C110.522 21.8265 110.92 21.0458 111.001 20.2033C111.311 18.2703 110.328 16.5587 108.712 16.0754C107.896 15.8791 107.041 15.9093 106.241 16.1627C106.173 16.1708 106.107 16.1926 106.048 16.2267C105.989 16.2608 105.937 16.3066 105.896 16.3612C105.856 16.4158 105.826 16.4781 105.81 16.5444C105.794 16.6106 105.792 16.6794 105.803 16.7466C105.796 17.7601 105.79 18.7535 105.79 19.7603V19.7603Z" fill="#131313"></path> <path d="M123.472 21.9082C123.893 20.615 124.32 19.3196 124.751 18.0219C125.155 16.7735 125.552 15.5183 125.983 14.2766C126.092 13.8424 126.344 13.4568 126.697 13.1809C127.051 12.905 127.487 12.7544 127.936 12.7529C128.249 12.7374 128.561 12.7965 128.846 12.9255C129.131 13.0546 129.382 13.2497 129.576 13.4946C129.77 13.7396 129.903 14.0273 129.963 14.3337C130.024 14.6402 130.009 14.9566 129.922 15.2565C129.538 16.5318 129.027 17.7668 128.575 19.0153C127.61 21.5883 126.643 24.1545 125.673 26.714C125.063 28.5177 123.946 30.1087 122.455 31.2984C121.327 32.1625 119.945 32.6341 118.522 32.6408C118.223 32.6564 117.925 32.5964 117.655 32.4661C117.385 32.3359 117.152 32.1397 116.979 31.8959C116.806 31.6521 116.697 31.3685 116.663 31.0716C116.629 30.7747 116.671 30.474 116.785 30.1976C116.911 29.8637 117.14 29.5781 117.439 29.3816C117.737 29.1851 118.091 29.0878 118.448 29.1035C119.047 29.1086 119.635 28.9506 120.15 28.6466C120.665 28.3426 121.087 27.9041 121.371 27.3785C121.465 27.2438 121.519 27.0852 121.526 26.9212C121.533 26.7572 121.493 26.5946 121.411 26.4523C119.802 22.9687 118.192 19.4918 116.624 15.9881C116.384 15.4769 116.277 14.9136 116.314 14.3504C116.374 13.9678 116.554 13.6137 116.827 13.338C117.1 13.0623 117.453 12.8788 117.836 12.8133C118.248 12.7212 118.679 12.7604 119.068 12.9254C119.457 13.0903 119.784 13.3728 120.004 13.7329C120.147 13.969 120.266 14.2186 120.361 14.4779C121.258 16.7556 122.156 19.0287 123.054 21.2974C123.135 21.4988 123.229 21.7001 123.317 21.9015L123.472 21.9082Z" fill="#131313"></path> <path d="M50.7366 20.6802C50.8019 21.441 51.1617 22.1467 51.7398 22.6478C52.3179 23.1489 53.069 23.4061 53.834 23.365C54.6977 23.2978 55.5526 23.1449 56.3859 22.9086C56.6755 22.8482 56.9381 22.6871 57.2209 22.5998C57.527 22.4752 57.8685 22.4672 58.1802 22.5773C58.4919 22.6875 58.752 22.9081 58.911 23.1972C59.0992 23.4905 59.1729 23.8424 59.1183 24.1862C59.0637 24.5301 58.8846 24.8421 58.6147 25.0631C58.1953 25.3801 57.7298 25.6313 57.2344 25.8082C55.4682 26.4271 53.5604 26.525 51.7399 26.0901C50.4011 25.7952 49.1956 25.0724 48.3071 24.0315C47.4185 22.9907 46.8955 21.6889 46.8177 20.3244C46.699 19.1936 46.8183 18.0506 47.1678 16.9684C47.5541 15.7859 48.2993 14.7523 49.3005 14.0104C50.3017 13.2685 51.5094 12.855 52.7566 12.827C53.7774 12.785 54.7988 12.8959 55.7867 13.1559C56.9969 13.5015 58.0475 14.2587 58.756 15.296C59.4645 16.3333 59.7862 17.5852 59.6651 18.8343C59.6816 19.0874 59.6421 19.341 59.5494 19.5772C59.4568 19.8133 59.3132 20.0264 59.1289 20.2011C58.9445 20.3759 58.7239 20.5082 58.4827 20.5887C58.2414 20.6691 57.9854 20.6958 57.7326 20.6667C55.6116 20.6667 53.4906 20.6667 51.3695 20.6667L50.7366 20.6802ZM55.9954 18.19C55.9913 17.8527 55.919 17.5198 55.7829 17.211C55.6469 16.9022 55.4498 16.6239 55.2034 16.3928C54.957 16.1616 54.6665 15.9823 54.349 15.8655C54.0316 15.7488 53.6938 15.697 53.3559 15.7132C52.6803 15.7022 52.0273 15.9552 51.5365 16.4181C51.0457 16.881 50.7561 17.517 50.7298 18.19H55.9954Z" fill="#131313"></path> <path d="M98.497 18.0824C98.497 19.1564 98.5441 20.237 98.497 21.311C98.4846 22.4073 98.1017 23.4675 97.4101 24.3201C96.7185 25.1727 95.7587 25.7678 94.6858 26.0094C92.9897 26.4792 91.1972 26.4792 89.5011 26.0094C88.3823 25.7418 87.3911 25.0959 86.6962 24.1817C86.0013 23.2675 85.6457 22.1416 85.69 20.9955C85.6361 18.8678 85.69 16.7333 85.69 14.6056C85.709 14.1478 85.8976 13.7132 86.2192 13.3859C86.5409 13.0585 86.9729 12.8617 87.4317 12.8333C87.8905 12.8049 88.3436 12.9471 88.7034 13.2322C89.0632 13.5174 89.3042 13.9254 89.3799 14.3774C89.4327 15.0069 89.4484 15.6389 89.427 16.2702C89.427 17.6596 89.427 19.0557 89.427 20.4451C89.4809 22.5191 90.9555 23.6065 92.9823 23.0897C94.1539 22.7943 94.8071 21.8949 94.8273 20.4451C94.8273 18.5187 94.8273 16.5924 94.8273 14.6593C94.8125 14.2666 94.9306 13.8803 95.1626 13.5625C95.3947 13.2448 95.7271 13.0141 96.1066 12.9074C96.478 12.7739 96.8834 12.7673 97.2589 12.8889C97.6344 13.0104 97.9587 13.2531 98.1805 13.5786C98.4002 13.9598 98.5249 14.3879 98.5441 14.8271C98.5913 15.9212 98.5441 17.0152 98.5441 18.1093L98.497 18.0824Z" fill="#131313"></path> <path d="M66.8904 15.9815C66.8681 16.0743 66.8524 16.1684 66.8432 16.2634C66.8432 18.0421 66.8432 19.8275 66.8432 21.633C66.8432 22.9755 67.7994 23.5057 69.0249 22.9755C69.3077 22.8412 69.5838 22.6667 69.8666 22.5392C70.1487 22.3904 70.4728 22.3406 70.7867 22.3978C71.1006 22.455 71.3861 22.616 71.5971 22.8546C71.8178 23.1101 71.9443 23.4332 71.9553 23.7703C71.9663 24.1073 71.8613 24.4379 71.6577 24.7072C71.3604 25.0835 70.9921 25.3981 70.5736 25.6334C69.2342 26.3574 67.6773 26.5744 66.1901 26.2442C64.2576 25.8281 63.1264 24.3045 63.0927 22.1029C63.0927 20.3108 63.0927 18.5119 63.0927 16.7332V16.0956C62.3386 16.0218 61.5306 16.203 61.0727 15.4915C60.885 15.2001 60.7781 14.8643 60.7629 14.5183C60.7629 13.5786 61.2343 13.2899 63.0994 13.0684V11.3032C63.077 11.0473 63.1083 10.7895 63.1912 10.5463C63.274 10.303 63.4068 10.0796 63.5809 9.89028C63.755 9.70092 63.9668 9.54973 64.2027 9.44631C64.4386 9.34289 64.6934 9.28951 64.9512 9.28955C65.2102 9.28988 65.4664 9.34323 65.7039 9.44629C65.9415 9.54936 66.1552 9.69995 66.332 9.88873C66.5087 10.0775 66.6447 10.3005 66.7315 10.5438C66.8183 10.7871 66.854 11.0455 66.8365 11.3032C66.8365 11.8603 66.8365 12.4174 66.8365 13.0617C67.6782 13.0617 68.4862 13.0617 69.2942 13.0617C69.4955 13.0457 69.6978 13.071 69.8889 13.136C70.0799 13.2011 70.2554 13.3046 70.4047 13.4401C70.554 13.5755 70.6738 13.7401 70.7566 13.9236C70.8395 14.1071 70.8837 14.3056 70.8864 14.5068C70.8892 14.708 70.8505 14.9076 70.7727 15.0933C70.6949 15.279 70.5798 15.4468 70.4343 15.5863C70.2888 15.7258 70.1161 15.8341 69.927 15.9044C69.7378 15.9746 69.5362 16.0055 69.3346 15.9949C68.5334 16.0016 67.7388 15.9815 66.8904 15.9815Z" fill="#131313"></path> <path d="M43.7686 20.7601C43.7686 22.7268 43.7686 24.6934 43.7686 26.66C43.7647 28.0958 43.4136 29.5095 42.7452 30.7813C42.5077 31.3129 42.1395 31.7763 41.6745 32.1283C41.2096 32.4803 40.663 32.7096 40.0854 32.7949C39.5339 32.8564 38.9757 32.7874 38.4559 32.5935C38.239 32.5129 38.0466 32.3779 37.8973 32.2016C37.748 32.0253 37.6468 31.8135 37.6034 31.5868C37.5601 31.3602 37.5762 31.1262 37.65 30.9075C37.7238 30.6887 37.853 30.4927 38.025 30.3383C38.0209 30.3252 38.0209 30.3111 38.025 30.298C39.7892 29.11 40.045 27.338 40.045 25.4049C40.045 21.8408 40.045 18.2901 40.045 14.726C40.0272 14.2338 40.2062 13.7546 40.5427 13.394C40.8793 13.0334 41.3457 12.8208 41.8395 12.803C42.3333 12.7852 42.8139 12.9636 43.1757 13.2991C43.5375 13.6345 43.7508 14.0995 43.7686 14.5917C43.7686 16.6456 43.7686 18.7062 43.7686 20.7601Z" fill="#131313"></path> <path d="M77.4751 14.2031C78.0833 13.4896 78.9254 13.014 79.852 12.8606C80.8668 12.6752 81.9146 12.8187 82.8417 13.2701C83.108 13.3831 83.3468 13.5519 83.542 13.765C83.7371 13.9781 83.8841 14.2305 83.9729 14.5051C84.0784 14.8144 84.0932 15.1473 84.0157 15.4647C83.9382 15.7821 83.7715 16.0709 83.5352 16.2972C83.3047 16.5168 83.0136 16.6628 82.6994 16.7167C82.3851 16.7705 82.0619 16.7296 81.771 16.5993C81.293 16.4006 80.8027 16.2325 80.3032 16.0959C79.8259 15.9801 79.3227 16.0417 78.8877 16.269C78.4527 16.4963 78.1157 16.8738 77.9397 17.3309C77.6813 17.9731 77.5312 18.6535 77.4953 19.3445C77.4347 20.9755 77.4953 22.6066 77.4953 24.2443C77.5166 24.5042 77.4839 24.7656 77.3995 25.0124C77.315 25.2592 77.1804 25.4859 77.0042 25.6786C76.8279 25.8713 76.6138 26.0257 76.3751 26.1323C76.1364 26.2389 75.8782 26.2954 75.6167 26.2982C75.3579 26.2979 75.1019 26.2446 74.8648 26.1414C74.6276 26.0383 74.4142 25.8876 74.238 25.6987C74.0618 25.5098 73.9264 25.2868 73.8404 25.0435C73.7544 24.8002 73.7195 24.5419 73.738 24.2846V14.9414C73.738 13.7869 74.243 13.0553 75.179 12.8405C76.1149 12.6257 76.8826 13.0486 77.3943 14.0822C77.4239 14.1257 77.4577 14.1662 77.4953 14.2031H77.4751Z" fill="#131313"></path> <path d="M39.7277 7.23559C39.7386 6.92019 39.8193 6.61109 39.964 6.33041C40.1087 6.04973 40.3139 5.8044 40.5648 5.61199C40.8157 5.41958 41.1062 5.28484 41.4155 5.21741C41.7248 5.14999 42.0452 5.15154 42.3538 5.22196C42.771 5.31081 43.1514 5.52379 43.4446 5.83276C43.7398 6.13914 43.9366 6.52636 44.0098 6.94487C44.0829 7.36337 44.0292 7.79412 43.8553 8.18199C43.6961 8.5553 43.4318 8.87468 43.0945 9.10154C42.7368 9.32853 42.3198 9.44527 41.8959 9.43715C41.322 9.42086 40.7776 9.17969 40.3809 8.76594C40.1757 8.56671 40.0123 8.32883 39.9002 8.06611C39.7881 7.8034 39.7294 7.52108 39.7277 7.23559V7.23559Z" fill="#131313"></path> <path d="M20.3018 0L21.0964 0.221498C22.1106 0.492773 23.007 1.08938 23.6472 1.91918C24.2873 2.74897 24.6356 3.76578 24.6382 4.81256C24.6382 11.3166 24.6382 17.834 24.6382 24.338C24.5705 27.3025 23.4205 30.1406 21.4036 32.3204C19.3868 34.5001 16.6416 35.8717 13.6828 36.1781C10.5392 36.4703 7.40309 35.5472 4.92295 33.5996C2.44281 31.6521 0.808274 28.8289 0.357305 25.7139C0.255041 24.8655 0.210051 24.0111 0.222636 23.1566C0.20567 23.035 0.214272 22.9111 0.247894 22.7929C0.281516 22.6748 0.339424 22.5648 0.417941 22.4702C0.496457 22.3755 0.593866 22.2981 0.703982 22.243C0.814098 22.1878 0.934514 22.1561 1.05758 22.1498C1.18271 22.1328 1.31003 22.1423 1.43121 22.1777C1.55238 22.2132 1.66466 22.2738 1.76068 22.3556C1.8567 22.4373 1.93429 22.5384 1.98834 22.6522C2.0424 22.766 2.07171 22.8898 2.07434 23.0157C2.19554 23.7473 2.57935 24.1031 3.19883 24.0561C3.8183 24.0091 4.12131 23.5862 4.12804 22.8815C4.12804 21.68 4.12804 20.4718 4.12804 19.2704C4.09909 19.0497 4.15136 18.8261 4.27518 18.641C4.399 18.4559 4.58595 18.3218 4.80139 18.2635C4.9356 18.2218 5.07789 18.2126 5.21639 18.2367C5.35489 18.2609 5.4856 18.3177 5.59761 18.4024C5.70962 18.4871 5.79968 18.5973 5.8603 18.7238C5.92092 18.8502 5.95033 18.9893 5.94608 19.1294C5.94608 19.7402 5.94608 20.3577 5.94608 20.9685C5.93128 21.1133 5.94618 21.2597 5.98987 21.3986C6.03356 21.5375 6.10513 21.6661 6.20023 21.7766C6.29533 21.8871 6.41197 21.9771 6.54306 22.0413C6.67416 22.1055 6.81698 22.1424 6.96283 22.1498C7.52844 22.1901 7.93245 21.7941 8.04018 21.1095C8.05583 20.8566 8.17043 20.62 8.35932 20.4505C8.54822 20.2811 8.79631 20.1923 9.0502 20.2033C9.17615 20.2124 9.29893 20.2469 9.41104 20.3048C9.52315 20.3627 9.62225 20.4428 9.70228 20.5402C9.7823 20.6375 9.84159 20.7501 9.8765 20.8711C9.91142 20.992 9.92123 21.1188 9.90535 21.2437C9.90535 22.1096 9.90535 22.9821 9.90535 23.8547C9.87399 24.2037 9.91587 24.5554 10.0283 24.8874C10.1408 25.2194 10.3214 25.5244 10.5586 25.783C10.7958 26.0416 11.0845 26.2481 11.4062 26.3894C11.7278 26.5307 12.0755 26.6036 12.427 26.6036C12.7786 26.6036 13.1262 26.5307 13.4479 26.3894C13.7696 26.2481 14.0582 26.0416 14.2954 25.783C14.5327 25.5244 14.7133 25.2194 14.8257 24.8874C14.9382 24.5554 14.9801 24.2037 14.9487 23.8547C14.9487 17.5543 14.9487 11.2494 14.9487 4.94009C14.9585 3.868 15.3198 2.82853 15.9775 1.98022C16.6352 1.13191 17.5532 0.52134 18.5915 0.241635L19.2649 0.0469845L20.3018 0Z" fill="#FF562D"></path> <path d="M6.20155 15.2967C6.20119 15.448 6.17064 15.5977 6.11168 15.7371C6.05273 15.8766 5.96654 16.0029 5.85814 16.1088C5.75485 16.2148 5.63134 16.299 5.49489 16.3567C5.35843 16.4143 5.21179 16.4442 5.06359 16.4444C4.76305 16.4329 4.47783 16.3092 4.26454 16.0979C4.05124 15.8865 3.92547 15.6029 3.91217 15.3034C3.92136 15.1417 3.96498 14.9838 4.04011 14.8403C4.09907 14.701 4.18617 14.5753 4.29598 14.4711C4.40685 14.3654 4.53789 14.2831 4.68132 14.2289C4.82475 14.1747 4.97765 14.1498 5.13093 14.1556C5.27914 14.1541 5.42601 14.1838 5.56187 14.2429C5.70048 14.297 5.82485 14.3819 5.92548 14.4912C6.02628 14.5987 6.1062 14.7239 6.16115 14.8604C6.20417 15.0016 6.21792 15.15 6.20155 15.2967V15.2967Z" fill="#FF562D"></path> <path d="M10.1 17.2501C10.1015 17.3978 10.0717 17.5442 10.0124 17.6797C9.95819 17.8178 9.87297 17.9418 9.76329 18.0421C9.65904 18.1471 9.53248 18.2274 9.39295 18.277C9.25368 18.3313 9.1047 18.3564 8.95528 18.3509C8.65803 18.3463 8.37377 18.2287 8.16073 18.022C7.94668 17.813 7.82338 17.5286 7.81732 17.23C7.82633 16.922 7.95702 16.6301 8.18093 16.4178C8.41046 16.2096 8.71242 16.0988 9.02261 16.1091C9.32022 16.1246 9.6002 16.2545 9.80369 16.4715C9.9979 16.6842 10.1038 16.9625 10.1 17.2501V17.2501Z" fill="#FF562D"></path> <path d="M1.22549 18.0557C1.37462 18.0642 1.52081 18.1007 1.65643 18.1631C1.78971 18.2287 1.90869 18.32 2.00657 18.4315C2.10582 18.5402 2.18147 18.6682 2.22878 18.8074C2.27562 18.9479 2.29617 19.0958 2.28938 19.2437C2.2703 19.5423 2.135 19.8217 1.9123 20.0223C1.69152 20.2265 1.39854 20.3351 1.09756 20.3243C0.798364 20.3039 0.518591 20.1693 0.316474 19.9485C0.112619 19.7295 -0.000459864 19.4417 1.40566e-06 19.143C0.0079105 18.9921 0.0444686 18.8441 0.107737 18.7067C0.175731 18.5675 0.269383 18.4423 0.383809 18.3376C0.50021 18.2435 0.632442 18.1708 0.77435 18.1228C0.91966 18.0752 1.07303 18.0569 1.22549 18.0691V18.0557Z" fill="#FF562D"></path> </svg> 