<svg width="7456" height="1592" viewBox="0 0 7456 1592" fill="none" xmlns="http://www.w3.org/2000/svg">
<path d="M1236 1402C1256 1432.67 1276.67 1457.33 1298 1476C1319.33 1494.67 1346.67 1510.67 1380 1524V1564C1286.67 1560 1182.67 1558 1068 1558C980 1558 895.333 1560 814 1564V1524C851.333 1521.33 878 1517.33 894 1512C911.333 1506.67 920 1497.33 920 1484C920 1473.33 912.667 1456.67 898 1434L608 964C581.333 921.333 558.667 892.667 540 878C522.667 863.333 498.667 854.667 468 852V1352C468 1402.67 471.333 1439.33 478 1462C486 1484.67 500 1500 520 1508C540 1516 572.667 1521.33 618 1524V1564C546 1560 445.333 1558 316 1558C173.333 1558 68 1560 3.69549e-06 1564V1524C44 1521.33 76 1516 96 1508C117.333 1500 131.333 1484.67 138 1462C146 1439.33 150 1402.67 150 1352V360C150 309.333 146 272.667 138 250C131.333 227.333 117.333 212 96 204C76 196 44 190.667 3.69549e-06 188V148C68 152 173.333 154 316 154C445.333 154 546 152 618 148V188C572.667 190.667 540 196 520 204C500 212 486 227.333 478 250C471.333 272.667 468 309.333 468 360V810C521.333 807.333 570 791.333 614 762C658 732.667 708 686 764 622L882 480C943.333 409.333 974 347.333 974 294C974 262 960.667 236.667 934 218C908.667 199.333 872.667 188.667 826 186V148C923.333 152 1022 154 1122 154C1199.33 154 1262 152 1310 148V186C1203.33 211.333 1106.67 275.333 1020 378L770 676L1236 1402ZM1667.73 13.9999C1723.73 13.9999 1767.73 27.9999 1799.73 56C1833.07 82.6666 1849.73 120 1849.73 168C1849.73 216 1833.07 254 1799.73 282C1767.73 308.667 1723.73 322 1667.73 322C1611.73 322 1567.07 308.667 1533.73 282C1501.73 254 1485.73 216 1485.73 168C1485.73 120 1501.73 82.6666 1533.73 56C1567.07 27.9999 1611.73 13.9999 1667.73 13.9999ZM1823.73 1378C1823.73 1432.67 1833.07 1470.67 1851.73 1492C1871.73 1512 1905.07 1522 1951.73 1522V1564C1818.4 1558.67 1729.73 1556 1685.73 1556C1644.4 1556 1551.73 1558.67 1407.73 1564V1522C1455.73 1522 1489.07 1512 1507.73 1492C1526.4 1470.67 1535.73 1432.67 1535.73 1378V748C1535.73 686.667 1526.4 642 1507.73 614C1489.07 586 1455.73 572 1407.73 572V530C1450.4 534 1491.73 536 1531.73 536C1650.4 536 1747.73 526.667 1823.73 508V1378ZM2444.59 530H2680.59V570H2444.59V1378C2444.59 1418 2451.26 1446.67 2464.59 1464C2479.26 1480 2501.93 1488 2532.59 1488C2589.93 1488 2635.26 1448 2668.59 1368L2702.59 1386C2651.93 1523.33 2560.59 1592 2428.59 1592C2340.59 1592 2273.93 1569.33 2228.59 1524C2200.59 1496 2181.26 1461.33 2170.59 1420C2161.26 1377.33 2156.59 1319.33 2156.59 1246V570H1988.59V530H2156.59V266C2267.26 266 2363.26 244.667 2444.59 202V530ZM3253.91 502C3303.24 502 3349.91 507.333 3393.91 518C3437.91 528.667 3474.57 543.333 3503.91 562C3538.57 583.333 3565.24 610.667 3583.91 644C3603.91 676 3613.91 711.333 3613.91 750C3613.91 796.667 3599.24 835.333 3569.91 866C3540.57 895.333 3502.57 910 3455.91 910C3409.24 910 3371.91 896.667 3343.91 870C3315.91 843.333 3301.91 807.333 3301.91 762C3301.91 722 3314.57 687.333 3339.91 658C3365.24 628.667 3396.57 608.667 3433.91 598C3423.24 583.333 3406.57 572 3383.91 564C3362.57 554.667 3339.24 550 3313.91 550C3233.91 550 3171.24 594 3125.91 682C3081.91 768.667 3059.91 882.667 3059.91 1024C3059.91 1166.67 3085.24 1269.33 3135.91 1332C3186.57 1394.67 3249.91 1426 3325.91 1426C3371.24 1426 3416.57 1414 3461.91 1390C3508.57 1366 3550.57 1324 3587.91 1264L3621.91 1276C3595.24 1362.67 3548.57 1437.33 3481.91 1500C3415.24 1561.33 3329.24 1592 3223.91 1592C3086.57 1592 2974.57 1546.67 2887.91 1456C2801.24 1365.33 2757.91 1230.67 2757.91 1052C2757.91 934.667 2779.24 834.667 2821.91 752C2864.57 669.333 2923.24 607.333 2997.91 566C3072.57 523.333 3157.91 502 3253.91 502ZM4132.09 688C4192.09 564 4300.76 502 4458.09 502C4562.09 502 4635.43 528 4678.09 580C4700.76 605.333 4716.76 638.667 4726.09 680C4736.76 720 4742.09 773.333 4742.09 840V1378C4742.09 1432.67 4751.43 1470.67 4770.09 1492C4788.76 1512 4822.09 1522 4870.09 1522V1564C4731.43 1558.67 4643.43 1556 4606.09 1556C4560.76 1556 4474.09 1558.67 4346.09 1564V1522C4386.09 1522 4414.09 1512 4430.09 1492C4446.09 1470.67 4454.09 1432.67 4454.09 1378V756C4454.09 701.333 4444.76 660 4426.09 632C4408.76 604 4376.76 590 4330.09 590C4274.09 590 4226.76 612 4188.09 656C4150.76 698.667 4132.09 753.333 4132.09 820V1378C4132.09 1432.67 4140.09 1470.67 4156.09 1492C4172.09 1512 4200.09 1522 4240.09 1522V1564C4112.09 1558.67 4029.43 1556 3992.09 1556C3946.76 1556 3854.76 1558.67 3716.09 1564V1522C3762.76 1522 3795.43 1512 3814.09 1492C3834.09 1470.67 3844.09 1432.67 3844.09 1378V240C3844.09 178.667 3834.09 134 3814.09 106C3795.43 77.9999 3762.76 63.9999 3716.09 63.9999V21.9999C3758.76 26 3800.09 28 3840.09 28C3956.09 28 4053.43 18.6666 4132.09 -0.0001297V688ZM5530.89 1428C5640.22 1428 5728.22 1374.67 5794.89 1268L5830.89 1280C5804.22 1366.67 5756.22 1440.67 5686.89 1502C5618.89 1562 5533.56 1592 5430.89 1592C5289.56 1592 5176.89 1547.33 5092.89 1458C5010.22 1367.33 4968.89 1234 4968.89 1058C4968.89 878 5013.56 740.667 5102.89 646C5192.22 550 5310.89 502 5458.89 502C5709.56 502 5834.89 650 5834.89 946H5272.89C5271.56 966 5270.89 997.333 5270.89 1040C5270.89 1128 5282.89 1201.33 5306.89 1260C5332.22 1318.67 5364.22 1361.33 5402.89 1388C5442.89 1414.67 5485.56 1428 5530.89 1428ZM5446.89 544C5398.89 544 5358.89 574 5326.89 634C5296.22 692.667 5276.89 784 5268.89 908H5582.89C5585.56 802.667 5574.89 716 5550.89 648C5528.22 578.667 5493.56 544 5446.89 544ZM6478.7 -0.0001297C6561.37 -0.0001297 6632.7 21.9999 6692.7 66C6712.7 81.9999 6728.7 103.333 6740.7 130C6754.04 155.333 6760.7 184 6760.7 216C6760.7 253.333 6747.37 286 6720.7 314C6694.04 340.667 6660.04 354 6618.7 354C6573.37 354 6536.7 341.333 6508.7 316C6480.7 290.667 6466.7 256 6466.7 212C6466.7 177.333 6476.7 146.667 6496.7 120C6516.7 93.3332 6546.04 74.6666 6584.7 63.9999C6580.7 55.9999 6572.04 49.3332 6558.7 43.9999C6546.7 38.6666 6531.37 35.9999 6512.7 35.9999C6462.04 35.9999 6426.04 53.3332 6404.7 87.9999C6390.04 108 6380.04 137.333 6374.7 176C6369.37 214.667 6366.7 272.667 6366.7 350V532H6580.7V572H6366.7V1358C6366.7 1419.33 6382.04 1462 6412.7 1486C6444.7 1510 6492.04 1522 6554.7 1522V1564L6498.7 1562C6350.7 1558 6254.7 1556 6210.7 1556C6170.7 1556 6084.04 1558.67 5950.7 1564V1522C5998.7 1522 6032.04 1512 6050.7 1492C6069.37 1470.67 6078.7 1432.67 6078.7 1378V572H5942.7V532H6078.7C6078.7 416 6088.04 326.667 6106.7 264C6125.37 200 6158.04 145.333 6204.7 99.9999C6234.04 70.6666 6273.37 46.6667 6322.7 28C6372.04 9.33324 6424.04 -0.0001297 6478.7 -0.0001297ZM7049.83 502C7100.49 502 7147.16 508.667 7189.83 522C7232.49 534 7265.16 548 7287.83 564C7301.16 573.333 7313.16 578 7323.83 578C7335.83 578 7345.83 572 7353.83 560C7363.16 546.667 7369.16 528 7371.83 504H7413.83C7408.49 572 7405.83 689.333 7405.83 856H7363.83C7351.83 768 7325.16 694.667 7283.83 636C7243.83 576 7185.16 546 7107.83 546C7067.83 546 7034.49 557.333 7007.83 580C6982.49 602.667 6969.83 634 6969.83 674C6969.83 719.333 6985.16 758.667 7015.83 792C7046.49 824 7094.49 863.333 7159.83 910L7217.83 952C7299.16 1013.33 7359.16 1068 7397.83 1116C7436.49 1164 7455.83 1224 7455.83 1296C7455.83 1354.67 7438.49 1406.67 7403.83 1452C7370.49 1497.33 7325.16 1532 7267.83 1556C7210.49 1580 7147.16 1592 7077.83 1592C7004.49 1592 6941.83 1578 6889.83 1550C6847.16 1528.67 6816.49 1514.67 6797.83 1508C6784.49 1504 6772.49 1508.67 6761.83 1522C6752.49 1534 6745.16 1552.67 6739.83 1578H6697.83C6703.16 1502 6705.83 1368.67 6705.83 1178H6747.83C6774.49 1423.33 6864.49 1546 7017.83 1546C7056.49 1546 7089.16 1534.67 7115.83 1512C7143.83 1488 7157.83 1452 7157.83 1404C7157.83 1366.67 7149.16 1333.33 7131.83 1304C7115.83 1274.67 7095.16 1248.67 7069.83 1226C7044.49 1203.33 7006.49 1172 6955.83 1132C6895.83 1084 6849.83 1045.33 6817.83 1016C6787.16 986.667 6760.49 952 6737.83 912C6716.49 872 6705.83 827.333 6705.83 778C6705.83 692.667 6739.16 625.333 6805.83 576C6872.49 526.667 6953.83 502 7049.83 502Z" fill="black"/>
</svg>
