<svg width="218" height="161" viewBox="0 0 218 161" fill="none" xmlns="http://www.w3.org/2000/svg"><g clip-path="url(#clip0)"><path d="M42.4795 98.1094L28.3197 74.4625L19.7226 85.5313L20.2283 111.694C20.2283 112.7 19.2169 113.706 18.2055 113.706H1.51712C0.505708 113.706 0 112.7 0 111.694L1.01142 56.8531L0 2.0125C0 1.00625 1.01142 0 1.51712 0H17.6998C18.7112 0 19.7226 1.00625 19.7226 2.0125L19.2169 56.8531V63.8969L47.0309 31.6969C47.5366 30.6906 48.548 30.1875 49.5594 30.1875H67.7649C68.2706 30.1875 68.7763 31.1938 68.2706 31.6969L42.4795 60.375L72.822 112.197C73.3277 112.7 72.822 113.706 71.8106 113.706H52.5937C51.5822 113.706 50.5708 113.203 50.0651 112.197L42.4795 98.1094Z" fill="black"/><path d="M128.451 115.719C102.154 115.719 86.9825 98.6125 86.9825 71.9469C86.9825 45.2812 102.154 27.6719 128.451 27.6719C154.747 27.6719 169.413 44.7781 169.413 71.4437C169.413 98.6125 154.747 115.719 128.451 115.719ZM128.451 102.134C142.61 102.134 149.185 92.575 149.185 72.45C149.185 52.8281 142.105 42.2625 127.945 42.2625C113.785 42.2625 106.705 52.8281 106.705 72.45C107.211 92.0719 114.291 102.134 128.451 102.134Z" fill="black"/><path d="M199.249 161C198.238 161 197.732 159.994 197.732 158.987L198.238 85.5312L197.226 31.6968C197.226 30.6906 198.238 30.1875 199.249 30.1875H215.937C216.443 30.1875 217.455 30.6906 217.455 31.6968L216.949 85.5312L217.455 142.384C217.455 152.95 209.363 161 199.249 161ZM199.249 21.1312C198.238 21.1312 197.226 20.125 197.226 19.1187V3.52184C197.226 2.51559 198.238 1.50934 199.249 1.50934H215.432C216.443 1.50934 216.949 2.51559 216.949 3.52184V19.1187C216.949 20.125 215.937 21.1312 215.432 21.1312H199.249Z" fill="black"/><path d="M1.01212 158.988V143.894C1.01212 142.888 2.02354 141.881 3.03496 141.881H167.896C168.907 141.881 169.919 142.888 169.919 143.894V158.988C169.919 159.994 168.907 161 167.896 161H3.03496C2.02354 161 1.01212 159.994 1.01212 158.988Z" fill="black"/></g><defs><clipPath id="clip0"><rect width="217.455" height="161" fill="white"/></clipPath></defs></svg>