<?xml version="1.0" encoding="UTF-8"?>
<svg width="3143px" height="794px" viewBox="0 0 3143 794" xmlns="http://www.w3.org/2000/svg" xmlns:xlink="http://www.w3.org/1999/xlink" version="1.1">
 <!-- Generated by Pixelmator Pro 1.6 -->
 <path id="path" d="M1443.934 643.932 C1433.98 643.809 1417.715 641.969 1407.79 639.839 1397.866 637.71 1380.377 631.261 1368.926 625.512 1354.055 618.042 1341.668 608.703 1325.575 592.822 1308.056 575.53 1300.777 565.839 1292.84 549.235 1287.23 537.493 1280.693 518.754 1278.316 507.595 1275.39 493.872 1274.482 479.939 1275.51 464.544 1276.403 451.138 1279.857 433.641 1283.915 421.973 1287.704 411.08 1294.953 395.282 1300.022 386.87 1305.094 378.456 1318.172 363.071 1329.084 352.681 1341.437 340.918 1355.753 330.531 1367.016 325.156 1376.965 320.406 1394.896 314.055 1406.858 311.04 1418.823 308.025 1434.857 305.549 1442.491 305.538 1450.125 305.524 1466.753 308.003 1479.448 311.046 1492.138 314.088 1509.166 319.832 1517.283 323.804 1525.4 327.779 1539.025 336.512 1547.558 343.211 1556.095 349.91 1568.22 361.897 1574.505 369.847 1580.791 377.798 1589.482 391.339 1593.824 399.937 1598.166 408.537 1603.679 423.147 1606.077 432.406 1608.509 441.791 1610.441 460.56 1610.441 474.812 1610.441 489.128 1608.504 507.891 1606.041 517.441 1603.62 526.822 1597.136 543.241 1591.631 553.929 1584.835 567.124 1574.833 580.063 1560.47 594.237 1546.615 607.909 1533.145 618.142 1521.439 623.894 1511.606 628.724 1494.22 635.256 1482.799 638.413 Z M1443.879 558.066 C1454.015 558.049 1463.833 555.859 1473.086 551.55 1480.75 547.98 1491.246 540.835 1496.41 535.672 1501.573 530.51 1508.635 520.159 1512.105 512.669 1515.573 505.182 1519.237 493.059 1520.245 485.731 1521.253 478.401 1520.67 465.623 1518.948 457.332 1517.228 449.04 1511.684 435.698 1506.631 427.683 1501.576 419.669 1492.021 409.469 1485.395 405.02 1478.771 400.57 1466.718 395.001 1458.614 392.645 1445.306 388.777 1442.433 388.783 1428.96 392.7 1420.754 395.084 1407.952 401.105 1400.506 406.083 1389.76 413.265 1384.774 419.419 1376.319 435.948 1366.089 455.94 1365.711 457.654 1366.816 478.976 1367.616 494.397 1369.77 504.677 1373.867 512.613 1377.11 518.899 1383.206 528.129 1387.411 533.129 1391.617 538.128 1402.608 545.79 1411.835 550.154 1424 555.909 1432.805 558.082 1443.879 558.066 Z M1823.058 643.932 C1813.758 643.809 1798.032 641.966 1788.108 639.834 1778.183 637.702 1759.831 630.909 1747.328 624.735 1734.824 618.561 1717.671 607.185 1709.213 599.453 1700.754 591.722 1688.29 576.443 1681.516 565.5 1674.745 554.557 1666.287 537.156 1662.722 526.838 1657.348 511.267 1656.246 502.439 1656.246 474.976 1656.246 447.413 1657.348 438.635 1662.844 422.49 1666.476 411.827 1674.415 395.242 1680.489 385.637 1686.563 376.03 1698.611 361.247 1707.264 352.786 1716.439 343.811 1731.646 333.015 1743.752 326.88 1755.17 321.097 1773.88 313.935 1785.332 310.968 1796.783 307.997 1812.776 305.549 1820.87 305.521 1828.968 305.496 1844.583 307.47 1855.571 309.907 1866.561 312.348 1884.42 318.549 1895.257 323.69 1906.095 328.832 1920.939 337.976 1928.239 344.011 1935.543 350.046 1946.85 361.483 1953.368 369.428 1959.886 377.373 1969.047 391.731 1973.73 401.333 1978.411 410.933 1984.304 426.998 1986.825 437.033 1990.117 450.142 1991.064 462.917 1990.184 482.396 1989.309 501.79 1986.989 515.059 1982.039 528.978 1978.233 539.686 1970.357 555.887 1964.539 564.983 1958.72 574.081 1946.473 588.668 1937.322 597.399 1928.173 606.132 1912.158 617.762 1901.731 623.241 1891.304 628.718 1873.141 635.667 1861.367 638.676 1849.597 641.688 1832.355 644.051 1823.058 643.932 Z M1822.808 557.971 C1833.18 557.971 1843.798 556.003 1850.949 552.758 1857.265 549.89 1867.319 543.128 1873.291 537.734 1879.261 532.337 1887.209 521.383 1890.955 513.391 1896.537 501.473 1897.761 494.536 1897.761 474.812 1897.761 455.075 1896.54 448.156 1890.938 436.198 1887.184 428.186 1879.747 417.795 1874.409 413.106 1869.071 408.42 1857.83 401.439 1849.436 397.597 1841.038 393.752 1829.11 390.607 1822.925 390.607 1816.634 390.607 1804.186 393.971 1794.656 398.249 1785.293 402.449 1773.817 409.842 1769.159 414.672 1764.498 419.502 1757.496 430.326 1753.602 438.724 1748.01 450.783 1746.517 458.369 1746.495 474.812 1746.475 491.96 1747.863 498.575 1754.362 512.314 1758.704 521.488 1767.054 533.209 1772.917 538.359 1778.783 543.508 1788.657 550.026 1794.867 552.847 1801.824 556.006 1812.54 557.971 1822.808 557.971 Z M2196.185 643.145 C2179.223 643.812 2167.906 642.666 2155.933 639.07 2146.772 636.316 2131.823 630.401 2122.714 625.923 2113.606 621.443 2098.375 610.519 2088.864 601.644 2079.353 592.769 2066.902 578.472 2061.198 569.875 2055.49 561.277 2047.318 544.18 2043.034 531.88 2036.113 511.995 2035.25 505.665 2035.25 474.812 2035.25 443.951 2036.108 437.655 2043.02 417.903 2047.292 405.689 2054.344 390.074 2058.685 383.203 2063.027 376.332 2075.441 361.939 2086.271 351.217 2098.055 339.556 2112.232 328.72 2121.568 324.243 2130.149 320.126 2146.969 314.071 2158.942 310.785 2175.099 306.354 2185.392 305.18 2198.858 306.229 2208.839 307.009 2227.177 310.917 2239.611 314.916 2252.045 318.913 2264.101 321.461 2266.402 320.578 2268.706 319.693 2271.321 316.245 2272.215 312.916 2273.106 309.588 2273.856 279.782 2273.876 246.686 2273.914 186.507 2273.914 186.507 2281.229 180.755 2287.594 175.744 2292.397 175 2318.331 175 2344.262 175 2349.064 175.744 2355.433 180.755 2362.747 186.507 2362.747 186.507 2362.747 408.232 2362.747 629.956 2362.747 629.956 2356.577 634.276 2351.921 637.538 2343.082 638.598 2320.563 638.598 2295.645 638.598 2288.683 637.61 2278.378 632.605 2266.042 626.608 2266.042 626.608 2242.911 634.415 2226.661 639.898 2212.763 642.493 2196.185 643.145 Z M2198.711 558.066 C2206.259 558.052 2217.109 555.375 2225.334 551.503 2232.968 547.911 2242.553 541.826 2246.634 537.984 2250.712 534.142 2257.28 524.628 2261.222 516.844 2265.167 509.06 2269.733 496.454 2271.369 488.831 2273.539 478.704 2273.468 470.648 2271.097 458.931 2269.312 450.106 2264.892 437.752 2261.275 431.47 2257.655 425.19 2250.043 415.971 2244.361 410.98 2238.675 405.989 2228.945 399.598 2222.738 396.781 2216.531 393.96 2205.832 391.639 2198.961 391.62 2191.627 391.6 2180.739 394.26 2172.589 398.063 2164.955 401.625 2153.901 409.875 2148.021 416.393 2142.144 422.914 2134.99 433.416 2132.12 439.731 2128.386 447.957 2126.89 457.743 2126.845 474.207 2126.809 488.107 2128.37 500.996 2130.793 506.795 2133 512.073 2138.61 521.924 2143.263 528.687 2149.279 537.432 2156.665 543.45 2168.844 549.537 2180.565 555.392 2189.989 558.085 2198.711 558.066 Z M2573.976 643.998 C2563.913 643.915 2546.582 641.46 2535.459 638.548 2524.338 635.634 2506.721 628.774 2496.311 623.302 2485.901 617.834 2470.388 607.124 2461.838 599.503 2453.288 591.88 2440.715 576.637 2433.9 565.625 2427.085 554.612 2418.593 537.137 2415.029 526.788 2409.54 510.85 2408.566 502.575 2408.635 472.655 2408.713 440.236 2409.376 435.74 2416.688 417.903 2421.072 407.215 2429.025 391.6 2434.361 383.203 2439.699 374.806 2451.392 360.878 2460.342 352.253 2470.827 342.148 2484.754 332.601 2499.492 325.417 2512.076 319.282 2531.361 312.284 2542.349 309.868 2553.339 307.453 2567.922 305.474 2574.759 305.474 2581.594 305.474 2598.219 308.014 2611.7 311.117 2626.56 314.541 2643.86 320.989 2655.633 327.496 2666.313 333.398 2680.981 343.453 2688.227 349.838 2695.472 356.223 2707.506 370.747 2714.968 382.112 2722.427 393.477 2731.489 411.799 2735.106 422.831 2740.472 439.215 2741.677 448.737 2741.677 474.812 2741.677 500.701 2740.461 510.451 2735.241 526.369 2731.702 537.165 2723.754 553.99 2717.578 563.756 2711.404 573.523 2699.036 588.561 2690.098 597.175 2681.156 605.785 2665.122 617.417 2654.462 623.016 2643.802 628.619 2625.447 635.667 2613.673 638.676 2601.903 641.688 2584.037 644.081 2573.976 643.998 Z M2575.114 557.971 C2585.383 557.971 2596.099 556.006 2603.055 552.847 2609.262 550.026 2619.025 543.608 2624.747 538.583 2630.471 533.556 2638.044 523.712 2641.575 516.703 2645.106 509.696 2649.304 497.753 2650.906 490.166 2652.902 480.708 2652.932 471.581 2651 461.129 2649.451 452.745 2645.287 440.215 2641.75 433.283 2638.211 426.351 2631.765 417.379 2627.423 413.345 2623.082 409.309 2612.66 402.524 2604.263 398.263 2593.414 392.761 2584.975 390.551 2575.114 390.632 2565.307 390.712 2556.346 393.23 2544.578 399.207 2535.417 403.856 2524.566 411.216 2520.463 415.56 2516.359 419.902 2509.814 430.326 2505.916 438.724 2500.314 450.788 2498.823 458.361 2498.801 474.812 2498.781 491.96 2500.169 498.575 2506.668 512.314 2511.01 521.488 2519.36 533.209 2525.224 538.359 2531.089 543.508 2540.964 550.026 2547.174 552.847 2554.13 556.006 2564.846 557.971 2575.114 557.971 Z M2951.267 643.942 C2941.343 643.881 2925.103 641.677 2915.179 639.042 2905.255 636.411 2888.391 629.948 2877.703 624.688 2863.803 617.844 2851.941 608.778 2836.045 592.852 2821.391 578.169 2811.067 564.914 2805.734 553.929 2801.286 544.768 2795.359 529.98 2792.564 521.064 2788.894 509.363 2787.492 496.235 2787.517 473.871 2787.55 447.152 2788.628 439.812 2795.34 420.524 2799.624 408.223 2807.849 391.045 2813.62 382.351 2819.391 373.653 2832.098 359.224 2841.855 350.285 2851.613 341.343 2867.584 330.095 2877.347 325.289 2887.108 320.484 2905.549 313.924 2918.324 310.715 2935.713 306.345 2946.784 305.227 2962.372 306.259 2974.092 307.037 2992.886 310.896 3005.372 315.09 3017.573 319.187 3034.596 326.816 3043.199 332.043 3051.805 337.271 3067.048 350.243 3077.072 360.867 3088.873 373.378 3098.709 387.326 3104.974 400.434 3110.295 411.568 3116.614 428.356 3119.015 437.738 3121.416 447.118 3123.382 464.155 3123.382 475.592 3123.382 489.098 3121.128 504.177 3116.953 518.585 3113.418 530.791 3105.329 549.527 3098.978 560.22 3092.202 571.626 3079.437 587.056 3068.089 597.56 3056.97 607.857 3040.129 619.816 3028.464 625.698 3017.307 631.326 2999.432 637.76 2988.744 639.992 2978.056 642.227 2961.192 644.003 2951.267 643.942 Z M2953.793 558.066 C2964.193 558.049 2973.889 555.903 2983.192 551.558 2990.826 547.991 3000.836 541.895 3005.436 538.012 3010.039 534.125 3017.535 523.14 3022.092 513.599 3029.074 498.991 3030.385 492.881 3030.385 474.898 3030.385 457.934 3028.958 450.483 3023.444 438.673 3019.627 430.496 3012.621 419.68 3007.871 414.633 3003.124 409.589 2991.881 402.091 2982.886 397.969 2972.676 393.288 2961.844 390.501 2954.044 390.543 2947.173 390.579 2935.022 393.455 2927.041 396.936 2918.865 400.503 2907.562 408.654 2901.152 415.608 2894.894 422.398 2887.399 433.186 2884.493 439.584 2880.687 447.965 2879.196 457.64 2879.151 474.207 2879.116 488.107 2880.676 500.996 2883.099 506.795 2885.306 512.073 2890.917 521.924 2895.569 528.687 2901.585 537.432 2908.972 543.45 2921.15 549.537 2934.189 556.053 2941.976 558.088 2953.793 558.066 Z M945.58 638.598 C912.171 638.598 910.327 638.299 903.812 631.786 897 624.971 897 624.971 897 407.457 897 237.636 897.76 188.981 900.469 185.555 902.379 183.142 906.668 179.78 910.003 178.084 913.403 176.355 930.037 175 947.865 175 975.025 175 980.622 175.775 986.218 180.302 992.767 185.599 992.773 185.671 994.161 265.077 995.282 329.348 996.298 345.01 999.46 346.965 1001.612 348.292 1004.749 348.849 1006.428 348.206 1008.11 347.558 1043.202 310.635 1084.41 266.148 1125.617 221.665 1163.083 182.962 1167.663 180.144 1174.798 175.755 1182.04 175.02 1218.171 175.011 1258.679 175 1260.658 175.264 1268.084 181.651 1274.749 187.386 1275.44 189.308 1273.094 195.59 1271.601 199.599 1237.272 238.505 1196.812 282.047 1156.351 325.592 1122.089 364.234 1120.673 367.924 1118.588 373.348 1119.799 377.362 1127.005 388.958 1131.905 396.839 1146.726 418.445 1159.938 436.969 1173.149 455.494 1197.692 490.011 1214.478 513.677 1231.265 537.342 1251.958 566.613 1260.463 578.725 1268.969 590.834 1278.063 604.576 1280.67 609.262 1283.277 613.945 1285.464 620.518 1285.528 623.866 1285.592 627.216 1282.869 631.9 1279.474 634.276 1274.568 637.716 1264.93 638.598 1232.411 638.598 1209.537 638.598 1188.678 637.305 1185.066 635.658 1181.516 634.04 1173.968 626.234 1168.293 618.308 1162.617 610.383 1146.979 588.283 1133.546 569.197 1120.11 550.112 1097.963 518.257 1084.326 498.408 1070.694 478.56 1056.766 459.524 1053.379 456.107 1049.096 451.782 1045.629 450.516 1041.992 451.943 1039.119 453.07 1028.742 462.542 1018.934 472.994 1009.127 483.443 999.596 495.311 997.756 499.366 995.496 504.346 994.369 525.922 994.286 565.855 994.161 624.843 994.147 624.987 987.345 631.786 980.833 638.299 978.99 638.598 945.58 638.598 Z" fill="#ffffff" fill-opacity="1" stroke="none"/>
 <path id="path-1" d="M323.5 718.242 C317.45 718.392 308.9 718.418 304.5 718.3 300.1 718.182 291.325 717.586 285 716.976 278.675 716.365 269.225 715.157 264 714.291 258.775 713.425 248.346 711.209 240.825 709.365 233.304 707.521 222.954 704.612 217.825 702.901 212.696 701.189 204.225 698.098 199 696.032 193.775 693.966 184.325 689.691 178 686.531 171.675 683.372 163.134 678.757 159.02 676.276 154.906 673.794 147.706 669.245 143.02 666.166 138.334 663.087 129.1 656.28 122.5 651.039 115.9 645.798 103.75 634.745 95.5 626.477 87.25 618.21 76.4 606.057 71.39 599.473 66.379 592.888 59.329 582.996 55.722 577.491 52.116 571.986 46.352 562.125 42.914 555.578 39.475 549.031 34.657 539.135 32.208 533.588 29.758 528.039 26.005 518.55 23.868 512.5 21.731 506.45 18.656 496.55 17.034 490.5 15.413 484.45 13.21 475 12.14 469.5 11.069 464 9.587 455.45 8.847 450.5 7.937 444.419 7.5 431.285 7.5 410 7.5 389.324 7.949 375.408 8.807 369.5 9.526 364.55 10.97 356 12.016 350.5 13.063 345 15.24 335.482 16.854 329.349 18.469 323.216 21.489 313.316 23.564 307.349 25.64 301.382 29.467 291.673 32.069 285.773 34.67 279.874 39.381 270.199 42.538 264.273 45.694 258.348 51.351 248.647 55.108 242.714 58.865 236.782 65.378 227.441 69.582 221.957 75.918 213.691 77.152 211.487 76.796 209.068 76.529 207.248 74.082 203.704 70.295 199.657 66.729 195.844 62.927 190.423 61.083 186.52 59.356 182.865 57.217 176.847 56.328 173.147 55.108 168.063 54.834 163.374 55.207 153.96 55.619 143.547 56.189 140.088 58.678 132.904 60.315 128.177 63.372 121.202 65.471 117.404 68.054 112.73 72.551 107.249 79.393 100.435 84.952 94.899 91.969 88.712 94.987 86.685 98.456 84.355 101.646 83 103.664 83 105.954 83 107.466 83.777 109.018 85.75 110.55 87.698 111.031 89.375 110.669 91.5 110.388 93.15 108.784 97.503 107.104 101.174 105.424 104.844 103.138 111.135 102.025 115.154 100.911 119.172 100.005 124.269 100.012 126.48 100.018 128.691 100.688 132.975 101.5 136 102.312 139.025 102.981 143.133 102.988 145.128 102.995 147.123 102.35 149.295 101.555 149.954 100.76 150.614 99.077 151.007 97.814 150.827 96.494 150.639 94.962 149.334 94.208 147.757 93.487 146.248 92.409 142.648 91.812 139.757 91.159 136.594 90.977 130.119 91.355 123.5 91.7 117.45 92.099 110.925 92.241 109 92.454 106.116 92.134 105.448 90.421 105.203 89.024 105.004 87.043 106.317 84.386 109.203 82.211 111.567 78.956 115.647 77.153 118.271 75.351 120.894 72.535 125.906 70.896 129.408 69.258 132.91 67.204 139.271 66.332 143.545 65.239 148.908 64.904 154.287 65.252 160.908 65.607 167.675 66.49 172.485 68.25 177.24 69.622 180.947 72.618 186.462 74.909 189.496 77.199 192.53 81.419 196.883 84.287 199.17 87.154 201.457 95.8 206.361 103.5 210.069 111.2 213.776 124.025 219.842 132 223.549 139.975 227.256 151.45 232.513 157.5 235.231 163.55 237.949 170.215 241.284 172.311 242.641 175.351 244.61 176.059 245.635 175.811 247.704 175.64 249.131 174.825 250.633 174 251.043 173.175 251.452 171.202 252.303 169.616 252.933 166.736 254.078 166.733 254.089 167.409 260.687 167.781 264.321 168.961 269.785 170.031 272.829 171.101 275.874 173.444 280.857 175.238 283.903 177.032 286.949 182.325 293.295 187 298.005 192.579 303.626 199.624 309.255 207.5 314.386 214.1 318.686 226.338 326.545 234.696 331.852 243.053 337.159 252.447 343.075 255.571 345 258.694 346.925 261.932 349.531 262.767 350.791 263.989 352.637 264.056 353.581 263.113 355.651 262.182 357.695 261.38 358.136 259.185 357.814 257.668 357.591 252.843 355.233 248.463 352.573 244.083 349.914 238.14 346.405 235.256 344.777 232.372 343.149 229.037 341.561 227.846 341.25 226.596 340.923 231.564 346.521 239.59 354.484 248.654 363.477 254.42 368.444 256.142 368.74 257.595 368.991 262.266 367.994 266.523 366.524 270.779 365.055 279.94 362.551 286.881 360.959 296.277 358.804 299.947 357.517 301.25 355.922 302.429 354.478 303 352.042 303 348.455 303 345.527 303.681 339.893 304.513 335.935 305.993 328.901 305.974 328.624 303.68 323.612 302.303 320.605 299.259 316.627 296.32 313.992 293.563 311.522 287.976 307.618 283.904 305.316 279.832 303.015 268.062 297.278 257.749 292.568 247.436 287.857 231.461 280.557 222.249 276.345 213.037 272.132 200.445 266.279 194.268 263.337 185.106 258.975 182.916 257.513 182.388 255.41 181.958 253.698 182.264 252.307 183.298 251.273 184.364 250.208 185.906 249.891 188.178 250.27 190.005 250.575 195.031 252.51 199.347 254.57 203.663 256.63 208.236 258.514 209.509 258.757 211.065 259.055 212.153 258.582 212.832 257.314 213.532 256.006 213.434 253.476 212.512 249.061 211.782 245.559 209.562 239.5 207.58 235.597 205.599 231.694 201.882 225.916 199.322 222.757 196.762 219.599 192.38 215.45 189.583 213.537 186.788 211.624 179.325 207.641 173 204.685 166.675 201.73 145.975 192.168 127 183.437 108.025 174.706 88.45 165.524 83.5 163.032 75.287 158.897 74.5 158.247 74.5 155.609 74.5 153.938 75.242 152.25 76.258 151.609 77.616 150.753 79.323 150.992 83.758 152.66 86.916 153.848 95.35 157.503 102.5 160.782 109.65 164.062 122.925 170.234 132 174.5 141.075 178.765 149.68 182.465 151.123 182.722 153.377 183.124 154.082 182.579 156.141 178.845 158.039 175.403 160.506 173.285 168.018 168.653 173.233 165.437 183.575 159.808 191 156.145 198.425 152.481 209.675 147.586 216 145.268 222.325 142.949 232.225 139.709 238 138.068 243.775 136.427 253.225 134.192 259 133.102 264.775 132.012 272.875 130.531 277 129.81 282.062 128.926 294.25 128.5 314.5 128.5 333.978 128.5 347.656 128.96 353.5 129.81 358.45 130.53 369.607 132.695 378.294 134.62 386.98 136.546 398.681 139.644 404.294 141.506 409.907 143.367 421.073 147.762 429.106 151.273 437.14 154.784 446.908 159.78 450.813 162.376 457.639 166.914 458.021 167.04 460.707 165.634 462.243 164.829 465.007 162.602 466.849 160.686 469.159 158.281 470.012 156.615 469.599 155.311 469.269 154.272 466.637 152.015 463.75 150.296 460.862 148.576 454 144.936 448.5 142.207 443 139.478 434.225 135.432 429 133.216 423.775 131 414.569 127.541 408.542 125.529 402.516 123.517 392.166 120.594 385.542 119.032 378.919 117.47 366.75 115.137 358.5 113.846 345.356 111.791 339.972 111.5 315 111.5 292.005 111.5 284.182 111.864 274.5 113.383 267.9 114.419 257.55 116.307 251.5 117.58 245.45 118.852 236 121.212 230.5 122.823 225 124.434 215.775 127.544 210 129.733 204.225 131.922 192.975 136.885 185 140.761 177.025 144.637 166.675 150.148 162 153.006 157.325 155.865 151.785 159.118 149.689 160.235 146.59 161.886 145.422 162.058 143.439 161.154 141.827 160.42 141 159.219 141 157.61 141 156.141 142.176 154.189 143.97 152.679 145.604 151.304 150.216 148.15 154.22 145.669 158.224 143.188 166.225 138.688 172 135.67 177.775 132.651 188.415 127.674 195.646 124.61 202.875 121.546 213 117.671 218.146 116 223.29 114.33 232.92 111.627 239.545 109.995 246.17 108.362 255.613 106.325 260.529 105.467 265.445 104.61 273.974 103.374 279.483 102.721 284.992 102.068 301.2 101.534 315.5 101.535 329.971 101.535 346.284 102.093 352.29 102.792 358.224 103.483 368.8 105.17 375.79 106.54 382.781 107.91 393.9 110.617 400.5 112.555 407.1 114.493 417.675 117.957 424 120.251 430.325 122.546 443.825 128.573 454 133.645 464.175 138.717 474.428 144.52 476.785 146.542 480.087 149.373 481.694 150.105 483.785 149.729 485.278 149.461 494.081 145.803 503.347 141.599 512.614 137.396 528.138 130.293 537.847 125.814 547.556 121.336 562.7 114.445 571.5 110.502 580.3 106.559 594.7 100.013 603.5 95.955 612.3 91.896 620.95 88.399 622.723 88.182 625.381 87.857 626.144 88.223 627.076 90.267 627.881 92.034 627.901 93.317 627.146 94.727 626.564 95.815 623.03 98.169 619.293 99.958 615.557 101.746 608.225 105.114 603 107.441 597.775 109.769 586.3 114.93 577.5 118.911 568.7 122.892 553.625 129.791 544 134.241 534.375 138.691 520.425 145.001 513 148.263 505.575 151.525 494.993 156.385 489.486 159.063 483.978 161.741 476.437 166.435 472.728 169.495 469.019 172.554 463.959 177.631 461.483 180.778 459.006 183.925 455.224 189.875 453.076 194 450.929 198.125 448.498 204.2 447.673 207.5 446.847 210.8 445.889 214.889 445.543 216.586 445.091 218.801 445.434 220.314 446.758 221.95 448.603 224.228 448.603 224.228 454.367 222.411 458.599 221.077 460.579 220.874 461.816 221.648 462.742 222.228 463.64 223.872 463.812 225.301 464.054 227.326 463.39 228.368 460.812 230.012 458.99 231.173 453.101 234.094 447.723 236.503 442.346 238.912 431.321 243.871 423.223 247.524 415.125 251.177 401.975 257.133 394 260.76 386.025 264.387 374.775 269.535 369 272.201 363.225 274.867 355.35 279.173 351.5 281.771 347.65 284.37 342.588 288.241 340.251 290.374 337.914 292.508 333.806 297.234 331.123 300.877 328.44 304.52 324.868 309.975 323.185 313 321.502 316.025 318.993 321.892 317.609 326.038 316.225 330.184 314.533 337.781 313.849 342.919 312.616 352.176 312.626 352.279 314.913 354.131 316.909 355.747 319.021 356 330.504 356 338.843 356 346.71 356.603 351.643 357.619 355.964 358.51 361.427 360.141 363.782 361.245 366.136 362.348 368.515 364.094 369.067 365.125 369.754 366.41 369.717 367.66 368.948 369.097 368.04 370.794 367.127 371.108 364.163 370.745 362.148 370.498 357.8 369.602 354.5 368.754 351.2 367.905 344.633 366.651 339.906 365.968 335.18 365.286 328.88 364.978 325.906 365.285 322.933 365.592 316 366.374 310.5 367.022 305 367.67 295.775 369.283 290 370.607 284.225 371.931 276.575 373.933 273 375.057 269.425 376.181 264.381 378.046 261.792 379.202 258.428 380.703 256.616 382.289 255.444 384.759 254.542 386.659 253.405 391.204 252.917 394.857 252.43 398.511 251.365 408.475 250.551 417 249.737 425.525 248.585 438.011 247.992 444.746 247.399 451.482 246.5 461.023 245.994 465.949 245.488 470.874 244.16 478.579 243.042 483.069 241.925 487.56 239.642 493.994 237.969 497.367 236.296 500.74 233.376 505.525 231.48 508 229.584 510.475 227.034 513.743 225.813 515.261 223.785 517.783 223.731 518.16 225.18 519.609 226.053 520.482 230.237 521.852 234.477 522.652 238.718 523.453 244.507 525.138 247.343 526.397 250.179 527.655 253.986 529.942 255.803 531.477 258.447 533.711 259.046 534.89 258.803 537.384 258.563 539.847 257.557 541.088 254 543.307 251.525 544.85 245.45 548.415 240.5 551.229 235.55 554.043 229.7 556.974 227.5 557.743 225.3 558.511 223.069 559.562 222.543 560.078 221.936 560.672 222.156 561.585 223.145 562.574 224.002 563.431 227.358 564.493 230.602 564.934 233.846 565.375 241.9 565.362 248.5 564.906 255.1 564.45 264.325 563.348 269 562.457 273.675 561.567 282.675 559.714 289 558.341 295.325 556.968 303.29 554.512 306.701 552.884 310.952 550.854 314.62 548.024 318.369 543.882 321.376 540.559 325.501 534.672 327.536 530.799 329.572 526.926 332.117 521.224 333.194 518.129 334.27 515.033 335.82 511.461 336.638 510.19 337.686 508.563 338.89 507.971 340.712 508.19 342.134 508.36 343.773 509.259 344.354 510.187 345.11 511.394 345.034 513.386 344.089 517.187 343.363 520.109 340.961 526.325 338.752 531 336.544 535.675 334.683 540.4 334.618 541.5 334.539 542.839 335.218 543.602 336.673 543.81 337.868 543.98 340.693 543.177 342.951 542.025 346.058 540.44 347.669 538.663 349.58 534.716 350.969 531.847 354.222 523.425 356.811 516 361.517 502.5 361.517 502.5 364.899 502.5 366.957 502.5 368.69 503.147 369.324 504.152 370.088 505.363 369.763 507.896 368.105 513.652 366.863 517.968 363.979 526.225 361.698 532 358.446 540.234 356.574 543.476 353.025 547.022 350.382 549.663 346.702 552.131 344.178 552.956 341.801 553.733 339.074 555.361 338.12 556.575 336.781 558.277 336.091 562.53 335.105 575.141 334.402 584.139 333.45 598.163 332.99 606.306 332.465 615.585 331.683 621.677 330.893 622.629 330.2 623.464 327.923 625.019 325.833 626.086 323.509 627.271 321.792 628.979 321.416 630.479 321.028 632.025 321.808 635.574 323.525 640.066 325.024 643.988 327.046 650.291 328.019 654.073 328.991 657.854 330.108 664.569 330.499 668.994 330.959 674.192 331.813 677.783 332.911 679.139 334.562 681.177 334.926 681.204 345.555 680.06 351.575 679.412 361 677.99 366.5 676.9 372 675.809 380.004 673.982 384.287 672.839 388.569 671.696 393.014 670 394.164 669.069 395.6 667.906 396.041 666.769 395.575 665.438 395.201 664.372 390.647 659.9 385.455 655.5 380.262 651.1 373.198 645.329 369.757 642.675 366.316 640.021 361.761 636.243 359.636 634.28 356.007 630.926 355.803 630.432 356.265 626.105 356.536 623.572 357.316 618.35 358 614.5 358.684 610.65 360.574 600.75 362.201 592.5 363.828 584.25 366.478 571.875 368.089 565 369.7 558.125 372.408 547.1 374.107 540.5 375.806 533.9 378.674 523.325 380.48 517 382.286 510.675 385.844 498.673 388.387 490.329 391.945 478.656 392.798 474.6 392.089 472.736 391.583 471.403 389.763 469.731 388.046 469.019 386.329 468.308 384.444 466.831 383.859 465.737 383.1 464.319 383.113 463.047 383.904 461.311 384.755 459.443 385.655 458.948 387.757 459.187 389.266 459.359 394.992 460.625 400.481 462 408.759 464.073 412.857 464.5 424.481 464.5 436.597 464.5 439.925 464.125 449 461.734 455.122 460.121 464.086 456.712 470.5 453.558 476.55 450.583 484.75 445.978 488.722 443.325 492.694 440.671 500.069 434.9 505.11 430.5 510.151 426.1 517.092 419.277 520.534 415.337 523.977 411.397 529.327 404.747 532.425 400.558 535.522 396.37 539.834 390.038 542.007 386.488 544.18 382.938 547.613 376.763 549.635 372.767 551.657 368.77 554.39 362.8 555.708 359.5 557.026 356.2 558.362 351.411 558.678 348.856 559.189 344.732 558.988 344.045 556.877 342.713 555.569 341.888 549.952 340.258 544.394 339.091 538.835 337.924 526.685 336.084 517.394 335.001 508.102 333.918 497.028 333.025 492.784 333.016 488.541 333.007 479.991 333.666 473.784 334.48 467.578 335.294 458.901 336.69 454.502 337.582 450.104 338.474 442.454 340.547 437.502 342.189 432.551 343.831 424.731 347.163 420.124 349.594 415.517 352.025 408.767 355.999 405.124 358.425 401.481 360.852 395.678 365.395 392.23 368.521 388.781 371.647 383.917 376.859 381.421 380.102 377.69 384.952 376.356 386 373.92 386 371.776 386 370.659 385.347 369.881 383.639 369.043 381.799 369.179 380.555 370.497 378.006 371.427 376.207 376.054 370.725 380.78 365.823 385.505 360.921 392.1 354.979 395.436 352.618 398.771 350.257 404.692 346.442 408.594 344.141 412.496 341.84 419.96 338.213 425.182 336.08 430.404 333.947 438.911 331.077 444.088 329.701 449.264 328.325 457.325 326.592 462 325.85 467.446 324.985 479.301 324.5 495 324.5 510.621 324.5 522.218 324.972 527 325.803 531.125 326.519 538.325 327.799 543 328.648 547.675 329.496 554.871 331.076 558.991 332.159 563.111 333.241 567.273 334.843 568.241 335.718 569.525 336.88 569.996 338.822 569.985 342.905 569.977 345.983 568.903 351.875 567.598 356 566.294 360.125 563.659 367.1 561.742 371.5 559.826 375.9 555.279 384.45 551.637 390.5 547.995 396.55 541.342 406.135 536.851 411.8 532.361 417.465 523.405 427.16 516.949 433.345 510.493 439.53 501.001 447.416 495.855 450.869 490.71 454.321 481.55 459.565 475.5 462.521 469.45 465.477 460.555 469.019 455.733 470.393 450.911 471.766 442.383 473.423 436.781 474.074 430.799 474.77 422.616 474.984 416.952 474.594 408.538 474.015 407.041 474.158 405.209 475.715 403.98 476.761 401.684 481.851 399.668 488 397.775 493.775 394.602 504.125 392.617 511 390.632 517.875 387.418 529.575 385.476 537 383.533 544.425 380.568 556.35 378.887 563.5 377.205 570.65 374.95 580.55 373.874 585.5 372.799 590.45 371.263 598.1 370.463 602.5 369.662 606.9 368.523 613.522 367.932 617.215 367.085 622.502 367.138 624.472 368.178 626.48 368.905 627.883 374.225 632.883 380 637.591 385.775 642.299 394.512 649.816 399.415 654.296 405.759 660.091 409.224 662.545 411.427 662.802 413.466 663.04 417.725 661.775 423.897 659.098 429.053 656.862 438.048 652.487 443.886 649.378 449.723 646.267 459.81 640.131 466.299 635.741 472.788 631.351 481.788 624.811 486.299 621.208 490.81 617.605 500.83 608.322 508.566 600.579 516.302 592.836 526.507 581.325 531.242 575 535.978 568.675 542.825 558.775 546.458 553 550.092 547.225 555.95 536.65 559.476 529.5 563.001 522.35 568.193 510.229 571.013 502.565 573.833 494.901 577.477 483.034 579.112 476.195 580.746 469.356 582.97 458.527 584.054 452.13 585.137 445.734 586.365 433.525 586.782 425 587.199 416.475 587.204 402.55 586.792 394.056 586.381 385.561 585.109 372.961 583.965 366.056 582.821 359.15 580.295 347.425 578.353 340 576.411 332.575 572.67 320.846 570.04 313.936 567.409 307.026 562.068 295.087 558.17 287.405 554.273 279.724 548.555 269.403 545.463 264.47 542.372 259.536 536.658 251.256 532.766 246.068 528.874 240.881 525.224 235.404 524.655 233.899 523.884 231.854 523.954 230.76 524.933 229.58 525.655 228.711 527.279 228 528.542 228 530.077 228 532.544 229.908 535.974 233.75 538.798 236.913 543.708 243.325 546.885 248 550.062 252.675 554.979 260.374 557.812 265.108 560.645 269.843 565.476 278.757 568.547 284.918 571.618 291.079 575.924 300.641 578.114 306.167 580.305 311.694 584.105 323.21 586.558 331.758 589.012 340.307 591.435 349.714 591.942 352.662 592.45 355.609 593.349 361.391 593.941 365.509 594.533 369.628 595.509 376.711 596.109 381.249 596.787 386.372 597.001 398.979 596.674 414.5 596.384 428.25 595.738 442.65 595.238 446.5 594.738 450.35 593.747 456.65 593.036 460.5 592.325 464.35 590.44 472.675 588.847 479 587.254 485.325 584.161 495.76 581.974 502.188 579.788 508.616 575.597 519.249 572.662 525.817 569.727 532.384 564.485 542.65 561.012 548.629 557.54 554.608 551.747 563.921 548.139 569.325 544.531 574.729 538.84 582.445 535.491 586.473 532.142 590.501 525.715 597.836 521.207 602.773 516.699 607.711 508.396 615.782 502.756 620.709 497.115 625.637 488.184 632.862 482.908 636.766 477.633 640.67 467.994 647.078 461.488 651.007 454.982 654.937 445.798 660.086 441.079 662.451 436.361 664.816 427.325 668.79 421 671.282 414.675 673.775 404.1 677.459 397.5 679.47 390.9 681.48 380.775 684.167 375 685.44 369.225 686.714 360.45 688.373 355.5 689.128 349.334 690.068 336.738 690.5 315.5 690.5 294.8 690.5 281.51 690.057 275.5 689.165 270.55 688.43 260.65 686.506 253.5 684.889 246.35 683.271 235.325 680.315 229 678.319 222.675 676.322 213 672.809 207.5 670.511 202 668.213 192.1 663.579 185.5 660.214 178.9 656.849 167.875 650.419 161 645.925 154.125 641.431 144.241 634.331 139.037 630.148 133.832 625.965 125.282 618.419 120.037 613.379 114.791 608.339 106.759 599.971 102.187 594.783 97.615 589.595 90.839 581.109 87.129 575.925 83.418 570.742 77.339 561.431 73.618 555.235 69.898 549.038 63.763 537.564 59.987 529.735 56.21 521.906 51.283 510.1 49.038 503.5 46.792 496.9 43.62 486.325 41.988 480 40.357 473.675 38.159 463.1 37.103 456.5 36.048 449.9 34.689 440 34.083 434.5 33.477 429 32.985 417.576 32.99 409.114 32.996 400.651 33.472 389.626 34.048 384.614 34.625 379.601 35.8 370.775 36.66 365 37.519 359.225 39.542 349.1 41.155 342.5 42.767 335.9 45.479 326.225 47.183 321 48.885 315.775 52.039 307.225 54.191 302 56.343 296.775 60.268 288.225 62.914 283 65.56 277.775 70.317 269.225 73.486 264 76.654 258.775 81.869 250.675 85.073 246 88.278 241.325 93.19 234.8 95.99 231.5 99.657 227.178 100.999 224.801 100.79 223 100.573 221.131 99.274 219.893 95.646 218.094 91.964 216.269 90.216 215.906 88.41 216.594 87.1 217.092 82.838 221.728 78.94 226.894 75.041 232.061 68.776 240.872 65.018 246.474 61.26 252.075 54.665 263.373 50.363 271.579 46.061 279.786 40.909 290.55 38.915 295.5 36.92 300.45 33.672 309.334 31.697 315.241 29.722 321.149 26.981 330.599 25.605 336.241 24.229 341.884 22.217 351 21.133 356.5 20.05 362 18.574 371.675 17.854 378 17.134 384.325 16.543 398.5 16.54 409.5 16.538 420.5 17.101 434.45 17.791 440.5 18.482 446.55 19.782 455.55 20.68 460.5 21.578 465.45 23.351 473.775 24.62 479 25.889 484.225 28.234 492.775 29.831 498 31.428 503.225 34.548 512.225 36.765 518 38.981 523.775 42.852 532.775 45.367 538 47.881 543.225 52.111 551.325 54.765 556 57.42 560.675 61.856 567.933 64.624 572.129 67.392 576.324 73.658 585.099 78.55 591.629 83.919 598.797 94.189 610.272 104.471 620.593 113.837 629.994 126.108 641.145 131.741 645.373 137.374 649.601 147.499 656.683 154.241 661.112 160.983 665.54 173.482 672.639 182.015 676.886 190.548 681.133 203.823 686.926 211.515 689.757 219.207 692.589 230.45 696.218 236.5 697.821 242.55 699.424 250.875 701.435 255 702.291 259.125 703.146 267 704.669 272.5 705.673 280.856 707.2 287.842 707.5 315 707.5 342.123 707.5 349.237 707.195 358 705.656 363.775 704.642 374.575 702.447 382 700.778 389.425 699.11 401.575 695.745 409 693.301 416.425 690.857 426.744 687.085 431.931 684.919 437.118 682.753 447.018 677.988 453.931 674.331 460.844 670.674 472.125 664.006 479 659.514 485.875 655.022 494.875 648.643 499 645.338 503.125 642.033 511.127 635.164 516.783 630.074 522.439 624.984 531.214 616.225 536.283 610.61 541.352 604.995 549.496 595.079 554.381 588.575 559.266 582.071 566.172 571.968 569.728 566.125 573.283 560.281 578.696 550.55 581.755 544.5 584.815 538.45 588.985 529.675 591.021 525 593.058 520.325 596.399 511.55 598.445 505.5 600.491 499.45 603.216 490.45 604.5 485.5 605.784 480.55 607.73 471.775 608.826 466 609.921 460.225 611.582 449.425 612.516 442 613.865 431.274 614.106 423.57 613.688 404.5 613.399 391.3 612.499 376 611.688 370.5 610.878 365 609.451 356.45 608.517 351.5 607.583 346.55 605.483 337.55 603.85 331.5 602.217 325.45 599.493 316.45 597.798 311.5 596.102 306.55 592.82 298.164 590.505 292.864 588.189 287.563 583.256 277.438 579.541 270.364 575.827 263.289 569.932 253.131 566.442 247.79 562.953 242.449 556.86 233.773 552.904 228.51 548.948 223.247 545.498 217.826 545.238 216.464 544.978 215.103 545.323 213.316 546.005 212.495 546.687 211.673 548.276 211 549.537 211 550.99 211 553.234 212.597 555.665 215.359 557.774 217.757 562.693 224.182 566.596 229.638 570.499 235.094 576.402 244.045 579.713 249.529 583.025 255.013 587.989 264 590.745 269.5 593.5 275 597.552 283.775 599.75 289 601.947 294.225 605.145 302.325 606.858 307 608.571 311.675 611.312 320.511 612.95 326.635 614.588 332.76 616.796 342.21 617.856 347.635 618.917 353.061 620.293 360.425 620.914 364 621.536 367.575 622.518 378.15 623.098 387.5 623.677 396.85 623.868 412.375 623.523 422 623.177 431.625 622.469 442.763 621.949 446.75 621.429 450.738 620.572 457.093 620.045 460.873 619.518 464.653 617.707 473.541 616.021 480.623 614.335 487.705 611.551 498 609.834 503.5 608.117 509 604.926 517.775 602.743 523 600.56 528.225 596.773 536.882 594.326 542.239 591.88 547.595 587.822 555.695 585.31 560.239 582.797 564.783 577.579 573.225 573.714 579 569.848 584.775 563.299 594 559.159 599.5 555.019 605 543.727 617.419 534.066 627.098 524.405 636.777 512 648.166 506.5 652.406 501 656.647 492.225 662.95 487 666.413 481.775 669.877 472.262 675.731 465.86 679.423 459.458 683.116 447.983 688.852 440.36 692.171 432.737 695.49 421.325 699.911 415 701.994 408.675 704.078 398.319 707.173 391.986 708.873 385.653 710.573 375.303 712.823 368.986 713.873 362.668 714.924 352.325 716.276 346 716.877 339.675 717.477 329.55 718.092 323.5 718.242 Z M302.55 680.88 C313.842 680.965 318.956 680.645 319.8 679.8 320.46 679.14 321 675.97 321 672.755 321 669.541 319.868 662.318 318.484 656.705 317.1 651.092 314.818 644.138 313.411 641.251 311.662 637.661 310.091 635.81 308.443 635.397 306.799 634.984 304.515 635.672 301.266 637.559 298.645 639.082 293.8 642.347 290.5 644.816 287.2 647.284 281.873 651.823 278.663 654.902 275.453 657.981 270.806 663.306 268.337 666.734 265.867 670.163 263.994 673.715 264.174 674.627 264.353 675.539 265.176 676.712 266.003 677.232 266.83 677.753 271.78 678.76 277.003 679.469 282.226 680.179 293.722 680.814 302.55 680.88 Z M248.207 672.924 C250.129 672.978 251.649 672.057 253.444 669.75 254.835 667.963 257.337 664.581 259.004 662.235 260.671 659.889 265.233 654.602 269.143 650.486 273.053 646.37 279.232 640.795 282.876 638.097 286.519 635.398 292.875 631.205 297 628.779 301.125 626.352 307.179 623.272 310.454 621.933 313.729 620.595 317.615 618.491 319.09 617.258 321.128 615.553 322.036 613.516 322.877 608.758 323.486 605.316 324.277 593.399 324.636 582.274 325.244 563.419 325.167 562.002 323.499 561.361 322.492 560.975 313.563 562.69 303.104 565.279 292.872 567.811 280.9 570.546 276.5 571.355 272.1 572.165 264.573 573.387 259.774 574.071 254.975 574.755 245.525 575.357 238.774 575.408 231.282 575.464 224.827 574.993 222.206 574.197 219.844 573.48 216.624 571.68 215.049 570.197 213.474 568.714 209.939 564.125 207.194 560 204.449 555.875 200.523 549.431 198.471 545.679 196.418 541.928 194.513 536.864 194.239 534.428 193.767 530.241 193.981 529.764 198.133 525.749 200.55 523.412 205.807 518.835 209.815 515.577 213.824 512.319 219.336 506.847 222.065 503.418 224.794 499.988 228.122 494.779 229.461 491.841 230.799 488.904 232.367 484.475 232.945 482 233.522 479.525 234.638 473.9 235.424 469.5 236.209 465.1 237.135 456.775 237.481 451 237.826 445.225 238.583 438.06 239.161 435.078 239.922 431.155 239.898 428.604 239.073 425.85 238.219 422.998 236.878 421.434 233.717 419.601 231.397 418.257 227.363 416.846 224.752 416.465 221.099 415.933 218.374 416.308 212.937 418.091 207.668 419.818 205.441 420.139 204.185 419.353 203.258 418.773 202.362 417.155 202.194 415.757 201.971 413.903 202.647 412.686 204.694 411.257 206.237 410.179 209.618 408.502 212.207 407.53 215.677 406.226 218.566 405.904 223.207 406.303 226.668 406.601 231.415 407.423 233.756 408.13 237.396 409.23 238.23 409.199 239.516 407.913 240.343 407.086 241.46 403.841 241.999 400.703 242.538 397.565 243.638 391.335 244.445 386.859 245.662 380.099 245.69 378.194 244.61 375.611 243.895 373.9 240.971 369.941 238.112 366.813 235.253 363.685 229.896 358.9 226.207 356.179 222.518 353.459 215.9 349.438 211.5 347.245 207.1 345.052 199.9 342.044 195.5 340.561 191.1 339.078 181.875 336.745 175 335.377 165.098 333.405 158.112 332.766 141.39 332.301 129.779 331.977 119.097 332.01 117.652 332.373 116.208 332.735 114.264 334.193 113.334 335.613 111.818 337.927 111.775 338.989 112.919 345.847 113.621 350.057 115.506 357.458 117.108 362.295 118.709 367.132 121.646 374.332 123.634 378.295 125.622 382.258 129.625 388.875 132.531 393 135.436 397.125 140.339 403.037 143.425 406.138 146.512 409.239 152.414 414.11 156.541 416.964 160.668 419.817 167.75 423.887 172.278 426.009 176.806 428.131 184.481 431.018 189.333 432.424 194.186 433.83 203.859 435.895 210.828 437.013 217.798 438.131 224.145 439.403 224.933 439.84 225.721 440.276 226.827 441.365 227.391 442.258 228.156 443.471 227.944 444.405 226.553 445.942 225.052 447.6 223.479 448 218.455 448 215.026 448 207.783 447.09 202.36 445.978 196.937 444.866 188.675 442.797 184 441.38 179.325 439.964 172.177 437.276 168.116 435.406 164.055 433.537 156.986 429.514 152.407 426.467 147.828 423.421 141.517 418.584 138.382 415.719 135.248 412.854 129.785 406.683 126.243 402.005 122.701 397.328 117.4 388.55 114.463 382.5 111.526 376.45 107.953 367.452 106.522 362.504 105.092 357.556 103.468 350.581 102.913 347.004 102.358 343.427 101.636 337.652 101.308 334.171 100.803 328.796 100.999 327.558 102.607 325.957 103.761 324.807 107.232 323.619 111.5 322.911 116.114 322.145 125.657 321.94 139.5 322.308 151.05 322.615 164.1 323.336 168.5 323.91 172.9 324.484 181.679 326.275 188.01 327.889 194.341 329.504 204.185 332.683 209.885 334.954 215.586 337.226 220.474 338.859 220.748 338.585 221.022 338.311 221.007 337.462 220.715 336.699 220.422 335.936 213.641 330.963 205.646 325.648 197.651 320.333 188.392 313.614 185.07 310.718 181.749 307.821 176.75 302.762 173.96 299.476 171.171 296.189 167.597 291.25 166.018 288.5 164.439 285.75 161.969 279.988 160.53 275.695 159.091 271.403 157.456 263.978 156.896 259.195 156.336 254.413 155.281 249.129 154.552 247.453 153.408 244.826 150.897 243.329 136.363 236.614 127.088 232.328 118.061 228.582 116.303 228.289 113.496 227.821 112.622 228.29 109.149 232.128 106.972 234.533 102.75 239.65 99.766 243.5 96.782 247.35 92.013 253.969 89.168 258.208 86.323 262.448 81.704 269.873 78.904 274.708 76.103 279.544 72.018 287.325 69.825 292 67.632 296.675 64.483 303.875 62.827 308 61.171 312.125 58.28 320.225 56.402 326 54.524 331.775 51.706 341.9 50.139 348.5 48.572 355.1 46.438 365.9 45.395 372.5 43.905 381.933 43.5 389.849 43.5 409.5 43.5 428.886 43.911 437.083 45.332 446 46.34 452.325 48.226 462.225 49.523 468 50.821 473.775 53.703 484.422 55.928 491.66 58.153 498.898 62.448 510.557 65.471 517.568 68.495 524.58 73.535 534.858 76.672 540.409 79.809 545.959 85.535 555.188 89.399 560.918 93.262 566.648 99.33 574.973 102.883 579.418 106.436 583.863 112.481 590.965 116.316 595.199 120.151 599.433 128.008 607.083 133.777 612.199 139.545 617.315 147.762 624.068 152.038 627.207 156.314 630.346 164.017 635.681 169.156 639.063 174.295 642.445 183.9 647.939 190.5 651.273 197.1 654.606 205.875 658.77 210 660.527 214.125 662.283 221.1 664.952 225.5 666.458 229.9 667.964 236.2 670.018 239.5 671.022 242.8 672.026 246.718 672.882 248.207 672.924 Z M225.278 545.988 C226.807 545.995 230.688 544.672 233.903 543.049 237.118 541.426 240.02 539.391 240.351 538.527 240.692 537.64 240.125 536.125 239.049 535.05 238.001 534.002 235.104 532.839 232.611 532.465 230.118 532.091 224.421 531.951 219.95 532.154 213.31 532.455 211.561 532.88 210.396 534.474 209.122 536.215 209.212 536.663 211.235 538.653 212.48 539.878 215.525 542.027 218 543.429 220.475 544.83 223.75 545.982 225.278 545.988 Z M312.704 491.996 C310.04 491.999 308.202 491.293 306.537 489.628 305.232 488.323 303.68 485.511 303.088 483.378 302.496 481.245 302.009 477.153 302.005 474.285 302.002 471.417 302.716 466.96 303.592 464.38 304.468 461.801 306.155 458.194 307.342 456.365 308.529 454.536 311.384 452.034 313.687 450.805 317.679 448.675 318.034 448.646 321.274 450.191 323.807 451.399 325.25 453.154 326.939 457.081 328.744 461.275 329.124 463.691 328.806 468.925 328.535 473.375 327.468 477.564 325.506 481.885 323.587 486.109 321.573 488.899 319.553 490.131 317.874 491.155 314.792 491.995 312.704 491.996 Z M213.588 491 C212.409 491 210.499 490.337 209.342 489.527 208.185 488.717 206.51 486.233 205.619 484.007 204.729 481.781 204.005 478.731 204.011 477.23 204.017 475.729 204.674 472.349 205.472 469.72 206.27 467.091 207.696 463.631 208.641 462.031 209.586 460.431 211.786 458.353 213.529 457.415 215.611 456.294 217.633 455.943 219.422 456.391 221.42 456.893 222.691 458.309 224.196 461.71 225.793 465.32 226.138 467.695 225.756 472.452 225.486 475.811 224.318 480.416 223.161 482.685 222.003 484.954 219.857 487.754 218.393 488.906 216.928 490.058 214.766 491 213.588 491 Z M306.478 426.76 C305.299 426.985 303.654 426.275 302.563 425.07 301.042 423.389 300.888 422.542 301.756 420.636 302.347 419.339 304.046 417.323 305.531 416.154 307.017 414.985 310.586 413.287 313.461 412.381 317.251 411.186 321 410.859 327.094 411.191 332.402 411.48 336.79 412.308 339 413.439 340.925 414.423 343.737 416.386 345.25 417.801 346.98 419.42 348 421.411 348 423.168 348 425.357 347.426 426.106 345.347 426.628 343.367 427.125 341.148 426.437 336.597 423.917 331.59 421.143 329.427 420.536 324.5 420.523 319.649 420.511 317.543 421.069 313.505 423.439 310.759 425.052 307.596 426.546 306.478 426.76 Z M391.221 427 C390.72 427 389.51 426.117 388.534 425.037 387.557 423.958 386.985 422.481 387.264 421.755 387.542 421.03 388.51 419.822 389.415 419.071 390.693 418.01 391.609 417.957 393.53 418.832 395.192 419.589 396 420.77 396 422.444 396 423.878 395.182 425.368 394.066 425.965 393.002 426.534 391.721 427 391.221 427 Z M395.558 411 C394.286 411 392.687 410.328 392.005 409.506 391.323 408.684 390.979 406.89 391.241 405.518 391.503 404.147 392.974 401.107 394.51 398.763 396.046 396.418 400.497 391.344 404.401 387.485 408.305 383.627 414.425 378.539 418 376.178 421.575 373.817 428.635 369.88 433.689 367.429 439.359 364.68 448.101 361.635 456.514 359.479 464.014 357.557 474.279 355.52 479.325 354.954 484.371 354.388 495.593 353.669 504.263 353.357 512.933 353.045 521.161 353.075 522.547 353.423 523.934 353.771 525.583 355.187 526.214 356.57 527.178 358.686 527.053 359.377 525.43 360.922 523.75 362.522 521.042 362.84 504.5 363.384 494.05 363.728 482.359 364.47 478.52 365.033 474.681 365.596 466.893 367.199 461.215 368.593 455.536 369.988 447.7 372.427 443.802 374.014 439.905 375.6 433.146 379.055 428.784 381.692 424.422 384.329 418.409 388.665 415.422 391.327 412.436 393.989 407.265 399.505 403.931 403.584 399.57 408.922 397.223 411 395.558 411 Z M232.419 391 C231.76 391 227.234 387.581 222.361 383.402 217.487 379.223 210.575 374.072 207 371.955 203.425 369.839 197.125 366.778 193 365.153 188.875 363.529 181.075 361.191 175.667 359.958 167.053 357.993 163.993 357.781 150.968 358.243 137.39 358.724 135.956 358.609 134.429 356.922 133.51 355.906 133.013 354.409 133.325 353.596 133.637 352.782 135.065 351.349 136.498 350.41 138.693 348.971 141.751 348.703 155.948 348.703 169.997 348.703 174.255 349.069 181.596 350.911 186.437 352.125 194.072 354.639 198.563 356.498 203.053 358.357 210.051 361.898 214.113 364.368 218.176 366.837 224.808 371.927 228.852 375.679 233.762 380.234 236.385 383.466 236.749 385.407 237.143 387.513 236.787 388.683 235.455 389.657 234.445 390.396 233.078 391 232.419 391 Z M309.999 311 C310.451 311 311.875 309.74 313.161 308.2 314.447 306.66 317.398 302.452 319.718 298.849 322.038 295.245 328.143 288.293 333.284 283.399 338.425 278.505 345.408 272.877 348.803 270.892 352.198 268.908 368.593 261.072 385.237 253.479 401.882 245.886 419.325 237.835 424 235.587 429.725 232.834 432.888 230.682 433.688 228.994 434.341 227.615 435.345 221.914 435.919 216.325 436.586 209.817 438.007 203.297 439.871 198.192 441.471 193.807 444.679 187.024 447 183.117 449.321 179.211 450.964 175.349 450.652 174.536 450.34 173.722 444.103 170.053 436.792 166.382 429.481 162.711 417.728 157.522 410.673 154.853 403.618 152.183 391.918 148.493 384.673 146.653 377.428 144.813 367.45 142.561 362.5 141.647 357.55 140.734 348.55 139.427 342.5 138.743 336.45 138.059 324.3 137.5 315.5 137.5 306.7 137.5 294.1 138.095 287.5 138.821 280.9 139.547 270.775 141.064 265 142.193 259.225 143.321 250.45 145.287 245.5 146.561 240.55 147.836 231.775 150.512 226 152.509 220.225 154.506 208.075 159.728 199 164.114 189.925 168.499 178.367 174.546 173.315 177.551 167.872 180.789 163.858 183.872 163.462 185.119 163.062 186.381 163.336 187.741 164.147 188.516 164.891 189.227 170.225 191.944 176 194.554 181.775 197.164 189.425 201.176 193 203.47 196.575 205.764 202.2 210.597 205.5 214.211 208.8 217.824 213.264 224.063 215.42 228.075 217.576 232.087 220.388 238.975 221.67 243.383 222.951 247.791 224 253.762 224 256.652 224 259.542 224.504 263.013 225.12 264.365 225.912 266.102 229.069 268.12 235.87 271.237 241.167 273.664 253.353 279.216 262.951 283.575 272.549 287.934 284.249 293.696 288.951 296.38 293.653 299.065 300.127 303.452 303.337 306.13 306.548 308.809 309.545 311 309.999 311 Z M478.287 221.672 C475.927 221.979 474.029 221.681 473.25 220.882 472.563 220.177 472 218.559 472 217.286 472 215.75 473.094 214.3 475.25 212.977 477.037 211.88 480.052 210.549 481.949 210.017 484.701 209.247 485.763 209.381 487.199 210.681 488.19 211.577 489 213.118 489 214.104 489 215.091 487.442 217.087 485.537 218.539 483.633 219.992 480.37 221.402 478.287 221.672 Z M389.221 343 C388.72 343 387.503 342.109 386.516 341.018 385.108 339.463 384.856 338.066 385.343 334.515 385.684 332.028 386.851 328.252 387.937 326.123 389.023 323.994 391.305 321.08 393.008 319.647 394.71 318.214 399.343 315.531 403.302 313.685 407.261 311.839 416.8 307.481 424.5 304.002 432.2 300.523 444.35 295.048 451.5 291.836 458.65 288.624 468.179 283.503 472.675 280.455 477.172 277.408 483.472 272.113 486.675 268.688 489.879 265.263 494.229 259.857 496.342 256.673 498.454 253.49 501.679 247.648 503.507 243.692 505.334 239.736 507.791 232.736 508.965 228.137 510.139 223.537 510.965 217.687 510.8 215.137 510.5 210.5 510.5 210.5 505.299 210.5 501.727 210.5 499.557 209.964 498.372 208.787 496.963 207.389 496.851 206.623 497.764 204.618 498.538 202.92 501.827 200.758 508.413 197.618 513.655 195.119 523.019 190.852 529.221 188.136 535.425 185.42 547.475 179.967 556 176.02 564.525 172.073 578.025 165.909 586 162.323 593.975 158.736 603.46 154.073 607.077 151.959 610.695 149.845 616.012 145.996 618.893 143.406 621.774 140.816 625.887 136.112 628.032 132.953 630.177 129.794 632.615 125.475 633.45 123.355 634.284 121.235 635.649 116.208 636.483 112.185 637.317 108.161 637.999 101.861 637.997 98.185 637.995 94.508 637.311 87.45 636.476 82.5 635.641 77.55 633.79 70.125 632.362 66 630.934 61.875 628.508 56.025 626.97 53 625.433 49.975 622.273 44.8 619.948 41.5 617.623 38.2 613.2 32.627 610.12 29.116 607.04 25.605 603.501 22.064 602.255 21.248 600.528 20.116 599.661 20.036 598.607 20.911 597.603 21.745 597.451 22.942 598.051 25.28 598.506 27.051 600.031 32.302 601.439 36.949 603.667 44.299 604 47.234 604 59.517 604 69.541 603.535 75.213 602.398 79.069 601.517 82.056 600.294 85.114 599.68 85.865 599.066 86.616 597.97 87.458 597.245 87.736 596.519 88.015 595.042 87.443 593.963 86.466 592.699 85.323 592.004 83.409 592.012 81.095 592.018 79.118 592.688 75.025 593.5 72 594.312 68.975 594.981 63.498 594.988 59.829 594.995 56.16 594.104 49.384 593.008 44.772 591.913 40.16 589.926 33.712 588.593 30.443 587.26 27.174 584.782 21.575 583.085 18 581.389 14.425 580.001 10.038 580.001 8.25 580 6.347 580.818 4.182 581.974 3.026 583.061 1.94 585.021 0.782 586.331 0.453 587.782 0.089 590.474 0.683 593.215 1.971 595.69 3.135 600.592 6.46 604.108 9.361 607.624 12.262 613.798 18.204 617.828 22.568 621.859 26.931 627.654 34.526 630.707 39.447 633.759 44.368 637.554 51.443 639.141 55.172 640.727 58.899 643.167 66.123 644.564 71.225 646.439 78.076 647.25 84.028 647.669 94 648.156 105.587 647.938 108.745 646.128 116.285 644.969 121.117 642.634 127.867 640.939 131.285 639.244 134.703 636.123 139.8 634.002 142.61 631.881 145.421 627.751 149.742 624.823 152.212 621.895 154.682 616.35 158.528 612.5 160.759 608.65 162.991 597.85 168.247 588.5 172.44 579.15 176.632 560.982 184.886 548.126 190.782 527.585 200.201 524.595 201.864 523.462 204.5 522.752 206.15 521.647 212 521.006 217.5 520.364 223 518.907 230.65 517.769 234.5 516.631 238.35 514.226 244.743 512.427 248.706 510.626 252.669 507.162 258.991 504.728 262.754 502.293 266.518 497.196 272.739 493.401 276.579 489.605 280.42 482.675 286.102 478 289.207 473.325 292.311 460.95 298.739 450.5 303.491 440.05 308.242 425.229 314.888 417.563 318.259 409.898 321.63 402.135 325.699 400.311 327.301 398.077 329.262 396.482 331.975 395.425 335.61 394.544 338.641 393.04 341.444 391.994 342.004 390.969 342.552 389.721 343 389.221 343 Z M115.077 81 C114.155 81 112.86 80.46 112.2 79.8 111.54 79.14 111 77.88 111 77 111 76.12 111.54 74.86 112.2 74.2 112.86 73.54 114.426 73 115.681 73 117.283 73 118.149 73.748 118.593 75.513 118.954 76.954 118.697 78.66 117.989 79.513 117.31 80.331 116 81 115.077 81 Z" fill="#ffffff" fill-opacity="1" stroke="none"/>
</svg>
