<svg height="40" viewBox="0 0 263 40" width="263" xmlns="http://www.w3.org/2000/svg" xmlns:xlink="http://www.w3.org/1999/xlink"><mask id="a" fill="#fff"><path d="m15.2275449 19.7810948h-15.2275449v-19.7810948h15.2275449z" fill="#fff" fill-rule="evenodd"/></mask><mask id="b" fill="#fff"><path d="m15.2275449 19.7810948h-15.2275449v-19.7810948h15.2275449z" fill="#fff" fill-rule="evenodd"/></mask><mask id="c" fill="#fff"><path d="m15.2275449 19.9143008h-15.2275449v-19.9143008h15.2275449z" fill="#fff" fill-rule="evenodd"/></mask><mask id="d" fill="#fff"><path d="m51.8483645.18270128v38.06038372h-51.76110596v-38.06038372z" fill="#fff" fill-rule="evenodd"/></mask><g fill="none" fill-rule="evenodd" transform="translate(-1)"><path d="m259.917726 4.39566996c.173136-.14374761.259703-.37807089.259703-.70296982 0-.32489894-.088768-.55115475-.266306-.67803402-.176804-.12651257-.489695-.1899522-.937573-.1899522h-1.051653v1.78621076h1.026342c.473189 0 .796351-.07150711.969487-.21525472m1.108508-.69673587c0 .8192147-.359109 1.33443255-1.076962 1.54528683l1.317592 1.78621076h-1.064124l-1.191042-1.65933149h-1.089801v1.65933149h-.861643v-4.95305866h1.862675c.7516 0 1.290448.12907948 1.615444.38650505.325363.25779228.487861.66923315.487861 1.23505602m.640089 3.73707121c.780945-.7939122 1.171967-1.74403991 1.171967-2.85038314 0-1.10634322-.386254-2.0520705-1.159495-2.83754852-.772508-.78511132-1.721453-1.17785033-2.844634-1.17785033-1.123548 0-2.073594.39493923-2.85087 1.18445098-.777277.78951176-1.165365 1.73963947-1.165365 2.85001643 0 1.11037697.384053 2.05830446 1.152893 2.84378248.768473.78511132 1.71485 1.17785033 2.838398 1.17785033 1.123181 0 2.075428-.39677274 2.857106-1.19031823m.386254-6.09313858c.89539.89512225 1.342902 1.97176253 1.342902 3.23028754 0 1.25815831-.447512 2.33919902-1.342902 3.24238874-.89539.90392312-1.98079 1.35570133-3.256565 1.35570133-1.275408 0-2.356406-.44774448-3.243359-1.34323343-.886954-.89475554-1.330431-1.97139582-1.330431-3.22992083 0-1.25815831.447512-2.33919902 1.342902-3.24275544.89539-.90318972 1.976755-1.35533463 3.244093-1.35533463 1.266972 0 2.34797.44774448 3.24336 1.34286672" fill="#ffa400"/><g transform="translate(68.444444 9.811321)"><g fill="#47494b"><path d="m0 20.0143301v-19.25961312h4.41245257v15.42954472h8.43010673v3.8300684z"/><path d="m30.1585607.75471698v3.82972033h-9.917511v3.96752763h8.9200726v3.66476916h-8.9200726v3.9950195h10.2310327v3.8025765h-14.6772106v-19.25961312z"/><path d="m5.85800093 4.25473084c-.41204231.33794581-.61789019.78439365-.61789019 1.34072571s.25159186.99863332.75477556 1.32690379c.50283716.32827047 1.6641103.71597518 3.48485905 1.16242302 1.81936255.44748448 3.23257415 1.11750179 4.23928805 2.01108854 1.0056743.8935868 1.5085115 2.1983755 1.5085115 3.9122929 0 1.7146085-.6442276 3.1054387-1.9344156 4.1724905-1.2894949 1.0670518-2.9861804 1.6005777-5.08901702 1.6005777-3.03712258 0-5.77171116-1.1219939-8.20411228-3.3656362l2.55161268-3.1185695c2.06644934 1.8058332 3.97833949 2.7084042 5.73428428 2.7084042.78631117 0 1.40385481-.1682818 1.85193784-.5062276.448083-.3372548.6726443-.7933779.6726443-1.368024 0-.5743006-.2380766-1.0300782-.7135367-1.3676785-.47580659-.3376002-1.41771658-.6793471-2.82642303-1.0262771-2.23140487-.5286883-3.86397955-1.2173652-4.89772403-2.06533961-1.03339794-.84797446-1.54975037-2.17937037-1.54975037-3.9945333 0-1.81481738.65358435-3.21497732 1.96144612-4.19944318 1.30751524-.98515696 2.94008991-1.47790821 4.89772404-1.47790821 1.2804847 0 2.56096937.21907735 3.84180067.65688649 1.2797916.43746359 2.3960139 1.05806756 3.346934 1.86042969l-2.167294 3.11891502c-1.6651499-1.25848532-3.3843609-1.88772798-5.15832605-1.88772798-.71319012 0-1.27597961.16862736-1.68732882.50622762" mask="url(#a)" transform="translate(32.858535 .238834)"/><path d="m5.85800093 4.25473084c-.41204231.33794581-.61789019.78439365-.61789019 1.34072571s.25159186.99863332.75477556 1.32690379c.50283716.32827047 1.6641103.71597518 3.48485905 1.16242302 1.81936255.44748448 3.23257415 1.11750179 4.23928805 2.01108854 1.0056743.8935868 1.5085115 2.1983755 1.5085115 3.9122929 0 1.7146085-.6442276 3.1054387-1.9344156 4.1724905-1.2894949 1.0670518-2.9861804 1.6005777-5.08901702 1.6005777-3.03712258 0-5.77171116-1.1219939-8.20411228-3.3656362l2.55161268-3.1185695c2.06644934 1.8058332 3.97833949 2.7084042 5.73428428 2.7084042.78631117 0 1.40385481-.1682818 1.85193784-.5062276.448083-.3372548.6726443-.7933779.6726443-1.368024 0-.5743006-.2380766-1.0300782-.7135367-1.3676785-.47580659-.3376002-1.41771658-.6793471-2.82642303-1.0262771-2.23140487-.5286883-3.86397955-1.2173652-4.89772403-2.06533961-1.03339794-.84797446-1.54975037-2.17937037-1.54975037-3.9945333 0-1.81481738.65358435-3.21497732 1.96144612-4.19944318 1.30751524-.98515696 2.94008991-1.47790821 4.89772404-1.47790821 1.2804847 0 2.56096937.21907735 3.84180067.65688649 1.2797916.43746359 2.3960139 1.05806756 3.346934 1.86042969l-2.167294 3.11891502c-1.6651499-1.25848532-3.3843609-1.88772798-5.15832605-1.88772798-.71319012 0-1.27597961.16862736-1.68732882.50622762" mask="url(#b)" transform="translate(49.535586 .238834)"/><path d="m82.7157597 10.8572037c0-1.74216097-.5750668-3.22808031-1.7244743-4.45740503-1.1501337-1.22967767-2.5634766-1.84416355-4.2403918-1.84416355s-3.089895.61448588-4.2396657 1.84416355c-1.1497706 1.22932472-1.7244743 2.71524406-1.7244743 4.45740503 0 1.7421611.5747037 3.2231391 1.7244743 4.4432871 1.1497707 1.220148 2.5627505 1.8300456 4.2396657 1.8300456s3.0902581-.6098976 4.2403918-1.8300456c1.1494075-1.220148 1.7244743-2.701126 1.7244743-4.4432871m1.5229832 7.1818259c-2.0308862 1.9281656-4.5319187 2.8924249-7.5020081 2.8924249-2.9700895 0-5.4711219-.9642593-7.5020082-2.8924249-2.0316123-1.9281657-3.0466924-4.3268136-3.0466924-7.1959439 0-2.86877725 1.0150801-5.26777814 3.0466924-7.19594378 2.0308863-1.92816564 4.5319187-2.89242494 7.5020082-2.89242494 2.9700894 0 5.4711219.9642593 7.5020081 2.89242494 2.0316124 1.92816564 3.0477816 4.32716653 3.0477816 7.19594378 0 2.8691303-1.0161692 5.2677782-3.0477816 7.1959439"/><path d="m103.47002.75471698h4.215578v19.25961312h-4.215578l-8.9980323-12.06823005v12.06823005h-4.2155774v-19.25961312h3.9456194l9.2679903 12.39882832z"/></g><g fill="#ffa400"><path d="m122.848315 14.7240612c1.0538-.9917949 1.580526-2.4335515 1.580526-4.3259657 0-1.89137033-.526726-3.34739485-1.580526-4.36668162-1.054147-1.01963476-2.671478-1.52945214-4.85234-1.52945214h-2.391969v11.70979186h2.722172c1.960727 0 3.46799-.4955495 4.522137-1.4876924m3.147858-11.44809717c1.832257 1.68083137 2.749254 4.01833537 2.749254 7.01216397 0 2.9941766-.893733 5.3636965-2.680853 7.1089075-1.786772 1.744863-4.51311 2.6172946-8.178319 2.6172946h-6.570016v-19.25961312h6.789804c3.427366 0 6.057178.84006769 7.89013 2.52124705"/><path d="m145.98762.75471698v3.82972033h-9.91787v3.96752763h8.920432v3.66476916h-8.920432v3.9950195h10.231392v3.8025765h-14.67721v-19.25961312z"/><path d="m5.85800093 4.14057426c-.41204231.32887856-.61789019.76334797-.61789019 1.30475336s.25159186.97183949.75477556 1.2913023c.50283716.31946281 1.6641103.6967652 3.48485905 1.13123462 1.81936255.43547824 3.23257415 1.08751865 4.23928805 1.95713004 1.0056743.86961142 1.5085115 2.13939202 1.5085115 3.80732412 0 1.6686047-.6442276 3.0221181-1.9344156 4.0605404-1.2894949 1.0384223-2.9861804 1.5576334-5.08901702 1.5576334-3.03712258 0-5.77171116-1.0918902-8.20411228-3.2753345l2.55161268-3.0348966c2.06644934 1.7573817 3.97833949 2.6357363 5.73428428 2.6357363.78631117 0 1.40385481-.1637668 1.85193784-.4926453.448083-.328206.6726443-.7720912.6726443-1.3313192 0-.5588918-.2380766-1.0024407-.7135367-1.330983-.47580659-.3285422-1.41771658-.6611198-2.82642303-.9987416-2.23140487-.5145032-3.86397955-1.1847026-4.89772403-2.00992546-1.03339794-.82522287-1.54975037-2.12089677-1.54975037-3.88735795 0-1.76612491.65358435-3.12871786 1.96144612-4.08677 1.30751524-.9587247 2.94008991-1.43825519 4.89772404-1.43825519 1.2804847 0 2.56096937.21319939 3.84180067.63926189 1.2797916.42572623 2.3960139 1.02967907 3.346934 1.81051343l-2.167294 3.03523295c-1.6651499-1.22471952-3.3843609-1.83707928-5.15832605-1.83707928-.71319012 0-1.27597961.164103-1.68732882.49264527" mask="url(#c)" transform="translate(148.441569 .79293)"/><path d="m166.222222.75471698h4.435136v7.90791139l7.507052-7.90791139h5.487l-7.904239 8.51377628c.682688.91871524 1.9432 2.63121444 3.781537 5.13854164 1.838337 2.5076751 3.21305 4.3767735 4.122702 5.6072952h-5.174924l-5.828523-7.604805-1.990605 2.149237v5.455568h-4.435136z"/></g></g><g transform="translate(1.504274 1.509434)"><path d="m16.2060867 24.5980665 10.2877952 5.1289429 13.6376155-6.7988986 6.0320853 3.0072957c.4190013.2088349.4190013.802042 0 1.0108769l-19.4134822 9.6784322c-.1613228.080349-.3511143.080349-.5124371 0l-10.0315767-5.0011808z" fill="#ffa400"/><path d="m6.44558066 25.5903722 5.17387774-2.6622614v6.419871l-5.17387774-2.661869c-.44010164-.2263667-.44010164-.8693739 0-1.0957406" fill="#ffa400"/><path d="m.39561191 12.8025186 25.32078949-12.56080162c.1582953-.07880539.3445249-.07880539.502462 0l25.3211477 12.56080162c.4111378.2042579.4111378.7831065 0 .987011l-25.3211477 12.561155c-.1579371.078452-.3441667.078452-.502462 0l-9.5066668-4.7159548v15.3734119c0 .6329168-.4806158 1.200457-1.1213175 1.233322-.6833197.0349853-1.248097-.50075-1.248097-1.167592v-16.0377802c0-.1671522.0952637-.3198156.2463962-.3947337l12.3549065-6.1273841c.5730144-.28377.8702656-.9626272.612051-1.5421826-.2754051-.6177211-1.0142355-.8749871-1.6180494-.575668l-13.9246078 6.90731-11.11540469-5.5139035c-.41113783-.2039045-.41113783-.7827531 0-.987011" fill="#47494b" mask="url(#d)"/></g></g></svg>