<svg width="291" height="59" viewBox="0 0 291 59" fill="none" xmlns="http://www.w3.org/2000/svg">
<path d="M79.0927 13.4209V35.7506H86.7461V39.4427H75.168V13.4209H79.0927Z" fill="#858585"/>
<path d="M96.12 13.4209H92.1953V39.4427H96.12V13.4209Z" fill="#858585"/>
<path d="M104.102 39.4426V11.6514L123.076 31.5075V13.4208H127.007V41.0284L108.026 21.2274V39.4426H104.102Z" fill="#858585"/>
<path d="M148.622 25.8929H159.374V26.7501C159.374 28.7032 159.141 30.436 158.682 31.9422C158.235 33.3382 157.476 34.6423 156.404 35.8546C153.986 38.5731 150.918 39.9324 147.183 39.9324C143.546 39.9324 140.424 38.616 137.828 35.9893C135.232 33.3504 133.934 30.1788 133.934 26.4807C133.934 22.7029 135.256 19.5007 137.895 16.874C140.534 14.2351 143.748 12.9126 147.532 12.9126C149.565 12.9126 151.463 13.3289 153.233 14.1616C154.916 14.9943 156.576 16.3413 158.204 18.2088L155.406 20.8906C153.269 18.0496 150.667 16.6291 147.606 16.6291C144.85 16.6291 142.542 17.5781 140.681 19.4762C138.813 21.3436 137.883 23.6764 137.883 26.4868C137.883 29.3828 138.924 31.7768 140.999 33.6504C142.94 35.3893 145.053 36.2648 147.318 36.2648C149.253 36.2648 150.986 35.6097 152.528 34.3117C154.065 32.9953 154.929 31.4217 155.106 29.591H148.616V25.8929H148.622Z" fill="#858585"/>
<path d="M164.742 26.3155C164.742 22.6541 166.083 19.507 168.771 16.8742C171.447 14.2475 174.661 12.9312 178.414 12.9312C182.125 12.9312 185.302 14.2598 187.954 16.911C190.617 19.5621 191.946 22.746 191.946 26.4686C191.946 30.2096 190.611 33.3873 187.935 35.9895C185.247 38.61 182.008 39.9142 178.212 39.9142C174.851 39.9142 171.838 38.7509 169.163 36.4242C166.212 33.8527 164.742 30.4851 164.742 26.3155ZM168.704 26.3645C168.704 29.2422 169.671 31.6056 171.6 33.4608C173.522 35.316 175.739 36.2405 178.255 36.2405C180.986 36.2405 183.288 35.2976 185.168 33.4057C187.041 31.4954 187.984 29.1687 187.984 26.4257C187.984 23.6521 187.06 21.3255 185.204 19.4458C183.362 17.56 181.078 16.6109 178.359 16.6109C175.653 16.6109 173.363 17.5538 171.502 19.4458C169.634 21.3193 168.704 23.6215 168.704 26.3645Z" fill="#858585"/>
<path d="M208.091 19.1455V39.4424H201.325V19.1455H195.766V13.4146H213.644V19.1455H208.091Z" fill="#858585"/>
<path d="M233.115 34.9238H223.447L221.892 39.4486H214.68L224.586 13.4146H231.977L241.883 39.4424H234.671L233.115 34.9238ZM231.321 29.7807L228.284 21.117L225.248 29.7807H231.321Z" fill="#858585"/>
<path d="M253.344 13.4146V33.7115H261.456V39.4424H246.578V13.4146H253.344Z" fill="#858585"/>
<path d="M273.434 24.1539L281.681 13.4146H290.032L279.716 25.7397L291 39.4424H282.232L273.434 28.1582V39.4424H266.668V13.4146H273.434V24.1539Z" fill="#858585"/>
<path d="M50.509 45.1673C47.6619 47.1878 43.8842 49.1226 40.4493 49.7961C40.4799 49.937 40.4921 50.6288 40.4921 52.0187C40.4921 53.2188 40.4738 54.927 40.4493 57.2475C40.4248 59.8742 36.8613 57.8353 33.4693 55.2883C30.3896 52.9738 27.4506 50.2492 27.4506 50.2492C16.0623 48.7369 3.75554 43.6366 0.608432 31.4278C-0.0895633 28.7154 -0.163037 25.8561 0.265556 23.0458C0.785992 19.5374 2.10851 16.1209 4.00045 13.1881C4.17801 12.9126 4.36781 12.6432 4.5515 12.3676C5.03519 11.6758 5.54951 11.0206 6.11892 10.3961C7.42307 8.90215 8.92315 7.57351 10.5457 6.42856C21.585 -1.3841 38.2818 -2.37599 49.6947 5.11216C50.0559 5.34483 50.4049 5.58974 50.7478 5.84077C51.8805 6.66122 52.9214 7.58576 53.8398 8.59602C54.6235 9.43484 55.3276 10.3349 55.9583 11.2839C57.5441 13.6351 58.6707 16.2923 59.3013 19.0782C61.4259 28.3542 58.4808 39.4915 50.509 45.1673Z" fill="#F89721"/>
<g opacity="0.95">
<g opacity="0.95">
<path opacity="0.95" d="M53.8559 8.60236C52.5517 10.0963 51.0517 11.425 49.4291 12.5699C38.3898 20.3887 21.6869 21.3745 10.2801 13.8863C9.9189 13.6536 9.5699 13.4087 9.2209 13.1577C8.09431 12.3373 7.05344 11.4127 6.12891 10.4025C7.43306 8.9085 8.93313 7.57986 10.5557 6.4349C21.595 -1.37775 38.2918 -2.36964 49.7047 5.11851C50.0659 5.35117 50.4149 5.59608 50.7639 5.84712C51.8966 6.66757 52.9314 7.59211 53.8559 8.60236Z" fill="#F15C31"/>
</g>
</g>
<g opacity="0.76">
<g opacity="0.76">
<path opacity="0.76" d="M50.5064 45.1677C47.6593 47.1882 43.8816 49.123 40.4467 49.7965C40.4773 49.9373 40.4896 50.6292 40.4896 52.0191C33.228 49.1659 27.0562 44.1819 24.9561 36.0386C24.2581 33.3263 24.1846 30.4669 24.6132 27.6566C25.1888 23.8237 26.7133 20.0827 28.9053 16.9785C30.5339 14.6579 32.5912 12.668 34.8995 11.0394C39.1915 7.99635 44.3285 5.99421 49.6982 5.11865C50.0594 5.35132 50.4084 5.59623 50.7513 5.84726C55.1536 9.0311 58.1109 13.8191 59.3048 19.0908C61.4233 28.3546 58.4783 39.4919 50.5064 45.1677Z" fill="#F37323"/>
</g>
</g>
<g opacity="0.64">
<g opacity="0.64">
<path opacity="0.64" d="M33.4732 55.2888C30.3935 52.9744 27.4546 50.2498 27.4546 50.2498C16.0723 48.7374 3.75944 43.6372 0.612339 31.4284C-0.0856571 28.716 -0.159131 25.8566 0.269463 23.0463C9.0189 21.6993 18.2949 23.3586 25.3116 28.4343C29.7139 31.6182 32.6712 36.4062 33.8651 41.6779C34.8631 46.0618 34.7345 50.8498 33.4732 55.2888Z" fill="#F2673B"/>
</g>
</g>
<path d="M44.1466 40.9668H31.7174C30.2112 40.9668 28.7907 40.5811 27.5539 39.9015C26.8314 39.5096 26.1824 39.0076 25.613 38.4381C24.0455 36.8768 23.0781 34.7094 23.0781 32.3276V22.8618C23.0781 22.9659 23.0781 23.07 23.0842 23.1802C23.1394 25.1762 23.7639 27.2763 24.9088 28.9111C24.9884 29.0152 25.0619 29.1254 25.1415 29.2295C25.1966 29.303 25.2578 29.3703 25.3252 29.4377C25.7783 29.9704 26.3109 30.4173 26.8926 30.7847C27.8845 31.4214 29.0172 31.8378 30.1805 32.0521C30.6948 32.1439 31.203 32.2113 31.7235 32.2541H31.7296C32.5317 32.3215 33.3276 32.3337 34.1297 32.3399H34.6073C35.6604 32.3337 36.6829 32.3337 37.7177 32.6093C39.1871 32.995 40.5525 33.7848 41.624 34.8624C42.4077 35.64 43.0384 36.5768 43.4731 37.6116V37.6177C43.9078 38.6402 44.1466 39.7668 44.1466 40.9668Z" fill="white"/>
<path d="M31.7196 16.0841V31.391C29.9378 31.391 28.2663 30.846 26.8887 29.9154C26.852 29.8909 26.8152 29.8664 26.7785 29.8419C26.356 29.548 25.9642 29.2235 25.609 28.8623C25.5111 28.7643 25.4131 28.6663 25.3213 28.5623C25.26 28.4888 25.1988 28.4276 25.1376 28.3541C23.9375 26.952 23.1783 25.1519 23.0865 23.1803C23.0803 23.0395 23.0742 22.8926 23.0742 22.7517V7.44482C26.9316 7.44482 30.2011 9.97353 31.3093 13.4635C31.5787 14.2901 31.7196 15.1718 31.7196 16.0841Z" fill="white"/>
<path d="M44.1474 40.9605H31.7182C30.212 40.9605 28.7915 40.5748 27.5547 39.8951C34.8469 38.7257 34.602 32.3396 34.602 32.3396L31.7182 32.2539C32.5203 32.3213 33.3162 32.3335 34.1244 32.3396C35.3429 32.3457 36.5245 32.2968 37.7124 32.609C39.1818 32.9948 40.5411 33.7846 41.6187 34.8561C42.4024 35.6337 43.0331 36.5705 43.4678 37.6052V37.6113C43.9637 39.5033 44.1474 40.9605 44.1474 40.9605Z" fill="white"/>
<path d="M23.0742 22.8618C23.0742 22.9659 23.0742 23.07 23.0803 23.1802H23.0742V22.8618Z" fill="white"/>
<path d="M31.3155 13.4635C23.6436 13.788 23.0865 23.1803 23.0865 23.1803C23.0803 23.0395 23.0742 22.8926 23.0742 22.7517V7.44482C26.9316 7.44482 30.2011 9.97353 31.3155 13.4635Z" fill="white"/>
</svg>
