<svg width="148" height="24" viewBox="0 0 148 24" fill="none" xmlns="http://www.w3.org/2000/svg">
<path d="M31.364 3.434H35.28V20H31.364V3.434ZM43.5907 17.338C44.3387 17.338 44.9033 17.0813 45.2847 16.568C45.666 16.04 45.8567 15.292 45.8567 14.324V14.148C45.8567 13.18 45.666 12.4393 45.2847 11.926C44.9033 11.398 44.3387 11.134 43.5907 11.134C42.8427 11.134 42.2707 11.3907 41.8747 11.904C41.4933 12.4027 41.3027 13.136 41.3027 14.104V14.28C41.3027 15.2773 41.4933 16.04 41.8747 16.568C42.256 17.0813 42.828 17.338 43.5907 17.338ZM43.5687 20.264C42.6887 20.264 41.86 20.132 41.0827 19.868C40.32 19.604 39.66 19.2227 39.1027 18.724C38.5307 18.2253 38.0833 17.6093 37.7607 16.876C37.438 16.1427 37.2767 15.314 37.2767 14.39V14.214C37.2767 13.29 37.438 12.4613 37.7607 11.728C38.0833 10.98 38.5307 10.342 39.1027 9.814C39.66 9.286 40.32 8.88267 41.0827 8.604C41.86 8.32533 42.696 8.186 43.5907 8.186C44.4707 8.186 45.292 8.32533 46.0547 8.604C46.832 8.868 47.4993 9.25667 48.0567 9.77C48.614 10.2833 49.054 10.9067 49.3767 11.64C49.6993 12.3733 49.8607 13.1947 49.8607 14.104V14.28C49.8607 15.2187 49.6993 16.062 49.3767 16.81C49.054 17.5433 48.614 18.1667 48.0567 18.68C47.4847 19.1933 46.81 19.5893 46.0327 19.868C45.27 20.132 44.4487 20.264 43.5687 20.264ZM56.3675 20.264C54.7248 20.264 53.4415 19.934 52.5175 19.274C51.6082 18.614 51.1315 17.6387 51.0875 16.348H54.7175C54.7908 16.7733 54.9375 17.096 55.1575 17.316C55.3922 17.536 55.7882 17.646 56.3455 17.646C56.8295 17.646 57.1815 17.5653 57.4015 17.404C57.6362 17.228 57.7535 16.9933 57.7535 16.7C57.7535 16.4213 57.5922 16.2087 57.2695 16.062C56.9615 15.9153 56.4115 15.7833 55.6195 15.666C54.8422 15.5633 54.1748 15.4313 53.6175 15.27C53.0748 15.094 52.6275 14.8593 52.2755 14.566C51.9235 14.2873 51.6595 13.9353 51.4835 13.51C51.3222 13.0847 51.2415 12.5713 51.2415 11.97C51.2415 11.3393 51.3735 10.7893 51.6375 10.32C51.9015 9.836 52.2608 9.43267 52.7155 9.11C53.1555 8.802 53.6762 8.57467 54.2775 8.428C54.8788 8.26667 55.5095 8.186 56.1695 8.186C56.8735 8.186 57.5188 8.252 58.1055 8.384C58.7068 8.516 59.2275 8.72867 59.6675 9.022C60.1075 9.31533 60.4595 9.69667 60.7235 10.166C61.0022 10.6353 61.1782 11.2147 61.2515 11.904H57.6875C57.6142 11.5227 57.4602 11.2367 57.2255 11.046C57.0055 10.8553 56.6682 10.76 56.2135 10.76C55.7882 10.76 55.4655 10.848 55.2455 11.024C55.0255 11.1853 54.9155 11.398 54.9155 11.662C54.9155 11.9407 55.0622 12.146 55.3555 12.278C55.6488 12.41 56.1475 12.52 56.8515 12.608C57.6435 12.7107 58.3328 12.8427 58.9195 13.004C59.5208 13.1653 60.0195 13.3853 60.4155 13.664C60.8115 13.9573 61.1048 14.3167 61.2955 14.742C61.4862 15.1673 61.5815 15.688 61.5815 16.304C61.5815 17.668 61.1122 18.6727 60.1735 19.318C59.2348 19.9487 57.9662 20.264 56.3675 20.264ZM67.9491 20.264C66.6438 20.264 65.6391 19.9487 64.9351 19.318C64.2458 18.6727 63.9011 17.668 63.9011 16.304V11.178H62.5151V8.494H63.9011V6.096H67.8391V8.494H70.1051V11.178H67.8391V15.93C67.8391 16.326 67.9345 16.6267 68.1251 16.832C68.3305 17.0373 68.6238 17.14 69.0051 17.14C69.2251 17.14 69.4231 17.1253 69.5991 17.096C69.7751 17.0667 69.9511 17.0153 70.1271 16.942V19.934C69.8778 20.0073 69.5698 20.0807 69.2031 20.154C68.8365 20.2273 68.4185 20.264 67.9491 20.264ZM74.2073 20.242C73.8846 20.242 73.5839 20.1833 73.3053 20.066C73.0266 19.9487 72.7919 19.7873 72.6013 19.582C72.3959 19.3913 72.2346 19.164 72.1173 18.9C72.0146 18.6213 71.9633 18.328 71.9633 18.02C71.9633 17.712 72.0146 17.426 72.1173 17.162C72.2346 16.8833 72.3959 16.6413 72.6013 16.436C72.7919 16.2453 73.0266 16.0913 73.3053 15.974C73.5839 15.8567 73.8846 15.798 74.2073 15.798C74.5299 15.798 74.8306 15.8567 75.1093 15.974C75.4026 16.0913 75.6519 16.2453 75.8573 16.436C76.0626 16.6413 76.2239 16.8833 76.3413 17.162C76.4586 17.426 76.5173 17.712 76.5173 18.02C76.5173 18.328 76.4586 18.6213 76.3413 18.9C76.2239 19.164 76.0626 19.3913 75.8573 19.582C75.6519 19.7873 75.4026 19.9487 75.1093 20.066C74.8306 20.1833 74.5299 20.242 74.2073 20.242Z" fill="#333333"/>
<path d="M78.8634 8.494H82.8014V10.782C83.168 9.91667 83.652 9.29333 84.2534 8.912C84.8694 8.516 85.6247 8.32533 86.5194 8.34V12.014C85.3167 11.9847 84.3927 12.168 83.7474 12.564C83.1167 12.96 82.8014 13.62 82.8014 14.544V20H78.8634V8.494ZM93.97 20.264C93.0607 20.264 92.2247 20.1393 91.462 19.89C90.6993 19.626 90.0467 19.2447 89.504 18.746C88.9467 18.2473 88.5067 17.6313 88.184 16.898C87.876 16.1647 87.722 15.3287 87.722 14.39V14.214C87.722 13.29 87.8833 12.4613 88.206 11.728C88.5287 10.98 88.9687 10.342 89.526 9.814C90.0833 9.286 90.7433 8.88267 91.506 8.604C92.2687 8.32533 93.0827 8.186 93.948 8.186C94.74 8.186 95.488 8.30333 96.192 8.538C96.896 8.77267 97.5193 9.132 98.062 9.616C98.59 10.1 99.008 10.716 99.316 11.464C99.6387 12.212 99.8 13.0993 99.8 14.126V15.16H91.704C91.7627 15.9227 91.9973 16.5167 92.408 16.942C92.8333 17.3527 93.398 17.558 94.102 17.558C94.762 17.558 95.2387 17.426 95.532 17.162C95.84 16.898 96.0307 16.5753 96.104 16.194H99.8C99.624 17.4993 99.0447 18.504 98.062 19.208C97.0793 19.912 95.7153 20.264 93.97 20.264ZM95.972 12.938C95.9427 12.234 95.7593 11.6987 95.422 11.332C95.0847 10.9653 94.5933 10.782 93.948 10.782C93.3467 10.782 92.8553 10.9653 92.474 11.332C92.0927 11.6987 91.8507 12.234 91.748 12.938H95.972ZM101.68 8.494H105.618V10.21C105.955 9.65267 106.417 9.176 107.004 8.78C107.59 8.384 108.324 8.186 109.204 8.186C109.878 8.186 110.509 8.31067 111.096 8.56C111.682 8.80933 112.196 9.18333 112.636 9.682C113.076 10.1807 113.42 10.804 113.67 11.552C113.934 12.3 114.066 13.1653 114.066 14.148V14.324C114.066 15.3213 113.934 16.194 113.67 16.942C113.42 17.6753 113.076 18.284 112.636 18.768C112.196 19.2667 111.675 19.6407 111.074 19.89C110.487 20.1393 109.856 20.264 109.182 20.264C108.302 20.264 107.561 20.0807 106.96 19.714C106.358 19.3473 105.911 18.878 105.618 18.306V23.85H101.68V8.494ZM107.796 17.25C108.544 17.25 109.108 17.0007 109.49 16.502C109.871 16.0033 110.062 15.2773 110.062 14.324V14.148C110.062 13.136 109.856 12.388 109.446 11.904C109.05 11.4053 108.5 11.156 107.796 11.156C107.077 11.156 106.512 11.4127 106.102 11.926C105.706 12.4247 105.508 13.158 105.508 14.126V14.302C105.508 15.2847 105.706 16.0253 106.102 16.524C106.512 17.008 107.077 17.25 107.796 17.25ZM121.708 17.338C122.456 17.338 123.021 17.0813 123.402 16.568C123.783 16.04 123.974 15.292 123.974 14.324V14.148C123.974 13.18 123.783 12.4393 123.402 11.926C123.021 11.398 122.456 11.134 121.708 11.134C120.96 11.134 120.388 11.3907 119.992 11.904C119.611 12.4027 119.42 13.136 119.42 14.104V14.28C119.42 15.2773 119.611 16.04 119.992 16.568C120.373 17.0813 120.945 17.338 121.708 17.338ZM121.686 20.264C120.806 20.264 119.977 20.132 119.2 19.868C118.437 19.604 117.777 19.2227 117.22 18.724C116.648 18.2253 116.201 17.6093 115.878 16.876C115.555 16.1427 115.394 15.314 115.394 14.39V14.214C115.394 13.29 115.555 12.4613 115.878 11.728C116.201 10.98 116.648 10.342 117.22 9.814C117.777 9.286 118.437 8.88267 119.2 8.604C119.977 8.32533 120.813 8.186 121.708 8.186C122.588 8.186 123.409 8.32533 124.172 8.604C124.949 8.868 125.617 9.25667 126.174 9.77C126.731 10.2833 127.171 10.9067 127.494 11.64C127.817 12.3733 127.978 13.1947 127.978 14.104V14.28C127.978 15.2187 127.817 16.062 127.494 16.81C127.171 17.5433 126.731 18.1667 126.174 18.68C125.602 19.1933 124.927 19.5893 124.15 19.868C123.387 20.132 122.566 20.264 121.686 20.264ZM129.867 8.494H133.805V10.782C134.172 9.91667 134.656 9.29333 135.257 8.912C135.873 8.516 136.629 8.32533 137.523 8.34V12.014C136.321 11.9847 135.397 12.168 134.751 12.564C134.121 12.96 133.805 13.62 133.805 14.544V20H129.867V8.494ZM144.24 20.264C142.935 20.264 141.93 19.9487 141.226 19.318C140.537 18.6727 140.192 17.668 140.192 16.304V11.178H138.806V8.494H140.192V6.096H144.13V8.494H146.396V11.178H144.13V15.93C144.13 16.326 144.225 16.6267 144.416 16.832C144.621 17.0373 144.915 17.14 145.296 17.14C145.516 17.14 145.714 17.1253 145.89 17.096C146.066 17.0667 146.242 17.0153 146.418 16.942V19.934C146.169 20.0073 145.861 20.0807 145.494 20.154C145.127 20.2273 144.709 20.264 144.24 20.264Z" fill="#333332"/>
<rect width="24" height="24" rx="4" fill="#2F80ED"/>
<path d="M12 0V8C12 10.2091 13.7909 12 16 12H24" stroke="white" stroke-width="3"/>
</svg>
