<svg width="760" height="91" viewBox="0 0 760 91" fill="none" xmlns="http://www.w3.org/2000/svg">
<path fill-rule="evenodd" clip-rule="evenodd" d="M323.11 0H345.31C378.42 0 395.1 18.37 395.1 45.18C395.1 71.99 378.42 89.99 345.31 89.99H323.11C320.128 89.99 317.71 87.5723 317.71 84.59V5.4C317.71 2.41766 320.128 0 323.11 0ZM346.53 62.6H352.31L352.36 62.61C359.95 62.61 364.53 57.01 364.53 45.18C364.53 33.35 359.52 27 351.93 27H346.53C344.542 27 342.93 28.6118 342.93 30.6V59C342.93 60.9882 344.542 62.6 346.53 62.6Z" fill="black"/>
<path d="M145.4 89.99H161.6C164.582 89.99 167 87.5723 167 84.59V59.39L175.12 76.17C176.039 78.0215 177.933 79.1863 180 79.17H180.22C182.214 79.1813 184.051 78.0934 185 76.34L194 59.4V84.6C194 87.5823 196.418 90 199.4 90H215.6C218.582 90 221 87.5823 221 84.6V5.4C221 3.96783 220.431 2.59432 219.418 1.58162C218.406 0.568927 217.032 0 215.6 0H198.09C196.091 0.000240524 194.256 1.10433 193.32 2.87L179.6 28.8L165.87 2.88C164.934 1.11433 163.099 0.0102405 161.1 0.01H145.4C142.418 0.01 140 2.42766 140 5.41V84.6C140.006 87.5784 142.422 89.99 145.4 89.99Z" fill="black"/>
<path fill-rule="evenodd" clip-rule="evenodd" d="M90.1874 0.508028L48.5665 19.4643L6.94568 0.508028C4.02598 -1.07293 0 1.19804 0 5.25847V84.4086C0 87.4416 1.82101 89.9135 4.2921 89.9893C4.4057 90.0036 4.52065 90.0036 4.63425 89.9893H4.69128C4.75971 89.9893 4.81674 89.9893 4.88136 89.9893L32.1585 87.1648L26.992 79.8211C24.7338 76.6782 27.471 73.9485 30.3679 75.01C30.9495 75.2224 31.5806 74.9418 32.147 75.0897L25.304 52.0691C25.2774 51.9895 25.2546 51.9099 25.2318 51.8303L25.1786 51.6559C25.1786 51.6559 25.1786 51.6218 25.1786 51.6028C24.7932 49.6702 25.8991 47.751 27.7674 47.1098C29.6357 46.4686 31.6917 47.3028 32.5804 49.0627V49.0968C32.6451 49.2257 40.4309 68.3829 40.4309 68.3829C40.8059 66.3767 42.5874 64.9398 44.633 64.9936C46.6787 65.0474 48.3817 66.5759 48.6502 68.599C48.9341 66.5129 50.7325 64.9649 52.8434 64.9897C54.8773 64.9897 56.455 66.783 56.8086 68.7166L61.4352 55.7125V55.7125C62.0964 53.9166 63.951 52.8494 65.841 53.1772C67.7311 53.505 69.1155 55.134 69.1298 57.0471C69.1298 57.0471 69.1298 57.1343 69.1298 57.1684L65.0088 87.1383L92.2555 89.9628C92.3201 89.9628 92.381 89.9628 92.4456 89.9628H92.5026C92.6162 89.977 92.7312 89.977 92.8448 89.9628C95.3159 89.8869 97 87.4302 97 84.3934V5.23952C96.9962 1.18287 93.1071 -1.07293 90.1874 0.508028Z" fill="#F01716"/>
<path fill-rule="evenodd" clip-rule="evenodd" d="M285.123 86.08L283.763 81.31C283.076 79.0189 280.964 77.4524 278.573 77.46H260.813C258.401 77.4615 256.283 79.0612 255.623 81.38L254.263 86.15C253.602 88.4688 251.484 90.0686 249.073 90.07H233.413C231.694 90.074 230.077 89.2602 229.056 87.8782C228.036 86.4962 227.733 84.7109 228.243 83.07L251.993 4.07002C252.681 1.79 254.781 0.229911 257.163 0.230017H281.563C283.94 0.226431 286.038 1.78353 286.723 4.06002C290.863 17.88 305.093 65.16 310.483 83.06C310.973 84.6934 310.661 86.4624 309.643 87.8301C308.624 89.1977 307.018 90.0024 305.313 90H290.313C287.901 89.9986 285.783 88.3988 285.123 86.08ZM269.343 31.35L262.143 56.55H276.543L269.343 31.35Z" fill="black"/>
<path fill-rule="evenodd" clip-rule="evenodd" d="M435.083 0H463.417C495.908 0 513 18.6447 513 45C513 71.3553 498.282 90 465.778 90H435.083C431.171 90 428 86.8189 428 82.8947V7.10526C428 3.18113 431.171 0 435.083 0ZM460.381 62.5867H465.007V62.6253C473.976 62.6253 478.885 57.7681 478.885 46.3962C478.885 35.0243 474.002 30.2057 465.007 30.2057H460.381C459.104 30.2057 458.068 31.2412 458.068 32.5186V60.2738C458.068 61.5512 459.104 62.5867 460.381 62.5867Z" fill="black"/>
<path d="M749.7 41.3635C746.721 39.371 740.333 37.1306 730.539 34.6421L725.697 33.4492C725.355 33.3723 724.858 33.2397 724.207 33.0516C716.835 31.196 713.15 28.8786 713.15 26.0994C713.039 24.3883 713.84 22.7458 715.256 21.7767C717.215 20.6951 719.444 20.2008 721.677 20.3529C724.32 20.1931 726.95 20.8275 729.229 22.1743C731.001 23.3929 734.148 25.4195 734.558 27.8952H752.217C753.629 27.901 754.965 27.2609 755.844 26.158C756.723 25.0551 757.047 23.6108 756.725 22.2385C755.481 16.6183 752.248 11.6354 747.62 8.20578C740.201 2.86498 731.258 0.0497354 722.114 0.176104C712.815 0.0178932 703.727 2.94578 696.274 8.5008C689.994 13.2468 686 18.8778 686 27.1897C686.196 31.3622 687.3 35.442 689.236 39.1444C690.938 42.4703 693.434 45.3253 696.505 47.4563C699.023 48.9902 701.713 50.2215 704.519 51.1248C708.192 52.4331 713.124 53.8868 719.314 55.4859L722.795 56.3453C730.355 58.2437 734.139 60.7108 734.148 63.7465C734.163 65.6299 733.115 67.3613 731.438 68.2231C729.149 69.4203 726.582 69.9828 724.002 69.8521C720.235 69.8521 717.401 69.1894 715.5 67.8639C713.599 66.5812 712.148 63.2591 711.429 60.1678H691.394C690.002 60.1668 688.683 60.7908 687.801 61.8674C686.92 62.944 686.57 64.3592 686.848 65.7218C688.247 72.4688 691.201 78.3436 696.351 82.2686C702.875 87.2455 710.966 90.17 722.101 90.17C734.186 90.17 744.203 87.2455 750.689 82.2686C757.175 77.2917 760 69.4417 760 60.1549C760 55.8579 759.551 52.8949 757.842 49.7395C755.856 46.3235 753.06 43.4472 749.7 41.3635Z" fill="black"/>
<path d="M671.929 7.7301e-07H651.854C648.436 0.00137669 645.506 2.45434 644.892 5.8298L636.513 52.0997L628.134 5.8298C627.52 2.45434 624.591 0.00137669 621.172 7.7301e-07H601.084C598.858 -0.00104 596.76 1.04893 595.422 2.83462C594.084 4.62032 593.66 6.93376 594.279 9.08028L616.137 84.8677C617.013 87.9088 619.788 90.0015 622.942 90H650.058C653.212 90.0015 655.987 87.9088 656.863 84.8677L678.721 9.08028C679.339 6.93599 678.917 4.62497 677.582 2.83988C676.247 1.05479 674.153 0.00309412 671.929 7.7301e-07Z" fill="black"/>
<path d="M579.81 1.22008e-05H527.177C525.274 1.22008e-05 523.448 0.7486 522.102 2.0811C520.756 3.41359 520 5.22084 520 7.10527V82.8947C520 86.8189 523.213 90 527.177 90H579.81C583.773 90 586.987 86.8189 586.987 82.8947V71.0526C586.987 68.4365 584.844 66.3158 582.202 66.3158H551.101C549.78 66.3158 548.709 65.2554 548.709 63.9474V59.2105C548.709 57.9025 549.78 56.8421 551.101 56.8421H575.025C577.667 56.8421 579.81 54.7214 579.81 52.1053V37.8947C579.81 35.2787 577.667 33.1579 575.025 33.1579H551.101C549.78 33.1579 548.709 32.0975 548.709 30.7895V26.0526C548.709 24.7446 549.78 23.6842 551.101 23.6842H582.215C584.858 23.6842 587 21.5635 587 18.9474V7.10527C587 5.21856 586.242 3.40931 584.893 2.07644C583.544 0.743564 581.715 -0.00348172 579.81 1.22008e-05Z" fill="black"/>
</svg>