<svg version="1.1" id="Layer_1" xmlns="http://www.w3.org/2000/svg" x="0" y="0" viewBox="0 0 1613.4 693.3" xml:space="preserve"><style>.st0{fill:#333}</style><path class="st0" d="M1067.1 185.8h30.2v205.4h-30.2zM1148.4 354.1c-11.3 0-20.4 9.1-20.4 20.4 0 11.3 9.1 20.4 20.4 20.4 11.3 0 20.4-9.1 20.4-20.4 0-11.3-9.1-20.4-20.4-20.4zM1227.8 319.7c0-24.5 14.7-45.5 43.2-45.5h18v-28.6h-18c-22.3 0-32.5 7.1-42.9 18.9l-.2.3v-19.2H1198v145.5h29.8v-71.4zM1004.1 245.6h30.2v145.5h-30.2zM1019.2 221.5c11.3 0 20.4-9.1 20.4-20.4s-9.2-20.4-20.4-20.4c-11.3 0-20.4 9.1-20.4 20.4 0 11.3 9.2 20.4 20.4 20.4zM941.7 260.3c-11.6-11.8-29.4-18.4-47.1-18.4-42.2 0-76.5 34.3-76.5 76.5s34.3 76.5 76.5 76.5c17.7 0 36.4-7.6 47.1-19.6v15.9h29.7V245.6h-29.7v14.7zm-46.1 104.2c-26 0-45.8-20-45.8-46.1s19.8-45.9 45.8-45.9c26 0 46.5 18.6 46.5 45.9s-20.5 46.1-46.5 46.1zM1372.6 394.9c13.5 0 30.7-7.3 41.5-19.7.1 5.5 0 10.5 0 15.9h29.7V245.6H1414v79.9c0 20.7-15.8 40-39.5 40-20.7 0-35.4-15-35.4-36.5v-83.3h-29.8v85.8c.1 38.4 20.8 63.4 63.3 63.4zM730.9 241.9c-19.8 0-39.2 9-51 23.2-10.8-14.3-26.5-23.2-47.6-23.2-17.2 0-29.5 7.7-36.1 13.9v-10.2h-29.7v145.5h29.7V306c0-19 15.5-34.4 34.4-34.4S665 287.1 665 306v85.1h29.7V306c0-19 15.5-34.4 34.4-34.4s34.4 15.5 34.4 34.4v85.1h29.7V306c.2-39-25.1-64.1-62.3-64.1zM1123.1 458.4l-.2.2v-11.3h-19v85.4h19v-40c0-14.4 8.6-26.7 25.3-26.7h10.5v-18.7h-10.5c-13 0-19 4.2-25.1 11.1zM1327.4 494.1c0 13.7-11 21.9-21.7 21.9-11.3 0-19.3-8.2-19.3-19.9v-48.7h-19.1v50.1c0 23.7 13.6 37.4 37.2 37.4 7.7 0 16.8-3.9 22.8-9.8v7.7h19v-85.4h-19.1l.2 46.7zM1208.2 445.2c-24.7 0-44.8 20.1-44.8 44.8 0 24.7 20.1 44.8 44.8 44.8 24.7 0 44.8-20.1 44.8-44.8s-20-44.8-44.8-44.8zm0 70.6c-14.2 0-25.8-11.6-25.8-25.8s11.6-25.8 25.8-25.8c14.2 0 25.8 11.6 25.8 25.8s-11.5 25.8-25.8 25.8zM1410.4 445.2c-9.8 0-19.3 3.4-26 9.2v-7.1h-19v114.8h19v-37c6.4 6 16.3 9.8 26 9.8 24.7 0 44.8-20.1 44.8-44.8 0-24.8-20.1-44.9-44.8-44.9zm-.6 70.2c-14.9 0-25.7-10.7-25.7-25.4s10.8-25.3 25.7-25.3c14.4 0 25.3 10.9 25.3 25.3 0 14.5-10.9 25.4-25.3 25.4zM1066 454.4c-6.7-5.8-16.2-9.2-26-9.2-24.7 0-44.8 20.1-44.8 44.8 0 24.7 20.1 44.8 44.8 44.8 9.7 0 19.6-3.8 26-9.8v1.7c-.3 17.5-8.8 26.4-25.4 26.4h-.2c-9.4 0-17.7-3.6-25.4-11.1l-.7-.7-13.8 13.2.6.7c7.1 8.3 21.5 17.8 38.8 17.8h.9c16.2-.3 43.4-6.6 44.2-45.6v-80.2h-19v7.2zm-25.4 61c-14.4 0-25.3-10.9-25.3-25.4 0-14.4 10.9-25.3 25.3-25.3 14.9 0 25.7 10.6 25.7 25.3-.1 14.7-10.8 25.4-25.7 25.4z"/><path d="M366.5 315.8c0 26.5-21.5 48-48 48s-48-21.5-48-48 21.5-48 48-48 48 21.6 48 48m-48-159.5c-88 0-159.6 71.6-159.6 159.6s71.6 159.5 159.6 159.5c32.2 0 63.3-9.6 89.9-27.8l.5-.3-21.5-25-.4.2c-20.5 13.1-44.1 20.1-68.5 20.1-69.9 0-126.8-56.9-126.8-126.8S248.6 189 318.5 189s126.8 56.9 126.8 126.8c0 9.1-1 18.2-3 27.3-4 16.5-15.5 21.5-24.2 20.8-8.7-.7-18.9-6.9-19-22.1v-26c0-44.5-36.2-80.7-80.7-80.7s-80.7 36.2-80.7 80.7 36.2 80.7 80.7 80.7c21.6 0 41.9-8.5 57.2-23.8 8.9 13.8 23.4 22.5 39.9 23.8 1.4.1 2.9.2 4.3.2 11.6 0 23.1-3.9 32.4-10.9 9.6-7.3 16.7-17.8 20.6-30.4.6-2 1.8-6.7 1.8-6.7v-.2c2.3-10.1 3.4-20.2 3.4-32.7.1-87.9-71.5-159.5-159.5-159.5" fill="#fc2c38"/></svg>