<svg xmlns="http://www.w3.org/2000/svg" width="103" height="20" fill="none" viewBox="0 0 103 20">
    <g clip-path="url(#clip0)">
        <path fill="#784299" fill-rule="evenodd" d="M2.1 4c-.277.001-.552.057-.807.165-.256.107-.488.264-.683.46-.195.198-.35.431-.454.688-.104.257-.158.532-.156.809V17.86c0 .557.221 1.091.615 1.485.394.394.928.615 1.485.615s1.091-.221 1.485-.615c.394-.394.615-.928.615-1.485V6.122c.005-.558-.212-1.094-.603-1.492-.39-.398-.923-.625-1.481-.63H2.1z" clip-rule="evenodd"/>
        <path fill="#2C2D2D" fill-rule="evenodd" d="M0 6.026v1.478c.634 1.8 1.94 4.262 3.446 5.4.23.168.514.322.754.472v-1.48" clip-rule="evenodd" opacity=".4"/>
        <path fill="#EC2D2B" fill-rule="evenodd" d="M16.146 4c-.559.003-1.094.227-1.488.624-.393.396-.614.933-.612 1.492V17.86c0 .557.221 1.091.615 1.485.394.394.928.615 1.485.615s1.091-.221 1.485-.615c.394-.394.615-.928.615-1.485V6.122c.001-.56-.22-1.096-.612-1.494-.394-.397-.929-.623-1.488-.628z" clip-rule="evenodd"/>
        <path fill="#2C2D2D" fill-rule="evenodd" d="M18.244 6.026v1.478c-.634 1.8-1.938 4.262-3.446 5.4-.228.168-.514.322-.754.472v-1.48" clip-rule="evenodd" opacity=".4"/>
        <path fill="#0FB291" fill-rule="evenodd" d="M17.844 4.534c-.186-.257-.43-.465-.711-.61-.282-.143-.595-.218-.911-.218-.878 0-1.784.6-2.042 1.438-.666 2.23-2.548 3.8-4.846 3.876-2.452.094-4.534-1.48-5.248-3.86-.258-.874-1.166-1.458-2.062-1.458-.317-.002-.63.073-.913.217-.282.144-.526.353-.711.611-.194.308-.32.653-.372 1.013-.05.36-.025.727.076 1.077.582 1.9 1.738 3.36 3.264 4.666 1.623 1.335 3.653 2.076 5.754 2.1h.362c4.016-.16 7.516-3.168 8.672-7.054.093-.303.113-.624.058-.936-.054-.313-.18-.608-.37-.862z" clip-rule="evenodd"/>
        <path fill="#000" fill-rule="evenodd" d="M42.642 10.498v7.336c0 .058-.011.115-.034.168-.022.053-.055.101-.096.142-.041.04-.09.072-.143.093-.054.022-.111.032-.169.031h-1.84c-.115-.001-.224-.047-.306-.128-.08-.081-.127-.191-.128-.306V10.68c0-1.736-.924-2.73-2.436-2.73-1.68 0-2.744 1.092-2.744 3.304v6.58c0 .115-.046.225-.128.306-.08.082-.191.127-.306.128h-1.834c-.115-.001-.224-.047-.306-.128-.08-.081-.127-.191-.128-.306V10.68c0-1.736-.854-2.73-2.352-2.73-1.624 0-2.786 1.134-2.786 3.304v6.58c0 .115-.046.225-.128.306-.08.082-.191.127-.306.128h-1.848c-.113-.004-.22-.051-.299-.132-.079-.081-.123-.19-.125-.302V6.186c0-.115.047-.225.128-.306.081-.082.191-.127.306-.128h1.848c.115 0 .226.046.307.127.081.082.127.192.127.307v.63c-.003.03.004.061.02.087.016.027.04.047.068.059.029.011.06.013.09.004s.056-.027.074-.052c.8-.98 1.918-1.484 3.332-1.484 1.526 0 2.66.588 3.444 1.778.07.084.182.098.238 0 .826-1.2 2.072-1.8 3.71-1.8 2.846.022 4.75 1.992 4.75 5.09z" clip-rule="evenodd"/>
        <path fill="#000" d="M46.534 16.686c-1.237-1.242-1.932-2.923-1.932-4.676 0-1.753.695-3.434 1.932-4.676.611-.62 1.342-1.108 2.149-1.435.806-.328 1.67-.487 2.541-.469 1.834 0 3.416.616 4.69 1.904 1.237 1.242 1.932 2.923 1.932 4.676 0 1.753-.694 3.434-1.932 4.676-1.256 1.22-2.939 1.903-4.69 1.903-1.751 0-3.434-.682-4.69-1.903zm4.69-.714c.52.006 1.036-.093 1.517-.29.48-.198.917-.49 1.283-.86.365-.37.653-.81.846-1.292.192-.483.285-1 .274-1.52 0-1.04-.413-2.037-1.148-2.772-.735-.735-1.732-1.148-2.772-1.148-1.04 0-2.037.413-2.772 1.148-.735.735-1.148 1.732-1.148 2.772-.012.52.081 1.037.273 1.52.193.484.48.923.846 1.293.366.37.802.662 1.284.86.48.197.997.295 1.517.289z"/>
        <path fill="#000" fill-rule="evenodd" d="M64.6 10.834c1.932.434 4.452 1.218 4.382 3.906.018.55-.1 1.096-.344 1.59-.245.493-.607.919-1.056 1.238-.933.685-2.097 1.03-3.492 1.032-2.184 0-3.864-.854-4.788-2.31-.048-.077-.08-.163-.094-.253-.015-.09-.011-.182.01-.27.021-.089.06-.172.113-.246.054-.073.121-.136.199-.183l.024-.014 1.078-.616c.153-.095.338-.126.513-.085.176.041.328.15.423.303.49.8 1.344 1.2 2.506 1.2 1.428 0 2.142-.476 2.142-1.4 0-.8-1.05-1.274-2.4-1.6-1.876-.486-4.416-1.228-4.368-3.86-.016-.534.094-1.064.32-1.548s.562-.908.982-1.238c.868-.7 1.974-1.05 3.29-1.05 1.764 0 3.234.7 4.172 1.89.059.07.103.152.13.24.027.087.037.18.028.271-.008.091-.035.18-.078.261-.043.082-.101.153-.172.212-.036.03-.076.058-.118.08l-1 .56c-.148.084-.321.115-.49.087-.168-.028-.321-.113-.434-.241-.462-.6-1.148-.91-2.058-.91-1.036 0-1.834.448-1.834 1.316.042.854 1.106 1.26 2.414 1.638z" clip-rule="evenodd"/>
        <path fill="#000" d="M73.694 13.158c-.096.002-.19.027-.273.073-.084.047-.155.113-.207.193-.053.08-.085.171-.094.266-.009.096.006.192.042.28.616 1.4 1.988 2.142 3.766 2.142 1.26 0 2.254-.42 2.968-1.2.088-.095.205-.156.333-.174.127-.018.257.009.367.076l1.26.728c.13.072.225.192.267.335.04.142.024.295-.047.425-.02.033-.042.064-.066.094-1.218 1.456-2.912 2.2-5.096 2.2-2.03 0-3.682-.616-4.942-1.848-1.26-1.232-1.876-2.828-1.876-4.718 0-1.89.616-3.43 1.848-4.676 1.232-1.246 2.842-1.904 4.76-1.904.845-.021 1.684.139 2.462.47.778.33 1.475.825 2.046 1.448 1.186 1.265 1.832 2.942 1.8 4.676 0 .168-.014.378-.028.616-.013.139-.078.268-.182.36-.104.094-.239.145-.378.144l-8.73-.006zm5.838-2.2c.093 0 .185-.024.267-.068.082-.044.152-.107.205-.185.052-.077.085-.165.095-.258.01-.092-.001-.186-.035-.273-.56-1.512-1.834-2.31-3.374-2.31-1.722 0-2.982.854-3.556 2.282-.055.142-.051.3.01.44.062.14.176.249.318.304.064.024.132.038.2.04h5.88v.028h-.01zM91.64 16.686c-1.237-1.242-1.932-2.923-1.932-4.676 0-1.753.695-3.434 1.932-4.676.611-.62 1.342-1.108 2.149-1.435.806-.328 1.67-.487 2.541-.469 1.834 0 3.416.616 4.69 1.904 1.237 1.242 1.932 2.923 1.932 4.676 0 1.753-.695 3.434-1.932 4.676-1.256 1.22-2.938 1.903-4.69 1.903-1.751 0-3.434-.682-4.69-1.903zm4.676-.714c.52.006 1.036-.093 1.517-.29.48-.198.917-.49 1.283-.86.365-.37.653-.81.846-1.292.192-.483.285-1 .274-1.52 0-1.04-.413-2.037-1.148-2.772-.735-.735-1.732-1.148-2.772-1.148-1.04 0-2.037.413-2.772 1.148-.735.735-1.148 1.732-1.148 2.772-.011.52.082 1.037.275 1.52.192.483.48.922.845 1.292.366.37.802.662 1.283.86.481.197.997.296 1.517.29zM86.354-.008h-.008c-.748 0-1.354.606-1.354 1.354V16.9c0 .748.606 1.354 1.354 1.354h.008c.748 0 1.354-.606 1.354-1.354V1.346c0-.748-.606-1.354-1.354-1.354z"/>
    </g>
    <defs>
        <clipPath id="clip0">
            <path fill="#fff" d="M0 0H103V20H0z"/>
        </clipPath>
    </defs>
</svg>
