<?xml version="1.0" encoding="UTF-8"?>
<svg width="1200pt" height="130pt" version="1.0" viewBox="0 0 1200 130" xmlns="http://www.w3.org/2000/svg">
<g transform="translate(0 130) scale(.1 -.1)">
<path d="m11115 1288c-3-7-4-296-3-643l3-630h100 100l10 590 27 46c55 93 144 148 241 149 95 0 147-33 184-115 16-35 18-79 21-352l4-313h99 99v313c0 249-3 325-15 372-47 178-166 270-350 270-71 0-89-4-147-33-44-21-84-52-117-88l-51-55-2 248-3 248-98 3c-72 2-99-1-102-10z"/>
<path d="m488 1276c-102-37-172-100-217-196-25-54-26-61-29-290l-3-235-98-100c-119-122-135-150-136-231 0-84 38-147 114-186l55-29 1091 6 56 28c75 36 150 117 177 190 21 55 22 74 22 417 0 339-1 362-21 415-27 73-104 156-177 192l-57 28-370 2c-287 2-378 0-407-11zm768-158c45-25 92-82 104-128 7-27 10-152 8-363l-3-322-27-45c-16-28-43-55-70-70l-43-25-512-3c-504-3-513-2-533 18-38 38-27 59 100 192l120 126v247c0 226 2 249 20 285 24 48 73 86 126 99 21 5 182 9 359 8 280-2 324-4 351-19z" fill="#9a74c5"/>
<path d="m2360 964c-73-20-144-67-191-127l-39-49v91 91h-100-100v-480-480h100 100v283c0 275 1 283 24 332 88 188 341 238 426 85l25-45 3-322 3-323h105 104v288c0 158-5 316-11 352-27 168-123 276-277 309-68 14-104 13-172-5z"/>
<path d="m3288 957c-191-67-303-220-315-432-7-111 7-183 53-274 114-228 414-317 604-180 22 16 49 44 60 62l20 32v-72-73h100 100v475 475h-100-100v-67-67l-34 41c-80 92-252 128-388 80zm297-191c51-30 98-96 117-161 17-61 13-184-7-245-20-62-72-123-129-153-58-30-174-30-232 0-52 27-110 93-137 152-32 70-30 198 4 271 32 68 78 116 144 147 70 33 172 29 240-11z"/>
<path d="m4516 964c-74-23-132-68-166-127l-30-52v93 92h-100-100v-480-481l101 3 102 3 2 590 27 51c33 63 95 119 145 133 115 32 214-6 266-104 21-38 22-57 27-355l5-315h100 100l5 295c5 290 5 296 30 344 30 59 99 122 149 136 140 39 258-34 281-175 5-33 10-183 10-332v-273h100 100v318c0 324-4 361-43 454-25 60-100 132-170 164-54 25-74 28-152 28-69 0-103-6-147-23-65-25-145-92-173-145-11-20-22-36-25-36s-14 16-25 36c-29 54-109 120-173 144-75 29-182 35-246 14z"/>
<path d="m6193 966c-222-54-364-238-364-470 0-154 44-261 150-359 177-164 439-179 629-36 28 22 52 43 52 47s-27 31-59 60l-60 52-46-29c-165-105-399-32-449 139l-13 45 363 3 364 2v78c0 136-47 251-139 342-119 117-274 163-428 126zm207-187c76-34 135-104 154-181l6-28h-261-261l6 32c15 77 85 156 163 184 57 20 141 17 193-7z"/>
<path d="m7271 965c-225-63-361-242-361-475 0-142 36-236 128-332 148-156 359-197 547-108 87 41 202 157 179 180-5 5-41 22-80 39l-71 30-46-44c-146-140-385-68-443 133-21 70-15 180 13 243 81 182 296 226 438 90l40-39 78 36c42 19 77 38 77 43 0 18-82 109-125 137-108 72-260 99-374 67z"/>
<path d="m8250 965c-134-37-258-133-314-243-72-143-72-321 0-464 82-163 310-280 482-250 229 41 388 204 411 422 24 238-97 438-317 520-75 29-189 35-262 15zm225-193c123-63 185-233 141-383-43-150-188-236-328-195-116 33-188 134-196 272-6 108 14 175 70 239 60 68 125 97 208 92 39-2 81-12 105-25z"/>
<path d="m9300 962c-88-30-136-59-194-116-90-90-136-209-136-351 0-151 47-270 141-360 169-162 414-173 556-27l43 44v-66-66h100 100v475 475h-100-100v-67-68l-30 37c-17 21-59 51-95 69-83 41-200 49-285 21zm241-176c56-20 103-61 135-118 25-46 29-66 32-155 5-121-11-179-64-242-55-64-104-86-194-86-87 0-132 20-192 82-59 60-82 123-82 223-1 136 50 226 155 279 69 34 145 41 210 17z"/>
<path d="m10453 966c-304-74-458-405-323-694 82-176 308-295 497-264 119 20 256 105 306 191 18 31 18 31-5 40-13 5-50 21-82 35l-60 27-35-36c-57-60-105-80-191-80-64 0-82 4-121 27-57 34-105 88-132 147-32 70-29 198 4 271 83 179 300 227 432 96l42-43 82 35 83 35-18 29c-26 46-116 124-175 151-98 46-202 57-304 33z"/>
</g>
</svg>