<svg height="100.536" viewBox="96.11 84.4 519.53 209.09" width="186.709" xmlns="http://www.w3.org/2000/svg"><path d="M0 0h700.16v377.01H0z" fill="none"/><path d="M118.94 208.92h.26c6.8-6.64 12.34-8.47 20.57-8.47 17.31 0 24.21 10.92 24.21 26.72v39.77h-22.83v-31.36c0-6.15 1-16.94-10.29-16.94-9.28 0-11.92 6.9-11.92 14.93v33.37H96.11v-64.36h22.83zM241.72 239.39H195a13.8 13.8 0 0014 13.5 15.68 15.68 0 0013.18-6.89h19.18c-3.49 15.18-17.81 23.11-31.88 23.11-20.45 0-35.72-12.05-35.72-34.25 0-21.46 14.07-34.38 34.16-34.38 21.41 0 33.8 14.6 33.8 36.56zm-20.05-13.17c-1.11-6.15-6.64-11-12.66-11a13.32 13.32 0 00-13.28 11zM293.68 221a28.36 28.36 0 00-11.86-4.51c-2.62-.3-7.24.31-7.61 3.55-.49 4.36 8.11 5.34 11.24 6 11.62 2.06 21.35 8.82 19.87 22.34-1.84 16.84-18 22.06-32.88 20.37a49.89 49.89 0 01-25-10.29l10-14.9c4.24 3.77 11.6 7.89 17.21 8.53 2.87.33 7.26-.56 7.66-4.05.57-5-8.22-5.94-15.37-7.82s-16.74-8.35-15.44-19.81c1.79-15.71 16.8-21.07 30.76-19.48a51.2 51.2 0 0120.6 6.51zM343.58 267.08h-22.83v-45.55l-10.17-.13v-18.82l10.17.14V183.4h22.83v19.32l10.16-.14v18.82l-10.16.13zM430.42 266.94H408.6v-4.86h-.24c-4.65 4.86-11.11 7-18.3 7-18.23 0-31.35-14.12-31.35-34.38s12.88-34.25 31.11-34.25a30.74 30.74 0 0118.78 6.26v-4.13h21.82zm-51.83-32.11c0 8.5 5.64 15 15.36 15s15.37-6.54 15.37-15c0-8.24-5.65-15.17-15.37-15.17s-15.36 6.93-15.36 15.17z"/><path d="M472.24 269.59a11.95 11.95 0 11-11.95 12 11.95 11.95 0 0111.95-12z" fill="#9b00c3"/><path d="M600.7 150.1a14.94 14.94 0 11-14.94 14.9 14.93 14.93 0 0114.94-14.9z" fill="#ff0041"/><circle cx="564.85" cy="105.31" fill="#ffb819" r="20.91"/><path d="M484.19 209.85a59.75 59.75 0 0059.75 59.74V150.1a59.75 59.75 0 00-59.75 59.75z" fill="#ff5a00"/><path d="M585.76 251.67a41.82 41.82 0 00-41.82-41.82v83.64a41.82 41.82 0 0041.82-41.82z"/></svg>