<?xml version="1.0" standalone="no"?>
<!DOCTYPE svg PUBLIC "-//W3C//DTD SVG 20010904//EN"
 "http://www.w3.org/TR/2001/REC-SVG-20010904/DTD/svg10.dtd">
<svg version="1.0" xmlns="http://www.w3.org/2000/svg"
 width="512.000000pt" height="512.000000pt" viewBox="0 0 512.000000 512.000000"
 preserveAspectRatio="xMidYMid meet">
<metadata>
Created by potrace 1.15, written by Peter Selinger 2001-2017
</metadata>
<g transform="translate(0.000000,512.000000) scale(0.100000,-0.100000)"
fill="#000000" stroke="none">
<path d="M598 2874 c-50 -26 -53 -43 -56 -284 -5 -268 3 -321 51 -351 30 -18
54 -19 364 -19 187 0 343 4 357 10 14 5 33 21 43 37 16 24 18 54 18 288 0 234
-2 264 -18 288 -10 16 -29 32 -43 37 -14 6 -169 10 -357 10 -273 -1 -337 -3
-359 -16z m612 -319 l0 -205 -250 0 -250 0 0 205 0 205 250 0 250 0 0 -205z"/>
<path d="M1690 2555 l0 -335 318 0 c289 0 321 2 359 19 23 11 46 28 52 39 6
12 11 63 11 114 0 102 -18 150 -60 163 -21 7 -21 8 9 26 43 26 53 59 49 162
-3 86 -4 90 -36 118 l-32 29 -335 0 -335 0 0 -335z m578 203 c18 -18 15 -103
-5 -119 -12 -11 -64 -15 -210 -17 l-193 -4 0 76 0 76 198 0 c141 0 201 -3 210
-12z m0 -270 c19 -19 15 -113 -5 -129 -12 -11 -64 -15 -210 -17 l-193 -4 0 81
0 81 198 0 c141 0 201 -3 210 -12z"/>
<path d="M2730 2555 l0 -335 80 0 80 0 0 120 0 120 73 0 73 0 130 -120 129
-119 124 -1 124 0 -149 118 -149 117 65 8 c142 19 155 37 155 218 0 91 -4 133
-15 153 -29 54 -41 56 -395 56 l-325 0 0 -335z m558 193 c19 -19 15 -123 -5
-139 -12 -11 -64 -15 -205 -17 l-188 -4 0 86 0 86 193 0 c137 0 196 -3 205
-12z"/>
<path d="M3770 2555 l0 -335 76 0 77 0 -5 225 -4 225 35 -34 c20 -18 139 -120
264 -225 l228 -191 59 0 60 0 0 335 0 335 -76 0 -77 0 5 -224 4 -223 -20 19
c-12 11 -130 112 -264 224 l-243 204 -60 0 -59 0 0 -335z"/>
</g>
</svg>
