<svg xmlns="http://www.w3.org/2000/svg" width="400" height="400"><path d="M70.519 151.53c10.178 9.303 12.009 24.89 4.338 36.944-10.033 15.764-33.984 17.158-46.361 2.698-3.358-3.924-3.5-2.333-.291 3.264 10.844 18.91 37.516 22.149 51.777 6.288 13.907-15.468 10.091-40.595-7.716-50.812-5.836-3.348-6.504-2.729-1.747 1.618m193.016-1.848c-20.79 7.591-20.476 48.252.428 55.374 4.672 1.592 14.439 1.537 19.269-.108 19.156-6.528 20.722-44.733 2.22-54.171-4.793-2.446-16.604-3.036-21.917-1.095M95.313 177.675v28.575l9.96-.024c24.294-.059 31.836-3.94 31.836-16.382 0-6.023-1.952-9.85-6.19-12.132l-2.712-1.461 3.066-2.624c7.197-6.16 5.463-17.816-3.368-22.643-2.098-1.147-5.004-1.417-17.553-1.63l-15.039-.255v28.576m53.906.059v28.516h39.062V199.219h-30.468v-18.75h26.562V173.438h-26.562V156.25h30.468V149.219h-39.062v28.515m48.437 0v28.516h8.594v-22.656h13.754l6.585 11.328 6.586 11.328h4.506c5.781 0 5.831.305-2.134-13.002-7.787-13.008-7.391-11.476-3.526-13.648 9.034-5.078 10.45-18.002 2.781-25.377-4.49-4.318-7.755-5.004-23.82-5.004h-13.326v28.515m112.5 0v28.516H318.725l.208-21.033.208-21.032 14.843 21.012 14.844 21.012 4.492.02 4.493.021v-57.031h-9.375V190.816l-14.649-20.77-14.648-20.77-4.493-.028-4.492-.029v28.515m-28.36-20.227c5.376 3.982 7.258 9.127 7.258 19.837 0 16.674-6.775 24-19.916 21.535-14.364-2.695-16.679-33.504-3.156-41.998 3.325-2.089 12.648-1.72 15.814.626m-159.124-.077c2.823 1.46 3.891 3.369 3.891 6.959 0 6.132-5.824 9.032-18.165 9.044l-4.492.005V156.25h8.242c5.823 0 8.912.346 10.524 1.18m102.83.097c4.892 2.322 6.654 9.648 3.335 13.868-2.697 3.429-5.664 4.445-14.435 4.941l-8.152.462V156.25h8.28c6.046 0 9.007.345 10.972 1.277m-101.705 24.151c2.965 1.407 4.328 3.936 4.328 8.029 0 6.381-3.869 8.672-15.699 9.296l-8.52.45v-18.984h8.671c6.209 0 9.395.343 11.22 1.209m.41 37.737c-11.13 5.915-7.041 17.941 7.447 21.902 9.936 2.717 11.988 10.139 3.505 12.681-5.287 1.584-12.503-1.911-12.503-6.056 0-.729-1.018-1.067-3.209-1.067-3.109 0-3.194.067-2.681 2.148 3.582 14.528 29.328 13.999 29.328-.603 0-5.735-3.402-9.084-12.183-11.995-7.074-2.346-9.692-4.293-9.692-7.21 0-8.248 13.501-8.674 15.978-.504.852 2.809 5.897 2.554 5.897-.298 0-7.957-13.445-13.484-21.887-8.998m104.722-.209c-11.587 5.026-13.397 29.372-2.785 37.466 6.982 5.326 20.33 2.499 23.144-4.9 2.013-5.295 1.912-5.678-1.485-5.678-2.859 0-3.195.214-3.66 2.334-1.687 7.682-13.27 7.953-17.123.401-2.31-4.528-2.236-15.851.135-20.401 3.878-7.444 15.306-7.168 16.971.41.5 2.28 6.662 4.172 6.651 2.042-.052-9.463-12.101-15.902-21.848-11.674m-76.585 19.466v19.922h6.25V243.75l7.226-.001c11.342-.002 16.211-3.619 16.211-12.041 0-9.849-4.597-12.927-19.336-12.945l-10.351-.013v19.922m42.438-18.602c-.285.778-3.622 9.491-7.416 19.362-8.03 20.896-7.671 19.162-3.968 19.161l2.93-.002 2.837-7.616a987.231 987.231 0 005.775-16.034c1.615-4.63 3.05-8.305 3.188-8.167.253.253 10.262 27.909 11.021 30.453.411 1.377 6.476 2.107 6.476.778 0-.323-3.309-9.2-7.354-19.726l-7.354-19.138-2.809-.243c-2.139-.185-2.932.094-3.326 1.172m62.249 18.602v19.922H283.594v-4.688H263.281V240.625h17.188V235.938h-17.188v-12.5H283.594v-4.688H257.031v19.922m-85.493-14.091c9.439 3.944 5.033 13.889-6.366 14.366l-6.578.276v-15.785h5.103c2.807 0 6.335.514 7.841 1.143" fill-rule="evenodd"/></svg>