<?xml version="1.0" encoding="UTF-8"?>
<svg width="1441px" height="649px" viewBox="0 0 1441 649" version="1.1" xmlns="http://www.w3.org/2000/svg" xmlns:xlink="http://www.w3.org/1999/xlink">
    <title>logo-one-color</title>
    <g id="Page-1" stroke="none" stroke-width="1" fill="none" fill-rule="evenodd">
        <g id="OGMA_Logo" transform="translate(-503.000000, -1789.000000)">
            <g id="logo-one-color" transform="translate(503.663500, 1789.601600)">
                <path d="M1270.815,406.7988 L1188.012,406.8008 C1142.282,406.8008 1105.21,369.7288 1105.21,323.9998 C1105.21,278.2718 1142.282,241.1988 1188.012,241.1988 C1233.742,241.1988 1270.815,278.2698 1270.815,323.9978 L1270.815,406.7988 Z M442.772,406.8048 C397.041,406.8048 359.972,369.7348 359.972,324.0038 C359.972,278.2758 397.041,241.2048 442.772,241.2048 C488.5,241.2048 525.572,278.2758 525.572,324.0038 C525.572,369.7348 488.5,406.8048 442.772,406.8048 L442.772,406.8048 Z M180,406.8258 C134.263,406.8258 97.187,369.7538 97.187,324.0258 C97.187,278.2968 134.263,241.2268 180,241.2268 C225.372,241.2268 262.2,277.7128 262.786,322.9378 C262.783,323.2928 262.772,323.6478 262.772,324.0038 C262.772,324.3698 262.783,324.7338 262.786,325.0998 C262.208,370.3298 225.376,406.8258 180,406.8258 L180,406.8258 Z M1188.011,143.9998 C1126.605,143.9998 1072.394,174.7588 1039.908,221.6988 C1015.959,175.5378 967.734,143.9958 912.138,143.9958 C861.15,143.9958 816.345,170.5328 790.794,210.5388 C765.246,170.5238 720.449,143.9858 669.451,143.9858 C627.537,143.9858 589.82,161.9208 563.527,190.5238 C531.592,161.6148 489.239,144.0038 442.771,144.0038 C390.93,144.0038 344.216,165.9278 311.372,200.9998 C278.528,165.9418 231.828,144.0278 179.999,144.0278 C80.589,144.0278 1.13686838e-13,224.6148 1.13686838e-13,324.0278 C1.13686838e-13,423.4378 80.589,504.0278 179.999,504.0278 C231.838,504.0278 278.549,482.1008 311.393,447.0308 C344.237,482.0898 390.941,504.0038 442.771,504.0038 C471.946,504.0038 499.494,497.0548 523.865,484.7348 C516.091,522.3808 482.686,550.7718 442.771,550.7718 C422.127,550.7718 402.357,543.1328 387.102,529.2638 C367.243,511.2068 336.505,512.6698 318.449,532.5308 C300.392,552.3908 301.856,583.1268 321.715,601.1838 C354.901,631.3558 397.894,647.9708 442.772,647.9708 C541.887,647.9708 622.544,567.4448 622.768,468.3808 L622.772,324.0038 C622.772,323.7878 622.764,323.5738 622.763,323.3598 L622.771,323.3598 L622.759,300.6678 C622.759,267.6858 649.495,240.9508 682.478,240.9508 C715.458,240.9508 742.197,267.6858 742.197,300.6678 L742.197,387.9238 C742.457,414.5428 764.107,436.0448 790.788,436.0448 C817.631,436.0448 839.392,414.2848 839.392,387.4418 L839.394,300.6678 C839.394,267.6858 866.133,240.9508 899.115,240.9508 C932.096,240.9508 958.835,267.6858 958.835,300.6678 L958.839,455.4098 C958.839,482.2378 980.586,503.9868 1007.415,503.9868 L1041.784,503.9898 C1049.509,503.9038 1055.812,497.6578 1056.001,489.9548 L1056.001,446.3338 C1088.876,481.7928 1135.844,503.9998 1188.011,503.9998 L1353.551,503.9998 C1361.471,504.0098 1367.955,497.5368 1367.963,489.6168 L1368.019,323.9978 C1368.019,224.5878 1287.427,143.9998 1188.011,143.9998 L1188.011,143.9998 Z" id="Fill-162" fill="#04353A"></path>
                <path d="M1368.0191,0 C1328.2521,0 1296.0161,32.234 1296.0161,72 C1296.0161,111.764 1328.2521,144 1368.0191,144 C1407.7851,144 1440.0221,111.764 1440.0221,72 C1440.0221,32.234 1407.7851,0 1368.0191,0" id="Fill-163" fill="#00DF39"></path>
            </g>
        </g>
    </g>
</svg>