<?xml version="1.0" encoding="UTF-8"?>
<!DOCTYPE svg PUBLIC "-//W3C//DTD SVG 1.1//EN" "http://www.w3.org/Graphics/SVG/1.1/DTD/svg11.dtd">
<!-- Creator: CorelDRAW 2020 (64-Bit) -->
<svg xmlns="http://www.w3.org/2000/svg" xml:space="preserve" width="1111px" height="313px" version="1.1" style="shape-rendering:geometricPrecision; text-rendering:geometricPrecision; image-rendering:optimizeQuality; fill-rule:evenodd; clip-rule:evenodd"
viewBox="0 0 13300000 3741000"
 xmlns:xlink="http://www.w3.org/1999/xlink"
 xmlns:xodm="http://www.corel.com/coreldraw/odm/2003">
 <defs>
  <style type="text/css">
   <![CDATA[
    .str1 {stroke:#3871C0;stroke-width:28000;stroke-miterlimit:22.9256}
    .str0 {stroke:#666666;stroke-width:28000;stroke-miterlimit:22.9256}
    .fil5 {fill:none;fill-rule:nonzero}
    .fil1 {fill:#21246A}
    .fil2 {fill:#3871C0}
    .fil0 {fill:white}
    .fil4 {fill:#3871C0;fill-rule:nonzero}
    .fil3 {fill:#666666;fill-rule:nonzero}
   ]]>
  </style>
 </defs>
 <g id="Capa_x0020_1">
  <metadata id="CorelCorpID_0Corel-Layer"/>
  <rect class="fil0" width="13300000" height="3741000"/>
  <g id="_2459891568160">
   <path class="fil1" d="M4013000 776000c-144000,29000 -250000,114000 -332000,251000 -177000,371000 -288000,781000 -539000,1299000 -132000,245000 -285000,368000 -467000,439000 204000,13000 404000,12000 604000,14000 219000,-11000 361000,-208000 449000,-393000 138000,-367000 246000,-662000 377000,-1012000 157000,-401000 348000,-542000 598000,-598000l-690000 0z"/>
   <path class="fil2" d="M2987000 776000c-144000,29000 -249000,114000 -331000,251000 -179000,371000 -289000,781000 -540000,1299000 -131000,245000 -284000,368000 -466000,439000 203000,13000 403000,12000 604000,14000 219000,-11000 361000,-208000 448000,-393000 138000,-367000 246000,-662000 378000,-1012000 155000,-401000 348000,-542000 598000,-598000l-691000 0z"/>
   <path class="fil1" d="M2021000 776000c-144000,29000 -249000,114000 -331000,251000 -179000,371000 -290000,781000 -541000,1299000 -130000,245000 -284000,368000 -465000,439000 203000,13000 403000,12000 603000,14000 220000,-11000 362000,-208000 449000,-393000 138000,-367000 246000,-662000 378000,-1012000 155000,-401000 348000,-542000 598000,-598000l-691000 0z"/>
   <path class="fil3 str0" d="M5433000 2406000l0 0 0 -421000c0,-78000 -85000,-117000 -257000,-117000l-268000 0c-173000,0 -261000,39000 -261000,117000l0 421000c0,76000 88000,113000 261000,113000l269000 0c171000,0 256000,-37000 256000,-113000zm170000 4000l0 0c0,166000 -143000,250000 -431000,250000l-264000 0c-111000,0 -203000,-16000 -275000,-45000 -103000,-42000 -154000,-110000 -154000,-205000l0 -428000c0,-169000 143000,-253000 429000,-253000l264000 0c131000,0 227000,13000 287000,36000 97000,38000 144000,110000 144000,217000l0 428000z"/>
   <path class="fil3 str0" d="M6327000 1928000l0 0 -256000 0c-107000,0 -188000,10000 -244000,32000 -82000,34000 -125000,95000 -125000,185000l0 656000c0,40000 21000,59000 61000,59000 37000,0 59000,-1000 68000,-4000 22000,-7000 33000,-25000 33000,-55000l0 -652000c0,-58000 72000,-86000 213000,-86000l252000 0c64000,0 108000,2000 134000,6000 59000,12000 88000,37000 88000,76000l0 283000c0,60000 -61000,90000 -185000,90000l-357000 0 0 134000 357000 0c233000,0 349000,-75000 349000,-227000l0 -283000c0,-142000 -129000,-214000 -388000,-214000z"/>
   <path class="fil3 str0" d="M7707000 1969000l0 0c-61000,-29000 -130000,-43000 -210000,-43000l-300000 0c-98000,0 -180000,16000 -249000,45000 -91000,40000 -138000,103000 -138000,187000l0 270000c0,62000 30000,116000 89000,163000 41000,34000 107000,54000 196000,63000 36000,3000 106000,6000 210000,6000 40000,0 59000,-21000 59000,-61000 0,-49000 -19000,-75000 -59000,-75000l-39000 0 -43000 0c-170000,0 -259000,-45000 -254000,-146000l2000 -218000c0,-68000 107000,-100000 366000,-100000 240000,0 327000,27000 327000,82000l0 90000 -542000 0 0 139000 656000 0c29000,0 45000,-21000 45000,-65000l0 -176000c0,-73000 -40000,-125000 -116000,-161000z"/>
   <path class="fil3 str0" d="M8942000 2599000l0 0c0,40000 -20000,61000 -60000,61000 -38000,0 -61000,-2000 -70000,-6000 -22000,-7000 -32000,-25000 -32000,-55000l0 -466000c0,-34000 -28000,-56000 -82000,-65000 -20000,-3000 -61000,-5000 -122000,-5000l-262000 0c-63000,0 -105000,2000 -124000,5000 -57000,9000 -85000,32000 -85000,67000l0 464000c0,40000 -21000,61000 -59000,61000 -38000,0 -61000,-2000 -70000,-6000 -22000,-7000 -32000,-25000 -32000,-55000l0 -463000c0,-139000 122000,-208000 370000,-208000l262000 0c244000,0 366000,68000 366000,207000l0 464000z"/>
   <path class="fil4 str1" d="M10142000 2429000l0 0c0,49000 -8000,88000 -24000,116000 -42000,76000 -171000,115000 -382000,115000l-588000 0c-39000,0 -59000,-21000 -59000,-61000 0,-27000 3000,-46000 9000,-57000 9000,-15000 25000,-23000 50000,-23000l588000 0c157000,0 237000,-29000 237000,-87000l0 -80000c0,-58000 -76000,-90000 -231000,-94000 -260000,-8000 -403000,-13000 -426000,-17000 -152000,-25000 -229000,-95000 -229000,-204000l0 -71000c0,-111000 60000,-181000 180000,-215000 55000,-14000 161000,-22000 317000,-22000 39000,0 59000,21000 59000,60000l0 19000c0,40000 -20000,60000 -59000,60000l-34000 0 -43000 0c-167000,0 -250000,33000 -250000,97000l0 64000c0,41000 34000,67000 104000,80000 28000,4000 77000,6000 149000,6000l227000 0c102000,0 187000,15000 256000,43000 100000,40000 149000,101000 149000,188000l0 83000z"/>
   <path class="fil4 str1" d="M11108000 2432000l0 0 0 -282000c0,-58000 -66000,-87000 -199000,-87000l-261000 0c-49000,0 -93000,6000 -131000,18000 -56000,18000 -83000,45000 -83000,81000l0 270000c0,35000 28000,60000 85000,76000 37000,11000 80000,16000 129000,16000l261000 0c44000,0 84000,-6000 120000,-18000 53000,-18000 79000,-42000 79000,-74000zm163000 0l0 0c0,82000 -41000,144000 -123000,183000 -63000,29000 -141000,45000 -235000,45000l-266000 0c-93000,0 -173000,-16000 -240000,-45000 -89000,-40000 -134000,-101000 -134000,-183000l0 -270000c0,-80000 44000,-142000 133000,-186000 69000,-32000 149000,-48000 239000,-48000l268000 0c239000,0 358000,77000 358000,232000l0 272000z"/>
   <path class="fil5 str1" d="M11108000 2432000l0 0 0 -282000c0,-58000 -66000,-87000 -199000,-87000l-261000 0c-49000,0 -93000,6000 -131000,18000 -56000,18000 -83000,45000 -83000,81000l0 270000c0,35000 28000,60000 85000,76000 37000,11000 80000,16000 129000,16000l261000 0c44000,0 84000,-6000 120000,-18000 53000,-18000 79000,-42000 79000,-74000l0 0m163000 0l0 0c0,82000 -41000,144000 -123000,183000 -63000,29000 -141000,45000 -235000,45000l-266000 0c-93000,0 -173000,-16000 -240000,-45000 -89000,-40000 -134000,-101000 -134000,-183000l0 -270000c0,-80000 44000,-142000 133000,-186000 69000,-32000 149000,-48000 239000,-48000l268000 0c239000,0 358000,77000 358000,232000l0 272000 0 0"/>
   <path class="fil4 str1" d="M11562000 2599000l0 0c0,40000 -19000,61000 -59000,61000 -37000,0 -60000,-3000 -69000,-6000 -21000,-7000 -33000,-25000 -33000,-55000l0 -810000c0,-39000 21000,-60000 61000,-60000 37000,0 61000,2000 68000,6000 22000,7000 32000,25000 32000,54000l0 810000z"/>
   <path class="fil5 str1" d="M11562000 2599000l0 0c0,40000 -19000,61000 -59000,61000 -37000,0 -60000,-3000 -69000,-6000 -21000,-7000 -33000,-25000 -33000,-55000l0 -810000c0,-39000 21000,-60000 61000,-60000 37000,0 61000,2000 68000,6000 22000,7000 32000,25000 32000,54000l0 810000 0 0"/>
   <path class="fil4 str1" d="M12616000 2450000l0 0c0,140000 -105000,210000 -319000,210000l-545000 0c-40000,0 -59000,-21000 -59000,-61000 0,-50000 19000,-75000 59000,-75000l546000 0c101000,0 151000,-24000 151000,-74000l0 -27000c0,-45000 -45000,-67000 -137000,-67000l-263000 0c-239000,0 -360000,-67000 -360000,-202000l0 -39000c0,-90000 62000,-148000 184000,-172000 49000,-10000 143000,-15000 282000,-15000 40000,0 61000,19000 61000,60000l0 15000c0,40000 -21000,60000 -61000,60000l-116000 0c-59000,0 -95000,1000 -108000,2000 -54000,7000 -81000,23000 -81000,50000l0 38000c0,32000 28000,51000 84000,60000 20000,4000 59000,5000 117000,5000l266000 0c200000,0 299000,66000 299000,198000l0 34000z"/>
   <path class="fil5 str1" d="M12616000 2450000l0 0c0,140000 -105000,210000 -319000,210000l-545000 0c-40000,0 -59000,-21000 -59000,-61000 0,-50000 19000,-75000 59000,-75000l546000 0c101000,0 151000,-24000 151000,-74000l0 -27000c0,-45000 -45000,-67000 -137000,-67000l-263000 0c-239000,0 -360000,-67000 -360000,-202000l0 -39000c0,-90000 62000,-148000 184000,-172000 49000,-10000 143000,-15000 282000,-15000 40000,0 61000,19000 61000,60000l0 15000c0,40000 -21000,60000 -61000,60000l-116000 0c-59000,0 -95000,1000 -108000,2000 -54000,7000 -81000,23000 -81000,50000l0 38000c0,32000 28000,51000 84000,60000 20000,4000 59000,5000 117000,5000l266000 0c200000,0 299000,66000 299000,198000l0 34000 0 0"/>
  </g>
 </g>
</svg>
