<svg width="275" height="424" xmlns="http://www.w3.org/2000/svg" xmlns:xlink="http://www.w3.org/1999/xlink"><defs><linearGradient x1="93.619%" y1="19.802%" x2="3.21%" y2="50%" id="c"><stop stop-color="#5EB3C0" offset="0%"/><stop stop-color="#2F7EC4" offset="100%"/></linearGradient><filter x="-18.3%" y="-8.1%" width="136.6%" height="122%" filterUnits="objectBoundingBox" id="a"><feOffset dy="11" in="SourceAlpha" result="shadowOffsetOuter1"/><feGaussianBlur stdDeviation="12" in="shadowOffsetOuter1" result="shadowBlurOuter1"/><feColorMatrix values="0 0 0 0 0 0 0 0 0 0 0 0 0 0 0 0 0 0 0.1 0" in="shadowBlurOuter1"/></filter><path d="M326 231.946h25c11.046 0 20 8.954 20 20v337c0 11.046-8.954 20-20 20h-25c-11.046 0-20-8.954-20-20v-337c0-11.046 8.954-20 20-20zm99.79 2.038l97 58.09A21 21 0 01533 310.09v74.925a21 21 0 01-10.233 18.03l-97 57.93c-9.957 5.946-22.85 2.694-28.797-7.263a21 21 0 01-2.97-10.767V252c0-11.598 9.402-21 21-21a21 21 0 0110.79 2.984z" id="b"/></defs><g transform="translate(-282 -219)" fill="none" fill-rule="evenodd"><use fill="#000" filter="url(#a)" xlink:href="#b"/><use fill="url(#c)" xlink:href="#b"/></g></svg>