<?xml version="1.0" encoding="UTF-8"?>
<svg width="170px" height="38px" viewBox="0 0 170 38" version="1.1" xmlns="http://www.w3.org/2000/svg" xmlns:xlink="http://www.w3.org/1999/xlink">
    <title>Persona Guide Logo | Template</title>
    <defs>
        <linearGradient x1="26.2502702%" y1="134.02863%" x2="125.086277%" y2="28.7134366%" id="linearGradient-1">
            <stop stop-color="#2989CB" offset="0%"></stop>
            <stop stop-color="#8DC6EC" offset="100%"></stop>
        </linearGradient>
        <linearGradient x1="50%" y1="0%" x2="50%" y2="100%" id="linearGradient-2">
            <stop stop-color="#2989CB" offset="0%"></stop>
            <stop stop-color="#158CDA" offset="100%"></stop>
        </linearGradient>
    </defs>
    <g id="Page-1" stroke="none" stroke-width="1" fill="none" fill-rule="evenodd">
        <g id="Persona-Template-/-Guide" fill-rule="nonzero">
            <g id="Group">
                <g transform="translate(0.000000, 0.900000)">
                    <path d="M26.9877385,0.0103879665 C27.7624522,-0.0862650335 28.4642582,0.502368967 28.555266,1.32513897 C28.563069,1.39568397 28.5661443,1.46672797 28.5644682,1.53773597 L27.8102116,33.491313 C27.7914269,34.287129 27.190552,34.928752 26.4413311,34.953024 L1.48844913,35.761431 C0.70877047,35.786691 0.588698739,35.2239426 0.564911023,34.3959006 C0.56462206,34.3857399 0.646704184,24.3160605 0.811158158,4.18686238 C0.811158158,3.67971038 9.53668494,2.28755224 26.9877385,0.0103879665 Z" id="Rectangle" stroke="#449EDD" stroke-width="0.1" fill="url(#linearGradient-1)"></path>
                    <g id="personaguide" transform="translate(0.000000, 3.960961)">
                        <rect id="Rectangle" fill="url(#linearGradient-2)" x="0" y="0" width="32" height="33" rx="1"></rect>
                        <path d="M22.4068388,24.9377711 C23.7963447,23.7710153 24.72399,22.7887395 25.1897747,21.9909437 C26.0632626,20.494834 26.5,18.7773259 26.5,16.8383678 C26.5,14.875472 26.0632626,13.1519795 25.1897747,11.6678387 C24.3162868,10.183698 23.08493,9.03470302 21.4956672,8.22081936 C19.9064045,7.4069357 18.0805996,7 16.0181976,7 C13.931532,7 12.0935955,7.4069357 10.5043327,8.22081936 C8.91507004,9.03470302 7.68371321,10.183698 6.8102253,11.6678387 C5.93673739,13.1519795 5.5,14.875472 5.5,16.8383678 C5.5,18.7773259 5.93673739,20.494834 6.8102253,21.9909437 C7.52792093,23.2202124 8.48721314,24.2232247 9.6881224,25 L13.3069405,21.4669838 C13.0060288,21.2679451 12.7269391,21.0296743 12.4696707,20.7521711 C11.5597875,19.7707232 11.1048527,18.4900725 11.1048527,16.9101807 C11.1048527,15.3302889 11.5597875,14.0496383 12.4696707,13.0681904 C13.379554,12.0867424 14.5623844,11.5960259 16.0181976,11.5960259 C17.4497472,11.5960259 18.620446,12.0867424 19.5303293,13.0681904 C20.4402125,14.0496383 20.8951473,15.3302889 20.8951473,16.9101807 C20.8951473,18.4900725 20.4402125,19.7707232 19.5303293,20.7521711 C19.2995253,21.0011285 19.051939,21.2185096 18.7875701,21.4043149 L22.4068388,24.9377711 Z" id="Combined-Shape-path" stroke="#FBFEFF" stroke-width="0.5" fill="#FBFEFF"></path>
                    </g>
                </g>
                <g transform="translate(0.000000, 0.900000)">
                    <path d="M26.9877385,0.0103879665 C27.7624522,-0.0862650335 28.4642582,0.502368967 28.555266,1.32513897 C28.563069,1.39568397 28.5661443,1.46672797 28.5644682,1.53773597 L27.8102116,33.491313 C27.7914269,34.287129 27.190552,34.928752 26.4413311,34.953024 L1.48844913,35.761431 C0.70877047,35.786691 0.588698739,35.2239426 0.564911023,34.3959006 C0.56462206,34.3857399 0.646704184,24.3160605 0.811158158,4.18686238 C0.811158158,3.67971038 9.53668494,2.28755224 26.9877385,0.0103879665 Z" id="Rectangle" stroke="#449EDD" stroke-width="0.1" fill="url(#linearGradient-1)"></path>
                    <g id="personaguide" transform="translate(0.000000, 3.960961)">
                        <rect id="Rectangle" fill="url(#linearGradient-2)" x="0" y="0" width="32" height="33" rx="1"></rect>
                        <path d="M22.4068388,24.9377711 C23.7963447,23.7710153 24.72399,22.7887395 25.1897747,21.9909437 C26.0632626,20.494834 26.5,18.7773259 26.5,16.8383678 C26.5,14.875472 26.0632626,13.1519795 25.1897747,11.6678387 C24.3162868,10.183698 23.08493,9.03470302 21.4956672,8.22081936 C19.9064045,7.4069357 18.0805996,7 16.0181976,7 C13.931532,7 12.0935955,7.4069357 10.5043327,8.22081936 C8.91507004,9.03470302 7.68371321,10.183698 6.8102253,11.6678387 C5.93673739,13.1519795 5.5,14.875472 5.5,16.8383678 C5.5,18.7773259 5.93673739,20.494834 6.8102253,21.9909437 C7.52792093,23.2202124 8.48721314,24.2232247 9.6881224,25 L13.3069405,21.4669838 C13.0060288,21.2679451 12.7269391,21.0296743 12.4696707,20.7521711 C11.5597875,19.7707232 11.1048527,18.4900725 11.1048527,16.9101807 C11.1048527,15.3302889 11.5597875,14.0496383 12.4696707,13.0681904 C13.379554,12.0867424 14.5623844,11.5960259 16.0181976,11.5960259 C17.4497472,11.5960259 18.620446,12.0867424 19.5303293,13.0681904 C20.4402125,14.0496383 20.8951473,15.3302889 20.8951473,16.9101807 C20.8951473,18.4900725 20.4402125,19.7707232 19.5303293,20.7521711 C19.2995253,21.0011285 19.051939,21.2185096 18.7875701,21.4043149 L22.4068388,24.9377711 Z" id="Combined-Shape-path" stroke="#FBFEFF" stroke-width="0.5" fill="#FBFEFF"></path>
                    </g>
                </g>
            </g>
            <g id="persona.guide" transform="translate(48.000000, 11.000000)">
                <path d="M5.30744619,20 L5.30744619,19.2778542 L3.4281559,18.9683631 C3.41438821,18.4044017 3.40406244,17.843879 3.39717859,17.286795 C3.39029475,16.7297111 3.38685282,16.176066 3.38685282,15.6258597 L3.38685282,15.6258597 L3.38685282,13.9958735 C3.82741904,14.5048143 4.27831103,14.8555708 4.7395288,15.0481431 C5.20074656,15.2407153 5.66540624,15.3370014 6.13350785,15.3370014 C6.94580182,15.3370014 7.6720477,15.1237964 8.31224549,14.6973865 C8.95244328,14.2709766 9.45840605,13.6691884 9.8301338,12.892022 C10.2018615,12.1148556 10.3877254,11.1966988 10.3877254,10.1375516 C10.3877254,9.06464924 10.2121873,8.14649243 9.86111111,7.38308116 C9.5100349,6.61966988 9.03849137,6.03163686 8.44648051,5.61898212 C7.85446965,5.20632737 7.18673647,5 6.44328098,5 C5.34186543,5 4.3024045,5.51581843 3.3248982,6.5474553 L3.3248982,6.5474553 L3.20098895,5.20632737 L2.89121582,5 L0,6.25859697 L0,6.98074278 L1.63147179,7.16643741 C1.65900717,7.57909216 1.67621679,7.97111417 1.68310064,8.34250344 C1.68998449,8.71389271 1.69342641,9.18156809 1.69342641,9.74552957 L1.69342641,9.74552957 L1.69342641,15.6464924 C1.69342641,16.1966988 1.68998449,16.7503439 1.68310064,17.3074278 C1.67621679,17.8645117 1.66589102,18.4250344 1.65212333,18.9889959 L1.65212333,18.9889959 L0,19.2778542 L0,20 L5.30744619,20 Z M5.72047702,14.1609354 C5.33498158,14.1609354 4.95636998,14.0784044 4.58464223,13.9133425 C4.21291449,13.7482806 3.83430289,13.480055 3.44880745,13.1086657 L3.44880745,13.1086657 L3.44880745,7.31086657 C3.97197983,6.87070151 4.44008144,6.57152682 4.85311227,6.4133425 C5.26614311,6.25515818 5.63098701,6.17606602 5.94764398,6.17606602 C6.70486717,6.17606602 7.32441342,6.53370014 7.80628272,7.24896836 C8.28815203,7.96423659 8.52908668,8.98211829 8.52908668,10.3026135 C8.52908668,11.6368638 8.25373279,12.6134801 7.70302501,13.2324622 C7.15231724,13.8514443 6.49146791,14.1609354 5.72047702,14.1609354 Z M16.4214175,15.3370014 C17.3576207,15.3370014 18.156147,15.1203576 18.8169963,14.6870702 C19.4778456,14.2537827 20.001018,13.6726272 20.3865135,12.9436039 L20.3865135,12.9436039 L19.8908765,12.5515818 C19.5191487,12.9779917 19.1130017,13.3253095 18.6724355,13.5935351 C18.2318693,13.8617607 17.6811615,13.9958735 17.0203122,13.9958735 C16.0290382,13.9958735 15.2305119,13.6657497 14.6247334,13.0055021 C14.0189548,12.3452545 13.7022978,11.3823934 13.6747625,10.1169188 L13.6747625,10.1169188 L20.2626042,10.1169188 C20.3039073,9.97936726 20.3383265,9.81086657 20.3658619,9.61141678 C20.3933973,9.41196699 20.407165,9.19532325 20.407165,8.96148556 C20.407165,8.12242091 20.2350688,7.41059147 19.8908765,6.82599725 C19.5466841,6.24140303 19.0854664,5.7909216 18.5072232,5.47455296 C17.92898,5.15818432 17.2818984,5 16.5659783,5 C15.7123812,5 14.9241807,5.22008253 14.2013768,5.66024759 C13.4785728,6.10041265 12.9003296,6.71251719 12.4666473,7.49656121 C12.0329649,8.28060523 11.8161237,9.20220083 11.8161237,10.261348 C11.8161237,11.8431912 12.2360384,13.0845942 13.0758678,13.9855571 C13.9156971,14.8865199 15.0308804,15.3370014 16.4214175,15.3370014 Z M17.4746461,9.25034388 L13.7160655,9.25034388 C13.7986717,8.4525447 13.9810937,7.81292985 14.2633314,7.33149931 C14.5455691,6.85006878 14.8828776,6.49931224 15.2752569,6.27922971 C15.6676362,6.05914718 16.0565736,5.94910591 16.442069,5.94910591 C16.8688676,5.94910591 17.2509211,6.0522696 17.5882296,6.25859697 C17.9255381,6.46492435 18.1940081,6.73658872 18.3936397,7.0735901 C18.5932713,7.41059147 18.6930871,7.77854195 18.6930871,8.17744154 C18.6930871,8.48005502 18.6139228,8.73452545 18.4555943,8.94085282 C18.2972659,9.14718019 17.9702831,9.25034388 17.4746461,9.25034388 L17.4746461,9.25034388 Z M26.8745395,15.0687758 L26.8745395,14.3259972 L25.1811131,14.0165062 C25.1673454,13.4938102 25.1570196,12.9298487 25.1501357,12.3246217 C25.1432519,11.7193948 25.13981,11.1898212 25.13981,10.735901 L25.13981,10.735901 L25.13981,9.18844567 C25.31879,8.59697387 25.545957,8.08115543 25.8213108,7.64099037 C26.0966647,7.20082531 26.4408571,6.82943604 26.8538879,6.52682256 L26.8538879,6.52682256 L27.1017064,6.75378267 C27.2944541,6.91884457 27.4940857,7.04607978 27.7006011,7.13548831 C27.9071165,7.22489684 28.1273997,7.2696011 28.3614505,7.2696011 C29.1737444,7.2696011 29.5798914,6.76753783 29.5798914,5.76341128 C29.4559822,5.52957359 29.2563506,5.34387895 28.9809967,5.20632737 C28.7056428,5.06877579 28.4096374,5 28.0929804,5 C27.5422726,5 26.9950068,5.23383769 26.4511829,5.70151307 C25.9073589,6.16918845 25.4633508,6.81568088 25.1191584,7.64099037 L25.1191584,7.64099037 L24.8919915,5.20632737 L24.5822183,5 L21.6910025,6.25859697 L21.6910025,6.98074278 L23.3224743,7.16643741 C23.3500097,7.57909216 23.3672193,7.97111417 23.3741032,8.34250344 C23.380987,8.71389271 23.3844289,9.18156809 23.3844289,9.74552957 L23.3841421,10.9757565 C23.383186,11.3855456 23.3798397,11.8454837 23.3741032,12.3555708 C23.3672193,12.9676754 23.3568935,13.5350757 23.3431258,14.0577717 L23.3431258,14.0577717 L21.8562149,14.3259972 L21.8562149,15.0687758 L26.8745395,15.0687758 Z M33.2180047,15.3370014 C34.1129048,15.3370014 34.8563603,15.1994498 35.4483711,14.9243466 C36.040382,14.6492435 36.4878321,14.2881706 36.7907213,13.8411279 C37.0936106,13.3940853 37.2450553,12.909216 37.2450553,12.3865199 C37.2450553,11.7400275 37.0282141,11.1691884 36.5945317,10.6740028 C36.1608493,10.1788171 35.4277196,9.73865199 34.3951425,9.35350757 L34.3951425,9.35350757 L33.7549447,9.12654746 C33.0527923,8.86519945 32.5605972,8.6176066 32.2783595,8.38376891 C31.9961218,8.14993122 31.8550029,7.80605227 31.8550029,7.35213205 C31.8550029,6.92572215 32.0167733,6.58528198 32.3403141,6.33081155 C32.663855,6.07634113 33.1422823,5.94910591 33.7755963,5.94910591 C34.2574656,5.94910591 34.732451,6.06602476 35.2005526,6.29986245 L35.2005526,6.29986245 L35.5309773,7.95048143 L36.6048575,7.95048143 L36.6874636,5.84594223 C36.2468974,5.57083906 35.7960054,5.3610729 35.3347877,5.21664374 C34.8735699,5.07221458 34.3607233,5 33.7962478,5 C33.0252569,5 32.3712914,5.13755158 31.8343514,5.41265475 C31.2974113,5.68775791 30.8912643,6.04539202 30.6159104,6.48555708 C30.3405565,6.92572215 30.2028796,7.4002751 30.2028796,7.90921596 C30.2028796,8.61072902 30.4300465,9.18156809 30.8843805,9.62173315 C31.3387144,10.0618982 31.9444929,10.4195323 32.7017161,10.6946355 L32.7017161,10.6946355 L33.651687,11.045392 C34.2987687,11.2654746 34.780638,11.5096286 35.0972949,11.7778542 C35.4139519,12.0460798 35.5722804,12.4002751 35.5722804,12.8404402 C35.5722804,13.3081155 35.3829746,13.6863824 35.004363,13.9752407 C34.6257514,14.264099 34.0440663,14.4085282 33.2593077,14.4085282 C32.6259938,14.4085282 32.0684022,14.2984869 31.5865329,14.0784044 L31.5865329,14.0784044 L31.1941536,12.2833563 L30.0583188,12.2833563 L30.140925,14.5529574 C30.6503296,14.8143054 31.1459666,15.0103164 31.627836,15.1409904 C32.1097053,15.2716644 32.6397615,15.3370014 33.2180047,15.3370014 Z M43.2787473,15.3370014 C44.0772736,15.3370014 44.8379387,15.147868 45.5607427,14.7696011 C46.2835466,14.3913343 46.8755575,13.8204952 47.3367753,13.0570839 C47.797993,12.2936726 48.0286019,11.3480055 48.0286019,10.2200825 C48.0286019,9.0784044 47.797993,8.11898212 47.3367753,7.34181568 C46.8755575,6.56464924 46.2835466,5.98005502 45.5607427,5.58803301 C44.8379387,5.196011 44.0772736,5 43.2787473,5 C42.4802211,5 41.7195559,5.196011 40.996752,5.58803301 C40.273948,5.98005502 39.6853791,6.56464924 39.2310452,7.34181568 C38.7767113,8.11898212 38.5495443,9.0784044 38.5495443,10.2200825 C38.5495443,11.3480055 38.7767113,12.2936726 39.2310452,13.0570839 C39.6853791,13.8204952 40.273948,14.3913343 40.996752,14.7696011 C41.7195559,15.147868 42.4802211,15.3370014 43.2787473,15.3370014 Z M43.2787473,14.4085282 C42.3838472,14.4085282 41.6989044,14.0543329 41.2239189,13.3459422 C40.7489335,12.6375516 40.5114408,11.5955983 40.5114408,10.2200825 C40.5114408,8.83081155 40.7489335,7.77166437 41.2239189,7.04264099 C41.6989044,6.31361761 42.3838472,5.94910591 43.2787473,5.94910591 C44.1736475,5.94910591 44.8620322,6.31361761 45.3439015,7.04264099 C45.8257708,7.77166437 46.0667054,8.83081155 46.0667054,10.2200825 C46.0667054,11.5955983 45.8257708,12.6375516 45.3439015,13.3459422 C44.8620322,14.0543329 44.1736475,14.4085282 43.2787473,14.4085282 Z M54.1449001,15.0687758 L54.1449001,14.3259972 L52.7199438,14.0371389 C52.7061761,13.5144429 52.6958503,12.9470426 52.6889665,12.3349381 C52.6820826,11.7228336 52.6786407,11.1898212 52.6786407,10.735901 L52.6786407,10.735901 L52.6786407,7.72352132 C53.2018131,7.28335626 53.6836824,6.96698762 54.1242486,6.77441541 C54.5648148,6.58184319 55.0191487,6.48555708 55.4872503,6.48555708 C56.0930289,6.48555708 56.5301532,6.66437414 56.7986232,7.02200825 C57.0670933,7.37964237 57.2013283,8.03301238 57.2013283,8.98211829 L57.2013283,8.98211829 L57.2010415,10.9757565 C57.2000854,11.3855456 57.1967391,11.8454837 57.1910025,12.3555708 C57.1841187,12.9676754 57.1737929,13.5281981 57.1600252,14.0371389 L57.1600252,14.0371389 L55.6318111,14.3259972 L55.6318111,15.0687758 L60.4229688,15.0687758 L60.4229688,14.3259972 L58.9773609,14.0371389 C58.9635932,13.5144429 58.9532674,12.9504814 58.9463836,12.3452545 C58.9394997,11.7400275 58.9360578,11.2035763 58.9360578,10.735901 L58.9360578,10.735901 L58.9360578,8.8170564 C58.9360578,7.46905089 58.7192166,6.49587345 58.2855342,5.89752407 C57.8518519,5.29917469 57.1875606,5 56.2926605,5 C55.6593465,5 55.0122649,5.17193948 54.3514156,5.51581843 C53.6905662,5.85969739 53.1054392,6.30674003 52.5960345,6.85694635 L52.5960345,6.85694635 L52.4308222,5.20632737 L52.1210491,5 L49.2298332,6.25859697 L49.2298332,6.98074278 L50.861305,7.16643741 C50.8888404,7.57909216 50.90605,7.97111417 50.9129339,8.34250344 C50.9198177,8.71389271 50.9232596,9.18156809 50.9232596,9.74552957 L50.9228466,11.0247593 C50.9217452,11.4209078 50.918441,11.8610729 50.9129339,12.3452545 C50.90605,12.9504814 50.8957243,13.5144429 50.8819566,14.0371389 L50.8819566,14.0371389 L49.3537425,14.3259972 L49.3537425,15.0687758 L54.1449001,15.0687758 Z M64.3089005,15.3370014 C64.9146791,15.3370014 65.4309676,15.1994498 65.8577661,14.9243466 C66.2845647,14.6492435 66.7802017,14.2365887 67.3446771,13.6863824 C67.4272833,14.1678129 67.6337987,14.5529574 67.9642234,14.8418157 C68.2946481,15.130674 68.7076789,15.2751032 69.2033159,15.2751032 C69.5612759,15.2751032 69.8882587,15.196011 70.1842641,15.0378267 C70.4802695,14.8796424 70.7521815,14.6011004 71,14.2022008 L71,14.2022008 L70.5869692,13.7482806 C70.4768276,13.8858322 70.3598022,13.9958735 70.235893,14.0784044 C70.1119837,14.1609354 69.9605391,14.2022008 69.781559,14.2022008 C69.5612759,14.2022008 69.3822959,14.1093535 69.244619,13.9236589 C69.106942,13.7379642 69.0381035,13.4250344 69.0381035,12.9848693 L69.0381035,12.9848693 L69.0381035,8.59009629 C69.0381035,7.28335626 68.7765174,6.35832187 68.253345,5.81499312 C67.7301726,5.27166437 66.9247625,5 65.8371146,5 C64.7907698,5 63.9061955,5.2303989 63.1833915,5.6911967 C62.4605876,6.1519945 62.0028117,6.77441541 61.810064,7.55845942 C61.8789025,8.12242091 62.2024433,8.40440165 62.7806864,8.40440165 C63.3038588,8.40440165 63.6618189,8.07427785 63.8545666,7.41403026 L63.8545666,7.41403026 L64.2469459,6.07290234 C64.467229,6.01788171 64.6703025,5.98349381 64.8561664,5.96973865 C65.0420303,5.95598349 65.2106845,5.94910591 65.3621291,5.94910591 C66.0505139,5.94910591 66.5461509,6.11416781 66.8490401,6.44429161 C67.1519294,6.77441541 67.3033741,7.44154058 67.3033741,8.44566713 L67.3033741,8.44566713 L67.3033741,8.96148556 C66.8903432,9.05777166 66.4773124,9.16781293 66.0642816,9.29160935 C65.6512507,9.41540578 65.2864068,9.53232462 64.9697499,9.64236589 C64.0473143,9.97248968 63.3382781,10.3026135 62.8426411,10.6327373 C62.3470041,10.9628611 62.0062536,11.2998624 61.8203898,11.6437414 C61.6345259,11.9876204 61.5415939,12.3590096 61.5415939,12.7579092 C61.5415939,13.610729 61.8135059,14.2537827 62.3573298,14.6870702 C62.9011538,15.1203576 63.5516773,15.3370014 64.3089005,15.3370014 Z M65.0317045,13.9752407 C64.5636029,13.9752407 64.1712236,13.8583219 63.8545666,13.6244842 C63.5379096,13.3906465 63.3795812,12.9986245 63.3795812,12.4484182 C63.3795812,12.2420908 63.4243262,12.0220083 63.5138162,11.7881706 C63.6033062,11.5543329 63.792612,11.3136176 64.0817336,11.0660248 C64.3708551,10.8184319 64.8114214,10.5777166 65.4034322,10.343879 C65.6237153,10.261348 65.9059531,10.1616231 66.2501454,10.0447043 C66.5943378,9.92778542 66.945414,9.82118294 67.3033741,9.72489684 L67.3033741,9.72489684 L67.3033741,12.8817056 C66.8903432,13.1843191 66.5530347,13.414718 66.2914485,13.5729023 C66.0298623,13.7310867 65.8061373,13.8376891 65.6202734,13.8927098 C65.4344095,13.9477304 65.2382199,13.9752407 65.0317045,13.9752407 Z" id="persona" fill="#161C2D"></path>
                <path d="M74.7061878,15.3783231 C74.9277369,15.3783231 75.1008222,15.3067485 75.2254435,15.1635992 C75.3500649,15.0204499 75.4123756,14.8670757 75.4123756,14.7034765 C75.4123756,14.5126108 75.3500649,14.3524199 75.2254435,14.2229039 C75.1008222,14.0933879 74.9277369,14.0286299 74.7061878,14.0286299 C74.4846387,14.0286299 74.3115534,14.0933879 74.1869321,14.2229039 C74.0623107,14.3524199 74,14.5126108 74,14.7034765 C74,14.8670757 74.0623107,15.0204499 74.1869321,15.1635992 C74.3115534,15.3067485 74.4846387,15.3783231 74.7061878,15.3783231 Z M80.0365839,20 C81.1720231,20 82.1205303,19.8295842 82.8821053,19.4887526 C83.6436804,19.1479209 84.2148617,18.7048398 84.5956493,18.1595092 C84.9764368,17.6141786 85.1668306,17.0483981 85.1668306,16.4621677 C85.1668306,15.6305385 84.8968176,14.9829584 84.3567916,14.5194274 C83.8167657,14.0558964 82.9721097,13.8241309 81.8228236,13.8241309 L81.8228236,13.8241309 L79.1019236,13.8241309 C78.6172849,13.8241309 78.2953464,13.7423313 78.1361079,13.5787321 C77.9768695,13.4151329 77.8972503,13.1970007 77.8972503,12.9243354 C77.8972503,12.4880709 78.0703355,12.0518064 78.416506,11.6155419 C78.9011447,11.7655078 79.413477,11.8404908 79.953503,11.8404908 C81.0335549,11.8404908 81.9301365,11.5507839 82.6432477,10.9713701 C83.3563589,10.3919564 83.7129145,9.56373551 83.7129145,8.48670757 C83.7129145,7.75051125 83.5536761,7.13019768 83.2351992,6.62576687 L83.2351992,6.62576687 L85.2706817,6.62576687 L85.2706817,5.33742331 L84.9591283,5.13292434 L82.6120924,5.93047035 C81.947445,5.39877301 81.068172,5.13292434 79.9742732,5.13292434 C78.8942213,5.13292434 77.9976397,5.42263122 77.2845285,6.00204499 C76.5714173,6.58145876 76.2148617,7.40967962 76.2148617,8.48670757 C76.2148617,9.18200409 76.3567916,9.76823449 76.6406514,10.2453988 C76.9245112,10.7225631 77.3156839,11.0974778 77.8141694,11.3701431 C77.3018371,11.8473074 76.9383581,12.263122 76.7237323,12.6175869 C76.5091066,12.9720518 76.4017938,13.3128834 76.4017938,13.6400818 C76.4017938,14.4308112 76.8587388,14.9488753 77.7726289,15.194274 C77.0110539,15.5623722 76.481413,15.9338787 76.1837064,16.3087935 C75.8859998,16.6837082 75.7371465,17.0892979 75.7371465,17.5255624 C75.7371465,18.2481254 76.0763935,18.8411725 76.7548877,19.3047035 C77.4333818,19.7682345 78.5272806,20 80.0365839,20 Z M79.9119626,11.0224949 C79.2750089,11.0224949 78.7799851,10.7907294 78.4268912,10.3271984 C78.0737973,9.86366735 77.8972503,9.25698705 77.8972503,8.50715746 C77.8972503,7.75732788 78.0841824,7.14723926 78.4580465,6.67689162 C78.8319106,6.20654397 79.3442429,5.97137014 79.9950435,5.97137014 C80.645844,5.97137014 81.1477912,6.19972733 81.5008851,6.65644172 C81.853979,7.1131561 82.0305259,7.70279482 82.0305259,8.42535787 C82.0305259,9.17518746 81.8435939,9.79550102 81.4697298,10.2862986 C81.0958656,10.7770961 80.5766099,11.0224949 79.9119626,11.0224949 Z M80.1196648,19.0593047 C79.3027025,19.0593047 78.651902,18.9161554 78.1672633,18.6298569 C77.6826246,18.3435583 77.4403053,17.866394 77.4403053,17.198364 C77.4403053,16.8575324 77.5026159,16.540559 77.6272373,16.2474438 C77.7518587,15.9543286 77.959561,15.657805 78.2503442,15.3578732 C78.3888124,15.3715065 78.5307423,15.3817314 78.6761339,15.3885481 C78.8215255,15.3953647 78.9634554,15.398773 79.1019236,15.398773 L79.1019236,15.398773 L81.5320404,15.398773 C82.2797687,15.398773 82.8128712,15.5521472 83.1313481,15.8588957 C83.4498249,16.1656442 83.6090634,16.5439673 83.6090634,16.993865 C83.6090634,17.5664622 83.3113568,18.0538514 82.7159435,18.4560327 C82.1205303,18.858214 81.255104,19.0593047 80.1196648,19.0593047 Z M89.5304669,15.3783231 C90.1674206,15.3783231 90.8009126,15.2249489 91.4309429,14.9182004 C92.0609732,14.6114519 92.6529247,14.1240627 93.2067975,13.4560327 L93.2067975,13.4560327 L93.4144998,15.2760736 L96.3015617,15.1124744 L96.3015617,14.3762781 L94.8891861,14.0899796 L94.8891861,8.34355828 L94.9514968,5.4805726 L94.7437945,5.27607362 L91.7321112,5.56237219 L91.7321112,6.29856851 L93.2067975,6.58486708 L93.1444868,12.597137 C92.1752095,13.4832993 91.2059321,13.9263804 90.2366547,13.9263804 C89.682782,13.9263804 89.2673774,13.7457396 88.990441,13.3844581 C88.7135046,13.0231766 88.5750364,12.3994547 88.5750364,11.5132924 L88.5750364,11.5132924 L88.5750364,8.34355828 L88.6788875,5.4805726 L88.4711852,5.27607362 L85.4179615,5.56237219 L85.4179615,6.29856851 L86.8926478,6.60531697 L86.8303371,11.6973415 C86.8164903,13.0470348 87.0518862,13.997955 87.5365249,14.5501022 C88.0211636,15.1022495 88.6858109,15.3783231 89.5304669,15.3783231 Z M99.3359034,2.88343558 C99.7236143,2.88343558 100.052476,2.7607362 100.322489,2.51533742 C100.592502,2.26993865 100.727509,1.95637355 100.727509,1.57464213 C100.727509,1.17927744 100.592502,0.862304022 100.322489,0.623721881 C100.052476,0.385139741 99.7236143,0.265848671 99.3359034,0.265848671 C98.9481924,0.265848671 98.6193305,0.385139741 98.3493175,0.623721881 C98.0793045,0.862304022 97.944298,1.17927744 97.944298,1.57464213 C97.944298,1.95637355 98.0793045,2.26993865 98.3493175,2.51533742 C98.6193305,2.7607362 98.9481924,2.88343558 99.3359034,2.88343558 Z M101.70371,15.1124744 L101.70371,14.3762781 L100.249793,14.0899796 C100.235947,13.5719155 100.225562,13.0095433 100.218638,12.402863 C100.211715,11.7961827 100.208253,11.2678937 100.208253,10.8179959 L100.208253,8.11860941 L100.270564,5.33742331 L99.9590103,5.13292434 L96.7603949,6.3803681 L96.7603949,7.09611452 L98.4220133,7.2801636 C98.4497069,7.68916155 98.4670155,8.08111793 98.4739389,8.45603272 C98.4808623,8.83094751 98.484324,9.29788684 98.484324,9.85685072 L98.4840355,11.0494774 C98.4830739,11.4461675 98.4797084,11.8972961 98.4739389,12.402863 C98.4670155,13.0095433 98.4566303,13.5719155 98.4427835,14.0899796 L98.4427835,14.0899796 L96.8850163,14.3762781 L96.8850163,15.1124744 L101.70371,15.1124744 Z M106.669683,15.3783231 C107.320483,15.3783231 107.877818,15.2488071 108.341686,14.9897751 C108.805554,14.730743 109.217497,14.3694615 109.577515,13.9059305 L109.577515,13.9059305 L109.722906,15.3169734 L112.942292,15.1124744 L112.942292,14.3762781 L111.259903,14.1308793 L111.259903,3.06748466 L111.342984,0.163599182 L111.052201,0 L107.812045,0.920245399 L107.812045,1.63599182 L109.577515,1.8404908 L109.577515,6.46216769 C109.148263,5.95773688 108.708627,5.61008862 108.258605,5.4192229 C107.808583,5.22835719 107.341253,5.13292434 106.856615,5.13292434 C106.011959,5.13292434 105.257307,5.35105658 104.59266,5.78732106 C103.928012,6.22358555 103.401833,6.83026585 103.014122,7.60736196 C102.626411,8.38445808 102.432556,9.29788684 102.432556,10.3476483 C102.432556,11.3428766 102.609103,12.2188139 102.962197,12.9754601 C103.315291,13.7321063 103.810314,14.3217451 104.447268,14.7443763 C105.084222,15.1670075 105.825027,15.3783231 106.669683,15.3783231 Z M107.188938,14.2126789 C106.358129,14.2126789 105.66925,13.8957055 105.1223,13.2617587 C104.575351,12.6278119 104.301876,11.6428085 104.301876,10.3067485 C104.301876,9.37968643 104.433421,8.6196319 104.696511,8.02658487 C104.9596,7.43353783 105.309233,6.99727335 105.745407,6.71779141 C106.181582,6.43830948 106.655836,6.29856851 107.168168,6.29856851 C107.514339,6.29856851 107.874356,6.37355147 108.24822,6.52351738 C108.622084,6.6734833 109.044412,6.95296524 109.515204,7.36196319 L109.515204,7.36196319 L109.515204,13.0265849 C109.127493,13.4492161 108.757091,13.7525562 108.403997,13.9366053 C108.050903,14.1206544 107.645883,14.2126789 107.188938,14.2126789 Z M117.991346,15.3783231 C118.932929,15.3783231 119.736045,15.1635992 120.400692,14.7341513 C121.06534,14.3047035 121.591519,13.728698 121.97923,13.006135 L121.97923,13.006135 L121.480744,12.6175869 C121.10688,13.0402181 120.698399,13.3844581 120.255301,13.6503067 C119.812203,13.9161554 119.25833,14.0490798 118.593682,14.0490798 C117.596711,14.0490798 116.793596,13.7218814 116.184336,13.0674847 C115.575076,12.4130879 115.256599,11.4587594 115.228905,10.204499 L115.228905,10.204499 L121.854608,10.204499 C121.896149,10.0681663 121.930766,9.90115883 121.95846,9.70347648 C121.986153,9.50579414 122,9.29107021 122,9.0593047 C122,8.22767553 121.826915,7.52215406 121.480744,6.94274029 C121.134574,6.36332652 120.670705,5.91683708 120.089139,5.60327198 C119.507572,5.28970688 118.856772,5.13292434 118.136737,5.13292434 C117.278235,5.13292434 116.485504,5.35105658 115.758546,5.78732106 C115.031588,6.22358555 114.450022,6.83026585 114.013847,7.60736196 C113.577672,8.38445808 113.359585,9.29788684 113.359585,10.3476483 C113.359585,11.9154738 113.781913,13.1458759 114.626569,14.0388548 C115.471225,14.9318337 116.592817,15.3783231 117.991346,15.3783231 Z M119.050627,9.34560327 L115.270446,9.34560327 C115.353527,8.55487389 115.536997,7.92092706 115.820857,7.44376278 C116.104717,6.9665985 116.443964,6.61895024 116.838598,6.400818 C117.233232,6.18268575 117.624405,6.07361963 118.012116,6.07361963 C118.441367,6.07361963 118.825617,6.17586912 119.164864,6.3803681 C119.504111,6.58486708 119.774124,6.85412406 119.974903,7.18813906 C120.175682,7.52215406 120.276071,7.8868439 120.276071,8.28220859 C120.276071,8.58214042 120.196452,8.83435583 120.037213,9.03885481 C119.877975,9.24335378 119.549113,9.34560327 119.050627,9.34560327 L119.050627,9.34560327 Z" id=".guide" fill="#5A606C"></path>
            </g>
        </g>
    </g>
</svg>