<svg xmlns="http://www.w3.org/2000/svg" viewBox="0 0 566.9 81.1"><defs><style>.cls-1{fill:#001a2a;}.cls-2{fill:#869ba7;}</style></defs><g id="Layer_2" data-name="Layer 2"><g id="Layer_1-2" data-name="Layer 1"><g id="Logo_RZ" data-name="Logo RZ"><path class="cls-1" d="M24.7,15.1c-6,0-11.1,2.9-13.6,6.2V16.2H0V81.1H11.1V57.7c2.9,3.6,7.4,6,13.6,6,12.4,0,20.6-10.2,20.6-24.2C45.3,25.3,37.3,15.1,24.7,15.1ZM22.4,54.2c-7,0-11.8-5.8-11.8-14.7s4.8-14.8,11.8-14.8,11.8,5.5,11.8,14.8S29.5,54.2,22.4,54.2Z"/><path class="cls-1" d="M79.1,15.1c-7,0-12.3,3-14.4,7.1V0H53.6V62.7h11V37.8c0-7.5,3.3-12.9,10.2-12.9,4.8,0,7.2,2,8.2,5.4a32.93,32.93,0,0,1,.8,8.9V62.7H94.9V36.4c0-9-1-12.5-3.1-15.5C88.7,16.7,84.3,15.1,79.1,15.1Z"/><rect class="cls-1" x="155.3" width="11.1" height="62.7"/><rect class="cls-1" x="178.2" width="11.1" height="62.7"/><path class="cls-1" d="M220.3,15.2c-14.1,0-23.2,9.6-23.2,24.5s9,24.2,23.2,24.2,23.2-9.4,23.2-24.2S234.5,15.2,220.3,15.2Zm0,39.1c-7.1,0-12.2-5.6-12.2-14.8s4.9-14.8,12.2-14.8,12.2,5.5,12.2,14.8S227.5,54.3,220.3,54.3Z"/><path class="cls-1" d="M296.1,36.5c-1.7,6-2.3,8.8-3.2,13.4h-.1c-.9-4.8-1.6-7.1-3.1-13.1l-5.4-20.5h-9.8l-5.4,20.2c-1.5,5.5-2.2,8.8-3.1,13.4h-.1c-.9-4.8-2-8.5-3.1-13.1l-5.5-20.5H246l13.4,46.4h11l5.2-17.5c1.4-4.9,2.7-11.1,3.7-15.7h.1A152.07,152.07,0,0,0,282.9,45l4.9,17.7h10.8l14.1-46.4H301.6Z"/><path class="cls-1" d="M125.4,15.2c-13,0-22.8,9.6-22.8,23.9,0,15,9.4,24.8,23.1,24.8,11.5,0,17.8-6.1,20.6-10l-7.7-5.8a15,15,0,0,1-12.4,6.2c-8.2,0-12.1-5.5-12.9-11.8h33.8c0-.8.1-2,.1-2.8C147.3,25.5,140.2,15.2,125.4,15.2ZM113.7,34.3c.3-5.6,5.4-10.1,11.7-10.1s10.6,4.1,10.9,10.1Z"/><path class="cls-2" d="M362.3,50.3c0-8-6.2-10.6-14.3-12.6l-5.6-1.4c-6.9-1.7-10.5-3.6-10.5-9.3s5.2-8.8,11.8-8.9a17.21,17.21,0,0,1,13.9,6.7l2.2-2.8c-3.2-3.9-8.2-7-15.8-7-8.9.1-16,4.4-16,12.3,0,7.4,5.2,10.3,12.7,12.1l6.7,1.7c6.3,1.5,10.9,3.2,11,9.5,0,5.8-4.3,9.9-13.2,10a20,20,0,0,1-16.4-8l-2.5,2.7c3,4,9.6,8.5,18.5,8.5C355.2,63.9,362.3,58.8,362.3,50.3Z"/><path class="cls-2" d="M415.3,52.4l-2.5-2.5c-2.4,4.6-6.5,10.7-16.6,10.7-11.7,0-17.4-9.1-17.4-20.4v-.9H415v-.9c0-13.5-7.2-23.3-19.6-23.3S374.9,25,374.9,39.7c0,15.1,8.4,24.2,21.2,24.2A21,21,0,0,0,415.3,52.4ZM395.4,18.3c9.9,0,15.5,9.1,15.6,17.9H378.9C380.1,25,386.1,18.3,395.4,18.3Z"/><path class="cls-2" d="M460.1,16.3,448,47.9c-1.6,4-3,8.5-3.3,9.6h-.1c-.3-1.1-1.7-5.7-3-9.5L430.1,16.3h-4L443,62.7h2.9l18-46.4Z"/><path class="cls-2" d="M495,60.6c-11.7,0-17.4-9.1-17.4-20.4v-.9h36.2v-.9c0-13.5-7.2-23.3-19.6-23.3S473.7,25,473.7,39.7c0,15.1,8.4,24.2,21.2,24.2a20.83,20.83,0,0,0,19.2-11.5l-2.5-2.5C509.1,54.4,505,60.6,495,60.6Zm-.8-42.3c9.9,0,15.5,9.1,15.6,17.9H477.7C478.9,25,484.9,18.3,494.2,18.3Z"/><path class="cls-2" d="M564.6,21.9c-2.3-4.2-6.4-6.7-13.1-6.7-9.1,0-14,5.3-15.7,9.8h-.1V16.3h-3.6V62.7h3.6V34.6a17.72,17.72,0,0,1,4.3-12,14.57,14.57,0,0,1,10.6-4.2c11.3,0,12.7,7.5,12.7,18.9V62.6h3.6V34.3C566.9,28.9,566.2,24.9,564.6,21.9Z"/></g></g></g></svg>