<svg height="143.87273mm" viewBox="0 0 399.99996 509.78525" width="112.88889mm" xmlns="http://www.w3.org/2000/svg"><g transform="translate(836.93147 -423.84651)"><path d="m-649.43999 933.21423c-7.153-.431-14.1926-1.2464-20.5979-2.3858-3.7117-.6602-6.0409-1.1326-12.7759-2.5908-6.6264-1.4347-20.8541-5.6624-24.5089-7.2826-.8604-.3814-4.1729-1.7479-7.3612-3.0366-6.7347-2.7221-18.188-8.3767-22.3174-11.0183-1.5746-1.0072-3.0009-1.8313-3.1698-1.8313-.1687 0-.9426-.4377-1.7198-.9727-.777-.535-2.8208-1.8701-4.5417-2.9669-10.762-6.8594-21.4694-15.646-32.0701-26.3169-10.6328-10.7033-19.261-21.2536-25.7913-31.5372-1.0928-1.7208-2.4246-3.7646-2.9595-4.5417-.535-.7771-.9727-1.5325-.9727-1.6787 0-.1463-1.1525-2.217-2.5609-4.6016-3.387-5.7342-7.7268-14.5882-10.4383-21.2955-1.2069-2.9854-2.5056-6.132-2.8861-6.9924-1.622-3.6684-6.5133-20.3505-7.4048-25.2545-.1267-.6969-.3363-1.4388-.466-1.6485-.2741-.4435-1.6314-7.4816-2.1027-10.9032-.1777-1.2907-.4074-2.816-.5104-3.3896-2.0631-11.4907-1.9857-5.3877-2.1653-170.8405l-.1708-157.28244 4.8359-.6243c11.7466-1.51646 50.5178-4.90198 52.6528-4.59768.7736.11025 1.3156.0534 1.2045-.12639-.1111-.17978 6.5304-.73625 14.7589-1.2366s16.3689-1.00204 18.0898-1.11486c4.8147-.31566 17.0441-.93598 35.7203-1.81185 46.0127-2.15789 107.0194-1.95698 158.7863.52293 19.2566.92249 49.87283 2.76856 60.22929 3.63163 3.29827.27487 10.33807.85768 15.64396 1.29512 12.54746 1.03446 29.05675 2.70906 34.09425 3.4583l3.984.59255-.15308 158.07019-.15313 158.0702-1.13984 7.822c-.62696 4.3021-1.4992 9.5819-1.93831 11.733-.43914 2.151-.90429 4.4976-1.03372 5.2146-.1294.7171-1.06059 4.4716-2.06931 8.3435-4.26182 16.359-10.40111 31.5744-18.72616 46.4104-2.01171 3.5851-3.8104 6.6357-3.99714 6.7791-.18666.1434-.46963.6157-.62873 1.0496-.30909.8433-6.54214 10.3351-8.2139 12.5085-13.62783 17.7168-26.80322 31.1227-41.45068 42.1759-1.7377 1.3114-3.2378 2.566-3.3334 2.788-.096.222-.3926.4036-.66.4036s-1.9438 1.0606-3.7253 2.3569-3.55 2.2376-3.9299 2.0918-.5598-.053-.3997.2059c.1601.259-.5904 1.0066-1.6677 1.6613-1.0773.6546-2.0761 1.32-2.2195 1.4786-.2273.2513-1.4109.9181-5.9968 3.3789-.5736.3077-1.3949.821-1.8251 1.1406-2.0148 1.4967-15.0737 7.7232-21.2284 10.1217-2.2345.8707-4.532 1.8045-5.1056 2.0751-2.0079.9469-11.733 4.1109-11.733 3.8172 0-.1631-.2933-.054-.6519.2426-.3585.2965-2.5291 1.0066-4.8235 1.578-2.2945.5713-5.6387 1.4271-7.4316 1.9016s-3.4942.718-3.7806.541c-.2864-.1771-.5208-.1141-.5208.1398 0 .254-3.2266.9762-7.1701 1.605-18.6325 2.9707-30.5672 3.6527-46.8016 2.6743zm-12.3956-2.3872c-.1733-.1733-.6231-.1918-.9995-.041-.416.1665-.2924.29.315.3151.5497.022.8577-.1006.6845-.274zm-24.6321-4.8936c.1827-.2956-.027-.3831-.4907-.205-.9034.3467-1.0687.7205-.3186.7205.2699 0 .6341-.232.8093-.5155zm66.4905-19.3579c17.7946-1.7578 38.5784-7.204 53.4503-14.0061 11.9786-5.4789 14.1168-6.7295 14.1168-8.2569 0-.5878-.1392-.9826-.3094-.8775-.1701.1052-.5984-2.7867-.9519-6.4263-.3534-3.6395-.8676-7.908-1.1426-9.4854-.2749-1.5774-1.0978-7.2093-1.8285-12.5152-1.538-11.1686-2.4392-15.0381-4.2218-18.1282-.7055-1.223-1.1173-2.4912-.9151-2.8183.2275-.3682.1357-.4514-.2412-.2185-.3486.2155-1.5352-.4168-2.7769-1.4797-3.9572-3.3872-5.6662-3.7799-31.9744-7.348-12.8716-1.7457-25.8291-3.3488-27.2466-3.3709-.3653-.01-.6519-.6579-.6519-1.4833v-1.4732l16.0351-1.9516c8.8193-1.0734 17.3257-2.1626 18.9031-2.4205 1.5775-.2579 4.0414-.5917 5.4754-.7418 1.4341-.1501 3.6633-.4872 4.9539-.7491 1.2907-.262 3.5199-.6198 4.954-.7952 1.434-.1755 4.3431-1.1865 6.4646-2.2467 3.9338-1.9658 5.7158-3.7826 7.927-8.0813 1.2692-2.4672 3.4661-15.953 6.2186-38.1737 1.1699-9.4441 2.2362-17.3476 2.3695-17.5634.5896-.954-1.1016-.9296-5.8672.085-2.8154.5992-6.7614 1.583-8.7691 2.1862-2.0076.6031-3.8849 1.1612-4.1717 1.2401-1.9581.5386-13.1267 4.8361-17.2029 6.6193-3.1024 1.3573-24.8092 12.2721-25.5573 12.8511-.7885.6102-5.5482 3.1853-12.5152 6.771-3.4416 1.7713-6.6095 3.4412-7.0397 3.7109-2.3893 1.498-17.4292 8.2826-24.6893 11.1377-12.0127 4.7238-28.317 9.6641-29.494 8.9367-.2648-.1636-.5602-.083-.6564.1791-.1535.418-3.1597.976-14.4806 2.6877-11.282 1.7057-34.4614 1.4172-44.62-.5554-4.2154-.8186-10.3666-2.079-11.2115-2.2972-.4302-.1112-2.3074-.5954-4.1717-1.0761-9.5735-2.4686-21.1776-6.8513-29.9843-11.3247-4.2466-2.1571-9.928-5.2601-10.5723-5.7742-1.1556-.9222-1.2686-.046-.421 3.2625 2.4749 9.6603 10.9614 28.5675 17.7914 39.6375 9.3852 15.2116 20.2986 28.1328 33.6395 39.8285 9.78 8.5738 14.477 12.0088 25.6432 18.753 20.7631 12.5406 43.8737 20.3083 70.0217 23.535 6.3989.7896 28.5625.9245 35.7204.2174zm25.8709-13.8915c-.1618-1.0755-.7801-5.71-1.374-10.299-.5938-4.5888-1.4392-9.3382-1.8785-10.554-1.4164-3.9199-3.2034-4.6758-14.5357-6.1488-8.9329-1.1612-12.7759-1.8651-12.7759-2.3402 0-.2403 1.3493-.5933 2.9985-.7845 1.6491-.1913 6.8242-.8813 11.5002-1.5335 7.7712-1.0837 8.6675-1.3191 10.4293-2.7387 2.4304-1.9583 2.9305-3.4857 4.0752-12.4482.5097-3.9903 1.0808-7.322 1.2692-7.4037.1884-.082.2326-.7237.098-1.4268-.3136-1.6405.2993-4.943.9174-4.943.5506 0 .6075.3159 2.327 12.9095.7149 5.2361 1.6685 10.233 2.119 11.1043 1.6536 3.1976 3.7884 3.86 18.4979 5.7393 8.1889 1.0462 9.3232 1.2697 8.822 1.7378-.1195.1117-4.488.8156-9.7079 1.5643-13.218 1.896-14.7333 2.2682-16.3711 4.0215-1.7414 1.8642-2.24 3.8691-3.6181 14.5494-1.3437 10.4131-1.4433 10.9498-2.0329 10.9498-.2562 0-.5981-.88-.7598-1.9555zm25.613-29.1261c-.1733-.1732-.6231-.1917-.9995-.041-.416.1665-.2924.2901.3151.3151.5497.022.8577-.1006.6844-.2739zm-24.5438-26.9314c-.1446-.3586-.263-.065-.263.6518 0 .717.1184 1.0103.263.6518.1447-.3585.1447-.9452 0-1.3036zm-18.7378 70.2131c-.1733-.1733-.6231-.1918-.9995-.041-.416.1665-.2925.29.315.3151.5497.023.8577-.1007.6845-.274zm81.0349-5.2907c.662-.8441.6374-.8552-.3273-.1476-.5736.4208-1.1407.8314-1.2602.9126-.1195.081.028.1476.3272.1476.2995 0 .8666-.4107 1.2603-.9126zm-2.6739-28.2246c16.2345-11.9433 31.26871-27.9228 42.3937-45.0592 3.28419-5.0589 3.55822-5.8768 1.80052-5.3737-2.05953.5895-13.44954 1.9198-13.92449 1.6263-.25139-.1554-.5358-.094-.63201.1371-.0962.2309-5.33742 1.1531-11.64712 2.0494-13.6007 1.932-13.0931 1.8257-16.8485 3.5269-5.5107 2.4961-9.1529 8.3553-10.2457 16.4817-.3837 2.8537-.6035 4.3232-1.3185 8.8168-1.2018 7.5532-3.4524 25.8541-3.2523 26.4464.2188.6479 6.0383-3.034 13.6744-8.6517zm-245.0888-.2448c0-.099-.528-.627-1.1733-1.1733l-1.1733-.9934.9934 1.1733c.9335 1.1026 1.3532 1.4107 1.3532.9934zm295.21606-13.2478c.64859-.8271.63018-.8455-.19691-.197-.86862.6813-1.14487 1.1095-.71566 1.1095.10823 0 .51891-.4106.91257-.9125zm-71.68346-1.8252c-.1446-.3585-.263-.065-.263.6519 0 .717.1184 1.0103.263.6518.1447-.3585.1447-.9451 0-1.3037zm11.4831-10.9181c-.1664-.416-.29-.2925-.315.315-.023.5497.1006.8577.2739.6845.1732-.1734.1918-.6231.041-.9995zm75.77776-8.3468c0-.2722-.35197-.1429-.78218.2873s-.78218.945-.78218 1.1441c0 .1989.35197.07.78218-.2874.43021-.357.78218-.8718.78218-1.144zm-55.55506-11.8448c.9165-.3583.869-.4392-.4526-.7709-.8122-.2038-1.6054-.2419-1.7627-.084-.1574.1574.1636.2897.7133.2941.8363.01.8717.09.2173.5135-.9182.5934-.181.6208 1.2847.048zm-88.5106-5.0561c-.1733-.1733-.6231-.1918-.9995-.041-.416.1664-.2925.29.315.3151.5497.022.8577-.1007.6845-.2739zm-2.6074-3.1288c-.1733-.1733-.623-.1918-.9995-.041-.4159.1665-.2924.2901.3151.3151.5497.022.8577-.1006.6844-.274zm133.53622-8.4195c1.94292-3.9436 4.26702-9.0474 5.16464-11.3418 1.95713-5.0028 6.42279-18.26 6.75046-20.0399.12828-.6969.34485-1.4478.48129-1.6685.30028-.4859 2.4865-11.6785 3.36636-17.2348.66951-4.2277.4419-6.4895-.65852-6.5443-.36504-.018-3.36232-.9755-6.66057-2.1275-3.29826-1.152-8.57812-2.711-11.73297-3.4645-3.15487-.7534-6.67476-1.6021-7.82199-1.8858-1.14722-.2838-2.78984-.605-3.65025-.7139-.86042-.1088-4.84963-.7012-8.86492-1.3162-8.44585-1.2938-26.88695-1.5684-37.28475-.5553-7.1511.6968-7.2795.7324-7.003 1.9381.1192.5195.558 4.2298.9751 8.245 1.5976 15.3774 5.4859 42.1722 6.6133 45.5734 2.5855 7.7997 6.4297 10.9941 15.3547 12.7592 6.7932 1.3435 35.61508 5.3185 39.73502 5.4801 1.68445.066 1.74311-.014 5.2361-7.1033zm-110.07022 5.2907c-.1733-.1733-.6231-.1918-.9995-.041-.416.1665-.2924.2901.3151.3151.5497.022.8577-.1007.6844-.2739zm-130.3555-13.0951c-.7888-.1194-2.0794-.1194-2.8681 0-.7887.1196-.1434.2173 1.434.2173 1.5775 0 2.2228-.098 1.4341-.2173zm12.7758-.5159c-.6453-.1243-1.7012-.1243-2.3466 0-.6452.1243-.1173.2259 1.1733.2259 1.2907 0 1.8187-.1016 1.1733-.2259zm164.7165-10.4133c-.6148-1.0571-.7632-.7188-.26.5925.1788.4661.435.7376.5693.6033.1342-.1343 0-.6724-.3093-1.1958zm100.98996-13.2774c-.13022-.3906-.3666-.1542-.55099.5509-.22683.8674-.15894 1.071.22802.6841.30307-.3031.44833-.8588.32297-1.235zm-270.00846-3.0479c10.7623-1.0644 28.781-5.0745 35.1989-7.8337.5736-.2467 3.8588-1.5527 7.3005-2.9023 3.4417-1.3497 8.8388-3.6832 11.9937-5.1857s8.2571-3.9376 11.3383-5.4112 5.7535-2.6559 5.9385-2.6272c.1851.029.48-.1566.6555-.4116.3716-.5402 2.3584-1.5775 20.9165-10.9201 7.6002-3.8261 13.9737-6.9565 14.1635-6.9565.1897 0 2.0672-.8061 4.1721-1.7912 7.4425-3.4833 23.2672-9.044 31.316-11.0043 1.8027-.4391 6.7974-1.3999 11.0995-2.1352 9.6259-1.6452 29.0979-2.2659 39.7285-1.2664 6.8148.6407 20.70564 3.0965 25.71546 4.5462 6.73249 1.9482 12.82284 3.9435 15.82021 5.1832 1.7673.7309 3.9108 1.6051 4.76334 1.9428.85255.3376 3.31161 1.4791 5.46466 2.5367 2.15298 1.0575 4.01766 1.8196 4.14364 1.6936.27383-.2738-.89407-18.6806-1.30657-20.5929-.31856-1.4768-2.59657-3.0421-9.3303-6.4111-2.29449-1.1479-4.28906-2.1188-4.43246-2.1574-.14341-.039-1.19938-.4877-2.3466-.9979-10.23539-4.5521-26.84708-9.0538-40.53728-10.9855-8.3558-1.1791-11.485-1.3733-21.6071-1.3413-15.7115.05-25.3479 1.1198-38.0782 4.2285-7.8394 1.9144-18.4118 5.3592-22.3218 7.2732-.5736.2808-1.8643.8152-2.8681 1.1876-3.5976 1.3346-7.89 3.4079-32.07 15.4903-13.4884 6.74-26.6328 13.2309-29.2098 14.4244-6.0356 2.7951-12.0629 5.3913-12.5162 5.3913-.1954 0-1.0947.3289-1.9984.731-3.4229 1.5226-9.1607 3.4879-15.2013 5.2067-6.1451 1.7486-7.8239 2.1621-10.9508 2.6971-.8604.1472-2.2684.4866-3.1288.7542-4.4946 1.3978-18.4043 2.6047-30.0204 2.6047-6.8007 0-11.9576-.2038-11.9576-.4726 0-.26-.4765-.3481-1.0589-.1958-1.1946.3125-10.367-.7363-12.7599-1.4588-.8605-.2599-2.2684-.571-3.1288-.6916-9.1492-1.282-25.5597-6.6402-35.3552-11.5438-2.5536-1.2784-4.7364-2.3243-4.8507-2.3243-.3869 0-.1939 9.0921.3266 15.3833.6124 7.4019-.075 6.586 9.6343 11.4277 25.5897 12.76 56.2321 17.9928 87.3455 14.9159zm-120.6238-12.1011c-.1665-.416-.29-.2925-.3151.3151-.023.5496.1007.8576.2739.6844.1733-.1733.1918-.6231.041-.9995zm285.7631 0c-.1665-.416-.29-.2925-.3151.3151-.023.5496.1007.8576.2739.6844.1733-.1733.1918-.6231.041-.9995zm-.5215-5.7362c-.1664-.4159-.29-.2924-.315.3151-.023.5497.1006.8577.2739.6844.1732-.1732.1918-.623.041-.9995zm-286.2845-3.1287c-.1665-.416-.2901-.2925-.3151.315-.023.5497.1006.8577.2739.6845.1733-.1733.1918-.6231.041-.9995zm-.5215-3.6503c-.1665-.416-.2901-.2924-.3151.3151-.023.5496.1006.8577.2739.6844s.1918-.6231.041-.9995zm116.3108-2.8246c-.1733-.1733-.623-.1918-.9994-.041-.416.1664-.2925.29.315.3151.5497.022.8577-.1007.6844-.274zm174.8322-5.1045c0-.1128-.3642-.3447-.8093-.5156-.464-.178-.6734-.091-.4907.205.3063.4955 1.3.7329 1.3.3106zm-119.5568-12.6253c-.1733-.1733-.6231-.1918-.9995-.041-.416.1665-.2924.29.315.3151.5497.023.8577-.1006.6845-.2739zm-73.5267-6.2576c-.1733-.1733-.623-.1918-.9994-.041-.416.1665-.2925.2901.315.3151.5497.023.8577-.1006.6844-.2739zm7.0315-1.7569 4.5437-.6695-.2541-2.1492c-1.4585-12.3418-4.567-36.5106-5.1723-40.2161-.4216-2.5813-.8451-5.5231-.941-6.5375-.096-1.0143-.3088-2.0703-.4732-2.3466-.1645-.2763-.4722-1.3236-.6839-2.3274-1.4526-6.8891-7.3797-11.8056-15.7728-13.0836-2.3661-.3602-4.3037-.7904-4.3057-.9559 0-.1655-.9993-.3575-2.2162-.4267-1.217-.069-9.1351-1.0325-17.5959-2.1406-8.4608-1.108-15.5747-1.9079-15.8088-1.7775-.4766.2656-6.9114 13.1791-8.3813 16.8199-.5211 1.2906-1.4092 3.6372-1.9736 5.2146-.5645 1.5774-1.2195 3.3374-1.4557 3.911-2.7903 6.777-6.6185 21.9087-7.8484 31.0234-.7667 5.6808-.8037 6.7257-.218 6.1399.1625-.1625 1.7464.2923 3.5199 1.0106 8.638 3.4986 27.6304 7.8676 39.2057 9.0189 6.1732.614 30.5643.2684 35.8316-.5077zm19.1748-3.865c1.5729-.414 3.0395-.6416 3.2592-.5059.2196.1357.3993 0 .3993-.3054 0-.3038.376-.5523.8356-.5523s2.9822-.7265 5.6058-1.6146c2.6235-.888 5.0048-1.6703 5.2916-1.7386.2868-.068 1.1081-.383 1.8251-.6997.717-.3166 3.4156-1.4391 5.9968-2.4945 8.4164-3.4412 11.7101-5.0042 33.6894-15.9861 11.9326-5.9622 21.8298-10.8403 21.9938-10.8403s2.134-.8516 4.3777-1.8924c18.5525-8.6063 36.5661-14.3306 53.0972-16.8731 7.8746-1.2111 26.3543-2.4207 27.7362-1.8155.5194.2275 2.1197.3574 3.5563.2887 6.7905-.3246 23.4035 2.4315 34.9268 5.7945 6.78365 1.9797 16.82812 5.5096 18.91701 6.6478.498.2713 4.30646 2.1733 8.46316 4.2265 4.15678 2.0532 8.21815 4.2034 9.02534 4.7782.80719.5747 1.59394.9186 1.74843.7641.34868-.3487-3.97058-13.0319-6.49728-19.0789-5.53918-13.2565-15.63509-30.2467-23.95987-40.3217-1.97223-2.3869-3.17692-4.2811-2.95306-4.6434.21818-.353.15384-.4732-.15211-.2841-.29166.1803-1.94089-1.2501-3.66502-3.1786-1.7242-1.9284-5.3809-5.7199-8.1261-8.4255-2.7453-2.7055-4.8506-5.1471-4.6785-5.4256s.047-.3422-.2772-.1416c-.7407.4578-4.355-2.7636-3.9094-3.4845.188-.3043.07-.3709-.2779-.1561-.353.2181-2.1817-.9207-4.3827-2.7292-5.5864-4.5904-15.2185-11.157-22.0889-15.059-9.9519-5.6521-28.8855-13.7008-35.9576-15.28574-1.3623-.30529-2.7325-.71503-3.045-.91053-.3124-.19551-.8027-.39912-1.0895-.45248-.2868-.0534-2.7508-.60573-5.4754-1.22748-2.7247-.62175-6.2446-1.3482-7.822-1.61433-24.8359-4.19013-42.5883-4.09258-66.1623.36358-9.018 1.70467-9.5628 1.9132-8.9946 3.44292.2428.65387.6057 2.71416.8063 4.57836.677 6.2921 2.451 18.4977 2.9886 20.5621.2936 1.1275 1.1383 2.8426 1.8772 3.8113 2.3788 3.1187 3.2167 3.3621 18.6419 5.4158 4.3021.5727 9.4433 1.2598 11.4249 1.5269 6.5997.8895 5.3444 1.7148-4.2601 2.8008-7.8817.8912-18.4233 2.5828-21.4891 3.4483-4.2328 1.195-5.8006 3.9656-7.2184 12.7563-.6014 3.7284-1.3555 9.2429-1.6759 12.2544s-.7997 5.8817-1.0652 6.3784c-.598 1.1187-.6183 1.1136 9.9435 2.5048 4.4455.5855 9.7253 1.283 11.733 1.55 2.0076.267 4.7649.4926 6.1272.5015 2.401.015 2.477.064 2.477 1.5805 0 .8604-.2134 1.5644-.4742 1.5644-1.7859 0-39.3484 4.9635-45.616 6.0277-7.7173 1.3103-10.3427 2.0828-12.8354 3.7765-.7171.4872-1.773.8858-2.3466.8858-.7177 0-1.043.3477-1.043 1.1146 0 .613-.3823 1.5516-.8497 2.0859-1.5197 1.7372-2.4549 4.0973-3.2927 8.3091-1.1538 5.8005-2.7297 16.3981-3.7165 24.993-.461 4.0153-.9716 7.6525-1.1347 8.0827s-.2623 1.0187-.2204 1.3077c.042.2891-.361 3.9263-.8953 8.0827-.5343 4.1565-.8919 7.6972-.7948 7.8683.1757.3093 6.2175-.8998 11.6781-2.337zm-.5132-58.7248c0-.2868.2346-.5215.5214-.5215s.5215.2347.5215.5215-.2347.5215-.5215.5215-.5214-.2347-.5214-.5215zm248.57377 56.2205c-.16643-.416-.29002-.2924-.31506.3151-.0222.5497.10064.8577.27391.6844.17331-.1733.1918-.6231.0412-.9995zm-60.19437-25.7994c-.3585-.1446-.9452-.1446-1.3037 0-.3585.1447-.065.263.6519.263.717 0 1.0103-.1183.6518-.263zm-34.6883-.4911c-.1733-.1733-.6231-.1918-.9995-.041-.416.1665-.2924.29.315.3151.5498.023.8577-.1007.6845-.2739zm-160.6355-11.255c-.1664-.416-.29-.2924-.315.315-.023.5498.1006.8577.2739.6845.1733-.1733.1918-.6231.041-.9995zm234.16212.8256c-.17327-.1732-.62305-.1918-.9995-.041-.41595.1665-.2924.29.31507.315.54967.023.85774-.1006.68443-.2738zm-249.05562-15.6809c-.6148-1.0571-.7632-.7187-.26.5926.1788.466.435.7375.5692.6032.1343-.1342 0-.6723-.3092-1.1958zm-8.5484-8.3065c-.1732-.1732-.623-.1918-.9994-.041-.416.1664-.2925.29.315.315.5497.023.8577-.1006.6844-.2739zm-16.4153-3.1591c-.3585-.1446-.9451-.1446-1.3036 0-.3585.1447-.065.2631.6518.2631.717 0 1.0103-.1184.6518-.2631zm-4.1618-.5181c-.353-.1429-1.057-.1516-1.5644-.019-.5073.1322-.2185.2491.6419.2597.8605.011 1.2756-.098.9225-.2404zm106.0975-3.6233c-.1733-.1733-.6231-.1918-.9995-.041-.416.1664-.2924.29.3151.315.5497.023.8577-.1006.6844-.2739zm4.9648-.5518c-.3585-.1446-.9452-.1446-1.3037 0-.3585.1447-.065.2631.6518.2631.7171 0 1.0104-.1184.6519-.2631zm-9.1365-2.0555c-.1733-.1733-.6231-.1918-.9995-.041-.416.1665-.2924.2901.315.3151.5497.023.8577-.1006.6845-.2739zm-115.8849-2.5424c3.2557-.3709 14.8363-1.9869 22.423-3.129 16.0824-2.4209 19.8331-6.0051 22.4081-21.4134 1.7961-10.7472 4.2872-31.808 3.8831-32.8294-.3579-.9049-.4169-.92-.4456-.114-.018.5109-.4437 1.0804-.9456 1.2656s-1.0299.4711-1.1733.6355c-.1434.1643-2.7135 1.9413-5.7112 3.949-4.9417 3.3095-7.0212 4.9159-15.4082 11.9034-2.8412 2.3671-12.3068 11.763-15.6439 15.5286-2.4556 2.771-3.5374 4.0813-5.9834 7.2472-.9964 1.2897-1.9364 2.4622-2.0888 2.6056-2.1647 2.0362-10.4885 15.0194-9.7806 15.2553.3264.1088 1.7783.017 3.2263-.2048 1.448-.2214 3.8061-.5362 5.2401-.6996zm94.3686-3.2698c-.1594-1.0755-.7529-5.4754-1.319-9.7775-2.0204-15.3552-2.5373-17.1311-5.657-19.4377-1.9494-1.4412-11.5338-3.2271-24.556-4.5756-1.8642-.193-3.6555-.5655-3.9805-.8277-.7815-.6304-1.2797.6914-.9627 2.5541.1337.7856.8488 5.1829 1.5891 9.7718 1.4644 9.0773 2.8201 12.9109 5.5986 15.8312 3.8504 4.047 7.0062 5.1683 19.9178 7.0771 4.5889.6784 8.6395 1.2574 9.0014 1.2866.4688.038.5747-.5091.3683-1.9023zm-11.8575 1.119c-.1733-.1733-.6231-.1918-.9995-.041-.416.1665-.2924.2901.315.3151.5497.023.8577-.1006.6845-.2739zm-45.4871-3.8567c.1773-.2868.074-.5214-.2299-.5214-.3037 0-.5522.2346-.5522.5214s.1034.5215.2299.5215.375-.2347.5522-.5215zm29.2021-1.0429c-.1773-.2868-.5569-.5215-.8437-.5215s-.3765.2347-.1992.5215.5569.5215.8437.5215.3765-.2347.1992-.5215zm-5.4311-7.8767c-.2748-.6869-.5145-.9748-.5327-.6398-.044.8138.5633 2.3578.8248 2.0964.1141-.1142-.017-.7696-.2921-1.4566zm206.4561-13.7334c0-.1264-.2347-.3749-.5215-.5522s-.5214-.074-.5214.23c0 .3037.2346.5522.5214.5522s.5215-.1035.5215-.23zm-7.3005-7.3005c0-.1264-.2347-.375-.5215-.5522-.2868-.1773-.5215-.074-.5215.2299 0 .3038.2347.5523.5215.5523s.5215-.1035.5215-.23zm-183.1757-.6065c-.1732-.1733-.623-.1918-.9994-.041-.416.1665-.2924.29.315.3151.5497.023.8577-.1006.6844-.2739zm-4.1717-.5215c-.1732-.1733-.623-.1918-.9995-.041-.416.1665-.2924.2901.3151.3151.5497.023.8577-.1006.6844-.2739zm47.725-.03c-.3585-.1447-.9452-.1447-1.3037 0-.3585.1446-.065.263.6518.263.7171 0 1.0104-.1184.6519-.263zm-51.8967-.4912c-.1733-.1733-.6231-.1918-.9995-.041-.416.1664-.2924.29.3151.315.5497.023.8577-.1006.6844-.2739zm55.7968 0c-.1733-.1733-.623-.1918-.9995-.041-.416.1664-.2924.29.3151.315.5497.023.8577-.1006.6844-.2739zm-56.9592-3.3151c10.643-1.3769 17.424-2.5774 18.9159-3.3488 3.9689-2.0525 5.1275-5.3991 6.8808-19.8765.5905-4.8757 1.2792-9.6153 1.5305-10.53246.3725-1.35976.299-1.70159-.3986-1.85202-.4704-.10147-1.2074-.027-1.6376.16547-.4302.19248-4.1847 1.45884-8.3434 2.81411-4.1587 1.3553-10.0252 3.5236-13.0367 4.8184-6.0545 2.6033-15.7489 7.4266-16.1817 8.051-.2364.3411 1.9015 18.9498 2.3629 20.5662.1091.3823 1.0614.4306 2.9487.1495 1.5331-.2284 4.6647-.6581 6.9592-.9549zm-31.3103-8.849c.1651-.267.1007-.6086-.143-.7592s-.4431.068-.4431.4854c0 .8793.1645.9561.5861.2738zm63.2151-2.2196c-.1664-.416-.29-.2925-.315.315-.023.5497.1006.8577.2739.6844.1733-.1732.1918-.623.041-.9994zm190.64048-54.99818c-.35303-.14284-1.057-.15153-1.56439-.0194-.50733.13222-.21849.24909.64192.25972.86042.0106 1.27556-.0976.92247-.24039zm8.90497-2.31862c7.4582-1.86423 12.32128-5.29167 14.55755-10.25989 1.57797-3.50575 1.9182-11.71755.62577-15.10178-1.82889-4.78879-6.50238-8.52767-14.06-11.24824-8.28706-2.98317-11.48854-4.51893-12.90625-6.19116-.78872-.93033-1.43403-2.01613-1.43403-2.4129 0-1.3997 2.12632-3.68293 4.0083-4.30402 3.01825-.99613 12.08878-.31122 17.11104 1.29204 2.29448.73246 4.18784 1.33526 4.20757 1.33956.23803.0519-1.49475-13.38451-1.75869-13.63752-1.02635-.98387-14.40703-2.13116-19.91796-1.70782-8.71818.66973-13.79548 2.52599-17.78547 6.50243-6.91368 6.89012-5.97548 19.77952 1.85579 25.49607 3.12545 2.28149 4.48852 2.93529 11.95418 5.73385 6.80154 2.5496 8.95315 3.80909 10.01489 5.86223.99216 1.91864.23539 4.7554-1.58723 5.94961-3.95974 2.59453-15.5976 1.673-24.52861-1.94226-3.6429-1.47467-4.0458-1.45396-4.132.21247-.041.78872.082 1.43403.2729 1.43403s.5171 1.81861.725 4.04136c.7469 7.98827.4829 7.61343 6.14001 8.7198 10.16075 1.98718 19.27188 2.06316 26.63724.22214zm-311.43005-6.46498c.036-3.58507.094-6.81164.1304-7.17015.047-.47066 1.6595-.68209 5.8012-.76069 3.1549-.0599 7.2615-.40098 9.1257-.75801 1.8642-.35704 3.5655-.60138 3.7806-.54298s.3911-.0913.3911-.33274c0-.24141.9203-.71465 2.0451-1.05165 4.355-1.30477 9.4451-6.2165 11.9655-11.54606 1.265-2.67486 1.3569-3.37743 1.3645-10.42932.01-7.09451-.076-7.73829-1.3609-10.42931-.753-1.57743-2.211-3.83399-3.2401-5.01457-2.9247-3.35521-9.6499-6.38119-16.3573-7.35985-3.0856-.45022-22.9829-.27076-28.3121.25534l-3.9109.38611-.1354 29.98427c-.074 16.49135-.023 30.27759.114 30.6361.1864.48719 2.5584.65183 9.3914.65183h9.142l.065-6.51832zm1.6579-19.44583c-.459-.29184-.5966-3.55596-.5215-12.37683l.102-11.98045 3.9373.0216c5.701.0312 8.8237 1.72879 10.931 5.94231.9857 1.97098 1.1242 2.93816.9357 6.53071-.2558 4.87388-1.5103 7.66121-4.312 9.58097-2.9196 2.00056-9.4107 3.33818-11.0725 2.28172zm2.579-.97595c-.3585-.14466-.9452-.14466-1.3037 0s-.065.26302.6518.26302c.7171 0 1.0104-.11836.6519-.26302zm56.7746 15.72859c.036-6.16633.095-11.50483.1303-11.86334.049-.48899 2.4427-.69059 9.5819-.80695l9.5168-.15513v12.01847 12.01846h9.3781 9.378l.1387-30.29493c.076-16.66221-.034-30.40183-.2459-30.53247-.4939-.30507-18.1724-.31296-18.4771-.008-.1261.12611-.275 5.47665-.3309 11.89008l-.1016 11.66077h-9.3864-9.3864l-.1162-11.47224c-.064-6.30973-.1227-11.7069-.1307-11.99371-.01-.33076-3.3995-.49081-9.2702-.43765l-9.2557.0838-.1345 30.55229-.1345 30.55228h9.3905 9.3905l.065-11.21151zm70.3326-19.29422c0-28.70155-.054-30.50635-.9126-30.51595-9.4741-.106-17.4585-.0438-17.6397.13739-.1634.16342-.3545 50.46362-.2288 60.23246.01.49701 2.2377.65183 9.3947.65183h9.3864zm47.6682 29.59316c.2718-.86991 2.3925-10.97415 2.3925-11.39928 0-.11183-3.9936-.20333-8.8748-.20333h-8.8747l.03-24.05403c.017-13.22972-.063-24.14682-.176-24.26022-.3217-.32171-17.89-.36455-18.4074-.0449-.2604.16085-.4002 13.44918-.3218 30.5794l.1386 30.29493h16.9042c15.643 0 16.9255-.0681 17.1893-.91257zm27.9443-29.56991v-30.48248l-9.256-.15362c-5.0908-.0845-9.432-.0811-9.6471.007-.2151.0886-.3911 13.87488-.3911 30.63611v30.47497h9.6471 9.6471v-30.48248zm32.4465 23.31233.1451-7.17015 7.5613-.33392c5.6747-.25061 8.3149-.60329 10.5819-1.41361 4.4779-1.60052 7.8152-3.56479 10.1859-5.99514 2.2426-2.29908 5.3054-7.62585 5.3054-9.22714 0-.52756.176-1.06798.3911-1.20094.2151-.13295.4666-2.32587.5587-4.87315.1828-5.04833-.7743-10.32638-2.4662-13.60018-2.5757-4.98408-8.9303-8.94953-16.7349-10.44305-4.7406-.90719-20.5987-1.03493-29.9842-.24152-4.5783.38703-4.6915.42866-4.6249 1.70041.038.71701.096 14.50326.1304 30.6361l.062 29.33244h9.3717 9.3717zm1.081-30.69279.107-12.45849 3.9166.0561c7.772.1113 12.0298 4.33622 11.9653 11.87281-.064 7.47551-4.5556 12.02056-12.5407 12.69l-3.5553.29806zm13.1437 6.05354c.1772-.2868.074-.52146-.23-.52146-.3037 0-.5522.23466-.5522.52146 0 .28681.1035.52147.2299.52147.1265 0 .375-.23466.5523-.52147zm-.5215-14.07957c.1773-.28681.074-.52146-.2299-.52146-.3038 0-.5523.23465-.5523.52146 0 .2868.1035.52146.23.52146s.375-.23466.5522-.52146zm-141.7086.13037c-.081-7.67206-.1478-1.39492-.1478 13.9492 0 15.34413.066 21.62127.1478 13.9492.081-7.67206.081-20.22634 0-27.8984zm-97.0031 31.88544c-.1733-.17327-.623-.1918-.9995-.0412-.416.16646-.2924.29003.3151.31505.5497.0226.8577-.10061.6844-.27388zm293.03962-2.91151c-.16647-.41599-.29006-.29243-.31506.31505-.0223.54971.10064.8577.27391.68442.17327-.17327.1918-.62304.0412-.99947zm-28.68062-24.50888c-.1664-.41599-.29-.29243-.3151.31505-.022.54971.1007.8577.274.68442.1732-.17327.1918-.62304.041-.99947zm40.57883-6.15982c-.17723-.2868-.60175-.51787-.9433-.51348-.3732.005-.30889.20975.16111.51348 1.0018.64742 1.18232.64742.78219 0zm-46.67113-5.21465c0-.28681-.2485-.52147-.5523-.52147-.3037 0-.4072.23466-.2299.52147.1772.28681.4257.52146.5522.52146s.23-.23465.23-.52146zm-4.9539-5.21466c-.1773-.28681-.6018-.51787-.9434-.51348-.3732.005-.3088.20975.1612.51348 1.0018.64742 1.1823.64742.7822 0zm-188.1536-4.2695c-.1665-.41598-.2901-.29243-.3151.31506-.023.5497.1006.8577.2739.68442s.1918-.62305.041-.99948zm-123.5634-35.67693c-.1732-.17328-.623-.19181-.9994-.0412-.416.16647-.2925.29003.315.31505.5497.0226.8578-.1006.6844-.27388zm42.5104-4.20203c-.3585-.14466-.9452-.14466-1.3037 0s-.065.26302.6518.26302c.7171 0 1.0104-.11836.6519-.26302zm52.668-3.65026c-.3585-.14466-.9452-.14466-1.3037 0s-.065.26302.6519.26302c.717 0 1.0103-.11836.6518-.26302zm12.5152-.54413c-.6453-.12429-1.7013-.12429-2.3466 0-.6454.1243-.1174.22599 1.1733.22599 1.2906 0 1.8186-.10169 1.1733-.22599zm169.2216-.51173c-.4986-.13052-1.4372-.13526-2.0859-.0106-.6486.12473-.2407.23152.9065.23731 1.1473.006 1.678-.0963 1.1794-.22679z" fill="#0b5ed8"/><path d="m-498.55409 533.71792c-4.94886-.67428-8.83076-1.51926-9.75163-2.12263-.91276-.59806-1.02749-1.03747-1.77297-6.79042-.30544-2.35714-.64138-4.88839-.74652-5.625-.16726-1.17183-.10021-1.33928.53627-1.33928.40009 0 2.06429.4964 3.69823 1.10312 9.84449 3.6555 21.47702 4.18917 24.6683 1.13173 2.09602-2.00811 1.96996-5.22117-.28244-7.19879-1.66424-1.46123-2.4365-1.83555-9.38718-4.55002-7.52676-2.93946-9.6902-4.09532-12.39454-6.62201-3.56124-3.32731-5.17304-7.20363-5.16483-12.42121.0139-8.85397 5.65098-15.13388 15.43154-17.19142 6.16997-1.29799 17.42538-1.22873 24.39603.15012 2.10388.41616 2.12496.43264 2.36467 1.84848.52406 3.09539 1.48764 11.6135 1.3314 11.76973-.0911.0911-1.41242-.23026-2.93624-.71416-6.16787-1.95866-15.72674-2.61213-18.62735-1.27342-1.62559.75026-2.82635 1.9336-3.34115 3.29266-.28228.74523-.1976 1.18702.42264 2.20503 1.42596 2.34043 3.05109 3.25302 11.91966 6.6935 7.12842 2.7654 9.43815 4.04708 12.31493 6.83363 2.97728 2.8839 3.94156 5.15679 4.14694 9.77465.3116 7.00634-1.11612 11.41171-4.80014 14.81123-3.54667 3.27279-7.9871 5.1905-14.44271 6.23744-4.10745.66613-12.68273.66469-17.58291-.003v-.00011zm-69.70788-30.72662c-.15595-17.67434-.13405-30.33891.0528-30.52575.72241-.72241 9.47117-1.11853 21.32203-.96541 11.10097.14343 12.45056.227 15.03366.93088 7.02263 1.91361 12.58954 5.93411 14.7681 10.66572 1.5875 3.44789 2.34937 8.21882 2.09778 13.1367-.2602 5.0861-1.04771 7.50524-3.83664 11.78561-2.19079 3.36238-4.44742 5.26318-8.73828 7.36041-4.41122 2.15606-7.13523 2.7138-14.66088 3.0018-8.13755.31142-7.28937-.26432-7.28937 4.94796 0 2.42198-.10394 5.6332-.23098 7.13605l-.23097 2.73246h-9.01036-9.01036l-.26652-30.20643zm25.58172 4.33491c4.52505-.95913 7.68305-3.26797 9.31056-6.80705.70571-1.53458.8212-2.36332.8212-5.89286 0-3.77634-.078-4.25494-.96787-5.94209-1.17333-2.22449-3.36176-4.1698-5.59163-4.97044-.95443-.34269-3.27968-.67262-5.49407-.77954l-3.83929-.18539v10.35062c0 5.69285-.10325 11.33849-.22945 12.54588l-.22945 2.19525 1.92588-.006c1.05923-.004 2.99159-.23209 4.29412-.50817v.00001zm-58.17963-4.45598c.0534-16.68012.20755-30.43789.34254-30.57282s4.35374-.12718 9.375.0172l9.12956.26253v30.31029 30.31028h-9.4721-9.47211l.0971-30.3275zm-42.93861.008v-30.39504h9.05327 9.05328l.23059 3.48215c.12683 1.91517.23142 12.84375.23244 24.28571l.002 20.80357h8.75c4.8125 0 8.75249.12054 8.75554.26786.003.14732-.50095 2.70995-1.12001 5.69472-.80295 3.87141-1.29077 5.50096-1.70197 5.68539-.31703.14219-7.9291.32876-16.91571.4146l-16.33928.15608v-30.39504zm-30.53572 29.99528-1.78571-.21175-.11435-8.21428c-.0629-4.51786-.003-18.05804.13212-30.08929l.24648-21.875h8.83718 8.83719l.22712 1.65699c.12491.91135.22712 14.57206.22712 30.35715v28.70015l-7.41072-.0561c-4.07589-.0309-8.21428-.15139-9.19643-.26786zm-72.06608-29.94389c.10853-16.64732.26689-30.34552.35191-30.44044.26858-.29986 12.51329-.45583 15.29816-.19487l2.66601.24983.001 5.05881c.00056 2.78235.10632 8.07221.23504 11.75524l.23403 6.69643h9.40782 9.40782l.00071-3.48214c.00036-1.91518.10648-7.21875.23562-11.78572l.23489-8.30357h9.00845 9.00845l.21534.80357c.11845.44197.21755 14.10268.22023 30.35715l.005 29.55357h-9.28572-9.28571v-11.94321c0-6.56876-.12054-12.00211-.26786-12.0741-.14732-.072-4.32422-.0349-9.282.0823-6.52765.15442-9.13831.33731-9.46428.663-.33808.3378-.47991 3.29052-.5697 11.86086l-.11955 11.4111h-9.22644-9.22644l.19733-30.26786zm-59.00535 29.94389-1.78571-.21175-.0913-30.2419-.0913-30.24191 2.05559-.29381c1.13057-.16159 8.80558-.2938 17.05558-.2938h15l3.92857 1.35581c7.07898 2.44306 10.43771 5.05864 13.24596 10.31516l1.3969 2.61474.11564 7.45582c.0963 6.21094.0163 7.76136-.47928 9.28572-1.7258 5.30836-7.24473 11.32621-12.05807 13.14814-1.0252.38805-2.10508.90668-2.39972 1.1525-.78962.65876-5.43412 1.27152-12.47359 1.64566-3.42297.18192-6.35439.46157-6.51426.62144-.15988.15988-.39804 3.37801-.52926 7.15141l-.23858 6.86074-7.17573-.0561c-3.94664-.0309-7.97929-.15139-8.96144-.26786zm24.20778-25.72752c6.83482-1.74806 9.07388-4.63309 9.44896-12.17501.17696-3.55811.13404-3.87441-.7912-5.8302-2.13125-4.50509-4.71137-5.96706-10.98694-6.22552l-4.20002-.17297v11.9878c0 13.3968-.054 13.11025 2.46838 13.11025.74026 0 2.56763-.31246 4.06082-.69435zm17.57794 215.31674c-10.19004-.58449-28.64277-4.54651-39.81557-8.54887-2.19659-.78686-4.30187-1.43067-4.6784-1.43067s-.6846-.0721-.6846-.16028c0-.96408 1.25089-9.43765 1.82162-12.33972 3.18743-16.20751 8.64624-31.79743 16.16215-46.15781 2.06296-3.94164 2.25916-4.19307 3.26623-4.18576 2.42556.0176 34.60643 4.30005 38.52753 5.12704 9.46613 1.99647 14.10348 5.93819 16.23402 13.7988.40091 1.47918 1.30745 6.76964 2.01454 11.75659 1.24089 8.75184 5.18819 39.5912 5.18819 40.53419 0 .72346-5.46446 1.27378-16.25 1.63652-10.8018.36329-15.03028.35746-21.78571-.03v.00001zm-19.81397-81.31882c7.27419-13.02277 23.01287-30.77321 37.86248-42.70215 4.08243-3.27949 13.42007-9.99541 16.84304-12.11403l1.00131-.61975-.00023 1.69118c-.0006 4.64569-3.50144 30.44205-4.85779 35.79528-2.2897 9.03692-5.82631 12.57023-14.78484 14.77106-4.26337 1.04737-33.05725 5.23198-36.00075 5.23198h-1.21029zm64.1578-43.03572c-1.05399-8.01877-1.78075-15.52318-1.55924-16.10043.24365-.63495 12.01634-6.48852 17.57255-8.73735 4.443-1.79826 20.28799-7.21579 21.1045-7.21579.68668 0 .76868-1.00944-.91382 11.25-1.83943 13.40292-2.63101 16.56885-4.74459 18.97609-1.42371 1.62151-2.40222 2.09579-5.75111 2.78752-3.56743.73687-22.32641 3.41496-23.92049 3.41496h-1.21275zm33.15617 42.37657c-17.33736-2.63603-20.01735-3.40835-23.77951-6.85283-3.66733-3.35764-4.86176-6.57235-6.92899-18.64874-1.12992-6.60084-1.52904-10.35714-1.10047-10.35714.0854 0 .54145.14681 1.01338.32623.47194.17943 2.45115.50724 4.39825.72846 10.01489 1.13786 18.79565 2.64324 21.92799 3.75935 3.08294 1.09851 4.50227 3.17598 5.49508 8.0431.69437 3.40408 3.08141 20.71231 3.08141 22.34305 0 .76625-.16795 1.21312-.44643 1.1878-.24553-.0223-1.89285-.26049-3.66071-.52928zm-36.07336 78.56652c.11062-.76424.58833-4.68416 1.06157-8.71094 2.71869-23.13335 5.53198-41.48314 6.84287-44.63289.8952-2.15096 3.14642-5.71146 3.61535-5.71802.24553-.004.44643-.22276.44643-.4874 0-.69729 4.53806-2.96738 7.57332-3.78842 4.61003-1.24702 16.38427-2.99462 42.96239-6.37674l10.35714-1.31796.10925-1.50605c.1282-1.76736.19873-1.73717-4.7521-2.03365-3.45978-.20719-23.99667-2.91042-24.98124-3.28824-.36491-.14003-.51116-.44838-.37767-.79626.22141-.57698.52871-2.60366 2.16614-14.28585 1.78649-12.7457 3.12415-15.67379 7.77009-17.0085 2.65831-.7637 11.07867-2.17355 19.35125-3.24005 7.91301-1.02015 9.73012-1.35724 10.27989-1.90701.66747-.66747-1.23656-1.05589-13.29197-2.71152-16.68592-2.29156-17.65272-2.52888-19.91606-4.88883-2.33711-2.43687-2.90816-4.79643-5.12862-21.19119-.61189-4.51785-1.13873-8.53199-1.17074-8.92029-.0794-.96254 1.29883-1.37934 9.58059-2.89742 20.16015-3.69545 35.90347-4.19911 54.95271-1.75805 9.16934 1.175 23.08551 3.86925 24.84275 4.8097.33009.17666 1.87813.64859 3.44009 1.04874 5.98614 1.53356 16.31595 5.68975 27.12564 10.91399 9.84734 4.75913 18.10339 9.89719 27.85715 17.33656 2.75 2.09748 5.40178 4.02467 5.89285 4.28266s1.44561 1.1089 2.12118 1.89092c.67558.78202 1.7604 1.64417 2.41072 1.91589.65031.27172 1.18239.6406 1.18239.81975 0 .46906 14.88102 15.85437 15.69276 16.22456.37371.17042.77116.67524.88325 1.12181.11208.44658 1.3703 2.3118 2.79603 4.14493 13.05199 16.7816 22.66849 34.79704 28.92022 54.17878.78087 2.42089 1.35827 4.46313 1.28311 4.5383-.0752.0752-4.87199-2.24832-10.65959-5.16331-10.283-5.17914-14.643-6.95885-24.89147-10.16048-15.81957-4.94205-35.76094-7.57194-50.41959-6.64939-17.16168 1.08008-27.47256 2.85601-41.64044 7.1721-15.39605 4.69025-27.73798 10.04746-59.10714 25.65641-24.21954 12.05138-35.01678 16.78591-45.30883 19.86766-2.2855.68435-4.47688 1.39481-4.86974 1.5788-.88984.41675-11.18478 2.77563-13.49691 3.09255l-1.70616.23385zm-16.42664 56.62756c-17.29938-.80032-34.73054-4.43597-49.77712-10.3821-5.85539-2.31395-15.57397-6.85282-17.72836-8.27969-2.65852-1.76077-2.96605-2.3871-3.36591-6.85529-.64972-7.26005-.88382-16.25-.42317-16.25.22966 0 1.65952.62333 3.17749 1.38518 14.24722 7.15048 34.87054 13.02296 50.4385 14.36233 11.28804.97115 26.88973.72319 37.66166-.59855 5.87661-.72108 14.98689-2.78942 23.76691-5.39589 7.25211-2.15289 16.28984-5.53328 23.75-8.88323 2.55357-1.14667 13.63225-6.56367 24.61929-12.03777 27.97333-13.93723 37.29466-18.39508 44.48785-21.27593 13.13883-5.26207 27.03338-8.78078 40.41225-10.23416 7.09665-.77092 24.88983-1.09841 31.19489-.57415 14.28955 1.18815 32.1404 5.19043 45.08024 10.10728 8.64328 3.28427 19.56856 8.98768 20.48047 10.69159.51507.96242 2.02363 20.52373 1.61434 20.93302-.0865.0865-2.62025-.96123-5.63047-2.32836-13.05538-5.92926-23.92497-9.27755-37.88273-11.66946-12.2617-2.10125-21.75327-2.65054-34.73327-2.01004-11.76818.5807-17.65159 1.32749-27.32143 3.46792-7.92122 1.75337-23.88338 7.41536-35.89286 12.73167-6.31383 2.79499-29.60309 14.56365-36.25 18.31806-1.16888.66023-19.80775 9.39411-23.03571 10.79418-6.40879 2.77969-17.16209 6.85831-20.71429 7.85672-12.64472 3.55403-24.88563 5.54661-37.77443 6.14894-7.83485.36614-7.75616.36625-16.15414-.0222v-.00002zm241.78571 40.35385c-11.7686-1.54246-24.91071-3.49866-28.88691-4.29981-8.15254-1.64261-11.91131-4.38788-14.52492-10.60844-1.583-3.76768-4.86087-24.81054-7.29873-46.85553-.51047-4.61607-1.00792-8.66058-1.10545-8.9878-.0975-.32722-.0191-.69275.17435-.81229.19342-.11955 2.65085-.47541 5.46095-.79081 6.22168-.69832 26.47279-.80533 32.96643-.17421 7.62161.74075 16.26405 2.20332 23.57143 3.98902 7.22036 1.76444 20.29873 5.79685 21.20791 6.53897.37908.30942.44576 1.06737.28736 3.26645-.23599 3.27615-2.34636 14.79613-3.6323 19.82781-1.20279 4.70631-6.2099 19.3815-8.21296 24.07114-2.03391 4.76186-6.84578 14.45046-7.6007 15.30386-.76209.8615-2.86586.78208-12.40646-.46836zm-50.00658 64.03979c1.66436-14.36184 4.357-33.48009 5.24383-37.23214.20892-.88393.99267-2.8993 1.74165-4.4786 1.82214-3.84213 4.21582-6.25697 7.99999-8.07071 2.49302-1.19489 3.69089-1.50247 8.94968-2.29796 3.33929-.50513 8.96429-1.40772 12.5-2.00574 3.53572-.59803 7.95536-1.22757 9.82143-1.39898 3.79795-.34887 10.89266-1.34469 11.64957-1.63514.94938-.36431.48094.87098-1.56028 4.11456-9.46043 15.03303-23.42469 30.56724-37.82141 42.07356-6.96277 5.56486-17.08819 12.55481-18.26232 12.60714-.33821.0151-.40708-.42525-.26214-1.67599zm-105.52913 26.38108c-6.8771-.47455-17.77269-2.35351-26.96429-4.65002-25.43749-6.35554-49.52239-18.68643-68.92857-35.28979-20.56255-17.59271-34.97128-36.3936-45.70836-59.64146-4.76957-10.32705-8.47577-20.24836-8.97786-24.0333l-.24097-1.81649 1.57074.95453c10.68146 6.49106 27.43984 13.4275 40.49931 16.76302 15.26097 3.8978 21.58965 4.66353 38.75 4.68848 14.29539.0208 16.6156-.15807 27.85714-2.1473 3.83036-.6778 7.77052-1.37283 8.75592-1.54451 5.16377-.89965 20.15961-5.66293 29.11303-9.24746 12.9856-5.19882 27.49534-12.27411 43.73819-21.32776 5.3166-2.96343 19.47137-10.09243 24.90125-12.54143 11.74871-5.29892 26.97068-10.16247 34.62057-11.06156l2.00395-.23552-.31 1.74081c-.1705.95745-1.20271 8.65154-2.2938 17.09796-3.20798 24.83383-4.77198 34.25681-6.2347 37.56354-2.49725 5.64545-7.59601 8.94496-16.1542 10.45371-5.08468.89639-19.14776 2.79658-34.39021 4.64677-15.45076 1.87546-14.10829 1.59204-14.10167 2.97717.003.62949.12354 1.32408.26785 1.54352.14432.21944 1.38739.51285 2.76239.65202 3.96234.40103 31.88385 4.06324 38.55057 5.05632 11.89777 1.77229 14.71667 2.60503 18.5079 5.46744 1.06426.80352 2.1213 1.46094 2.34899 1.46094.22768 0 .41397.18067.41397.40148 0 .22082.55505 1.63078 1.23344 3.13326 1.41838 3.1414 2.03335 5.32456 2.83328 10.05807 1.04211 6.16665 3.40396 22.95599 3.96701 28.1998.30543 2.84442.72647 6.02992.93566 7.07888.35467 1.77849.32395 1.96729-.45524 2.7976-.93588.9973-10.03768 5.5355-16.60494 8.27932-14.97949 6.25846-35.77342 11.34575-51.31656 12.55474-5.09842.39658-25.03372.37546-30.94979-.0328zm59.76346-12.55965c.10891-.44197.68871-4.5 1.28843-9.01786 1.66585-12.54928 2.22682-14.50649 4.67788-16.32108 1.35573-1.00368 3.83453-1.54204 14.4488-3.13804 5.30357-.79746 9.96429-1.58954 10.35714-1.76017.68137-.29594.67315-.32604-.17857-.65311-.49107-.18858-3.625-.69896-6.96428-1.13416-8.31758-1.08403-14.08449-2.0697-15.94032-2.72447-.85636-.30214-2.06737-1.044-2.69113-1.64857-1.46793-1.42277-1.89811-3.2205-3.68436-15.39693-1.38937-9.47099-1.55312-10.25918-2.13135-10.25918-.5058 0-.78422 1.12282-1.10698 4.46428-.54306 5.6221-2.41202 17.17775-3.01061 18.61447-.89005 2.13624-2.93556 4.01564-5.005 4.59855-1.75896.49545-7.54501 1.38958-16.17421 2.49943-4.08622.52555-6.1489.99679-6.1489 1.40478 0 .38692 3.1363.9909 11.25 2.16651 12.56695 1.82085 14.08198 2.331 15.56698 5.24183.90934 1.78246 1.4583 4.63144 2.82923 14.68303.59518 4.36384 1.17017 8.21551 1.27775 8.55926.27717.88562 1.10441.77534 1.3395-.17857z" fill="#fff"/></g></svg>