<?xml version="1.0" encoding="utf-8"?>
<!-- Generator: Adobe Illustrator 23.1.1, SVG Export Plug-In . SVG Version: 6.00 Build 0)  -->
<svg version="1.1" id="Layer_1" xmlns="http://www.w3.org/2000/svg" xmlns:xlink="http://www.w3.org/1999/xlink" x="0px" y="0px"
	 viewBox="0 0 512 512" style="enable-background:new 0 0 512 512;" xml:space="preserve">
<style type="text/css">
	.st0{fill:#DBDBDB;}
	.st1{fill:#CBCBCB;}
	.st2{fill:#EBEBEB;}
	.st3{fill:#E4E4E2;}
	.st4{fill:#FCD795;}
	.st5{fill:#FCB94D;}
	.st6{fill:#EAC88A;}
	.st7{fill:#4298D1;}
	.st8{fill:#3E8CC7;}
	.st9{fill:#C94536;}
	.st10{fill:#69B9E7;}
	.st11{fill:#F4F4F4;}
	.st12{fill:#F85542;}
	.st13{fill:#FDB62F;}
	.st14{fill:#E1E1E1;}
	.st15{fill:#FFFAD4;}
</style>
<g id="filled_outline">
	<path class="st0" d="M384,24h-32l-24,56v48h32V80L384,24z"/>
	<path class="st1" d="M328,104h32v16h-32V104z"/>
	<path class="st2" d="M456,152l4,16l-225.3,1.3L232,152l8-32h208L456,152z"/>
	<path class="st3" d="M200,152h288v32H200V152z"/>
	<path class="st4" d="M336,184c0-19-13.4-35.4-32.1-39.2c0-0.3,0.1-0.5,0.1-0.8c0-22.1-17.9-40-40-40c-1.2,0-2.3,0.2-3.4,0.3
		c-6.4-15-21.3-24.6-37.5-24.2c-4.3-21.6-25.2-35.7-46.8-31.4c-14.6,2.9-26.4,13.7-30.6,27.9c-0.3,1.2-0.4,2.3-0.7,3.5
		c-16.3-0.4-31.2,9.2-37.6,24.2c-1.1-0.1-2.2-0.3-3.4-0.3c-22.1,0-40,17.9-40,40c0,0,0,0,0,0c0,0.3,0.1,0.5,0.1,0.8
		C45.4,148.6,32,165,32,184l8,8.2l278.7-0.2L336,184z"/>
	<circle class="st5" cx="256" cy="160" r="24"/>
	<path class="st6" d="M180.4,136.8l-10-12.5l15-12.1c13-10.9,32.2-10,44.2,2.1l-11.3,11.3c-6.1-6.2-16-6.7-22.7-1.1L180.4,136.8z"/>
	<path class="st5" d="M188.2,120.3c-6.4-9-18.9-11-27.9-4.6c-4.2,3-7.1,7.6-8,12.7c-15.3-2.4-29.6,8-32.1,23.2
		c-2.4,15.3,8,29.6,23.2,32.1s29.6-8,32.1-23.2c0.5-2.9,0.5-5.9,0-8.9c10.8-1.9,18.1-12.2,16.2-23
		C191.2,125.6,190,122.8,188.2,120.3L188.2,120.3z"/>
	<path class="st6" d="M122.3,53.7c-11.9-11.9-30.1-14.9-45.1-7.3l-13.1,6.8l-7.3-14.2L70.1,32c21.2-10.6,46.8-6.5,63.6,10.3
		L122.3,53.7z"/>
	<path class="st7" d="M432,488H296l48-304h112L432,488z"/>
	<path class="st8" d="M456,184h-96h-16l-40,304h16l37.9-288h96.8L456,184z"/>
	<path class="st2" d="M304,488H72l-9.2-9.3L24,184h320L304,488z"/>
	<path class="st9" d="M96,184l24,304H72l-9.2-9.3L24,184H96z"/>
	<path class="st9" d="M249,474.8L272,184h-88v290.7L249,474.8z"/>
	<path class="st5" d="M90.1,45.9c-5.1-5-12.5-7-19.4-5.1c-1.1-3.7-3.1-7-5.8-9.8c-9.3-9.4-24.5-9.5-33.9-0.1s-9.5,24.5-0.1,33.9
		c7.3,7.3,18.4,9.2,27.6,4.7c0.9,1.7,2,3.3,3.4,4.7c7.8,7.8,20.4,7.9,28.3,0.1S98,53.8,90.3,46C90.2,45.9,90.2,45.9,90.1,45.9z"/>
	<path class="st6" d="M88,432H72v-14.1c0-14,7.9-26.8,20.4-33l7.2,14.3c-7.1,3.5-11.6,10.8-11.6,18.7L88,432z"/>
	<path class="st6" d="M99.2,256H88v-16h11.2c15.3,0,29.7-7.7,38.2-20.4l13.3,8.9C139.2,245.7,119.9,256,99.2,256z"/>
	<g>
		<path class="st10" d="M392,240h16v16h-16V240z"/>
		<path class="st10" d="M392,304h16v16h-16V304z"/>
		<path class="st10" d="M368,272h16v16h-16V272z"/>
	</g>
	<path class="st11" d="M488,488H347.1c-6.7,0-12.6-4.1-15-10.4L327,464c-5.2-13.8-24.8-13.8-30,0l-5.1,13.7
		c-2.3,6.2-8.3,10.4-15,10.4H136V376h352V488z"/>
	<path class="st10" d="M192,408h64c13.3,0,24,10.7,24,24l0,0c0,13.3-10.7,24-24,24h-64c-13.3,0-24-10.7-24-24l0,0
		C168,418.7,178.7,408,192,408z"/>
	<path class="st12" d="M368,408h64c13.3,0,24,10.7,24,24l0,0c0,13.3-10.7,24-24,24h-64c-13.3,0-24-10.7-24-24l0,0
		C344,418.7,354.7,408,368,408z"/>
	<ellipse class="st13" cx="184" cy="304" rx="48" ry="40"/>
	<path class="st5" d="M63.5,425.3c-1.3-11-11.2-18.8-22.2-17.6s-18.8,11.2-17.6,22.2c1.1,9.2,8.3,16.5,17.5,17.6
		c-4.8,17,5.1,34.7,22.1,39.5c17,4.8,34.7-5.1,39.5-22.1c4.8-17-5.1-34.7-22.1-39.5C75.2,423.7,69.2,423.7,63.5,425.3z"/>
	<path class="st5" d="M82.9,262.9c10.1-4.4,14.7-16.2,10.3-26.3c-4.4-10.1-16.2-14.7-26.3-10.3c-8.5,3.7-13.3,12.8-11.7,21.9
		c-17.7,0.4-31.7,15.1-31.2,32.7c0.4,17.7,15.1,31.7,32.7,31.2c17.7-0.4,31.7-15.1,31.2-32.7C87.8,273.5,86,267.8,82.9,262.9z"/>
	<path class="st14" d="M128,376h8v112h-8V376z"/>
	<path d="M192,464h64c17.7,0,32-14.3,32-32s-14.3-32-32-32h-64c-17.7,0-32,14.3-32,32S174.3,464,192,464z M192,416h64
		c8.8,0,16,7.2,16,16s-7.2,16-16,16h-64c-8.8,0-16-7.2-16-16S183.2,416,192,416z"/>
	<path d="M368,464h64c17.7,0,32-14.3,32-32s-14.3-32-32-32h-64c-17.7,0-32,14.3-32,32S350.3,464,368,464z M368,416h64
		c8.8,0,16,7.2,16,16s-7.2,16-16,16h-64c-8.8,0-16-7.2-16-16S359.2,416,368,416z"/>
	<path d="M55.5,79c0.2,0.3,0.5,0.5,0.7,0.8c10.8,11,28.5,11.1,39.5,0.3c10.3-10.2,11.1-26.5,1.9-37.6c9.3,0.7,18.1,4.6,24.7,11.2
		l11.3-11.3c-15.5-15.5-38.8-20.3-59.2-12.1c-1.1-1.7-2.4-3.4-3.9-4.9c-12.1-12.1-33.2-12.1-45.2,0C12.9,37.8,12.8,58,25.3,70.5
		C33.2,78.4,44.6,81.7,55.5,79z M36.7,36.7c6.3-6.1,16.3-6.1,22.6,0c1.8,1.8,3.1,4.1,3.8,6.5c1.3,4.1,5.6,6.4,9.7,5.3
		c4.1-1.2,8.6,0,11.6,3c4.7,4.7,4.7,12.3,0,16.9c0,0,0,0,0,0c-4.7,4.5-12.2,4.5-17,0c-0.8-0.8-1.5-1.8-2-2.8
		c-2-3.8-6.7-5.3-10.5-3.4c-7.9,3.9-17.5,0.7-21.4-7.2C30.6,48.9,31.8,41.5,36.7,36.7L36.7,36.7z"/>
	<path d="M488,192c4.4,0,8-3.6,8-8v-32c0-4.4-3.6-8-8-8h-25.8l-6.5-25.9c-0.9-3.6-4.1-6.1-7.8-6.1h-80V81.6l23.4-54.5
		c1.7-4.1-0.1-8.8-4.2-10.5c-1-0.4-2.1-0.6-3.2-0.6h-32c-3.2,0-6.1,1.9-7.4,4.8l-24,56c-0.4,1-0.6,2.1-0.6,3.2v32h-20.5
		c-8.7-9.8-21-15.6-34.1-16c-7.6-13.2-21-22-36.1-23.6c-8.6-25-35.8-38.4-60.8-29.8c-14,4.8-25,15.8-29.8,29.8
		c-15.1,1.7-28.4,10.4-36,23.6c-23.9,0.7-43.6,18.9-46.3,42.6c-16.5,5.8-28.6,20.1-31.6,37.4H24c-4.4,0-8,3.6-8,8c0,0.3,0,0.7,0.1,1
		l9.1,69.6c-1.7,2-3.2,4.2-4.5,6.6c-9.5,17.7-4.3,39.7,12.2,51.2l11.4,87.3c-15.4-0.3-28.2,12-28.5,27.4c-0.2,7.6,2.8,14.9,8.2,20.3
		c2.4,2.4,5.2,4.3,8.3,5.7c-1.5,17.8,9.2,34.3,26,40.3c1.5,1.6,3.5,2.5,5.7,2.6h424c4.4,0,8-3.6,8-8V376c0-4.4-3.6-8-8-8h-38.5
		l13.9-176L488,192z M480,176H343.3c-1-5.6-3-11.1-5.9-16H480V176z M265.5,368l13.9-176h55.5l-23.2,176H265.5z M128,376v104h-0.6
		l-17.8-225c16.7-2.9,31.5-12.5,41-26.6l-13.3-8.9c-6.8,10-17.2,17-29,19.4l-3.7-46.9H176v64.5c-27.1,3.3-97,33.3-97,57.4
		s69.9,34.1,97,37.5V368h-40C131.6,368,128,371.6,128,376L128,376z M39.9,243.6L33.1,192h55.5l2.4,30c-1-0.7-2-1.4-3-2
		c-13.7-7.3-30.6-2.1-37.9,11.6c-1.6,3-2.6,6.3-3,9.6C44.6,241.7,42.2,242.6,39.9,243.6z M94.3,264.6l0.5,6.6
		c-0.4-1.9-1-3.7-1.6-5.5C93.6,265.4,94,264.9,94.3,264.6z M111.3,480h-7.6c3-3.9,5.2-8.4,6.5-13.2L111.3,480z M183.8,133.9
		c-0.8,5-4.7,9-9.7,9.8c-4.3,0.8-7.2,4.8-6.5,9.1c1.1,6.3-1,12.8-5.5,17.3c-7.9,7.6-20.4,7.6-28.3,0c-7.8-7.8-7.8-20.5,0-28.3
		c0,0,0,0,0,0c3.7-3.7,8.8-5.8,14-5.8c1.1,0,2.2,0.1,3.2,0.3c4.3,0.7,8.3-2.2,9.1-6.5c1.2-6.5,7.4-10.8,13.9-9.7
		c3.1,0.6,5.8,2.3,7.6,4.8C183.6,127.6,184.4,130.8,183.8,133.9L183.8,133.9z M189.2,336c-22.1,0-25.2-14.4-25.2-32.1
		s3.1-32.7,25.2-32.7s25.2,15.1,25.2,32.7S211.3,336,189.2,336z M192,351.5c27.1-3.3,96-23.3,96-47.5s-68.9-44.1-96-47.5V192h71.3
		l-13.9,176H192V351.5z M240,160c0-8.8,7.2-16,16-16c8.8,0,16,7.2,16,16c0,4.2-1.7,8.3-4.7,11.3c-6.3,6-16.3,6-22.6,0
		C241.7,168.3,240,164.2,240,160L240,160z M336,81.6L357.3,32h14.6l-19.2,44.8c-0.4,1-0.6,2.1-0.6,3.2v32h-16V81.6z M328,128h113.8
		l4,16H322.2c-3.3-2.2-6.8-4-10.5-5.4c-0.5-3.6-1.3-7.2-2.6-10.6H328z M65.7,152.6c3.8-0.8,6.5-4.2,6.4-8.1c0-0.5-0.1-0.8-0.1-0.6
		c0-17.7,14.3-32,32-32c0.4,0,0.7,0.1,1.1,0.1c0.6,0.1,1.1,0.1,1.7,0.2c3.4,0.3,6.7-1.7,8-4.8c5.1-12,17-19.6,30-19.3
		c3.9,0.2,7.4-2.6,8-6.4c0.1-0.6,0.2-1.1,0.3-1.7c0-0.4,0.1-0.8,0.2-1.1c4.9-16.9,22.6-26.6,39.5-21.7c11.5,3.3,20.1,12.8,22.4,24.5
		c0.8,3.8,4.2,6.4,8,6.4c13-0.4,24.9,7.3,30,19.3c1.4,3.2,4.6,5.1,8,4.8c0.6-0.1,1.1-0.1,1.7-0.2c0.3-0.1,0.7-0.1,1.1-0.1
		c17.6,0,32,14.4,32,31.2c0,0.3-0.1,1-0.1,1.3c-0.1,3.9,2.6,7.3,6.4,8.1c12,2.4,21.6,11.5,24.6,23.4h-43.4
		c7.4-12.5,5.4-28.4-4.9-38.6c-12.1-12.1-33.2-12.1-45.2,0c-10.3,10.2-12.4,26.1-4.9,38.6h-50.5c3.7-5.6,5.8-12,6-18.7
		c1.6-0.7,3.1-1.6,4.4-2.6c10.1-7.2,14.2-20.3,10-32c6.6-3.6,14.8-2.4,20,2.9l11.3-11.3c-10.8-10.9-27.8-12.7-40.7-4.5
		c-12.2-9.4-29.6-7.2-39.1,5c-1.3,1.6-2.3,3.4-3.2,5.3c-19.8,0.7-35.4,17.4-34.6,37.2c0.2,6.7,2.3,13.1,6,18.7H41
		C44.1,164.2,53.7,155.1,65.7,152.6L65.7,152.6z M34.8,268.7c4.1-7.6,12-12.4,20.6-12.6c4.4-0.1,7.9-3.8,7.8-8.2
		c0-0.4-0.1-0.8-0.1-1.2c-0.5-2.6-0.1-5.3,1.1-7.7c3.1-5.9,10.4-8.1,16.2-5c5.9,3.1,8.1,10.4,5,16.2l0,0c-1.3,2.3-3.3,4.2-5.7,5.2
		c-4,1.8-5.9,6.5-4.1,10.6c0.2,0.4,0.3,0.7,0.6,1.1c7.1,11.2,3.8,25.9-7.4,33s-25.9,3.8-33-7.4C31.1,285.5,30.8,276.3,34.8,268.7z
		 M49.9,319.5c2,0.3,4,0.5,6,0.5c14.8,0,28.4-8.2,35.4-21.2c2.6-4.9,4.1-10.2,4.5-15.7l12.3,156.1c-3.9-8.9-11.1-15.9-20.1-19.7
		v-1.5c0-7.9,4.5-15.2,11.6-18.8l-7.1-14.3c-12,5.9-19.8,18-20.3,31.3c-0.9,0-1.9,0-2.8,0c-1.4-3.1-3.3-5.9-5.7-8.3
		c-0.7-0.7-1.5-1.3-2.3-1.9L49.9,319.5z M49,449.6c1.2-4.3-1.3-8.7-5.6-9.8c-0.4-0.1-0.8-0.2-1.2-0.2c-2.7-0.3-5.1-1.5-7-3.4
		c-4.6-4.8-4.4-12.4,0.4-17c4.7-4.4,12-4.4,16.6,0c1.9,1.9,3,4.4,3.3,7c0.5,4.4,4.5,7.5,8.9,7c0.4,0,0.8-0.1,1.2-0.2
		c12.8-3.6,26,3.9,29.6,16.7s-3.9,26-16.7,29.6s-26-3.9-29.6-16.7C47.8,458.3,47.8,453.8,49,449.6L49,449.6z M315.4,462.3
		c1.9,0.9,3.4,2.5,4,4.4l5,13.2h-11.3L315.4,462.3z M480,480H347.1c-3.3,0-6.3-2.1-7.5-5.2l-5.1-13.7c-4.7-12.4-18.5-18.7-30.9-14
		c-6.5,2.4-11.6,7.6-14,14l-5.1,13.7c-1.2,3.1-4.2,5.2-7.5,5.2H144v-96h336L480,480z M433.5,368H327.8L351,192h96.3L433.5,368z"/>
	<path d="M392,240h16v16h-16V240z"/>
	<path d="M392,304h16v16h-16V304z"/>
	<path d="M368,272h16v16h-16V272z"/>
</g>
<path class="st15" d="M161.5,298.2c0,3.3-0.6,6.1-1.7,8.5c-1.2,2.3-2.7,4.2-4.7,5.7c-2,1.4-4.3,2.5-7,3.2c-2.7,0.7-5.5,1-8.6,1v11.4
	h-15.3v-48h15.3c3.1,0,5.9,0.3,8.6,1c2.7,0.7,5,1.7,7,3.2c2,1.4,3.6,3.3,4.7,5.7C160.9,292,161.5,294.8,161.5,298.2z M154.5,298.2
	c0-2.2-0.4-4-1.1-5.6c-0.7-1.6-1.8-2.9-3.1-3.9c-1.3-1-2.9-1.8-4.8-2.3c-1.8-0.5-3.9-0.8-6-0.8h-8.1v36.5h1.9v-11.4h6.3
	c2.2,0,4.2-0.3,6-0.8c1.8-0.5,3.4-1.3,4.8-2.3c1.3-1,2.4-2.3,3.1-3.9C154.2,302.2,154.5,300.3,154.5,298.2z M152.5,298.2
	c0,2.1-0.4,3.8-1.1,5.2c-0.7,1.4-1.7,2.5-2.9,3.3c-1.2,0.8-2.6,1.4-4.1,1.8c-1.6,0.4-3.2,0.5-4.9,0.5h-6.3v-21.6h6.3
	c1.7,0,3.4,0.2,4.9,0.5c1.6,0.4,2.9,0.9,4.1,1.8c1.2,0.8,2.2,1.9,2.9,3.3C152.2,294.4,152.5,296.1,152.5,298.2z M139.5,303.5h0.6
	c2,0,3.5-0.5,4.4-1.4c0.9-0.9,1.3-2.2,1.3-3.9c0-1.7-0.4-3-1.3-3.9c-0.9-0.9-2.3-1.4-4.4-1.4h-0.6V303.5z"/>
<path class="st15" d="M164,303.9c0-3.5,0.7-6.7,2-9.8c1.3-3.1,3.1-5.7,5.4-8c2.3-2.3,5-4.1,8-5.4c3.1-1.3,6.3-2,9.8-2s6.7,0.7,9.8,2
	c3.1,1.3,5.7,3.1,8,5.4c2.3,2.3,4.1,5,5.4,8c1.3,3.1,2,6.3,2,9.8s-0.7,6.7-2,9.8c-1.3,3.1-3.1,5.7-5.4,8c-2.3,2.3-5,4.1-8,5.4
	c-3.1,1.3-6.3,2-9.8,2s-6.7-0.7-9.8-2c-3.1-1.3-5.7-3.1-8-5.4c-2.3-2.3,1.3,3.1,0,0C170.1,318.7,164,307.4,164,303.9z M170.8,303.9
	c0,2.5,0.5,4.9,1.4,7.2c1,2.2,2.3,4.2,4,5.9c1.7,1.7,3.6,3,5.9,4c2.2,1,4.6,1.4,7.2,1.4c2.5,0,4.9-0.5,7.2-1.4c2.2-1,4.2-2.3,5.9-4
	c1.7-1.7,3-3.6,4-5.9c1-2.2,1.4-4.6,1.4-7.2c0-2.5-0.5-4.9-1.4-7.2c-1-2.2-2.3-4.2-4-5.9c-1.7-1.7-3.6-3-5.9-4
	c-2.2-1-4.6-1.4-7.2-1.4c-2.5,0-4.9,0.5-7.2,1.4c-2.2,1-4.2,2.3-5.9,4c-1.7,1.7-3,3.6-4,5.9C171.3,299,170.8,301.4,170.8,303.9z
	 M189.2,320.5c-2.3,0-4.5-0.4-6.4-1.3c-2-0.9-3.7-2.1-5.3-3.6c-1.5-1.5-2.7-3.3-3.6-5.3c-0.9-2-1.3-4.1-1.3-6.4
	c0-2.3,0.4-4.5,1.3-6.4c0.9-2,2.1-3.7,3.6-5.3c1.5-1.5,3.3-2.7,5.3-3.6c2-0.9,4.1-1.3,6.4-1.3c2.3,0,4.5,0.4,6.4,1.3
	c2,0.9,3.7,2.1,5.3,3.6c1.5,1.5,2.7,3.3,3.6,5.3c0.9,2,1.3,4.1,1.3,6.4c0,2.3-0.4,4.5-1.3,6.4c-0.9,2-2.1,3.7-3.6,5.3
	c-1.5,1.5-3.3,2.7-5.3,3.6C193.7,320,191.5,320.5,189.2,320.5z M179.2,303.9c0,1.4,0.3,2.7,0.8,3.9c0.5,1.2,1.2,2.3,2.2,3.2
	c0.9,0.9,2,1.6,3.2,2.2c1.2,0.5,2.5,0.8,3.9,0.8c1.4,0,2.7-0.3,3.9-0.8c1.2-0.5,2.3-1.2,3.2-2.2c0.9-0.9,1.6-2,2.2-3.2
	c0.5-1.2,0.8-2.5,0.8-3.9c0-1.4-0.3-2.7-0.8-3.9c-0.5-1.2-1.2-2.3-2.2-3.2c-0.9-0.9-2-1.6-3.2-2.2c-1.2-0.5-2.5-0.8-3.9-0.8
	c-1.4,0-2.7,0.3-3.9,0.8c-1.2,0.5-2.3,1.2-3.2,2.2c-0.9,0.9-1.6,2-2.2,3.2C179.4,301.2,179.2,302.5,179.2,303.9z"/>
<path class="st15" d="M255.8,298.2c0,3.3-0.6,6.1-1.7,8.5c-1.2,2.3-2.7,4.2-4.7,5.7c-2,1.4-4.3,2.5-7,3.2c-2.7,0.7-5.5,1-8.6,1v11.4
	h-15.3v-48h15.3c3.1,0,5.9,0.3,8.6,1c2.7,0.7,5,1.7,7,3.2c2,1.4,3.6,3.3,4.7,5.7C255.2,292,255.8,294.8,255.8,298.2z M248.8,298.2
	c0-2.2-0.4-4-1.1-5.6c-0.7-1.6-1.8-2.9-3.1-3.9c-1.3-1-2.9-1.8-4.8-2.3c-1.8-0.5-3.9-0.8-6-0.8h-8.1v36.5h1.9v-11.4h6.3
	c2.2,0,4.2-0.3,6-0.8c1.8-0.5,3.4-1.3,4.8-2.3c1.3-1,2.4-2.3,3.1-3.9C248.4,302.2,248.8,300.3,248.8,298.2z M246.8,298.2
	c0,2.1-0.4,3.8-1.1,5.2c-0.7,1.4-1.7,2.5-2.9,3.3c-1.2,0.8-2.6,1.4-4.1,1.8c-1.6,0.4-3.2,0.5-4.9,0.5h-6.3v-21.6h6.3
	c1.7,0,3.4,0.2,4.9,0.5c1.6,0.4,2.9,0.9,4.1,1.8c1.2,0.8,2.2,1.9,2.9,3.3C246.4,294.4,246.8,296.1,246.8,298.2z M233.7,303.5h0.6
	c2,0,3.5-0.5,4.4-1.4c0.9-0.9,1.3-2.2,1.3-3.9c0-1.7-0.4-3-1.3-3.9c-0.9-0.9-2.3-1.4-4.4-1.4h-0.6V303.5z"/>
</svg>
