<svg width="764" height="137" xmlns="http://www.w3.org/2000/svg" xmlns:xlink="http://www.w3.org/1999/xlink"><defs><path id="a" d="M0 137h791V0H0z"/></defs><g fill="none" fill-rule="evenodd"><path fill="#292931" d="M480.143 0l-18.526 18.372v84.979h19.234V0zM506.587 25.56c-3.265 0-6.12-1.169-8.565-3.506-2.35-2.439-3.523-5.281-3.523-8.533s1.173-6.096 3.523-8.535c2.446-2.438 5.3-3.656 8.565-3.656 3.366 0 6.225 1.218 8.57 3.656 2.448 2.439 3.672 5.283 3.672 8.535s-1.224 6.094-3.672 8.533c-2.345 2.337-5.204 3.506-8.57 3.506M427.836 47.604H394.54V28.48h13.127V7.863h20.194V28.48h17.165v19.124H427.86v30.148c0 2.64.537 5.114 1.863 6.335 1.327 1.218 3.265 1.928 5.815 2.132 1.803.072 3.912-.067 6.326-.227 1.001-.067 2.054-.137 3.161-.195v18.099c-13.567 1.524-23.158.255-28.768-3.808-5.509-4.065-8.591-10.868-8.591-21.33V67.476l20.17-19.871zM262.58 79.774c3.979 3.962 8.927 5.942 14.842 5.942 5.917 0 10.865-1.98 14.844-5.942 3.979-3.962 5.967-8.99 5.967-15.085 0-6.097-1.988-11.125-5.967-15.087-3.979-3.963-8.927-5.945-14.844-5.945-5.915 0-10.863 1.982-14.842 5.945-3.875 3.962-5.814 8.99-5.814 15.087 0 6.094 1.939 11.123 5.814 15.085m43.61 13.563c-7.854 7.719-17.445 11.58-28.768 11.58-11.321 0-20.912-3.861-28.766-11.58-7.753-7.822-11.629-17.371-11.629-28.648 0-11.277 3.876-20.777 11.629-28.498 7.854-7.822 17.445-11.733 28.766-11.733 11.323 0 20.914 3.91 28.768 11.733 7.854 7.72 11.781 17.221 11.781 28.498 0 11.277-3.927 20.826-11.78 28.648M348.27 48.908c0 2.032 1.326 3.708 3.978 5.029 2.754 1.218 6.07 2.335 9.946 3.352a85.217 85.217 0 0111.629 3.658c3.877 1.422 7.14 3.86 9.792 7.315 2.756 3.453 4.132 7.772 4.132 12.953 0 7.822-2.958 13.867-8.873 18.133-5.817 4.166-12.92 5.553-21.693 5.553-15.71 0-26.61-5.35-32.323-17.438l17.138-9.603c2.244 6.604 7.243 9.907 14.996 9.907 7.038 0 10.558-2.183 10.558-6.552 0-2.032-1.377-3.659-4.13-4.879-2.653-1.318-5.918-2.487-9.796-3.502a104.197 104.197 0 01-11.628-3.81c-3.876-1.524-7.193-3.913-9.946-7.163-2.652-3.352-3.979-7.518-3.979-12.497 0-7.515 2.754-13.409 8.263-17.675 5.61-4.369 12.548-6.552 20.81-6.552 6.224 0 11.885 1.421 16.986 4.266 5.1 2.742 9.129 6.704 12.088 11.885l-16.832 9.144c-2.448-5.18-6.53-7.772-12.241-7.772-2.552 0-4.692.559-6.427 1.676-1.631 1.117-2.448 2.642-2.448 4.572M572.001 85.023c-6.225 0-11.373-1.929-15.454-5.79-3.977-3.963-5.967-8.991-5.967-15.086 0-5.993 1.99-10.921 5.967-14.783 4.081-3.962 9.23-5.942 15.454-5.942 6.223 0 11.323 1.98 15.302 5.942 4.082 3.862 6.122 8.79 6.122 14.783 0 6.095-2.04 11.123-6.122 15.085-3.979 3.862-9.08 5.79-15.302 5.79zm40.633-57.549h-19.183v9.05c-5.817-7.72-14.002-11.39-24.509-11.39-10.712 0-19.74 3.81-27.085 11.432-7.345 7.618-11.016 16.812-11.016 27.581 0 10.87 3.622 20.116 10.861 27.734 7.345 7.518 16.704 11.01 27.518 11.01 10.506 0 18.39-3.594 24.205-11.314v8.227c0 5.996-1.786 10.617-5.357 13.869-3.572 3.25-8.589 4.303-14.81 4.303-9.487 0-16.548-3.453-20.196-10.06l-16.153 10.06c3.68 6.18 7.751 10.225 13.976 13.374 6.326 3.15 13.924 4.725 22.189 4.725 11.016 0 20.095-3.1 27.848-9.297 7.852-6.197 11.712-15.12 11.712-26.906V27.474zM673.141 25.136c8.366 0 15.25 2.793 20.658 8.382 5.507 5.585 8.263 13.306 8.263 23.162v46.783h-19.739V59.118c0-5.08-1.377-8.94-4.13-11.58-2.756-2.745-6.428-4.117-11.019-4.117-5.1 0-9.18 1.575-12.241 4.726-3.06 3.15-3.93 7.219-3.93 13.516v41.227H630.81V7.863h20.194V35.52c4.795-7.113 11.731-10.384 22.137-10.384"/><mask id="b" fill="#fff"><use xlink:href="#a"/></mask><path fill="#292931" mask="url(#b)" d="M496.52 102.89h20.194V32.5H496.52zM207.7 50.218c-2.957 3.048-6.626 4.405-11.116 4.405l-23.17.167V22.446l23.17.038c4.49 0 8.159 1.524 11.117 4.57 2.957 3.049 4.082 6.807 4.082 11.48 0 4.573-1.125 8.535-4.082 11.684m14.844-37.03c-7.042-6.908-15.71-10.854-26.015-10.854h-44.318V102.89h21.203V74.737h23.225c10.302 0 18.863-3.742 25.905-10.652 7.037-6.908 10.444-15.492 10.444-25.55 0-10.057-3.407-18.438-10.444-25.348M745.916 47.604h17.163V28.48h-17.163V7.863H725.72V28.48h-13.123v19.124h13.123v31.155c0 10.46 3.086 17.264 8.595 21.329 5.61 4.063 15.2 5.332 28.764 3.808v-18.1c-1.104.059-2.16.13-3.16.196-2.413.16-4.524.3-6.327.227-2.547-.204-4.488-.914-5.815-2.132-1.324-1.22-1.861-3.695-1.861-6.335V47.604z"/><path fill="#FF002E" mask="url(#b)" d="M0 0h105.323L0 102.75z"/></g></svg>