<?xml version="1.0" encoding="UTF-8"?>
<svg viewBox="0 0 1150 246.15" xmlns="http://www.w3.org/2000/svg">
<style>.first-color{fill: #000;}</style>
<g stroke="null">
<path class="first-color" d="m428.7 125.09h-17.432v57.346h-34.863v-152.15h53.029c31.744 0 56.515 11.971 56.515 46.92 0.18349 35.142-26.973 47.885-57.249 47.885h1e-5v1e-5 1e-5zm-2.0184-65.263h-15.23v35.914h14.679c13.028 0 25.138-4.0548 25.138-18.536-0.18349-14.481-12.11-17.378-24.588-17.378l2e-5 -2e-5v-1e-5h1e-5z"/>
<path class="first-color" d="m559.89 104.24c-3.1194-0.77233-5.8717-1.1585-8.6241-1.1585-17.982 0-23.854 15.447-23.854 24.329v55.029h-33.579v-106.97h32.294v15.447h0.367c5.1378-10.813 15.046-18.536 27.524-18.536 2.5689 0 5.5047 0.19309 7.1562 0.77233l-1.2844 31.087v-1e-5h1e-5 -1e-5v1e-5z"/>
<path class="first-color" d="m669.44 138.61h-73.764c1.1009 11.778 12.294 20.274 24.221 20.274 10.642 0 17.982-4.634 22.386-11.199l23.303 15.447c-9.5416 14.674-25.505 22.784-46.24 22.784-30.643 0-55.965-20.467-55.965-56.574 0-34.948 24.037-57.346 54.864-57.346 30.093 0 51.011 21.626 51.011 58.312 0.367 2.7032 0.367 5.5995 0.18349 8.3026v-4e-5h-2e-5 -1e-5 -1e-5zm-30.643-22.012c0-11.199-6.7892-20.467-20.001-20.467-12.844 0-22.202 9.4612-23.12 20.467h43.12-1e-5 1e-5z"/>
<path class="first-color" d="m744.48 185.34c-12.477 0-24.588-5.5995-30.827-14.868h-0.367v63.332h-33.579v-158.33h31.928v13.13h0.55048c6.0552-8.6888 17.615-16.026 32.478-16.026 29.542 0 48.258 26.26 48.258 55.995 0 29.735-17.799 56.767-48.442 56.767l2e-5 -2e-5v-1e-5l-1e-5 -1e-5v-1e-5zm-7.8901-84.185c-15.046 0-24.588 13.902-24.588 27.418 0 13.902 9.3581 27.418 24.588 27.418 15.964 0 23.854-13.709 23.854-27.804 0-13.516-7.8901-27.032-23.854-27.032v-1e-5 -1e-5 1e-5z"/>
<path class="first-color" d="m807.79 182.44v-162.58h33.946v162.38h-33.946v0.19309 1e-5z"/>
<path class="first-color" d="m962.47 138.61h-73.764c1.1009 11.778 12.294 20.274 24.221 20.274 10.642 0 17.982-4.634 22.386-11.199l23.303 15.447c-9.5416 14.674-25.505 22.784-46.24 22.784-30.643 0-55.965-20.467-55.965-56.574 0-34.948 24.037-57.346 54.864-57.346 30.093 0 51.011 21.626 51.011 58.312 0.367 2.7032 0.367 5.5995 0.18349 8.3026v-4e-5h-2e-5 -1e-5 -1e-5zm-30.643-22.012c0-11.199-6.7892-20.467-20.001-20.467-12.844 0-22.202 9.4612-23.12 20.467h43.12-1e-5 1e-5z"/>
<path class="first-color" d="m974.22 89.952c11.927-11.778 28.808-17.957 45.322-17.957 34.129 0 46.79 17.571 46.79 56.574v53.871h-30.643v-11.392h-0.55048c-5.1378 8.8819-16.698 13.902-28.808 13.902-16.147 0-36.882-8.3026-36.882-33.597 0-30.894 35.781-36.107 65.323-36.107v-1.5447c0-10.62-7.8901-15.447-18.349-15.447-9.5416 0-19.083 5.0202-25.138 11.006l-17.065-19.308 1e-5 1e-5h1e-5 2e-5l-1e-5 1e-5v-1e-5zm61.653 45.761h-4.2203c-14.679 0-31.194 1.9309-31.194 14.674 0 8.1096 7.7066 11.006 14.496 11.006 13.395 0 21.102-8.6888 21.102-22.012v-3.6686h-0.18349v1e-5l-1e-5 1e-5z"/>
<path class="first-color" d="m1148 45.928c-2.3854-0.77233-5.8717-1.5447-9.1746-1.5447-12.294 0-14.863 10.234-14.863 20.274v10.813h22.753v26.453h-22.753v80.516h-33.579v-80.516h-18.716v-26.453h18.533v-10.234c0-26.26 9.725-49.237 43.671-49.237 5.6882 0 11.56 0.57925 16.147 2.1239l-2.0184 27.804v1e-5l2e-5 -1e-5v-1e-5 -1e-5l1e-5 -2e-5z"/>
</g>
<path class="first-color" d="m28.646 120.95c-0.3-0.3-0.8-0.7-1.3-1.2-0.3-0.3-0.7-0.7-1.2-1.1l-16.8-17c7.1 7.1 16.7 16.6 19.3 19.3z"/>
<path class="first-color" d="m177.65 90.953c-3 7-7.1 13.8-12.4 20.7l-31.7-31.4c0.2-1.3 0.3-2.7 0.3-4.1-0.1-6.8-2.9-12.9-8.5-18.5s-11.9-8.4-18.8-8.6c-7-0.1-13.3 2.6-18.9 8.2l-23.6 23.6-28.9-29 23.5-23.5c18.2-18.2 37-27.6 56.4-28.3 19.5-0.7 35.8 5.5 49 18.7 10.6 10.5 16.9 24.5 19.2 41.9 1 9-0.8 19.1-5.6 30.3z"/>
<linearGradient id="a" x1=".19322" x2=".80741" y1=".19501" y2=".8056">
<stop stop-color="#00ABDB" offset="0"/>
<stop stop-color="#144B98" offset="1"/>
</linearGradient>
<polygon points="166.75 130.25 140.35 156.65 98.946 115.05 125.35 88.453" fill="url(#a)"/>
<path d="m325.55 23.753-154.2 154.2c-4 4-9.6 0-9.6 0l-21.3-21.3 26.4-26.4 82.6-83.5 76.1-23z" fill="#00ABDB"/>
<path d="m202.95 146.35-31.6 31.6c-4 4-9.6 0-9.6 0l-21.3-21.3 26.4-26.4 36.1 16.1z" fill="#00ABDB"/>
<path class="first-color" d="m185.25 213.95-31.6 32.2-126.3-126.5c0.5 0.5 1 0.9 1.3 1.2-2.6-2.7-12.2-12.2-19.3-19.2l16.8 16.9c-5-4.7-14.7-14-20.4-19.7l-0.4-0.4s-0.3-0.2-0.4-0.4l-3.1-3.1c0.1 0 0-0.1-0.1-0.2-0.2-0.2-0.3-0.4-0.5-0.6-0.3-0.4-0.6-0.8-0.7-1.2-0.1-0.2-0.1-0.3-0.2-0.5 0-0.1-0.1-0.3-0.1-0.4-0.6-2 0-3.9 0.7-5.2 0-0.1 0.1-0.1 0.1-0.2 0.3-0.5 0.5-0.9 0.8-1.2 0.1-0.1 0.1-0.2 0.2-0.3 0 0 0.1 0 0.1-0.1l1.1-1.1 26.2-26.3 28.6 28.8 127.2 127.5z"/>
<path class="first-color" d="m28.646 120.95c-0.3-0.3-0.8-0.7-1.3-1.2-0.3-0.3-0.7-0.7-1.2-1.1l-16.8-17c7.1 7.1 16.7 16.6 19.3 19.3z"/>
</svg>
