<svg width="356" height="166" viewBox="0 0 356 166" fill="none" xmlns="http://www.w3.org/2000/svg">
<path d="M0.673218 59.9559C0.778367 59.2072 1.06275 58.5567 1.52636 58.0041C2.04148 57.3902 2.72595 56.7615 3.57978 56.118L33.9355 34.4348C34.2029 34.2408 34.506 34.1289 34.8447 34.0993C35.3528 34.0548 35.7627 34.1896 36.0746 34.5036C36.3865 34.8176 36.5082 35.2336 36.4398 35.7516L35.739 40.4204C35.6339 41.1691 35.298 41.8811 34.7313 42.5564C34.2162 43.1702 33.5035 43.8014 32.5932 44.4499L8.347 61.8443L28.8872 75.2351C30.5716 76.2822 31.3012 77.4698 31.0761 78.7978L30.7575 81.9827C30.689 82.5007 30.4438 82.9487 30.0218 83.327C29.6563 83.7002 29.2195 83.9091 28.7114 83.9536C28.3727 83.9832 28.0831 83.9232 27.8425 83.7736L2.31163 66.9799C1.53332 66.536 0.978338 66.0442 0.646694 65.5043C0.315051 64.9645 0.173578 64.3228 0.222275 63.579L0.673218 59.9559ZM310.809 75.2591C311.677 73.4766 313.014 72.5064 314.82 72.3484L317.784 72.0891C318.8 72.0002 319.353 72.4638 319.442 73.4799C319.471 73.8186 319.39 74.1954 319.199 74.6103L282.092 146.884C281.224 148.667 279.887 149.637 278.08 149.795L275.117 150.054C274.101 150.143 273.548 149.68 273.459 148.664C273.43 148.325 273.51 147.948 273.702 147.533L310.809 75.2591ZM355.31 107.799C355.261 108.543 355.008 109.219 354.549 109.828C354.085 110.381 353.399 110.981 352.488 111.63L322.133 133.313C321.809 133.512 321.477 133.626 321.139 133.656C320.631 133.7 320.221 133.566 319.909 133.252C319.653 132.933 319.56 132.514 319.628 131.996L320.167 127.427C320.387 126.042 321.464 124.697 323.398 123.39L347.898 105.973L327.159 92.2588C325.474 91.2116 324.716 90.0265 324.885 88.7034L325.311 85.7651C325.323 85.2521 325.511 84.809 325.877 84.4357C326.299 84.0575 326.764 83.8462 327.272 83.8017C327.611 83.7721 327.929 83.8296 328.226 83.9743L353.756 100.768C355.021 101.568 355.695 102.447 355.779 103.407C355.809 103.745 355.803 104.002 355.761 104.176L355.31 107.799Z" fill="#D20000"/>
<path d="M93.6981 23.7455C96.8594 23.4689 99.8135 23.7508 102.561 24.5913C105.359 25.3703 107.671 26.7608 109.496 28.7627C111.372 30.7033 112.443 33.1977 112.71 36.2461C112.804 37.3186 112.776 38.6293 112.627 40.1782C111.857 46.3321 109.604 51.1367 105.868 54.5922C102.127 57.9912 97.2076 59.9574 91.1109 60.4908L74.3449 61.9576L71.7567 83.0886C71.6982 83.7195 71.4064 84.2854 70.8814 84.7864C70.4128 85.2824 69.8681 85.5576 69.2471 85.6119L65.7754 85.9157C65.1544 85.97 64.6266 85.7887 64.1919 85.3716C63.8137 84.9496 63.6539 84.4232 63.7125 83.7924L70.6121 28.069C70.6707 27.4382 70.9342 26.8747 71.4028 26.3787C71.9278 25.8777 72.5008 25.6 73.1217 25.5457L93.6981 23.7455ZM90.4441 52.8699C94.565 52.5094 97.8473 51.3405 100.291 49.3634C102.73 47.3297 104.16 44.5026 104.583 40.882C104.715 39.7897 104.734 38.7072 104.64 37.6347C104.428 35.2073 103.426 33.5031 101.633 32.5223C99.8925 31.48 97.3286 31.1071 93.9415 31.4034L77.9376 32.8036L75.287 54.196L90.4441 52.8699ZM143.793 34.7212C144.414 34.6668 144.914 34.8506 145.292 35.2726C145.67 35.6946 145.83 36.221 145.772 36.8518L145.416 39.6134C145.357 40.2442 145.066 40.8101 144.541 41.3111C144.072 41.8072 143.527 42.0824 142.906 42.1367L138.842 42.4923C135.568 42.7787 132.876 43.8675 130.766 45.7586C128.656 47.6497 127.398 50.1772 126.992 53.3413L123.906 78.5262C123.847 79.157 123.555 79.7229 123.03 80.2239C122.562 80.72 122.017 80.9952 121.396 81.0495L118.263 81.3236C117.642 81.3779 117.114 81.1966 116.679 80.7796C116.301 80.3576 116.141 79.8312 116.2 79.2003L121.131 39.0076C121.189 38.3768 121.481 37.8109 122.006 37.3099C122.531 36.8089 123.104 36.5312 123.725 36.4769L126.858 36.2028C127.479 36.1485 127.979 36.3323 128.357 36.7543C128.735 37.1762 128.895 37.7027 128.836 38.3335L128.558 41.0029C129.873 39.1245 131.316 37.7468 132.889 36.8697C134.514 35.9312 136.568 35.3533 139.052 35.136L143.793 34.7212ZM189.228 48.9203C189.199 49.8899 189.087 51.208 188.891 52.8747C188.691 54.485 188.471 55.8694 188.231 57.0281C186.989 62.9956 184.513 67.8483 180.801 71.586C177.146 75.3188 172.383 77.442 166.512 77.9556C161.375 78.4051 157.126 77.2979 153.764 74.634C150.459 71.9653 148.591 68.1753 148.162 63.264C148.112 62.6995 148.09 61.7914 148.094 60.5396C148.076 59.6879 148.191 58.398 148.438 56.6699C148.68 54.8853 148.898 53.4726 149.091 52.4318C150.286 46.5821 152.793 41.7552 156.613 37.9512C160.489 34.1422 165.193 31.9957 170.725 31.5117C175.862 31.0622 180.112 32.1694 183.473 34.8333C186.835 37.4971 188.728 41.2564 189.153 46.1112C189.207 46.7321 189.232 47.6685 189.228 48.9203ZM181.475 50.0253C181.479 48.7735 181.456 47.8653 181.407 47.3008C180.864 41.0912 177.515 38.2555 171.362 38.7939C167.524 39.1297 164.32 40.5476 161.751 43.0477C159.178 45.4913 157.511 48.5382 156.749 52.1885C156.279 54.6187 155.978 57.0341 155.847 59.4346C155.823 60.4606 155.833 61.2277 155.878 61.7357C156.135 64.6712 157.104 66.9754 158.786 68.6485C160.52 70.2602 162.883 70.9352 165.875 70.6734C169.714 70.3376 172.92 68.9479 175.493 66.5043C178.118 63.9993 179.811 60.9217 180.573 57.2714C181.058 55.0106 181.358 52.5952 181.475 50.0253ZM243.762 10.6166C244.382 10.5623 244.882 10.7461 245.26 11.1681C245.695 11.5851 245.883 12.1091 245.824 12.7399L244.662 21.886C244.604 22.5169 244.312 23.0828 243.787 23.5838C243.262 24.0848 242.689 24.3624 242.068 24.4168L216.75 26.6318L215.309 38.4473L238.934 36.3804C239.555 36.3261 240.054 36.5099 240.432 36.9319C240.867 37.349 241.027 37.8754 240.912 38.5111L239.834 47.6498C239.776 48.2807 239.484 48.8466 238.959 49.3476C238.434 49.8486 237.861 50.1263 237.24 50.1806L213.615 52.2475L211.32 70.8784C211.262 71.5092 210.97 72.0751 210.445 72.5761C209.976 73.0722 209.432 73.3474 208.811 73.4017L197.718 74.3722C197.097 74.4265 196.569 74.2452 196.135 73.8281C195.756 73.4062 195.596 72.8798 195.655 72.2489L202.555 16.5255C202.613 15.8947 202.877 15.3312 203.345 14.8352C203.87 14.3342 204.443 14.0565 205.064 14.0022L243.762 10.6166ZM251.406 27.6101C251.464 26.9792 251.756 26.4133 252.281 25.9123C252.806 25.4113 253.379 25.1337 254 25.0793L264.669 24.1459C265.29 24.0916 265.79 24.2754 266.168 24.6974C266.546 25.1193 266.706 25.6457 266.647 26.2766L264.034 48.0924C263.887 49.0154 263.858 49.9849 263.947 51.001C264.248 54.4445 266.234 56.0058 269.903 55.6848C274.419 55.2897 277.063 52.3564 277.836 46.8848L280.45 25.069C280.508 24.4382 280.8 23.8723 281.325 23.3713C281.85 22.8703 282.423 22.5926 283.044 22.5383L293.713 21.6049C294.334 21.5505 294.834 21.7344 295.212 22.1563C295.59 22.5783 295.75 23.1047 295.691 23.7356L290.761 63.9283C290.702 64.5591 290.41 65.125 289.885 65.626C289.417 66.1221 288.872 66.3973 288.251 66.4516L278.429 67.3109C277.808 67.3653 277.28 67.1839 276.845 66.7669C276.467 66.3449 276.307 65.8185 276.366 65.1877L276.619 63.203C275.176 64.922 273.62 66.3096 271.949 67.3659C270.334 68.4173 267.975 69.0788 264.87 69.3504C260.58 69.7258 256.86 68.8282 253.713 66.6576C250.565 64.487 248.788 61.0872 248.383 56.4583C248.24 54.8212 248.29 53.1104 248.532 51.3258L251.406 27.6101ZM315.894 61.7294C315.835 62.3602 315.543 62.9261 315.018 63.4271C314.55 63.9232 314.005 64.1984 313.384 64.2527L302.715 65.1862C302.094 65.2405 301.566 65.0591 301.131 64.6421C300.753 64.2201 300.593 63.6937 300.652 63.0629L307.647 6.4779C307.705 5.84706 307.969 5.28362 308.438 4.78756C308.963 4.28656 309.536 4.0089 310.157 3.95457L320.826 3.02113C321.447 2.96681 321.946 3.15063 322.325 3.57261C322.759 3.98964 322.947 4.51358 322.889 5.14442L315.894 61.7294ZM341.032 59.5301C340.974 60.1609 340.682 60.7268 340.157 61.2278C339.688 61.7239 339.143 61.9991 338.523 62.0534L327.853 62.9868C327.232 63.0412 326.704 62.8598 326.27 62.4428C325.892 62.0208 325.732 61.4944 325.79 60.8636L332.785 4.27858C332.844 3.64774 333.107 3.0843 333.576 2.58824C334.101 2.08724 334.674 1.80958 335.295 1.75525L345.964 0.821812C346.585 0.767485 347.085 0.951309 347.463 1.37329C347.898 1.79032 348.086 2.31426 348.027 2.9451L341.032 59.5301ZM56.344 118.256C56.2756 118.774 56.0328 119.25 55.6158 119.685C55.1938 120.063 54.757 120.272 54.3054 120.311L43.2128 121.282C42.4225 121.351 41.7941 121.321 41.3277 121.191C40.9127 120.999 40.4573 120.67 39.9612 120.201C39.8949 120.093 39.5805 119.751 39.0181 119.174C38.5073 118.536 37.6086 118.018 36.3223 117.618C35.0359 117.219 33.5177 117.096 31.7677 117.249C29.3403 117.461 27.3095 117.98 25.6752 118.806C24.0925 119.57 23.2009 120.757 23.0005 122.367C22.9588 122.542 22.9528 122.798 22.9825 123.137C23.0615 124.04 23.608 124.76 24.622 125.297C25.636 125.834 27.1274 126.301 29.0961 126.698C31.1163 127.033 34.2546 127.469 38.511 128.007C43.6855 128.635 47.6134 129.97 50.2948 132.01C53.0326 134.046 54.567 136.955 54.8979 140.737C55.0164 142.092 54.978 143.603 54.7825 145.27C54.0443 151.136 51.3223 155.783 46.6163 159.209C41.9668 162.631 35.4647 164.707 27.11 165.438C22.7632 165.818 18.6811 165.322 14.8637 163.95C11.1026 162.572 8.08746 160.618 5.81816 158.086C3.54886 155.554 2.40117 152.839 2.3751 149.94C2.44355 149.422 2.68876 148.974 3.11074 148.596C3.52778 148.161 3.9621 147.924 4.41371 147.885L15.5063 146.914C16.8047 146.8 17.8272 147.109 18.5737 147.84C18.7014 148 19.0846 148.478 19.7232 149.276C20.4133 150.011 21.4372 150.661 22.7948 151.225C24.204 151.728 25.9247 151.89 27.9569 151.712C34.9568 151.1 38.6646 149.268 39.0803 146.217C39.2172 145.181 38.7762 144.366 37.7572 143.773C36.7334 143.123 35.2113 142.63 33.1911 142.295C31.1659 141.903 27.9969 141.441 23.684 140.908L21.7841 140.648C12.692 139.453 7.82984 135.242 7.19767 128.016C7.0742 126.605 7.10773 125.038 7.29828 123.315C7.91647 118.027 10.3429 113.577 14.5774 109.964C18.812 106.352 24.8244 104.204 32.6146 103.523C36.9049 103.147 40.8484 103.684 44.445 105.133C48.0931 106.52 50.9622 108.431 53.0523 110.865C55.1988 113.293 56.296 115.757 56.344 118.256ZM82.2488 142.44C82.1951 143.127 82.1807 143.612 82.2054 143.894C82.3585 145.644 83.3947 146.435 85.314 146.267L92.0881 145.675C92.7091 145.62 93.2087 145.804 93.5869 146.226C94.0216 146.643 94.2096 147.167 94.1511 147.798L93.0364 156.513C92.9778 157.144 92.686 157.71 92.161 158.211C91.6925 158.707 91.1477 158.982 90.5268 159.037L83.3293 159.666C80.6761 159.899 78.1171 159.582 75.6523 158.717C73.244 157.847 71.217 156.46 69.5715 154.556C67.9824 152.647 67.0694 150.338 66.8323 147.628C66.7335 146.499 66.7501 145.389 66.8821 144.296L68.6859 129.804L62.4198 130.352C61.7988 130.407 61.2992 130.223 60.921 129.801C60.5428 129.379 60.383 128.852 60.4416 128.222L61.4715 119.514C61.5301 118.883 61.8219 118.317 62.3469 117.816C62.8719 117.315 63.4449 117.037 64.0658 116.983L70.3319 116.435L72.088 102.373C72.1466 101.742 72.4102 101.179 72.8787 100.683C73.4037 100.182 73.9767 99.9041 74.5977 99.8498L85.2669 98.9164C85.8879 98.862 86.3875 99.0459 86.7657 99.4678C87.2004 99.8849 87.3884 100.409 87.3298 101.04L85.5737 115.101L95.1421 114.264C95.7631 114.21 96.2627 114.394 96.6409 114.816C97.0191 115.238 97.1789 115.764 97.1204 116.395L96.0904 125.103C96.0318 125.734 95.74 126.299 95.215 126.8C94.69 127.301 94.1171 127.579 93.4961 127.633L83.9276 128.471L82.2488 142.44ZM133.593 113.204C133.651 112.573 133.915 112.01 134.383 111.513C134.908 111.013 135.481 110.735 136.102 110.681L146.772 109.747C147.393 109.693 147.892 109.877 148.27 110.299C148.705 110.716 148.893 111.24 148.835 111.87L143.989 152.056C143.93 152.686 143.638 153.252 143.113 153.753C142.645 154.249 142.1 154.525 141.479 154.579L130.725 155.52C130.104 155.574 129.576 155.393 129.142 154.976C128.763 154.554 128.603 154.027 128.662 153.397L128.915 151.412C128.094 153.077 126.763 154.444 124.923 155.516C123.139 156.582 120.497 157.268 116.997 157.574C114.4 157.801 111.893 157.423 109.474 156.44C107.056 155.457 105.04 153.87 103.426 151.679C101.808 149.432 100.853 146.643 100.561 143.312C100.433 141.845 100.422 140.423 100.53 139.049C100.649 137.161 100.929 134.833 101.369 132.064C102.448 125.542 104.797 120.53 108.415 117.028C112.034 113.526 116.525 111.54 121.887 111.071C124.823 110.814 127.269 111.14 129.226 112.05C131.234 112.898 132.605 113.944 133.34 115.188L133.593 113.204ZM115.797 137.031C115.77 137.374 115.786 137.885 115.845 138.562C116.186 142.457 118.389 144.227 122.453 143.871C124.768 143.669 126.574 142.857 127.872 141.435C129.226 140.008 130.157 138.305 130.667 136.327C130.922 135.338 131.103 134.156 131.21 132.781C131.374 131.401 131.419 130.288 131.344 129.442C131.196 127.748 130.593 126.379 129.535 125.334C128.533 124.284 126.987 123.85 124.899 124.033C122.471 124.245 120.555 125.095 119.149 126.584C117.8 128.067 116.883 129.939 116.398 132.2C116.018 133.712 115.818 135.322 115.797 137.031ZM169.277 134.058C169.43 135.808 170.088 137.144 171.249 138.066C172.467 138.984 174.092 139.354 176.124 139.176C177.874 139.023 179.292 138.643 180.376 138.036C181.461 137.429 182.41 136.578 183.224 135.483C183.627 134.879 184.013 134.418 184.384 134.102C184.81 133.78 185.306 133.594 185.871 133.545L196.963 132.574C197.641 132.515 198.169 132.697 198.547 133.119C198.981 133.536 199.113 134.064 198.942 134.705C198.237 138.35 196.228 142.053 192.917 145.813C189.6 149.516 183.736 151.735 175.325 152.471C171.938 152.767 168.659 152.343 165.487 151.199C162.315 150.054 159.684 148.265 157.594 145.831C155.504 143.397 154.316 140.543 154.029 137.269C153.945 136.31 153.943 135.314 154.024 134.283C154.405 130.837 154.687 128.537 154.871 127.383C155.866 121.21 158.42 116.265 162.532 112.549C166.7 108.828 172.312 106.659 179.369 106.042C184.28 105.612 188.344 106.224 191.56 107.876C194.833 109.524 197.201 111.564 198.665 113.995C200.181 116.366 200.893 118.323 200.8 119.867C200.798 120.493 200.506 121.058 199.925 121.564C199.4 122.065 198.827 122.343 198.206 122.397L187.113 123.368C186.549 123.417 186.113 123.313 185.806 123.056C185.499 122.798 185.208 122.397 184.933 121.852C184.336 120.88 183.564 120.18 182.616 119.751C181.668 119.322 180.32 119.184 178.57 119.337C176.368 119.53 174.503 120.319 172.975 121.704C171.446 123.089 170.46 124.825 170.017 126.911C169.395 130.208 169.149 132.59 169.277 134.058ZM236.013 103.39C237.171 102.322 238.343 101.736 239.528 101.632L253.669 100.395C254.121 100.355 254.472 100.467 254.722 100.729C255.029 100.987 255.203 101.341 255.242 101.793C255.306 102.527 255.078 103.173 254.558 103.73L235.211 124.45L249.159 141.489C249.608 142.076 249.824 142.597 249.807 143.054C249.744 143.628 249.475 144.135 249.002 144.575C248.585 145.009 248.094 145.251 247.53 145.301L236.437 146.271C235.026 146.395 233.939 146.006 233.178 145.106L221.606 130.845L219.81 145.422C219.751 146.053 219.459 146.619 218.934 147.12C218.466 147.616 217.921 147.891 217.3 147.945L206.631 148.879C206.01 148.933 205.482 148.752 205.047 148.335C204.669 147.913 204.509 147.386 204.568 146.756L211.563 90.1707C211.621 89.5398 211.885 88.9764 212.354 88.4803C212.879 87.9793 213.452 87.7017 214.073 87.6473L224.742 86.7139C225.363 86.6596 225.862 86.8434 226.241 87.2654C226.675 87.6824 226.863 88.2063 226.805 88.8372L223.362 116.784L236.013 103.39Z" fill="#292323"/>
</svg>
