<svg xmlns:svg="http://www.w3.org/2000/svg" xmlns="http://www.w3.org/2000/svg" width="180" height="34" viewBox="0 0 47.624998 8.9958335" version="1.1" id="svg8"><defs id="defs2"><style id="style828">.cls-1{fill:none}</style><clipPath id="clip-path"><path id="path830" d="M 135.64,422.24 C 111.08,413.82 90.42,400.36 74.92,382.67 60,365.72 48.86,345.13 45.63,321 37.12,257.43 64.83,214.45 78.27,193.24 a 298.51,298.51 0 0 1 49,-58.55 A 329.67,329.67 0 0 1 192.91,87.4 310,310 0 0 1 267.42,58 c 25.14,-6.26 91.8,-18.45 141.08,0 16.82,6.28 39.26,24.34 52.8,43.61 14.18,20.19 21.86,43.64 23.26,68.92 1.44,26.29 -3.93,54.3 -15.7,82.2 -12.12,28.7 -30.83,56.87 -55.37,82.4 a 328.22,328.22 0 0 1 -89.77,65.73 c -34.26,17.11 -68.78,27 -101.37,30.16 -8,0.79 -15.8,1.18 -23.45,1.18 -22.84,0 -44.16,-3.45 -63.24,-10 M 276.33,42.51 A 379.88,379.88 0 0 0 186.08,78.26 402.54,402.54 0 0 0 106.61,135.5 372.77,372.77 0 0 0 46.43,206.93 C 29.62,233.1 16.7,261 8.85,289.43 c -8.2,29.56 -11.05,60 -7,89.82 4.15,31.47 15.62,59.37 33.28,82.75 18.61,24.65 44,44.12 74.84,57.11 32.28,13.62 70.14,20 111.31,17.68 42.62,-2.4 88,-14 133.14,-35.92 9.89,-4.78 19.44,-10 28.76,-15.5 l 93.62,66.57 c 0,0 9,9 16.22,6.31 7.22,-2.69 16.21,-13.5 16.21,-13.5 0,0 2.72,-3.61 -3.6,-12.62 -4.14,-5.92 -39.49,-51.24 -64.21,-88.47 a 394.73,394.73 0 0 0 30.63,-29.34 c 31.7,-34 55.27,-71.75 69.76,-110.14 14,-37 19.25,-74.06 15.54,-108.56 -3.54,-32.83 -15.18,-63 -34.93,-88.75 C 503.78,82.59 479.6,64.55 452.3,52.4 426.3,40.8 397.2,34.45 366.9,33.04 q -6.49,-0.31 -13.08,-0.3 a 321.26,321.26 0 0 0 -77.5,9.82" class="cls-1" fill="none"/></clipPath><clipPath id="clip-path-2"><path id="rect833" class="cls-1" fill="none" d="M-2.21 32.689999H561.07003V560.919979H-2.21z"/></clipPath></defs><metadata id="metadata5"/><g id="layer1" transform="translate(0,-288.00415)"><g id="g889" transform="translate(-60.30838,167.70687)"><g id="g899" transform="translate(6.9311599,0.25708563)"><path id="path817" d="m 68.352397,125.08106 a 1.7216681,1.7216681 0 0 1 -0.164764,0.78085 1.4948187,1.4948187 0 0 1 -0.494294,0.57547 1.5807827,1.5807827 0 0 1 -0.745021,0.26984 c 0.150437,0.0644 0.274607,0.11461 0.374899,0.14566 a 0.86441589,0.86441589 0 0 0 0.274607,0.0477 0.78561555,0.78561555 0 0 0 0.171928,-0.0215 l -0.176704,0.39879 a 0.61607541,0.61607541 0 0 1 -0.121782,0 0.82620966,0.82620966 0 0 1 -0.238789,-0.0382 2.7508483,2.7508483 0 0 1 -0.334304,-0.1385 c -0.140886,-0.0621 -0.23879,-0.10745 -0.331917,-0.13372 a 0.70203942,0.70203942 0 0 0 -0.238789,-0.0406 0.49190518,0.49190518 0 0 0 -0.162376,0.0263 0.64950586,0.64950586 0 0 0 -0.145662,0.0836 l -0.150436,-0.20059 a 0.67338475,0.67338475 0 0 1 0.343856,-0.18864 1.4781034,1.4781034 0 0 1 -0.823823,-0.58742 1.7264439,1.7264439 0 0 1 -0.30565,-0.9862 1.6906255,1.6906255 0 0 1 0.205359,-0.83337 1.466164,1.466164 0 0 1 0.575482,-0.57549 1.6715224,1.6715224 0 0 1 0.840536,-0.20774 1.7121166,1.7121166 0 0 1 0.854865,0.21014 1.5019823,1.5019823 0 0 1 0.585033,0.58025 1.6715224,1.6715224 0 0 1 0.207746,0.83337 z m -1.635704,1.22261 a 1.0148529,1.0148529 0 0 0 0.58742,-0.17432 1.1700657,1.1700657 0 0 0 0.391614,-0.45609 1.337218,1.337218 0 0 0 0.136111,-0.5922 1.2631934,1.2631934 0 0 0 -0.145662,-0.60413 1.0912653,1.0912653 0 0 0 -0.408329,-0.43698 1.1055927,1.1055927 0 0 0 -0.592196,-0.15999 1.0291803,1.0291803 0 0 0 -0.56593,0.1552 1.0578349,1.0578349 0 0 0 -0.382062,0.42982 1.356321,1.356321 0 0 0 -0.136111,0.61369 1.4327335,1.4327335 0 0 0 0.136111,0.63519 1.0267923,1.0267923 0 0 0 0.389226,0.43459 1.1151443,1.1151443 0 0 0 0.589808,0.15522 z m 3.734659,-1.67153 v -0.16476 h 0.386838 v 0.83576 h -0.386838 a 0.50623251,0.50623251 0 0 0 -0.19342,-0.37012 0.62562697,0.62562697 0 0 0 -0.386838,-0.12656 0.59458441,0.59458441 0 0 0 -0.33908,0.10029 0.66860897,0.66860897 0 0 0 -0.238788,0.2746 0.85486433,0.85486433 0 0 0 -0.08357,0.3749 0.84292489,0.84292489 0 0 0 0.186256,0.56593 0.60413596,0.60413596 0 0 0 0.477578,0.21969 0.67577264,0.67577264 0 0 0 0.661445,-0.43459 l 0.360572,0.17192 a 1.0626107,1.0626107 0 0 1 -1.041121,0.65906 1.1103685,1.1103685 0 0 1 -0.585032,-0.15521 1.0530591,1.0530591 0 0 1 -0.39639,-0.42744 1.2822965,1.2822965 0 0 1 -0.140885,-0.59936 1.2154356,1.2154356 0 0 1 0.171928,-0.58741 1.0315681,1.0315681 0 0 1 0.377286,-0.41311 1.0602228,1.0602228 0 0 1 0.551603,-0.14327 0.92411312,0.92411312 0 0 1 0.618463,0.2149 z m 3.044558,0.95516 a 1.1461868,1.1461868 0 0 1 -1.158126,1.16528 1.1700657,1.1700657 0 0 1 -0.596972,-0.15521 1.11992,1.11992 0 0 1 -0.415493,-0.42265 1.1939446,1.1939446 0 0 1 -0.148049,-0.58742 1.1939446,1.1939446 0 0 1 0.148049,-0.59937 1.0793259,1.0793259 0 0 1 0.413105,-0.41548 1.1939446,1.1939446 0 0 1 0.59936,-0.15999 1.1032048,1.1032048 0 0 1 0.589809,0.15999 1.1605141,1.1605141 0 0 1 0.568317,1.00529 z m -1.158126,0.73546 a 0.6614453,0.6614453 0 0 0 0.355795,-0.10028 0.69965154,0.69965154 0 0 0 0.250729,-0.26983 0.76890032,0.76890032 0 0 0 0.09074,-0.37252 0.75696088,0.75696088 0 0 0 -0.09074,-0.36773 0.72830621,0.72830621 0 0 0 -0.250729,-0.27461 0.67099687,0.67099687 0 0 0 -0.716366,0 0.71636676,0.71636676 0 0 0 -0.253116,0.27222 0.78322765,0.78322765 0 0 0 0,0.74024 0.70203942,0.70203942 0 0 0 0.255504,0.27223 0.66860897,0.66860897 0 0 0 0.358183,0.10028 z m 3.581834,-1.12708 v 1.09843 h 0.367734 v 0.38445 h -0.797554 v -1.46139 a 0.57786919,0.57786919 0 0 0 -0.0597,-0.29848 0.22446158,0.22446158 0 0 0 -0.198195,-0.0907 1.1079806,1.1079806 0 0 0 -0.649506,0.28416 v 1.17484 h 0.379674 v 0.38444 h -1.193944 v -0.38444 h 0.389226 v -1.43273 h -0.391611 v -0.38684 H 74.5824 v 0.26505 a 1.3228906,1.3228906 0 0 1 0.7689,-0.2961 0.51578407,0.51578407 0 0 1 0.436984,0.18387 0.91694945,0.91694945 0 0 1 0.136109,0.56832 z m 2.321028,-0.56832 v -0.15998 h 0.386838 v 0.83576 h -0.386838 a 0.50623251,0.50623251 0 0 0 -0.193419,-0.37012 0.63279063,0.63279063 0 0 0 -0.389226,-0.12656 0.60174808,0.60174808 0 0 0 -0.33908,0.10029 0.68771209,0.68771209 0 0 0 -0.238789,0.2746 0.85247644,0.85247644 0 0 0 -0.08119,0.3749 0.85247644,0.85247644 0 0 0 0.183868,0.56593 0.61129963,0.61129963 0 0 0 0.477578,0.21969 0.67338475,0.67338475 0 0 0 0.661445,-0.43459 l 0.372511,0.1767 a 1.0602228,1.0602228 0 0 1 -1.04112,0.65906 1.1151443,1.1151443 0 0 1 -0.585033,-0.15522 1.0482833,1.0482833 0 0 1 -0.394001,-0.42743 1.2822965,1.2822965 0 0 1 -0.128946,-0.60414 1.2417023,1.2417023 0 0 1 0.140885,-0.58741 1.0482833,1.0482833 0 0 1 0.382062,-0.41311 1.0745501,1.0745501 0 0 1 0.553991,-0.14327 0.92888893,0.92888893 0 0 1 0.618464,0.2149 z m 1.714504,1.6954 a 1.0053013,1.0053013 0 0 0 0.630403,-0.28415 v -1.19395 h -0.389226 v -0.37728 h 0.823822 v 1.81957 h 0.379674 v 0.38444 h -0.81427 v -0.2531 a 1.1939446,1.1939446 0 0 1 -0.716367,0.29132 0.55399029,0.55399029 0 0 1 -0.458475,-0.18387 0.99813765,0.99813765 0 0 1 -0.148049,-0.61369 v -1.05783 h -0.317589 v -0.38684 h 0.742634 v 1.53541 a 0.41549272,0.41549272 0 0 0 0.06208,0.25072 0.23878892,0.23878892 0 0 0 0.205358,0.0692 z m 2.504896,-0.53488 v 0.49907 h 0.477578 v 0.38444 h -1.349158 v -0.38444 h 0.448924 v -1.43273 h -0.448924 v -0.38684 h 0.785616 v 0.49907 a 0.87396744,0.87396744 0 0 1 0.329529,-0.41311 1.122308,1.122308 0 0 1 0.561154,-0.11701 h 0.0979 v 0.43938 h -0.09313 a 1.141411,1.141411 0 0 0 -0.525336,0.0931 0.44892317,0.44892317 0 0 0 -0.229238,0.27938 1.9365781,1.9365781 0 0 0 -0.05492,0.53966 z m 2.309089,-1.22737 v -0.0931 h 0.372511 v 0.7307 h -0.372511 v -0.13373 a 0.59936019,0.59936019 0 0 0 -0.515784,-0.26983 0.47757784,0.47757784 0 0 0 -0.281771,0.0764 0.23878892,0.23878892 0 0 0 -0.109843,0.19342 0.20058269,0.20058269 0 0 0 0.08357,0.16953 1.0076893,1.0076893 0 0 0 0.372511,0.10507 l 0.291323,0.0573 c 0.436987,0.0812 0.654284,0.29372 0.654284,0.63995 a 0.59219652,0.59219652 0 0 1 -0.238788,0.47759 0.98619827,0.98619827 0 0 1 -0.628015,0.18386 1.0029135,1.0029135 0 0 1 -0.303262,-0.0454 0.87157956,0.87157956 0 0 1 -0.248341,-0.0907 v 0.11939 h -0.374898 v -0.76413 h 0.386838 v 0.0764 a 0.38206227,0.38206227 0 0 0 0.176704,0.2555 0.59936019,0.59936019 0 0 0 0.339081,0.0955 0.62085119,0.62085119 0 0 0 0.331915,-0.074 0.23878892,0.23878892 0 0 0 0.121783,-0.22208 0.17431591,0.17431591 0 0 0 -0.09551,-0.15999 1.5497401,1.5497401 0 0 0 -0.389226,-0.10984 l -0.224462,-0.0477 a 0.89545845,0.89545845 0 0 1 -0.477578,-0.2388 0.57786919,0.57786919 0 0 1 -0.16954,-0.41071 0.56592974,0.56592974 0 0 1 0.112231,-0.35102 0.71636676,0.71636676 0 0 1 0.29371,-0.21968 0.98142246,0.98142246 0 0 1 0.367736,-0.074 1.0697743,1.0697743 0 0 1 0.525335,0.12418 z m 3.137686,1.01246 a 1.1461868,1.1461868 0 0 1 -0.152824,0.58742 1.162902,1.162902 0 0 1 -0.417881,0.42266 1.1461868,1.1461868 0 0 1 -0.585033,0.15521 1.1796173,1.1796173 0 0 1 -0.599361,-0.15521 1.1127563,1.1127563 0 0 1 -0.413104,-0.42266 1.1676778,1.1676778 0 0 1 -0.148049,-0.58742 1.1939446,1.1939446 0 0 1 0.148049,-0.59936 1.0721623,1.0721623 0 0 1 0.410717,-0.4155 1.1939446,1.1939446 0 0 1 0.601748,-0.14565 1.1103685,1.1103685 0 0 1 0.589808,0.15999 1.1390231,1.1390231 0 0 1 0.427433,0.41788 1.1700657,1.1700657 0 0 1 0.138497,0.58264 z m -1.155738,0.74979 a 0.65428164,0.65428164 0 0 0 0.353407,-0.10028 0.71636676,0.71636676 0 0 0 0.253116,-0.26983 0.7951671,0.7951671 0 0 0 0.09074,-0.37252 0.78322765,0.78322765 0 0 0 -0.09074,-0.36773 0.73546987,0.73546987 0 0 0 -0.253116,-0.27461 0.64711797,0.64711797 0 0 0 -0.358183,-0.10268 0.63517853,0.63517853 0 0 0 -0.353407,0.10268 0.70203942,0.70203942 0 0 0 -0.255505,0.27222 0.79994288,0.79994288 0 0 0 0,0.74024 0.71636676,0.71636676 0 0 0 0.255505,0.27223 0.67577264,0.67577264 0 0 0 0.358183,0.10028 z m 2.820097,-1.75509 v -0.10029 h 0.377286 v 0.7307 H 89.57118 v -0.13373 a 0.59936019,0.59936019 0 0 0 -0.515784,-0.26983 0.47757784,0.47757784 0 0 0 -0.281771,0.0764 0.23878892,0.23878892 0 0 0 -0.109843,0.19342 0.20058269,0.20058269 0 0 0 0.08357,0.16953 1.0076893,1.0076893 0 0 0 0.372511,0.10507 l 0.291323,0.0573 c 0.436987,0.0812 0.654285,0.29372 0.654285,0.63995 a 0.59219652,0.59219652 0 0 1 -0.238789,0.47759 0.98619827,0.98619827 0 0 1 -0.628015,0.18386 1.0029135,1.0029135 0 0 1 -0.303262,-0.0454 0.91933731,0.91933731 0 0 1 -0.250728,-0.0907 v 0.11939 h -0.38445 v -0.76413 h 0.38445 v 0.0764 a 0.39400172,0.39400172 0 0 0 0.179092,0.2555 0.59458441,0.59458441 0 0 0 0.33908,0.0955 0.62801486,0.62801486 0 0 0 0.331916,-0.074 0.23878892,0.23878892 0 0 0 0.121783,-0.22208 0.17431591,0.17431591 0 0 0 -0.09552,-0.15999 1.5497401,1.5497401 0 0 0 -0.389226,-0.10984 l -0.224461,-0.0477 a 0.89545845,0.89545845 0 0 1 -0.477578,-0.2388 0.57786919,0.57786919 0 0 1 -0.155213,-0.41788 0.5516024,0.5516024 0 0 1 0.112231,-0.35102 0.71636676,0.71636676 0 0 1 0.29371,-0.21968 0.98142246,0.98142246 0 0 1 0.367735,-0.074 1.0697743,1.0697743 0 0 1 0.522948,0.13133 z m 1.062611,2.10372 v -0.55637 h 0.561153 v 0.55637 z m 2.817706,-2.04403 v -0.15998 h 0.386843 v 0.83576 h -0.386843 a 0.50623251,0.50623251 0 0 0 -0.191025,-0.37012 0.63040275,0.63040275 0 0 0 -0.386842,-0.12656 0.59458441,0.59458441 0 0 0 -0.339082,0.10029 0.66860897,0.66860897 0 0 0 -0.238786,0.2746 0.85486433,0.85486433 0 0 0 -0.08357,0.3749 0.84292489,0.84292489 0 0 0 0.18625,0.56593 0.60413596,0.60413596 0 0 0 0.477581,0.21969 0.67099687,0.67099687 0 0 0 0.659058,-0.43459 l 0.362962,0.17192 a 1.0626107,1.0626107 0 0 1 -1.041126,0.65906 1.1103685,1.1103685 0 0 1 -0.585024,-0.15521 1.0530591,1.0530591 0 0 1 -0.396392,-0.42744 1.2822965,1.2822965 0 0 1 -0.14089,-0.59936 1.2154356,1.2154356 0 0 1 0.143273,-0.58741 1.0315681,1.0315681 0 0 1 0.403557,-0.41311 1.0602228,1.0602228 0 0 1 0.551605,-0.14327 0.92411312,0.92411312 0 0 1 0.618462,0.2149 z m 3.044561,0.95516 a 1.1461868,1.1461868 0 0 1 -1.158127,1.16529 1.1700657,1.1700657 0 0 1 -0.596974,-0.15521 1.11992,1.11992 0 0 1 -0.415488,-0.42266 1.1939446,1.1939446 0 0 1 -0.148047,-0.58742 1.1939446,1.1939446 0 0 1 0.148047,-0.59936 1.0793259,1.0793259 0 0 1 0.413106,-0.41549 1.1939446,1.1939446 0 0 1 0.599356,-0.15521 1.1103685,1.1103685 0 0 1 0.589808,0.15999 1.1390231,1.1390231 0 0 1 0.415497,0.42265 1.1724536,1.1724536 0 0 1 0.152822,0.57787 z m -1.158127,0.74024 a 0.6614453,0.6614453 0 0 0 0.355796,-0.10028 0.69965154,0.69965154 0 0 0 0.250727,-0.26983 0.76890032,0.76890032 0 0 0 0.09074,-0.37252 0.75696088,0.75696088 0 0 0 -0.09074,-0.36773 0.72830621,0.72830621 0 0 0 -0.250727,-0.27461 0.67099687,0.67099687 0 0 0 -0.716366,0 0.69487575,0.69487575 0 0 0 -0.253118,0.27222 0.78322765,0.78322765 0 0 0 0,0.74024 0.68293631,0.68293631 0 0 0 0.255509,0.27223 0.66860897,0.66860897 0 0 0 0.358179,0.10028 z m 1.817181,-0.0286 v -1.43273 h -0.372511 v -0.394 h 0.804723 v 0.27938 a 1.2321508,1.2321508 0 0 1 0.761736,-0.31042 0.51817195,0.51817195 0 0 1 0.522941,0.34624 1.294236,1.294236 0 0 1 0.799948,-0.34624 0.57309341,0.57309341 0 0 1 0.425041,0.1576 0.6614453,0.6614453 0 0 1 0.15999,0.47758 v 1.20827 h 0.38445 v 0.38445 h -0.816659 v -1.38975 a 1.5449643,1.5449643 0 0 0 -0.01435,-0.23879 0.27460725,0.27460725 0 0 0 -0.07644,-0.15282 0.25789203,0.25789203 0 0 0 -0.195808,-0.0644 0.71636676,0.71636676 0 0 0 -0.279381,0.0717 1.6309283,1.6309283 0 0 0 -0.33669,0.21491 v 1.17723 h 0.374893 v 0.38445 H 98.48989 v -1.44706 a 0.54443874,0.54443874 0 0 0 -0.06444,-0.30326 0.23878892,0.23878892 0 0 0 -0.212523,-0.0931 1.1939446,1.1939446 0 0 0 -0.625628,0.28655 v 1.17723 h 0.386842 v 0.38444 H 96.75632 v -0.38444 z" stroke-width=".2387889"/><g id="g868" transform="matrix(0.0157071,0,0,0.0157071,53.737761,120.14996)"><path id="path840" d="m 375.9,224.16 c 41.48,-6 70.09,-44.21 63.92,-85.3 -6.17,-41.09 -44.82,-69.52 -86.28,-63.5 -41.46,6.02 -70.09,44.21 -63.92,85.3 6.17,41.09 44.81,69.51 86.28,63.5 m 42.79,11.53 c -5,-2.47 -25.4,-10.77 -66.75,-4.37 -60.67,9.37 -72.11,45.14 -72.18,48 -0.11,3.63 7.64,89 12.63,91.64 44.52,23.23 139.56,-91.3 147.92,-119.76 1.84,-6.27 -6.48,-8 -21.63,-15.55" fill="#f9a432" fill-rule="evenodd"/><path id="path842" d="m 472.06,414.28 c 31.71,-34 55.28,-71.75 69.77,-110.14 14,-37 19.24,-74.06 15.54,-108.57 -3.54,-32.83 -15.18,-63 -34.93,-88.74 -18.64,-24.28 -42.82,-42.32 -70.12,-54.47 -26,-11.59 -55.11,-17.95 -85.41,-19.37 -29.2,-1.35 -59.85,1.86 -90.58,9.53 A 379.7,379.7 0 0 0 186.08,78.26 402.31,402.31 0 0 0 106.61,135.5 372.8,372.8 0 0 0 46.43,206.93 C 29.62,233.1 16.7,261 8.84,289.43 c -8.2,29.56 -11.05,60 -7,89.82 4.16,31.47 15.64,59.37 33.3,82.75 18.61,24.64 44,44.11 74.84,57.1 32.29,13.62 70.13,20 111.31,17.67 42.62,-2.39 88,-14 133.14,-35.91 9.9,-4.78 19.45,-10 28.76,-15.5 l 93.62,66.56 c 0,0 9,9 16.22,6.31 7.22,-2.69 16.21,-13.5 16.21,-13.5 0,0 2.72,-3.61 -3.6,-12.62 -4.14,-5.93 -39.49,-51.24 -64.21,-88.47 A 392.53,392.53 0 0 0 472.06,414.3 M 323.7,400.89 c -34.26,17.11 -68.77,27 -101.36,30.16 -31.74,3.14 -61.22,-0.07 -86.69,-8.81 C 111.09,413.82 90.43,400.35 74.92,382.68 60,365.72 48.85,345.13 45.63,321 37.12,257.43 64.83,214.45 78.27,193.24 a 298.58,298.58 0 0 1 49,-58.55 329.47,329.47 0 0 1 65.64,-47.29 310.39,310.39 0 0 1 74.5,-29.4 c 25.14,-6.25 91.81,-18.44 141.09,0 16.83,6.29 39.25,24.34 52.8,43.62 14.18,20.18 21.86,43.64 23.26,68.92 1.44,26.29 -3.92,54.31 -15.71,82.2 -12.11,28.7 -30.83,56.87 -55.37,82.4 a 328.26,328.26 0 0 1 -89.78,65.73" fill="#ef8621"/><g id="g848" clip-path="url(#clip-path)"><g id="g846" clip-path="url(#clip-path-2)"><path id="rect844" fill="#f08721" d="M0 0H1174V1101H0z"/></g></g><path id="path850" d="M 195.35,211 C 253.86,202.51 294.23,148.64 285.52,90.68 276.81,32.72 222.32,-7.36 163.81,1.13 105.3,9.62 64.93,63.49 73.64,121.46 c 8.71,57.97 63.2,98.07 121.71,89.58 m 91,21.29 C 279.63,228.93 239.81,208.41 183.54,216.77 101,229 85.18,277.56 85,281.5 c -0.17,4.94 2.76,71.12 8.07,76.66 83.55,87.07 189.31,43.92 241.35,5.7 4.22,-3.1 -27.54,-121.14 -48.08,-131.53" fill="#f4d52a" fill-rule="evenodd"/></g></g></g></g></svg>