<svg width="952.07" height="170.57" xmlns="http://www.w3.org/2000/svg"><g fill="#8a8888"><path d="M33.9 28.734v26.91h9.672c11.442 0 15.48-5.607 15.48-14.35 0-9.43-5.167-12.562-15.725-12.562zm29.413 104.138l-13.906-36.81C44.237 82.367 41.32 80.553 33.9 80.553v52.318H.001V.882h45.36c38.849 0 51.413 15.724 51.413 37.72 0 22.65-11.906 34.337-27.381 36.812 4.482 1.346 9.866 7.394 13.252 14.351 4.256 8.743 15.475 33.21 19.736 43.107H63.314M116.541 132.874V.884h74.092v27.85H150.44v22.214h32.798v26.914H150.44v26.719h45.142v28.293h-79.04M332.338 132.874h-36.15l-6.767-38.16c-2.912-15.946-5.828-33.212-6.485-41.513h-.223c-.25 6.487-3.157 24.22-6.293 41.512l-6.96 38.16h-37.056L200.294.884h35.928l7.4 35.686c6.293 29.64 7.418 42.42 7.641 47.366.905-10.555 3.133-26.942 6.732-46.46L264.733.882h37.72L311 45.118c2.01 9.87 4.485 22.655 5.395 38.815h.214c.663-11.903 4.704-37.468 7.179-50.28l6.734-32.77h36.154l-34.338 131.99M376.097 132.874V.884h74.308v27.85h-40.413v22.214h33.02v26.914h-33.02v26.719h45.366v28.293h-79.26"/><g fill-rule="evenodd"><path d="M939.483 132.874h12.561V.884h-12.56v131.99M874.818 30.52c-28.754 0-52.101 23.34-52.101 52.068 0 28.733 23.347 52.072 52.101 52.072 15.693 0 29.854-6.953 39.507-18.171v16.385h12.562V82.588c0-28.728-23.336-52.068-52.069-52.068zm0 91.574c-21.8 0-39.534-17.728-39.534-39.507 0-21.776 17.733-39.507 39.534-39.507 21.776 0 39.507 17.731 39.507 39.507 0 21.78-17.731 39.507-39.507 39.507"/><path d="M752.635 32.307v100.565h12.593V44.868h26.944v88.004h12.561V44.868h25.848V32.306h-25.848V.88h-12.56v31.425h-39.538M740.075 118.495c0 28.733-23.34 52.075-52.096 52.075-25.349 0-46.464-18.176-51.195-42.202h13.034c4.262 17.067 19.765 29.634 38.16 29.634 21.804 0 39.532-17.734 39.532-39.505v-2.007c-9.645 11.218-23.806 18.171-39.531 18.171-28.729 0-52.075-23.339-52.075-52.072 0-28.728 23.346-52.068 52.075-52.068 28.756 0 52.096 23.34 52.096 52.068zm-52.096-75.414c-21.776 0-39.51 17.732-39.51 39.507 0 21.78 17.734 39.507 39.51 39.507 21.803 0 39.53-17.727 39.53-39.507 0-21.775-17.727-39.507-39.53-39.507M612.091 132.874h12.565V32.308h-12.565v100.566M598.625 82.588c0 28.733-23.338 52.072-52.092 52.072-28.733 0-52.101-23.34-52.101-52.072 0-28.728 23.368-52.068 52.101-52.068 15.724 0 29.851 6.954 39.507 18.173V.883h12.585v81.704zm-52.092-39.507c-21.775 0-39.507 17.732-39.507 39.507 0 21.78 17.732 39.507 39.507 39.507 21.771 0 39.507-17.727 39.507-39.507 0-21.775-17.736-39.507-39.507-39.507M618.398 0c4.013 0 7.174 3.134 7.174 7.178 0 4.041-3.16 7.175-7.174 7.175-4.068 0-7.205-3.134-7.205-7.175 0-4.044 3.137-7.177 7.205-7.177M758.941 0c4.044 0 7.2 3.134 7.2 7.178 0 4.041-3.156 7.175-7.2 7.175-4.039 0-7.172-3.134-7.172-7.175 0-4.044 3.133-7.177 7.172-7.177"/></g></g></svg>