<svg width="144" height="27" fill="none" xmlns="http://www.w3.org/2000/svg">
  <path d="M63.3 2.03c0-.6.18-1.09.53-1.47.35-.37.81-.56 1.38-.56.57 0 1.04.18 1.42.55.37.36.56.85.56 1.48 0 .6-.19 1.07-.56 1.41-.38.34-.85.5-1.42.5s-1.03-.17-1.38-.52a1.89 1.89 0 01-.52-1.39z" fill="#181B2B"/>
  <path d="M66.6 7.75v18.8h-2.79V7.75h2.8z" fill="#181B2B"/>
  <path d="M53.1 7.75h-2.36v2.44h2.36v11.58c0 1.83.28 3.16.84 3.97.55.82 1.48 1.22 2.77 1.22a9.31 9.31 0 004.04-.9l-.55-2.14c-.44.17-.84.32-1.22.43a4.7 4.7 0 01-1.34.17c-.62 0-1.06-.25-1.34-.73a5.18 5.18 0 01-.4-2.4V10.2h4.19V7.75h-4.2v-4.6l-2.79.87v3.73z" fill="#181B2B"/>
  <path d="M6.7 23.47a8.51 8.51 0 004.03 1.09c.85 0 1.58-.21 2.17-.63.6-.41.9-1.09.9-2.02 0-.78-.19-1.43-.55-1.93-.36-.5-.82-.96-1.38-1.36-.55-.4-1.15-.78-1.8-1.11a9.62 9.62 0 01-1.8-1.22 5.03 5.03 0 01-1.92-4.16c0-1.6.44-2.8 1.33-3.62.9-.8 2.16-1.21 3.79-1.21 1.06 0 1.97.09 2.75.28.78.19 1.45.44 2.02.77l-.74 2.25a8.18 8.18 0 00-3.69-.86c-.93 0-1.6.19-2.03.56-.43.38-.64.97-.64 1.77 0 .63.18 1.16.54 1.6.36.44.82.84 1.38 1.2.55.37 1.15.74 1.8 1.11.65.38 1.25.82 1.8 1.34a6.46 6.46 0 011.38 1.84c.37.71.55 1.61.55 2.69 0 .7-.12 1.36-.35 2a4.36 4.36 0 01-1.07 1.63c-.48.46-1.07.83-1.78 1.1a6.9 6.9 0 01-2.5.42c-1.15 0-2.13-.1-2.96-.32a7.58 7.58 0 01-2.1-.85l.86-2.36z" fill="#181B2B"/>
  <path d="M0 17.64c0-.64.17-1.12.53-1.44.35-.32.82-.48 1.42-.48s1.07.16 1.42.48c.35.32.52.8.52 1.44 0 .66-.17 1.15-.52 1.46-.35.32-.83.48-1.42.48-.6 0-1.07-.16-1.42-.48-.36-.31-.53-.8-.53-1.46z" fill="#181B2B"/>
  <path fill-rule="evenodd" clip-rule="evenodd" d="M22.66 7.82c-1.07.25-1.98.6-2.73 1.05l.92 2.14c.56-.32 1.27-.6 2.12-.8a9.66 9.66 0 012.34-.32c1.15 0 1.95.28 2.38.86.44.58.66 1.58.66 3 0 .61-.04 1.3-.12 2.08a9.19 9.19 0 00-.8-.04h-.78c-1.15 0-2.2.1-3.13.28-.94.2-1.75.51-2.43.96a4.61 4.61 0 00-1.58 1.77 5.89 5.89 0 00-.55 2.7c0 1.66.44 2.96 1.33 3.9a4.48 4.48 0 003.4 1.4c1.26 0 2.26-.23 3-.7a5.11 5.11 0 001.7-1.7h.16l.68 2.22h2.18c-.18-.73-.3-1.5-.37-2.31-.07-.82-.1-1.7-.1-2.65 0-1.28.03-2.63.1-4.06.07-1.43.1-2.9.1-4.4 0-.75-.06-1.47-.17-2.16a4.5 4.5 0 00-.74-1.85c-.38-.53-.9-.96-1.55-1.27a6.17 6.17 0 00-2.62-.47c-1.2 0-2.32.12-3.4.37zm4.84 10.1c.26.01.51.03.77.06v3.98c-.23.6-.64 1.15-1.23 1.66-.59.5-1.42.75-2.5.75-.78 0-1.43-.28-1.93-.83a3.35 3.35 0 01-.74-2.33c0-.65.13-1.2.4-1.62.27-.42.63-.76 1.1-1.01.45-.25.97-.43 1.56-.53a10.78 10.78 0 012.57-.13z" fill="#181B2B"/>
  <path d="M45.57 26.55V15.08c0-1.88-.22-3.24-.67-4.08-.46-.84-1.27-1.26-2.43-1.26a3.7 3.7 0 00-2.56.9 5.29 5.29 0 00-1.48 2.22v13.69h-2.79V7.75h2.02l.5 1.99h.12a6.01 6.01 0 015-2.44c.83 0 1.56.1 2.2.33.63.23 1.16.61 1.59 1.15.42.54.75 1.26.97 2.16.22.9.33 2.05.33 3.43v12.18h-2.8z" fill="#181B2B"/>
  <path d="M80.85 15.38v11.17h2.8V13c.22-1 .63-1.8 1.21-2.39a3.15 3.15 0 012.35-.88c1.17 0 1.91.4 2.23 1.2.33.8.49 2.02.49 3.65v11.96h2.8v-12.3c0-1.35-.1-2.47-.28-3.36a5.75 5.75 0 00-.83-2.15 2.95 2.95 0 00-1.48-1.13 6.66 6.66 0 00-2.19-.32 5.6 5.6 0 00-2.85.76c-.87.5-1.54 1.19-2 2.06a4.1 4.1 0 00-1.5-2.2 4.36 4.36 0 00-2.42-.62 5.5 5.5 0 00-4.81 2.45h-.12l-.5-2h-1.98v18.8h2.8V13.02c.23-.85.64-1.61 1.25-2.27.61-.67 1.35-1 2.23-1 .6 0 1.08.1 1.44.32.36.21.65.54.85 1 .21.45.35 1.03.41 1.74.07.72.1 1.58.1 2.58z" fill="#181B2B"/>
  <path fill-rule="evenodd" clip-rule="evenodd" d="M108.63 25.27a6.4 6.4 0 01-2.36 1.28c-.96.3-1.97.45-3.03.45a6.77 6.77 0 01-3.16-.7 5.93 5.93 0 01-2.22-1.99c-.58-.86-1-1.9-1.28-3.1a18.5 18.5 0 01-.4-4.06c0-3.21.6-5.66 1.82-7.34a6 6 0 015.16-2.52 9 9 0 012.16.27c.7.17 1.35.52 1.92 1.05a5.59 5.59 0 011.37 2.22c.35.95.53 2.2.53 3.72 0 .43-.02.89-.06 1.37-.04.5-.08 1-.14 1.53H99.1c0 1.08.09 2.05.27 2.93.18.88.46 1.63.85 2.24.4.61.89 1.09 1.5 1.43.6.34 1.36.5 2.27.5a5.99 5.99 0 003.64-1.27l1.01 1.99zm-2.17-10.08c.05-1.88-.22-3.26-.81-4.13a2.8 2.8 0 00-2.45-1.32c-1.19 0-2.13.44-2.83 1.32-.7.87-1.11 2.25-1.24 4.13h7.33z" fill="#181B2B"/>
  <path d="M122.99 15.08v11.47h2.8V14.37c0-1.38-.12-2.52-.34-3.43a5.57 5.57 0 00-.97-2.16 3.48 3.48 0 00-1.59-1.15 6.53 6.53 0 00-2.19-.33 6 6 0 00-5 2.44h-.12l-.5-2h-2.02v18.81h2.79V12.86a5.3 5.3 0 011.47-2.22 3.7 3.7 0 012.57-.9c1.16 0 1.97.42 2.42 1.26.45.84.68 2.2.68 4.08z" fill="#181B2B"/>
  <path d="M128.15 7.75h2.37V4.02l2.8-.86v4.59h4.18v2.44h-4.19v11.2c0 1.11.14 1.9.41 2.4.27.48.72.73 1.34.73.51 0 .96-.06 1.34-.17.37-.11.78-.26 1.22-.43l.54 2.14a9.22 9.22 0 01-4.03.9c-1.3 0-2.22-.4-2.78-1.22-.55-.81-.83-2.14-.83-3.97V10.2h-2.37V7.75z" fill="#181B2B"/>
  <path d="M140.63 15.9c-.35.33-.52.8-.52 1.44 0 .66.17 1.15.52 1.47.35.32.83.48 1.42.48.6 0 1.07-.16 1.42-.48.35-.32.53-.8.53-1.47 0-.64-.18-1.11-.53-1.43a2.04 2.04 0 00-1.42-.48c-.6 0-1.07.16-1.42.48z" fill="#181B2B"/>
</svg>
