<svg viewBox="0 0 167 40" xmlns="http://www.w3.org/2000/svg">
	<defs></defs>
	<defs>
		<path
			d="M5.18154383 27.6695385l.14496154.0095577c.14423077.0190961.28534615.06675.41503846.1424423L5.73538998 27.84l8.28307692 4.9969231.1206762.0621766c.3289952.1450788.7105033.1243533 1.0239392-.0621766L23.4646208 27.84l.1188882-.0599886c.3238696-.1399734.6976588-.1199772 1.0072656.0599886l3.9138462 2.2892308.100907.066316c.4488092.3310529.5856981.9541558.299093 1.4475301l-.0792885.1190962c-.0868269.1133654-.1956346.2089038-.3207115.2809038l-13.3723077 7.7415385-.1171409.0583476c-.3189465.1361443-.6858677.1166951-.9905514-.0583476L.56000537 32.0307692l-.10129195-.0659635c-.45067523-.3294881-.59035933-.9521698-.30547728-1.4472672l.00061538-.0006154.06396062-.09984c.09259323-.1277046.21370092-.23296.35450092-.3063139l4.04923077-2.2892307c.17292308-.1009231.36676923-.152.56-.152zm-4.07876923-13.472l.11429415.005952c.15243816.015931.30416739.0640787.44447508.1472787l17.45230767 10.16.1223173.08425c.1165673.0916731.2152212.2049808.2899904.3342116l.0526616.1085257c.2160126.5136582.0183948 1.118305-.477277 1.3991666l-3.9507692 2.1846154-.1163423.0581652c-.3168733.1357189-.6821534.1163305-.9851962-.0581652L.54769768 20.72l-.1079042-.0729345C.165445 20.4374397.00055178 20.1106325 0 19.76v-4.4553846l.00595462-.11872c.01632767-.1573416.06605075-.3099569.14728152-.4468185.20492307-.3476923.57230769-.5415384.94953846-.5415384zm13.4603077-3.1187693l.1423077.0091154c.1416923.0182308.2806154.0638077.4084615.1367308l13.4523077 7.8276923.1090877.0722456c.2773739.2081267.4442115.5360279.4447585.8877544v4.4553846l-.0126425.1190302c-.0252652.1572037-.0838498.3075544-.1719729.4409698l-.0663161.100907c-.3310528.4488092-.9541557.5856981-1.4475301.299093L10.0430823 15.36l-.1066437-.0665305c-.13650708-.0964726-.24954092-.2231926-.33027939-.3703926l-.05199936-.1083766c-.21271448-.5128336-.00904679-1.1147618.48892245-1.387008l3.9692308-2.2030769c.1710769-.0972308.3606153-.1458462.5507692-.1458462zM14.5784669 0l.142875.00923077c.1423558.01846154.2822019.06461538.4109712.13846154l13.3723077 7.75384615.1186634.08206731c.1129904.08916346.2084135.19900961.2813366.32408654l.0549739.10755501c.2266753.50975507.0378261 1.11911165-.4549739 1.40629114l-3.92 2.27076924-.1188883.0599886c-.3238696.1399734-.6976588.1199772-1.0072656-.0599886l-8.3015385-4.99692308-.1202304-.06381767c-.3282254-.14890788-.7120431-.12763533-1.0243849.06381767L5.73538998 12.0923077l.00615385.0184615-.11810995.0599886c-.32189765.1399734-.69447125.1199772-1.00189005-.0599886L.57231306 9.82153846l-.10117908-.06308431C.3413223 9.6672.23262075 9.54806154.15385152 9.40923077l-.05402256-.10749958c-.2223918-.50924709-.03147487-1.11473632.4601764-1.40019273L14.0246208.14769231C14.1963131.04923077 14.3870823 0 14.5784669 0z"
			id="a"></path>
	</defs>
	<g fill="none" fill-rule="evenodd">
		<path
			d="M44.5476977 11.7353846c1.0646154 0 5.2615384.3261539 5.2615384 2.1723077.0006154.7101539-.5753846 1.2867692-1.2855384 1.2867692-.0147693 0-.0289231 0-.0436923-.0006153-1.1569231 0-2-.96-4.0984616-.96-2.0984615 0-3.1323077.6153846-3.1323077 1.9692307 0 1.0892308.9353847 1.68 2.2953847 2.1476923 1.5815384.5476923 3.3292307.8923077 4.836923 1.8461539 1.3101539.76 2.0972308 2.1784615 2.0492308 3.6923077 0 3.2615384-2.64 5.1323077-6.2215385 5.1323077-2.4184615 0-5.9507864-.9107693-5.9507864-2.5169231-.0034454-.6882692.5171926-1.2564664 1.18721-1.3278448l.1358841-.0075398c1.1076923 0 2.0246154 1.4030769 4.5661539 1.4030769 2.32 0 3.2615384-1.1323077 3.2615384-2.4615385 0-1.1323077-.8923077-1.7784615-2.1230769-2.2707692-1.3846154-.5415385-3.1138461-.8615385-4.6461538-1.7046154-1.4455385-.7187692-2.3403077-2.2141538-2.2892308-3.8276923 0-2.72 2.1723077-4.5723077 6.1969231-4.5723077zm32.5076923.0092308c4.728.1243077 8.5310769 3.9273846 8.6554949 8.6553846.0245051 5.0153846-4.0739565 8.6153846-8.892418 8.6153846-4.8369231 0-8.8861538-3.6246154-8.8861538-8.6153846.1292307-4.9095385 4.2135384-8.7846154 9.1230769-8.6553846zm87.726154 1.2523077c1.305231 1.0116923 2.033231 2.5969231 1.950769 4.2461538.049231 1.5827693-.656615 3.0947693-1.901538 4.0738462-.515077.4276923-1.112.7458461-1.753847.9353846l3.452308 4.6646154c.147077.2116923.226462.4627692.227692.72-.023384.7636923-.645538 1.3723077-1.40923 1.3784615-.472-.0006154-.914462-.2301538-1.187693-.6153846l-4.147692-5.7969231h-3.895385v5.0646154c-.023384.7458462-.638153 1.336-1.384615 1.3292308-.747692.0172307-1.367385-.5747693-1.384615-1.3224616V13.3169231c.003077-.7513846.614769-1.3575385 1.366154-1.3538462h5.895384c1.463385-.0892307 2.919385.2713846 4.172308 1.0338462zM61.2861592 11.7230769c2 0 5.3107692.5476923 5.3107692 2.1969231.0375385.6787692-.4824615 1.2590769-1.1612307 1.2966154-.0147693.0012308-.0301539.0018461-.0449231.0018461-1.0092308 0-1.6553846-.96-4.1230769-.96-3.3218462.0473847-5.9815385 2.7698462-5.9507693 6.0923077-.1261538 3.2332308 2.392 5.9563077 5.6252308 6.083077.1163077.0043076.2332308.0055384.3501539.0030769 2.3692307 0 3.3107692-.96 4.2215384-.96.6787693-.0313846 1.2547693.4941538 1.2861539 1.1729231.0012307.0356923.0012307.0713846 0 .1070769 0 1.8030769-4.1723077 2.2461538-5.5384616 2.2461538-4.9846154 0-8.8615384-3.3784615-8.8615384-8.6646154.0363077-4.7956923 3.9526154-8.6535384 8.7483077-8.6172307.0455384 0 .0916923.0006154.1378461.0018461zm58.9846158 1.4707693c1.340307 1.0984615 2.089846 2.7606153 2.024615 4.4923076.033846 1.7913847-.780923 3.4929231-2.196923 4.5907693-1.145846.7809231-2.517539 1.1618461-3.901539 1.0830769h-4.221538v4.3076923c-.020308.7470769-.636923 1.3396923-1.384615 1.3292308-.744.0172307-1.361231-.5723077-1.378462-1.3163077V13.3169231c0-.7476923.606154-1.3538462 1.353846-1.3538462h5.753846c1.420308-.0652307 2.818462.3704616 3.95077 1.2307693zm-29.9938466-1.4584616c.624-.0110769 1.2036924.3224616 1.5076924.8676923l5.3046153 8.96 5.3599999-8.96c.296-.5501538.876923-.8861538 1.501539-.8676923.916923-.0375384 1.690461.6756923 1.728 1.5926154l.001307.0436923-.000077 14.3636923c-.050461.7427692-.692923 1.304-1.435692 1.2535385-.672615-.0455385-1.208-.5809231-1.253538-1.2535385V16.7507692l-4.5169235 7.4769231c-.3747692.7513846-1.288 1.056-2.0387692.6812308-.2947692-.1470769-.5341539-.3864616-.6812308-.6812308l-4.5169231-7.4769231v10.9846154c-.0504615.7427692-.692923 1.304-1.4356923 1.2535385-.6726153-.0455385-1.208-.5809231-1.253662-1.2535385v-14.32c-.0109533-.9175384.7238159-1.6701538 1.6419697-1.6812308.0289231-.0006153.0584616 0 .0873846.0012308zm36.0184616 0c.740923-.0203077 1.357538.5636923 1.377846 1.304l.000539.0156923.000077 13.2710769h7.163076c.68 0 1.23077.5507693 1.23077 1.2307693 0 .68-.55077 1.2307692-1.23077 1.2307692h-8.541538c-.747692.0172308-1.367385-.5747692-1.384615-1.3224615V13.0707692c.012742-.7066063.562423-1.2780239 1.252968-1.3315174l.131647-.0038672zm23.378462.24c.660307.0264616 1.182153.5698462 1.181538 1.2307692.020308.659077-.497231 1.2098462-1.156308 1.2301539l-8.74523.0006154v4.7138461h7.433846c.68 0 1.230769.5507693 1.230769 1.2307693 0 .68-.550769 1.2307692-1.230769 1.2307692h-7.433846v4.7138461h8.72c.68 0 1.230769.5507693 1.230769 1.2307693 0 .68-.550769 1.2307692-1.230769 1.2307692H139.57539c-.747692.0172308-1.367385-.5747692-1.384615-1.3224615V13.3046154c.013538-.7476923.630153-1.3427692 1.377846-1.3292308h10.105231zm-72.8553851 2.3569231c-3.3458461.1064615-5.9716923 2.9058461-5.8652308 6.2516923.1015385 3.1963077 2.6689231 5.7630769 5.8652308 5.8652308 3.256.032 5.9206154-2.5821539 5.9526154-5.8375385.0006154-.0707692 0-.1409231-.0018462-.2116923.0849231-3.2652308-2.492923-5.9809231-5.7581538-6.0658462-.064-.0018461-.1286154-.0024615-.1926154-.0018461zm39.1323081.0492308h-3.975385v6.5661538h3.803077c.828923.0473846 1.653538-.152 2.369231-.5723077.887384-.6098461 1.391384-1.6387692 1.32923-2.7138461.075077-1.0406154-.389538-2.0473847-1.230769-2.6646154-.684307-.4350769-1.485538-.6498462-2.295384-.6153846zm44.387692-.1046154l-4.221539.0123077v5.92h4.196924c.827692.0516923 1.654153-.1181539 2.393846-.4923077.828923-.5341539 1.300307-1.4781539 1.230769-2.4615385.077538-.9735384-.373539-1.9132308-1.181539-2.4615384-.741538-.3969231-1.579692-.576-2.418461-.5169231z"
			fill="#1D1D1B"></path>
		<path
			d="M5.18154383 27.6695385l.14496154.0095577c.14423077.0190961.28534615.06675.41503846.1424423L5.73538998 27.84l8.28307692 4.9969231.1206762.0621766c.3289952.1450788.7105033.1243533 1.0239392-.0621766L23.4646208 27.84l.1188882-.0599886c.3238696-.1399734.6976588-.1199772 1.0072656.0599886l3.9138462 2.2892308.100907.066316c.4488092.3310529.5856981.9541558.299093 1.4475301l-.0792885.1190962c-.0868269.1133654-.1956346.2089038-.3207115.2809038l-13.3723077 7.7415385-.1171409.0583476c-.3189465.1361443-.6858677.1166951-.9905514-.0583476L.56000537 32.0307692l-.10129195-.0659635c-.45067523-.3294881-.59035933-.9521698-.30547728-1.4472672l.00061538-.0006154.06396062-.09984c.09259323-.1277046.21370092-.23296.35450092-.3063139l4.04923077-2.2892307c.17292308-.1009231.36676923-.152.56-.152zm-4.07876923-13.472l.11429415.005952c.15243816.015931.30416739.0640787.44447508.1472787l17.45230767 10.16.1223173.08425c.1165673.0916731.2152212.2049808.2899904.3342116l.0526616.1085257c.2160126.5136582.0183948 1.118305-.477277 1.3991666l-3.9507692 2.1846154-.1163423.0581652c-.3168733.1357189-.6821534.1163305-.9851962-.0581652L.54769768 20.72l-.1079042-.0729345C.165445 20.4374397.00055178 20.1106325 0 19.76v-4.4553846l.00595462-.11872c.01632767-.1573416.06605075-.3099569.14728152-.4468185.20492307-.3476923.57230769-.5415384.94953846-.5415384zm13.4603077-3.1187693l.1423077.0091154c.1416923.0182308.2806154.0638077.4084615.1367308l13.4523077 7.8276923.1090877.0722456c.2773739.2081267.4442115.5360279.4447585.8877544v4.4553846l-.0126425.1190302c-.0252652.1572037-.0838498.3075544-.1719729.4409698l-.0663161.100907c-.3310528.4488092-.9541557.5856981-1.4475301.299093L10.0430823 15.36l-.1066437-.0665305c-.13650708-.0964726-.24954092-.2231926-.33027939-.3703926l-.05199936-.1083766c-.21271448-.5128336-.00904679-1.1147618.48892245-1.387008l3.9692308-2.2030769c.1710769-.0972308.3606153-.1458462.5507692-.1458462zM14.5784669 0l.142875.00923077c.1423558.01846154.2822019.06461538.4109712.13846154l13.3723077 7.75384615.1186634.08206731c.1129904.08916346.2084135.19900961.2813366.32408654l.0549739.10755501c.2266753.50975507.0378261 1.11911165-.4549739 1.40629114l-3.92 2.27076924-.1188883.0599886c-.3238696.1399734-.6976588.1199772-1.0072656-.0599886l-8.3015385-4.99692308-.1202304-.06381767c-.3282254-.14890788-.7120431-.12763533-1.0243849.06381767L5.73538998 12.0923077l.00615385.0184615-.11810995.0599886c-.32189765.1399734-.69447125.1199772-1.00189005-.0599886L.57231306 9.82153846l-.10117908-.06308431C.3413223 9.6672.23262075 9.54806154.15385152 9.40923077l-.05402256-.10749958c-.2223918-.50924709-.03147487-1.11473632.4601764-1.40019273L14.0246208.14769231C14.1963131.04923077 14.3870823 0 14.5784669 0z"
			id="a" fill="#832164"></path>
	</g>
</svg>
