<svg width="182" height="27" viewBox="0 0 182 27" fill="none" xmlns="http://www.w3.org/2000/svg">
<path d="M5.476 19.988C4.493 19.988 3.528 19.819 2.581 19.481C1.635 19.143 0.774 18.623 2.86102e-08 17.923L1.676 15.913C2.267 16.391 2.872 16.773 3.493 17.056C4.114 17.338 4.794 17.479 5.532 17.479C6.12 17.479 6.579 17.373 6.906 17.156C7.23 16.941 7.394 16.644 7.394 16.263V16.225C7.394 16.039 7.36 15.879 7.292 15.737C7.224 15.596 7.094 15.462 6.904 15.34C6.712 15.218 6.447 15.094 6.109 14.971C5.771 14.849 5.33 14.72 4.787 14.584C4.134 14.424 3.543 14.246 3.012 14.051C2.482 13.853 2.033 13.61 1.663 13.322C1.293 13.033 1.006 12.675 0.803 12.243C0.6 11.813 0.498 11.278 0.498 10.639V10.602C0.498 10.012 0.608 9.48 0.827 9.006C1.048 8.533 1.356 8.125 1.752 7.78C2.149 7.437 2.624 7.172 3.175 6.987C3.727 6.802 4.334 6.711 4.997 6.711C5.944 6.711 6.813 6.852 7.605 7.135C8.397 7.418 9.126 7.824 9.79 8.352L8.316 10.491C7.738 10.098 7.173 9.787 6.619 9.56C6.065 9.333 5.514 9.22 4.96 9.22C4.406 9.22 3.992 9.327 3.715 9.543C3.438 9.758 3.301 10.025 3.301 10.344V10.382C3.301 10.591 3.34 10.772 3.42 10.925C3.5 11.078 3.645 11.217 3.854 11.34C4.063 11.464 4.351 11.579 4.713 11.691C5.078 11.801 5.537 11.93 6.091 12.078C6.743 12.251 7.326 12.444 7.838 12.659C8.349 12.874 8.781 13.132 9.131 13.434C9.483 13.735 9.747 14.088 9.927 14.494C10.104 14.9 10.194 15.386 10.194 15.951V15.988C10.194 16.628 10.078 17.196 9.847 17.694C9.614 18.192 9.29 18.61 8.875 18.947C8.459 19.286 7.964 19.544 7.388 19.721C6.815 19.899 6.176 19.988 5.476 19.988Z" fill="black"/>
<path d="M12.638 6.897H22.354V9.421H15.44V12.042H21.525V14.566H15.44V17.278H22.446V19.802H12.638V6.897Z" fill="black"/>
<path d="M25.098 6.897H27.716L33.763 14.844V6.897H36.566V19.803H34.151L27.9 11.598V19.803H25.098V6.897Z" fill="black"/>
<path d="M39.684 6.897H44.718C45.725 6.897 46.651 7.059 47.493 7.386C48.334 7.711 49.06 8.162 49.668 8.741C50.276 9.319 50.747 9.998 51.079 10.778C51.41 11.559 51.577 12.403 51.577 13.312V13.35C51.577 14.26 51.41 15.107 51.079 15.894C50.747 16.681 50.276 17.364 49.668 17.94C49.06 18.52 48.334 18.973 47.493 19.305C46.65 19.637 45.725 19.803 44.718 19.803H39.684V6.897ZM44.718 17.241C45.296 17.241 45.824 17.148 46.304 16.964C46.784 16.78 47.192 16.515 47.531 16.172C47.868 15.827 48.133 15.422 48.324 14.955C48.514 14.489 48.61 13.966 48.61 13.389V13.351C48.61 12.786 48.514 12.263 48.324 11.784C48.133 11.305 47.868 10.893 47.531 10.549C47.192 10.204 46.784 9.937 46.304 9.746C45.825 9.557 45.296 9.46 44.718 9.46H42.524V17.242H44.718V17.241Z" fill="black"/>
<path d="M62.683 20.025C61.674 20.025 60.757 19.858 59.927 19.527C59.097 19.195 58.384 18.734 57.787 18.145C57.19 17.555 56.727 16.854 56.395 16.041C56.063 15.23 55.898 14.346 55.898 13.388V13.35C55.898 12.427 56.066 11.565 56.404 10.759C56.742 9.954 57.212 9.247 57.815 8.638C58.417 8.031 59.13 7.551 59.954 7.2C60.778 6.849 61.682 6.675 62.664 6.675C63.242 6.675 63.768 6.715 64.24 6.795C64.714 6.875 65.153 6.989 65.559 7.136C65.964 7.284 66.344 7.468 66.702 7.689C67.058 7.91 67.403 8.163 67.735 8.446L65.945 10.603C65.7 10.394 65.455 10.209 65.209 10.049C64.963 9.889 64.708 9.754 64.443 9.643C64.178 9.533 63.893 9.448 63.586 9.385C63.278 9.323 62.941 9.293 62.571 9.293C62.054 9.293 61.573 9.401 61.125 9.616C60.676 9.832 60.283 10.121 59.944 10.485C59.606 10.849 59.341 11.275 59.15 11.76C58.961 12.247 58.866 12.767 58.866 13.322V13.359C58.866 13.95 58.961 14.496 59.15 14.994C59.341 15.493 59.612 15.928 59.962 16.297C60.314 16.667 60.724 16.953 61.197 17.156C61.67 17.36 62.195 17.461 62.773 17.461C63.83 17.461 64.721 17.201 65.447 16.681V14.826H62.59V12.373H68.195V17.978C67.531 18.544 66.741 19.026 65.824 19.426C64.912 19.826 63.862 20.025 62.683 20.025Z" fill="black"/>
<path d="M71.001 6.897H76.901C78.536 6.897 79.791 7.333 80.661 8.205C81.4 8.943 81.768 9.926 81.768 11.156V11.193C81.768 12.238 81.513 13.09 81.004 13.747C80.493 14.405 79.825 14.888 79.001 15.195L82.155 19.804H78.836L76.07 15.674H76.033H73.84V19.804H71V6.897H71.001ZM76.717 13.165C77.418 13.165 77.955 12.999 78.33 12.667C78.705 12.334 78.892 11.893 78.892 11.339V11.302C78.892 10.688 78.696 10.226 78.303 9.918C77.908 9.611 77.363 9.457 76.662 9.457H73.841V13.164H76.717V13.165Z" fill="black"/>
<path d="M90.338 20.025C89.342 20.025 88.425 19.85 87.59 19.5C86.755 19.15 86.032 18.676 85.424 18.08C84.816 17.484 84.341 16.784 84.003 15.978C83.665 15.174 83.498 14.309 83.498 13.388V13.35C83.498 12.427 83.669 11.565 84.013 10.759C84.358 9.954 84.832 9.247 85.442 8.638C86.05 8.031 86.776 7.551 87.619 7.2C88.46 6.849 89.38 6.675 90.376 6.675C91.371 6.675 92.285 6.85 93.122 7.2C93.959 7.55 94.681 8.024 95.29 8.62C95.899 9.216 96.37 9.916 96.708 10.722C97.046 11.528 97.215 12.391 97.215 13.312V13.35C97.215 14.273 97.042 15.135 96.702 15.941C96.355 16.746 95.878 17.453 95.268 18.062C94.662 18.669 93.935 19.149 93.094 19.5C92.252 19.85 91.333 20.025 90.338 20.025ZM90.375 17.406C90.939 17.406 91.461 17.302 91.94 17.093C92.421 16.884 92.83 16.595 93.168 16.226C93.505 15.858 93.771 15.43 93.962 14.944C94.15 14.459 94.244 13.94 94.244 13.387V13.349C94.244 12.796 94.15 12.274 93.962 11.782C93.771 11.29 93.499 10.86 93.15 10.491C92.799 10.122 92.385 9.831 91.904 9.616C91.425 9.401 90.903 9.293 90.338 9.293C89.76 9.293 89.234 9.397 88.762 9.606C88.288 9.815 87.884 10.104 87.543 10.473C87.205 10.841 86.941 11.269 86.751 11.755C86.56 12.241 86.466 12.759 86.466 13.312V13.35C86.466 13.903 86.56 14.425 86.751 14.917C86.941 15.409 87.212 15.839 87.562 16.208C87.914 16.577 88.325 16.868 88.797 17.083C89.271 17.298 89.796 17.406 90.375 17.406Z" fill="black"/>
<path d="M97.929 6.897H100.972L103.647 15.636L106.541 6.86H108.977L111.869 15.636L114.541 6.897H117.512L113.104 19.896H110.636L107.723 11.452L104.809 19.896H102.336L97.929 6.897Z" fill="black"/>
<path d="M122.84 9.515H118.914V6.897H129.607V9.515H125.679V19.803H122.839V9.515H122.84Z" fill="black"/>
<path d="M131.457 6.897H134.298V12.003H139.53V6.897H142.371V19.803H139.53V14.622H134.298V19.803H131.457V6.897Z" fill="black"/>
<path d="M181.91 6.868L181.868 5.934L180.93 5.89C180.911 5.887 180.726 5.879 180.4 5.879C178.462 5.879 172.278 6.177 167.634 9.671C167.661 9.412 167.674 9.15 167.674 8.884C167.674 4.344 163.811 0.779 163.648 0.631L162.956 -7.15256e-09L162.264 0.631C162.097 0.779 158.238 4.342 158.238 8.884C158.238 9.022 158.24 9.157 158.247 9.293C154.655 6.597 149.894 6.367 148.403 6.367C148.134 6.367 147.988 6.373 147.988 6.373L147.051 6.421L147.007 7.352C146.994 7.645 146.713 14.558 150.925 18.767C154.162 22.005 159.03 22.586 161.231 22.675C161.056 24.393 161.102 25.577 161.111 25.709L161.155 26.644L162.09 26.689C162.114 26.691 162.3 26.7 162.621 26.7C164.776 26.7 172.158 26.334 176.857 21.633C182.292 16.199 181.926 7.247 181.91 6.868ZM159.728 20.489C157.573 20.216 154.513 19.448 152.378 17.311C149.677 14.608 149.164 10.355 149.076 8.44C151.039 8.525 155.234 9.036 157.941 11.745C160.065 13.867 160.833 16.942 161.112 19.093L155.159 14.528L159.728 20.489ZM162.272 14.047C161.346 12.803 160.293 10.937 160.293 8.884C160.293 6.308 161.973 4.005 162.955 2.882C163.937 4.002 165.619 6.298 165.619 8.884C165.619 10.924 164.559 12.794 163.635 14.042L162.955 8.884L162.272 14.047ZM175.399 20.179C172.42 23.156 168.126 24.158 165.222 24.486L171.511 16.289L163.322 22.569C163.656 19.683 164.661 15.361 167.621 12.4C171.434 8.589 177.406 8.014 179.85 7.947C179.78 10.303 179.207 16.368 175.399 20.179Z" fill="#006927"/>
<path d="M179.849 7.94701C179.78 10.302 179.206 16.368 175.399 20.178C172.42 23.155 168.126 24.157 165.222 24.485L171.511 16.288L163.322 22.568C163.656 19.682 164.661 15.36 167.621 12.399C171.434 8.58901 177.406 8.01401 179.849 7.94701Z" fill="#30B44A"/>
<path d="M165.619 8.884C165.619 10.924 164.559 12.794 163.635 14.042L162.955 8.884L162.272 14.047C161.346 12.803 160.293 10.937 160.293 8.884C160.293 6.308 161.973 4.005 162.955 2.882C163.937 4.002 165.619 6.297 165.619 8.884Z" fill="#30B44A"/>
<path d="M155.16 14.529L159.728 20.489C157.573 20.216 154.513 19.448 152.378 17.311C149.677 14.608 149.164 10.355 149.076 8.44C151.039 8.525 155.234 9.036 157.941 11.745C160.065 13.867 160.833 16.942 161.112 19.093L155.16 14.529Z" fill="#30B44A"/>
<path d="M165.619 8.884C165.619 10.924 164.559 12.794 163.635 14.042L162.955 8.884C162.955 8.884 162.955 4.351 162.955 2.882C163.937 4.002 165.619 6.297 165.619 8.884Z" fill="#7DC242"/>
<path d="M179.849 7.94701C179.78 10.302 179.206 16.368 175.399 20.178C172.42 23.155 168.126 24.157 165.222 24.485L171.511 16.288C171.511 16.289 177.876 9.92301 179.849 7.94701Z" fill="#7DC242"/>
<path d="M155.16 14.529C155.16 14.529 151.29 10.652 149.077 8.44101C151.04 8.52601 155.235 9.03701 157.942 11.746C160.066 13.868 160.834 16.943 161.113 19.094L155.16 14.529Z" fill="#7DC242"/>
</svg>
