<svg viewBox="0 0 1928 587" xmlns="http://www.w3.org/2000/svg"><g fill-rule="nonzero" fill="none"><path d="M343.671 331.046l117.347 206.368h-237.04l119.693-206.368zM462.534 52h-50.967L166.16 475.117l25.424 44.037L462.534 52zM612 312.908H376.133l117.036 205.82L612 312.909zM368.581 52H202.127L62 294.708l82.716 143.267L368.58 52zm242.967 223.724L493.923 71.993 375.76 275.723h235.789z" fill="#E9204F"/><path d="M821.28 394.56c-17.92 0-33.6-2.933-47.04-8.8-13.44-5.867-23.84-14.24-31.2-25.12-7.36-10.88-11.04-23.467-11.04-37.76v-4.48c0-1.493.427-2.667 1.28-3.52.853-.853 2.027-1.28 3.52-1.28h49.6c1.493 0 2.667.427 3.52 1.28.853.853 1.28 2.027 1.28 3.52v1.92c0 5.973 3.147 11.253 9.44 15.84 6.293 4.587 14.667 6.88 25.12 6.88 7.893 0 13.547-1.653 16.96-4.96 3.413-3.307 5.12-6.987 5.12-11.04 0-4.693-2.133-8.213-6.4-10.56-4.267-2.347-12.053-5.227-23.36-8.64l-9.28-2.56c-21.12-6.4-38.827-14.933-53.12-25.6-14.293-10.667-21.44-26.133-21.44-46.4 0-13.44 3.627-25.333 10.88-35.68 7.253-10.347 17.227-18.293 29.92-23.84 12.693-5.547 26.933-8.32 42.72-8.32 16.64 0 31.733 3.093 45.28 9.28 13.547 6.187 24.213 14.933 32 26.24 7.787 11.307 11.68 24.213 11.68 38.72v2.88c0 1.493-.427 2.667-1.28 3.52-.853.853-2.027 1.28-3.52 1.28h-49.6c-1.493 0-2.667-.427-3.52-1.28-.853-.853-1.28-2.027-1.28-3.52v-.32c0-6.4-2.88-12.213-8.64-17.44-5.76-5.227-13.547-7.84-23.36-7.84-6.827 0-12.213 1.387-16.16 4.16-3.947 2.773-5.92 6.613-5.92 11.52 0 3.84 1.44 7.093 4.32 9.76 2.88 2.667 7.307 5.227 13.28 7.68 5.973 2.453 15.147 5.6 27.52 9.44 1.707.64 9.227 2.933 22.56 6.88 13.333 3.947 24.48 11.093 33.44 21.44 8.96 10.347 13.44 22.88 13.44 37.6 0 14.293-3.627 26.613-10.88 36.96-7.253 10.347-17.387 18.293-30.4 23.84-13.013 5.547-28.16 8.32-45.44 8.32zM1042.4 172.8c0-1.493.427-2.667 1.28-3.52.853-.853 2.027-1.28 3.52-1.28h50.56c1.493 0 2.667.427 3.52 1.28.853.853 1.28 2.027 1.28 3.52v214.4c0 1.493-.427 2.667-1.28 3.52-.853.853-2.027 1.28-3.52 1.28h-50.56c-1.493 0-2.667-.427-3.52-1.28-.853-.853-1.28-2.027-1.28-3.52v-81.28c0-1.067-.533-1.6-1.6-1.6h-49.92c-1.067 0-1.6.533-1.6 1.6v81.28c0 1.493-.427 2.667-1.28 3.52-.853.853-2.027 1.28-3.52 1.28h-50.56c-1.493 0-2.667-.427-3.52-1.28-.853-.853-1.28-2.027-1.28-3.52V172.8c0-1.493.427-2.667 1.28-3.52.853-.853 2.027-1.28 3.52-1.28h50.56c1.493 0 2.667.427 3.52 1.28.853.853 1.28 2.027 1.28 3.52v78.4c0 1.067.533 1.6 1.6 1.6h49.92c1.067 0 1.6-.533 1.6-1.6v-78.4zm87.04 219.2c-1.493 0-2.667-.427-3.52-1.28-.853-.853-1.28-2.027-1.28-3.52V172.8c0-1.493.427-2.667 1.28-3.52.853-.853 2.027-1.28 3.52-1.28H1180c1.493 0 2.667.427 3.52 1.28.853.853 1.28 2.027 1.28 3.52v214.4c0 1.493-.427 2.667-1.28 3.52-.853.853-2.027 1.28-3.52 1.28h-50.56zm177.92-224c15.147 0 28.48 3.04 40 9.12 11.52 6.08 20.427 14.72 26.72 25.92 6.293 11.2 9.44 24.053 9.44 38.56 0 14.293-3.307 26.88-9.92 37.76-6.613 10.88-15.893 19.307-27.84 25.28-11.947 5.973-25.707 8.96-41.28 8.96h-33.92c-1.067 0-1.6.533-1.6 1.6v72c0 1.493-.427 2.667-1.28 3.52-.853.853-2.027 1.28-3.52 1.28h-50.56c-1.493 0-2.667-.427-3.52-1.28-.853-.853-1.28-2.027-1.28-3.52V172.8c0-1.493.427-2.667 1.28-3.52.853-.853 2.027-1.28 3.52-1.28h93.76zm-9.92 97.6c7.893 0 14.24-2.08 19.04-6.24 4.8-4.16 7.2-9.653 7.2-16.48 0-7.04-2.4-12.693-7.2-16.96-4.8-4.267-11.147-6.4-19.04-6.4h-26.88c-1.067 0-1.6.533-1.6 1.6V264c0 1.067.533 1.6 1.6 1.6h26.88zm250.24 9.92c-.853.64-.853 1.28 0 1.92 9.6 5.333 16.64 12.16 21.12 20.48s6.72 18.347 6.72 30.08c0 21.973-7.68 38.133-23.04 48.48-15.36 10.347-35.307 15.52-59.84 15.52h-86.08c-1.493 0-2.667-.427-3.52-1.28-.853-.853-1.28-2.027-1.28-3.52V172.8c0-1.493.427-2.667 1.28-3.52.853-.853 2.027-1.28 3.52-1.28h83.2c27.307 0 47.84 4.853 61.6 14.56 13.76 9.707 20.64 25.973 20.64 48.8 0 20.267-8.107 34.987-24.32 44.16zm-84.16-56c-1.067 0-1.6.533-1.6 1.6v32c0 1.067.533 1.6 1.6 1.6h26.24c15.573 0 23.36-5.867 23.36-17.6s-7.787-17.6-23.36-17.6h-26.24zm29.12 120.96c15.147 0 22.72-6.293 22.72-18.88 0-11.947-7.467-17.92-22.4-17.92h-29.44c-1.067 0-1.6.533-1.6 1.6v33.6c0 1.067.533 1.6 1.6 1.6h29.12zM1603.36 392c-1.493 0-2.667-.427-3.52-1.28-.853-.853-1.28-2.027-1.28-3.52V172.8c0-1.493.427-2.667 1.28-3.52.853-.853 2.027-1.28 3.52-1.28h50.56c1.493 0 2.667.427 3.52 1.28.853.853 1.28 2.027 1.28 3.52v214.4c0 1.493-.427 2.667-1.28 3.52-.853.853-2.027 1.28-3.52 1.28h-50.56zm247.68-224c1.493 0 2.667.427 3.52 1.28.853.853 1.28 2.027 1.28 3.52v42.24c0 1.493-.427 2.667-1.28 3.52-.853.853-2.027 1.28-3.52 1.28h-53.76c-1.067 0-1.6.533-1.6 1.6V387.2c0 1.493-.427 2.667-1.28 3.52-.853.853-2.027 1.28-3.52 1.28h-50.56c-1.493 0-2.667-.427-3.52-1.28-.853-.853-1.28-2.027-1.28-3.52V221.44c0-1.067-.533-1.6-1.6-1.6h-52.16c-1.493 0-2.667-.427-3.52-1.28-.853-.853-1.28-2.027-1.28-3.52V172.8c0-1.493.427-2.667 1.28-3.52.853-.853 2.027-1.28 3.52-1.28h169.28z" fill="#000"/></g></svg>