<?xml version="1.0" encoding="utf-8"?>
<!-- Generator: Adobe Illustrator 15.0.0, SVG Export Plug-In . SVG Version: 6.00 Build 0)  -->
<!DOCTYPE svg PUBLIC "-//W3C//DTD SVG 1.1//EN" "http://www.w3.org/Graphics/SVG/1.1/DTD/svg11.dtd">
<svg version="1.1" xmlns="http://www.w3.org/2000/svg" xmlns:xlink="http://www.w3.org/1999/xlink" x="0px" y="0px"
	 width="1024px" height="293.993px" viewBox="0 0 1023.334 293.993" enable-background="new 0 0 1023.334 293.993" xml:space="preserve">
<g id="background">
	<rect x="0" y="0" fill="#22228A" width="1024" height="293.993"/>
</g>
<g id="logotype">
	<g>
		<polygon fill="#FFFFFF" points="354.592,100.609 335.292,89.467 335.292,67.181 354.592,56.036 373.892,67.181 373.892,89.467 		
			"/>
		<g>
			<path fill="#FFFFFF" d="M110.197,182.628c1.077,7.61,3.193,13.297,6.344,17.063c5.771,6.856,15.652,10.284,29.657,10.284
				c8.379,0,15.188-0.904,20.42-2.713c9.92-3.463,14.882-9.906,14.882-19.322c0-5.5-2.432-9.755-7.291-12.77
				c-4.863-2.938-12.569-5.537-23.128-7.796l-18.031-3.956c-17.726-3.918-29.896-8.174-36.529-12.769
				c-11.229-7.685-16.837-19.701-16.837-36.048c0-14.917,5.491-27.309,16.472-37.179c10.983-9.869,27.112-14.803,48.392-14.803
				c17.765,0,32.921,4.652,45.469,13.956c12.548,9.303,19.122,22.806,19.735,40.51h-33.448
				c-0.622-10.019-5.101-17.138-13.441-21.357c-5.562-2.786-12.47-4.18-20.735-4.18c-9.19,0-16.529,1.807-22.016,5.425
				c-5.479,3.615-8.224,8.661-8.224,15.14c0,5.953,2.702,10.397,8.111,13.336c3.473,1.958,10.853,4.256,22.128,6.892l29.231,6.893
				c12.813,3.017,22.415,7.047,28.81,12.092c9.928,7.836,14.894,19.175,14.894,34.013c0,15.221-5.885,27.857-17.648,37.914
				c-11.768,10.057-28.385,15.085-49.853,15.085c-21.93,0-39.181-4.953-51.747-14.86c-12.565-9.905-18.846-23.521-18.846-40.85
				H110.197z"/>
			<path fill="#FFFFFF" d="M222.649,68.044h31.642v89.854l40.617-46.461h40.053l-44.151,45.887l45.859,76.721h-39.196
				l-29.845-52.625l-13.337,13.865v38.76h-31.642V68.044z"/>
			<path fill="#FFFFFF" d="M338.264,110.872h32.657v123.173h-32.657V110.872z"/>
			<path fill="#FFFFFF" d="M421.111,234.045h-32.208V67.479h32.208V234.045z"/>
			<path fill="#FFFFFF" d="M471.521,234.045h-32.205V67.479h32.205V234.045z"/>
			<path fill="#FFFFFF" d="M490.452,234.045V67.415h60.171c9.723,0,18.051,1.006,24.995,3.01c6.943,2.008,12.611,4.858,17.01,8.562
				c4.396,3.704,7.596,8.14,9.603,13.307c2.005,5.171,3.01,10.841,3.01,17.01c0,5.868-0.773,10.918-2.31,15.16
				c-1.552,4.244-3.557,7.792-6.021,10.645c-2.469,2.859-5.287,5.093-8.448,6.712c-3.162,1.619-6.446,2.739-9.832,3.354v0.463
				c11.572,1.701,20.171,6.251,25.803,13.657c5.629,7.404,8.45,16.66,8.45,27.77c0,8.643-1.362,15.97-4.056,21.986
				c-2.7,6.017-6.444,10.877-11.222,14.579c-4.785,3.705-10.53,6.364-17.247,7.985c-6.705,1.619-13.997,2.43-21.865,2.43H490.452z
				 M506.189,141.01h39.804c8.179,0,15.044-0.694,20.598-2.081c5.557-1.39,10.026-3.434,13.423-6.134
				c3.391-2.698,5.822-6.017,7.29-9.951c1.47-3.936,2.2-8.446,2.2-13.54c0-5.242-0.854-9.679-2.548-13.306
				c-1.7-3.623-4.395-6.557-8.101-8.795c-3.701-2.236-8.524-3.854-14.463-4.861c-5.939-1.001-13.231-1.504-21.87-1.504h-36.333
				V141.01z M506.189,220.622h40.034c8.643,0,16.163-0.384,22.568-1.158c6.396-0.771,11.682-2.35,15.854-4.744
				c4.162-2.389,7.286-5.784,9.371-10.182c2.081-4.398,3.123-10.219,3.123-17.474c0-6.942-1.155-12.532-3.471-16.776
				c-2.313-4.245-5.634-7.522-9.952-9.838c-4.32-2.313-9.485-3.894-15.504-4.744c-6.02-0.845-12.732-1.272-20.141-1.272h-41.884
				V220.622z"/>
			<path fill="#FFFFFF" d="M681.611,164.153c2.617-0.307,5.743-0.771,9.373-1.388c3.621-0.615,6.593-1.466,8.906-2.546
				c2.315-1.079,3.74-2.894,4.281-5.44c0.54-2.545,0.81-4.896,0.81-7.058c0-7.096-2.276-12.919-6.826-17.472
				c-4.549-4.55-12.229-6.829-23.025-6.829c-4.789,0-9.181,0.427-13.192,1.272c-4.016,0.851-7.521,2.314-10.53,4.399
				c-3.007,2.082-5.476,4.858-7.404,8.329c-1.933,3.472-3.204,7.833-3.818,13.077h-14.122c0.465-7.094,2.089-13.151,4.864-18.167
				c2.775-5.012,6.366-9.103,10.762-12.266c4.395-3.162,9.49-5.474,15.272-6.943c5.788-1.465,11.923-2.198,18.399-2.198
				c6.019,0,11.687,0.658,17.009,1.968c5.324,1.312,9.953,3.396,13.888,6.248c3.935,2.856,7.019,6.675,9.258,11.457
				c2.233,4.782,3.354,10.646,3.354,17.587v65.263c0,5.404,0.965,8.834,2.893,10.299c1.929,1.467,5.821,1.122,11.689-1.04v10.876
				c-1.081,0.31-2.661,0.771-4.746,1.388c-2.08,0.616-4.13,0.927-6.132,0.927c-2.162,0-4.247-0.233-6.248-0.695
				c-2.315-0.31-4.165-1.04-5.555-2.198c-1.39-1.156-2.51-2.548-3.355-4.163c-0.853-1.622-1.429-3.395-1.736-5.326
				c-0.313-1.927-0.459-3.97-0.459-6.132c-5.869,6.481-12.579,11.42-20.141,14.812c-7.556,3.392-15.733,5.092-24.53,5.092
				c-5.242,0-10.297-0.695-15.156-2.085c-4.863-1.388-9.142-3.546-12.844-6.481c-3.706-2.927-6.637-6.514-8.795-10.759
				c-2.162-4.242-3.239-9.294-3.239-15.158c0-20.366,13.957-32.401,41.884-36.104L681.611,164.153z M704.981,171.096
				c-5.863,2.471-11.804,4.091-17.818,4.859c-6.019,0.774-12.033,1.388-18.053,1.853c-10.644,0.774-18.937,3.163-24.878,7.175
				c-5.941,4.014-8.908,10.106-8.908,18.283c0,3.703,0.732,6.907,2.199,9.604c1.463,2.7,3.391,4.937,5.784,6.71
				c2.393,1.776,5.168,3.089,8.334,3.934c3.162,0.851,6.361,1.272,9.601,1.272c5.554,0,10.952-0.693,16.205-2.08
				c5.243-1.391,9.907-3.508,13.997-6.366c4.088-2.854,7.365-6.479,9.836-10.875c2.468-4.399,3.701-9.607,3.701-15.624V171.096z"/>
			<path fill="#FFFFFF" d="M755.207,234.045H741.32V114.164h13.887v16.664c5.554-5.861,11.3-10.646,17.236-14.351
				c5.944-3.702,13.078-5.553,21.408-5.553c7.407,0,14.273,1.272,20.6,3.82c6.322,2.544,11.649,6.981,15.966,13.305
				c2.931,4.321,4.668,8.758,5.205,13.307c0.54,4.553,0.813,9.297,0.813,14.234v78.454h-13.883V155.82
				c0-10.795-2.396-18.895-7.175-24.298c-4.784-5.4-12.732-8.102-23.836-8.102c-4.322,0-8.257,0.659-11.805,1.97
				c-3.552,1.312-6.756,3.045-9.605,5.207c-2.856,2.162-5.284,4.627-7.291,7.404c-2.006,2.776-3.548,5.71-4.629,8.794
				c-1.386,3.857-2.236,7.562-2.545,11.109c-0.315,3.55-0.46,7.406-0.46,11.571V234.045z"/>
			<path fill="#FFFFFF" d="M849.395,234.045V67.415h13.888v103.681l58.783-56.932h18.979l-44.902,43.277l50.222,76.604h-15.504
				l-44.897-66.884l-22.68,21.522v45.361H849.395z"/>
		</g>
	</g>
</g>
</svg>
