<svg xmlns="http://www.w3.org/2000/svg" height="266.667" width="1333.333"><defs><clipPath id="a" clipPathUnits="userSpaceOnUse"><path d="M0 200h1000V0H0z"/></clipPath></defs><g clip-path="url(#a)" transform="matrix(1.33333 0 0 -1.33333 0 266.667)" fill="#00a0e3"><path d="M46.945 138.832c0-15.33 17.382-19.257 37.947-21.872 24.117-3.178 44.677-10.657 44.677-35.707 0-20.002-15.513-38.696-47.667-38.696-19.817 0-36.265 4.489-50.475 14.396-1.87 1.12-1.87 2.053-.75 4.11l3.553 5.98c1.308 2.058 2.058 2.433 4.3 1.125 11.967-8.225 27.479-12.527 41.502-12.527 17.2 0 35.144 5.61 35.144 25.049 0 15.518-14.02 20.565-38.51 23.93-20.376 2.808-44.118 8.975-44.118 33.837 0 14.393 10.844 39.072 47.109 39.072 19.255 0 31.779-5.61 45.989-14.21 2.058-1.12 1.68-2.245.933-4.11l-3.553-5.797c-1.12-2.058-2.245-2.803-4.11-1.308-11.965 8.038-24.304 12.34-37.39 12.34-28.414 0-34.581-15.892-34.581-25.612M215.942 55.266c29.537 0 51.967 26.737 51.967 54.777 0 28.227-22.43 54.584-51.967 54.772-29.165 0-51.97-26.545-51.97-54.772 0-28.04 22.805-54.777 51.97-54.777m0 122.633c36.827 0 66.922-30.654 66.922-67.856 0-25.8-13.458-43.182-29.35-55.335l16.45-22.616c1.312-1.871.937-2.996-.745-4.115l-7.293-5.235c-1.682-1.121-2.8-.746-3.924.937l-16.453 24.487c-8.032-3.552-14.58-5.984-25.607-5.984-36.83 0-66.924 30.664-66.924 67.86 0 37.203 30.095 67.857 66.924 67.857M389.802 57.516c2.245 0 2.805-.75 2.805-2.994v-6.918c0-2.245-.56-2.99-2.805-2.99h-76.084c-2.245 0-2.992.745-2.992 2.99v124.878c0 2.24.747 2.99 2.992 2.99h8.788c2.239 0 2.989-.75 2.989-2.99V57.516zM555.251 175.472c2.428 0 2.803-.75 2.803-2.99v-7.48c0-2.245-.563-2.99-2.803-2.99h-44.868V47.604c0-2.245-.563-2.99-2.803-2.99h-8.975c-2.43 0-2.992.745-2.992 2.99v114.408h-44.677c-2.428 0-2.99.745-2.99 2.99v7.48c0 2.24.75 2.99 2.99 2.99zM624.987 108.548c22.242 0 31.962 10.652 31.962 27.664 0 18.694-12.71 26.545-31.962 26.545h-31.779v-54.21zm17.007-11.032l35.144-49.35c1.495-2.432 0-3.553-2.24-3.553h-8.787c-2.245 0-3.74 1.12-5.052 2.99l-34.394 48.23h-33.457v-48.23c0-2.427-.755-2.99-2.995-2.99h-8.788c-2.24 0-2.99.375-2.99 2.99v124.879c0 2.24.75 2.99 2.99 2.99h44.495c21.31 0 45.421-8.976 45.421-39.26 0-22.242-11.959-34.024-29.347-38.696M704.063 172.481c0 2.24.75 2.99 2.995 2.99h8.97c2.245 0 2.807-.75 2.807-2.99V47.603c0-2.245-.562-2.99-2.807-2.99h-8.97c-2.245 0-2.995.745-2.995 2.99zM807.82 57.323c22.616 0 31.961 9.162 31.961 24.862 0 12.715-13.085 23.185-30.284 23.185h-38.693V57.323zm-.193 60.382c16.08 0 27.482 8.042 27.482 20.19 0 17.2-12.527 24.862-31.78 24.862h-32.525v-45.052zm-48.605-73.092c-2.24 0-2.99.563-2.99 2.99v124.878c0 2.24.75 2.99 2.99 2.99h45.244c21.31 0 45.797-8.788 45.797-36.269 0-16.45-13.272-24.112-21.309-27.108v-.182c7.287-2.244 26.17-10.47 26.17-31.222 0-26.356-21.31-36.077-45.985-36.077zM967.28 57.516h-71.41v59.553h68.044c2.245 0 2.995.75 2.995 2.99v6.917c0 2.245-.75 2.99-2.995 2.99H881.103V47.604c0-2.245.744-2.99 2.99-2.99h83.186c2.245 0 2.808.745 2.808 2.99v6.918c0 2.244-.563 2.994-2.808 2.994M967.28 175.472h-83.188c-2.245 0-2.989-.75-2.989-2.99v-9.907h86.176c2.058 0 2.808.745 2.808 2.99v6.917c0 2.24-.75 2.99-2.808 2.99"/></g></svg>