<?xml version="1.0" encoding="utf-8"?>
<!-- Generator: Adobe Illustrator 19.0.0, SVG Export Plug-In . SVG Version: 6.00 Build 0)  -->
<svg version="1.1" id="Layer_1" xmlns="http://www.w3.org/2000/svg" xmlns:xlink="http://www.w3.org/1999/xlink" x="0px" y="0px"
	 viewBox="0 0 612 612" style="enable-background:new 0 0 612 612;" xml:space="preserve">
<style type="text/css">
	.st0{fill:#FEFEFE;}
	.st1{fill:#010101;}
</style>
<g>
	<g>
		<path class="st0" d="M306.1,105.1c-100.3,0-200.7,0-301,0c-0.5,0-0.6-0.1-0.6-0.6c0-31.8,0-63.7,0-95.5c0-0.5,0.1-0.6,0.6-0.6
			c200.7,0,401.5,0,602.2,0c0.5,0,0.6,0.1,0.6,0.6c0,31.8,0,63.7,0,95.5c0,0.5-0.1,0.6-0.6,0.6C506.9,105.1,406.5,105.1,306.1,105.1
			z M547.4,72.7c0,0,0.1,0.1,0.1,0.1c0.2,0.6,0.1,1.3,0.1,1.9c0,1-0.1,1,0.9,1c2,0,4,0,6,0c0.4,0,0.4-0.2,0.4-0.4
			c0-2.8-0.1-5.7-0.1-8.5c0-2.8,0.1-5.6,0.1-8.5c0-2.3-0.1-4.7-0.1-7c0-2.5,0.1-5,0.1-7.5c0-2,0-4.1,0-6.1c0-1.9-0.1-3.8,0-5.7
			c0-0.4-0.1-0.3-0.3-0.3c-2.4,0-4.7,0-7.1,0c-0.4,0-0.4,0.3-0.4,0.4c0.1,1.2,0,2.4,0,3.5c0,1.5,0,3.1,0,4.6c0,1.5,0,3,0,4.6
			c0,0.7,0.1,1.4-0.1,2.2c-0.5-0.6-0.9-1.3-1.4-1.8c-2.4-1.9-5.1-2.6-8.1-2.2c-2.9,0.3-5.4,1.6-7.5,3.7c-3.2,3.2-4.6,7.1-4.8,11.5
			c-0.1,1.9-0.1,3.8,0.2,5.6c0.3,1.9,0.8,3.7,1.6,5.4c0.9,1.8,2,3.3,3.6,4.6c1.3,1.1,2.7,1.8,4.3,2.3c1.7,0.5,3.4,0.6,5.1,0.5
			c1.2-0.1,2.4-0.4,3.5-0.9C545,74.9,546.4,74,547.4,72.7z M320.9,72.7c0,0,0.1,0.1,0.1,0.1c0,0.1,0.1,0.2,0.1,0.3
			c-0.1,1.6,0.1,3.3-0.1,4.9c-0.1,1.3-0.5,2.5-1.5,3.4c-1.4,1.4-3.1,1.9-5,1.9c-1.6,0-3.2-0.2-4.6-1.1c-1.3-0.9-2.2-2.2-3-3.5
			c-0.2-0.3-0.3-0.6-0.7-0.3c-1.7,1.2-3.4,2.4-5.2,3.6c-0.2,0.2-0.3,0.2-0.1,0.5c1.3,2.8,3.4,4.8,6.1,6.1c2,1,4.2,1.4,6.4,1.5
			c3,0.1,5.9-0.3,8.6-1.8c2.8-1.5,4.9-3.8,5.9-6.9c0.6-1.9,0.9-3.9,0.9-5.9c0-2.1,0.1-4.2,0.1-6.2c0-2,0-4.1,0-6.1
			c0-2.2,0.1-4.3,0-6.5c0-2.4,0-4.7,0-7.1c0-1.9-0.1-3.8,0-5.7c0-0.4-0.2-0.3-0.4-0.3c-2.2,0-4.4,0-6.6,0c-0.3,0-0.5,0.2-0.4,0.4
			c0.1,0.4,0,0.7,0,1.1c0,0.5,0.1,1.1-0.1,1.6c-0.2-0.3-0.5-0.5-0.6-0.7c-0.9-1.2-2.2-2-3.6-2.6c-2.3-0.9-4.6-0.9-6.9-0.5
			c-2.3,0.4-4.3,1.5-6.1,3c-1.8,1.5-3.2,3.4-4.1,5.6c-0.8,2-1.3,4.2-1.4,6.3c-0.1,1.8-0.1,3.6,0.2,5.4c0.2,1.7,0.7,3.3,1.4,4.8
			c1.4,3.1,3.5,5.4,6.5,6.9c2.2,1.1,4.5,1.5,6.9,1.4C316.5,76.3,319.1,75.2,320.9,72.7z M29.8,66.1c-0.1,0.9,0.4,1.5,0.9,2.1
			c2,2.2,4.1,4.3,6.2,6.4c2.1,2.2,4.2,4.4,6.4,6.6c2.7,2.8,5.5,5.7,8.2,8.5c0.6,0.6,1.2,1.3,1.8,1.9c0.9,0.8,1.8,1.6,3.1,1.4
			c0.6-0.1,1.2-0.3,1.7-0.5c2.2-0.5,4.3-1.2,6.5-1.8c2.6-0.8,5.3-1.6,7.9-2.3c3.3-0.9,6.6-1.9,9.8-2.8c2-0.6,4-1.2,6-1.7
			c1.3-0.4,2.3-1.2,2.7-2.5c0.3-1.1,0.6-2.2,0.9-3.3c0.9-3.4,1.8-6.8,2.7-10.1c0.6-2.3,1.3-4.7,1.9-7c1.1-4,2.1-8.1,3.2-12.1
			c0.4-1.5,0.4-2.9-0.8-4.1c-2.1-2.1-4.1-4.3-6.2-6.4c-2-2-4-4.1-6-6.1c-2-2-4-4.1-5.9-6.1c-1.2-1.3-2.4-2.6-3.6-3.9
			c-0.6-0.6-1.2-1.2-1.9-1.7c-1-0.7-2.1-0.5-3.1-0.2c-1.9,0.6-3.9,1.2-5.8,1.7c-3.3,0.9-6.6,1.8-9.8,2.8c-1.4,0.4-2.9,0.9-4.3,1.3
			c-1.6,0.4-3.1,0.9-4.7,1.3c-1.4,0.4-2.7,0.8-4.1,1.2c-1.1,0.3-2.2,0.6-3.3,1c-1,0.4-1.4,1.3-1.6,2.3c-0.6,2.5-1.3,4.9-2,7.3
			c-0.8,2.9-1.5,5.7-2.3,8.6c-0.6,2.4-1.3,4.9-2,7.3c-0.7,2.6-1.4,5.2-2.1,7.8C30.2,64.2,29.8,65.1,29.8,66.1z M384.4,75.7
			c-0.7-1.2-1.3-2.3-1.9-3.5c-0.9-1.6-1.7-3.2-2.6-4.8c-1.4-2.6-2.8-5.2-4.3-7.8c-0.2-0.3-0.2-0.5,0.2-0.6c0.9-0.3,1.8-0.7,2.6-1.2
			c1.5-0.9,2.8-2.1,3.8-3.5c1.1-1.6,1.8-3.5,2-5.5c0.2-2.1,0.1-4.3-0.5-6.4c-1.1-3.4-3.3-5.8-6.4-7.4c-2.2-1.1-4.5-1.5-7-1.6
			c-5.6,0-11.3,0-16.9,0c-0.6,0-0.7,0.1-0.7,0.7c0,13.6,0,27.3,0,40.9c0,0.1,0,0.2,0,0.3c0,0.3,0.1,0.4,0.4,0.4c2.5,0,5,0,7.5,0
			c0.2,0,0.3,0,0.3-0.3c0-0.7,0-1.3,0-2c0-2.2,0-4.3,0-6.5c0-2.2,0-4.3,0-6.5c0-0.3,0-0.4,0.4-0.4c1.8,0,3.6,0,5.4,0
			c0.4,0,0.7,0.2,0.8,0.5c1.3,2.4,2.6,4.9,3.9,7.3c1.4,2.5,2.8,5.1,4.2,7.6c0.1,0.2,0.3,0.3,0.5,0.3
			C378.8,75.7,381.6,75.7,384.4,75.7z M444.3,52.6c0.5,1.7,1,3.3,1.6,4.9c1,3.1,2,6.1,2.9,9.2c0.9,2.9,1.8,5.8,2.7,8.6
			c0.1,0.2,0.1,0.4,0.5,0.4c2.3,0,4.7,0,7,0c0.3,0,0.4-0.1,0.5-0.4c0.4-1.9,0.9-3.8,1.4-5.7c0.7-2.8,1.4-5.7,2-8.5
			c0.7-2.9,1.4-5.7,2.1-8.6c0.7-2.9,1.4-5.8,2.1-8.7c-2.5,0-4.9,0-7.3,0c-0.2,0-0.3,0-0.3,0.2c-0.7,3.1-1.4,6.2-2.1,9.3
			c-0.7,3.1-1.4,6.2-2.2,9.4c-0.2,0.8-0.4,1.5-0.5,2.3c-1-2.8-1.8-5.7-2.7-8.5c-1.3-4.1-2.5-8.2-3.8-12.4c-0.1-0.3-0.3-0.4-0.6-0.4
			c-2.1,0-4.1,0-6.2,0c-0.4,0-0.5,0.1-0.6,0.5c-2.2,6.5-4.3,13.1-6.5,19.6c-0.1,0.4-0.2,0.9-0.6,1.3c-0.2-0.8-0.3-1.5-0.4-2.2
			c-0.4-1.9-0.8-3.9-1.1-5.8c-0.4-2.3-0.9-4.7-1.4-7c-0.4-2-0.8-4-1.2-6c-0.1-0.5-0.3-0.5-0.6-0.5c-2.2,0-4.4,0-6.6,0
			c-0.2,0-0.3-0.1-0.4,0c0.2,1.2,0.5,2.3,0.7,3.4c0.4,1.9,0.9,3.8,1.3,5.6c0.6,2.9,1.3,5.8,1.9,8.7c0.4,2,0.9,4,1.3,6
			c0.5,2.6,1.1,5.1,1.7,7.7c0.1,0.5,0.3,0.5,0.6,0.5c2.2,0,4.4,0,6.6,0c0.4,0,0.5-0.2,0.6-0.5c0.8-2.4,1.6-4.7,2.4-7
			c1.4-3.9,2.7-7.8,4-11.7C443.4,55.2,443.7,53.9,444.3,52.6z M136,32.6c-2.2,0.1-3.8,0.3-5.5,0.9c-2.6,0.8-4.6,2.3-6.2,4.4
			c-1.8,2.4-2.5,5-2.1,8c0.4,3.2,1.9,5.6,4.5,7.4c2.1,1.5,4.5,2.5,7,3.3c2.4,0.8,4.9,1.5,7.3,2.6c1.2,0.5,2.4,1,3.3,2.1
			c1.1,1.3,1.3,3.9,0.3,5.3c-1.1,1.6-2.9,2.1-4.7,2.4c-1.6,0.2-3.2,0.3-4.7-0.1c-1.4-0.3-2.6-0.9-3.4-2.1c-1.4-2-1.9-4.2-2.4-6.5
			c-0.1-0.4-0.2-0.5-0.5-0.4c-2.4,0.7-4.9,1-7.3,1.6c-0.8,0.2-0.8,0.2-0.7,1c0.3,2.3,1,4.5,2.1,6.5c1.3,2.4,3.2,4.2,5.5,5.5
			c2.8,1.5,5.8,2.1,9,2.1c2.6,0,5.2-0.3,7.7-1.3c2.9-1.2,5.3-3.2,6.7-6c1.3-2.5,1.5-5.3,1.1-8.1c-0.3-1.8-1-3.4-2.1-4.7
			c-1.2-1.4-2.8-2.4-4.4-3.2c-2.5-1.3-5.2-2.2-7.9-3.1c-2.1-0.7-4.2-1.5-6.2-2.4c-0.5-0.3-1.1-0.6-1.4-1.1c-1.5-2.1-0.4-5.2,2.5-6
			c1.8-0.5,3.6-0.5,5.4-0.1c1.2,0.3,2.3,0.9,3.2,1.7c1,1,1.7,2.3,2.2,3.6c0.1,0.3,0.2,0.3,0.4,0.3c2.4-0.6,4.7-1.2,7.1-1.8
			c0.3-0.1,0.5-0.1,0.4-0.6c-0.1-0.3-0.2-0.7-0.3-1.1c-1.1-3.8-3.4-6.5-6.9-8.2C141.8,33,138.7,32.4,136,32.6z M244.5,75.7
			c-0.6-1-1.2-1.9-1.9-2.9c-1.2-1.8-2.5-3.7-3.7-5.5c-1.4-2.2-2.9-4.3-4.3-6.5c-0.8-1.2-1.6-2.4-2.4-3.6c-0.2-0.3-0.2-0.5,0.1-0.8
			c0.6-0.6,1.1-1.3,1.7-1.9c1.3-1.5,2.6-2.9,3.9-4.4c1.8-2,3.5-3.9,5.3-5.9c0.1-0.1,0.2-0.2,0.2-0.3c-0.1-0.2-0.2-0.1-0.4-0.1
			c-3,0-6,0-9,0c-0.2,0-0.3,0-0.4,0.1c-0.9,1-1.8,2.1-2.7,3.1c-1.4,1.6-2.9,3.2-4.3,4.9c-0.8,0.9-1.5,1.7-2.3,2.6
			c-0.8,0.9-1.5,1.7-2.4,2.6c0-0.3,0-0.5,0-0.7c0-8,0-16.1,0-24.1c0-0.5-0.1-0.6-0.6-0.6c-2.3,0-4.5,0-6.8,0c-0.4,0-0.5,0.1-0.5,0.5
			c0,14.3,0,28.7,0,43c0,0.4,0.1,0.5,0.5,0.5c2.3,0,4.5,0,6.8,0c0.5,0,0.6-0.1,0.6-0.6c0-3,0-6,0-9c0-0.2,0-0.4,0.1-0.6
			c1.2-1.4,2.4-2.7,3.6-4.1c0.2-0.2,0.3-0.4,0.6,0c1.2,1.9,2.5,3.8,3.8,5.7c1.2,1.9,2.5,3.7,3.7,5.6c0.6,0.9,1.3,1.8,1.9,2.7
			c0.1,0.2,0.2,0.3,0.5,0.3C238.9,75.7,241.7,75.7,244.5,75.7z M407,62.1c3.2,0,6.4,0,9.5,0c1.2,0,1.2,0,1.2-1.2c0.1-2,0-4-0.4-5.9
			c-0.6-2.6-1.6-5-3.4-7.1c-1.7-2-3.6-3.4-6.1-4.3c-1.7-0.6-3.5-0.7-5.4-0.7c-2.2,0-4.2,0.5-6.1,1.5c-1.9,1-3.5,2.4-4.8,4.2
			c-1.6,2.1-2.5,4.6-2.9,7.2c-0.4,2.6-0.4,5.3,0,8c0.4,2.6,1.4,5.1,3,7.2c1.4,1.9,3.2,3.4,5.4,4.4c3.3,1.5,6.8,1.6,10.3,0.8
			c3.8-0.9,6.7-3.1,8.9-6.3c0.3-0.4,0.1-0.5-0.1-0.7c-0.7-0.6-1.3-1.1-2-1.7c-1-0.9-1.9-1.7-2.9-2.6c-0.1-0.1-0.2-0.3-0.4-0.1
			c-0.4,0.5-0.8,1.1-1.2,1.6c-1,1.2-2.2,2.2-3.7,2.8c-1.4,0.5-2.8,0.6-4.3,0.3c-1.9-0.3-3.4-1.3-4.4-3c-0.7-1.2-1-2.6-1.1-4
			c0-0.5,0.1-0.6,0.5-0.6C400.2,62.1,403.6,62.1,407,62.1z M490.7,72.5c0,1,0,1.9,0,2.8c0,0.4,0.1,0.5,0.5,0.5c1.7,0,3.5,0,5.2,0
			c0.9,0,0.9,0,0.9-1c0,0,0,0,0-0.1c-0.1-2.4,0-4.7,0-7.1c0-2.2,0-4.3,0-6.5c0-2.1,0-4.1,0-6.2c0-1.4-0.2-2.7-0.5-4
			c-0.6-2.1-1.6-3.9-3.3-5.2c-1.8-1.4-3.9-2.3-6.1-2.7c-1.7-0.3-3.5-0.3-5.2-0.2c-1.6,0.1-3.2,0.5-4.7,1.2c-1.6,0.8-2.9,1.8-4.1,3.2
			c-1.1,1.3-1.9,2.8-2.4,4.4c0,0.1-0.2,0.2,0.1,0.3c2,0.8,4,1.7,6,2.5c0.3,0.1,0.3,0,0.4-0.2c0.2-0.5,0.4-1.1,0.6-1.5
			c0.9-1.6,2-2.8,3.8-3.2c1.4-0.3,2.9-0.3,4.4,0c1,0.2,1.9,0.6,2.6,1.4c1.1,1.3,1,3.4-1.1,4.2c-1.8,0.8-3.8,1.2-5.7,1.7
			c-2.6,0.7-5.3,1.3-7.7,2.7c-1.7,1-3,2.4-3.6,4.3c-0.5,1.6-0.5,3.1-0.3,4.7c0.2,1.8,1.1,3.3,2.2,4.6c1.3,1.4,2.9,2.3,4.8,2.7
			c2.4,0.5,4.7,0.7,7.1,0.2C487.1,75.8,489.1,74.6,490.7,72.5z M186.2,54.7c0.3-0.8,0.7-1.7,1.1-2.5c0.8-1.3,1.9-2.3,3.5-2.6
			c1.4-0.3,2.9-0.3,4.4,0c1,0.2,1.9,0.6,2.6,1.4c1.1,1.3,1,3.4-1.1,4.2c-1.8,0.8-3.8,1.2-5.7,1.7c-2.6,0.7-5.3,1.3-7.7,2.8
			c-1.7,1-3,2.4-3.5,4.3c-0.4,1.5-0.5,3.1-0.3,4.7c0.2,1.8,1,3.3,2.2,4.6c1.7,2,4,2.8,6.6,3.1c1.5,0.2,3.1,0.2,4.6,0
			c1.5-0.2,3-0.6,4.2-1.5c1-0.6,1.8-1.4,2.6-2.5c0,1,0,1.9,0,2.7c0,0.4,0.1,0.5,0.5,0.5c2,0,4.1,0,6.1,0c0-0.7,0-1.3,0-2
			c0-2-0.1-4,0-6c0-2.2,0.1-4.3,0.1-6.5c0-2.1,0-4.1-0.1-6.2c0-1.3-0.2-2.7-0.5-4c-0.6-2.1-1.7-4-3.4-5.3c-1.8-1.4-3.9-2.2-6.1-2.6
			c-1.7-0.3-3.4-0.3-5.1-0.2c-1.7,0.1-3.3,0.5-4.8,1.3c-1.5,0.8-2.8,1.8-3.9,3.1c-1.1,1.3-1.9,2.8-2.4,4.5c0,0.1-0.2,0.2,0,0.3
			c0.3,0.1,0.6,0.2,0.9,0.4C182.6,53.2,184.4,53.9,186.2,54.7z M265,59.6c0,5.2,0,10.3,0,15.5c0,0.4,0.1,0.6,0.6,0.6
			c2.2,0,4.5,0,6.7,0c0.5,0,0.6-0.1,0.6-0.6c0-6.4,0-12.8,0-19.2c0-0.3,0-0.5,0.1-0.8c0.3-2,1.2-3.5,3.1-4.4c1.4-0.7,3-0.7,4.5-0.5
			c0.9,0.1,1.8,0.5,2.5,1.2c1,1,1.4,2.3,1.5,3.6c0.2,1.9,0.1,3.8,0.1,5.7c0,2-0.1,4-0.1,6c0,2.7,0.1,5.4,0,8.2c0,0.9,0,0.9,0.9,0.9
			c2.2,0,4.4,0,6.6,0c0.3,0,0.3-0.1,0.4-0.4c0-0.5,0-1.1,0-1.6c0-2.4,0-4.7,0-7.1c0-1.8,0-3.6,0-5.5c0-1.9,0-3.7,0-5.6
			c0-2.2-0.1-4.4-1-6.5c-1.1-2.6-3-4.5-5.6-5.5c-2.6-0.9-5.2-1.1-7.9-0.3c-2,0.6-3.6,1.7-5,3.2c-0.1,0.1,0,0.3-0.2,0.2
			c-0.2-0.1-0.1-0.2-0.1-0.3c0-0.7-0.1-1.5,0-2.2c0-0.4-0.1-0.5-0.5-0.5c-2.2,0-4.3,0-6.5,0c-0.5,0-0.6,0.1-0.5,0.6
			C265,49.4,265,54.5,265,59.6z M560.9,65.1c0.3,0.2,0.1,0.6,0.2,0.8c0.4,1.5,0.9,3,1.8,4.3c1,1.7,2.4,3,4,4.1
			c1.7,1.1,3.6,1.7,5.6,1.9c3.3,0.4,6.5,0.3,9.6-0.9c2-0.8,3.6-2.2,4.9-4c1.2-1.7,1.6-3.6,1.5-5.7c-0.2-2.1-0.8-3.9-2.4-5.4
			c-1.3-1.3-2.9-2-4.6-2.6c-2.1-0.8-4.3-1.3-6.4-1.9c-1.5-0.5-3.1-0.9-4.6-1.7c-1.4-0.7-1.7-2.4-0.5-3.5c0.9-0.8,1.8-1.1,2.9-1.3
			c1.3-0.2,2.6-0.2,3.9,0.2c1.7,0.5,2.9,1.7,3.7,3.3c0.2,0.4,0.4,1,0.7,1.2c0.3,0.2,0.9-0.1,1.3-0.3c0,0,0,0,0.1,0
			c1.6-0.5,3.1-0.9,4.7-1.4c0.3-0.1,0.4-0.2,0.3-0.5c-0.7-2-1.6-3.8-3.1-5.4c-1.7-1.7-3.8-2.7-6.1-3.2c-1.8-0.4-3.5-0.4-5.3-0.4
			c-1.9,0.1-3.7,0.4-5.3,1.3c-3,1.6-5.1,4-5.5,7.6c-0.2,2.3,0.3,4.4,2,6.1c1.6,1.6,3.7,2.5,5.8,3.3c3.1,1.1,6.3,1.7,9.3,2.9
			c0.9,0.4,1.9,0.8,2.1,2c0.3,1.5-0.6,2.6-1.7,3.2c-1.8,0.9-3.7,1-5.6,0.8c-1-0.1-2-0.3-2.9-0.9c-2-1.2-2.7-3.1-3.1-5.3
			c-0.1-0.4-0.1-0.5-0.5-0.4C565.4,64,563.2,64.6,560.9,65.1z M168.1,57.4C168.1,57.4,168.1,57.4,168.1,57.4c0-2.2,0-4.5,0-6.7
			c0-0.3,0.1-0.4,0.4-0.4c2.3,0,4.7,0,7,0c0.5,0,0.6,0,0.6-0.6c0-1.8,0-3.7,0-5.5c0-0.4-0.1-0.6-0.6-0.6c-2.4,0-4.8,0-7.2,0
			c-0.4,0-0.4-0.2-0.4-0.4c0.1-2.3-0.1-4.6,0.1-6.9c0-0.3,0-0.6-0.5-0.5c-2.1,0-4.3,0-6.4,0c-0.4,0-0.5,0.1-0.5,0.5
			c0,2.3,0,4.6,0,6.9c0,0.4-0.1,0.5-0.5,0.5c-1.4,0-2.8,0-4.2,0c-0.4,0-0.5,0.2-0.5,0.5c0,1.7,0,3.4,0,5.2c0,0.9,0,0.9,0.9,0.9
			c1.2,0,2.5,0,3.7,0c0.2,0,0.4,0,0.4,0.3c0,1.3-0.1,2.5,0,3.8c0.1,2.5,0,5,0,7.5c0,2.2-0.1,4.4,0.4,6.6c0.4,1.7,0.9,3.3,2.2,4.5
			c1.5,1.4,3.3,2,5.2,2.3c2,0.3,4.1,0.2,6.1,0.3c0.5,0,0.6-0.1,0.6-0.6c-0.1-2.2-0.1-4.4,0-6.7c0-0.3-0.1-0.3-0.3-0.3
			c-1.2,0-2.4,0-3.6-0.1c-1.2-0.1-2.3-0.8-2.6-1.9c-0.2-0.7-0.3-1.5-0.3-2.3C168.1,61.8,168.1,59.6,168.1,57.4z M505.2,59.7
			c0,5.2,0,10.3,0,15.5c0,0.4,0.1,0.5,0.5,0.5c2.3,0,4.5,0,6.8,0c0.5,0,0.6-0.1,0.6-0.6c0-5.6,0-11.3,0-16.9c0-1.1,0.1-2.3,0.4-3.4
			c0.6-2.2,1.7-3.5,4-3.9c1.1-0.2,2.1-0.1,3.2,0.3c0.1,0,0.4,0.3,0.4-0.2c0.1-0.7,0.2-1.3,0.3-2c0.3-1.7,0.5-3.3,0.8-5
			c0.1-0.3,0-0.3-0.3-0.4c-0.6-0.2-1.2-0.4-1.7-0.4c-1.5-0.2-3,0.1-4.3,0.9c-1.2,0.6-2.2,1.6-2.9,2.8c0,0.1,0,0.3-0.2,0.2
			c-0.1-0.1-0.1-0.2-0.1-0.3c0-0.8,0-1.7,0-2.5c0-0.4-0.2-0.5-0.6-0.5c-2.1,0-4.2,0-6.3,0c-0.5,0-0.6,0.1-0.6,0.6
			C505.2,49.4,505.2,54.5,505.2,59.7z M248.7,59.7c0,5.1,0,10.3,0,15.4c0,0.4,0.1,0.6,0.6,0.6c2.3,0,4.5,0,6.8,0
			c0.4,0,0.5-0.1,0.5-0.5c0-10.3,0-20.7,0-31c0-0.4-0.1-0.5-0.5-0.5c-2.3,0-4.5,0-6.8,0c-0.5,0-0.6,0.1-0.6,0.6
			C248.7,49.4,248.7,54.6,248.7,59.7z M252.6,39.1c1.1,0,2.3,0,3.4,0c0.3,0,0.5,0,0.5-0.4c0-2.2,0-4.4,0-6.6c0-0.3-0.1-0.4-0.4-0.4
			c-2.3,0-4.7,0-7,0c-0.3,0-0.4,0.1-0.4,0.4c0,2.2,0,4.4,0,6.6c0,0.4,0.2,0.4,0.5,0.4C250.3,39.1,251.5,39.1,252.6,39.1z"/>
		<path class="st1" d="M29.8,66.1c0.1-1,0.4-1.9,0.7-2.8c0.7-2.6,1.4-5.2,2.1-7.8c0.7-2.4,1.3-4.9,2-7.3c0.8-2.9,1.5-5.7,2.3-8.6
			c0.7-2.5,1.3-4.9,2-7.3c0.3-1,0.6-1.9,1.6-2.3c1.1-0.4,2.2-0.7,3.3-1c1.4-0.4,2.7-0.8,4.1-1.2c1.6-0.4,3.1-0.9,4.7-1.3
			c1.4-0.4,2.9-0.8,4.3-1.3c3.3-0.9,6.6-1.8,9.8-2.8c1.9-0.6,3.9-1.2,5.8-1.7c1.1-0.3,2.2-0.5,3.1,0.2c0.7,0.5,1.3,1.1,1.9,1.7
			c1.2,1.3,2.4,2.6,3.6,3.9c2,2.1,4,4.1,5.9,6.1c2,2,4,4.1,6,6.1c2.1,2.1,4.1,4.3,6.2,6.4c1.2,1.2,1.2,2.6,0.8,4.1
			c-1.1,4-2.2,8-3.2,12.1c-0.6,2.3-1.3,4.7-1.9,7c-0.9,3.4-1.8,6.8-2.7,10.1c-0.3,1.1-0.5,2.2-0.9,3.3c-0.4,1.3-1.4,2.1-2.7,2.5
			c-2,0.5-4,1.1-6,1.7c-3.3,0.9-6.6,1.8-9.8,2.8c-2.6,0.8-5.3,1.6-7.9,2.3c-2.2,0.6-4.3,1.3-6.5,1.8c-0.6,0.1-1.1,0.4-1.7,0.5
			c-1.4,0.2-2.3-0.6-3.1-1.4c-0.6-0.6-1.2-1.3-1.8-1.9c-2.7-2.8-5.5-5.7-8.2-8.5c-2.1-2.2-4.3-4.4-6.4-6.6c-2.1-2.1-4.1-4.3-6.2-6.4
			C30.2,67.6,29.7,67,29.8,66.1z M79.8,33.9c-0.1,0-0.1-0.1-0.2-0.1c0,0.1,0,0.2,0.1,0.2c0,0.1,0,0.2,0,0.4
			c1.1,4.5,2.3,8.9,3.4,13.4c0.1,0.6,0.4,0.5,0.9,0.4c1.6-0.5,3.2-0.9,4.9-1.4c0.9-0.3,1.7-0.5,2.7-0.8c-0.8-0.9-1.7-1.7-2.5-2.6
			c-1.3-1.4-2.7-2.7-4-4.1C83.3,37.5,81.5,35.7,79.8,33.9z M63.5,29.6c-0.1,0-0.2,0-0.4,0c-2.3,0.7-4.6,1.4-7,2
			c-2.7,0.8-5.5,1.5-8.2,2.3c-0.1,0-0.8-0.1-0.3,0.5c1.8,1.8,3.6,3.7,5.4,5.5c0.2,0.2,0.4,0.3,0.6,0c0.8-0.9,1.7-1.8,2.5-2.6
			c1.9-1.9,3.8-3.9,5.7-5.8c0.6-0.6,1.2-1.3,1.8-1.9c0-0.1,0.1-0.1,0.1-0.2C63.6,29.5,63.6,29.5,63.5,29.6z M42.9,71.8
			c0-0.1-0.1-0.1-0.2-0.1c0,0.1,0.1,0.1,0.1,0.2c3.9,4,7.8,8.1,11.7,12.2c0.7-2.5,1.3-5,2-7.4c0.1-0.4,0.4-0.8,0.2-1.1
			c-0.2-0.2-0.7-0.2-1.1-0.3c-0.1,0-0.1-0.1-0.2-0.1c-2.3-0.5-4.6-1.2-6.9-1.8C46.7,72.8,44.8,72.3,42.9,71.8z M84.1,76.2
			c0,0-0.1-0.1-0.1-0.2c-0.7-3-1.4-6-2.2-9c-0.7-2.9-1.4-5.8-2.2-8.6c-0.1-0.3-0.2-0.3-0.4,0c-1.5,1.6-3,3.2-4.6,4.8
			c-2.5,2.6-5,5.1-7.5,7.7c-0.3,0.3-0.8,0.6-0.7,0.8c0,0.4,0.6,0.3,1,0.4c1.7,0.5,3.3,0.9,5,1.4c2.3,0.6,4.6,1.2,7,1.8
			c1.5,0.4,2.9,0.8,4.4,1.2C84,76.5,84,76.4,84.1,76.2z M56.4,69.1c-0.2-0.6-0.3-1.1-0.4-1.6c-1-3.9-2-7.9-3-11.8
			c-0.4-1.6-0.8-3.1-1.2-4.7c-0.1-0.3-0.1-0.4-0.3-0.1c-1.1,1.3-2.4,2.5-3.6,3.8c-2.1,2.3-4.3,4.4-6.5,6.7c-0.9,0.9-1.8,1.8-2.7,2.8
			c-0.2,0.2-0.2,0.3,0,0.3c2.3,0.6,4.6,1.2,6.8,1.8c2.7,0.7,5.4,1.5,8.1,2.2C54.6,68.7,55.5,68.9,56.4,69.1z M72.3,29.3
			c-4.4,4.6-8.8,9.1-13.2,13.7c1.4,0.5,2.7,0.8,4,1.1c2,0.5,4,1.1,6,1.6c2.5,0.6,5,1.4,7.5,2c0.3,0.1,0.4,0.1,0.3-0.3
			c-0.7-2.8-1.4-5.7-2.1-8.5c-0.5-1.9-0.9-3.8-1.4-5.8C73,31.9,72.7,30.7,72.3,29.3z M62.1,67.4c4.4-4.6,8.8-9.1,13.2-13.7
			c-6-1.6-11.9-3.2-17.8-4.8C59,55.1,60.6,61.2,62.1,67.4z M76.8,80.9c-0.1,0-0.1-0.1-0.1-0.1c-2.7-0.7-5.4-1.4-8.1-2.1
			c-1.8-0.5-3.6-1-5.5-1.5c-0.3-0.1-0.5-0.2-0.6,0.3c-0.6,2.2-1.2,4.4-1.8,6.6c-0.1,0.5-0.4,1-0.4,1.6C65.9,84,71.3,82.5,76.8,80.9z
			 M38.8,55.3c0.3-0.1,0.4-0.3,0.5-0.4c0.9-0.9,1.8-1.9,2.7-2.8c2.3-2.4,4.6-4.7,6.8-7c0.2-0.2,0.3-0.4,0-0.7
			c-0.4-0.4-0.8-0.9-1.2-1.3c-1.4-1.5-2.9-2.9-4.4-4.5C41.7,44.2,40.3,49.7,38.8,55.3z M88.3,68.8c0.3-1.1,0.5-2,0.8-2.9
			c0.6-2.3,1.3-4.5,1.9-6.8c0.6-2.3,1.2-4.5,1.8-6.8c0.1-0.4-0.1-0.3-0.3-0.2c-2.5,0.7-5,1.4-7.5,2.1c-0.3,0.1-0.3,0.3-0.3,0.5
			c0.7,2.6,1.3,5.2,2,7.8C87.3,64.5,87.8,66.6,88.3,68.8z"/>
		<path class="st1" d="M320.9,72.7c-1.8,2.5-4.3,3.7-7.4,3.8c-2.4,0.1-4.7-0.3-6.9-1.4c-3-1.5-5.2-3.9-6.5-6.9
			c-0.7-1.5-1.1-3.1-1.4-4.8c-0.3-1.8-0.3-3.6-0.2-5.4c0.1-2.2,0.6-4.3,1.4-6.3c0.9-2.2,2.3-4.1,4.1-5.6c1.7-1.5,3.8-2.6,6.1-3
			c2.4-0.4,4.7-0.4,6.9,0.5c1.4,0.5,2.6,1.3,3.6,2.6c0.2,0.2,0.4,0.4,0.6,0.7c0.2-0.5,0.1-1.1,0.1-1.6c0-0.4,0-0.7,0-1.1
			c0-0.2,0.1-0.4,0.4-0.4c2.2,0,4.4,0,6.6,0c0.2,0,0.4-0.1,0.4,0.3c0,1.9,0,3.8,0,5.7c0,2.4,0,4.7,0,7.1c0,2.2,0,4.3,0,6.5
			c0,2,0,4.1,0,6.1c0,2.1-0.1,4.2-0.1,6.2c0,2-0.2,4-0.9,5.9c-1,3.1-3.1,5.3-5.9,6.9c-2.7,1.5-5.6,1.9-8.6,1.8
			c-2.2-0.1-4.4-0.5-6.4-1.5c-2.7-1.4-4.8-3.3-6.1-6.1c-0.1-0.3-0.1-0.3,0.1-0.5c1.7-1.2,3.5-2.4,5.2-3.6c0.4-0.3,0.5,0,0.7,0.3
			c0.8,1.4,1.6,2.6,3,3.5c1.4,0.9,3,1.2,4.6,1.1c1.9,0,3.7-0.5,5-1.9c0.9-1,1.3-2.2,1.5-3.4c0.2-1.6,0-3.3,0.1-4.9
			c0-0.1-0.1-0.2-0.1-0.3c0.1,0,0.1-0.1,0.1-0.2C321,72.6,320.9,72.7,320.9,72.7z M321.1,57.3c-0.2-0.1,0-0.2,0-0.4
			c0-0.1,0-0.2,0-0.4c0-2.4-0.9-4.3-3-5.7c-1.9-1.3-4.1-1.4-6.2-0.8c-2.4,0.7-3.9,2.3-4.8,4.6c-1.1,2.9-1,5.9-0.3,8.8
			c0.6,2.3,1.9,4.2,4.2,5.3c1.6,0.7,3.3,0.9,5,0.5c2-0.5,3.6-1.6,4.5-3.5c0.5-1.1,0.6-2.3,0.7-3.5C321.1,60.7,321.1,59,321.1,57.3z"
			/>
		<path class="st1" d="M384.4,75.7c-2.8,0-5.6,0-8.4,0c-0.2,0-0.4,0-0.5-0.3c-1.4-2.5-2.8-5.1-4.2-7.6c-1.3-2.4-2.6-4.8-3.9-7.3
			c-0.2-0.4-0.4-0.5-0.8-0.5c-1.8,0-3.6,0-5.4,0c-0.3,0-0.4,0.1-0.4,0.4c0,2.2,0,4.3,0,6.5c0,2.2,0,4.3,0,6.5c0,0.7-0.1,1.3,0,2
			c0,0.3,0,0.3-0.3,0.3c-2.5,0-5,0-7.5,0c-0.3,0-0.4-0.1-0.4-0.4c0-0.1,0-0.2,0-0.3c0-13.6,0-27.3,0-40.9c0-0.6,0.2-0.7,0.7-0.7
			c5.6,0,11.3,0,16.9,0c2.4,0,4.8,0.5,7,1.6c3.1,1.6,5.4,4,6.4,7.4c0.7,2.1,0.7,4.2,0.5,6.4c-0.2,2-0.9,3.8-2,5.5
			c-1,1.4-2.3,2.6-3.8,3.5c-0.8,0.5-1.7,0.9-2.6,1.2c-0.4,0.1-0.3,0.3-0.2,0.6c1.4,2.6,2.9,5.2,4.3,7.8c0.9,1.6,1.7,3.2,2.6,4.8
			C383.1,73.4,383.7,74.5,384.4,75.7z M360.8,46.9C360.8,46.9,360.8,46.9,360.8,46.9c0,1.8,0,3.7,0,5.5c0,0.5,0,0.5,0.6,0.5
			c1.4,0,2.8,0,4.1,0c1.8,0,3.7,0.1,5.5-0.1c1.8-0.2,3.3-0.9,4.2-2.5c0.9-1.4,0.9-3.1,0.7-4.7c-0.2-1.3-0.7-2.4-1.6-3.3
			c-1.2-1.1-2.8-1.5-4.3-1.5c-3-0.1-5.9,0-8.9,0c-0.4,0-0.4,0.2-0.4,0.4C360.8,43.1,360.8,45,360.8,46.9z"/>
		<path class="st1" d="M444.3,52.6c-0.6,1.4-1,2.7-1.4,3.9c-1.3,3.9-2.6,7.8-4,11.7c-0.8,2.3-1.7,4.7-2.4,7
			c-0.1,0.3-0.2,0.5-0.6,0.5c-2.2,0-4.4,0-6.6,0c-0.3,0-0.5,0-0.6-0.5c-0.6-2.6-1.1-5.1-1.7-7.7c-0.4-2-0.9-4-1.3-6
			c-0.6-2.9-1.3-5.8-1.9-8.7c-0.4-1.9-0.9-3.8-1.3-5.6c-0.3-1.1-0.5-2.3-0.7-3.4c0.1-0.1,0.3,0,0.4,0c2.2,0,4.4,0,6.6,0
			c0.3,0,0.6,0,0.6,0.5c0.4,2,0.8,4,1.2,6c0.5,2.3,1,4.6,1.4,7c0.3,1.9,0.8,3.9,1.1,5.8c0.1,0.7,0.3,1.4,0.4,2.2
			c0.4-0.4,0.5-0.9,0.6-1.3c2.2-6.5,4.4-13.1,6.5-19.6c0.1-0.4,0.3-0.5,0.6-0.5c2.1,0,4.1,0,6.2,0c0.3,0,0.5,0.1,0.6,0.4
			c1.3,4.1,2.5,8.2,3.8,12.4c0.9,2.8,1.7,5.7,2.7,8.5c0.2-0.8,0.4-1.5,0.5-2.3c0.7-3.1,1.5-6.2,2.2-9.4c0.7-3.1,1.4-6.2,2.1-9.3
			c0.1-0.2,0.2-0.2,0.3-0.2c2.4,0,4.8,0,7.3,0c-0.7,2.9-1.5,5.8-2.1,8.7c-0.7,2.9-1.4,5.7-2.1,8.6c-0.7,2.8-1.3,5.7-2,8.5
			c-0.5,1.9-0.9,3.8-1.4,5.7c-0.1,0.3-0.2,0.4-0.5,0.4c-2.3,0-4.7,0-7,0c-0.3,0-0.4-0.2-0.5-0.4c-0.9-2.9-1.8-5.8-2.7-8.6
			c-1-3.1-2-6.1-2.9-9.2C445.4,55.9,444.9,54.3,444.3,52.6z"/>
		<path class="st1" d="M136,32.6c2.7-0.2,5.8,0.4,8.7,1.8c3.5,1.7,5.8,4.4,6.9,8.2c0.1,0.4,0.2,0.7,0.3,1.1c0.2,0.5-0.1,0.5-0.4,0.6
			c-2.4,0.6-4.7,1.2-7.1,1.8c-0.2,0-0.3,0-0.4-0.3c-0.4-1.4-1.1-2.6-2.2-3.6c-0.9-0.9-2-1.5-3.2-1.7c-1.8-0.4-3.6-0.4-5.4,0.1
			c-2.9,0.8-4.1,3.8-2.5,6c0.4,0.5,0.9,0.8,1.4,1.1c2,0.9,4.1,1.7,6.2,2.4c2.7,1,5.4,1.8,7.9,3.1c1.6,0.9,3.2,1.8,4.4,3.2
			c1.1,1.4,1.8,3,2.1,4.7c0.4,2.8,0.2,5.5-1.1,8.1c-1.5,2.8-3.8,4.8-6.7,6c-2.5,1-5,1.3-7.7,1.3c-3.2,0-6.2-0.6-9-2.1
			c-2.4-1.3-4.2-3.1-5.5-5.5c-1.1-2-1.8-4.2-2.1-6.5c-0.1-0.8-0.1-0.8,0.7-1c2.4-0.6,4.9-1,7.3-1.6c0.3-0.1,0.4,0,0.5,0.4
			c0.4,2.3,0.9,4.6,2.4,6.5c0.9,1.2,2.1,1.8,3.4,2.1c1.6,0.4,3.2,0.4,4.7,0.1c1.8-0.3,3.5-0.8,4.7-2.4c1-1.4,0.8-3.9-0.3-5.3
			c-0.9-1.1-2.1-1.6-3.3-2.1c-2.4-1-4.8-1.8-7.3-2.6c-2.5-0.8-4.8-1.7-7-3.3c-2.6-1.8-4.1-4.2-4.5-7.4c-0.3-3,0.4-5.6,2.1-8
			c1.6-2.1,3.7-3.6,6.2-4.4C132.1,32.9,133.8,32.6,136,32.6z"/>
		<path class="st1" d="M547.4,72.7c-1,1.4-2.4,2.2-3.9,2.9c-1.1,0.5-2.3,0.9-3.5,0.9c-1.7,0.1-3.4,0-5.1-0.5c-1.6-0.5-3-1.2-4.3-2.3
			c-1.6-1.3-2.7-2.8-3.6-4.6c-0.9-1.7-1.4-3.6-1.6-5.4c-0.3-1.9-0.3-3.8-0.2-5.6c0.2-4.4,1.6-8.3,4.8-11.5c2.1-2.1,4.6-3.4,7.5-3.7
			c3-0.3,5.7,0.4,8.1,2.2c0.6,0.4,0.9,1.1,1.4,1.8c0.2-0.8,0.1-1.5,0.1-2.2c0-1.5,0-3,0-4.6c0-1.5,0-3.1,0-4.6c0-1.2,0.1-2.4,0-3.5
			c0-0.1,0.1-0.4,0.4-0.4c2.4,0,4.7,0,7.1,0c0.2,0,0.3-0.1,0.3,0.3c0,1.9,0,3.8,0,5.7c0,2,0,4.1,0,6.1c0,2.5-0.1,5-0.1,7.5
			c0,2.3,0.1,4.7,0.1,7c0,2.8-0.1,5.6-0.1,8.5c0,2.8,0.1,5.7,0.1,8.5c0,0.3,0,0.5-0.4,0.4c-2,0-4,0-6,0c-1,0-0.9,0-0.9-1
			c0-0.6,0.1-1.3-0.1-1.9c0.1,0,0.1-0.1,0.1-0.2C547.5,72.6,547.5,72.7,547.4,72.7z M540.2,69.5c0.7,0,1.5-0.1,2.3-0.3
			c2.3-0.7,3.6-2.2,4.3-4.4c0.3-1,0.3-2,0.3-3c0-2,0.1-4-0.1-6c-0.2-1.9-1.1-3.5-2.6-4.6c-1.6-1.2-3.5-1.4-5.5-1.1
			c-2.7,0.4-4.3,2.1-5.2,4.5c-0.5,1.3-0.6,2.6-0.7,3.9c-0.1,2.3,0,4.5,0.8,6.7C534.8,67.8,537.2,69.6,540.2,69.5z"/>
		<path class="st1" d="M244.5,75.7c-2.8,0-5.6,0-8.3,0c-0.3,0-0.4-0.1-0.5-0.3c-0.6-0.9-1.3-1.8-1.9-2.7c-1.2-1.9-2.5-3.7-3.7-5.6
			c-1.3-1.9-2.6-3.8-3.8-5.7c-0.3-0.4-0.4-0.2-0.6,0c-1.2,1.4-2.4,2.7-3.6,4.1c-0.2,0.2-0.1,0.4-0.1,0.6c0,3,0,6,0,9
			c0,0.5-0.1,0.6-0.6,0.6c-2.3,0-4.5,0-6.8,0c-0.4,0-0.5-0.1-0.5-0.5c0-14.3,0-28.7,0-43c0-0.4,0.1-0.5,0.5-0.5c2.3,0,4.5,0,6.8,0
			c0.5,0,0.6,0.1,0.6,0.6c0,8,0,16.1,0,24.1c0,0.2,0,0.4,0,0.7c0.8-0.9,1.6-1.8,2.4-2.6c0.8-0.9,1.5-1.7,2.3-2.6
			c1.4-1.6,2.8-3.3,4.3-4.9c0.9-1,1.8-2.1,2.7-3.1c0.1-0.1,0.3-0.1,0.4-0.1c3,0,6,0,9,0c0.1,0,0.3-0.1,0.4,0.1
			c0,0.1-0.1,0.2-0.2,0.3c-1.8,2-3.5,3.9-5.3,5.9c-1.3,1.5-2.6,2.9-3.9,4.4c-0.6,0.6-1.1,1.3-1.7,1.9c-0.3,0.3-0.3,0.5-0.1,0.8
			c0.8,1.2,1.6,2.4,2.4,3.6c1.4,2.2,2.9,4.3,4.3,6.5c1.2,1.9,2.5,3.7,3.7,5.5C243.3,73.7,243.9,74.7,244.5,75.7z"/>
		<path class="st1" d="M407,62.1c-3.4,0-6.8,0-10.1,0c-0.5,0-0.5,0.1-0.5,0.6c0.1,1.4,0.4,2.8,1.1,4c1,1.7,2.5,2.7,4.4,3
			c1.5,0.2,2.9,0.2,4.3-0.3c1.5-0.6,2.6-1.6,3.7-2.8c0.4-0.5,0.8-1,1.2-1.6c0.2-0.2,0.3,0,0.4,0.1c1,0.9,2,1.7,2.9,2.6
			c0.7,0.6,1.3,1.1,2,1.7c0.2,0.2,0.3,0.3,0.1,0.7c-2.3,3.1-5.2,5.4-8.9,6.3c-3.5,0.8-7,0.6-10.3-0.8c-2.2-1-4-2.5-5.4-4.4
			c-1.6-2.1-2.6-4.6-3-7.2c-0.4-2.7-0.5-5.3,0-8c0.4-2.6,1.4-5.1,2.9-7.2c1.3-1.7,2.9-3.2,4.8-4.2c1.9-1,3.9-1.5,6.1-1.5
			c1.8,0,3.6,0.1,5.4,0.7c2.4,0.8,4.4,2.3,6.1,4.3c1.8,2.1,2.8,4.5,3.4,7.1c0.4,1.9,0.5,3.9,0.4,5.9c0,1.2-0.1,1.2-1.2,1.2
			C413.3,62.1,410.1,62.1,407,62.1z M403.2,56.2C403.2,56.2,403.2,56.2,403.2,56.2c2.2,0,4.4,0,6.6,0c0.3,0,0.4-0.1,0.3-0.4
			c0-0.5-0.1-0.9-0.3-1.4c-0.6-1.9-1.6-3.4-3.6-4.2c-0.8-0.4-1.7-0.5-2.6-0.6c-1.3-0.1-2.6,0-3.8,0.7c-2.1,1.2-3.3,3.1-3.6,5.5
			c0,0.3-0.1,0.3,0.3,0.3C398.8,56.2,401,56.2,403.2,56.2z"/>
		<path class="st1" d="M490.7,72.5c-1.6,2.1-3.6,3.3-6,3.8c-2.4,0.4-4.7,0.3-7.1-0.2c-1.9-0.4-3.5-1.3-4.8-2.7
			c-1.2-1.3-2-2.8-2.2-4.6c-0.2-1.6-0.2-3.2,0.3-4.7c0.6-1.9,1.8-3.3,3.6-4.3c2.4-1.4,5-2.1,7.7-2.7c1.9-0.5,3.9-1,5.7-1.7
			c2-0.8,2.2-2.9,1.1-4.2c-0.7-0.8-1.6-1.2-2.6-1.4c-1.4-0.3-2.9-0.3-4.4,0c-1.9,0.4-3,1.6-3.8,3.2c-0.3,0.5-0.5,1-0.6,1.5
			c0,0.2-0.1,0.3-0.4,0.2c-2-0.9-4-1.7-6-2.5c-0.3-0.1-0.1-0.2-0.1-0.3c0.5-1.6,1.3-3.1,2.4-4.4c1.1-1.4,2.5-2.4,4.1-3.2
			c1.5-0.7,3.1-1.1,4.7-1.2c1.7-0.1,3.4-0.1,5.2,0.2c2.3,0.4,4.3,1.2,6.1,2.7c1.7,1.3,2.8,3.1,3.3,5.2c0.4,1.3,0.5,2.7,0.5,4
			c0.1,2.1,0,4.1,0,6.2c0,2.2,0,4.3,0,6.5c0,2.4-0.1,4.7,0,7.1c0,0,0,0,0,0.1c0,1,0,1-0.9,1c-1.7,0-3.5,0-5.2,0
			c-0.4,0-0.5-0.1-0.5-0.5C490.7,74.4,490.7,73.5,490.7,72.5z M489.7,59.6c0,0-0.1,0-0.1-0.1c-0.2,0.6-0.6,1-1.2,1.2
			c-2.2,1-4.5,1.5-6.8,2.2c-1,0.3-2.1,0.7-2.9,1.5c-1.3,1.4-1.1,4.1,0.8,4.9c0.8,0.3,1.5,0.4,2.3,0.5c2,0.1,4,0,5.8-1.1
			c1.2-0.7,2-1.7,2-3.1C489.8,63.6,489.7,61.6,489.7,59.6z"/>
		<path class="st1" d="M186.2,54.7c-1.8-0.8-3.6-1.5-5.4-2.3c-0.3-0.1-0.6-0.3-0.9-0.4c-0.3-0.1-0.1-0.2,0-0.3
			c0.5-1.7,1.3-3.1,2.4-4.5c1.1-1.3,2.4-2.3,3.9-3.1c1.5-0.8,3.2-1.2,4.8-1.3c1.7-0.1,3.4-0.1,5.1,0.2c2.3,0.4,4.3,1.2,6.1,2.6
			c1.7,1.3,2.8,3.2,3.4,5.3c0.3,1.3,0.5,2.6,0.5,4c0,2.1,0.1,4.1,0.1,6.2c0,2.2-0.1,4.3-0.1,6.5c0,2,0,4,0,6c0,0.7,0,1.3,0,2
			c-2.1,0-4.1,0-6.1,0c-0.4,0-0.5-0.1-0.5-0.5c0-0.9,0-1.7,0-2.7c-0.8,1-1.6,1.8-2.6,2.5c-1.3,0.8-2.7,1.3-4.2,1.5
			c-1.5,0.2-3.1,0.2-4.6,0c-2.5-0.3-4.8-1.1-6.6-3.1c-1.1-1.3-1.9-2.8-2.2-4.6c-0.2-1.6-0.2-3.1,0.3-4.7c0.6-1.9,1.8-3.3,3.5-4.3
			c2.4-1.4,5-2.1,7.7-2.8c1.9-0.5,3.9-1,5.7-1.7c2-0.8,2.2-2.9,1.1-4.2c-0.7-0.8-1.6-1.2-2.6-1.4c-1.4-0.3-2.9-0.3-4.4,0
			c-1.6,0.3-2.6,1.3-3.5,2.6C186.8,53,186.5,53.8,186.2,54.7z M198.6,59.6c-0.4,0.4-0.6,0.8-1.1,1c-2.2,1.1-4.6,1.6-6.9,2.3
			c-1.1,0.3-2.1,0.7-2.9,1.5c-1.3,1.4-1.1,4.1,0.8,4.9c0.8,0.3,1.5,0.4,2.3,0.5c2,0.1,4,0,5.8-1.1c1.2-0.7,2-1.8,2-3.1
			C198.7,63.6,198.6,61.6,198.6,59.6z"/>
		<path class="st1" d="M265,59.6c0-5.1,0-10.3,0-15.4c0-0.4,0.1-0.6,0.5-0.6c2.2,0,4.3,0,6.5,0c0.3,0,0.5,0,0.5,0.5
			c-0.1,0.7,0,1.5,0,2.2c0,0.1,0,0.3,0.1,0.3c0.2,0.1,0.2-0.1,0.2-0.2c1.4-1.5,3.1-2.6,5-3.2c2.7-0.8,5.3-0.7,7.9,0.3
			c2.7,1,4.5,2.9,5.6,5.5c0.9,2.1,1,4.3,1,6.5c0,1.9,0,3.7,0,5.6c0,1.8,0,3.6,0,5.5c0,2.4,0,4.7,0,7.1c0,0.5,0,1.1,0,1.6
			c0,0.3-0.1,0.4-0.4,0.4c-2.2,0-4.4,0-6.6,0c-0.9,0-1,0-0.9-0.9c0.1-2.7,0.1-5.4,0-8.2c0-2,0.1-4,0.1-6c0-1.9,0.1-3.8-0.1-5.7
			c-0.1-1.3-0.5-2.6-1.5-3.6c-0.7-0.7-1.5-1-2.5-1.2c-1.5-0.2-3-0.2-4.5,0.5c-1.9,0.9-2.8,2.4-3.1,4.4c0,0.3-0.1,0.5-0.1,0.8
			c0,6.4,0,12.8,0,19.2c0,0.5-0.1,0.6-0.6,0.6c-2.2,0-4.5,0-6.7,0c-0.5,0-0.6-0.1-0.6-0.6C265,70,265,64.8,265,59.6z"/>
		<path class="st1" d="M560.9,65.1c2.3-0.6,4.5-1.1,6.7-1.7c0.4-0.1,0.5-0.1,0.5,0.4c0.3,2.1,1.1,4.1,3.1,5.3
			c0.9,0.5,1.9,0.8,2.9,0.9c1.9,0.2,3.8,0,5.6-0.8c1.2-0.6,2-1.7,1.7-3.2c-0.2-1.2-1.1-1.6-2.1-2c-3-1.2-6.3-1.8-9.3-2.9
			c-2.1-0.8-4.2-1.7-5.8-3.3c-1.7-1.7-2.2-3.8-2-6.1c0.4-3.6,2.5-5.9,5.5-7.6c1.6-0.9,3.5-1.2,5.3-1.3c1.8-0.1,3.6,0,5.3,0.4
			c2.3,0.5,4.4,1.5,6.1,3.2c1.5,1.5,2.4,3.4,3.1,5.4c0.1,0.3,0,0.4-0.3,0.5c-1.6,0.4-3.1,0.9-4.7,1.4c0,0,0,0-0.1,0
			c-0.4,0.2-1,0.5-1.3,0.3c-0.4-0.2-0.5-0.8-0.7-1.2c-0.8-1.6-2-2.8-3.7-3.3c-1.3-0.4-2.6-0.4-3.9-0.2c-1.1,0.2-2.1,0.5-2.9,1.3
			c-1.2,1.1-0.9,2.8,0.5,3.5c1.5,0.7,3,1.2,4.6,1.7c2.1,0.7,4.3,1.2,6.4,1.9c1.7,0.6,3.3,1.3,4.6,2.6c1.5,1.5,2.2,3.3,2.4,5.4
			c0.2,2.1-0.3,4-1.5,5.7c-1.2,1.8-2.8,3.2-4.9,4c-3.1,1.2-6.4,1.3-9.6,0.9c-2-0.2-3.9-0.8-5.6-1.9c-1.6-1.1-3-2.5-4-4.1
			c-0.8-1.4-1.4-2.8-1.8-4.3C561.1,65.7,561.3,65.4,560.9,65.1z"/>
		<path class="st1" d="M168.1,57.4c0,2.2,0,4.3,0,6.5c0,0.8,0.1,1.5,0.3,2.3c0.3,1.1,1.4,1.8,2.6,1.9c1.2,0.1,2.4,0.1,3.6,0.1
			c0.2,0,0.3-0.1,0.3,0.3c0,2.2,0,4.4,0,6.7c0,0.5-0.1,0.6-0.6,0.6c-2.1,0-4.1,0.1-6.1-0.3c-1.9-0.3-3.8-0.8-5.2-2.3
			c-1.3-1.3-1.8-2.8-2.2-4.5c-0.5-2.2-0.4-4.4-0.4-6.6c0-2.5,0-5,0-7.5c0-1.3,0-2.5,0-3.8c0-0.4-0.1-0.3-0.4-0.3c-1.2,0-2.5,0-3.7,0
			c-0.9,0-0.9,0-0.9-0.9c0-1.7,0-3.4,0-5.2c0-0.4,0.1-0.5,0.5-0.5c1.4,0,2.8,0,4.2,0c0.4,0,0.5-0.1,0.5-0.5c0-2.3,0-4.6,0-6.9
			c0-0.4,0.1-0.5,0.5-0.5c2.1,0,4.3,0,6.4,0c0.5,0,0.6,0.3,0.5,0.5c-0.1,2.3,0,4.6-0.1,6.9c0,0.2,0,0.4,0.4,0.4c2.4,0,4.8,0,7.2,0
			c0.5,0,0.6,0.1,0.6,0.6c0,1.8-0.1,3.7,0,5.5c0,0.6-0.1,0.6-0.6,0.6c-2.3,0-4.7,0-7,0c-0.3,0-0.4,0.1-0.4,0.4
			C168.1,53,168.1,55.2,168.1,57.4C168.1,57.4,168.1,57.4,168.1,57.4z"/>
		<path class="st1" d="M505.2,59.7c0-5.1,0-10.3,0-15.4c0-0.5,0.1-0.6,0.6-0.6c2.1,0,4.2,0,6.3,0c0.4,0,0.6,0.1,0.6,0.5
			c-0.1,0.8,0,1.7,0,2.5c0,0.1-0.1,0.2,0.1,0.3c0.2,0.1,0.2-0.2,0.2-0.2c0.7-1.2,1.7-2.1,2.9-2.8c1.4-0.7,2.8-1,4.3-0.9
			c0.6,0.1,1.2,0.2,1.7,0.4c0.2,0.1,0.3,0.1,0.3,0.4c-0.3,1.7-0.5,3.3-0.8,5c-0.1,0.7-0.2,1.3-0.3,2c-0.1,0.5-0.3,0.3-0.4,0.2
			c-1-0.4-2.1-0.5-3.2-0.3c-2.3,0.4-3.4,1.7-4,3.9c-0.3,1.1-0.4,2.2-0.4,3.4c0,5.6,0,11.3,0,16.9c0,0.5-0.1,0.6-0.6,0.6
			c-2.3,0-4.5,0-6.8,0c-0.4,0-0.5-0.1-0.5-0.5C505.2,70,505.2,64.8,505.2,59.7z"/>
		<path class="st1" d="M248.7,59.7c0-5.1,0-10.3,0-15.4c0-0.5,0.1-0.6,0.6-0.6c2.3,0,4.5,0,6.8,0c0.4,0,0.5,0.1,0.5,0.5
			c0,10.3,0,20.7,0,31c0,0.4-0.1,0.5-0.5,0.5c-2.3,0-4.5,0-6.8,0c-0.5,0-0.6-0.1-0.6-0.6C248.7,70,248.7,64.8,248.7,59.7z"/>
		<path class="st1" d="M252.6,39.1c-1.1,0-2.3,0-3.4,0c-0.3,0-0.5,0-0.5-0.4c0-2.2,0-4.4,0-6.6c0-0.3,0.1-0.4,0.4-0.4
			c2.3,0,4.7,0,7,0c0.3,0,0.4,0.1,0.4,0.4c0,2.2,0,4.4,0,6.6c0,0.4-0.2,0.4-0.5,0.4C254.9,39.1,253.8,39.1,252.6,39.1z"/>
		<path class="st0" d="M84.1,76.2c0,0.2-0.1,0.3-0.3,0.2c-1.5-0.4-2.9-0.8-4.4-1.2c-2.3-0.6-4.6-1.2-7-1.8c-1.7-0.4-3.3-0.9-5-1.4
			c-0.3-0.1-0.9,0.1-1-0.4c0-0.2,0.5-0.5,0.7-0.8c2.5-2.6,5-5.1,7.5-7.7c1.5-1.6,3-3.2,4.6-4.8c0.2-0.2,0.3-0.2,0.4,0
			c0.9,2.8,1.5,5.7,2.2,8.6c0.8,3,1.5,6,2.2,9C84,76.1,84,76.1,84.1,76.2z"/>
		<path class="st0" d="M56.4,69.1c-0.9-0.2-1.8-0.4-2.7-0.7c-2.7-0.7-5.4-1.5-8.1-2.2c-2.3-0.6-4.6-1.2-6.8-1.8
			c-0.2-0.1-0.2-0.1,0-0.3c0.9-0.9,1.8-1.9,2.7-2.8c2.2-2.2,4.4-4.4,6.5-6.7c1.2-1.3,2.5-2.5,3.6-3.8c0.2-0.3,0.3-0.1,0.3,0.1
			c0.4,1.6,0.8,3.1,1.2,4.7c1,3.9,2,7.9,3,11.8C56.1,68,56.2,68.5,56.4,69.1z"/>
		<path class="st0" d="M72.3,29.3c0.3,1.3,0.7,2.5,1,3.8c0.5,1.9,0.9,3.8,1.4,5.8c0.7,2.8,1.4,5.7,2.1,8.5c0.1,0.4,0,0.4-0.3,0.3
			c-2.5-0.6-5-1.3-7.5-2c-2-0.5-4-1.1-6-1.6c-1.3-0.3-2.6-0.6-4-1.1C63.5,38.4,67.9,33.9,72.3,29.3z"/>
		<path class="st0" d="M62.1,67.4c-1.5-6.2-3.1-12.3-4.6-18.5c5.9,1.6,11.8,3.2,17.8,4.8C70.9,58.3,66.5,62.8,62.1,67.4z"/>
		<path class="st0" d="M42.9,71.8c1.9,0.5,3.8,1,5.7,1.5c2.3,0.6,4.5,1.3,6.9,1.8c0.1,0,0.1,0.1,0.2,0.1c0.4,0.1,0.9,0.1,1.1,0.3
			c0.2,0.3-0.1,0.7-0.2,1.1c-0.6,2.4-1.3,4.9-2,7.4c-3.9-4.1-7.8-8.1-11.7-12.2C42.8,71.9,42.9,71.8,42.9,71.8z"/>
		<path class="st0" d="M76.8,80.9c-5.5,1.6-10.9,3.1-16.4,4.7c-0.1-0.6,0.2-1,0.4-1.6c0.6-2.2,1.2-4.4,1.8-6.6
			c0.1-0.5,0.3-0.4,0.6-0.3c1.8,0.5,3.6,1.1,5.5,1.5c2.7,0.7,5.4,1.4,8.1,2.1C76.7,80.8,76.7,80.9,76.8,80.9z"/>
		<path class="st0" d="M63.6,29.7c-0.6,0.6-1.2,1.3-1.8,1.9c-1.9,1.9-3.8,3.9-5.7,5.8c-0.8,0.9-1.7,1.7-2.5,2.6
			c-0.2,0.3-0.4,0.2-0.6,0c-1.8-1.8-3.6-3.7-5.4-5.5C47.2,33.9,47.9,34,48,34c2.7-0.8,5.5-1.5,8.2-2.3c2.3-0.7,4.6-1.4,7-2
			c0.1,0,0.2,0,0.4,0C63.6,29.6,63.6,29.6,63.6,29.7z"/>
		<path class="st0" d="M79.8,33.9c1.7,1.8,3.5,3.6,5.2,5.4c1.3,1.4,2.7,2.7,4,4.1c0.8,0.9,1.6,1.6,2.5,2.6c-0.9,0.3-1.8,0.5-2.7,0.8
			c-1.6,0.5-3.2,0.9-4.9,1.4c-0.5,0.2-0.7,0.2-0.9-0.4c-1.1-4.5-2.2-8.9-3.4-13.4c0-0.1,0-0.2,0-0.4C79.7,33.9,79.7,33.9,79.8,33.9z
			"/>
		<path class="st0" d="M38.8,55.3c1.5-5.6,3-11.1,4.5-16.7c1.5,1.6,2.9,3,4.4,4.5c0.4,0.4,0.8,0.9,1.2,1.3c0.3,0.3,0.2,0.4,0,0.7
			c-2.3,2.3-4.6,4.7-6.8,7c-0.9,0.9-1.8,1.9-2.7,2.8C39.1,55,39,55.2,38.8,55.3z"/>
		<path class="st0" d="M88.3,68.8c-0.5-2.2-1-4.3-1.6-6.3c-0.7-2.6-1.3-5.2-2-7.8c-0.1-0.2-0.1-0.5,0.3-0.5c2.5-0.7,5-1.4,7.5-2.1
			c0.2-0.1,0.4-0.2,0.3,0.2c-0.6,2.3-1.2,4.5-1.8,6.8c-0.6,2.3-1.2,4.6-1.9,6.8C88.8,66.8,88.6,67.7,88.3,68.8z"/>
		<path class="st0" d="M79.7,34c-0.1,0-0.1-0.1-0.1-0.2c0.1,0,0.1,0.1,0.2,0.1C79.7,33.9,79.7,33.9,79.7,34z"/>
		<path class="st0" d="M63.5,29.6c0-0.1,0.1-0.1,0.2-0.1c0,0.1-0.1,0.1-0.1,0.2C63.6,29.6,63.6,29.6,63.5,29.6z"/>
		<path class="st0" d="M42.8,71.9c0-0.1-0.1-0.1-0.1-0.2c0.1,0,0.2,0,0.2,0.1C42.9,71.8,42.8,71.9,42.8,71.9z"/>
		<path class="st0" d="M321.1,57.3c0,1.7,0,3.4,0,5.1c0,1.2-0.1,2.4-0.7,3.5c-0.9,2-2.5,3.1-4.5,3.5c-1.7,0.4-3.4,0.2-5-0.5
			c-2.3-1.1-3.6-2.9-4.2-5.3c-0.7-2.9-0.7-5.9,0.3-8.8c0.8-2.3,2.4-4,4.8-4.6c2.1-0.6,4.3-0.5,6.2,0.8c2,1.3,2.9,3.3,3,5.7
			c0,0.1,0.1,0.2,0,0.4C321.1,57.1,320.9,57.2,321.1,57.3z"/>
		<path class="st0" d="M320.9,72.7c0.1,0,0.1-0.1,0.2-0.1c0,0.1,0,0.2-0.1,0.2C320.9,72.8,320.9,72.7,320.9,72.7z"/>
		<path class="st0" d="M360.8,46.9c0-1.9,0-3.8,0-5.7c0-0.3,0-0.4,0.4-0.4c3,0,5.9,0,8.9,0c1.6,0,3.1,0.4,4.3,1.5
			c1,0.8,1.5,2,1.6,3.3c0.2,1.7,0.1,3.3-0.7,4.7c-0.9,1.6-2.5,2.2-4.2,2.5c-1.8,0.3-3.7,0.1-5.5,0.1c-1.4,0-2.8,0-4.1,0
			c-0.5,0-0.6,0-0.6-0.5C360.8,50.6,360.8,48.8,360.8,46.9C360.8,46.9,360.8,46.9,360.8,46.9z"/>
		<path class="st0" d="M540.2,69.5c-3,0.1-5.4-1.7-6.4-4.4c-0.8-2.2-1-4.4-0.8-6.7c0.1-1.3,0.2-2.6,0.7-3.9c0.9-2.5,2.5-4.1,5.2-4.5
			c2-0.3,3.9-0.1,5.5,1.1c1.5,1.1,2.4,2.7,2.6,4.6c0.2,2,0,4,0.1,6c0,1,0,2-0.3,3c-0.7,2.2-2,3.7-4.3,4.4
			C541.7,69.4,541,69.5,540.2,69.5z"/>
		<path class="st0" d="M547.4,72.7c0.1,0,0.1-0.1,0.2-0.1c0,0.1,0,0.2-0.1,0.2C547.5,72.8,547.5,72.7,547.4,72.7z"/>
		<path class="st0" d="M403.2,56.2c-2.2,0-4.4,0-6.6,0c-0.3,0-0.3,0-0.3-0.3c0.3-2.5,1.5-4.3,3.6-5.5c1.1-0.6,2.4-0.8,3.8-0.7
			c0.9,0.1,1.8,0.2,2.6,0.6c1.9,0.8,3,2.3,3.6,4.2c0.1,0.4,0.2,0.9,0.3,1.4c0,0.3-0.1,0.4-0.3,0.4C407.6,56.2,405.4,56.2,403.2,56.2
			C403.2,56.2,403.2,56.2,403.2,56.2z"/>
		<path class="st0" d="M489.7,59.6c0,2,0.1,4,0,6c-0.1,1.4-0.9,2.4-2,3.1c-1.8,1.1-3.7,1.2-5.8,1.1c-0.8,0-1.6-0.2-2.3-0.5
			c-2-0.8-2.2-3.5-0.8-4.9c0.8-0.8,1.8-1.2,2.9-1.5c2.3-0.7,4.6-1.2,6.8-2.2c0.6-0.3,1-0.6,1.2-1.2
			C489.6,59.5,489.7,59.6,489.7,59.6z"/>
		<path class="st0" d="M198.6,59.6c0,2,0.1,4,0,6c-0.1,1.4-0.9,2.4-2,3.1c-1.8,1.1-3.7,1.2-5.8,1.1c-0.8,0-1.6-0.2-2.3-0.5
			c-2-0.8-2.2-3.5-0.8-4.9c0.8-0.8,1.8-1.2,2.9-1.5c2.3-0.7,4.7-1.2,6.9-2.3C198,60.4,198.3,60,198.6,59.6z"/>
	</g>
</g>
</svg>
