<svg xmlns="http://www.w3.org/2000/svg" xmlns:xlink="http://www.w3.org/1999/xlink" width="77.813" height="65.825" viewBox="0 0 20.588 17.416"><defs><linearGradient id="a" x1="675.27" x2="707.74" y1="88.3" y2="88.3" gradientUnits="userSpaceOnUse" gradientTransform="translate(-179.346 261.286) scale(.26458)"><stop stop-color="#ff4081" offset="0" stop-opacity=".941"/><stop stop-color="#131313" offset="1"/></linearGradient><linearGradient id="b" gradientUnits="userSpaceOnUse" gradientTransform="matrix(.71308 0 0 .71691 -280.606 -94.817)" x1="396.64" y1="546.11" x2="394.41" y2="538.61"><stop stop-color="#b7d7e1"/><stop offset="1" stop-color="#fff"/></linearGradient><linearGradient id="d" gradientUnits="userSpaceOnUse" gradientTransform="matrix(.45111 0 0 .45353 -179.316 50.01)" x1="393.83" y1="549.46" x2="390.45" y2="542.88"><stop stop-color="#c3e6ee"/><stop offset="1" stop-color="#fff"/></linearGradient><linearGradient id="e" gradientUnits="userSpaceOnUse" gradientTransform="matrix(-.59937 0 0 .6026 245.861 -30.678)" x1="393.83" y1="549.46" x2="395.79" y2="542.83"><stop stop-color="#c8e1e8"/><stop offset="1" stop-color="#fff"/></linearGradient><linearGradient xlink:href="#a" id="c" gradientUnits="userSpaceOnUse" gradientTransform="translate(-179.346 261.286) scale(.26458)" x1="675.27" y1="88.3" x2="707.74" y2="88.3"/></defs><path d="M-1.19 292.972a1.754 1.754 0 00-1.087-.376c-.963 0-1.747.777-1.772 1.746a2.653 2.653 0 00-1.703 2.485c0 1.343.988 2.454 2.27 2.629v.024h9.077v-.004c1.266-.074 2.27-1.136 2.27-2.434a2.43 2.43 0 00-2.136-2.423c.005-.076.008-.153.008-.231 0-1.94-1.62-3.514-3.617-3.514-1.478 0-2.749.862-3.31 2.097" fill="url(#b)" stroke-width=".343" transform="translate(5.752 -283.326)"/><g transform="translate(6.547 -283.304)"><path class="st9" fill="#567b03" d="M-1.707 294.65l.132-1.561.635 1.35-.132 1.56z"/><path class="st10" fill="#231815" d="M-1.707 294.65l.132-1.561.635 1.35-.132 1.56z"/><g class="st11"><path class="st9" d="M-1.84 294.941l-.635-1.35c.08-.502 1.826-9.948 1.8-10.027l.634 1.35c.053.105-1.693 9.55-1.799 10.027" fill="#567b03"/><path class="st10" d="M-1.84 294.941l-.635-1.35c.08-.502 1.826-9.948 1.8-10.027l.634 1.35c.053.105-1.693 9.55-1.799 10.027" fill="#580024" fill-opacity=".941"/></g><path class="st12" d="M9.696 294.544l-.9-.45.133 1.561c-1.456.133-5 .53-5 1.958 0-1.428-3.546-1.587-5.001-1.614l.132-1.56-.9.528c.08-.502 1.822-9.989 1.796-10.068.529.926 2.729 1.126 3.972 1.073 1.244-.053 3.44-.344 3.969-1.297 0 .08 1.72 9.393 1.799 9.87z" fill="#ff4081" stroke-width=".265"/><path class="st13" d="M-.04 284.94l-.636-1.35c.53.927 2.726 1.085 3.97 1.032 1.243-.052 3.439-.344 3.968-1.296l.635 1.35c-.53.978-2.725 1.27-3.969 1.296-1.243.053-3.44-.106-3.969-1.032z" fill="url(#c)" stroke-width=".265"/><path class="st6" d="M5.727 286.898a1.83 1.83 0 00-1.825 1.825c0-1.005-.82-1.825-1.8-1.825-.978 0-1.799.82-1.799 1.825 0 1.006.82 1.826 1.8 1.826.502 0 .952-.212 1.296-.53l.53 1.694.528-1.693c.318.344.794.529 1.297.529a1.83 1.83 0 001.825-1.826 1.852 1.852 0 00-1.852-1.825z" fill="#fff" stroke-width=".265"/><g transform="translate(-179.32 261.26) scale(.26458)" fill="#231815"><circle class="st10" cx="699.4" cy="103.7" r="4.1"/><circle class="st10" cx="685.7" cy="103.7" r="4.1"/></g><g fill="#fff"><path class="st6" d="M5.807 293.724l-.873.873-.874-.873a.161.161 0 00-.211 0l-.873.873-.873-.873a.161.161 0 00-.212 0 .161.161 0 000 .212l.979.979a.161.161 0 00.211 0l.874-.874.873.874a.2.2 0 00.106.052c.052 0 .079-.026.105-.052l.98-.98a.161.161 0 000-.211.161.161 0 00-.212 0zM6.997 292.057a.161.161 0 00-.211 0l-.874.873-.873-.873a.161.161 0 00-.211 0l-.873.873-.874-.873a.161.161 0 00-.211 0l-.873.873-.873-.873a.161.161 0 00-.212 0 .161.161 0 000 .212l.979.979a.161.161 0 00.212 0l.873-.873.873.873a.2.2 0 00.106.053c.052 0 .079-.027.105-.053l.874-.873.873.873a.161.161 0 00.211 0l.98-.98c.052-.052.052-.132 0-.21z"/></g><circle class="st16" cx="5.727" cy="288.697" r="1.587" fill="none" stroke-width=".265"/></g><path d="M-2.551 295.333a1.11 1.11 0 00-.687-.238c-.61 0-1.106.492-1.122 1.104a1.679 1.679 0 00-1.077 1.572c0 .85.625 1.553 1.436 1.664v.015h5.743v-.003a1.535 1.535 0 001.435-1.54c0-.792-.59-1.445-1.35-1.533.002-.048.004-.097.004-.146 0-1.228-1.024-2.223-2.288-2.223-.935 0-1.739.546-2.094 1.327" fill="url(#d)" stroke-width=".217" transform="translate(5.752 -283.326)"/><path d="M11.003 295.271c.252-.198.57-.315.913-.315.81 0 1.469.653 1.49 1.467a2.229 2.229 0 011.43 2.089c0 1.129-.83 2.063-1.907 2.21v.02H5.3v-.004a2.04 2.04 0 01-1.908-2.046c0-1.052.785-1.92 1.795-2.036a2.972 2.972 0 01-.007-.194c0-1.631 1.361-2.954 3.04-2.954 1.243 0 2.312.725 2.783 1.763" fill="url(#e)" stroke-width=".282" transform="translate(5.752 -283.326)"/></svg>