<svg width="148" height="52" viewBox="0 0 148 52" fill="none" xmlns="http://www.w3.org/2000/svg">
<path d="M50.7144 43.1982L50.7803 43.6377L50.8682 43.1616L52.4868 37.0752H53.168L54.772 43.1104L54.8892 43.7329L54.9844 43.1763L56.354 37.0752H57.189L55.248 45H54.5669L52.8457 38.7012L52.8091 38.5107L52.7798 38.7085L51.0879 45H50.3994L48.4731 37.0752H49.3008L50.7144 43.1982ZM58.522 40.6348C58.522 39.4922 58.7808 38.5889 59.2983 37.9248C59.8159 37.2607 60.5215 36.9287 61.415 36.9287C62.3135 36.9287 63.019 37.2559 63.5317 37.9102C64.0493 38.5645 64.3105 39.4653 64.3154 40.6128V41.4551C64.3154 42.6172 64.0542 43.5229 63.5317 44.1724C63.0142 44.8218 62.3135 45.1465 61.4297 45.1465C60.5459 45.1465 59.8452 44.8291 59.3276 44.1943C58.8101 43.5596 58.5415 42.6855 58.522 41.5723V40.6348ZM59.3423 41.4551C59.3423 42.3682 59.5254 43.0859 59.8916 43.6084C60.2627 44.1309 60.7754 44.3921 61.4297 44.3921C62.0986 44.3921 62.6089 44.1406 62.9604 43.6377C63.3169 43.1348 63.4976 42.4146 63.5024 41.4771V40.6348C63.5024 39.7217 63.3169 39.0039 62.9458 38.4814C62.5747 37.9541 62.0645 37.6904 61.415 37.6904C60.7852 37.6904 60.2847 37.9468 59.9136 38.4595C59.5425 38.9722 59.3521 39.6777 59.3423 40.5762V41.4551ZM69.3032 37.8369C69.1079 37.8027 68.937 37.7856 68.7905 37.7856C68.3413 37.7856 67.9629 37.9395 67.6553 38.2471C67.3525 38.5547 67.1377 38.9819 67.0107 39.5288V45H66.1978V37.0752H66.9961L67.0107 38.2617C67.3965 37.373 68.002 36.9287 68.8271 36.9287C69.042 36.9287 69.2056 36.9604 69.3179 37.0239L69.3032 37.8369ZM72.3867 41.0376L71.5591 41.9604V45H70.7388V33.75H71.5591V40.9058L72.2402 40.0415L74.6938 37.0752H75.7046L72.9214 40.4224L75.9683 45H75.0015L72.3867 41.0376ZM82.2817 43.1982L82.3477 43.6377L82.4355 43.1616L84.0542 37.0752H84.7354L86.3394 43.1104L86.4565 43.7329L86.5518 43.1763L87.9214 37.0752H88.7563L86.8154 45H86.1343L84.4131 38.7012L84.3765 38.5107L84.3472 38.7085L82.6553 45H81.9668L80.0405 37.0752H80.8682L82.2817 43.1982ZM91.3052 45H90.4849V37.0752H91.3052V45ZM90.3677 34.79C90.3677 34.624 90.4141 34.4824 90.5068 34.3652C90.5996 34.248 90.7314 34.1895 90.9023 34.1895C91.0732 34.1895 91.2051 34.248 91.2979 34.3652C91.3955 34.4824 91.4443 34.624 91.4443 34.79C91.4443 34.9561 91.3955 35.0977 91.2979 35.2148C91.2051 35.3271 91.0732 35.3833 90.9023 35.3833C90.7314 35.3833 90.5996 35.3271 90.5068 35.2148C90.4141 35.0977 90.3677 34.9561 90.3677 34.79ZM94.7842 35.0537V37.0752H96.1392V37.8076H94.7842V43.0737C94.7842 43.5083 94.8477 43.833 94.9746 44.0479C95.1064 44.2578 95.3237 44.3628 95.6265 44.3628C95.7583 44.3628 95.9536 44.3384 96.2124 44.2896L96.2344 45.022C96.0488 45.105 95.7827 45.1465 95.436 45.1465C94.4839 45.1465 93.9956 44.4922 93.9712 43.1836V37.8076H92.748V37.0752H93.9712V35.0537H94.7842ZM98.7246 38.3203C98.959 37.8955 99.2544 37.5586 99.6108 37.3096C99.9722 37.0557 100.385 36.9287 100.849 36.9287C102.23 36.9287 102.938 37.8491 102.973 39.6899V45H102.167V39.7778C102.162 39.0698 102.038 38.5474 101.793 38.2104C101.549 37.8735 101.166 37.7051 100.644 37.7051C100.219 37.7051 99.8354 37.8662 99.4937 38.1885C99.1567 38.5059 98.9004 38.9429 98.7246 39.4995V45H97.9116V33.75H98.7246V38.3203ZM112.692 45C112.619 44.7461 112.57 44.3799 112.545 43.9014C112.301 44.2969 111.986 44.6045 111.601 44.8242C111.22 45.0391 110.805 45.1465 110.355 45.1465C109.672 45.1465 109.14 44.9536 108.759 44.5679C108.378 44.1821 108.188 43.6328 108.188 42.9199C108.188 42.1436 108.451 41.5283 108.979 41.0742C109.511 40.6201 110.243 40.3906 111.176 40.3857H112.538V39.2798C112.538 38.7134 112.396 38.3081 112.113 38.064C111.835 37.8149 111.425 37.6904 110.883 37.6904C110.38 37.6904 109.967 37.8369 109.645 38.1299C109.323 38.4229 109.162 38.8013 109.162 39.2651L108.349 39.2578C108.349 38.6084 108.593 38.0591 109.081 37.6099C109.569 37.1558 110.182 36.9287 110.919 36.9287C111.715 36.9287 112.318 37.1289 112.729 37.5293C113.139 37.9297 113.344 38.5132 113.344 39.2798V43.1689C113.344 43.9453 113.415 44.5264 113.556 44.9121V45H112.692ZM110.458 44.3628C110.937 44.3628 111.359 44.2383 111.725 43.9893C112.096 43.7402 112.367 43.4082 112.538 42.9932V41.0669H111.249C110.507 41.0767 109.948 41.2427 109.572 41.5649C109.196 41.8823 109.008 42.312 109.008 42.854C109.008 43.8599 109.491 44.3628 110.458 44.3628ZM121.034 43.7256L122.982 37.0752H123.817L121.349 45H120.705L118.222 37.0752H119.057L121.034 43.7256ZM126.212 45H125.392V37.0752H126.212V45ZM125.275 34.79C125.275 34.624 125.321 34.4824 125.414 34.3652C125.507 34.248 125.639 34.1895 125.81 34.1895C125.98 34.1895 126.112 34.248 126.205 34.3652C126.303 34.4824 126.352 34.624 126.352 34.79C126.352 34.9561 126.303 35.0977 126.205 35.2148C126.112 35.3271 125.98 35.3833 125.81 35.3833C125.639 35.3833 125.507 35.3271 125.414 35.2148C125.321 35.0977 125.275 34.9561 125.275 34.79ZM131.083 45.1465C130.15 45.1465 129.42 44.8413 128.893 44.231C128.366 43.6206 128.097 42.7515 128.087 41.6235V40.6567C128.087 39.4946 128.341 38.584 128.849 37.9248C129.357 37.2607 130.055 36.9287 130.944 36.9287C131.803 36.9287 132.458 37.2095 132.907 37.771C133.361 38.3325 133.593 39.1919 133.603 40.3491V41.1108H128.893V41.5576C128.893 42.4658 129.086 43.1665 129.472 43.6597C129.862 44.1528 130.412 44.3994 131.12 44.3994C131.901 44.3994 132.533 44.1138 133.017 43.5425L133.441 44.0845C132.924 44.7925 132.138 45.1465 131.083 45.1465ZM130.944 37.6904C130.304 37.6904 129.811 37.9175 129.464 38.3716C129.123 38.8208 128.935 39.48 128.9 40.3491H132.79V40.1367C132.75 38.5059 132.135 37.6904 130.944 37.6904ZM137.008 43.1982L137.074 43.6377L137.162 43.1616L138.781 37.0752H139.462L141.066 43.1104L141.183 43.7329L141.278 43.1763L142.648 37.0752H143.483L141.542 45H140.861L139.14 38.7012L139.103 38.5107L139.074 38.7085L137.382 45H136.693L134.767 37.0752H135.595L137.008 43.1982Z" fill="#4F4F4F"/>
<path d="M14.1634 20.75C14.1634 22.4333 13.5467 23.7583 12.3134 24.725C11.08 25.675 9.50505 26.15 7.58838 26.15C6.07171 26.15 4.60505 25.7333 3.18838 24.9C2.48838 24.4667 1.91338 23.8583 1.46338 23.075C1.01338 22.275 0.788379 21.3667 0.788379 20.35L3.93838 20.2C3.93838 21.1 4.32171 21.8 5.08838 22.3C5.85505 22.8 6.70505 23.05 7.63838 23.05C9.72171 23.05 10.7634 22.3167 10.7634 20.85C10.7634 19.65 10.055 18.9417 8.63838 18.725L5.73838 18.425C4.28838 18.2083 3.13838 17.6917 2.28838 16.875C1.43838 16.0583 1.01338 14.8833 1.01338 13.35C1.01338 11.8167 1.62171 10.55 2.83838 9.55C4.05505 8.55 5.58838 8.05 7.43838 8.05C9.30505 8.05 10.805 8.525 11.9384 9.475C13.0717 10.4083 13.6384 11.6167 13.6384 13.1L10.5384 13.25C10.255 11.8 9.28005 11.075 7.61338 11.075C6.59671 11.075 5.79671 11.2917 5.21338 11.725C4.64671 12.1583 4.36338 12.675 4.36338 13.275C4.36338 13.8583 4.57171 14.325 4.98838 14.675C5.40505 15.0083 5.92171 15.2167 6.53838 15.3L9.38838 15.6C12.5717 16.0333 14.1634 17.75 14.1634 20.75ZM28.5089 11.3H23.7339V26H20.2589V11.3H15.5089V8.2H28.5089V11.3ZM44.6911 26H40.6661L37.1911 19.4H34.6911V26H31.2161V12.025C31.2161 10.6917 31.5244 9.725 32.1411 9.125C32.7578 8.50833 33.7911 8.2 35.2411 8.2H38.1911C39.9578 8.2 41.3578 8.74167 42.3911 9.825C43.4411 10.8917 43.9661 12.25 43.9661 13.9C43.9661 15.1 43.6494 16.1417 43.0161 17.025C42.3994 17.8917 41.6328 18.4917 40.7161 18.825L44.6911 26ZM37.9661 16.5C38.6994 16.5 39.2994 16.25 39.7661 15.75C40.2494 15.2333 40.4911 14.6 40.4911 13.85C40.4911 13.0833 40.2578 12.4667 39.7911 12C39.3411 11.5333 38.7328 11.3 37.9661 11.3H36.2411C35.2078 11.3 34.6911 11.825 34.6911 12.875V16.5H37.9661ZM60.6235 16.275V17.625C60.6235 20.6083 60.0569 22.775 58.9235 24.125C57.8069 25.475 56.0069 26.15 53.5235 26.15C51.0402 26.15 49.2402 25.475 48.1235 24.125C47.0235 22.775 46.4735 20.5833 46.4735 17.55V16.25C46.4735 13.4833 47.0319 11.425 48.1485 10.075C49.2819 8.725 51.0652 8.05 53.4985 8.05C55.9485 8.05 57.7485 8.73333 58.8985 10.1C60.0485 11.4667 60.6235 13.525 60.6235 16.275ZM57.1485 17.55V16.625C57.1485 15.025 56.9485 13.75 56.5485 12.8C56.0819 11.7 55.0819 11.15 53.5485 11.15C51.9985 11.15 50.9902 11.7 50.5235 12.8C50.1402 13.7 49.9485 14.975 49.9485 16.625V17.55C49.9485 19.7 50.2485 21.15 50.8485 21.9C51.0819 22.2167 51.4235 22.4917 51.8735 22.725C52.3402 22.9417 52.8902 23.05 53.5235 23.05C54.1735 23.05 54.7235 22.9417 55.1735 22.725C55.6235 22.5083 55.9735 22.2417 56.2235 21.925C56.4735 21.6083 56.6652 21.1917 56.7985 20.675C57.0319 19.8583 57.1485 18.8167 57.1485 17.55ZM74.6374 26H69.3374C67.3374 26 65.8874 25.6167 64.9874 24.85C64.1041 24.0667 63.6624 22.8 63.6624 21.05V8.2H67.1374V21.05C67.1374 21.75 67.2957 22.2333 67.6124 22.5C67.9291 22.7667 68.5041 22.9 69.3374 22.9H74.6374V26ZM88.3825 26H83.0825C81.0825 26 79.6325 25.6167 78.7325 24.85C77.8492 24.0667 77.4075 22.8 77.4075 21.05V8.2H80.8825V21.05C80.8825 21.75 81.0409 22.2333 81.3575 22.5C81.6742 22.7667 82.2492 22.9 83.0825 22.9H88.3825V26ZM101.328 11.725L95.9026 27.6C95.6526 28.3167 95.3276 28.875 94.9276 29.275C94.261 29.9417 93.3276 30.275 92.1276 30.275H90.6026V27.35H91.6026C92.0693 27.35 92.411 27.2667 92.6276 27.1C92.861 26.95 93.061 26.6417 93.2276 26.175L93.4776 25.475L89.1776 11.725H92.6026L95.1526 21.65L97.9026 11.725H101.328ZM99.2276 7.325C99.5276 7.55833 99.6776 8 99.6776 8.65C99.6776 9.3 99.5276 9.74167 99.2276 9.975C98.9443 10.2083 98.536 10.325 98.0026 10.325C97.4693 10.325 97.0526 10.2083 96.7526 9.975C96.4693 9.74167 96.3276 9.3 96.3276 8.65C96.3276 8 96.4693 7.55833 96.7526 7.325C97.0526 7.09167 97.4693 6.975 98.0026 6.975C98.536 6.975 98.9443 7.09167 99.2276 7.325ZM93.5776 7.325C93.8776 7.55833 94.0276 8 94.0276 8.65C94.0276 9.3 93.8776 9.74167 93.5776 9.975C93.2943 10.2083 92.886 10.325 92.3526 10.325C91.8193 10.325 91.4026 10.2083 91.1026 9.975C90.8193 9.74167 90.6776 9.3 90.6776 8.65C90.6776 8 90.8193 7.55833 91.1026 7.325C91.4026 7.09167 91.8193 6.975 92.3526 6.975C92.886 6.975 93.2943 7.09167 93.5776 7.325ZM117.381 8.2V24.2C117.381 24.75 117.214 25.225 116.881 25.625C116.548 26.0083 116.156 26.2 115.706 26.2C114.556 26.2 113.614 25.5333 112.881 24.2L106.731 14.575V26H103.256V8.2H106.606L113.906 19.85V8.2H117.381Z" fill="#4F4F4F"/>
<path d="M89.7241 26.095H73.7397V27.4929C73.7397 27.7401 73.8418 27.9771 74.0235 28.1519C74.2052 28.3267 74.4516 28.4249 74.7085 28.4249H88.7554C89.0123 28.4249 89.2587 28.3267 89.4404 28.1519C89.6221 27.9771 89.7241 27.7401 89.7241 27.4929V26.095Z" fill="#AFAFAF"/>
<path d="M88.4322 22.3671H84.9882C83.6296 22.3671 83.0202 21.324 83.0202 20.0372V19.1052H76.1322V26.0949H88.4322V22.3671Z" fill="#B34840"/>
<path d="M78.9531 24.2309C79.7557 24.2309 80.4062 23.6051 80.4062 22.833C80.4062 22.0609 79.7557 21.4351 78.9531 21.4351C78.1506 21.4351 77.5 22.0609 77.5 22.833C77.5 23.6051 78.1506 24.2309 78.9531 24.2309Z" fill="#C9C9C9"/>
<path d="M75.1635 0.932007V18.6393C75.1635 18.7629 75.2145 18.8814 75.3053 18.9688C75.3962 19.0562 75.5194 19.1053 75.6478 19.1053H83.3978C83.5263 19.1053 83.6495 19.0562 83.7403 18.9688C83.8312 18.8814 83.8822 18.7629 83.8822 18.6393V0.932007H75.1635Z" fill="#457399"/>
<path d="M79.8906 26.095H63.4219V27.4929C63.4219 27.7401 63.5239 27.9771 63.7056 28.1519C63.8873 28.3267 64.1337 28.4249 64.3906 28.4249H78.9219C79.1788 28.4249 79.4252 28.3267 79.6069 28.1519C79.7886 27.9771 79.8906 27.7401 79.8906 27.4929V26.095Z" fill="#D6D6D6"/>
<path d="M76.0156 22.3671H72.625C72.307 22.3671 71.992 22.3068 71.6982 22.1897C71.4044 22.0726 71.1374 21.901 70.9125 21.6847C70.6876 21.4683 70.5092 21.2115 70.3875 20.9288C70.2658 20.6461 70.2031 20.3432 70.2031 20.0372V19.1052H63.4219V26.0949H76.0156V22.3671Z" fill="#CC5249"/>
<path d="M66.8125 24.2309C67.615 24.2309 68.2656 23.6051 68.2656 22.833C68.2656 22.0609 67.615 21.4351 66.8125 21.4351C66.01 21.4351 65.3594 22.0609 65.3594 22.833C65.3594 23.6051 66.01 24.2309 66.8125 24.2309Z" fill="#EFEFEF"/>
<path d="M62.4531 0.932007V18.6393C62.4531 18.7629 62.5042 18.8814 62.595 18.9688C62.6858 19.0562 62.809 19.1053 62.9375 19.1053H70.6875C70.816 19.1053 70.9392 19.0562 71.03 18.9688C71.1208 18.8814 71.1719 18.7629 71.1719 18.6393V0.932007H62.4531Z" fill="#5187B3"/>
</svg>
