<svg viewBox="0 0 1200 200" xmlns="http://www.w3.org/2000/svg" xmlns:xlink="http://www.w3.org/1999/xlink"><linearGradient id="a" gradientUnits="userSpaceOnUse" x1="4.53" x2="149.2" y1="100" y2="100"><stop offset="0" stop-color="#fbb55f"/><stop offset="0" stop-color="#fbb45e"/><stop offset=".09" stop-color="#f5a648"/><stop offset=".19" stop-color="#f09b37"/><stop offset=".32" stop-color="#ed942c"/><stop offset=".49" stop-color="#eb8f25"/><stop offset=".98" stop-color="#eb8e23"/></linearGradient><linearGradient id="b" gradientUnits="userSpaceOnUse" x1="4.53" x2="149.2" y1="100" y2="100"><stop offset="0" stop-color="#fbb55f"/><stop offset=".02" stop-color="#fbb55e"/><stop offset=".32" stop-color="#f7ac50"/><stop offset=".89" stop-color="#ed932b"/><stop offset="1" stop-color="#eb8e23"/></linearGradient><linearGradient id="c" gradientUnits="userSpaceOnUse" x1="232.92" x2="232.92" y1="25.2" y2="151.68"><stop offset="0" stop-color="#333"/><stop offset=".33" stop-color="#262626"/><stop offset=".93" stop-color="#040404"/><stop offset="1"/></linearGradient><linearGradient id="d" x1="324.09" x2="324.09" xlink:href="#c" y1="68.04" y2="150.66"/><linearGradient id="e" x1="413.28" x2="413.28" xlink:href="#c" y1="66" y2="196.56"/><linearGradient id="f" x1="512.2" x2="512.2" xlink:href="#c" y1="66" y2="150.66"/><linearGradient id="g" x1="590.18" x2="590.18" xlink:href="#c" y1="66" y2="148.62"/><linearGradient id="h" x1="656.8" x2="656.8" xlink:href="#c" y1="66.17" y2="150.66"/><linearGradient id="i" x1="734.01" x2="734.01" xlink:href="#c" y1="20.1" y2="148.62"/><linearGradient id="j" x1="821.19" x2="821.19" xlink:href="#c" y1="66" y2="150.66"/><linearGradient id="k" x1="897.72" x2="897.72" xlink:href="#c" y1="66" y2="148.62"/><linearGradient id="l" x1="967.08" x2="967.08" xlink:href="#c" y1="66" y2="189.42"/><linearGradient id="m" x1="1042.28" x2="1042.28" xlink:href="#c" y1="27.92" y2="148.62"/><linearGradient id="n" x1="1090.84" x2="1090.84" xlink:href="#c" y1="18.05" y2="148.62"/><linearGradient id="o" x1="1147.62" x2="1147.62" xlink:href="#c" y1="68.04" y2="189.42"/><path d="m0 0h1200v200h-1200z" fill="none"/><path d="m149.2 79.76-66.32 78.63-5.46 6.47-29.64 35.14 8.66-34.79 11.2-44.98h-63.11l66.31-78.63 35.1-41.6-19.85 79.76z" fill="url(#a)"/><path d="m149.2 79.76-63.2 74.88-3.15 3.75 4.42-17.76a16.43 16.43 0 0 0 -16-20.4h-66.74l66.31-78.63-4.42 17.76a16.43 16.43 0 0 0 15.94 20.4z" fill="url(#b)"/><path d="m201.64 123.46a21.29 21.29 0 0 0 9.94 9.77 31.6 31.6 0 0 0 13.86 3.15 30.58 30.58 0 0 0 16.57-5.1 27 27 0 0 0 6.64-6.29 18.34 18.34 0 0 0 3.48-8.67q1-7-2.89-10.63a32.18 32.18 0 0 0 -10.11-6.12q-6.21-2.46-13.6-4.76a50.74 50.74 0 0 1 -13.44-6.37 27.87 27.87 0 0 1 -9.43-11q-3.41-6.89-1.7-18.61a33.34 33.34 0 0 1 3.82-11.22 37.84 37.84 0 0 1 8.85-10.89 49.35 49.35 0 0 1 13.85-8.24 50.37 50.37 0 0 1 19-3.31 75.49 75.49 0 0 1 9.61.59 40.65 40.65 0 0 1 8.91 2.16 29.06 29.06 0 0 1 7.73 4.25 30.7 30.7 0 0 1 6.46 6.8l-14.99 12.03a17.86 17.86 0 0 0 -7.56-7.65 24.92 24.92 0 0 0 -12.33-2.89 33 33 0 0 0 -11.56 1.78 23.81 23.81 0 0 0 -7.82 4.59 20.93 20.93 0 0 0 -4.68 6 18.83 18.83 0 0 0 -1.95 6q-1 7.65 2.81 11.73a28.11 28.11 0 0 0 10 6.63 119.65 119.65 0 0 0 13.61 4.59 54.66 54.66 0 0 1 13.51 5.69 26.43 26.43 0 0 1 9.61 9.86q3.48 6.21 1.95 17.09a42.44 42.44 0 0 1 -5.61 15.64 41.8 41.8 0 0 1 -10.54 11.73 47.26 47.26 0 0 1 -14.28 7.31 54.48 54.48 0 0 1 -16.66 2.55 55.74 55.74 0 0 1 -21.42-4 28.91 28.91 0 0 1 -14.6-12.65z" fill="url(#c)"/><path d="m352.43 148.62h-15.3l1.7-12.41h-.34a28.48 28.48 0 0 1 -11.56 10.45 36.21 36.21 0 0 1 -17 4 32.43 32.43 0 0 1 -11-1.79 21 21 0 0 1 -8.5-5.52 21.84 21.84 0 0 1 -5-9.61 36.7 36.7 0 0 1 -.51-13.85l7.33-51.89h15.3l-6.63 47.6a25.44 25.44 0 0 0 .09 9.6 14.34 14.34 0 0 0 3.14 6.46 12.57 12.57 0 0 0 5.44 3.57 20.76 20.76 0 0 0 6.8 1.11 24.85 24.85 0 0 0 16.83-6.34q7.3-6.37 9.35-20.48l5.78-41.52h15.3z" fill="url(#d)"/><path d="m382.52 68h15.3l-1.53 11.6h.34a36.79 36.79 0 0 1 13.6-10 40.47 40.47 0 0 1 16.33-3.6 39.55 39.55 0 0 1 16.49 3.23 30.25 30.25 0 0 1 11.64 9 34.21 34.21 0 0 1 6.31 13.52 46.1 46.1 0 0 1 .6 16.58 53.74 53.74 0 0 1 -5.36 16.74 48.65 48.65 0 0 1 -10.11 13.43 45.49 45.49 0 0 1 -31.45 12.16 34.12 34.12 0 0 1 -15.83-3.66 22.93 22.93 0 0 1 -10.38-9.94h-.34l-8.33 59.5h-15.3zm40.12 12.24a29.6 29.6 0 0 0 -11.3 2.12 30.86 30.86 0 0 0 -9.18 5.78 29.48 29.48 0 0 0 -6.55 8.86 37.39 37.39 0 0 0 -3.4 11.31 32.6 32.6 0 0 0 .26 11.3 20.94 20.94 0 0 0 4 8.84 19.79 19.79 0 0 0 7.56 5.78 25.81 25.81 0 0 0 10.79 2.13 29.53 29.53 0 0 0 20.41-7.91 31.52 31.52 0 0 0 6.54-8.84 35.22 35.22 0 0 0 3.48-11.3 32.43 32.43 0 0 0 -.25-11.31 20.67 20.67 0 0 0 -4.08-8.84 20.92 20.92 0 0 0 -7.57-5.78 25.3 25.3 0 0 0 -10.71-2.1z" fill="url(#e)"/><path d="m487.07 113.94a19.15 19.15 0 0 0 1 9.6 19.72 19.72 0 0 0 5 7.4 23.47 23.47 0 0 0 8 4.76 29.2 29.2 0 0 0 10 1.7 25.25 25.25 0 0 0 12.93-3.32 50.83 50.83 0 0 0 11-8.75l10.21 8.84q-15 16.49-37.92 16.49a40.68 40.68 0 0 1 -16.74-3.23 31.2 31.2 0 0 1 -11.82-8.93 33.67 33.67 0 0 1 -6.46-13.43 43.14 43.14 0 0 1 -.51-16.74 47.55 47.55 0 0 1 5.44-16.75 50.68 50.68 0 0 1 10.63-13.43 48.7 48.7 0 0 1 14.45-8.92 45.43 45.43 0 0 1 17.09-3.23q10.71 0 17.6 3.74a29.15 29.15 0 0 1 10.8 9.77 32.84 32.84 0 0 1 4.92 13.6 58.3 58.3 0 0 1 0 15.39l-.85 5.44zm50.32-12.24a31.49 31.49 0 0 0 -.34-9.35 17.77 17.77 0 0 0 -3.25-7.35 16.06 16.06 0 0 0 -6.51-5 24.86 24.86 0 0 0 -9.93-1.78 26.8 26.8 0 0 0 -10.61 2.12 32.65 32.65 0 0 0 -8.82 5.53 30.09 30.09 0 0 0 -6.25 7.56 22 22 0 0 0 -2.91 8.25z" fill="url(#f)"/><path d="m572.41 68h15.31l-1.72 12.45h.35a29 29 0 0 1 11.22-10.45 30.9 30.9 0 0 1 15-4 19.92 19.92 0 0 1 6.64 1l-3.11 16.51c-1.24-.34-2.46-.63-3.65-.85a19.24 19.24 0 0 0 -3.66-.34q-11.22 0-18 6.29t-8.67 19.55l-5.61 40.46h-15.3z" fill="url(#g)"/><path d="m682.62 89.46a25.7 25.7 0 0 0 -7.89-6.72 22.77 22.77 0 0 0 -10.73-2.29 26.74 26.74 0 0 0 -11.27 2.29 27.68 27.68 0 0 0 -8.73 6.26 32.87 32.87 0 0 0 -6 9.18 42.33 42.33 0 0 0 -3.13 10.8 27.67 27.67 0 0 0 .33 10.62 22.88 22.88 0 0 0 4.07 8.76 19.83 19.83 0 0 0 7.37 5.86 24.1 24.1 0 0 0 10.36 2.16 26.56 26.56 0 0 0 11.35-2.3 32.89 32.89 0 0 0 9.32-6.71l9.33 10.88a42.39 42.39 0 0 1 -15.22 9.52 51.41 51.41 0 0 1 -17.08 2.89 42.78 42.78 0 0 1 -16.7-3.06 31.74 31.74 0 0 1 -12-8.6 32.67 32.67 0 0 1 -6.8-13.26 42.5 42.5 0 0 1 -.68-17.08 49.33 49.33 0 0 1 5.35-17.17 47.31 47.31 0 0 1 10.54-13.43 48 48 0 0 1 14.54-8.76 48.87 48.87 0 0 1 17.68-3.14 42.4 42.4 0 0 1 16.37 3.15 31.08 31.08 0 0 1 12.67 9.61z" fill="url(#h)"/><path d="m712.5 20.1h15.3l-8.5 60.35h.34a28.51 28.51 0 0 1 11.56-10.45 36.21 36.21 0 0 1 17-4 32.71 32.71 0 0 1 10.88 1.78 21 21 0 0 1 8.59 5.53 21.9 21.9 0 0 1 5 9.6 34.9 34.9 0 0 1 .33 13.86l-7.14 51.85h-15.3l6.63-47.6a28.09 28.09 0 0 0 -.25-9.61 15 15 0 0 0 -3.05-6.41 12.11 12.11 0 0 0 -5.35-3.57 21.07 21.07 0 0 0 -6.8-1.1 27.17 27.17 0 0 0 -9.1 1.53 21.73 21.73 0 0 0 -7.82 4.84 27.62 27.62 0 0 0 -5.82 8.37 43.23 43.23 0 0 0 -3.4 12.07l-5.78 41.48h-15.3z" fill="url(#i)"/><path d="m795 77.9a51.19 51.19 0 0 1 16.19-8.9 55 55 0 0 1 17.42-3 44.16 44.16 0 0 1 15 2.21 24.63 24.63 0 0 1 9.69 6 18.67 18.67 0 0 1 4.7 8.53 27.54 27.54 0 0 1 .51 10.12l-5.76 41.14q-.68 4.25-1 7.82t-.34 6.8h-13.6c.11-2 .26-4.08.42-6.12s.43-4.08.77-6.12h-.34q-6.28 7.81-13.69 11.05a41 41 0 0 1 -16.57 3.23 34.46 34.46 0 0 1 -10.45-1.53 22 22 0 0 1 -8.25-4.59 18.17 18.17 0 0 1 -5-7.57 21.57 21.57 0 0 1 -.77-10.45 25.61 25.61 0 0 1 5.27-13.09 32.41 32.41 0 0 1 10.8-8.59 53 53 0 0 1 14.8-4.76 101.1 101.1 0 0 1 17.42-1.44h11.18l.51-3.4a14.88 14.88 0 0 0 -.25-6.12 13.64 13.64 0 0 0 -8.25-9.44 21.37 21.37 0 0 0 -8.33-1.44 33.36 33.36 0 0 0 -7.91.85 35.39 35.39 0 0 0 -6.29 2.12 33.84 33.84 0 0 0 -5.26 3q-2.48 1.69-4.85 3.23zm38.73 32a112.52 112.52 0 0 0 -11.27.59 48.47 48.47 0 0 0 -10.75 2.3 23.94 23.94 0 0 0 -8.36 4.76 12.49 12.49 0 0 0 -4.1 7.82q-1 7 3.24 10t12.29 3.06a26.44 26.44 0 0 0 11-2.13 25.13 25.13 0 0 0 7.94-5.52 25.46 25.46 0 0 0 5-7.57 30.1 30.1 0 0 0 2.28-8.21l.85-5.1z" fill="url(#j)"/><path d="m880 68h15.3l-1.7 12.41h.34a29.11 29.11 0 0 1 11.17-10.41 30.87 30.87 0 0 1 15-4 19.9 19.9 0 0 1 6.63 1l-3.06 16.49c-1.25-.34-2.46-.63-3.65-.85a19.24 19.24 0 0 0 -3.66-.34q-11.22 0-18 6.29t-8.67 19.55l-5.7 40.48h-15.3z" fill="url(#k)"/><path d="m1005.24 147.94a49.16 49.16 0 0 1 -5.53 16.74 46 46 0 0 1 -10.71 13.09 48.64 48.64 0 0 1 -15.16 8.59 54.79 54.79 0 0 1 -18.48 3.06 62.52 62.52 0 0 1 -20.78-3.23 42 42 0 0 1 -16.72-11.19l12.07-12.92a35.12 35.12 0 0 0 11.65 9.77 33.62 33.62 0 0 0 15.42 3.29 37.78 37.78 0 0 0 14.45-2.47 29 29 0 0 0 9.78-6.37 27.41 27.41 0 0 0 5.86-8.93 47.63 47.63 0 0 0 2.89-10.11l1.54-11.9h-.52a32.91 32.91 0 0 1 -13.43 10.79 40.3 40.3 0 0 1 -16.32 3.49 39.19 39.19 0 0 1 -16-3.15 32 32 0 0 1 -11.81-8.67 33.33 33.33 0 0 1 -6.72-13.09 39.55 39.55 0 0 1 -.68-16.4 50.74 50.74 0 0 1 15.3-30.09 44.33 44.33 0 0 1 14.2-9 46.33 46.33 0 0 1 17.4-3.24 34.3 34.3 0 0 1 15.39 3.57 24.14 24.14 0 0 1 10.79 10h.34l1.54-11.57h15.29zm-32.47-67.66a29.64 29.64 0 0 0 -11.3 2.12 30.86 30.86 0 0 0 -9.18 5.78 29.48 29.48 0 0 0 -6.55 8.82 37.11 37.11 0 0 0 -3.4 11.31q-1.87 12.24 4.25 19.63t18.37 7.4q12.22 0 20.4-7.4t10-19.63a32.43 32.43 0 0 0 -.23-11.31 20.67 20.67 0 0 0 -4.08-8.84 20.92 20.92 0 0 0 -7.57-5.78 25.36 25.36 0 0 0 -10.71-2.1z" fill="url(#l)"/><path d="m1036.35 68h15.3l-11.22 80.58h-15.3zm.51-28.9a12.87 12.87 0 0 1 4.42-7.91 12.26 12.26 0 0 1 8.33-3.31 9.6 9.6 0 0 1 9.69 11.22 12.88 12.88 0 0 1 -4.42 7.9 12.26 12.26 0 0 1 -8.33 3.32 9.62 9.62 0 0 1 -9.69-11.22z" fill="url(#m)"/><path d="m1075.79 81.3h-17.34l1.87-13.3h17.34l2.55-18q2.37-16.16 9.57-24.06t22.27-7.91c1.69 0 3.47.06 5.33.17a28.91 28.91 0 0 1 5.84 1l-3.57 13.61a18 18 0 0 0 -4.08-1.19 26.5 26.5 0 0 0 -4.42-.35 16.47 16.47 0 0 0 -7 1.28 11.18 11.18 0 0 0 -4.42 3.65 18.28 18.28 0 0 0 -2.63 5.7 64.74 64.74 0 0 0 -1.62 7.57l-2.48 18.53h18.15l-1.86 13.26h-18.29l-9.24 67.32h-15.3z" fill="url(#n)"/><path d="m1114.38 68h17.68l15.13 62.9h.34l31.62-62.9h16.32l-51.85 98q-2.71 5.26-5.52 9.6a35.34 35.34 0 0 1 -6.29 7.4 25.79 25.79 0 0 1 -8.08 4.76 31.43 31.43 0 0 1 -10.88 1.7 55.43 55.43 0 0 1 -6.8-.43 20.79 20.79 0 0 1 -6.29-1.78l3.57-13.94a22.24 22.24 0 0 0 9 1.87 18.69 18.69 0 0 0 6.21-.94 13.41 13.41 0 0 0 4.59-2.72 23.87 23.87 0 0 0 3.57-4.16 49 49 0 0 0 3.14-5.44l6.63-12.75z" fill="url(#o)"/></svg>