<?xml version="1.0" encoding="UTF-8" standalone="no"?>
<svg
   xmlns:dc="http://purl.org/dc/elements/1.1/"
   xmlns:cc="http://creativecommons.org/ns#"
   xmlns:rdf="http://www.w3.org/1999/02/22-rdf-syntax-ns#"
   xmlns:svg="http://www.w3.org/2000/svg"
   xmlns="http://www.w3.org/2000/svg"
   version="1.1"
   width="304"
   height="152"
   id="svg2"
   xml:space="preserve"><metadata
     id="metadata8"><rdf:RDF><cc:Work
         rdf:about=""><dc:format>image/svg+xml</dc:format><dc:type
           rdf:resource="http://purl.org/dc/dcmitype/StillImage" /><dc:title></dc:title></cc:Work></rdf:RDF></metadata><defs
     id="defs6" /><g
       transform="scale(0.5,0.5)"
       id="logo"><g
     transform="matrix(1.25,0,0,-1.25,0,151.15)"
     id="g10"><g
       transform="scale(0.1,0.1)"
       id="g12"><path
         d="m 1681.35,741.777 c 0,0 -6.46,-0.32 -16.93,-0.484 -48.22,-1.039 -191.68,-1.984 -295.67,19.328 -15.45,3.25 -30.25,6.852 -43.55,11.152 -34.5,11.075 -55.53,22.528 -78.91,40.672 0,0 -36.46,42.989 -11.88,106.602 25.37,65.332 149.4,184.343 446.59,263.883 19.67,5.28 40.39,11.69 63.75,16.48 0,0 -440.32,133.3 -1513.469,-575.637 0,0 508.844,275.098 706.778,314.02 -11.868,-11.629 -17.786,-11.148 -47.063,-61.699 0,0 -159.012,-240.918 462.034,-232.242 0,0 67.87,0.23 169.57,11.121 68.46,7.371 151.94,19.589 240.51,39.718 167.32,38.219 352.44,104.821 484.69,221.844 0,0 -171.37,-127.555 -566.45,-174.758"
         id="path14"
         style="fill:#231f20;fill-opacity:1;fill-rule:nonzero;stroke:none" /><path
         d="m 66.1953,68.4922 -66.1953,0 72.9492,203.8628 -65.83982,0 13.74222,38.442 193.9334,0 -13.746,-38.442 -61.898,0 L 66.1953,68.4922"
         id="path16"
         style="fill:#231f20;fill-opacity:1;fill-rule:nonzero;stroke:none" /><path
         d="m 325.172,121.027 c -3.938,-9.312 -8.711,-20.285 -23.652,-32.5856 -11.965,-9.9726 -35.719,-23.9375 -77.657,-23.9375 -44.718,0 -73.16,15.625 -69.609,56.1841 1.719,19.621 11.18,48.546 22.547,67.496 13.504,23.609 37.703,50.539 95.242,50.539 33.965,0 73.703,-9.313 69.633,-55.856 -1.11,-12.637 -4.524,-23.941 -9.039,-35.91 l -117.852,0 c -3.297,-9.973 -6.941,-19.949 -7.875,-30.59 -1.574,-17.9529 8.418,-26.5975 23.664,-26.5975 27.039,0 35.492,21.2815 39.481,31.2575 l 55.117,0 z m -40.063,49.203 c 1.332,3.325 4.543,12.305 5.274,20.614 1.219,13.965 -6.285,23.273 -21.188,23.273 -26,0 -37.48,-24.269 -45.441,-43.887 l 61.355,0"
         id="path18"
         style="fill:#231f20;fill-opacity:1;fill-rule:nonzero;stroke:none" /><path
         d="M 536.699,122.023 C 526.918,97.418 503.59,64.5039 439.117,64.5039 c -33.969,0 -76.972,7.6445 -72.609,57.5191 1.047,11.969 4.117,23.27 7.418,33.247 5.644,16.957 16.347,44.218 41.926,63.168 26.644,19.289 56.195,20.285 69.363,20.285 16.293,0 74.758,-1.328 70.449,-50.539 -0.293,-3.325 -0.816,-5.317 -1.508,-9.313 l -53.726,0 c 1.097,4.66 2.086,7.984 2.461,12.305 1.339,15.293 -7,22.941 -20.524,22.941 -17.328,0 -26.523,-9.976 -33.285,-19.945 -12.723,-18.621 -26.934,-58.184 -28.617,-77.473 -1.836,-20.9412 10.086,-27.2615 22.566,-27.2615 14.91,0 28.371,7.3164 38.555,32.5855 l 55.113,0"
         id="path20"
         style="fill:#231f20;fill-opacity:1;fill-rule:nonzero;stroke:none" /><path
         d="m 721.273,68.4922 -56.503,0 35.308,98.4138 c 2.75,7.645 7.231,19.285 7.902,26.934 1.106,12.629 -7.613,15.957 -15.933,15.957 -10.055,0 -20.859,-4.656 -28.402,-11.637 -7.547,-6.984 -9.833,-13.301 -15.301,-28.262 l -36.258,-101.4058 -56.152,0 83.632,234.7308 56.5,0 -31.226,-87.442 c 13.234,8.645 33.812,21.946 62.93,21.946 24.261,0 40.515,-12.305 38.445,-35.911 -0.867,-9.976 -5.442,-22.605 -9.086,-32.582 L 721.273,68.4922"
         id="path22"
         style="fill:#231f20;fill-opacity:1;fill-rule:nonzero;stroke:none" /><path
         d="m 953.848,68.4922 -166.375,0 86.683,242.3048 155.644,0 -13.71,-38.094 -90.879,0 -21.301,-59.375 86.231,0 -13.711,-38.098 -85.871,0 -24.618,-68.644 101.262,0 -13.355,-38.0938"
         id="path24"
         style="fill:#231f20;fill-opacity:1;fill-rule:nonzero;stroke:none" /><path
         d="m 1270.99,68.4922 -56.5,0 37.62,105.0628 c 2.25,5.988 5.06,14.297 5.55,19.953 0.62,6.976 -2.44,15.625 -15.61,15.625 -8.32,0 -17.68,-3.992 -24.1,-9.977 -7.13,-6.32 -9.77,-12.633 -15.64,-28.261 l -36.35,-102.4028 -56.5,0 37.16,103.7348 c 3.61,9.64 5.99,16.953 6.4,21.613 0.61,6.98 -2.1,15.625 -15.28,15.625 -7.96,0 -17.33,-3.992 -24.03,-9.313 -8.21,-6.644 -10.55,-13.629 -16.43,-29.257 l -36.35,-102.4028 -56.5,0 59.62,166.2378 56.15,0 -6.95,-19.949 c 23.33,16.957 43.95,22.946 60.59,22.946 19.41,0 35.03,-7.649 37.13,-27.266 5.61,4.656 13.06,10.637 25,16.293 14.15,7.312 29.73,10.973 42.21,10.973 9.36,0 40.66,-2.665 37.78,-35.579 -0.78,-8.98 -4.11,-19.281 -9.21,-33.91 l -35.76,-99.7458"
         id="path26"
         style="fill:#231f20;fill-opacity:1;fill-rule:nonzero;stroke:none" /><path
         d="m 1357.54,0 -56.84,0 83.98,234.73 56.85,0 -7.24,-19.281 c 9.62,6.985 30.73,22.278 59.5,22.278 12.12,0 23.3,-2.997 31.56,-11.637 10.73,-11.973 10.06,-27.598 9.3,-36.242 -1.69,-19.286 -8.14,-41.559 -18.79,-64.168 -8.5,-17.953 -29.88,-60.18 -82.21,-60.18 -30.51,0 -40.31,14.6289 -44.88,21.9414 L 1357.54,0 z m 46.34,129.336 c -3.68,-10.309 -5.07,-14.297 -5.42,-18.285 -1.25,-14.2971 11.52,-18.9494 20.19,-18.9494 19.75,0 30.65,17.6174 34.32,23.9334 14.14,22.942 24.51,58.184 25.67,71.485 2.04,23.273 -13.85,23.941 -17.32,23.941 -4.5,0 -14.66,-1.332 -30.5,-15.961 -1.89,-1.66 -3.41,-3.328 -5.3,-4.988 l -21.64,-61.176"
         id="path28"
         style="fill:#231f20;fill-opacity:1;fill-rule:nonzero;stroke:none" /><path
         d="m 1632.17,64.5039 c -45.4,0 -74.01,17.6211 -70.29,60.1801 2.56,29.257 17.87,69.488 45.44,91.429 26.82,21.282 60.22,22.61 75.12,22.61 24.26,0 48.72,-5.657 60.95,-24.274 6.76,-9.972 8.68,-23.605 7.55,-36.574 -0.85,-9.637 -3.42,-19.281 -6.35,-28.922 -19.82,-60.1796 -54.18,-84.4491 -112.42,-84.4491 z m 65.48,122.3511 c 1.19,13.629 -3.9,26.598 -21.59,26.598 -16.63,0 -26.67,-11.637 -30.92,-16.625 -15.98,-20.281 -27.62,-66.164 -28.76,-79.125 -1.36,-15.633 5.56,-27.6014 21.85,-27.6014 25.3,0 39.65,29.2574 51.89,66.1644 1.92,5.984 6.58,19.617 7.53,30.589"
         id="path30"
         style="fill:#231f20;fill-opacity:1;fill-rule:nonzero;stroke:none" /><path
         d="m 1964.25,68.4922 -62.05,0 7.25,82.7888 c 1.31,10.969 1.39,11.965 3.01,22.606 -5.39,-10.305 -7.01,-12.965 -13.09,-22.938 l -52.28,-82.4568 -62.39,0 14.55,166.2378 55.46,0 -12.89,-99.746 c -1.22,-9.968 -1.39,-11.964 -3.34,-22.273 4.17,7.977 4.17,7.977 9.48,17.289 l 63.6,104.73 47.83,0 -9.88,-97.082 c -1.34,-11.304 -1.58,-13.964 -3.55,-24.605 4.32,9.645 5.16,11.305 10.47,20.617 l 57.73,101.07 53.73,0 -103.64,-166.2378"
         id="path32"
         style="fill:#231f20;fill-opacity:1;fill-rule:nonzero;stroke:none" /><path
         d="m 2228.82,121.027 c -3.93,-9.312 -8.71,-20.285 -23.65,-32.5856 -11.96,-9.9726 -35.71,-23.9375 -77.65,-23.9375 -44.72,0 -73.16,15.625 -69.61,56.1841 1.71,19.621 11.18,48.546 22.54,67.496 13.51,23.609 37.7,50.539 95.24,50.539 33.97,0 73.71,-9.313 69.64,-55.856 -1.11,-12.637 -4.53,-23.941 -9.04,-35.91 l -117.85,0 c -3.3,-9.973 -6.95,-19.949 -7.88,-30.59 -1.57,-17.9529 8.42,-26.5975 23.67,-26.5975 27.04,0 35.48,21.2815 39.48,31.2575 l 55.11,0 z m -40.05,49.203 c 1.32,3.325 4.53,12.305 5.26,20.614 1.23,13.965 -6.28,23.273 -21.18,23.273 -26,0 -37.48,-24.269 -45.44,-43.887 l 61.36,0"
         id="path34"
         style="fill:#231f20;fill-opacity:1;fill-rule:nonzero;stroke:none" /><path
         d="m 2310.53,68.4922 -56.49,0 59.26,166.2378 56.5,0 -12.24,-32.914 c 12.49,15.957 28.1,35.911 54.45,35.911 6.58,0 9.93,-1.336 13.6,-2.997 l -15.83,-42.226 c -4.97,2.664 -10.89,6.32 -20.94,6.32 -31.88,0 -43.35,-31.918 -49.33,-48.871 l -28.98,-81.4608"
         id="path36"
         style="fill:#231f20;fill-opacity:1;fill-rule:nonzero;stroke:none" /></g></g></g></svg>