<svg width="3415" height="896" viewBox="0 0 3415 896" fill="none" xmlns="http://www.w3.org/2000/svg">
<mask id="mask0" mask-type="alpha" maskUnits="userSpaceOnUse" x="576" y="256" width="2839" height="384">
<path d="M896.697 352.764V281.464H576V352.764H690.389V632.87H782.308V352.764H896.697Z" fill="white"/>
<path d="M1193.31 427.629C1186.16 380.265 1152.97 353.782 1096.79 353.782C1071.77 353.782 1052.37 359.385 1035.51 369.57L1011 403.183V256H919.082V632.87H1011V504.531C1011 442.907 1030.92 415.915 1059 415.915C1086.58 415.915 1100.88 431.194 1102.92 457.167C1103.94 470.918 1103.94 485.687 1103.94 494.345V632.87H1195.86V479.066C1195.86 457.167 1195.35 441.379 1193.31 427.629Z" fill="white"/>
<path d="M1407.56 632.87H1497.44C1493.35 602.822 1492.33 584.488 1492.33 564.117V487.724C1492.33 470.918 1491.82 455.13 1490.8 441.379C1486.71 391.979 1457.09 353.782 1370.79 353.782C1301.85 353.782 1245.17 389.942 1244.66 453.602L1331.47 453.093C1333 429.666 1345.26 415.915 1366.71 415.915C1386.62 415.915 1397.86 428.138 1399.39 441.889C1400.41 450.546 1400.41 456.149 1400.41 461.751V465.825H1383.05C1290.62 465.825 1235.47 501.475 1235.47 559.533C1235.47 611.989 1277.85 640 1322.79 640C1347.81 640 1370.79 633.889 1390.2 621.666L1401.43 593.146L1407.56 632.87ZM1360.58 577.867C1342.19 577.867 1329.43 568.7 1329.43 552.403C1329.43 525.411 1359.05 514.716 1400.41 517.772V535.597C1400.41 564.117 1378.96 577.867 1360.58 577.867Z" fill="white"/>
<path d="M1637.31 258.546H1545.39V536.615C1545.39 556.987 1545.39 570.737 1546.42 584.997C1548.46 621.157 1572.46 637.963 1614.84 637.963C1635.27 637.963 1651.61 636.944 1668.46 635.416V573.284C1644.46 574.302 1639.87 570.737 1638.34 560.042C1637.31 553.422 1637.31 547.82 1637.31 535.088V258.546Z" fill="white"/>
<path d="M1867.85 632.87H1957.73C1953.65 602.822 1952.62 584.488 1952.62 564.117V487.724C1952.62 470.918 1952.11 455.13 1951.09 441.379C1947.01 391.979 1917.39 353.782 1831.09 353.782C1762.15 353.782 1705.46 389.942 1704.95 453.602L1791.77 453.093C1793.3 429.666 1805.55 415.915 1827 415.915C1846.92 415.915 1858.15 428.138 1859.68 441.889C1860.7 450.546 1860.7 456.149 1860.7 461.751V465.825H1843.34C1750.91 465.825 1695.76 501.475 1695.76 559.533C1695.76 611.989 1738.15 640 1783.08 640C1808.11 640 1831.09 633.889 1850.49 621.666L1861.73 593.146L1867.85 632.87ZM1820.87 577.867C1802.49 577.867 1789.72 568.7 1789.72 552.403C1789.72 525.411 1819.34 514.716 1860.7 517.772V535.597C1860.7 564.117 1839.26 577.867 1820.87 577.867Z" fill="white"/>
<path d="M2120.08 353.782C2047.56 353.782 2000.58 387.395 2000.58 441.379C2000.58 487.724 2031.73 511.66 2083.82 523.883C2132.33 535.088 2149.7 544.764 2149.7 562.08C2149.7 576.34 2136.93 582.96 2120.59 582.96C2101.18 582.96 2084.84 569.21 2079.74 548.329H1989.35C1996.5 609.443 2047.05 640 2121.1 640C2186.97 640 2241.62 613.008 2241.62 554.95C2241.62 502.493 2206.38 481.103 2156.85 468.881C2104.76 456.149 2092.5 445.963 2092.5 430.684C2092.5 418.971 2101.69 410.822 2114.46 410.822C2130.8 410.822 2139.99 421.517 2144.08 440.361H2234.47C2227.32 390.96 2188 353.782 2120.08 353.782Z" fill="white"/>
<path d="M2389.87 353.782C2317.36 353.782 2270.38 387.395 2270.38 441.379C2270.38 487.724 2301.53 511.66 2353.61 523.883C2402.13 535.088 2419.49 544.764 2419.49 562.08C2419.49 576.34 2406.72 582.96 2390.38 582.96C2370.98 582.96 2354.64 569.21 2349.53 548.329H2259.14C2266.29 609.443 2316.85 640 2390.89 640C2456.77 640 2511.41 613.008 2511.41 554.95C2511.41 502.493 2476.17 481.103 2426.64 468.881C2374.55 456.149 2362.3 445.963 2362.3 430.684C2362.3 418.971 2371.49 410.822 2384.25 410.822C2400.6 410.822 2409.79 421.517 2413.87 440.361H2504.26C2497.11 390.96 2457.79 353.782 2389.87 353.782Z" fill="white"/>
<path d="M2814.4 493.326C2814.4 423.045 2768.44 353.782 2677.54 353.782C2586.64 353.782 2532 418.462 2532 497.91C2532 593.655 2594.3 640 2672.43 640C2742.39 640 2793.46 605.369 2809.29 543.745H2718.9C2715.33 564.626 2699.5 577.867 2673.45 577.867C2647.41 577.867 2627.49 565.135 2622.9 519.809H2812.86C2813.89 510.642 2814.4 501.475 2814.4 493.326ZM2672.94 415.915C2697.45 415.915 2713.29 431.703 2718.39 463.788H2625.96C2632.09 430.175 2648.94 415.915 2672.94 415.915Z" fill="white"/>
<path d="M3125.69 360.912H3033.77V514.716C3033.77 550.875 3016.41 577.867 2987.3 577.867C2958.19 577.867 2945.94 562.589 2942.87 536.615C2941.34 522.865 2940.83 508.095 2940.83 499.438V360.912H2848.91V519.809C2848.91 541.708 2849.42 557.496 2851.46 571.247C2857.59 608.424 2891.81 640 2947.98 640C2973 640 2992.41 634.398 3009.26 624.212L3033.77 587.034V632.87H3125.69V360.912Z" fill="white"/>
<path d="M3293.01 353.782C3220.49 353.782 3173.51 387.395 3173.51 441.379C3173.51 487.724 3204.66 511.66 3256.75 523.883C3305.26 535.088 3322.63 544.764 3322.63 562.08C3322.63 576.34 3309.86 582.96 3293.52 582.96C3274.11 582.96 3257.77 569.21 3252.67 548.329H3162.28C3169.43 609.443 3219.98 640 3294.03 640C3359.9 640 3414.55 613.008 3414.55 554.95C3414.55 502.493 3379.31 481.103 3329.78 468.881C3277.69 456.149 3265.43 445.963 3265.43 430.684C3265.43 418.971 3274.62 410.822 3287.39 410.822C3303.73 410.822 3312.92 421.517 3317.01 440.361H3407.4C3400.25 390.96 3360.93 353.782 3293.01 353.782Z" fill="white"/>
</mask>
<g mask="url(#mask0)">
<path d="M896.697 352.764V281.464H576V352.764H690.389V632.87H782.308V352.764H896.697Z" fill="white"/>
<path d="M1193.31 427.629C1186.16 380.265 1152.97 353.782 1096.79 353.782C1071.77 353.782 1052.37 359.385 1035.51 369.57L1011 403.183V256H919.082V632.87H1011V504.531C1011 442.907 1030.92 415.915 1059 415.915C1086.58 415.915 1100.88 431.194 1102.92 457.167C1103.94 470.918 1103.94 485.687 1103.94 494.345V632.87H1195.86V479.066C1195.86 457.167 1195.35 441.379 1193.31 427.629Z" fill="white"/>
<path d="M1407.56 632.87H1497.44C1493.35 602.822 1492.33 584.488 1492.33 564.117V487.724C1492.33 470.918 1491.82 455.13 1490.8 441.379C1486.71 391.979 1457.09 353.782 1370.79 353.782C1301.85 353.782 1245.17 389.942 1244.66 453.602L1331.47 453.093C1333 429.666 1345.26 415.915 1366.71 415.915C1386.62 415.915 1397.86 428.138 1399.39 441.889C1400.41 450.546 1400.41 456.149 1400.41 461.751V465.825H1383.05C1290.62 465.825 1235.47 501.475 1235.47 559.533C1235.47 611.989 1277.85 640 1322.79 640C1347.81 640 1370.79 633.889 1390.2 621.666L1401.43 593.146L1407.56 632.87ZM1360.58 577.867C1342.19 577.867 1329.43 568.7 1329.43 552.403C1329.43 525.411 1359.05 514.716 1400.41 517.772V535.597C1400.41 564.117 1378.96 577.867 1360.58 577.867Z" fill="white"/>
<path d="M1637.31 258.546H1545.39V536.615C1545.39 556.987 1545.39 570.737 1546.42 584.997C1548.46 621.157 1572.46 637.963 1614.84 637.963C1635.27 637.963 1651.61 636.944 1668.46 635.416V573.284C1644.46 574.302 1639.87 570.737 1638.34 560.042C1637.31 553.422 1637.31 547.82 1637.31 535.088V258.546Z" fill="white"/>
<path d="M1867.85 632.87H1957.73C1953.65 602.822 1952.62 584.488 1952.62 564.117V487.724C1952.62 470.918 1952.11 455.13 1951.09 441.379C1947.01 391.979 1917.39 353.782 1831.09 353.782C1762.15 353.782 1705.46 389.942 1704.95 453.602L1791.77 453.093C1793.3 429.666 1805.55 415.915 1827 415.915C1846.92 415.915 1858.15 428.138 1859.68 441.889C1860.7 450.546 1860.7 456.149 1860.7 461.751V465.825H1843.34C1750.91 465.825 1695.76 501.475 1695.76 559.533C1695.76 611.989 1738.15 640 1783.08 640C1808.11 640 1831.09 633.889 1850.49 621.666L1861.73 593.146L1867.85 632.87ZM1820.87 577.867C1802.49 577.867 1789.72 568.7 1789.72 552.403C1789.72 525.411 1819.34 514.716 1860.7 517.772V535.597C1860.7 564.117 1839.26 577.867 1820.87 577.867Z" fill="white"/>
<path d="M2120.08 353.782C2047.56 353.782 2000.58 387.395 2000.58 441.379C2000.58 487.724 2031.73 511.66 2083.82 523.883C2132.33 535.088 2149.7 544.764 2149.7 562.08C2149.7 576.34 2136.93 582.96 2120.59 582.96C2101.18 582.96 2084.84 569.21 2079.74 548.329H1989.35C1996.5 609.443 2047.05 640 2121.1 640C2186.97 640 2241.62 613.008 2241.62 554.95C2241.62 502.493 2206.38 481.103 2156.85 468.881C2104.76 456.149 2092.5 445.963 2092.5 430.684C2092.5 418.971 2101.69 410.822 2114.46 410.822C2130.8 410.822 2139.99 421.517 2144.08 440.361H2234.47C2227.32 390.96 2188 353.782 2120.08 353.782Z" fill="white"/>
<path d="M2389.87 353.782C2317.36 353.782 2270.38 387.395 2270.38 441.379C2270.38 487.724 2301.53 511.66 2353.61 523.883C2402.13 535.088 2419.49 544.764 2419.49 562.08C2419.49 576.34 2406.72 582.96 2390.38 582.96C2370.98 582.96 2354.64 569.21 2349.53 548.329H2259.14C2266.29 609.443 2316.85 640 2390.89 640C2456.77 640 2511.41 613.008 2511.41 554.95C2511.41 502.493 2476.17 481.103 2426.64 468.881C2374.55 456.149 2362.3 445.963 2362.3 430.684C2362.3 418.971 2371.49 410.822 2384.25 410.822C2400.6 410.822 2409.79 421.517 2413.87 440.361H2504.26C2497.11 390.96 2457.79 353.782 2389.87 353.782Z" fill="white"/>
<path d="M2814.4 493.326C2814.4 423.045 2768.44 353.782 2677.54 353.782C2586.64 353.782 2532 418.462 2532 497.91C2532 593.655 2594.3 640 2672.43 640C2742.39 640 2793.46 605.369 2809.29 543.745H2718.9C2715.33 564.626 2699.5 577.867 2673.45 577.867C2647.41 577.867 2627.49 565.135 2622.9 519.809H2812.86C2813.89 510.642 2814.4 501.475 2814.4 493.326ZM2672.94 415.915C2697.45 415.915 2713.29 431.703 2718.39 463.788H2625.96C2632.09 430.175 2648.94 415.915 2672.94 415.915Z" fill="white"/>
<path d="M3125.69 360.912H3033.77V514.716C3033.77 550.875 3016.41 577.867 2987.3 577.867C2958.19 577.867 2945.94 562.589 2942.87 536.615C2941.34 522.865 2940.83 508.095 2940.83 499.438V360.912H2848.91V519.809C2848.91 541.708 2849.42 557.496 2851.46 571.247C2857.59 608.424 2891.81 640 2947.98 640C2973 640 2992.41 634.398 3009.26 624.212L3033.77 587.034V632.87H3125.69V360.912Z" fill="white"/>
<path d="M3293.01 353.782C3220.49 353.782 3173.51 387.395 3173.51 441.379C3173.51 487.724 3204.66 511.66 3256.75 523.883C3305.26 535.088 3322.63 544.764 3322.63 562.08C3322.63 576.34 3309.86 582.96 3293.52 582.96C3274.11 582.96 3257.77 569.21 3252.67 548.329H3162.28C3169.43 609.443 3219.98 640 3294.03 640C3359.9 640 3414.55 613.008 3414.55 554.95C3414.55 502.493 3379.31 481.103 3329.78 468.881C3277.69 456.149 3265.43 445.963 3265.43 430.684C3265.43 418.971 3274.62 410.822 3287.39 410.822C3303.73 410.822 3312.92 421.517 3317.01 440.361H3407.4C3400.25 390.96 3360.93 353.782 3293.01 353.782Z" fill="white"/>
</g>
<path d="M130 256L520 0L390 448L390 640L0 896L130 448V256Z" fill="url(#paint0_linear)"/>
<path d="M260 0H520L390 256H130L260 0Z" fill="white"/>
<path d="M130 640H390L260 896H0L130 640Z" fill="white"/>
<defs>
<linearGradient id="paint0_linear" x1="551.053" y1="-514.748" x2="-375.348" y2="320.014" gradientUnits="userSpaceOnUse">
<stop stop-color="#FFB800"/>
<stop offset="1" stop-color="#EB00FF"/>
</linearGradient>
</defs>
</svg>
