<?xml version="1.0" encoding="UTF-8" standalone="no"?>
<!DOCTYPE svg PUBLIC "-//W3C//DTD SVG 1.1//EN" "http://www.w3.org/Graphics/SVG/1.1/DTD/svg11.dtd">
<svg width="100%" height="100%" viewBox="0 0 1309 301" version="1.1" xmlns="http://www.w3.org/2000/svg" xmlns:xlink="http://www.w3.org/1999/xlink" xml:space="preserve" xmlns:serif="http://www.serif.com/" style="fill-rule:evenodd;clip-rule:evenodd;stroke-linejoin:round;stroke-miterlimit:2;">
    <g transform="matrix(1,0,0,1,-574.683,-390.684)">
        <g transform="matrix(0.60849,0,0,0.60849,1426.44,540.982)">
            <g transform="matrix(1,0,0,1,-750,-247)">
                <path d="M239.15,201.56L239.15,372.06C239.15,372.905 238.455,373.6 237.61,373.6L127.94,373.6C127.095,373.6 126.4,372.905 126.4,372.06L126.4,201.56C126.4,201.56 126.4,201.56 126.4,201.559C126.4,201.505 126.355,201.459 126.3,201.459C126.297,201.459 126.293,201.46 126.29,201.46L26.54,201.46C25.695,201.46 25,200.765 25,199.92L25,123.17C25,122.325 25.695,121.63 26.54,121.63L338.62,121.63C339.465,121.63 340.16,122.325 340.16,123.17L340.16,199.92C340.16,200.765 339.465,201.46 338.62,201.46L239.26,201.46C239.257,201.46 239.253,201.459 239.25,201.459C239.195,201.459 239.15,201.505 239.15,201.559C239.15,201.56 239.15,201.56 239.15,201.56Z" style="fill:rgb(38,82,154);fill-rule:nonzero;"/>
                <path d="M597.9,372.06L597.9,286.31C597.9,286.25 597.85,286.2 597.79,286.2L498.11,286.2C498.053,286.205 498.01,286.253 498.01,286.31L498.01,372.06C498.01,372.905 497.315,373.6 496.47,373.6L387.18,373.6C386.335,373.6 385.64,372.905 385.64,372.06L385.64,123.17C385.64,122.325 386.335,121.63 387.18,121.63L496.47,121.63C497.315,121.63 498.01,122.325 498.01,123.17L498.01,216.11C498.01,216.165 498.055,216.21 498.11,216.21L597.79,216.21C597.793,216.21 597.797,216.211 597.8,216.211C597.855,216.211 597.9,216.165 597.9,216.111C597.9,216.11 597.9,216.11 597.9,216.11L597.9,123.17C597.9,122.325 598.595,121.63 599.44,121.63L709.09,121.63C709.935,121.63 710.63,122.325 710.63,123.17L710.63,372.06C710.63,372.905 709.935,373.6 709.09,373.6L599.44,373.6C598.595,373.6 597.9,372.905 597.9,372.06Z" style="fill:rgb(38,82,154);fill-rule:nonzero;"/>
                <path d="M1302.88,201.56L1302.88,372.06C1302.88,372.905 1302.18,373.6 1301.34,373.6L1191.66,373.6C1190.82,373.6 1190.12,372.905 1190.12,372.06L1190.12,201.56C1190.12,201.556 1190.12,201.553 1190.12,201.549C1190.12,201.5 1190.08,201.459 1190.03,201.459C1190.03,201.459 1190.02,201.46 1190.02,201.46L1090.27,201.46C1089.42,201.46 1088.73,200.765 1088.73,199.92L1088.73,123.17C1088.73,122.325 1089.42,121.63 1090.27,121.63L1402.35,121.63C1403.19,121.63 1403.89,122.325 1403.89,123.17L1403.89,199.92C1403.89,200.765 1403.19,201.46 1402.35,201.46L1303,201.46C1302.99,201.456 1302.98,201.454 1302.97,201.454C1302.92,201.454 1302.88,201.495 1302.88,201.544C1302.88,201.55 1302.88,201.555 1302.88,201.56Z" style="fill:rgb(38,82,154);fill-rule:nonzero;"/>
                <path d="M1108.27,373.45L989.57,121.69C989.548,121.655 989.511,121.633 989.47,121.63L806.41,121.63C805.565,121.63 804.87,122.325 804.87,123.17L822.81,183.52L827.81,201.46L748.26,373.46C748.255,373.473 748.252,373.486 748.252,373.5C748.252,373.559 748.301,373.609 748.36,373.61L845.36,373.61C845.401,373.609 845.439,373.586 845.46,373.55L865,330.16C865.019,330.123 865.058,330.099 865.1,330.1L969.4,330.1C969.44,330.098 969.477,330.122 969.49,330.16L986.49,372.63C986.718,373.222 987.285,373.619 987.92,373.63L1108.17,373.63C1108.18,373.638 1108.2,373.643 1108.22,373.643C1108.28,373.643 1108.32,373.596 1108.32,373.54C1108.32,373.503 1108.3,373.468 1108.27,373.45ZM947,272.2L890.2,272.2C890.141,272.199 890.092,272.149 890.092,272.09C890.092,272.076 890.095,272.063 890.1,272.05L920.2,203.21C920.218,203.171 920.257,203.146 920.3,203.146C920.343,203.146 920.382,203.171 920.4,203.21L947.11,272.04C947.118,272.056 947.122,272.073 947.122,272.091C947.122,272.151 947.073,272.201 947.012,272.201C947.008,272.201 947.004,272.2 947,272.2Z" style="fill:rgb(38,82,154);fill-rule:nonzero;"/>
                <path d="M1475,145.42C1475,159.58 1463.89,170.68 1449.43,170.68C1434.97,170.68 1423.66,159.58 1423.66,145.42C1423.66,131.55 1435.1,120.42 1449.43,120.42C1463.76,120.42 1475,131.55 1475,145.42ZM1430.06,145.42C1430.06,154.94 1436.06,162.78 1444.95,164.82C1457.57,167.74 1469.21,157.45 1468.62,144.5C1468.13,133.88 1460.19,125.5 1449.43,125.5C1438.28,125.45 1430.06,134.43 1430.06,145.42ZM1445.24,158.52L1439.9,158.52C1439.78,158.52 1439.68,158.421 1439.68,158.3L1439.68,133.68C1439.68,133.575 1439.76,133.485 1439.86,133.47C1442.97,132.951 1446.12,132.707 1449.27,132.74C1453.96,132.74 1456.12,133.5 1457.94,134.59C1459.52,135.952 1460.41,137.962 1460.34,140.05C1460.34,142.81 1458.22,144.93 1455.17,145.82L1455.17,146.16C1457.63,147.05 1458.99,148.87 1459.75,152.22C1460.51,155.57 1460.88,157.22 1461.39,158.22C1461.41,158.251 1461.41,158.285 1461.41,158.32C1461.41,158.435 1461.32,158.53 1461.2,158.53C1461.2,158.53 1461.2,158.53 1461.2,158.53L1455.45,158.53C1455.38,158.529 1455.31,158.496 1455.27,158.44C1454.55,157.44 1454.09,155.22 1453.35,152.44C1452.88,149.69 1451.35,148.5 1448.18,148.5L1445.63,148.5C1445.52,148.5 1445.42,148.595 1445.42,148.71L1445.42,158.33C1445.41,158.426 1445.34,158.503 1445.24,158.52ZM1445.62,144.14C1445.62,144.143 1445.62,144.147 1445.62,144.15C1445.62,144.265 1445.71,144.36 1445.83,144.36L1448.37,144.36C1451.55,144.36 1454.14,143.25 1454.14,140.67C1454.14,138.38 1452.49,136.85 1448.8,136.85C1447.79,136.829 1446.78,136.93 1445.8,137.15C1445.71,137.169 1445.64,137.254 1445.64,137.35L1445.62,144.14Z" style="fill:rgb(38,82,154);fill-rule:nonzero;"/>
            </g>
        </g>
        <g transform="matrix(0.242827,0,0,0.242827,756.803,540.215)">
            <g transform="matrix(1,0,0,1,-750,-392)">
                <path d="M1124.24,442.64L1012.06,263.92L1053.48,263.92L934.64,75.26L815.8,263.92L857.21,263.92L750,434.74L642.79,263.92L684.2,263.92L565.36,75.26L446.52,263.92L487.94,263.92L375.76,442.64L417.13,442.64L300.34,629.64L517.19,629.64L517.19,708.77L613.53,708.77L613.53,629.61L886.47,629.61L886.47,708.74L982.81,708.74L982.81,629.61L1199.66,629.61L1082.87,442.61L1124.24,442.64ZM713.6,442.64L786.41,442.64L750,500.92L713.6,442.64Z" style="fill:rgb(247,70,70);fill-rule:nonzero;"/>
                <path d="M211.64,142.25L25,328.89L76.85,380.74L211.64,515.54L263.49,463.69L128.69,328.89L263.49,194.1L211.64,142.25Z" style="fill:rgb(247,70,70);fill-rule:nonzero;"/>
                <path d="M1423.15,277.05L1288.36,142.25L1236.51,194.1L1371.31,328.89L1236.51,463.69L1288.36,515.54L1423.15,380.74L1475,328.89L1423.15,277.05Z" style="fill:rgb(247,70,70);fill-rule:nonzero;"/>
            </g>
        </g>
    </g>
</svg>
