<svg viewBox="0 0 4100 882" xmlns="http://www.w3.org/2000/svg"><path fill="#41AC47" d="M2016.024 200.633c73.656 0 133.52 25.186 178.899 75.807 42.669 47.28 63.834 107.253 63.834 179.358 0 64.194-22.295 119.066-66.935 164.316-44.54 45.19-97.84 67.954-159.604 67.954-49.941 0-92.41-10.212-135.74-35.377V549.048c34.868 23.625 78.627 46.14 121.847 46.14 90.08 0 143.74-62.003 143.74-149.882 0-87.969-55.511-151.823-145.61-151.823-40.3 0-72.896 14.473-98.402 43.47-27.336 31.446-41.449 76.366-41.449 135.749V882h-6.791c-49.64 0-89.91-40.259-89.91-89.9V457.36c0-142.041 86.86-256.726 236.121-256.726zm645.94 30.547c96.73 54.041 131.968 137.67 125.827 245.433l-389.564-.81c5.72 43.959 32.987 78.356 71.265 99.741 38.818 21.705 74.536 26.886 107.683 16.604 36.748-11.553 66.575-41.55 90.85-69.495l79.407 57.842c-32.407 57.943-76.507 92.24-141.75 106.143-61.774 13.103-122.377 3-181.49-30.017-57.662-32.236-96.33-80.157-115.665-143.42-39.128-128.008 41.06-270.659 169.987-305.226 63.914-17.114 125.227-9.352 183.45 23.205zM3305.031 0v430.953c0 75.916-21.945 138.03-66.274 185.72-44.39 47.63-101.492 71.395-170.777 71.395-73.056 0-132.639-25.225-177.958-75.836-42.63-47.87-63.834-107.863-63.834-179.359 0-126.527 97.7-232.24 226.159-232.24 49.6 0 92.64 10.422 136.139 34.298v104.692c-34.898-23.625-78.667-46.14-121.846-46.14-90.08 0-143.741 61.994-143.741 149.893 0 86.768 56.762 151.812 145.581 151.812 40.209 0 73.356-15.103 99.852-45.44 26.315-30.186 40.008-74.506 40.008-134.068V89.91c0-49.641 40.249-89.91 89.94-89.91h6.751zm557.71 200.633c138.19 0 237.051 79.327 237.051 222.678v255.195h-6.801c-49.651 0-89.91-40.249-89.91-89.9V415.68c0-38.109-14.413-68.275-43.429-91.16-26.096-20.565-58.733-31.037-98.341-31.037-87.51 0-143.671 68.405-143.671 152.743 0 81.228 59.503 148.962 142.78 148.962 57.853 0 88.84-33.837 121.857-75.936v121.466c-16.844 12.593-36.188 26.326-55.952 34.387-20.835 8.712-45.68 12.963-74.436 12.963-139.17 0-230.96-115.285-230.96-248.503 0-68.405 21.245-124.937 64.014-169.047 45.41-46.71 104.912-69.885 177.798-69.885zm-3331.588 0c66.105 0 123.337 23.145 171.407 69.235 48.24 46.26 72.316 104.583 72.316 174.478 0 70.495-23.915 128.988-71.816 174.947-47.81 45.82-105.212 68.775-171.907 68.775-66.074 0-123.186-22.975-170.916-68.775-47.94-45.96-71.856-104.452-71.856-174.947 0-137.54 105.063-243.713 242.772-243.713zm951.175 0c66.125 0 123.367 23.145 171.427 69.235 48.22 46.26 72.316 104.583 72.316 174.478 0 70.495-23.915 128.988-71.846 174.947-47.77 45.82-105.192 68.775-171.897 68.775-66.054 0-123.146-22.975-170.937-68.775-47.91-45.96-71.795-104.452-71.795-174.947 0-137.54 105.013-243.713 242.732-243.713zm2035.339 9.542v468.331h-6.772c-49.62 0-89.899-40.249-89.899-89.9v-378.43h96.67zM96.69 93.63v116.545h163.365v92.88H96.691v232.04c0 39.469 17.624 50.561 55.312 50.561h108.053v92.85H141.48C46.95 678.506 0 614.172 0 524.353V183.53c0-49.651 40.239-89.9 89.92-89.9h6.77zM936.87 0v378.301h28.577c31.397 0 52.061-10.712 63.884-31.036l81.237-137.07 110.184-.1-65.664 112.765c-14.183 23.785-25.166 40.858-32.907 51.16-8.542 11.193-16.954 20.155-25.286 26.326 67.195 21.735 92.22 68.285 92.22 137.64v140.52h-6.801c-49.661 0-89.92-40.249-89.92-89.9v-41.098c0-44.88-20.104-75.376-67.704-75.376h-87.82v206.374h-6.77c-49.661 0-89.92-40.249-89.92-89.9V89.91C840.181 40.27 880.44 0 930.101 0h6.77zm545.458 293.483c-88.979 0-142.24 64.884-142.24 150.863 0 84.788 54.541 150.842 142.24 150.842 87.77 0 142.231-66.054 142.231-150.842 0-45.02-13.493-81.138-40.119-108.974-26.645-27.906-60.533-41.889-102.112-41.889zm-951.175 0c-88.999 0-142.24 64.884-142.24 150.863 0 84.788 54.532 150.842 142.24 150.842 87.73 0 142.261-66.054 142.261-150.842 0-45.02-13.513-81.138-40.179-108.974-26.645-27.906-60.493-41.889-102.082-41.889zm1880.896 94.45l267.407.38c-12.252-37.807-27.546-56.391-62.813-76.056-83.758-46.84-166.216-6.991-204.594 75.677zm1057.267-330.6c32.377 0 56.963 23.985 56.963 56.472 0 16.063-4.691 29.826-14.483 40.808-10.163 11.363-24.706 16.604-42.48 16.604-33.167 0-56.902-24.505-56.902-57.412 0-33.718 23.315-56.473 56.902-56.473z"/></svg>