<svg data-name="Layer 1" xmlns="http://www.w3.org/2000/svg" viewBox="0 0 512 512"><path d="M256 511.97c141 0 256-115 256-256S397-.03 256-.03s-256 115-256 256 115 256 256 256z" fill-rule="evenodd" fill="#2aa29f"/><path d="M244 162.97c11.05-9.72 69.26-10.38 81.83-4.29 17 8.29 34.2 15.49 34 35.54-.28 19.87-1.9 40.87-2 49.69-.09 8.05 7.86 12.52 15.58 33.53 2.76 7.48 20.1 14.25 15.86 21.49-2.52 4.19-6.67 10.76-17.43 17.24-3.29 1.95-17.77 12.2-5.29 33.3 4.38 7.53 2.62 4.57-8.86 19.48-8.29 10.77-1 33.64-6.72 35.68-.09.05-19.43-5.67-39-.71-30.48 7.76-66.3 27.49-66.64 27.39-.62-.19-22.48-31.3-41.53-52.59-13.72-15.34-27.11-20.48-24.87-29.2 8.1-31.25-46.06-82.08-26.19-117 11.67-20.53 44.29-2.24 59 9.15 21.63 16.72 15-63.5 32.3-78.65z" fill="#fff" fill-rule="evenodd"/><path d="M342 360.71c-.43 2.38-3.15 12.77-4.1 14.29-2-.66-17.34-10-19.62-11.67 2-2.86 37-18.05 42.63-18.24 1.24 1.57 5.24 8.14 5.14 10.33-8 1.77-16 3.53-24 5.29zM210.34 260.48l8.86-.23c.29 27.53-2.09 36.82-11.1 65.21-2.9 7.19 6.77 29.58 9.58 35.92 1.57 3.57 2.09 5 3 5.72 4.19 3.52 66.06 25.24 81.07 33.58-26.34 9-42.87 19-57 27-15.24-22-37.39-53.54-60.49-71.83 1.05-5.48 5.9-26.2 5.52-30.35-.33-3.57-22.34-31.68-27.72-52.45-5-19.34-4.67-33.92 14.15-35.54 18.58-1.61 26.82 7.34 34.15 23zm130.9-20.62c2.14-.19 6-.91 7.9-1.05.29 2.67-.81 27.87-1.62 30.44-.52 1.62-3.24 4.43-5 5.57-2.38 1.53-2.19-30.2-1.23-35zm-91 13.57c20.62-3.9 58-9.38 77.74-12.1-1.91 21.11 1.66 50.88 2.66 52.64.67 1.29 8.34 1.48 10.24.34.77-.48 17-16.92 17.06-17.06.52-1.76 0-4.67.38-13 4.24 7.34 9.81 17.24 14.72 24.72a153.07 153.07 0 009.52 13.25c-.33 1.47-9 8.86-10.71 9.19-6 1.19-28.58 2.81-38.49 5-10.24 2.24-34 15-43.82 20.1-5.53-3.47-28.44-35.91-33.44-43-3.57-5-2.62-4-3.38-12-.86-9.29-2.1-18.67-2.48-28.11zm53.35-67.26c2.76 4.76 3.57 23.53 4.48 28.44 8.38 1.24 22.81 4.38 30.1 4.95 3-9.81 1.52-30.44.81-41.2 3.38 1.09 14.19 8.57 15.34 11.81 1.81 5 1.38 28.39-.1 33.35-5 .38-10 0-15 .43-12.67 1-27.63 2.85-40.06 5.09-7.43 1.38-44.21 9.72-50.4 9.72l-1.48-8.19c0-1 8.53-14.67 10.2-17.87 2.09-4.05 4.14-8.29 6.38-12.57.76-1.53 5.1-12.29 5.91-13.06 16.57 17.15 20.57 25.59 21.67 26.4s10 1.14 11.76 1c1.86-4 1.2-21.53.34-28.34zM154 141.87c-3.19-6.91-1.62-41.35-1.86-41.64-5.76-2.86-29.29 25.92-31 31.63-3.72 12.34.47 17.68 3.66 28.49-20.34 11.43-37.15 34.2-33.86 60.21 4-3.76 13.38-11.95 19.76-14-6.28 27.53-7.57 67.69 27.68 95.42 5.67 4.43 9.1 42.3 10 54.83 5.67-.67 14.43-1.53 20.44-.24 22.48 4.86 61.35 62.5 74.35 81.08 14.19-7.53 58.78-29.11 74.12-28.44 2.28.09 8 4 12.76 4.76 6.24 1 18.91-3.1 24.82-4.67 15.34-4.05 12.15-1.24 10.72-16.62-.91-10 0-20 .33-29.78.19-5.33 6.19-4.43 5.33-9-.71-3.76-3.52-7.24-5-10.29 2.62-1 9.81-.85 9.9-3.05.43-8.28-.14-16.48-.19-24.77 2.91-2.33 18.82-13.24 20.1-19-11.62-11.38-40.29-51.64-36.77-62.69 4.48-14.1 3.43-24.91 3.43-35.15 1.38 1.28 27-7.67 30.87-9-4.48-24.53-22.82-41.49-37.06-48.44-.72-9 3.86-27 6.38-32.25-56.11-31-123.75-8.77-143.8 4 .9-5.19 6.71-15.72 8.62-20-38.54.71-70.59 37.11-73.69 48.64z" fill="#363634" fill-rule="evenodd"/></svg>
