<?xml version="1.0" encoding="utf-8"?>
<!-- Generator: Adobe Illustrator 24.0.3, SVG Export Plug-In . SVG Version: 6.00 Build 0)  -->
<svg version="1.1" id="Ebene_1" xmlns="http://www.w3.org/2000/svg" xmlns:xlink="http://www.w3.org/1999/xlink" x="0px" y="0px"
	 viewBox="0 0 2505.9 494" style="enable-background:new 0 0 2505.9 494;" xml:space="preserve">
<style type="text/css">
	.st0{display:none;}
	.st1{display:inline;fill:#263647;}
	.st2{display:inline;fill:#21BAA8;}
	.st3{display:inline;fill:#128091;}
	.st4{display:inline;fill:#FFFFFF;}
	.st5{display:inline;fill:#34B3A4;}
	.st6{display:inline;}
	.st7{fill:#263647;}
	.st8{display:inline;fill:#168091;}
	.st9{fill:#2F465D;}
	.st10{fill:#34B3A4;}
	.st11{fill:#168091;}
	.st12{fill:#FFFFFF;}
</style>
<g id="V_Mitte_x2F_S_dunkel" class="st0">
	<path class="st1" d="M368.4,2204.7l14.8,57.6h3.4l14.2-56.4L599.2,1592h147.6l-296.4,829.9H318.8L23,1592h147.6L368.4,2204.7z"/>
	<path class="st1" d="M992.5,2421.9H854V1592h138.5V2421.9z"/>
	<path class="st1" d="M1320.3,2107.3v314.6h-138.5V1592h324.3c91.6,0,163.3,23.7,215.2,71c51.9,47.3,77.8,109.5,77.8,186.7
		c0,77.9-25.9,140.3-77.8,187.2s-123.6,70.4-215.2,70.4L1320.3,2107.3L1320.3,2107.3z M1320.3,1996.1h185.8
		c51.3,0,89.9-13.7,115.7-41c25.8-27.4,38.8-62.1,38.8-104.3c0-42.2-12.9-77.3-38.8-105.4c-25.8-28.1-64.4-42.2-115.7-42.2h-185.8
		V1996.1z"/>
	<path class="st1" d="M2438,2067.9h-363.7v354h-138.5V1592h560.3v111.1h-421.8v253.6H2438V2067.9z"/>
	<path class="st1" d="M2883.7,1995.6l200.6-403.5h154.5L2951,2130.6v291.3h-137.9v-298.7L2529.8,1592h154.5L2883.7,1995.6z"/>
	<polygon class="st2" points="2025.8,-455.8 1542.9,380.7 1643,554.1 2226.1,-455.8 	"/>
	<path class="st3" d="M1613,779.6C1418.6,443,1224.2,106.3,1029.9-230.3c-17.5-30.4-5-52,30.1-52h583h122.4
		c33.4-57.8,66.8-115.6,100.1-173.5H1643h-583.1c-160.2,0-260.4,173.5-180.3,312.2c194.4,336.7,388.7,673.3,583.1,1009.9
		c80.1,138.7,280.4,138.7,360.5,0c254.4-440.7,508.9-881.4,763.4-1322.1h-200.3C2148.6-44,1910.8,367.8,1673,779.6
		C1655.5,810,1630.5,810,1613,779.6"/>
	<polygon class="st2" points="1240.2,-143.6 1643,-143.6 1685.3,-143.6 1462.7,241.9 	"/>
</g>
<g id="V_Außen_Dunkel" class="st0">
	<polygon class="st2" points="2025.8,-455.8 1542.9,380.7 1643,554.1 2226.1,-455.8 	"/>
	<path class="st3" d="M1613,779.6C1418.6,443,1224.2,106.3,1029.9-230.3c-17.5-30.4-5-52,30.1-52h583h122.4
		c33.4-57.8,66.8-115.6,100.1-173.5H1643h-583.1c-160.2,0-260.4,173.5-180.3,312.2c194.4,336.7,388.7,673.3,583.1,1009.9
		c80.1,138.7,280.4,138.7,360.5,0c254.4-440.7,508.9-881.4,763.4-1322.1h-200.3C2148.6-44,1910.8,367.8,1673,779.6
		C1655.5,810,1630.5,810,1613,779.6"/>
	<polygon class="st2" points="1240.2,-143.6 1643,-143.6 1685.3,-143.6 1462.7,241.9 	"/>
</g>
<g id="V_Mitte_x2F_S_hell" class="st0">
	<path class="st4" d="M368.4,2204.7l14.8,57.6h3.4l14.2-56.4L599.2,1592h147.6l-296.4,829.9H318.8L23,1592h147.6L368.4,2204.7z"/>
	<path class="st4" d="M992.5,2421.9H854V1592h138.5V2421.9z"/>
	<path class="st4" d="M1320.3,2107.3v314.6h-138.5V1592h324.3c91.6,0,163.3,23.7,215.2,71c51.9,47.3,77.8,109.5,77.8,186.7
		c0,77.9-25.9,140.3-77.8,187.2s-123.6,70.4-215.2,70.4L1320.3,2107.3L1320.3,2107.3z M1320.3,1996.1h185.8
		c51.3,0,89.9-13.7,115.7-41c25.8-27.4,38.8-62.1,38.8-104.3c0-42.2-12.9-77.3-38.8-105.4c-25.8-28.1-64.4-42.2-115.7-42.2h-185.8
		V1996.1z"/>
	<path class="st4" d="M2438,2067.9h-363.7v354h-138.5V1592h560.3v111.1h-421.8v253.6H2438V2067.9z"/>
	<path class="st4" d="M2883.7,1995.6l200.6-403.5h154.5L2951,2130.6v291.3h-137.9v-298.7L2529.8,1592h154.5L2883.7,1995.6z"/>
	<polygon class="st3" points="2025.8,-455.8 1542.9,380.7 1643,554.1 2226.1,-455.8 	"/>
	<path class="st5" d="M1613,779.6C1418.6,443,1224.2,106.3,1029.9-230.3c-17.5-30.4-5-52,30.1-52h583h122.4
		c33.4-57.8,66.8-115.6,100.1-173.5H1643h-583.1c-160.2,0-260.4,173.5-180.3,312.2c194.4,336.7,388.7,673.3,583.1,1009.9
		c80.1,138.7,280.4,138.7,360.5,0c254.4-440.7,508.9-881.4,763.4-1322.1h-200.3C2148.6-44,1910.8,367.8,1673,779.6
		C1655.5,810,1630.5,810,1613,779.6"/>
	<polygon class="st3" points="1240.2,-143.6 1643,-143.6 1685.3,-143.6 1462.7,241.9 	"/>
</g>
<g id="V_Außen_Hell" class="st0">
	<polygon class="st3" points="2025.8,-455.8 1542.9,380.7 1643,554.1 2226.1,-455.8 	"/>
	<path class="st2" d="M1613,779.6C1418.6,443,1224.2,106.3,1029.9-230.3c-17.5-30.4-5-52,30.1-52h583h122.4
		c33.4-57.8,66.8-115.6,100.1-173.5H1643h-583.1c-160.2,0-260.4,173.5-180.3,312.2c194.4,336.7,388.7,673.3,583.1,1009.9
		c80.1,138.7,280.4,138.7,360.5,0c254.4-440.7,508.9-881.4,763.4-1322.1h-200.3C2148.6-44,1910.8,367.8,1673,779.6
		C1655.5,810,1630.5,810,1613,779.6"/>
	<polygon class="st3" points="1240.2,-143.6 1643,-143.6 1685.3,-143.6 1462.7,241.9 	"/>
</g>
<g id="V_Mitte_x2F__S" class="st0">
	<path class="st1" d="M368.4,2204.7l14.8,57.6h3.4l14.2-56.4L599.2,1592h147.6l-296.4,829.9H318.8L23,1592h147.6L368.4,2204.7z"/>
	<path class="st1" d="M992.5,2421.9H854V1592h138.5V2421.9z"/>
	<path class="st1" d="M1320.3,2107.3v314.6h-138.5V1592h324.3c91.6,0,163.3,23.7,215.2,71c51.9,47.3,77.8,109.5,77.8,186.7
		c0,77.9-25.9,140.3-77.8,187.2s-123.6,70.4-215.2,70.4L1320.3,2107.3L1320.3,2107.3z M1320.3,1996.1h185.8
		c51.3,0,89.9-13.7,115.7-41c25.8-27.4,38.8-62.1,38.8-104.3c0-42.2-12.9-77.3-38.8-105.4c-25.8-28.1-64.4-42.2-115.7-42.2h-185.8
		V1996.1z"/>
	<path class="st1" d="M2438,2067.9h-363.7v354h-138.5V1592h560.3v111.1h-421.8v253.6H2438V2067.9z"/>
	<path class="st1" d="M2883.7,1995.6l200.6-403.5h154.5L2951,2130.6v291.3h-137.9v-298.7L2529.8,1592h154.5L2883.7,1995.6z"/>
	<polygon class="st1" points="2025.8,-455.8 1542.9,380.7 1643,554.1 2226.1,-455.8 	"/>
	<path class="st1" d="M1613,779.6C1418.6,443,1224.2,106.3,1029.9-230.3c-17.5-30.4-5-52,30.1-52h583h122.4
		c33.4-57.8,66.8-115.6,100.1-173.5H1643h-583.1c-160.2,0-260.4,173.5-180.3,312.2c194.4,336.7,388.7,673.3,583.1,1009.9
		c80.1,138.7,280.4,138.7,360.5,0c254.4-440.7,508.9-881.4,763.4-1322.1h-200.3C2148.6-44,1910.8,367.8,1673,779.6
		C1655.5,810,1630.5,810,1613,779.6"/>
	<polygon class="st1" points="1240.2,-143.6 1643,-143.6 1685.3,-143.6 1462.7,241.9 	"/>
</g>
<g id="V_Schwarz" class="st0">
	<polygon class="st1" points="2025.8,-455.8 1542.9,380.7 1643,554.1 2226.1,-455.8 	"/>
	<path class="st1" d="M1613,779.6C1418.6,443,1224.2,106.3,1029.9-230.3c-17.5-30.4-5-52,30.1-52h583h122.4
		c33.4-57.8,66.8-115.6,100.1-173.5H1643h-583.1c-160.2,0-260.4,173.5-180.3,312.2c194.4,336.7,388.7,673.3,583.1,1009.9
		c80.1,138.7,280.4,138.7,360.5,0c254.4-440.7,508.9-881.4,763.4-1322.1h-200.3C2148.6-44,1910.8,367.8,1673,779.6
		C1655.5,810,1630.5,810,1613,779.6"/>
	<polygon class="st1" points="1240.2,-143.6 1643,-143.6 1685.3,-143.6 1462.7,241.9 	"/>
</g>
<g id="V_Mitte_V_x2F_W" class="st0">
	<path class="st4" d="M368.4,2204.7l14.8,57.6h3.4l14.2-56.4L599.2,1592h147.6l-296.4,829.9H318.8L23,1592h147.6L368.4,2204.7z"/>
	<path class="st4" d="M992.5,2421.9H854V1592h138.5V2421.9z"/>
	<path class="st4" d="M1320.3,2107.3v314.6h-138.5V1592h324.3c91.6,0,163.3,23.7,215.2,71c51.9,47.3,77.8,109.5,77.8,186.7
		c0,77.9-25.9,140.3-77.8,187.2s-123.6,70.4-215.2,70.4L1320.3,2107.3L1320.3,2107.3z M1320.3,1996.1h185.8
		c51.3,0,89.9-13.7,115.7-41c25.8-27.4,38.8-62.1,38.8-104.3c0-42.2-12.9-77.3-38.8-105.4c-25.8-28.1-64.4-42.2-115.7-42.2h-185.8
		V1996.1z"/>
	<path class="st4" d="M2438,2067.9h-363.7v354h-138.5V1592h560.3v111.1h-421.8v253.6H2438V2067.9z"/>
	<path class="st4" d="M2883.7,1995.6l200.6-403.5h154.5L2951,2130.6v291.3h-137.9v-298.7L2529.8,1592h154.5L2883.7,1995.6z"/>
	<polygon class="st4" points="2025.8,-455.8 1542.9,380.7 1643,554.1 2226.1,-455.8 	"/>
	<path class="st4" d="M1613,779.6C1418.6,443,1224.2,106.3,1029.9-230.3c-17.5-30.4-5-52,30.1-52h583h122.4
		c33.4-57.8,66.8-115.6,100.1-173.5H1643h-583.1c-160.2,0-260.4,173.5-180.3,312.2c194.4,336.7,388.7,673.3,583.1,1009.9
		c80.1,138.7,280.4,138.7,360.5,0c254.4-440.7,508.9-881.4,763.4-1322.1h-200.3C2148.6-44,1910.8,367.8,1673,779.6
		C1655.5,810,1630.5,810,1613,779.6"/>
	<polygon class="st4" points="1240.2,-143.6 1643,-143.6 1685.3,-143.6 1462.7,241.9 	"/>
</g>
<g id="V_Weiß" class="st0">
	<polygon class="st4" points="2025.8,-455.8 1542.9,380.7 1643,554.1 2226.1,-455.8 	"/>
	<path class="st4" d="M1613,779.6C1418.6,443,1224.2,106.3,1029.9-230.3c-17.5-30.4-5-52,30.1-52h583h122.4
		c33.4-57.8,66.8-115.6,100.1-173.5H1643h-583.1c-160.2,0-260.4,173.5-180.3,312.2c194.4,336.7,388.7,673.3,583.1,1009.9
		c80.1,138.7,280.4,138.7,360.5,0c254.4-440.7,508.9-881.4,763.4-1322.1h-200.3C2148.6-44,1910.8,367.8,1673,779.6
		C1655.5,810,1630.5,810,1613,779.6"/>
	<polygon class="st4" points="1240.2,-143.6 1643,-143.6 1685.3,-143.6 1462.7,241.9 	"/>
</g>
<g id="V_Links_x2F__S_Dunkel" class="st0">
	<g class="st6">
		<path class="st7" d="M970.1,356.9l7.9,30.8h1.8l7.6-30.2l106.1-328.4h79l-158.6,444h-70.4l-158.3-444h79L970.1,356.9z"/>
		<path class="st7" d="M1304,473.1h-74.1v-444h74.1V473.1z"/>
		<path class="st7" d="M1479.4,304.7V473h-74.1V29h173.5c49,0,87.4,12.7,115.1,38c27.8,25.3,41.6,58.6,41.6,99.9
			c0,41.7-13.9,75.1-41.6,100.2c-27.8,25.1-66.1,37.7-115.1,37.7L1479.4,304.7L1479.4,304.7z M1479.4,245.3h99.4
			c27.4,0,48.1-7.3,61.9-22c13.8-14.6,20.7-33.2,20.7-55.8s-6.9-41.4-20.7-56.4c-13.8-15-34.5-22.6-61.9-22.6h-99.4V245.3z"/>
		<path class="st7" d="M2077.4,283.7h-194.6v189.4h-74.1v-444h299.8v59.5h-225.7v135.7h194.6L2077.4,283.7L2077.4,283.7z"/>
		<path class="st7" d="M2315.9,245l107.3-215.9h82.6l-154,288.2v155.8H2278V313.3L2126.5,29.1h82.6L2315.9,245z"/>
	</g>
	<polygon class="st5" points="417.7,0 250.5,289.7 285.1,349.8 487.1,0 	"/>
	<path class="st8" d="M274.7,427.9c-67.3-116.6-134.6-233.2-202-349.8c-6.1-10.5-1.7-18,10.4-18h202h42.4
		c11.6-20,23.1-40.1,34.7-60.1h-77.1h-202C27.7,0-7,60.1,20.8,108.1c67.3,116.6,134.6,233.2,202,349.8c27.8,48.1,97.1,48.1,124.9,0
		C435.7,305.3,523.8,152.6,612,0h-69.4c-82.3,142.6-164.7,285.3-247,427.9C289.5,438.4,280.8,438.4,274.7,427.9"/>
	<polygon class="st5" points="145.6,108.1 285.1,108.1 299.8,108.1 222.7,241.7 	"/>
</g>
<g>
	<path class="st9" d="M970.1,356.9l7.9,30.8h1.8l7.6-30.2l106.1-328.4h79l-158.6,444h-70.4l-158.3-444h79L970.1,356.9z"/>
	<path class="st9" d="M1304,473.1h-74.1v-444h74.1V473.1z"/>
	<path class="st9" d="M1479.4,304.7V473h-74.1V29h173.5c49,0,87.4,12.7,115.1,38c27.8,25.3,41.6,58.6,41.6,99.9
		c0,41.7-13.9,75.1-41.6,100.2c-27.8,25.1-66.1,37.7-115.1,37.7L1479.4,304.7L1479.4,304.7z M1479.4,245.3h99.4
		c27.4,0,48.1-7.3,61.9-22c13.8-14.6,20.7-33.2,20.7-55.8s-6.9-41.4-20.7-56.4c-13.8-15-34.5-22.6-61.9-22.6h-99.4V245.3z"/>
	<path class="st9" d="M2077.4,283.7h-194.6v189.4h-74.1v-444h299.8v59.5h-225.7v135.7h194.6L2077.4,283.7L2077.4,283.7z"/>
	<path class="st9" d="M2315.9,245l107.3-215.9h82.6l-154,288.2v155.8H2278V313.3L2126.5,29.1h82.6L2315.9,245z"/>
</g>
<polygon class="st10" points="417.7,0 250.5,289.7 285.1,349.8 487.1,0 "/>
<path class="st11" d="M274.7,427.9c-67.3-116.6-134.6-233.2-202-349.8c-6.1-10.5-1.7-18,10.4-18h202h42.4
	c11.6-20,23.1-40.1,34.7-60.1h-77.1h-202C27.7,0-7,60.1,20.8,108.1c67.3,116.6,134.6,233.2,202,349.8c27.8,48.1,97.1,48.1,124.9,0
	C435.7,305.3,523.8,152.6,612,0h-69.4c-82.3,142.6-164.7,285.3-247,427.9C289.5,438.4,280.8,438.4,274.7,427.9"/>
<polygon class="st10" points="145.6,108.1 285.1,108.1 299.8,108.1 222.7,241.7 "/>
<g id="V_Links_x2F_S_dunkel" class="st0">
	<g class="st6">
		<path class="st7" d="M970.1,356.9l7.9,30.8h1.8l7.6-30.2l106.1-328.4h79l-158.6,444h-70.4l-158.3-444h79L970.1,356.9z"/>
		<path class="st7" d="M1304,473.1h-74.1v-444h74.1V473.1z"/>
		<path class="st7" d="M1479.4,304.7V473h-74.1V29h173.5c49,0,87.4,12.7,115.1,38c27.8,25.3,41.6,58.6,41.6,99.9
			c0,41.7-13.9,75.1-41.6,100.2c-27.8,25.1-66.1,37.7-115.1,37.7L1479.4,304.7L1479.4,304.7z M1479.4,245.3h99.4
			c27.4,0,48.1-7.3,61.9-22c13.8-14.6,20.7-33.2,20.7-55.8s-6.9-41.4-20.7-56.4c-13.8-15-34.5-22.6-61.9-22.6h-99.4V245.3z"/>
		<path class="st7" d="M2077.4,283.7h-194.6v189.4h-74.1v-444h299.8v59.5h-225.7v135.7h194.6L2077.4,283.7L2077.4,283.7z"/>
		<path class="st7" d="M2315.9,245l107.3-215.9h82.6l-154,288.2v155.8H2278V313.3L2126.5,29.1h82.6L2315.9,245z"/>
	</g>
	<polygon class="st1" points="417.7,0 250.5,289.7 285.1,349.8 487.1,0 	"/>
	<path class="st1" d="M274.7,427.9c-67.3-116.6-134.6-233.2-202-349.8c-6.1-10.5-1.7-18,10.4-18h202h42.4
		c11.6-20,23.1-40.1,34.7-60.1h-77.1h-202C27.7,0-7,60.1,20.8,108.1c67.3,116.6,134.6,233.2,202,349.8c27.8,48.1,97.1,48.1,124.9,0
		C435.7,305.3,523.8,152.6,612,0h-69.4c-82.3,142.6-164.7,285.3-247,427.9C289.5,438.4,280.8,438.4,274.7,427.9"/>
	<polygon class="st1" points="145.6,108.1 285.1,108.1 299.8,108.1 222.7,241.7 	"/>
</g>
<g id="V_Links_x2F_S_hell_1_" class="st0">
	<g class="st6">
		<path class="st12" d="M970.1,356.9l7.9,30.8h1.8l7.6-30.2l106.1-328.4h79l-158.6,444h-70.4l-158.3-444h79L970.1,356.9z"/>
		<path class="st12" d="M1304,473.1h-74.1v-444h74.1V473.1z"/>
		<path class="st12" d="M1479.4,304.7V473h-74.1V29h173.5c49,0,87.4,12.7,115.1,38c27.8,25.3,41.6,58.6,41.6,99.9
			c0,41.7-13.9,75.1-41.6,100.2c-27.8,25.1-66.1,37.7-115.1,37.7L1479.4,304.7L1479.4,304.7z M1479.4,245.3h99.4
			c27.4,0,48.1-7.3,61.9-22c13.8-14.6,20.7-33.2,20.7-55.8s-6.9-41.4-20.7-56.4c-13.8-15-34.5-22.6-61.9-22.6h-99.4V245.3z"/>
		<path class="st12" d="M2077.4,283.7h-194.6v189.4h-74.1v-444h299.8v59.5h-225.7v135.7h194.6L2077.4,283.7L2077.4,283.7z"/>
		<path class="st12" d="M2315.9,245l107.3-215.9h82.6l-154,288.2v155.8H2278V313.3L2126.5,29.1h82.6L2315.9,245z"/>
	</g>
	<polygon class="st4" points="417.7,0 250.5,289.7 285.1,349.8 487.1,0 	"/>
	<path class="st4" d="M274.7,427.9c-67.3-116.6-134.6-233.2-202-349.8c-6.1-10.5-1.7-18,10.4-18h202h42.4
		c11.6-20,23.1-40.1,34.7-60.1h-77.1h-202C27.7,0-7,60.1,20.8,108.1c67.3,116.6,134.6,233.2,202,349.8c27.8,48.1,97.1,48.1,124.9,0
		C435.7,305.3,523.8,152.6,612,0h-69.4c-82.3,142.6-164.7,285.3-247,427.9C289.5,438.4,280.8,438.4,274.7,427.9"/>
	<polygon class="st4" points="145.6,108.1 285.1,108.1 299.8,108.1 222.7,241.7 	"/>
</g>
</svg>
