<svg version="1.1" id="Lager_1" xmlns="http://www.w3.org/2000/svg" x="0" y="0" viewBox="0 0 286.8 248.3" xml:space="preserve"><style>.st1{fill:#fdfbeb;stroke:#fdfbe9;stroke-width:1px}.st2{fill:#fdfbe9}</style><g id="Teckning_1_1_"><path fill="#0f1f4c" d="M73 123.7L2 246.8H286.3l-71.1-123.1L144.1.6z"/><path class="st1" d="M144.1 1.2l141.6 245.3H2.5L144.1 1.2zm0-1.2L1.7 246.6l-.3.4h285.3L144.4.5l-.3-.5z"/><path class="st2" d="M207.3 207.5c-.9 1.8-1.8 3.4-2.7 4.8-.4.6-.8 1.2-1.3 1.8-.4.6-.9 1.1-1.4 1.5-.5.4-1 .8-1.4 1.1-.5.3-1 .4-1.4.4-.5 0-.8-.3-.9-.8-.1-.5-.1-1.2.1-2.1.1-.8.4-1.8.7-2.8.3-1 .6-2 .9-2.9.2-.8.5-1.6.8-2.5l.9-2.7c.2-.6.2-1.2.1-1.8-.1-.6-.3-1.1-.7-1.6-.3-.5-.8-.8-1.3-1.1-.5-.3-1-.4-1.6-.4-.4 0-.8 0-1.3.1s-1 .3-1.6.6c-.6.3-1.2.8-1.8 1.4-.6.6-1.3 1.4-1.9 2.4-.5.8-1 1.7-1.4 2.5-.4.9-.9 1.7-1.3 2.5l1.6-5.9c.1-.5.1-.9 0-1.4-.1-.5-.3-.9-.6-1.2-.3-.3-.6-.6-1-.8-.4-.2-.9-.3-1.3-.3h-1l-2.5 9.2c-.8 1.7-1.7 3.2-2.5 4.5-.4.6-.8 1.2-1.3 1.8-.4.6-.9 1.1-1.4 1.5-.5.4-1 .8-1.4 1.1-.5.3-1 .4-1.4.4-.5 0-.8-.3-.9-.8-.1-.5-.1-1.2.1-2.1.1-.8.4-1.7.7-2.7.3-1 .6-1.9.9-2.9.3-.9.6-1.9.9-3 .3-1.1.7-2.1 1-3.1.3-1 .2-1.8-.4-2.6-.6-.8-1.4-1.2-2.4-1.2h-1.1c-.1.4-.3.8-.4 1.3-.1.4-.3.9-.4 1.5-.2.5-.3 1.1-.5 1.8-.2-1-.4-1.7-.7-2.3-.3-.6-.6-1.1-1-1.4-.4-.3-.7-.6-1.1-.7-.4-.1-.8-.1-1.1-.1-1.1 0-2.3.3-3.5.9-1.2.6-2.3 1.5-3.3 2.7-1 1.2-1.8 2.7-2.5 4.4-.1.3-.2.6-.3 1l-.3.6c-.2.3-.3.6-.5.9-.2.3-.4.7-.6 1.1-.4.6-.8 1.4-1.3 2.2-.5.8-1 1.6-1.6 2.4-.6.8-1.2 1.5-1.9 2.2-.7.7-1.4 1.1-2.2 1.5l4.2-16.1c.3-1 .1-1.9-.5-2.6-.6-.8-1.4-1.2-2.4-1.2h-1c-.1.3-.2.6-.3 1-.1.3-.2.7-.3 1.2-.1.5-.2 1-.4 1.6-.2-.8-.5-1.4-.8-1.9-.3-.5-.6-.9-1-1.1-.3-.3-.7-.4-1-.5-.4-.1-.7-.1-1-.1-1.1 0-2.3.3-3.5.9-1.2.6-2.3 1.5-3.3 2.7-1 1.2-1.8 2.7-2.5 4.4-.1.3-.2.6-.3 1-.8 1.7-1.7 3.3-2.6 4.6-.8 1.2-1.7 2.3-2.7 3.3-1 1-1.9 1.5-2.8 1.5-.5 0-.8-.3-.9-.8-.1-.5-.1-1.2.1-2.1.1-.8.4-1.8.7-2.8.3-1 .6-2 .9-2.9.3-.9.6-1.9.9-3.1.3-1.1.7-2.2 1-3.1.3-1 .1-1.8-.4-2.6-.6-.8-1.4-1.2-2.4-1.2h-1c0 .2-.1.4-.2.6-.1.2-.2.4-.2.7-.1.3-.2.5-.2.9-.4 1.2-.9 2.7-1.6 4.5-.7 1.8-1.5 3.6-2.3 5.3-.9 1.7-1.8 3.2-2.9 4.5-1 1.3-2.1 1.9-3.2 2-.5 0-.8-.2-.9-.7-.1-.5-.1-1.2.1-2.1.1-.8.4-1.8.7-2.8.3-1 .6-2 .9-2.9.3-.9.6-1.9.9-3.1.3-1.1.7-2.2 1-3.1.3-1 .2-1.8-.4-2.6-.6-.8-1.4-1.2-2.4-1.2h-1.1c-.6 1.9-1.1 3.6-1.6 5.3-.4 1.2-.7 2.4-1 3.7-.8 1.8-1.7 3.3-2.6 4.7-.8 1.2-1.7 2.3-2.7 3.3-1 1-1.9 1.5-2.8 1.5-.5 0-.8-.3-.9-.8-.1-.5-.1-1.2.1-2.1.1-.8.4-1.8.7-2.8.3-1 .6-2 .9-2.9l3.7-12.1c.7.1 1.4.1 2.1 0 .7-.1 1.4-.2 2-.4.8-.3 1.3-.7 1.6-1.2.3-.5.4-1 .3-1.4 0-.6-.2-1.1-.6-1.7-.6.8-1.3 1.4-2 1.6-.7.3-1.6.4-2.5.4.3-1 .6-2 .9-2.9.3-.9.5-1.8.7-2.5.3-1 .1-1.8-.5-2.7-.6-.8-1.4-1.2-2.4-1.2h-1.1c-.2.8-.5 1.6-.8 2.6-.2.8-.5 1.7-.9 2.8-.3 1.1-.7 2.3-1 3.5H105c-1.2 0-2.1.1-2.9.4-.8.3-1.3.7-1.8 1.1-.4.4-.7.8-.9 1.1-.2.4-.2.6-.2.6.4-.2.9-.4 1.3-.5.4-.1.8-.2 1.3-.3.5-.1 1-.1 1.6-.1.3 0 .6 0 .9.1.3 0 .6.1.9.1l-1.5 5.1c-.5 1.7-1 3.4-1.4 4.9-.2.7-.3 1.3-.5 1.9-.1.2-.2.4-.4.7-.2.3-.3.6-.5.9-.2.3-.4.7-.6 1.1-.4.7-.9 1.4-1.5 2.3-.7.8-1.4 1.7-2.2 2.4.4-1.2.3-2.5 0-3.9-.4-1.4-1.3-2.7-2.8-4-1.2-1.1-2.1-2.2-2.6-3.3-.5-1.1-.8-2.1-.8-2.9 0-.9.2-1.5.6-2 .4-.5.9-.6 1.5-.5.1-.4.1-.7-.1-1-.1-.2-.3-.4-.6-.6-.3-.2-.7-.2-1.3-.1-1 .1-1.9.6-2.5 1.5-.6.9-1.1 2-1.3 3.2-.5 1.7-.9 3.2-1.4 4.3-.2.7-.5 1.3-.7 1.9l1.1.2c0-.2.1-.5.3-.8.1-.2.2-.5.4-.8.2-.3.3-.7.5-1.1.1.4.3.9.4 1.3.2.4.4.8.6 1.1.6 1 1.2 1.8 1.8 2.5.6.7 1.1 1.3 1.5 1.8.4.5.7 1 1 1.5.2.5.4.9.5 1.5.1.4.1.9-.1 1.3-.1.3-.3.6-.6.9-.3.3-.8.5-1.4.5-.7.1-1.2-.1-1.7-.5s-.7-.9-.9-1.4c-.1-.5-.1-1 .2-1.5.2-.5.7-.8 1.4-1-.4-.6-.8-1-1.2-1.3-.4-.2-.9-.3-1.5-.3s-1.2.4-1.9 1.1c-.6.6-.9 1.3-1 2.1-.1.8 0 1.7.3 2.5.4.8 1 1.5 1.8 2.1.8.6 1.9.9 3.3 1h.1c.7 0 1.3-.1 1.8-.2s1-.2 1.4-.4c1.1-.4 2.1-.9 3-1.6.9-.7 1.7-1.4 2.4-2.2.7-.8 1.3-1.6 1.9-2.5.1-.2.3-.5.4-.7-.1.6-.2 1.3-.4 2.1-.1.9-.1 1.7 0 2.5.2.8.5 1.5 1.2 2.1.6.6 1.6.8 3 .8.7 0 1.3-.2 2-.5.7-.4 1.3-.8 1.9-1.4.6-.6 1.2-1.2 1.8-1.9.6-.7 1.1-1.5 1.6-2.3.3-.5.6-1.1 1-1.7v.1c-.1.7-.2 1.5-.4 2.4-.1.9-.1 1.8 0 2.6.2.8.5 1.5 1.1 2.1.6.6 1.6.8 2.9.7 1.5-.1 2.9-.7 4.3-2 1.3-1.2 2.5-2.7 3.6-4.5-.1.7-.2 1.4-.2 2.2 0 .8.1 1.5.3 2.1.2.6.7 1.2 1.3 1.6.6.4 1.5.6 2.6.6.7 0 1.3-.2 2-.5.7-.4 1.3-.8 1.9-1.4.6-.6 1.2-1.2 1.8-1.9.6-.7 1.1-1.5 1.6-2.3.5-.8 1-1.6 1.4-2.5v1.3c0 .2.1.8.2 1.5.1.8.4 1.6.7 2.5.4.9.9 1.6 1.7 2.3.7.7 1.7 1 3 1 .9 0 1.8-.2 2.5-.7.8-.5 1.5-1.1 2.1-1.9l-1.2 4.7-4.1 2.9c-1.7 1.2-2.9 2.3-3.6 3.4-.7 1.1-1.2 2-1.3 2.9-.2.9-.1 1.6.1 2.2.3.6.5 1.1.7 1.5.1.1.1.2.2.2 0 .1.1.1.2.2l.1.1c.2.2.4.3.6.5.2.2.5.3.8.5.7.4 1.4.5 2 .5.6 0 1.2-.1 1.8-.4.5-.2 1-.5 1.5-.9.4-.4.8-.7 1.1-1 .6-.6 1.1-1.4 1.5-2.3.4-.9.8-1.8 1.1-2.8.3-.9.6-1.8.8-2.6.2-.8.4-1.4.5-1.9l1.1-4.5h.1c.1 0 .2-.1.4-.3.2-.1.4-.3.6-.4.2-.2.5-.3.8-.5.6-.4 1.2-.9 1.9-1.6.6-.7 1.3-1.5 1.9-2.3.6-.8 1.2-1.6 1.7-2.5.4-.6.7-1.2 1-1.7v1.3c0 .2.1.8.2 1.5.1.8.4 1.6.7 2.5.4.9.9 1.6 1.7 2.3.7.7 1.7 1 3 1s2.4-.4 3.3-1.3c.9-.8 1.7-1.9 2.4-3.1 0 .6.1 1.1.2 1.6s.3 1 .6 1.4c.3.4.7.7 1.3 1 .6.2 1.3.4 2.1.4.7 0 1.3-.2 2-.5.7-.4 1.3-.8 1.9-1.4.6-.6 1.2-1.2 1.8-1.9.6-.7 1.1-1.5 1.6-2.3.2-.3.4-.6.5-.9l-1.9 7h5c.4-1.5.9-3 1.5-4.5s1.3-3.2 2.3-5.2c1.3-2.6 2.3-4.6 3.1-6 .8-1.4 1.5-2.4 2-3 .5-.6.9-.9 1.2-1h.8c.2 0 .3.2.4.4.1.3.1.5.1.9s0 .8-.1 1.3c-.2.8-.5 1.6-.7 2.4-.2.9-.5 1.7-.7 2.5l-.6 2.4c-.2.7-.3 1.4-.4 1.9-.1.7-.2 1.5-.4 2.3-.1.9-.1 1.7 0 2.5.2.8.5 1.5 1.1 2.1.6.6 1.6.8 2.9.8.7 0 1.3-.2 2-.5.7-.4 1.3-.8 1.9-1.4.6-.6 1.2-1.2 1.8-1.9.6-.7 1.1-1.5 1.6-2.3 1.1-1.8 2.2-3.9 3.2-6.2l-1.3-.2zM144.4 227c-.3 1-.6 1.9-1 2.7-.4.8-.7 1.5-1.1 2-.4.5-.7.9-1.1 1-.2.1-.5.1-.7.1-.4-.1-.7-.5-.9-1.3-.1-.5 0-1 .2-1.7.2-.6.5-1.2.9-1.8.6-.7 1.2-1.4 2-2.1.8-.7 1.6-1.3 2.5-2-.2 1.1-.5 2.1-.8 3.1m5.4-21l-1.4 5.5c-.3.7-.6 1.4-1 2.1-.4.7-.8 1.4-1.2 2-.4.6-.9 1.1-1.3 1.5-.5.4-.9.6-1.3.6-.8 0-1.5-.5-1.8-1.5-.4-1-.5-2.4-.4-4.3 0-1.2.3-2.4.8-3.6.5-1.3 1-2.5 1.7-3.5.7-1.1 1.4-2 2.2-2.7.8-.7 1.5-1 2.1-1 .4 0 .8.1 1.1.4.3.3.5.7.6 1.1.1.5.2 1 .2 1.6-.2.6-.3 1.2-.3 1.8m22.1.8c-.1 1-.3 1.8-.5 2.6-.2.6-.4 1.4-.8 2.3-.4.9-.9 1.9-1.4 2.7-.5.9-1.1 1.7-1.7 2.3-.6.7-1.2 1-1.7 1-.8 0-1.4-.5-1.8-1.5-.4-1-.5-2.4-.4-4.3 0-1.2.3-2.4.8-3.6.5-1.3 1-2.5 1.7-3.5.7-1.1 1.4-2 2.2-2.7.8-.7 1.5-1 2.1-1 .6 0 1.1.3 1.4.9.3.6.4 1.3.4 2.2-.1.7-.1 1.6-.3 2.6"/><path class="st1" d="M74.1 211.1l-35.3-1.7 35.3-1.8zM214.4 208.9l34.5 1.8-34.5 1.8z"/><path class="st2" d="M119.2 33.7h20.4v136.6h-20.4L25.8 33.7h24.9l68.5 100.7zM249.8 85.8c0-28.8-23.3-52.1-52.1-52.1h-48v136.7h20.5V138h33l17.3 32.3h25.3l-22.8-39c16-8.8 26.8-25.9 26.8-45.5m-50.3 32.4h-29.6V54h29.7c15.7 0 28.6 12.3 29.7 27.7.2 1.4.3 2.7.3 4.1 0 1.2-.1 2.3-.2 3.5-.6 15.9-13.8 28.9-29.9 28.9"/></g></svg>