<?xml version="1.0" encoding="utf-8"?>
<!-- Generator: Adobe Illustrator 22.1.0, SVG Export Plug-In . SVG Version: 6.00 Build 0)  -->
<svg version="1.1" id="Lager_1" xmlns="http://www.w3.org/2000/svg" xmlns:xlink="http://www.w3.org/1999/xlink" x="0px" y="0px"
	 viewBox="0 0 286.8 248.3" style="enable-background:new 0 0 286.8 248.3;" xml:space="preserve">
<style type="text/css">
	.st0{fill:#0f1f4c;}
	.st1{fill:#FDFBEB;stroke: #fdfbe9; stroke-width: 1px}
	.st2{fill:#FDFBE9;}
</style>
<g id="Teckning_1_1_">
	<g>
		<polygon class="st0" points="73,123.7 2,246.8 144.1,246.8 286.3,246.8 215.2,123.7 144.1,0.6 		"/>
		<path class="st1" d="M144.1,1.2l141.6,245.3H2.5L144.1,1.2z M144.1,0L1.7,246.6l-0.3,0.4h285.3L144.4,0.5L144.1,0z"/>
		<g>
			<path class="st2" d="M207.3,207.5c-0.9,1.8-1.8,3.4-2.7,4.8c-0.4,0.6-0.8,1.2-1.3,1.8c-0.4,0.6-0.9,1.1-1.4,1.5
				c-0.5,0.4-1,0.8-1.4,1.1c-0.5,0.3-1,0.4-1.4,0.4c-0.5,0-0.8-0.3-0.9-0.8c-0.1-0.5-0.1-1.2,0.1-2.1c0.1-0.8,0.4-1.8,0.7-2.8
				c0.3-1,0.6-2,0.9-2.9c0.2-0.8,0.5-1.6,0.8-2.5c0.3-0.9,0.6-1.8,0.9-2.7c0.2-0.6,0.2-1.2,0.1-1.8c-0.1-0.6-0.3-1.1-0.7-1.6
				c-0.3-0.5-0.8-0.8-1.3-1.1c-0.5-0.3-1-0.4-1.6-0.4c-0.4,0-0.8,0-1.3,0.1c-0.5,0.1-1,0.3-1.6,0.6c-0.6,0.3-1.2,0.8-1.8,1.4
				c-0.6,0.6-1.3,1.4-1.9,2.4c-0.5,0.8-1,1.7-1.4,2.5c-0.4,0.9-0.9,1.7-1.3,2.5l1.6-5.9c0.1-0.5,0.1-0.9,0-1.4
				c-0.1-0.5-0.3-0.9-0.6-1.2c-0.3-0.3-0.6-0.6-1-0.8c-0.4-0.2-0.9-0.3-1.3-0.3h-1l-2.5,9.2c-0.8,1.7-1.7,3.2-2.5,4.5
				c-0.4,0.6-0.8,1.2-1.3,1.8c-0.4,0.6-0.9,1.1-1.4,1.5c-0.5,0.4-1,0.8-1.4,1.1c-0.5,0.3-1,0.4-1.4,0.4c-0.5,0-0.8-0.3-0.9-0.8
				c-0.1-0.5-0.1-1.2,0.1-2.1c0.1-0.8,0.4-1.7,0.7-2.7c0.3-1,0.6-1.9,0.9-2.9c0.3-0.9,0.6-1.9,0.9-3c0.3-1.1,0.7-2.1,1-3.1
				c0.3-1,0.2-1.8-0.4-2.6c-0.6-0.8-1.4-1.2-2.4-1.2h-1.1c-0.1,0.4-0.3,0.8-0.4,1.3c-0.1,0.4-0.3,0.9-0.4,1.5
				c-0.2,0.5-0.3,1.1-0.5,1.8c-0.2-1-0.4-1.7-0.7-2.3c-0.3-0.6-0.6-1.1-1-1.4c-0.4-0.3-0.7-0.6-1.1-0.7c-0.4-0.1-0.8-0.1-1.1-0.1
				c-1.1,0-2.3,0.3-3.5,0.9c-1.2,0.6-2.3,1.5-3.3,2.7c-1,1.2-1.8,2.7-2.5,4.4c-0.1,0.3-0.2,0.6-0.3,1c-0.1,0.2-0.2,0.4-0.3,0.6
				c-0.2,0.3-0.3,0.6-0.5,0.9c-0.2,0.3-0.4,0.7-0.6,1.1c-0.4,0.6-0.8,1.4-1.3,2.2c-0.5,0.8-1,1.6-1.6,2.4c-0.6,0.8-1.2,1.5-1.9,2.2
				c-0.7,0.7-1.4,1.1-2.2,1.5l4.2-16.1c0.3-1,0.1-1.9-0.5-2.6c-0.6-0.8-1.4-1.2-2.4-1.2h-1c-0.1,0.3-0.2,0.6-0.3,1
				c-0.1,0.3-0.2,0.7-0.3,1.2c-0.1,0.5-0.2,1-0.4,1.6c-0.2-0.8-0.5-1.4-0.8-1.9c-0.3-0.5-0.6-0.9-1-1.1c-0.3-0.3-0.7-0.4-1-0.5
				c-0.4-0.1-0.7-0.1-1-0.1c-1.1,0-2.3,0.3-3.5,0.9c-1.2,0.6-2.3,1.5-3.3,2.7c-1,1.2-1.8,2.7-2.5,4.4c-0.1,0.3-0.2,0.6-0.3,1
				c-0.8,1.7-1.7,3.3-2.6,4.6c-0.8,1.2-1.7,2.3-2.7,3.3c-1,1-1.9,1.5-2.8,1.5c-0.5,0-0.8-0.3-0.9-0.8c-0.1-0.5-0.1-1.2,0.1-2.1
				c0.1-0.8,0.4-1.8,0.7-2.8c0.3-1,0.6-2,0.9-2.9c0.3-0.9,0.6-1.9,0.9-3.1c0.3-1.1,0.7-2.2,1-3.1c0.3-1,0.1-1.8-0.4-2.6
				c-0.6-0.8-1.4-1.2-2.4-1.2h-1c0,0.2-0.1,0.4-0.2,0.6c-0.1,0.2-0.2,0.4-0.2,0.7c-0.1,0.3-0.2,0.5-0.2,0.9
				c-0.4,1.2-0.9,2.7-1.6,4.5c-0.7,1.8-1.5,3.6-2.3,5.3c-0.9,1.7-1.8,3.2-2.9,4.5c-1,1.3-2.1,1.9-3.2,2c-0.5,0-0.8-0.2-0.9-0.7
				c-0.1-0.5-0.1-1.2,0.1-2.1c0.1-0.8,0.4-1.8,0.7-2.8c0.3-1,0.6-2,0.9-2.9c0.3-0.9,0.6-1.9,0.9-3.1c0.3-1.1,0.7-2.2,1-3.1
				c0.3-1,0.2-1.8-0.4-2.6c-0.6-0.8-1.4-1.2-2.4-1.2h-1.1c-0.6,1.9-1.1,3.6-1.6,5.3c-0.4,1.2-0.7,2.4-1,3.7
				c-0.8,1.8-1.7,3.3-2.6,4.7c-0.8,1.2-1.7,2.3-2.7,3.3c-1,1-1.9,1.5-2.8,1.5c-0.5,0-0.8-0.3-0.9-0.8c-0.1-0.5-0.1-1.2,0.1-2.1
				c0.1-0.8,0.4-1.8,0.7-2.8c0.3-1,0.6-2,0.9-2.9l3.7-12.1c0.7,0.1,1.4,0.1,2.1,0c0.7-0.1,1.4-0.2,2-0.4c0.8-0.3,1.3-0.7,1.6-1.2
				c0.3-0.5,0.4-1,0.3-1.4c0-0.6-0.2-1.1-0.6-1.7c-0.6,0.8-1.3,1.4-2,1.6c-0.7,0.3-1.6,0.4-2.5,0.4c0.3-1,0.6-2,0.9-2.9
				c0.3-0.9,0.5-1.8,0.7-2.5c0.3-1,0.1-1.8-0.5-2.7c-0.6-0.8-1.4-1.2-2.4-1.2h-1.1c-0.2,0.8-0.5,1.6-0.8,2.6
				c-0.2,0.8-0.5,1.7-0.9,2.8c-0.3,1.1-0.7,2.3-1,3.5c-0.2,0-0.3,0-0.5,0c-0.2,0-0.4,0-0.6,0c-1.2,0-2.1,0.1-2.9,0.4
				c-0.8,0.3-1.3,0.7-1.8,1.1c-0.4,0.4-0.7,0.8-0.9,1.1c-0.2,0.4-0.2,0.6-0.2,0.6c0.4-0.2,0.9-0.4,1.3-0.5c0.4-0.1,0.8-0.2,1.3-0.3
				c0.5-0.1,1-0.1,1.6-0.1c0.3,0,0.6,0,0.9,0.1c0.3,0,0.6,0.1,0.9,0.1c-0.5,1.7-1,3.4-1.5,5.1c-0.5,1.7-1,3.4-1.4,4.9
				c-0.2,0.7-0.3,1.3-0.5,1.9c-0.1,0.2-0.2,0.4-0.4,0.7c-0.2,0.3-0.3,0.6-0.5,0.9c-0.2,0.3-0.4,0.7-0.6,1.1
				c-0.4,0.7-0.9,1.4-1.5,2.3c-0.7,0.8-1.4,1.7-2.2,2.4c0.4-1.2,0.3-2.5,0-3.9c-0.4-1.4-1.3-2.7-2.8-4c-1.2-1.1-2.1-2.2-2.6-3.3
				c-0.5-1.1-0.8-2.1-0.8-2.9c0-0.9,0.2-1.5,0.6-2c0.4-0.5,0.9-0.6,1.5-0.5c0.1-0.4,0.1-0.7-0.1-1c-0.1-0.2-0.3-0.4-0.6-0.6
				c-0.3-0.2-0.7-0.2-1.3-0.1c-1,0.1-1.9,0.6-2.5,1.5c-0.6,0.9-1.1,2-1.3,3.2c-0.5,1.7-0.9,3.2-1.4,4.3c-0.2,0.7-0.5,1.3-0.7,1.9
				l1.1,0.2c0-0.2,0.1-0.5,0.3-0.8c0.1-0.2,0.2-0.5,0.4-0.8c0.2-0.3,0.3-0.7,0.5-1.1c0.1,0.4,0.3,0.9,0.4,1.3
				c0.2,0.4,0.4,0.8,0.6,1.1c0.6,1,1.2,1.8,1.8,2.5c0.6,0.7,1.1,1.3,1.5,1.8c0.4,0.5,0.7,1,1,1.5c0.2,0.5,0.4,0.9,0.5,1.5
				c0.1,0.4,0.1,0.9-0.1,1.3c-0.1,0.3-0.3,0.6-0.6,0.9c-0.3,0.3-0.8,0.5-1.4,0.5c-0.7,0.1-1.2-0.1-1.7-0.5c-0.5-0.4-0.7-0.9-0.9-1.4
				c-0.1-0.5-0.1-1,0.2-1.5c0.2-0.5,0.7-0.8,1.4-1c-0.4-0.6-0.8-1-1.2-1.3c-0.4-0.2-0.9-0.3-1.5-0.3c-0.6,0-1.2,0.4-1.9,1.1
				c-0.6,0.6-0.9,1.3-1,2.1c-0.1,0.8,0,1.7,0.3,2.5c0.4,0.8,1,1.5,1.8,2.1c0.8,0.6,1.9,0.9,3.3,1h0.1c0.7,0,1.3-0.1,1.8-0.2
				c0.5-0.1,1-0.2,1.4-0.4c1.1-0.4,2.1-0.9,3-1.6c0.9-0.7,1.7-1.4,2.4-2.2c0.7-0.8,1.3-1.6,1.9-2.5c0.1-0.2,0.3-0.5,0.4-0.7
				c-0.1,0.6-0.2,1.3-0.4,2.1c-0.1,0.9-0.1,1.7,0,2.5c0.2,0.8,0.5,1.5,1.2,2.1c0.6,0.6,1.6,0.8,3,0.8c0.7,0,1.3-0.2,2-0.5
				c0.7-0.4,1.3-0.8,1.9-1.4c0.6-0.6,1.2-1.2,1.8-1.9c0.6-0.7,1.1-1.5,1.6-2.3c0.3-0.5,0.6-1.1,1-1.7c0,0,0,0,0,0.1
				c-0.1,0.7-0.2,1.5-0.4,2.4c-0.1,0.9-0.1,1.8,0,2.6c0.2,0.8,0.5,1.5,1.1,2.1c0.6,0.6,1.6,0.8,2.9,0.7c1.5-0.1,2.9-0.7,4.3-2
				c1.3-1.2,2.5-2.7,3.6-4.5c-0.1,0.7-0.2,1.4-0.2,2.2c0,0.8,0.1,1.5,0.3,2.1c0.2,0.6,0.7,1.2,1.3,1.6c0.6,0.4,1.5,0.6,2.6,0.6
				c0.7,0,1.3-0.2,2-0.5c0.7-0.4,1.3-0.8,1.9-1.4c0.6-0.6,1.2-1.2,1.8-1.9c0.6-0.7,1.1-1.5,1.6-2.3c0.5-0.8,1-1.6,1.4-2.5
				c0,0.4,0,0.9,0,1.3c0,0.2,0.1,0.8,0.2,1.5c0.1,0.8,0.4,1.6,0.7,2.5c0.4,0.9,0.9,1.6,1.7,2.3c0.7,0.7,1.7,1,3,1
				c0.9,0,1.8-0.2,2.5-0.7c0.8-0.5,1.5-1.1,2.1-1.9l-1.2,4.7l-4.1,2.9c-1.7,1.2-2.9,2.3-3.6,3.4c-0.7,1.1-1.2,2-1.3,2.9
				c-0.2,0.9-0.1,1.6,0.1,2.2c0.3,0.6,0.5,1.1,0.7,1.5c0.1,0.1,0.1,0.2,0.2,0.2c0,0.1,0.1,0.1,0.2,0.2l0.1,0.1
				c0.2,0.2,0.4,0.3,0.6,0.5c0.2,0.2,0.5,0.3,0.8,0.5c0.7,0.4,1.4,0.5,2,0.5c0.6,0,1.2-0.1,1.8-0.4c0.5-0.2,1-0.5,1.5-0.9
				c0.4-0.4,0.8-0.7,1.1-1c0.6-0.6,1.1-1.4,1.5-2.3c0.4-0.9,0.8-1.8,1.1-2.8c0.3-0.9,0.6-1.8,0.8-2.6c0.2-0.8,0.4-1.4,0.5-1.9
				l1.1-4.5h0.1c0.1,0,0.2-0.1,0.4-0.3c0.2-0.1,0.4-0.3,0.6-0.4c0.2-0.2,0.5-0.3,0.8-0.5c0.6-0.4,1.2-0.9,1.9-1.6
				c0.6-0.7,1.3-1.5,1.9-2.3c0.6-0.8,1.2-1.6,1.7-2.5c0.4-0.6,0.7-1.2,1-1.7c0,0.4,0,0.8,0,1.3c0,0.2,0.1,0.8,0.2,1.5
				c0.1,0.8,0.4,1.6,0.7,2.5c0.4,0.9,0.9,1.6,1.7,2.3c0.7,0.7,1.7,1,3,1c1.3,0,2.4-0.4,3.3-1.3c0.9-0.8,1.7-1.9,2.4-3.1
				c0,0.6,0.1,1.1,0.2,1.6c0.1,0.5,0.3,1,0.6,1.4c0.3,0.4,0.7,0.7,1.3,1c0.6,0.2,1.3,0.4,2.1,0.4c0.7,0,1.3-0.2,2-0.5
				c0.7-0.4,1.3-0.8,1.9-1.4c0.6-0.6,1.2-1.2,1.8-1.9c0.6-0.7,1.1-1.5,1.6-2.3c0.2-0.3,0.4-0.6,0.5-0.9l-1.9,7h5
				c0.4-1.5,0.9-3,1.5-4.5c0.6-1.5,1.3-3.2,2.3-5.2c1.3-2.6,2.3-4.6,3.1-6c0.8-1.4,1.5-2.4,2-3c0.5-0.6,0.9-0.9,1.2-1
				c0.3,0,0.5,0,0.8,0c0.2,0,0.3,0.2,0.4,0.4c0.1,0.3,0.1,0.5,0.1,0.9c0,0.4,0,0.8-0.1,1.3c-0.2,0.8-0.5,1.6-0.7,2.4
				c-0.2,0.9-0.5,1.7-0.7,2.5c-0.2,0.8-0.4,1.6-0.6,2.4c-0.2,0.7-0.3,1.4-0.4,1.9c-0.1,0.7-0.2,1.5-0.4,2.3c-0.1,0.9-0.1,1.7,0,2.5
				c0.2,0.8,0.5,1.5,1.1,2.1c0.6,0.6,1.6,0.8,2.9,0.8c0.7,0,1.3-0.2,2-0.5c0.7-0.4,1.3-0.8,1.9-1.4c0.6-0.6,1.2-1.2,1.8-1.9
				c0.6-0.7,1.1-1.5,1.6-2.3c1.1-1.8,2.2-3.9,3.2-6.2L207.3,207.5z M144.4,227c-0.3,1-0.6,1.9-1,2.7c-0.4,0.8-0.7,1.5-1.1,2
				c-0.4,0.5-0.7,0.9-1.1,1c-0.2,0.1-0.5,0.1-0.7,0.1c-0.4-0.1-0.7-0.5-0.9-1.3c-0.1-0.5,0-1,0.2-1.7c0.2-0.6,0.5-1.2,0.9-1.8
				c0.6-0.7,1.2-1.4,2-2.1c0.8-0.7,1.6-1.3,2.5-2C145,225,144.7,226,144.4,227 M149.8,206l-1.4,5.5c-0.3,0.7-0.6,1.4-1,2.1
				c-0.4,0.7-0.8,1.4-1.2,2c-0.4,0.6-0.9,1.1-1.3,1.5c-0.5,0.4-0.9,0.6-1.3,0.6c-0.8,0-1.5-0.5-1.8-1.5c-0.4-1-0.5-2.4-0.4-4.3
				c0-1.2,0.3-2.4,0.8-3.6c0.5-1.3,1-2.5,1.7-3.5c0.7-1.1,1.4-2,2.2-2.7c0.8-0.7,1.5-1,2.1-1c0.4,0,0.8,0.1,1.1,0.4
				c0.3,0.3,0.5,0.7,0.6,1.1c0.1,0.5,0.2,1,0.2,1.6C149.9,204.8,149.8,205.4,149.8,206 M171.9,206.8c-0.1,1-0.3,1.8-0.5,2.6
				c-0.2,0.6-0.4,1.4-0.8,2.3c-0.4,0.9-0.9,1.9-1.4,2.7c-0.5,0.9-1.1,1.7-1.7,2.3c-0.6,0.7-1.2,1-1.7,1c-0.8,0-1.4-0.5-1.8-1.5
				c-0.4-1-0.5-2.4-0.4-4.3c0-1.2,0.3-2.4,0.8-3.6c0.5-1.3,1-2.5,1.7-3.5c0.7-1.1,1.4-2,2.2-2.7c0.8-0.7,1.5-1,2.1-1
				c0.6,0,1.1,0.3,1.4,0.9c0.3,0.6,0.4,1.3,0.4,2.2C172.1,204.9,172.1,205.8,171.9,206.8"/>
			<polygon class="st1" points="74.1,211.1 38.8,209.4 74.1,207.6 			"/>
			<polygon class="st1" points="214.4,208.9 248.9,210.7 214.4,212.5 			"/>
			<polygon class="st2" points="119.2,33.7 139.6,33.7 139.6,170.3 119.2,170.3 25.8,33.7 50.7,33.7 119.2,134.4 			"/>
			<path class="st2" d="M249.8,85.8c0-28.8-23.3-52.1-52.1-52.1h-48v20.1l0,0v64h0v52.4h0v0.2h20.5V138h33l17.3,32.3h25.3l-22.8-39
				C239,122.5,249.8,105.4,249.8,85.8 M199.5,118.2h-29.6V54h4l0,0h23.9c0.2,0,0.5,0,0.7,0h1.1c15.7,0,28.6,12.3,29.7,27.7
				c0.2,1.4,0.3,2.7,0.3,4.1c0,1.2-0.1,2.3-0.2,3.5C228.8,105.2,215.6,118.2,199.5,118.2"/>
		</g>
	</g>
</g>
</svg>
