<svg width="114" height="46" viewBox="0 0 114 46" fill="none" xmlns="http://www.w3.org/2000/svg">
<path d="M74.9316 12.3816C73.3616 12.3816 72.2716 13.0797 71.7483 14.4102C69.5149 13.0633 67.0649 12.3816 64.4516 12.3816H64.2249C60.3883 12.3816 57.0616 13.7384 54.3383 16.4159C51.6149 19.0935 50.2349 22.3609 50.2349 26.1364V32.2452C50.2349 36.0174 51.6149 39.2881 54.3383 41.9657C57.0583 44.6432 60.3849 46 64.2249 46H64.4516C67.0849 46 69.5349 45.3183 71.7483 43.9746C72.2716 45.3052 73.3616 46 74.9316 46C75.8983 46 76.7249 45.6657 77.3983 45.007C78.0916 44.3253 78.4416 43.4994 78.4416 42.5523V15.7965C78.4416 14.8691 78.0916 14.053 77.3983 13.3713C76.7249 12.7159 75.8949 12.3816 74.9316 12.3816ZM57.2183 26.1331C57.2183 24.2093 57.8883 22.6166 59.2683 21.2598C60.6483 19.903 62.2683 19.2442 64.2249 19.2442H64.4516C66.3849 19.2442 67.9949 19.903 69.3783 21.2598C70.7783 22.6166 71.4583 24.2093 71.4583 26.1298V32.2452C71.4583 34.1657 70.7783 35.7585 69.3749 37.1185C67.9949 38.4753 66.3849 39.1341 64.4516 39.1341H64.2249C62.2683 39.1341 60.6483 38.4753 59.2683 37.1185C57.8883 35.7618 57.2183 34.169 57.2183 32.2452V26.1331Z" fill="white"/>
<path d="M87.2982 12.4766C86.3349 12.4766 85.4982 12.8076 84.8016 13.4696C84.1316 14.1284 83.7916 14.9444 83.7916 15.8948V42.549C83.7916 43.4961 84.1282 44.3187 84.7949 45.0004L84.8049 45.0102C85.4949 45.6657 86.3349 45.9967 87.2982 45.9967C88.2382 45.9967 89.0649 45.6657 89.7682 44.9971C90.4349 44.3187 90.7716 43.4929 90.7716 42.5457V15.8916C90.7716 14.9411 90.4316 14.1284 89.7549 13.4631C89.0649 12.8076 88.2382 12.4766 87.2982 12.4766Z" fill="white"/>
<path d="M87.2982 1.63538C86.2249 1.63538 85.2982 2.01226 84.5415 2.75621C83.7849 3.50015 83.4016 4.41124 83.4016 5.46652C83.4016 6.50215 83.7849 7.4034 84.5415 8.14735C85.2982 8.89129 86.2249 9.26818 87.2982 9.26818C88.3482 9.26818 89.2682 8.89129 90.0249 8.14735C90.7815 7.4034 91.1649 6.50215 91.1649 5.46652C91.1649 4.41124 90.7815 3.50015 90.0249 2.75621C89.2649 2.01226 88.3482 1.63538 87.2982 1.63538Z" fill="white"/>
<path d="M111.958 40.1238C111.288 39.4651 110.458 39.1308 109.492 39.1308H109.458C107.502 39.1308 105.882 38.4721 104.502 37.1153C103.122 35.7585 102.452 34.1657 102.452 32.2419V19.7588H106.918C107.888 19.7588 108.718 19.4114 109.378 18.7395C110.075 18.0808 110.428 17.2615 110.428 16.3111C110.428 15.3606 110.075 14.5413 109.385 13.8859C108.715 13.2271 107.885 12.8928 106.922 12.8928H102.455V3.41493C102.455 2.49074 102.118 1.67797 101.438 0.986463C100.748 0.331006 99.9182 0 98.9782 0C98.0149 0 97.1782 0.331006 96.4749 0.999572C95.8082 1.67797 95.4716 2.49402 95.4716 3.41821V32.2452C95.4716 36.0174 96.8516 39.2881 99.5749 41.9657C102.295 44.6432 105.622 46 109.462 46H109.495C110.462 46 111.288 45.6657 111.962 45.007C112.655 44.3253 113.005 43.4994 113.005 42.5523C113.002 41.6215 112.652 40.8055 111.958 40.1238Z" fill="white"/>
<path d="M39.6216 34.8474C38.1983 34.7917 36.7949 34.2968 35.6616 33.4513C34.6283 32.6778 33.8816 31.6651 33.4683 30.5541L32.9116 29.1547L27.4783 15.0657L27.4749 15.0591C27.0849 14.0759 26.3949 13.3549 25.4216 12.9158C24.4416 12.4766 23.4216 12.4471 22.3916 12.8306L22.3783 12.8339C21.4849 13.1812 20.8049 13.7777 20.3549 14.6134C20.2349 14.7773 20.1483 14.9379 20.0983 15.105L13.8783 31.2325L7.61492 15.0591L7.61159 15.0526C7.22159 14.0694 6.53159 13.3484 5.55492 12.9092C4.57159 12.4668 3.56159 12.4406 2.55159 12.824C1.52159 13.2075 0.788254 13.8924 0.364921 14.8559C-0.0750791 15.8096 -0.118412 16.7994 0.241588 17.8022L0.244921 17.8153L10.1783 43.4765C10.5683 44.5383 11.3583 45.315 12.4583 45.7214L12.6249 45.7837H12.6449C12.6549 45.787 12.6616 45.787 12.6716 45.7902C12.8049 45.8263 12.9383 45.8558 13.0716 45.8787C13.2183 45.9246 13.3516 45.9344 13.4483 45.9377C13.5983 45.9607 13.7416 45.9705 13.8783 45.9705C13.9983 45.9705 14.1316 45.9607 14.2816 45.9377C14.3916 45.9344 14.5249 45.9213 14.6649 45.8787C14.7883 45.8558 14.9183 45.8263 15.0516 45.7902C15.0616 45.787 15.0683 45.787 15.0783 45.7837H15.0983L15.2649 45.7214C16.3649 45.315 17.1549 44.5383 17.5449 43.4765L23.7783 27.3424L30.0383 43.4797C30.4283 44.5416 31.2183 45.3183 32.3183 45.7247L32.4849 45.787H32.5049C32.5149 45.7902 32.5216 45.7902 32.5316 45.7935C32.6649 45.8296 32.7949 45.8591 32.9216 45.882C33.0616 45.9213 33.1949 45.9344 33.3049 45.941C33.4549 45.9639 33.5849 45.9738 33.7083 45.9738C33.8449 45.9738 33.9883 45.9639 34.1383 45.941C34.2349 45.9377 34.3683 45.9279 34.5149 45.882C34.6549 45.8591 34.7983 45.8263 34.9383 45.787H34.9683L35.0549 45.7542L35.2049 45.7116L35.2316 45.6854C36.2683 45.2659 37.0016 44.5285 37.4083 43.4896L40.7716 34.7982C40.4816 34.8375 40.1849 34.8539 39.8849 34.8539C39.7983 34.8539 39.7083 34.8507 39.6216 34.8474Z" fill="white"/>
<path d="M45.5916 13.3091C44.9516 13.0502 44.2849 12.9191 43.6116 12.9191C42.3782 12.9191 41.2516 13.3648 40.4316 14.171C39.0282 15.554 38.7116 17.2353 39.5082 19.0345C39.8082 19.7129 40.1482 20.3716 40.5082 21.0664L40.6716 21.381C40.7049 21.4433 40.6882 21.499 40.6782 21.5285C40.6682 21.5547 40.6382 21.6072 40.5716 21.6301L40.1182 21.8005L38.1449 22.5445C37.0049 22.9771 36.1782 23.7374 35.6949 24.8058C34.8482 26.6673 35.4649 28.8696 37.1882 30.1609C38.0782 30.8262 39.1816 31.1932 40.2982 31.1932C41.2949 31.1932 42.2249 30.9114 42.9949 30.3739C44.7249 29.1679 45.3149 27.0016 44.4315 25.1073C44.1115 24.4158 43.7515 23.7472 43.3749 23.0393L43.2082 22.7247C43.1749 22.6624 43.1882 22.6035 43.1982 22.5772C43.2082 22.5477 43.2382 22.4986 43.3082 22.4724L43.6916 22.338C44.4649 22.0693 45.1949 21.8136 45.9015 21.5154C47.6949 20.7551 48.6315 19.3655 48.6115 17.4942C48.5949 15.6556 47.4349 14.0497 45.5916 13.3091Z" fill="#4873E1"/>
</svg>
