<svg xmlns="http://www.w3.org/2000/svg" width="73" height="17" viewBox="0 0 73 17">
    <defs>
        <linearGradient id="a" x1="2.961%" x2="56.008%" y1="49.997%" y2="49.997%">
            <stop offset="0%" stop-color="#FF4F4F"/>
            <stop offset="87%" stop-color="#F52A58"/>
            <stop offset="99%" stop-color="#F0165D"/>
        </linearGradient>
        <linearGradient id="b" x1="-.009%" x2="167.747%" y1="50.003%" y2="50.003%">
            <stop offset="0%" stop-color="#FF4F4F"/>
            <stop offset="87%" stop-color="#F52A58"/>
            <stop offset="99%" stop-color="#F0165D"/>
        </linearGradient>
    </defs>
    <g fill="none" fill-rule="nonzero">
        <path fill="#444" d="M36.931 3.387v-2.8A.586.586 0 0 0 36.345 0h-11.88a.586.586 0 0 0-.585.586v15.719c0 .324.262.586.586.586h11.879a.586.586 0 0 0 .586-.586v-2.801a.586.586 0 0 0-.586-.586h-7.906a.586.586 0 0 1-.586-.587v-1.31c0-.324.262-.587.586-.587h5.432a.586.586 0 0 0 .586-.586V7.045a.586.586 0 0 0-.586-.586h-5.432a.586.586 0 0 1-.586-.586V4.56c0-.324.262-.587.586-.587h7.906a.586.586 0 0 0 .586-.586zM67.185 8.441L72.081.906A.586.586 0 0 0 71.59 0h-3.34c-.2 0-.385.1-.493.267l-2.941 4.53-2.942-4.53A.586.586 0 0 0 61.383 0h-3.341a.586.586 0 0 0-.492.906l4.896 7.535-4.896 7.54a.586.586 0 0 0 .492.905h3.34c.2 0 .384-.1.492-.267l2.942-4.53 2.941 4.53a.586.586 0 0 0 .493.267h3.34a.586.586 0 0 0 .491-.905l-4.896-7.54z"/>
        <rect width="3.974" height="16.891" x="52.495" fill="#444" rx="1.987"/>
        <path fill="#444" d="M50.923 0H38.508a.586.586 0 0 0-.586.586v2.802c0 .324.262.586.586.586h4.22v12.33c0 .325.263.587.587.587h2.8a.586.586 0 0 0 .587-.586V3.975h4.22a.586.586 0 0 0 .587-.587V.586A.586.586 0 0 0 50.923 0z"/>
        <path fill="url(#a)" d="M25.144 0h-3.096a.586.586 0 0 0-.53.339l-3.684 7.9a.586.586 0 0 0-.02.444c.308.846.555 1.713.74 2.594l-.868.302s-.224-.669-.686-.567a.483.483 0 0 0-.055.016c-.31.108-.37.438-.37.674 0 .085.008.17.023.254l-.831.29a16.944 16.944 0 0 0-1.13-4.05l-1.056-2.25-2.186 4.702 2.754 5.904a.586.586 0 0 0 .53.339h3.213a.586.586 0 0 0 .532-.341L25.676.83A.586.586 0 0 0 25.144 0z"/>
        <path fill="url(#b)" d="M15.97.834l-2.383 5.111-2.192 4.703-2.753 5.904a.586.586 0 0 1-.531.339H4.895a.586.586 0 0 1-.531-.339L.056 7.31a.586.586 0 0 1 .53-.834H3.68c.228 0 .436.132.532.34L5.606 9.81a16.89 16.89 0 0 1 1.132 4.047l.832-.289a1.407 1.407 0 0 1-.022-.254v-.046-.095c0-.024.007-.049.012-.074a.667.667 0 0 1 .111-.283.48.48 0 0 1 .294-.191c.462-.102.686.566.686.566l.875-.294-.046-.235-.007-.03a21.572 21.572 0 0 0-.789-2.616l-.015-.042a30.607 30.607 0 0 0-.517-1.312.586.586 0 0 1 .007-.477L11.817.339A.586.586 0 0 1 12.349 0h3.09a.586.586 0 0 1 .532.834z"/>
        <path fill="#000" d="M10.016 12.474l-.536.188-.007-.03a21.572 21.572 0 0 0-.789-2.616c.343.87.79 1.696 1.332 2.458zM17.814 8.683c.027.076.052.152.078.234a9.85 9.85 0 0 1 .107.317l.117.352c.04.117.075.242.11.362.018.06.036.117.052.178l.05.176c.047.175.09.345.13.508.038.163.072.32.1.469l.296-.09L17.798 8.6l.016.082z" opacity=".33" style="mix-blend-mode:multiply"/>
    </g>
</svg>
