<svg xmlns="http://www.w3.org/2000/svg" xmlns:xlink="http://www.w3.org/1999/xlink" width="900px" height="135px" viewBox="0 0 900 135" version="1.1">
    <g id="Symbols" stroke="none" stroke-width="1" fill="none" fill-rule="evenodd">
        <g id="WireSecure_Logo-Full-Color" fill-rule="nonzero">
            <g id="WireSecure_Logo1-Large">
                <g id="Group" transform="translate(151.000000, 48.000000)" fill="#0B1330">
                    <polygon id="Path" points="132.76 10.26 105.69 84.56 84.14 84.56 66.84 32.87 49.43 84.56 28.1 84.56 0.93 10.26 23.12 10.26 39.36 61.32 57.09 10.26 77.05 10.26 94.77 61.32 111 10.26"/>
                    <path d="M137.27,9.94 C137.27,3.99 142.26,0.07 149.37,0.07 C156.38,0.07 161.36,4 161.36,9.94 C161.36,15.88 156.37,19.81 149.37,19.81 C142.26,19.81 137.27,15.89 137.27,9.94 Z M159.99,84.56 L138.97,84.56 L138.97,25.76 L159.99,25.76 L159.99,84.56 Z" id="Shape"/>
                    <path d="M171.13,84.56 L171.13,25.76 L192.04,25.76 L192.04,36.69 C196.92,28.41 206.16,24.38 216.66,24.38 L216.66,41.79 C204.13,41.79 195.11,46.57 192.04,56.23 L192.04,84.57 L171.13,84.57 L171.13,84.56 Z" id="Path"/>
                    <path d="M259.81,72.14 C269.15,72.14 274.78,69.91 280.61,65.45 L291.23,76.6 C282.84,84.03 272.02,87 258.64,87 C233.7,87 219.16,74.9 219.16,55.16 C219.16,35.42 233.49,23.32 257.05,23.32 C278.28,23.32 293.35,33.93 293.35,54.74 C293.35,57.07 293.24,58.45 292.82,59.62 L239.11,59.62 C240.81,68.53 247.92,72.14 259.81,72.14 Z M239.65,48.37 L274.04,48.16 C271.81,41.26 266.19,37.9699773 257.27,37.9699773 C248.24,37.96 241.98,41.25 239.65,48.37 Z" id="Shape"/>
                    <path d="M383.8,61.32 C383.8,76.6 369.68,87.01 342.72,87.01 C323.62,87.01 307.59,81.81 295.91,72.47 L307.27,59.1 C316.08,66.53 328.29,70.67 343.15,70.67 C355.89,70.67 362.25,68.34 362.25,63.45 C362.25,58.67 356.31,57.08 341.02,55.81 C318.94,53.9 298.88,49.02 298.88,32.46 C298.88,16.54 316.07,7.83 339.64,7.83 C355.56,7.83 370.21,11.65 380.4,18.87 L369.47,32.35 C361.19,26.51 351.21,24.18 339.65,24.07 C330.95,24.07 320.44,25.45 320.44,30.76 C320.44,35.75 329.04,36.39 342.3,37.45 C366.6,39.45 383.8,44.23 383.8,61.32 Z" id="Path"/>
                    <path d="M429.09,72.14 C438.43,72.14 444.06,69.91 449.9,65.45 L460.51,76.6 C452.12,84.03 441.3,87 427.92,87 C402.98,87 388.43,74.9 388.43,55.16 C388.43,35.42 402.76,23.32 426.32,23.32 C447.55,23.32 462.62,33.93 462.62,54.74 C462.62,57.07 462.51,58.45 462.09,59.62 L408.38,59.62 C410.09,68.53 417.2,72.14 429.09,72.14 Z M408.92,48.37 L443.31,48.16 C441.08,41.26 435.45,37.9699773 426.54,37.9699773 C417.52,37.96 411.26,41.25 408.92,48.37 Z" id="Shape"/>
                    <path d="M505.16,87 C481.7,87 467.05,74.69 467.05,55.16 C467.05,35.52 481.7,23.32 505.16,23.32 C522.88,23.32 533.82,31.07 538.6,40.2 L520.66,47.42 C517.58,41.48 511.96,39.35 505.37,39.35 C494.65,39.35 487.11,44.76 487.11,55.17 C487.11,65.47 494.65,70.99 505.37,70.99 C511.85,70.99 517.79,68.76 521.08,62.6 L539.02,69.92 C534.14,79.25 522.99,87 505.16,87 Z" id="Path"/>
                    <path d="M615.36,25.76 L615.36,84.56 L594.45,84.56 L594.45,75.22 C589.46,82.54 580.76,86.68 570.25,86.68 C553.16,86.68 543.93,75.75 543.93,60.36 L543.93,25.76 L564.84,25.76 L564.84,58.98 C564.84,66.62 569.19,71.08 577.15,71.08 C584.16,71.08 589.99,67.79 594.45,60.57 L594.45,25.76 L615.36,25.76 Z" id="Path"/>
                    <path d="M626.78,84.56 L626.78,25.76 L647.69,25.76 L647.69,36.69 C652.57,28.41 661.81,24.38 672.31,24.38 L672.31,41.79 C659.78,41.79 650.76,46.57 647.69,56.23 L647.69,84.57 L626.78,84.57 L626.78,84.56 Z" id="Path"/>
                    <path d="M715.46,72.14 C724.8,72.14 730.43,69.91 736.26,65.45 L746.87,76.6 C738.48,84.03 727.66,87 714.28,87 C689.34,87 674.8,74.9 674.8,55.16 C674.8,35.42 689.13,23.32 712.69,23.32 C733.92,23.32 748.99,33.93 748.99,54.74 C748.99,57.07 748.88,58.45 748.46,59.62 L694.75,59.62 C696.46,68.53 703.57,72.14 715.46,72.14 Z M695.29,48.37 L729.68,48.16 C727.45,41.26 721.83,37.9699773 712.91,37.9699773 C703.89,37.96 697.63,41.25 695.29,48.37 Z" id="Shape"/>
                </g>
                <g id="Group" fill="#3E7CEC">
                    <path d="M136.3,1.22 C125.07,4.09 116.12,10.57 109.05,25.39 L129.86,66.4 C135.73,55.18 148.41,30.91 148.41,30.91 C158.15,12.27 169.29,7.84 169.29,7.84 C166.37,5.71 153.7,-3.22 136.3,1.22 Z M143.8,15.04 C141.81,15.04 140.2,13.43 140.2,11.44 C140.2,9.45 141.81,7.84 143.8,7.84 C145.79,7.84 147.4,9.45 147.4,11.44 C147.4,13.43 145.79,15.04 143.8,15.04 Z" id="Shape"/>
                    <path d="M72.97,63.63 C72.97,63.63 61.82,41.71 55.68,29.66 C50.94,20.29 44.31,11.2 34.82,6.22 C24.33,0.72 10.53,1.67 0,7.8 C9.34,16.42 13.33,25.32 17.01,32.67 C22.58,43.82 28.3,54.87 33.96,65.98 C41.36,80.53 49.15,87.88 61.28,91.52 C69.42,93.96 81.78,94.07 89.92,87.46 C81.91,81.24 72.97,63.63 72.97,63.63 Z" id="Path"/>
                    <path d="M121,62.86 C121,62.86 109.85,40.94 103.71,28.89 C98.97,19.52 92.34,10.43 82.85,5.45 C72.36,-0.05 58.56,0.9 48.03,7.03 C57.37,15.65 61.36,24.55 65.04,31.9 C70.61,43.05 76.33,54.1 81.99,65.21 C89.39,79.76 97.18,87.11 109.31,90.75 C117.45,93.19 129.81,93.3 137.95,86.69 C129.94,80.48 121,62.86 121,62.86 Z" id="Path"/>
                </g>
            </g>
        </g>
    </g>
</svg>
