<svg width="211" height="20" viewBox="0 0 211 20" fill="none" xmlns="http://www.w3.org/2000/svg">
<path d="M5.70517 0.432434C6.35828 0.432434 6.8001 0.684685 7.03061 1.18919L9.85438 7.10811H9.96964L12.7934 1.18919C13.0239 0.684685 13.4657 0.432434 14.1188 0.432434H18.9308C19.2189 0.432434 19.4398 0.513514 19.5935 0.675675C19.7472 0.837838 19.824 1.03604 19.824 1.27027C19.824 1.46847 19.7856 1.63063 19.7088 1.75676L13.1104 12.8649V18.4865C13.1104 18.8649 13.0143 19.1441 12.8222 19.3243C12.6493 19.4865 12.3612 19.5676 11.9578 19.5676H7.86622C7.46282 19.5676 7.16507 19.4865 6.97298 19.3243C6.8001 19.1441 6.71366 18.8649 6.71366 18.4865V12.8649L0.115256 1.75676C0.0384186 1.63063 0 1.46847 0 1.27027C0 1.03604 0.0768373 0.837838 0.230512 0.675675C0.384186 0.513514 0.605093 0.432434 0.893233 0.432434H5.70517Z" fill="#FFC700"/>
<path d="M39.0967 0.432434C39.5001 0.432434 39.7883 0.522524 39.9612 0.702704C40.1532 0.864866 40.2493 1.13514 40.2493 1.51351V4.32433C40.2493 4.7027 40.1532 4.98198 39.9612 5.16216C39.7883 5.32432 39.5001 5.40541 39.0967 5.40541H31.0288V7.62162H38.4628C38.8662 7.62162 39.1544 7.71171 39.3272 7.89189C39.5193 8.05406 39.6154 8.32433 39.6154 8.7027V11.1892C39.6154 11.5676 39.5193 11.8468 39.3272 12.027C39.1544 12.1892 38.8662 12.2703 38.4628 12.2703H31.0288V14.5946H39.3272C39.7306 14.5946 40.0188 14.6847 40.1917 14.8649C40.3838 15.027 40.4798 15.2973 40.4798 15.6757V18.4865C40.4798 18.8649 40.3838 19.1441 40.1917 19.3243C40.0188 19.4865 39.7306 19.5676 39.3272 19.5676H25.7847C25.3813 19.5676 25.0835 19.4865 24.8914 19.3243C24.7186 19.1441 24.6321 18.8649 24.6321 18.4865V1.51351C24.6321 1.13514 24.7186 0.864866 24.8914 0.702704C25.0835 0.522524 25.3813 0.432434 25.7847 0.432434H39.0967Z" fill="#FFC700"/>
<path d="M51.301 0.432434C51.7044 0.432434 51.9926 0.522524 52.1654 0.702704C52.3575 0.864866 52.4536 1.13514 52.4536 1.51351V14.2703H59.5995C60.0028 14.2703 60.291 14.3604 60.4639 14.5405C60.656 14.7027 60.752 14.973 60.752 15.3514V18.4865C60.752 18.8649 60.656 19.1441 60.4639 19.3243C60.291 19.4865 60.0028 19.5676 59.5995 19.5676H47.2094C46.806 19.5676 46.5083 19.4865 46.3162 19.3243C46.1433 19.1441 46.0569 18.8649 46.0569 18.4865V1.51351C46.0569 1.13514 46.1433 0.864866 46.3162 0.702704C46.5083 0.522524 46.806 0.432434 47.2094 0.432434H51.301Z" fill="#FFC700"/>
<path d="M71.1782 0.432434C71.5816 0.432434 71.8697 0.522524 72.0426 0.702704C72.2347 0.864866 72.3307 1.13514 72.3307 1.51351V14.2703H79.4766C79.88 14.2703 80.1681 14.3604 80.341 14.5405C80.5331 14.7027 80.6292 14.973 80.6292 15.3514V18.4865C80.6292 18.8649 80.5331 19.1441 80.341 19.3243C80.1681 19.4865 79.88 19.5676 79.4766 19.5676H67.0866C66.6832 19.5676 66.3854 19.4865 66.1934 19.3243C66.0205 19.1441 65.934 18.8649 65.934 18.4865V1.51351C65.934 1.13514 66.0205 0.864866 66.1934 0.702704C66.3854 0.522524 66.6832 0.432434 67.0866 0.432434H71.1782Z" fill="#FFC700"/>
<path d="M95.2964 0C102.116 0 105.525 3.33333 105.525 10C105.525 16.6667 102.116 20 95.2964 20C88.4771 20 85.0674 16.6667 85.0674 10C85.0674 3.33333 88.4771 0 95.2964 0ZM95.2964 14.6486C96.545 14.6486 97.467 14.2973 98.0625 13.5946C98.658 12.8739 98.9557 11.6757 98.9557 10C98.9557 8.32433 98.658 7.13514 98.0625 6.43243C97.467 5.71171 96.545 5.35135 95.2964 5.35135C94.0478 5.35135 93.1257 5.71171 92.5302 6.43243C91.9347 7.13514 91.637 8.32433 91.637 10C91.637 11.6757 91.9347 12.8739 92.5302 13.5946C93.1257 14.2973 94.0478 14.6486 95.2964 14.6486Z" fill="#FFC700"/>
<path d="M115.162 0.432434C115.566 0.432434 115.864 0.513514 116.056 0.675675C116.267 0.81982 116.401 1.05405 116.459 1.37838L118.476 12H118.591L121.588 1.37838C121.684 1.03604 121.828 0.792793 122.02 0.648648C122.231 0.504505 122.539 0.432434 122.942 0.432434H127.552C127.956 0.432434 128.254 0.504505 128.446 0.648648C128.657 0.792793 128.811 1.03604 128.907 1.37838L131.903 12H132.019L134.036 1.37838C134.093 1.05405 134.218 0.81982 134.41 0.675675C134.622 0.513514 134.929 0.432434 135.332 0.432434H139.683C139.971 0.432434 140.192 0.513514 140.346 0.675675C140.519 0.81982 140.605 1.02703 140.605 1.2973C140.605 1.36937 140.586 1.4955 140.548 1.67568L136.139 18.6216C136.062 18.964 135.909 19.2072 135.678 19.3514C135.448 19.4955 135.131 19.5676 134.727 19.5676H129.368C128.945 19.5676 128.628 19.5045 128.417 19.3784C128.206 19.2342 128.052 18.982 127.956 18.6216L125.19 8.32433H125.074L122.308 18.6216C122.212 18.982 122.059 19.2342 121.847 19.3784C121.636 19.5045 121.319 19.5676 120.896 19.5676H115.652C115.249 19.5676 114.932 19.4955 114.701 19.3514C114.471 19.2072 114.317 18.964 114.24 18.6216L109.832 1.67568C109.793 1.4955 109.774 1.36036 109.774 1.27027C109.774 1.01802 109.851 0.81982 110.005 0.675675C110.178 0.513514 110.408 0.432434 110.696 0.432434H115.162Z" fill="#FFC700"/>
<path d="M154.877 0.432434C157.605 0.432434 159.631 0.972974 160.957 2.05405C162.282 3.13514 162.945 4.90991 162.945 7.37838C162.945 9.84685 162.292 11.6216 160.985 12.7027C159.679 13.7838 157.662 14.3243 154.935 14.3243H152.053V18.4865C152.053 18.8649 151.957 19.1441 151.765 19.3243C151.592 19.4865 151.304 19.5676 150.901 19.5676H146.809C146.406 19.5676 146.108 19.4865 145.916 19.3243C145.743 19.1441 145.656 18.8649 145.656 18.4865V1.51351C145.656 1.13514 145.743 0.864866 145.916 0.702704C146.108 0.522524 146.406 0.432434 146.809 0.432434H154.877ZM152.053 9.51351H154.012C154.915 9.51351 155.549 9.36937 155.914 9.08108C156.298 8.79279 156.49 8.26126 156.49 7.48649C156.49 6.71171 156.298 6.18018 155.914 5.89189C155.549 5.6036 154.915 5.45946 154.012 5.45946H152.053V9.51351Z" fill="#FFC700"/>
<path d="M178.001 0C184.821 0 188.23 3.33333 188.23 10C188.23 16.6667 184.821 20 178.001 20C171.182 20 167.773 16.6667 167.773 10C167.773 3.33333 171.182 0 178.001 0ZM178.001 14.6486C179.25 14.6486 180.172 14.2973 180.768 13.5946C181.363 12.8739 181.661 11.6757 181.661 10C181.661 8.32433 181.363 7.13514 180.768 6.43243C180.172 5.71171 179.25 5.35135 178.001 5.35135C176.753 5.35135 175.831 5.71171 175.235 6.43243C174.64 7.13514 174.342 8.32433 174.342 10C174.342 11.6757 174.64 12.8739 175.235 13.5946C175.831 14.2973 176.753 14.6486 178.001 14.6486Z" fill="#FFC700"/>
<path d="M202.932 0.432434C205.66 0.432434 207.686 0.972974 209.012 2.05405C210.337 3.13514 211 4.90991 211 7.37838C211 9.84685 210.347 11.6216 209.041 12.7027C207.734 13.7838 205.717 14.3243 202.99 14.3243H200.108V18.4865C200.108 18.8649 200.012 19.1441 199.82 19.3243C199.647 19.4865 199.359 19.5676 198.956 19.5676H194.864C194.461 19.5676 194.163 19.4865 193.971 19.3243C193.798 19.1441 193.712 18.8649 193.712 18.4865V1.51351C193.712 1.13514 193.798 0.864866 193.971 0.702704C194.163 0.522524 194.461 0.432434 194.864 0.432434H202.932ZM200.108 9.51351H202.068C202.971 9.51351 203.604 9.36937 203.969 9.08108C204.354 8.79279 204.546 8.26126 204.546 7.48649C204.546 6.71171 204.354 6.18018 203.969 5.89189C203.604 5.6036 202.971 5.45946 202.068 5.45946H200.108V9.51351Z" fill="#FFC700"/>
</svg>
