			<svg xmlns="http://www.w3.org/2000/svg" xmlns:xlink="http://www.w3.org/1999/xlink" viewBox="0 0 227.734 47.341">
				<defs>
					<style>
					.cls-1, .cls-2, .cls-3 {
						fill-rule: evenodd;
					}

					.cls-1 {
						fill: url(#linear-gradient);
					}

					.cls-2 {
						fill: url(#linear-gradient-2);
					}

					.cls-3 {
						fill: #290a33;
					}
					</style>
					<linearGradient id="linear-gradient" x1="-43.238" y1="166.116" x2="-44.054" y2="166.116" gradientTransform="matrix(43.628, 0, 0, -18.323, 1926.076, 3053.317)" gradientUnits="userSpaceOnUse">
					<stop offset="0" stop-color="#24d394" stop-opacity="0.2"/>
					<stop offset="1" stop-color="#24d394"/>
					</linearGradient>
					<linearGradient id="linear-gradient-2" x1="-44.059" y1="166.116" x2="-43.232" y2="166.116" gradientTransform="matrix(43.628, 0, 0, -18.323, 1926.076, 3081.054)" xlink:href="#linear-gradient"/>
				</defs>
				
				<g id="Layer_2" data-name="Layer 2">
					<g id="Layer_1-2" data-name="Layer 1">
					<g>
						<path class="cls-1" d="M21.81.42,20.032.49a23.737,23.737,0,0,0-5.248,1.025,23.2,23.2,0,0,0-7.772,4.27,24.016,24.016,0,0,0-3.93,4.228A22.794,22.794,0,0,0,0,15.917l2.046.707,2.046.706,2.046.707,2.046.706a14.164,14.164,0,0,1,1.927-3.683,15.412,15.412,0,0,1,2.46-2.65,14.563,14.563,0,0,1,4.85-2.666,15.168,15.168,0,0,1,3.272-.639c.747-.023,1.12-.046,1.12-.046h0s.373.023,1.119.046a15.111,15.111,0,0,1,3.272.64,14.522,14.522,0,0,1,4.85,2.665,15.412,15.412,0,0,1,2.46,2.65,14.167,14.167,0,0,1,1.928,3.683l2.046-.706,2.045-.707,2.046-.706,2.046-.707a22.81,22.81,0,0,0-3.082-5.9,24.047,24.047,0,0,0-3.93-4.227,23.177,23.177,0,0,0-7.772-4.271A23.731,23.731,0,0,0,23.6.49L21.817.42H21.81Z"/>
						<path class="cls-2" d="M33.517,31.84a15.412,15.412,0,0,1-2.46,2.65,14.558,14.558,0,0,1-4.85,2.665,15.173,15.173,0,0,1-3.272.64c-.746.022-1.119.045-1.119.045h0s-.372-.023-1.119-.046a15.06,15.06,0,0,1-3.272-.64,14.5,14.5,0,0,1-4.85-2.665,15.412,15.412,0,0,1-2.46-2.65,14.164,14.164,0,0,1-1.927-3.683l-2.046.707-2.046.706-2.046.706L0,30.982a22.81,22.81,0,0,0,3.082,5.9,24.053,24.053,0,0,0,3.93,4.228,23.182,23.182,0,0,0,7.772,4.27,23.727,23.727,0,0,0,5.248,1.025l1.779.07h.007l1.779-.07a23.776,23.776,0,0,0,5.247-1.024,23.2,23.2,0,0,0,7.772-4.271,24.088,24.088,0,0,0,3.93-4.228,22.81,22.81,0,0,0,3.082-5.9l-2.046-.707-2.046-.706-2.045-.706-2.046-.707a14.189,14.189,0,0,1-1.928,3.684"/>
						<path class="cls-3" d="M221.392,11.72l-6.444,18.244L207.5,11.72h-6.507l11.042,25.574A10.07,10.07,0,0,1,209.4,40.6a7.889,7.889,0,0,1-4.521,1.182c-1.365.03-3.057-.01-3.057-.01v5.568s1.691,0,3.057,0c6.166.013,10.226-1.84,12.873-8.956l9.979-26.665Zm-23.6,5.722h-6.032v13.2a3.285,3.285,0,0,0,.773,2.448,3.464,3.464,0,0,0,2.288.825,37.286,37.286,0,0,0,3.778-.027V39.23q-6.84.825-9.817-1.183t-2.978-7.4V5.777l5.956-1.76v7.7H197.8ZM173.047,39.23V12.836L179,11.064V39.23ZM178.7,6.465a3.735,3.735,0,0,1-5.349,0,3.64,3.64,0,0,1-1.13-2.668,3.691,3.691,0,0,1,1.1-2.669,3.8,3.8,0,0,1,5.405,0,3.691,3.691,0,0,1,1.1,2.669,3.643,3.643,0,0,1-1.13,2.668Zm-23.127,33.48a14.254,14.254,0,0,1-14.559-14.471A14.211,14.211,0,0,1,155.573,11a14.322,14.322,0,0,1,7.335,1.926,12.465,12.465,0,0,1,4.964,5.172l-5.129,2.971a7.054,7.054,0,0,0-2.84-3.108,8.436,8.436,0,0,0-4.385-1.129,8.237,8.237,0,0,0-6.094,2.477,8.4,8.4,0,0,0-2.454,6.162,8.4,8.4,0,0,0,2.454,6.162,8.24,8.24,0,0,0,6.094,2.476,8.467,8.467,0,0,0,4.385-1.155,7.552,7.552,0,0,0,2.95-3.082l5.13,2.916a13.115,13.115,0,0,1-5.075,5.228,14.324,14.324,0,0,1-7.335,1.925Zm-29.5-28.94a10.179,10.179,0,0,1,7.667,3.026q2.922,3.025,2.922,8.308V39.23h-5.956V22.944a6.4,6.4,0,0,0-1.654-4.732,6.121,6.121,0,0,0-4.522-1.65,6.815,6.815,0,0,0-5.074,1.953q-1.931,1.953-1.93,5.97V39.23H111.57V11.72h5.956v3.52q2.7-4.235,8.548-4.236ZM84.241,23.164h16.214A7.932,7.932,0,0,0,97.67,18.1a8.04,8.04,0,0,0-5.1-1.706,8.392,8.392,0,0,0-5.515,1.816A8.191,8.191,0,0,0,84.241,23.164Zm.056,4.842A7.543,7.543,0,0,0,87.33,32.82,9.754,9.754,0,0,0,93.12,34.5a8.092,8.092,0,0,0,7.115-3.41l4.908,2.86q-4.082,6-12.078,6a14.761,14.761,0,0,1-10.864-4.1,13.986,13.986,0,0,1-4.136-10.371A14.08,14.08,0,0,1,92.625,11a12.907,12.907,0,0,1,9.953,4.237,14.671,14.671,0,0,1,3.889,10.289,18.509,18.509,0,0,1-.221,2.476H84.3ZM74.683,39.23H53.173V35.269L66.078,17.332h-12.9V11.72H74.124v3.958l-12.84,17.94h13.4V39.23Z"/>
					</g>
					</g>
				</g>
			</svg>
