<svg data-name="Layer 1" xmlns="http://www.w3.org/2000/svg" viewBox="0 0 2219.27 506.75"><path d="M311.49 322.98l112.08-171.61c9.12-13.74 13.75-30 13.75-47.54a95.29 95.29 0 00-24.77-64.64C395.63 20.63 373.41 9.02 348.3 9.02h-232L.04 194.98h170.57L60.77 363.58a83.29 83.29 0 00-13.82 46.68c0 23.67 8.53 45.24 25.35 63.64 23.17 25.35 51.13 32.36 67.2 32.36l250.4.5 108.49-183.77h-186.9zm53.15 129l-3.41 5.41-217-1.38-2.25.08a44.72 44.72 0 01-44.67-44.67 48.4 48.4 0 016.43-23.43l.57-.9 150.94-228.06 5.46-8.77 1.83-3.3H88.45l54.79-84H348.3c11.5 0 20.45 3 28.17 11.49 8.1 8.88 12 18.2 12 29.46 0 7.92-1.8 14.24-5.5 19.81L226.84 359.61l-5.46 7.92-1.83 2.45h194l-10.24 17.61c-16.51 27.98-30.61 51.63-38.67 64.42zM664.76 399.72a20.51 20.51 0 01-4.81-13.36 16.91 16.91 0 012.14-8.55l146.42-235.13H672.77a7.31 7.31 0 01-7.48-7.48v-24.58a7.31 7.31 0 017.48-7.48h173.14a16 16 0 0112.56 5.88 19.26 19.26 0 015.08 12.83 16.87 16.87 0 01-2.67 9.08L714.45 366.05h144.29a7.31 7.31 0 017.48 7.48v24.58a7.31 7.31 0 01-7.48 7.48h-181.7a15.16 15.16 0 01-12.28-5.87zM977.37 390.1a113.59 113.59 0 01-42.22-42.48 115.42 115.42 0 01-15.5-58.51v-76.42a115.46 115.46 0 0115.5-58.51 115.81 115.81 0 01200.93 0 115.54 115.54 0 0115.5 58.51v36.34a19.16 19.16 0 01-19.24 19.24h-171v23.51a73.34 73.34 0 009.89 37.41 72.54 72.54 0 0027 27 73.34 73.34 0 0037.41 9.89h77.49a7.31 7.31 0 017.48 7.48v24.58a7.31 7.31 0 01-7.48 7.48h-77.49a114 114 0 01-58.27-15.52zm132.53-160.31v-19.77a74.58 74.58 0 00-111.69-64.39 73.77 73.77 0 00-36.87 64.39v19.77h148.56zM1306.27 403.72a9.37 9.37 0 01-4-5.08l-100.46-283.76a9.09 9.09 0 01-.53-3.74 7.69 7.69 0 012.4-5.61 8.32 8.32 0 016.15-2.41h24.58a11.31 11.31 0 016.15 1.87 9.47 9.47 0 014 5.08l84.43 243.68 82.83-243.68a9.39 9.39 0 014-5.08 11.29 11.29 0 016.15-1.87h23.51a8.2 8.2 0 017.21 3.47q2.41 3.48.8 8.28l-100.45 283.78a9.44 9.44 0 01-4 5.08 11.24 11.24 0 01-6.15 1.87h-30.46a11.22 11.22 0 01-6.16-1.88zM1604.46 403.72a9.37 9.37 0 01-4-5.08L1500 114.88a9.09 9.09 0 01-.53-3.74 7.69 7.69 0 012.4-5.61 8.32 8.32 0 016.15-2.41h24.58a11.31 11.31 0 016.15 1.87 9.47 9.47 0 014 5.08l84.43 243.68 82.86-243.67a9.39 9.39 0 014-5.08 11.29 11.29 0 016.15-1.87h23.51a8.2 8.2 0 017.21 3.47q2.41 3.48.8 8.28l-100.46 283.76a9.44 9.44 0 01-4 5.08 11.24 11.24 0 01-6.15 1.87h-30.46a11.22 11.22 0 01-6.18-1.87zM1836.39 399.98a18.55 18.55 0 01-5.61-13.63V39.54h-49.74a7.31 7.31 0 01-7.48-7.48V7.48a7.31 7.31 0 017.48-7.48h72.14a19.16 19.16 0 0119.24 19.24v346.81h56.64a7.31 7.31 0 017.48 7.48v24.58a7.31 7.31 0 01-7.48 7.48h-79.02a18.55 18.55 0 01-13.65-5.61zM2045.04 390.1a113.59 113.59 0 01-42.22-42.48 115.42 115.42 0 01-15.5-58.51v-76.42a115.46 115.46 0 0115.5-58.51 115.81 115.81 0 01200.93 0 115.55 115.55 0 0115.5 58.51v36.34a19.16 19.16 0 01-19.24 19.24h-170.97v23.51a73.34 73.34 0 009.89 37.41 72.54 72.54 0 0027 27 73.34 73.34 0 0037.41 9.89h77.49a7.31 7.31 0 017.48 7.48v24.58a7.31 7.31 0 01-7.48 7.48h-77.49a114 114 0 01-58.3-15.52zm132.53-160.31v-19.77a74.58 74.58 0 00-111.69-64.39 73.77 73.77 0 00-36.87 64.39v19.77h148.56z" fill="#da291c"/></svg>