<svg viewBox="0 0 263.2 127" xmlns="http://www.w3.org/2000/svg"><path d="M263.2 28.5v-5.9h-22.5V0h-5.9v22.5H28.5V0h-5.9v22.5H0v5.9h22.5v70.1H0v5.9h22.5V127h5.9v-22.5h206.4V127h5.9v-22.5h22.5v-5.9h-22.5V28.5zm-28.4 70H28.5v-70h206.4v70zM50.9 52.2h9.3c1.7-.1 3.4.4 4.7 1.5 1.1 1.1 1.7 2.7 1.6 4.3 0 1-.2 2-.6 2.8s-1.1 1.4-1.9 1.9c.7.1 1.5.4 2.1.7s1 .7 1.4 1.2.6 1 .8 1.6.2 1.3.2 1.9c0 1-.2 1.9-.6 2.8-.4.8-.9 1.5-1.6 2.1s-1.5 1-2.4 1.2c-1.1.3-2.1.4-3.2.4H51zm5.9 8.9h1.7c1.8 0 2.8-.7 2.8-2.2s-.9-2.2-2.8-2.2h-1.7zm0 9.1h1.9c1.1.1 2.2-.1 3.2-.6 1-.7 1.3-2.1.5-3.1-.1-.2-.3-.4-.5-.5-1-.5-2.1-.6-3.2-.6h-1.9zm36.2-13h-9.9V61h9.6v5h-9.6v3.9H93v5H77.2V52.2H93zm15.2 8.5L100 52.2h7l4.2 7.3 4.2-7.3h7L114 65.7v9h-5.8zm17.8-2.2c0-1.6.3-3.2.9-4.7 1.2-2.9 3.6-5.2 6.5-6.3 3.2-1.2 6.8-1.2 10.1 0 1.5.6 2.9 1.4 4 2.5s2 2.4 2.5 3.8c1.2 3 1.2 6.4 0 9.4-.6 1.4-1.5 2.7-2.6 3.8s-2.5 2-4 2.5c-3.2 1.2-6.8 1.2-10.1 0-1.5-.6-2.8-1.4-3.9-2.5s-2-2.4-2.6-3.8c-.5-1.5-.8-3.1-.8-4.7zm6.1 0c0 .9.2 1.7.5 2.5.6 1.5 1.9 2.7 3.4 3.3 2.4 1 5.1.4 6.9-1.3.6-.6 1.1-1.2 1.4-2 .7-1.6.7-3.4 0-5-.3-.8-.8-1.4-1.4-2-1.9-1.7-4.5-2.2-6.9-1.3-1.5.6-2.7 1.8-3.4 3.4-.3.7-.5 1.5-.5 2.4zm26.5 11.3V52.2h5.9L175.3 66V52.2h5.8v22.5h-5.8L164.5 61v13.8zm38.1-13.3l7.1-9.3h7.2l-8.9 10.7 9.8 11.9h-7.6l-7.6-9.8v9.8h-5.9V52.2h5.9z"/></svg>