<svg xmlns="http://www.w3.org/2000/svg" viewBox="0 0 187.09 22.97"><defs><style>.cls-2,.cls-3{fill-rule:evenodd}.cls-2{fill:#fff}.cls-3{fill:#fcc14f}</style></defs><g id="Layer_2" data-name="Layer 2"><g id="Layer_1-2" data-name="Layer 1"><path fill-rule="evenodd" fill="#606463" d="M187.09 0H0v22.97h187.09V0z"/><path class="cls-2" d="M147.91 10.73a6.74 6.74 0 00-1.44-4.25 12.93 12.93 0 00-4.1-3.38 14.42 14.42 0 00-5.69 3.24 5.79 5.79 0 00-2.09 4.39 6.13 6.13 0 002.09 4.39 16 16 0 005.62 3.24 13.57 13.57 0 004.18-3.46 6.69 6.69 0 001.44-4.18zM153.53 4.75a18.74 18.74 0 016.12 4.61 9.65 9.65 0 012.16 5.91 9.3 9.3 0 01-.5 3.1 15.6 15.6 0 005.62-3.24 6.11 6.11 0 002.16-4.39c0-2.52-1.73-4.68-5-6.48a25.83 25.83 0 00-12.29-2.68l-5.69.5H146a21.19 21.19 0 017.49 2.66z"/><path class="cls-2" d="M144.82 2.38l-1.51.36a16.1 16.1 0 016 4.46 9.08 9.08 0 012.23 6 9.5 9.5 0 01-2.74 6.48l3 .14 3-.14a8.43 8.43 0 002.09-5.47 9.55 9.55 0 00-3.31-6.91 21.9 21.9 0 00-8.79-4.9z"/><path class="cls-3" d="M35.93 5.62h.08l-2.96 12.6h3.24l3.32-15.27h-5.12l-6.04 11.02-1.09-11.02h-5.04l-3.24 15.27h2.88l2.81-12.6h.07l1.23 12.6h2.88l6.98-12.6zM45.58 8.86a1.67 1.67 0 011.87 1.87l-.07.79h-5a6 6 0 011.12-1.94 3.08 3.08 0 012.09-.72zM50.26 11A4.18 4.18 0 0049 7.78a5.16 5.16 0 00-3.34-1.08A6 6 0 0041 8.79a7.26 7.26 0 00-1.87 4.82 4.63 4.63 0 001.51 3.74 6.05 6.05 0 004 1.22 10.6 10.6 0 003.6-.72l.36-2.3a7.77 7.77 0 01-3.46.79c-2.09 0-3.1-.94-3.1-2.81H50a10.83 10.83 0 00.26-2.53zM56.39 9.15H59L59.48 7h-2.66l.72-3.38-3.17 1.06L53.86 7h-2.08l-.5 2.16h2.16L52.57 13a9.61 9.61 0 00-.36 2.59c0 2 1.15 3 3.38 3l1.58-.36.5-2.23-1.44.29c-.72 0-1.08-.36-1.08-1.15l.16-1.14 1.08-4.9zM66.61 9.51l1.08.14.65-2.88-1.15-.07a3.11 3.11 0 00-1.94.72 4.23 4.23 0 00-1.37 1.66h-.08l.36-2.16h-2.73l-2.3 11.31h3l1-5a6 6 0 011.08-2.45 2.85 2.85 0 012.45-1.22zM74.6 9c1.51 0 2.3.86 2.3 2.66a5.32 5.32 0 01-.86 3 3 3 0 01-2.59 1.58c-1.51 0-2.3-.94-2.3-2.66a5.73 5.73 0 01.86-3.1A3 3 0 0174.6 9zm3.89-1a5.26 5.26 0 00-3.74-1.3 6.52 6.52 0 00-6.63 6.7 5.26 5.26 0 001.3 3.74 5.22 5.22 0 003.82 1.44 6.68 6.68 0 004.82-1.94 6.79 6.79 0 001.87-5A4.73 4.73 0 0078.49 8zM92.46 6.99H89.3l-4.4 8.28h-.07l-1.15-8.28h-3.03l1.95 11.23h3.24l6.62-11.23zM91.89 18.22h2.95l2.45-11.31h-2.96l-2.44 11.31zM105.07 13a7.53 7.53 0 01-1 2.38 2.84 2.84 0 01-2.3.94 2.09 2.09 0 01-1-.22 1 1 0 01-.5-.94c0-1.44 1.22-2.16 3.82-2.16zm.36-1.73h-1.08a13.64 13.64 0 00-4.46.58 3.37 3.37 0 00-2.45 3.38 2.88 2.88 0 001 2.45 3.93 3.93 0 002.52.86 4.68 4.68 0 003.6-2.09h.07l-.29 1.73h2.45l.79-4.25a30.31 30.31 0 00.58-3.82 3.25 3.25 0 00-1.3-2.74 5.64 5.64 0 00-3.1-.72 10.51 10.51 0 00-3.82.72l-.43 2.38a7.94 7.94 0 013.67-.94c1.51 0 2.3.5 2.3 1.44l-.07 1zM117.74 9.36l.65-2.16a11.13 11.13 0 00-3.24-.5 6.83 6.83 0 00-3.31.79 3.14 3.14 0 00-1.51 2.81 3.26 3.26 0 001.86 2.7l1.3.94a1.48 1.48 0 01.65 1.15c0 .86-.72 1.22-2 1.22a5.41 5.41 0 01-2.81-.86l-.65 2.38a7.22 7.22 0 003.46.72 6.79 6.79 0 003.46-.86 3.31 3.31 0 001.66-3q0-1.51-1.94-2.81l-1.3-.94a1.25 1.25 0 01-.65-.94c0-.79.65-1.15 1.94-1.15a8.72 8.72 0 012.45.5z"/></g></g></svg>