<svg height="227.901" viewBox="0 0 274.771 60.299" width="1038.506" xmlns="http://www.w3.org/2000/svg"><g stroke="#646464"><g stroke-width="1.8"><path d="M61.932 43.797S42.935 6.984 7.12 13.23M4.423 43.935s20.77-37.79 55.439-30.27M33.419 1.883v56.415m20.822-38.26A20.926 17.844 0 0133.315 37.88a20.926 17.844 0 01-20.926-17.843A20.926 17.844 0 0133.315 2.194 20.926 17.844 0 0154.24 20.038zm11.934 10.196a32.883 28.04 0 01-32.883 28.04A32.883 28.04 0 01.408 30.234a32.883 28.04 0 0132.884-28.04 32.883 28.04 0 0132.883 28.04z" fill="none" stroke-width=".816624"/><g fill="#ffdd57" transform="matrix(.45368 0 0 .45368 -18.96 -52.123)"><circle cx="115.334" cy="198.461" r="3.95"/><circle cx="154.282" cy="179.61" r="3.95"/><circle cx="178.069" cy="211.148" r="3.95"/><circle cx="115.795" cy="242.953" r="3.95"/><circle cx="52.72" cy="211.148" r="3.95"/><circle cx="157.489" cy="142.727" r="3.95"/><circle cx="115.261" cy="151.547" r="3.95"/><circle cx="115.261" cy="119.742" r="3.95"/><circle cx="73.834" cy="142.193" r="3.95"/><circle cx="76.507" cy="178.808" r="3.95"/></g></g><g fill="#ffdd57" stroke-width="3.251"><path d="M74.149 13.665l-1.67 5.93h4.262v25.92h6.502v-25.92h4.261l-1.581-5.93zM105.706 13.665h-6.502v13.618h-3.47V13.665h-6.502v31.85h6.502v-12.74h3.47v12.74h6.502z" stroke-width=".74386131"/><path d="M112.749 13.661v.004h-4.383v26.93c0 3.514 1.318 4.92 4.964 4.92h6.546c3.646 0 4.964-1.406 4.964-4.92v-26.93h-4.571v-.004l-3.188 11.237h5.42l-8.13 15.38 2.153-11.555h-4.702l4.047-15.062z" stroke-width=".7439060999999999"/><path d="M127.5 45.515h5.887V32.204l3.426 13.31h6.546v-31.85h-6.546V26.45l-3.25-12.784H127.5zM155.39 19.244c.44 0 .572.22.572.615v19.418c0 .483-.088.659-.615.659h-2.988V19.244zm6.898-1.713c0-2.329-1.274-3.866-3.778-3.866h-12.477v31.85h11.29c3.647 0 4.965-1.406 4.965-4.92zM164.91 45.515h12.125l1.098-5.93h-6.677v-6.942h5.271v-5.491h-5.271v-7.557h6.94l-1.098-5.93H164.91zM190.1 19.244c.44 0 .616.264.616.659v9.665c0 .483-.132.659-.615.659h-3.12V19.244zm6.898-1.45c0-2.504-1.318-4.13-4.305-4.13h-12.081v31.85h6.37V35.368h.834l3.076 10.148h6.59l-3.34-10.148c1.846 0 2.856-1.406 2.856-2.812zM209.103 19.244c.44 0 .571.22.571.615v19.418c0 .483-.088.659-.615.659h-2.987V19.244zM216 17.531c0-2.329-1.274-3.866-3.778-3.866h-12.476v31.85h11.29c3.646 0 4.964-1.406 4.964-4.92zM228.112 19.244c.439 0 .57.22.57.615v19.418c0 .483-.087.659-.614.659h-2.417c-.527 0-.615-.176-.615-.66V19.86c0-.395.132-.615.571-.615zm7.028-1.45c0-2.504-1.317-4.13-4.305-4.13h-7.907c-2.988 0-4.306 1.626-4.306 4.13V40.99c0 2.416 1.01 4.525 4.57 4.525h7.38c3.558 0 4.568-2.109 4.568-4.525zM247.948 43.23l4.042-12.74v15.025h6.194v-31.85h-6.765l-3.47 13.443-3.471-13.443h-6.722v31.85h6.195V30.49zM260.837 45.515h12.125l1.099-5.93h-6.678v-6.942h5.272v-5.491h-5.272v-7.557h6.941l-1.098-5.93h-12.389z" stroke-width=".74386131"/></g></g></svg>