<?xml version="1.0" encoding="UTF-8"?>
<svg width="153px" height="68px" viewBox="0 0 153 68" version="1.1" xmlns="http://www.w3.org/2000/svg" xmlns:xlink="http://www.w3.org/1999/xlink">
    <!-- Generator: sketchtool 53.1 (72631) - https://sketchapp.com -->
    <title>FC4996CF-B532-47D1-89CD-C7669D128281</title>
    <desc>Created with sketchtool.</desc>
    <g id="Page-1" stroke="none" stroke-width="1" fill="none" fill-rule="evenodd">
        <g id="01-Desktop-C-01" transform="translate(-149.000000, -16.000000)">
            <g id="Header-Design">
                <g id="Logo-IdealYou-Copy">
                    <g transform="translate(149.000000, 16.000000)">
                        <path d="M141.952835,54.4150806 C141.815274,54.3892977 141.669086,54.3766494 141.513792,54.3766494 C141.108779,54.3766494 140.766555,54.4909699 140.486641,54.7205838 C140.206247,54.9497112 140.006856,55.2824567 139.887509,55.7188203 L139.887509,59.8056552 L139.242844,59.8056552 L139.242844,53.8541806 L139.876965,53.8541806 L139.887509,54.7998784 C140.230692,54.0959562 140.782372,53.7437519 141.541112,53.7437519 C141.72181,53.7437519 141.863684,53.7680754 141.968652,53.8157495 L141.952835,54.4150806 Z M133.107739,54.3046519 C132.619806,54.3046519 132.209042,54.4861052 131.874966,54.8499848 C131.540411,55.2128915 131.337665,55.7008209 131.264811,56.3128002 L134.782431,56.3128002 L134.782431,56.2412891 C134.764217,55.6692004 134.60365,55.2036485 134.299771,54.8441472 C133.996371,54.4851323 133.599027,54.3046519 133.107739,54.3046519 L133.107739,54.3046519 Z M133.227086,59.9160839 C132.728129,59.9160839 132.277103,59.7910611 131.874966,59.541502 C131.471871,59.2919428 131.158405,58.9450897 130.93457,58.4994831 C130.710255,58.0533901 130.598577,57.5542718 130.598577,57.0001824 L130.598577,56.763758 C130.598577,56.1916692 130.707379,55.6764974 130.926421,55.2177562 C131.144985,54.7599878 131.449343,54.3995135 131.839498,54.1373062 C132.229652,53.8750988 132.652399,53.7437519 133.107739,53.7437519 C133.819507,53.7437519 134.384128,53.9908787 134.801124,54.4841593 C135.218599,54.9769535 135.427576,55.6507145 135.427576,56.5054424 L135.427576,56.8741867 L131.243242,56.8741867 L131.243242,57.0001824 C131.243242,57.6749164 131.434006,58.2367893 131.815053,58.6862876 C132.19658,59.1352995 132.676364,59.3600486 133.254406,59.3600486 C133.600944,59.3600486 133.90722,59.2958346 134.172755,59.167893 C134.43829,59.0394649 134.67938,58.8341745 134.896026,58.5515354 L135.302477,58.8648221 C134.825568,59.5658255 134.133931,59.9160839 133.227086,59.9160839 L133.227086,59.9160839 Z M125.845308,52.3305564 L125.845308,53.8541806 L127.059388,53.8541806 L127.059388,54.3931894 L125.845308,54.3931894 L125.845308,58.3632715 C125.845308,58.6940711 125.903783,58.9397385 126.021213,59.1012466 C126.138643,59.2632411 126.334679,59.3435087 126.608841,59.3435087 C126.717643,59.3435087 126.89259,59.3255093 127.135118,59.289024 L127.162439,59.8231681 C126.992285,59.8844634 126.76126,59.9160839 126.467926,59.9160839 C126.024089,59.9160839 125.700558,59.784737 125.498291,59.5225296 C125.295545,59.2603223 125.194412,58.8740651 125.194412,58.3642445 L125.194412,54.3931894 L124.115975,54.3931894 L124.115975,53.8541806 L125.194412,53.8541806 L125.194412,52.3305564 L125.845308,52.3305564 Z M116.804656,53.8541806 L116.826704,54.8713895 C117.046705,54.5050775 117.321347,54.2248708 117.650629,54.0327151 C117.978953,53.840073 118.342266,53.7437519 118.73961,53.7437519 C119.368459,53.7437519 119.83626,53.9237458 120.143495,54.2832472 C120.450729,54.6427486 120.606024,55.1812709 120.609379,55.9002736 L120.609379,59.8056552 L119.964714,59.8056552 L119.964714,55.8949225 C119.96088,55.3627242 119.849681,54.9672241 119.631597,54.7069626 C119.412555,54.4462147 119.063141,54.3158407 118.582398,54.3158407 C118.18122,54.3158407 117.826534,54.4437823 117.517862,54.6982061 C117.20871,54.9531164 116.980081,55.2965643 116.831976,55.7295227 L116.831976,59.8056552 L116.186831,59.8056552 L116.186831,53.8541806 L116.804656,53.8541806 Z M110.051726,54.3046519 C109.564273,54.3046519 109.153029,54.4861052 108.818954,54.8499848 C108.484878,55.2128915 108.281653,55.7008209 108.209278,56.3128002 L111.726418,56.3128002 L111.726418,56.2412891 C111.708205,55.6692004 111.547637,55.2036485 111.244237,54.8441472 C110.940837,54.4851323 110.543493,54.3046519 110.051726,54.3046519 L110.051726,54.3046519 Z M110.171073,59.9160839 C109.672117,59.9160839 109.22157,59.7910611 108.818954,59.541502 C108.415858,59.2919428 108.102393,58.9450897 107.878557,58.4994831 C107.654242,58.0533901 107.542564,57.5542718 107.542564,57.0001824 L107.542564,56.763758 C107.542564,56.1916692 107.651846,55.6764974 107.870888,55.2177562 C108.089451,54.7599878 108.393331,54.3995135 108.783964,54.1373062 C109.173639,53.8750988 109.596386,53.7437519 110.051726,53.7437519 C110.763974,53.7437519 111.328116,53.9908787 111.74559,54.4841593 C112.163065,54.9769535 112.371563,55.6507145 112.371563,56.5054424 L112.371563,56.8741867 L108.187709,56.8741867 L108.187709,57.0001824 C108.187709,57.6749164 108.377993,58.2367893 108.759041,58.6862876 C109.140567,59.1352995 109.620352,59.3600486 110.198394,59.3600486 C110.545411,59.3600486 110.851207,59.2958346 111.116742,59.167893 C111.382757,59.0394649 111.623847,58.8341745 111.840493,58.5515354 L112.246464,58.8648221 C111.769556,59.5658255 111.077919,59.9160839 110.171073,59.9160839 L110.171073,59.9160839 Z M103.878277,57.308118 C103.788167,58.1521435 103.490998,58.7972028 102.986769,59.2447552 C102.48302,59.6923077 101.811993,59.9160839 100.973688,59.9160839 C100.387977,59.9160839 99.870807,59.7672241 99.4212188,59.4704773 C98.9711513,59.1727577 98.6236551,58.7524476 98.3777716,58.2076011 C98.1318881,57.6632411 98.0067895,57.0405594 98.0039137,56.3400426 L98.0039137,55.3004561 C98.0039137,54.5892369 98.1261365,53.9587717 98.37202,53.408574 C98.6179035,52.8583764 98.9711513,52.4341745 99.4317635,52.1349954 C99.8923757,51.8358164 100.422966,51.6869565 101.022098,51.6869565 C101.867592,51.6869565 102.535264,51.9175433 103.024634,52.3796899 C103.514484,52.8418364 103.798712,53.482031 103.878277,54.2997872 L103.206291,54.2997872 C103.039972,52.9391304 102.312387,52.2585588 101.022098,52.2585588 C100.306975,52.2585588 99.7370809,52.5304956 99.3124166,53.0733962 C98.8877522,53.6167832 98.6758994,54.36692 98.6758994,55.3247796 L98.6758994,56.3050167 C98.6758994,57.2297963 98.8824799,57.9677714 99.2961202,58.517969 C99.7097605,59.0681666 100.26911,59.3435087 100.973688,59.3435087 C101.671077,59.3435087 102.196875,59.1737306 102.550602,58.834661 C102.904808,58.4955914 103.123371,57.9867437 103.206291,57.308118 L103.878277,57.308118 Z M84.8872507,54.8606871 C85.1010207,54.5050775 85.373266,54.2297355 85.7059038,54.0356339 C86.0385415,53.8410459 86.4013754,53.7437519 86.7953642,53.7437519 C87.4237332,53.7437519 87.8920143,53.9237458 88.1992488,54.2832472 C88.5060041,54.6427486 88.6612989,55.1812709 88.6646541,55.9002736 L88.6646541,59.8056552 L88.020468,59.8056552 L88.020468,55.8949225 C88.0166336,55.3627242 87.9049555,54.9672241 87.6868717,54.7069626 C87.4678293,54.4462147 87.1188952,54.3158407 86.6381521,54.3158407 C86.2369738,54.3158407 85.882288,54.4437823 85.5731362,54.6982061 C85.2644638,54.9531164 85.0358352,55.2965643 84.8872507,55.7295227 L84.8872507,59.8056552 L84.2425853,59.8056552 L84.2425853,51.3566434 L84.8872507,51.3566434 L84.8872507,54.8606871 Z M79.1317552,52.3305564 L79.1317552,53.8541806 L80.345835,53.8541806 L80.345835,54.3931894 L79.1317552,54.3931894 L79.1317552,58.3632715 C79.1317552,58.6940711 79.1907097,58.9397385 79.3076602,59.1012466 C79.4255692,59.2632411 79.6211257,59.3435087 79.8952882,59.3435087 C80.0040904,59.3435087 80.1790368,59.3255093 80.4215652,59.289024 L80.4488856,59.8231681 C80.2792116,59.8844634 80.0481865,59.9160839 79.7548518,59.9160839 C79.310536,59.9160839 78.9874844,59.784737 78.7852176,59.5225296 C78.5824716,59.2603223 78.4813382,58.8740651 78.4813382,58.3642445 L78.4813382,54.3931894 L77.4029017,54.3931894 L77.4029017,53.8541806 L78.4813382,53.8541806 L78.4813382,52.3305564 L79.1317552,52.3305564 Z M73.1591345,59.8056552 L73.8095515,59.8056552 L73.8095515,51.3566434 L73.1591345,51.3566434 L73.1591345,59.8056552 Z M66.2489931,59.3323199 C66.6822849,59.3323199 67.0700427,59.2262694 67.4113079,59.013682 C67.7525731,58.8010946 68.0008532,58.516996 68.1566273,58.1609 L68.1566273,56.8518091 L66.996709,56.8518091 C66.3501264,56.8591061 65.8439803,56.9792642 65.4792291,57.2122834 C65.1144779,57.4453025 64.9318627,57.7649133 64.9318627,58.1720888 C64.9318627,58.5058072 65.0540855,58.7826087 65.2975725,59.0029796 C65.5415388,59.2228641 65.8588387,59.3323199 66.2489931,59.3323199 L66.2489931,59.3323199 Z M68.286519,59.8056552 C68.2213335,59.6183642 68.179634,59.3420493 68.1618997,58.9752508 C67.9342298,59.2758893 67.6442502,59.5079355 67.2919609,59.670903 C66.9396717,59.8343569 66.5667723,59.9160839 66.1727836,59.9160839 C65.6091208,59.9160839 65.1533016,59.7560353 64.8043675,59.4369109 C64.4554334,59.118273 64.2814457,58.7149894 64.2814457,58.2270599 C64.2814457,57.6476741 64.519181,57.1894193 64.9941724,56.8518091 C65.4691637,56.5141988 66.1315633,56.3458802 66.9804126,56.3458802 L68.1566273,56.3458802 L68.1566273,55.6692004 C68.1566273,55.2435391 68.0272149,54.9093341 67.7688695,54.6656126 C67.5110034,54.4214047 67.1337903,54.2997872 66.6391474,54.2997872 C66.1871627,54.2997872 65.8133047,54.4170265 65.5170942,54.651505 C65.2208837,54.8864701 65.0727784,55.1686227 65.0727784,55.4989358 L64.4223614,55.4930982 C64.4223614,55.0202493 64.6390073,54.6101551 65.0727784,54.2633019 C65.5060702,53.9174217 66.0390574,53.7437519 66.6717402,53.7437519 C67.3255123,53.7437519 67.8412446,53.9101247 68.218937,54.2418972 C68.5966294,54.5736698 68.7907479,55.0363028 68.8012927,55.6307692 L68.8012927,58.4469444 C68.8012927,59.0229249 68.8612058,59.4534509 68.9800735,59.7394953 L68.9800735,59.8056552 L68.286519,59.8056552 Z M58.4497407,54.3046519 C57.9622874,54.3046519 57.5510437,54.4861052 57.216968,54.8499848 C56.8828924,55.2128915 56.6791877,55.7008209 56.607292,56.3128002 L60.1244327,56.3128002 L60.1244327,56.2412891 C60.1062191,55.6692004 59.9456519,55.2036485 59.6422518,54.8441472 C59.3388516,54.4851323 58.9410284,54.3046519 58.4497407,54.3046519 L58.4497407,54.3046519 Z M58.5690877,59.9160839 C58.0706104,59.9160839 57.6195843,59.7910611 57.216968,59.541502 C56.8138724,59.2919428 56.5004069,58.9450897 56.2765714,58.4994831 C56.052736,58.0533901 55.9405786,57.5542718 55.9405786,57.0001824 L55.9405786,56.763758 C55.9405786,56.1916692 56.0498601,55.6764974 56.2684233,55.2177562 C56.4869864,54.7599878 56.7913451,54.3995135 57.1814994,54.1373062 C57.5721331,53.8750988 57.9944009,53.7437519 58.4497407,53.7437519 C59.1615088,53.7437519 59.7261301,53.9908787 60.1436049,54.4841593 C60.5610796,54.9769535 60.7695773,55.6507145 60.7695773,56.5054424 L60.7695773,56.8741867 L56.5857232,56.8741867 L56.5857232,57.0001824 C56.5857232,57.6749164 56.7760073,58.2367893 57.1570549,58.6862876 C57.5385817,59.1352995 58.0178868,59.3600486 58.5959288,59.3600486 C58.9429456,59.3600486 59.2492216,59.2958346 59.5147566,59.167893 C59.7802916,59.0394649 60.0218614,58.8341745 60.2385073,58.5515354 L60.644958,58.8648221 C60.1680494,59.5658255 59.4759329,59.9160839 58.5690877,59.9160839 L58.5690877,59.9160839 Z M51.8918885,59.8056552 L51.2199028,59.8056552 L51.2199028,55.9659471 L46.7106005,55.9659471 L46.7106005,59.8056552 L46.0438871,59.8056552 L46.0438871,51.7964123 L46.7106005,51.7964123 L46.7106005,55.3943448 L51.2199028,55.3943448 L51.2199028,51.7964123 L51.8918885,51.7964123 L51.8918885,59.8056552 Z" id="Fill-4" fill="#231F20"></path>
                        <path d="M149.393224,45.7964889 L149.393224,43.6143709 C148.859099,44.3924426 148.156505,45.0051087 147.285921,45.4533198 C146.415336,45.9015309 145.496412,46.1258741 144.529149,46.1258741 C143.54322,46.1258741 142.659234,45.9105617 141.876235,45.4808874 C141.092756,45.0512131 140.526565,44.4471025 140.176225,43.6690308 C139.826364,42.8919098 139.651673,41.8167735 139.651673,40.4445725 L139.651673,31.2227359 L143.534126,31.2227359 L143.534126,37.9197609 C143.534126,39.9687938 143.605439,41.2245454 143.748542,41.6865403 C143.891167,42.1485352 144.151528,42.5145189 144.529149,42.7840159 C144.906769,43.0539882 145.385854,43.1894497 145.966403,43.1894497 C146.629751,43.1894497 147.223702,43.0088344 147.748733,42.6471285 C148.273764,42.2854226 148.633197,41.8372115 148.826554,41.3020199 C149.020389,40.7668282 149.117068,39.4564168 149.117068,37.3703101 L149.117068,31.2227359 L153,31.2227359 L153,45.7964889 L149.393224,45.7964889 Z M125.528961,38.5096124 C125.528961,39.95501 125.874036,41.0619917 126.565143,41.8305573 C127.256251,42.5986476 128.10817,42.983168 129.121858,42.983168 C130.135067,42.983168 130.984593,42.5986476 131.671393,41.8305573 C132.357236,41.0619917 132.700396,39.9459793 132.700396,38.4820448 C132.700396,37.0547087 132.357236,35.9572331 131.671393,35.1886675 C130.984593,34.4201019 130.135067,34.0355814 129.121858,34.0355814 C128.10817,34.0355814 127.256251,34.4201019 126.565143,35.1886675 C125.874036,35.9572331 125.528961,37.0642147 125.528961,38.5096124 L125.528961,38.5096124 Z M121.548872,38.3033307 C121.548872,37.0228633 121.866666,35.7837474 122.502255,34.5845569 C123.138323,33.386317 124.038581,32.4713579 125.203987,31.840155 C126.369394,31.2089521 127.670724,30.8933506 129.1075,30.8933506 C131.327754,30.8933506 133.147415,31.6091576 134.566482,33.0407714 C135.984592,34.4728606 136.694365,36.2818653 136.694365,38.468261 C136.694365,40.6736688 135.977892,42.5007351 134.545423,43.9504104 C133.112476,45.4010364 131.309567,46.1258741 129.135737,46.1258741 C127.790375,46.1258741 126.507711,45.8240565 125.287265,45.2199458 C124.06634,44.6163105 123.138323,43.7308203 122.502255,42.5644257 C121.866666,41.3980312 121.548872,39.9778246 121.548872,38.3033307 L121.548872,38.3033307 Z M111.019535,45.7964889 L111.019535,37.329434 L103.598746,25.6783217 L108.393902,25.6783217 L113.161298,33.6377525 L117.832016,25.6783217 L122.543894,25.6783217 L115.095824,37.3565263 L115.095824,45.7964889 L111.019535,45.7964889 Z" id="Fill-3" fill="#8BC53F"></path>
                        <path d="M90.5834589,45.7964889 L94.4858934,45.7964889 L94.4858934,25.6783217 L90.5834589,25.6783217 L90.5834589,45.7964889 Z M82.9031716,38.7976462 C82.4034022,38.9625765 81.6116596,39.1593521 80.528425,39.3874978 C79.4456714,39.6161187 78.7371436,39.8404619 78.4033227,40.0600521 C77.894414,40.4165296 77.6399597,40.8694938 77.6399597,41.4184692 C77.6399597,41.9584139 77.843427,42.4251618 78.2508425,42.8182377 C78.658258,43.211789 79.1767868,43.4085646 79.8064289,43.4085646 C80.5096656,43.4085646 81.1811556,43.1799436 81.819937,42.7222264 C82.2918078,42.3747797 82.6020593,41.9493831 82.7506914,41.4460368 C82.8526655,41.1166515 82.9031716,40.4897264 82.9031716,39.5657365 L82.9031716,38.7976462 Z M77.6813266,35.6687239 L74.1401306,35.037521 C74.5379259,33.6287217 75.2233653,32.5854307 76.1954866,31.9085987 C77.1676079,31.2312913 78.612081,30.8928753 80.528425,30.8928753 C82.2692004,30.8928753 83.5650414,31.0967805 84.4169102,31.5036402 C85.268779,31.9109752 85.8681175,32.42763 86.2154067,33.0545552 C86.562696,33.6810051 86.7363406,34.8312393 86.7363406,36.5057332 L86.6944928,41.0068565 C86.6944928,42.2877991 86.7575051,43.232227 86.8820867,43.8406154 C87.0071493,44.4490037 87.2409202,45.10112 87.5833993,45.7960136 L83.7228127,45.7960136 C83.6203576,45.539825 83.495295,45.1605329 83.3476249,44.6571866 C83.2826885,44.4285657 83.2365116,44.2774192 83.209094,44.2042225 C82.5424141,44.8444561 81.8295572,45.3249879 81.0700423,45.6453424 C80.3105275,45.9652216 79.5009876,46.1258741 78.6399796,46.1258741 C77.1209499,46.1258741 75.9246779,45.7185391 75.0497206,44.9038691 C74.1747634,44.0901496 73.7375252,43.0611178 73.7375252,41.8162982 C73.7375252,40.9930727 73.9361824,40.2587289 74.3344587,39.6142175 C74.732735,38.9687555 75.2902257,38.4749152 76.0078926,38.1317462 C76.7255596,37.7890524 77.7602122,37.489136 79.1118504,37.2329474 C80.9358405,36.8945314 82.1994539,36.5789299 82.9031716,36.2861431 L82.9031716,35.9020979 C82.9031716,35.1606246 82.7179827,34.6325625 82.348086,34.316961 C81.9772273,34.0013596 81.2783197,33.8435589 80.2504012,33.8435589 C79.5563037,33.8435589 79.0146864,33.978545 78.6255493,34.2485174 C78.2368932,34.5184897 77.9223126,34.9918919 77.6813266,35.6687239 L77.6813266,35.6687239 Z M67.7099884,37.260515 C67.6820898,36.1445026 67.3905977,35.2960861 66.8350311,34.71479 C66.2794645,34.1339692 65.6036454,33.8435589 64.8075738,33.8435589 C63.955705,33.8435589 63.2519873,34.1501296 62.6964207,34.7627956 C62.1408541,35.375937 61.8681214,36.2086686 61.8772606,37.260515 L67.7099884,37.260515 Z M67.4877618,41.1580029 L71.376728,41.8029897 C70.8764775,43.211789 70.08714,44.2845487 69.0087155,45.021269 C67.92981,45.7570387 66.5800958,46.1258741 64.960535,46.1258741 C62.3957895,46.1258741 60.4972428,45.2978956 59.2663381,43.6414632 C58.2942168,42.3153667 57.8079157,40.6413481 57.8079157,38.6189322 C57.8079157,36.2039156 58.446697,34.312208 59.7242597,32.9447601 C61.0023034,31.5768369 62.6180161,30.8928753 64.5713979,30.8928753 C66.7657657,30.8928753 68.4969208,31.6091576 69.7653443,33.0407714 C71.0337678,34.4723853 71.6403215,36.6659105 71.5850053,39.6208717 L61.8079952,39.6208717 C61.8354128,40.7644517 62.1499933,41.6542197 62.7522179,42.2897004 C63.3539615,42.9256563 64.1038561,43.2436343 65.0019019,43.2436343 C65.6132656,43.2436343 66.1269843,43.0791793 66.543539,42.749794 C66.9600937,42.4204088 67.2746743,41.8899702 67.4877618,41.1580029 L67.4877618,41.1580029 Z M44.6840377,38.1935356 C44.6840377,39.7492037 44.9014542,40.8742468 45.3367683,41.5696157 C45.9664104,42.575833 46.8456968,43.0791793 47.9755894,43.0791793 C48.8731541,43.0791793 49.6369981,42.7017884 50.2671212,41.9470066 C50.8962824,41.1922248 51.2113439,40.0648051 51.2113439,38.5642723 C51.2113439,36.8897784 50.9059026,35.6848842 50.2945388,34.948164 C49.6836561,34.211919 48.9015337,33.8435589 47.9476908,33.8435589 C47.0217465,33.8435589 46.2463583,34.207166 45.6215262,34.9343802 C44.9966942,35.6615944 44.6840377,36.748138 44.6840377,38.1935356 L44.6840377,38.1935356 Z M55.0998291,45.7960136 L51.4754185,45.7960136 L51.4754185,43.6557223 C50.8731939,44.4879786 50.1627421,45.1077742 49.3431009,45.5151093 C48.5239408,45.921969 47.6980466,46.1258741 46.8644562,46.1258741 C45.1703388,46.1258741 43.7191315,45.4509433 42.5103533,44.1015569 C41.3025371,42.7521706 40.6983885,40.8694938 40.6983885,38.4544772 C40.6983885,35.9843254 41.2861827,34.1064016 42.4617713,32.8211812 C43.6378408,31.5359608 45.1236808,30.8928753 46.9197723,30.8928753 C48.5677128,30.8928753 49.9939075,31.5701827 51.1973947,32.9238468 L51.1973947,25.6783217 L55.0998291,25.6783217 L55.0998291,45.7960136 Z M33.5736677,45.7964889 L37.6843795,45.7964889 L37.6843795,25.6783217 L33.5736677,25.6783217 L33.5736677,45.7964889 Z" id="Fill-1" fill="#5B9E44"></path>
                        <g id="Logo-Symbol">
                            <path d="M35.492163,21.984359 C32.4282499,21.0639606 29.4332904,20.9518212 26.7521881,21.8627162 C17.4135066,25.0344555 15.366301,39.0884679 22.1784312,53.2394144 C25.0963531,59.3082464 29.1717426,64.3977595 33.6066415,68 C27.1435587,64.8743519 20.676196,58.202533 16.5161601,49.5554451 C9.78724965,35.5655803 11.641861,21.7420238 20.6643075,18.6738709 C25.0887444,17.1694924 30.4162344,18.5503275 35.492163,21.984359" id="Fill-5" fill="#8BC53F"></path>
                            <path d="M12.9498433,23.6889416 C4.91734962,16.1722809 11.0794803,0 11.0794803,0 C1.16795346,12.8373311 7.58441111,27.5074165 10.52314,31.3846154 C10.8005876,28.2315202 11.1425804,26.6431331 12.9498433,23.6889416" id="Fill-6" fill="#5B9E44"></path>
                            <path d="M14.8794941,9.00587111 C13.3735403,11.8770812 13.651131,14.9625039 15.4985118,15.8977252 C17.3444417,16.8329464 20.0652176,15.2612617 21.571655,12.3929015 C23.0771252,9.51979158 22.8014689,6.43626874 20.9526374,5.50104747 C19.1033222,4.56630117 16.3844807,6.13371112 14.8794941,9.00587111" id="Fill-7" fill="#8BC53F"></path>
                            <path d="M1.3854431,33.8286239 C0.0568089006,31.2371514 1.86775551,26.5580775 6.35464994,26.6301946 L6.44948396,29.1803896 C5.54951869,28.4672839 2.45208634,32.3867556 5.69895411,34.0430776 C12.4542017,37.4899922 21.600416,37.4899922 35.492163,48.5504842 L34.8379041,52.3076923 C34.8379041,52.3076923 25.6821105,43.3552033 10.9986431,39.4295637 C6.64442055,38.2666748 2.95116234,36.8817411 1.3854431,33.8286239" id="Fill-8" fill="#F5B144"></path>
                            <path d="M5.80563783,34.2029446 C2.95086155,32.221281 5.47563707,29.0479712 6.71473354,29.2652137 L6.61764565,26.6293706 C4.47926033,26.6602652 2.82435309,27.7469681 2.0275459,29.0190382 C1.40284907,30.5260048 3.56918393,32.9019415 5.7938696,34.2377622 C5.79681166,34.2259929 5.80220543,34.2137332 5.80563783,34.2029446" id="Fill-9" fill="#D08638"></path>
                            <path d="M23.9728261,36.6107791 C25.2449662,34.5784311 24.0342564,30.6506315 20.2889407,30.4335664 L20.0466053,32.5109214 C20.8427812,31.9825578 23.1761665,35.3702733 20.3639148,36.5226404 C14.5115869,38.9211392 5.55533399,38.7668964 0,43.4963835 L0.305700573,46.6013986 C0.305700573,46.6013986 4.92990544,42.2713488 15.6013707,40.5938999 C19.3249198,40.0092775 22.4752803,39.0069338 23.9728261,36.6107791" id="Fill-10" fill="#F5B144"></path>
                        </g>
                    </g>
                </g>
            </g>
        </g>
    </g>
</svg>