<?xml version="1.0" encoding="UTF-8"?>
<svg width="446px" height="56px" viewBox="0 0 446 56" version="1.1" xmlns="http://www.w3.org/2000/svg" xmlns:xlink="http://www.w3.org/1999/xlink">
    <!-- Generator: Sketch 58 (84663) - https://sketch.com -->
    <title>COMMUNITY</title>
    <desc>Created with Sketch.</desc>
    <g id="Page-1" stroke="none" stroke-width="1" fill="none" fill-rule="evenodd">
        <path d="M23.056,55.912 C19.863984,55.912 16.9886795,55.3800053 14.43,54.316 C11.8713205,53.2519947 9.7686749,51.8333422 8.122,50.06 C6.4753251,48.2866578 5.09467224,46.1840122 3.98,43.752 C2.86532776,41.3199878 2.08000228,38.837346 1.624,36.304 C1.16799772,33.770654 0.94,31.1360137 0.94,28.4 C0.94,25.1573171 1.34532928,21.9906821 2.156,18.9 C2.96667072,15.8093179 4.1953251,12.8833471 5.842,10.122 C7.4886749,7.36065286 9.79398518,5.13134182 12.758,3.434 C15.7220148,1.73665818 19.1546472,0.888 23.056,0.888 C27.7173566,0.888 31.5933179,1.91398974 34.684,3.966 C37.7746821,6.01801026 39.9279939,8.51331864 41.144,11.452 L33.924,14.796 C32.5559932,12.6173224 31.0486749,11.0213384 29.402,10.008 C27.7553251,8.9946616 25.6400129,8.488 23.056,8.488 C20.522654,8.488 18.318676,9.09599392 16.444,10.312 C14.569324,11.5280061 13.1253384,13.1493232 12.112,15.176 C11.0986616,17.2026768 10.3513357,19.317989 9.87,21.522 C9.38866426,23.726011 9.148,26.0186548 9.148,28.4 C9.148,33.6693597 10.3386548,38.3053133 12.72,42.308 C15.1013452,46.3106867 18.5466441,48.312 23.056,48.312 C27.514689,48.312 31.1119863,46.0320228 33.848,41.472 L41.22,44.284 C37.8759833,52.0360388 31.8213772,55.912 23.056,55.912 Z M82.488,54.316 C79.8026532,55.3800053 76.8133498,55.912 73.52,55.912 C70.2266502,55.912 67.2373468,55.3800053 64.552,54.316 C61.8666532,53.2519947 59.6626753,51.8333422 57.94,50.06 C56.2173247,48.2866578 54.7733392,46.1840122 53.608,43.752 C52.4426608,41.3199878 51.6066692,38.837346 51.1,36.304 C50.5933308,33.770654 50.34,31.1360137 50.34,28.4 C50.34,25.6639863 50.5933308,23.029346 51.1,20.496 C51.6066692,17.962654 52.4426608,15.4800122 53.608,13.048 C54.7733392,10.6159878 56.2173247,8.5133422 57.94,6.74 C59.6626753,4.9666578 61.8666532,3.54800532 64.552,2.484 C67.2373468,1.41999468 70.2266502,0.888 73.52,0.888 C76.8133498,0.888 79.8026532,1.41999468 82.488,2.484 C85.1733468,3.54800532 87.3773247,4.9666578 89.1,6.74 C90.8226753,8.5133422 92.2666608,10.6159878 93.432,13.048 C94.5973392,15.4800122 95.4333308,17.962654 95.94,20.496 C96.4466692,23.029346 96.7,25.6639863 96.7,28.4 C96.7,31.1360137 96.4466692,33.770654 95.94,36.304 C95.4333308,38.837346 94.5973392,41.3199878 93.432,43.752 C92.2666608,46.1840122 90.8226753,48.2866578 89.1,50.06 C87.3773247,51.8333422 85.1733468,53.2519947 82.488,54.316 Z M66.528,46.564 C68.5546768,47.7293392 70.8853202,48.312 73.52,48.312 C76.1546798,48.312 78.4853232,47.6913395 80.512,46.45 C82.5386768,45.2086605 84.1093278,43.5746768 85.224,41.548 C86.3386722,39.5213232 87.1619973,37.406011 87.694,35.202 C88.2260027,32.997989 88.492,30.7306783 88.492,28.4 C88.492,25.9679878 88.2260027,23.6246779 87.694,21.37 C87.1619973,19.1153221 86.3386722,17.0000099 85.224,15.024 C84.1093278,13.0479901 82.5386768,11.4646726 80.512,10.274 C78.4853232,9.08332738 76.1546798,8.488 73.52,8.488 C70.8853202,8.488 68.5546768,9.10866046 66.528,10.35 C64.5013232,11.5913395 62.9306722,13.2253232 61.816,15.252 C60.7013278,17.2786768 59.8780027,19.393989 59.346,21.598 C58.8139973,23.802011 58.548,26.0693217 58.548,28.4 C58.548,30.8320122 58.8139973,33.1753221 59.346,35.43 C59.8780027,37.6846779 60.7013278,39.7999901 61.816,41.776 C62.9306722,43.7520099 64.5013232,45.3479939 66.528,46.564 Z M155.904,55 L148,55 L148,25.892 C148,22.0413141 148.126665,19.178676 148.38,17.304 L147.917918,18.6551157 C146.925526,21.5239805 145.990227,24.0122561 145.112,26.12 L132.268,55.912 L119.348,25.892 C117.98,22.8013179 116.865338,19.9386798 116.004,17.304 L116.067214,17.8154572 C116.278406,19.6839972 116.384,22.3761563 116.384,25.892 L116.384,55 L108.48,55 L108.48,1.8 L116.46,1.8 L130.748,35.012 C131.254669,36.2280061 131.735998,37.6213255 132.192,39.192 C132.546668,38.0773278 133.05333,36.6840084 133.712,35.012 L147.924,1.8 L155.904,1.8 L155.904,55 Z M217.008,55 L209.104,55 L209.104,25.892 C209.104,22.0413141 209.230665,19.178676 209.484,17.304 L209.021918,18.6551157 C208.029526,21.5239805 207.094227,24.0122561 206.216,26.12 L193.372,55.912 L180.452,25.892 C179.084,22.8013179 177.969338,19.9386798 177.108,17.304 L177.171214,17.8154572 C177.382406,19.6839972 177.488,22.3761563 177.488,25.892 L177.488,55 L169.584,55 L169.584,1.8 L177.564,1.8 L191.852,35.012 C192.358669,36.2280061 192.839998,37.6213255 193.296,39.192 C193.650668,38.0773278 194.15733,36.6840084 194.816,35.012 L209.028,1.8 L217.008,1.8 L217.008,55 Z M250.296,55.912 C244.266637,55.912 239.428018,54.2526833 235.78,50.934 C232.131982,47.6153167 230.308,42.2573703 230.308,34.86 L230.308,1.8 L238.212,1.8 L238.212,34.86 C238.212,39.8253582 239.275989,43.3086567 241.404,45.31 C243.532011,47.3113433 246.495981,48.312 250.296,48.312 C254.096019,48.312 257.072656,47.3113433 259.226,45.31 C261.379344,43.3086567 262.456,39.8253582 262.456,34.86 L262.456,1.8 L270.36,1.8 L270.36,34.86 C270.36,42.2573703 268.561351,47.6153167 264.964,50.934 C261.366649,54.2526833 256.477364,55.912 250.296,55.912 Z M323.94,55 L316.492,55 L293.464,18.9 C292.754663,17.7853278 292.045337,16.4680076 291.336,14.948 L291.554104,18.6281953 C291.560701,18.7671761 291.564,18.8577776 291.564,18.9 L291.564,55 L283.66,55 L283.66,1.8 L291.64,1.8 L314.06,37.292 L314.292392,37.6811209 C314.816398,38.576908 315.473596,39.8151921 316.264,41.396 C316.111999,39.8759924 316.036,38.5333392 316.036,37.368 L316.036,1.8 L323.94,1.8 L323.94,55 Z M338,55 L338,1.8 L345.904,1.8 L345.904,55 L338,55 Z M379.496,9.4 L379.496,55 L371.592,55 L371.592,9.4 L356.544,9.4 L356.544,1.8 L394.544,1.8 L394.544,9.4 L379.496,9.4 Z M419.32,55 L419.32,34.176 L400.624,1.8 L409.668,1.8 L423.272,26.12 L436.876,1.8 L445.92,1.8 L427.224,34.1 L427.224,55 L419.32,55 Z" id="COMMUNITY" fill="#4A4A55" fill-rule="nonzero"></path>
    </g>
</svg>